<?xml version="1.0" encoding="UTF-8"?>
<!-- Generator: Adobe Illustrator 16.0.0, SVG Export Plug-In . SVG Version: 6.00 Build 0)  -->
<!DOCTYPE svg PUBLIC "-//W3C//DTD SVG 1.1//EN" "http://www.w3.org/Graphics/SVG/1.1/DTD/svg11.dtd">
<svg version="1.1" id="Layer_1" xmlns="http://www.w3.org/2000/svg" xmlns:xlink="http://www.w3.org/1999/xlink" x="0px" y="0px" width="1092.407px" height="464.033px" viewBox="0 0 1092.407 464.033" enable-background="new 0 0 1092.407 464.033" xml:space="preserve">
<path opacity="0.1" fill-rule="evenodd" clip-rule="evenodd" d="M0,459.289V332.898c6.998,4.502,13.113,10.127,17.884,16.891  c38.06-2.295,76.027,18.017,91.695,54.447c-3.758,2.043-11.706,8.926-11.694,18.113c6.018-9.552,15.618-15.057,25.102-18.111  c21.407-6.89,43.913-0.381,58.458,14.873c1.719-19.686,14.949-37.375,34.939-43.811c26.288-8.463,54.434,5.707,63.38,31.701  c18.877-20.037,53.161-11.322,59.538,16.15c-12.987-2.559-28.829,2.885-36.782,14.693c9.667-7.275,25.083-11.063,34.917-8.669  c-3.418,3.725-4.675,8.23-4.277,11.349c6.334-9.465,16.398-15.464,25.16-18.284c19.934-6.416,41.173-2.145,55.678,11.618  c17.393-3.328,35.289-1.237,51.18,5.781c10.355-35.166,42.874-60.84,81.394-60.84c18.531,0,39.962,5.72,51.327,21.412  c-0.315-8.964-9.721-20.109-14.604-22.692c24.998-44.075,74.186-71.575,126.218-71.575c41.731,0,77.737,15.787,105.06,46.961  c0.061-8.969-10.377-27.619-24.814-36.924c7.857-46.784,53.053-78.473,100.338-69.043c7.151-18.043,17.109-34.668,29.332-49.341  h-84.826c-17.56,0-31.797-14.235-31.797-31.798c0-14.211,9.327-26.246,22.191-30.317c-6.908-28.359,14.507-55.965,43.939-55.965  c21.918,0,42.373,15.632,42.732,38.488c0.87-0.262,3.892-9.76,2.724-16.679c17.058-3.631,34.646,6.926,38.815,24.612  c13.574,1.526,24.858,10.613,29.548,22.95c16.761-7.774,34.907-13.074,53.967-15.418c19.595-2.412,36.093-1.949,55.685,1.675  v121.508c-31.529-1.933-64.785,15.388-76.905,49.29c17.998-21.775,47.98-32.92,76.905-32.471v185.814h0.002v4.744H0V459.289  L0,459.289z M1023.448,386.582c-24.63-34.688-72.63-39.559-106.971-18.991c-20.094-10.075-45.191-10.616-63.378,3.694  c16.725-3.41,34.652-1.21,50.87,5.502c-9.436,8.443-17.074,19.318-21.781,32.488c10.197-12.34,20.779-21.389,31.366-27.882  l0.238,0.129c0.065-0.132,0.131-0.265,0.2-0.396C962.388,351.774,1010.839,375.931,1023.448,386.582z"/>
<path fill-rule="evenodd" clip-rule="evenodd" fill="#BBD4DA" d="M1092.407,269.692v1.847v25.438  c-1.006,0.229-2.054,0.352-3.129,0.352c-6.509,0-11.98-4.445-13.544-10.465c-3.694,3.316-8.576,5.334-13.933,5.334  c-9.823,0-20.273-7.616-19.764-18.109c-1.03,1.453-1.141,4.545-0.982,6.651c-3.964,1.435-9.255,0.677-12.051-2.819  c-0.126,1.406,1.227,3.018,2.009,3.606c-2.343,2.226-6.054,4.162-9.541,4.162c-6.394,0-11.713-4.591-12.845-10.656  c2.727-0.081,5.041-1.835,5.982-4.288c-1.393,1.672-3.639,2.759-6.173,2.76l-0.005-0.053l-0.046,0.053  c-2.518-0.014-4.747-1.097-6.131-2.76c0.781,2.033,2.503,3.586,4.623,4.104c-1.44,1.015-3.194,1.609-5.087,1.609  c-3.474,0-6.479-2.004-7.923-4.918h-19.242h-10.039l1.597,0.379c0,0,1.781,4.73-3.48,3.438c-3.976-0.979-6.908-0.113-8.104,0.367  c0.495,1.34,0.767,2.789,0.767,4.301c0,6.855-5.559,12.412-12.413,12.412c-5.565,0-10.274-3.662-11.852-8.708  c-2.101,1.858-4.864,2.989-7.891,2.989c-2.474,0-4.768-0.752-6.672-2.041c-1.258,7.125-7.48,12.536-14.965,12.536  c-7.255,0-13.319-5.082-14.833-11.88c0.553,0.121,1.121,0.184,1.706,0.184c3.872,0,7.181-2.781,8.511-6.711  c-1.921,2.619-5.018,4.318-8.511,4.318c-3.496,0-6.593-1.699-8.512-4.318c0.629,1.863,1.705,3.467,3.075,4.639h-2.49h-18.219  c-4.941,0-8.947-4.006-8.947-8.947c0-4.943,4.006-8.949,8.947-8.949c0.118,0.939,1.121,3.221,2.187,3.525  c-1.551-6.705,2.852-13.821,8.833-16.751c1.037-0.574,2.147-1.056,3.32-1.435c8.812-2.836,18.919,1.189,22.635,9.834  c-0.739,0.401-2.301,1.754-2.297,3.559c1.182-1.877,3.068-2.959,4.931-3.559c4.208-1.354,8.63-0.074,11.487,2.923  c0.34-3.868,2.939-7.345,6.867-8.608c5.166-1.664,10.696,1.12,12.454,6.229c3.709-3.938,10.447-2.225,11.699,3.174  c-2.552-0.502-5.664,0.566-7.227,2.887c1.898-1.43,4.928-2.173,6.859-1.703c-0.589,0.643-0.851,1.401-0.853,1.992l0.175,0.006  c1.25-1.727,3.135-2.83,4.782-3.361c3.918-1.26,8.092-0.422,10.94,2.283c3.418-0.654,6.936-0.243,10.059,1.137  c2.033-6.91,8.423-11.955,15.993-11.955c3.642,0,7.854,1.125,10.085,4.207c-0.061-1.762-1.91-3.951-2.869-4.459  c4.912-8.661,14.579-14.065,24.803-14.065c8.2,0,15.276,3.103,20.645,9.229c0.012-1.763-2.038-5.427-4.876-7.256  c1.908-11.363,15.849-18.065,24.963-11.313c-0.438-1.861-2.382-3.627-4.39-4.479c0.971-2.271,2.495-4.468,4.072-6.445  c0.948,0.254,4.608-0.691,4.886-1.025h-20.72c-3.45,0-6.247-2.797-6.247-6.248c0-2.793,1.832-5.157,4.36-5.958  c-1.357-5.571,2.851-10.997,8.635-10.997c4.307,0,8.326,3.072,8.396,7.563c0.171-0.052,0.765-1.918,0.535-3.278  c3.352-0.713,6.808,1.361,7.626,4.837c2.669,0.3,4.886,2.086,5.809,4.51c3.292-1.527,6.857-2.569,10.604-3.03  c3.851-0.473,7.094-0.383,10.943,0.33v23.877c-6.197-0.381-12.731,3.023-15.113,9.685c3.536-4.278,9.429-6.468,15.113-6.38V269.692  L1092.407,269.692z M1078.856,257.251c-4.84-6.816-14.273-7.773-21.021-3.732c-3.949-1.98-8.88-2.086-12.454,0.727  c3.286-0.671,6.811-0.238,9.995,1.08c-1.853,1.66-3.354,3.797-4.278,6.385c2.004-2.426,4.083-4.203,6.163-5.479l0.047,0.026  c0.013-0.027,0.025-0.053,0.039-0.078C1066.857,250.412,1076.379,255.158,1078.856,257.251z"/>
<path opacity="0.1" fill-rule="evenodd" clip-rule="evenodd" d="M503.846,265.495c14.753,4.67,25.448,18.468,25.448,34.767  c0,19.43-15.2,35.31-34.355,36.4c8.245,10.035,12.57,23.063,11.427,36.75c-16.924-9.377-41.396-8.898-57.745,3.965  c16.705-5.791,39.842-4.156,52.45,3.578c-6.423,3.653-10.188,9.357-11.03,13.871c38.134-30.186,111.187-11.476,123.42,48.933  c-4.742-0.196-9.193,0.96-11.641,3.615c-0.18,0.196-0.275,0.399-0.3,0.613c6.992-0.643,13.884,0.524,20.081,3.263  c4.854-16.486,20.101-28.521,38.159-28.521c8.685,0,18.733,2.681,24.062,10.037c-0.148-4.201-4.559-9.427-6.847-10.638  c11.718-20.663,34.78-33.556,59.172-33.556c19.563,0,36.444,7.4,49.254,22.017c0.028-4.204-4.865-12.948-11.633-17.312  c2.785-16.6,15.855-29.711,32.434-32.561c10.422-1.792,27.757-0.061,34.165,8.217c23.747-25.965,78.312-24.535,99.346,5.289  c29.566-1.782,59.062,13.996,71.233,42.299c-2.92,1.588-9.092,6.934-9.084,14.071c4.676-7.421,12.135-11.698,19.501-14.07  c16.631-5.354,34.114-0.296,45.414,11.554c1.29-14.789,10.946-28.131,25.63-33.512v64.725v4.744H0v-4.744V359.33  c35.196-8.092,74.083,0.286,100.194,25.236c-4.516-9.332-10.378-17.152-17.176-23.549c23.831-18.226,62.396-21.174,87.316-3.445  c-22.841-33.02-72.146-30.789-92.899-1.33C55.513,339.205,26.017,334.92,0,341.013V135.469c17.503-7.979,36.957-12.429,57.45-12.429  c68.885,0,131.215,51.506,137.833,121.191c-6.143,1.16-20.279,7.175-24.377,19.96c12.647-10.593,28.468-13.953,43.026-13.953  c32.864,0,61.254,19.133,74.656,46.865c11.319-26.879,38.002-45.604,68.991-45.287c6.661-20.988,29.944-31.865,50.327-23.447  c8.796-16.116,25.898-27.053,45.553-27.053C487.211,201.316,511.767,232.978,503.846,265.495z"/>
<path fill-rule="evenodd" clip-rule="evenodd" fill="#E6E6E6" d="M258.78,464.033H0v-80.225c12.489-0.195,25.434,4.617,33.204,14.02  C27.972,383.19,13.613,375.711,0,376.546v-52.461c8.458-1.564,15.582-1.764,24.042-0.725c8.229,1.013,16.063,3.301,23.3,6.658  c2.024-5.326,6.896-9.25,12.757-9.909c1.799-7.636,9.395-12.194,16.759-10.626c-0.504,2.988,0.799,7.088,1.176,7.201  c0.155-9.868,8.986-16.617,18.45-16.617c12.708,0,21.954,11.918,18.971,24.162c5.554,1.758,9.581,6.954,9.581,13.09  c0,7.582-6.146,13.729-13.727,13.729H74.684c5.278,6.336,9.577,13.514,12.664,21.303c20.415-4.071,39.93,9.61,43.322,29.811  c-6.234,4.018-10.74,12.068-10.714,15.941c11.797-13.46,27.342-20.275,45.36-20.275c22.465,0,43.701,11.872,54.495,30.902  c-2.109,1.115-6.169,5.928-6.306,9.797c4.908-6.775,14.16-9.244,22.16-9.244c16.632,0,30.672,11.084,35.143,26.268  c6.86-3.029,14.587-3.934,22.097-2.496c6.262-5.941,15.432-7.785,24.038-5.016c3.783,1.217,8.129,3.809,10.864,7.893  c0.171-1.345-0.372-3.291-1.846-4.898c4.245-1.033,10.901,0.601,15.074,3.742c-3.434-5.099-10.273-7.448-15.881-6.344  c2.754-11.861,17.557-15.623,25.706-6.972c3.864-11.224,16.015-17.342,27.366-13.688c8.631,2.778,14.342,10.416,15.084,18.916  c6.279-6.586,15.997-9.396,25.24-6.422c4.093,1.319,8.239,3.696,10.837,7.82c0.005-3.967-3.426-6.938-5.05-7.821  c8.168-18.991,30.374-27.839,49.737-21.605c5.764,1.856,29.115,9.375,29.115,45.374h-25.89H258.78L258.78,464.033z M812.387,356.331  c-8.197,2.595-14.142,10.264-14.142,19.321c0,10.799,8.447,19.623,19.094,20.23c-4.584,5.576-6.987,12.817-6.352,20.424  c9.404-5.211,23.008-4.945,32.094,2.205c-9.284-3.22-22.144-2.311-29.151,1.988c3.57,2.029,5.662,5.199,6.13,7.707  c-21.193-16.775-61.794-6.377-68.592,27.196c2.635-0.11,5.108,0.533,6.469,2.009c0.1,0.108,0.153,0.223,0.167,0.342  c-3.886-0.357-7.715,0.291-11.16,1.813c-2.697-9.162-11.171-15.852-21.208-15.852c-4.826,0-10.411,1.489-13.372,5.578  c0.083-2.334,2.533-5.238,3.806-5.911c-6.514-11.483-19.329-18.649-32.885-18.649c-10.875,0-20.256,4.113-27.375,12.236  c-0.016-2.337,2.705-7.197,6.466-9.621c-1.548-9.226-8.812-16.514-18.024-18.096c-5.792-0.996-15.428-0.033-18.99,4.566  c-8.969-9.807-26.543-11.104-37.493-7.721c-15.612,4.822-23.744,15.201-27.601,25.892c-5.167,14.331-2.649,29.226-0.169,32.044  h532.308V408.48c-19.561-4.496-41.173,0.16-55.684,14.025c2.51-5.187,5.768-9.532,9.547-13.088  c-13.245-10.129-34.677-11.767-48.528-1.914c12.694-18.352,40.097-17.111,51.631-0.738c12.183-9.469,28.576-11.851,43.034-8.465  V284.068c-9.728-4.435-20.54-6.908-31.93-6.908c-23.564,0-45.749,10.846-60.18,28.217c-0.573,0.689,5.68,5.354,5.132,6.064  c-3.394,0.035-5.996-0.994-8.077-2.281c-7.369,10.119-12.221,22.15-13.476,35.354c3.415,0.645,11.271,3.987,13.547,11.093  c-7.028-5.888-15.82-7.755-23.912-7.755c-18.265,0-34.042,10.633-41.49,26.046c-6.291-14.938-21.121-25.345-38.343-25.169  c-3.701-11.664-16.642-17.709-27.969-13.031c-4.89-8.956-14.395-15.033-25.317-15.033  C821.633,320.664,807.984,338.259,812.387,356.331L812.387,356.331z M29.772,432.642c5.444-4.598,26.363-15.027,47.258-2.354  c0.029,0.056,0.058,0.113,0.086,0.17l0.102-0.056c4.571,2.803,9.14,6.711,13.543,12.039c-2.033-5.688-5.331-10.382-9.404-14.027  c7.002-2.897,14.742-3.848,21.963-2.377c-7.852-6.176-18.688-5.944-27.364-1.594C61.131,415.562,40.406,417.666,29.772,432.642z"/>
<path fill-rule="evenodd" clip-rule="evenodd" fill="#E6E6E6" d="M781.799,322.479c-0.38-0.003-0.759,0.02-1.13,0.06  c-0.834-13.359-17.429-19.376-26.928-8.838c1.378,0.858,2.777,2.363,3.055,3.719c-6.54-6.578-18.748-2.779-18.751,7.363  c-20.011,0.007-20.008,30.393-0.002,30.393c3.847,0.002,8.499,0.039,12.348,0.04c-0.422-0.993-0.495-2.37-0.275-3.36  c4.684,10.828,19.135,12.527,26.148,3.324c10.863-0.002,26.925,2.699,26.925-10.699c0.001-7.988-8.89-13.689-15.68-8.975  c0.378-1.01,2.401-3.123,4.919-3.512C791.841,326.644,787.303,322.478,781.799,322.479z"/>
<path opacity="0.5" fill-rule="evenodd" clip-rule="evenodd" fill="#007E9C" d="M737.535,333.45  c-0.751,0.136-1.458,0.397-2.097,0.765c-1.152-1.13-0.604-1.141-2.387,0.354c-0.201,0.169,0.299,0.715,0.597,1.149  c-0.476,0.571-0.857,1.223-1.118,1.933c-1.604-0.125-1.196-0.488-1.599,1.803c-0.047,0.262,0.687,0.358,1.195,0.5  c0.003,0.771,0.139,1.512,0.385,2.199c-1.311,0.936-1.229,0.395-0.065,2.408c0.133,0.23,0.757-0.168,1.238-0.385  c0.48,0.568,1.059,1.056,1.707,1.435c-0.402,1.56-0.688,1.093,1.497,1.89c0.25,0.09,0.474-0.615,0.7-1.091h2.231  c0.696,1.456,0.175,1.28,2.361,0.485c0.25-0.091-0.033-0.773-0.165-1.284c0.649-0.379,1.227-0.865,1.71-1.435  c1.38,0.627,1.048,0.715,1.646-0.324l9.053,2.295c0.086,0.551,0.216,1.088,0.389,1.604c-0.751,0.557-1.552,0.943-1.333,1.322  l1.495,2.59c0.219,0.381,0.956-0.119,1.815-0.494c0.642,0.727,1.39,1.355,2.222,1.867c-0.22,0.908-0.584,1.721-0.173,1.871  l2.812,1.023c0.412,0.148,0.654-0.707,1.071-1.544h2.903c0.416,0.837,0.659,1.692,1.071,1.544l2.81-1.023  c0.412-0.15,0.047-0.961-0.172-1.871c0.83-0.512,1.58-1.141,2.224-1.867c0.856,0.373,1.595,0.874,1.813,0.494l1.495-2.59  c0.22-0.379-0.58-0.766-1.333-1.322c0.185-0.549,0.32-1.119,0.404-1.707l13.286,0.343l0.675,1.194  c0.097,0.169,0.581-0.134,0.917-0.286c0.358,0.423,0.787,0.784,1.27,1.065c-0.299,1.154-0.511,0.813,1.111,1.402  c0.184,0.066,0.359-0.475,0.519-0.809h1.657c0.516,1.076,0.133,0.949,1.754,0.359c0.183-0.066-0.029-0.596-0.123-0.953  c0.482-0.282,0.91-0.643,1.268-1.065c1.087,0.494,0.714,0.643,1.576-0.853c0.099-0.168-0.405-0.436-0.705-0.65  c0.184-0.51,0.283-1.059,0.286-1.633c1.15-0.32,0.959,0.035,0.658-1.664c-0.033-0.191-0.589-0.073-0.958-0.045  c-0.193-0.527-0.477-1.012-0.83-1.434c0.676-0.984,0.757-0.59-0.565-1.699c-0.148-0.125-0.499,0.322-0.763,0.582  c-0.475-0.271-1-0.467-1.557-0.566c-0.116-1.188,0.198-0.938-1.526-0.938c-0.193,0-0.175,0.568-0.211,0.938  c-0.557,0.1-1.082,0.295-1.558,0.566c-0.852-0.836-0.449-0.846-1.77,0.263c-0.149,0.124,0.232,0.55,0.44,0.854  c-0.249,0.299-0.463,0.627-0.635,0.979l-12.662,0.688c-0.382-2.162,0.05-1.814-2.14-1.68c-0.359-0.912-0.852-1.758-1.454-2.514  c0.517-0.777,1.139-1.418,0.804-1.699l-2.292-1.923c-0.336-0.28-0.857,0.44-1.535,1.084c-0.072-0.039-0.144-0.077-0.218-0.114  l0.328-5.354c0.547-0.272,1.057-0.609,1.52-1.002c0.65,0.412,1.47,1.109,1.691,0.827l1.42-1.817c0.221-0.283-0.653-0.908-1.211-1.44  c0.32-0.646,0.551-1.348,0.679-2.091c0.763-0.103,1.839-0.096,1.827-0.454l-0.08-2.306c-0.014-0.359-1.084-0.277-1.854-0.324  c-0.175-0.722-0.456-1.408-0.825-2.039c0.52-0.568,1.348-1.255,1.109-1.521l-1.546-1.715c-0.239-0.267-1.008,0.486-1.627,0.943  c-0.586-0.431-1.237-0.781-1.943-1.033c0.033-0.768,0.228-1.826-0.129-1.877l-2.284-0.32c-0.356-0.051-0.461,1.021-0.641,1.769  c-0.746,0.047-1.471,0.205-2.153,0.458c-0.47-0.611-1-1.545-1.305-1.354l-1.955,1.222c-0.305,0.191,0.303,1.078,0.646,1.77  c-0.528,0.504-0.987,1.086-1.355,1.731c-0.752-0.165-1.759-0.54-1.87-0.198l-0.713,2.193c-0.111,0.343,0.926,0.632,1.632,0.939  c-0.05,0.449-0.058,0.895-0.03,1.332l-14.379,9.768c-0.897-0.752-0.561-0.785-1.64,0.273c-0.639-0.367-1.345-0.629-2.097-0.765  c-0.155-1.603,0.271-1.263-2.054-1.263C737.554,332.187,737.587,332.925,737.535,333.45L737.535,333.45z M774.01,345.415  c0.013-0.173,0.023-0.349,0.028-0.524c2.018-0.596,1.798-0.275,1.566-1.583l11.363-0.618c-0.26,1.469-0.44,1.154,0.695,1.469  c0.001,0.567,0.1,1.11,0.279,1.616L774.01,345.415L774.01,345.415z M790.887,345.849l-1.957-0.051  c-0.466-1.011-0.484-2.186-0.047-3.212l1.95-0.106C789.917,343.425,789.94,344.933,790.887,345.849L790.887,345.849z   M771.53,345.351l-2.67-0.068c0.025-0.182,0.042-0.365,0.047-0.551c1.326-0.369,1.144-0.119,0.968-1.113l1.61-0.088L771.53,345.351  L771.53,345.351z M767.335,345.243l-2.085-0.054c0.244-0.406,0.237-0.918-0.019-1.318l2.061-0.111L767.335,345.243L767.335,345.243z   M764.265,345.794l2.873,0.074c-1.375,3.189-6.188,2.216-6.188-1.277c0-3.39,4.588-4.459,6.106-1.451l-2.881,0.152  C762.471,343.292,762.557,345.912,764.265,345.794L764.265,345.794z M768.724,345.91l2.718,0.07  c-0.635,3.435-3.646,6.037-7.267,6.037c-3.314,0-6.119-2.183-7.057-5.188l1.958,0.498c0.633,1.095,0.286,0.996,1.563,0.414  c0.305,0.341,0.658,0.639,1.048,0.879c-0.365,1.414-0.604,0.998,1.183,1.65c0.208,0.076,0.423-0.581,0.62-0.994h1.369  c0.63,1.316,0.179,1.154,1.969,0.504c0.207-0.076-0.052-0.719-0.166-1.16c0.391-0.24,0.743-0.538,1.048-0.879  c1.326,0.603,0.881,0.77,1.832-0.881c0.11-0.191-0.498-0.516-0.871-0.781C768.689,346.023,768.708,345.966,768.724,345.91  L768.724,345.91z M789.3,346.439l3.261,0.084c3-0.01,3.251-4.594,0.037-4.768l-3.365,0.18c2.17-3.252,7.292-1.728,7.292,2.203  C796.524,348.012,791.528,349.577,789.3,346.439L789.3,346.439z M771.364,342.906l-1.601,0.088  c-0.058-0.342-0.141-0.233-1.188-0.152c-0.086-0.219-0.19-0.43-0.308-0.63l0.075-1.213c0.056-0.163,0.293-0.212,0.027-0.437  l0.119-1.939C769.907,339.644,770.947,341.154,771.364,342.906L771.364,342.906z M745.7,343.282c0.284-0.49,0.328-0.322-0.803-1.13  c0.246-0.688,0.382-1.428,0.385-2.199c1.554-0.432,1.293,0.049,0.89-2.242c-0.047-0.262-0.767-0.102-1.293-0.061  c-0.263-0.71-0.644-1.361-1.118-1.933c0.797-1.159,0.808-0.972,0.35-1.356l12.427-8.439l0.862,2.307  c0.135,0.334,1.115-0.11,1.854-0.329c0.407,0.61,0.902,1.163,1.47,1.634c-0.292,0.713-0.837,1.641-0.521,1.81l2.037,1.083  c0.317,0.168,0.782-0.803,1.207-1.444l2.181,0.306c0.23,0.734,0.411,1.796,0.763,1.721l1.834-0.391l-0.178,2.931  c-0.604-0.259-1.238-0.458-1.897-0.591c-0.105-0.93-0.04-1.816-0.479-1.816h-2.99c-0.438,0-0.373,0.887-0.479,1.816  c-0.97,0.196-1.886,0.535-2.729,0.993c-0.679-0.644-1.198-1.364-1.535-1.084l-2.29,1.923c-0.336,0.281,0.285,0.922,0.802,1.699  c-0.601,0.756-1.095,1.602-1.455,2.514c-0.931-0.057-1.794-0.274-1.869,0.156l-0.521,2.945c-0.076,0.432,0.811,0.521,1.707,0.787  c0.005,0.196,0.018,0.391,0.033,0.584L745.7,343.282L745.7,343.282z M758.906,346.631l-1.97-0.5  c-1.304-6.3,5.49-11.069,10.945-7.903l-0.112,1.83c-0.653-0.547-0.383-0.583-1.348,0.364c-0.398-0.215-0.831-0.374-1.287-0.468  c-0.141-1.449,0.227-1.146-1.678-1.146c-0.222,0-0.198,0.69-0.241,1.146c-0.457,0.094-0.889,0.253-1.287,0.468  c-1.033-1.013-0.564-1.028-2.021,0.2c-0.169,0.143,0.293,0.658,0.551,1.035c-0.281,0.355-0.514,0.754-0.685,1.184  c-1.45-0.113-1.09-0.422-1.419,1.453c-0.038,0.219,0.645,0.314,1.087,0.438c0.014,0.471,0.095,0.922,0.235,1.348L758.906,346.631  L758.906,346.631z M743.304,342.674l-3.434-0.872c1.707-1.062,1.214-3.678-0.753-4.049l2.947-2.002  C744.142,337.425,744.681,340.38,743.304,342.674L743.304,342.674z M738.601,342.132l4.323,1.097  c-3.119,3.978-9.578,1.788-9.578-3.304c0-4.223,4.646-6.738,8.171-4.563l-3.826,2.6C735.546,339.24,736.539,342.037,738.601,342.132  L738.601,342.132z M763.356,320.527l-4.114,2.795c0.05-0.884,0.282-1.752,0.686-2.541c0.667-1.304,1.785-2.35,3.122-2.931  c2.843-1.235,6.119-0.255,7.86,2.364c0.84,1.264,1.176,2.846,0.965,4.346c-0.256,1.818-1.274,3.418-2.794,4.42l0.317-5.412  c-0.008-0.834-0.287-1.62-0.767-2.256C767.382,319.656,765.035,319.304,763.356,320.527L763.356,320.527z M756.969,325.627  l1.1-0.747c0.009,0.053,0.017,0.105,0.026,0.16L756.969,325.627L756.969,325.627z M759.244,324.082l2.831-1.923  c-1.679,4.101,3.906,7.267,6.564,3.722l-0.214,3.479c-1.154,0.576-2.446,0.788-3.726,0.608  C761.699,329.544,759.432,327.066,759.244,324.082L759.244,324.082z M765.769,322.362c1.632,0.229,1.284,2.707-0.348,2.478  C763.788,324.611,764.137,322.132,765.769,322.362L765.769,322.362z M763.712,321.103c2.219-1.673,5.366,0.182,4.979,2.934  c-0.384,2.748-3.92,3.667-5.594,1.447C762.058,324.104,762.332,322.143,763.712,321.103z"/>
<path fill-rule="evenodd" clip-rule="evenodd" fill="#72B2C1" d="M785.25,326.765c-1.873-0.574-2.469,1.354-0.711,2.369  c1.753,1.013,3.151-0.477,1.673-1.82l6.614-11.457c2.245,0.389,2.557-3.171,0.271-3.171c-1.358,0-2.085,1.589-1.229,2.617  L785.25,326.765z"/>
<path fill-rule="evenodd" clip-rule="evenodd" fill="#BBD4DA" d="M715.34,376.41c-8.082,0-14.851,5.623-16.607,13.172  c2.684,0.887,5.062,2.686,5.932,4.044c-7.454-4.032-16.513-1.012-19.688,6.989c-0.896-0.365-1.877-0.566-2.905-0.566  c-4.244,0-7.687,3.441-7.687,7.688c0,4.245,3.442,7.688,7.687,7.688c1.408,0,3.241,0,4.648,0c-0.451-0.78-0.607-1.939-0.502-2.743  c0.402,0.97,0.898,1.903,1.652,2.743c2.545,2.66,6.127,4.316,10.099,4.316c3.973,0,7.556-1.656,10.1-4.316h11.181  c2.555,0,3.203-2.662,3.433-3.522c0.862,3.214-1.086,4.812-2.455,5.097c2.783,3.938,7.372,6.51,12.562,6.51  c8.492,0,15.377-6.887,15.377-15.379s-6.885-15.377-15.377-15.377c-0.138,0-0.274,0.002-0.41,0.006  C732.01,383.667,724.523,376.41,715.34,376.41z"/>
<path fill-rule="evenodd" clip-rule="evenodd" fill="#72B2C1" d="M737.996,394.972c-1.812-0.064-1.882,1.801-0.068,2.287  c1.809,0.486,2.705-1.18,1.059-2.028l2.13-7.948c2.1-0.189,1.524-3.445-0.518-2.898c-1.214,0.326-1.482,1.92-0.471,2.633  L737.996,394.972z"/>
<path fill-rule="evenodd" clip-rule="evenodd" fill="#FFC500" d="M738.742,355.176l0.877,9.899l4.042,0.754l-2.666,20.32  l8.678-21.629l-3.912-3.383l1.455-5.931C744.4,355.199,741.409,355.179,738.742,355.176z"/>
<path fill-rule="evenodd" clip-rule="evenodd" fill="#BBD4DA" d="M136.841,167.203c4.008,1.27,6.912,5.016,6.912,9.441  c0,4.41-3.147,8.305-7.128,9.588c-1.441-0.911-2.83-1.346-4.36-1.214c3.936,1.69,5.588,7.589,5.262,11.493  c-4.596-2.546-11.243-2.416-15.684,1.078c4.538-1.573,10.821-1.129,14.246,0.973c-1.744,0.991-2.767,2.541-2.996,3.767  c10.357-8.198,30.197-3.116,33.52,13.29c-1.288-0.055-2.497,0.26-3.162,0.98c-0.049,0.055-0.074,0.109-0.082,0.168  c1.898-0.176,3.771,0.143,5.455,0.886c1.317-4.478,5.458-7.747,10.363-7.747c2.359,0,5.087,0.729,6.535,2.727  c-0.04-1.141-1.239-2.561-1.861-2.889c3.184-5.613,9.448-9.114,16.072-9.114c2.188,0,4.251,0.341,6.167,1.02  c2.206-1.839,5.043-2.946,8.141-2.946c7.024,0,12.719,5.695,12.719,12.72c0,1.621-0.305,3.171-0.857,4.598  c3.192,0.329,5.703,3.048,5.703,6.322l0,0c0,3.497-2.861,6.356-6.356,6.356h-9.322c-0.708,0-1.39-0.118-2.027-0.334  c-1.267,7.816-8.047,13.783-16.221,13.783c-6.366,0-11.884-3.619-14.614-8.91c1.497-0.195,2.815-0.948,3.746-2.043  c1.904,1.469,4.193,2.324,6.659,2.324c4.925,0,9.153-3.414,10.985-8.29c-3.278,4.486-10.837,6.981-16.722,4.485l0.007-0.014  l-0.015,0.01c-2.027-0.861-3.854-2.313-5.236-4.481c0.778,2.075,1.992,3.884,3.506,5.278c-1.118,0.389-2.375,0.605-3.706,0.605  c-2.079,0-3.982-0.531-5.45-1.412c0.834,1.935,2.667,3.336,4.848,3.557c-1.647,3.71-5.362,6.298-9.684,6.298  c-5.832,0-10.563-4.716-10.59-10.542c-1.301,1.492-3.216,2.435-5.352,2.435c-2.362,0-4.453-1.153-5.743-2.927  c-2.319,2.764-5.798,4.522-9.688,4.522c-4.011,0-7.584-1.867-9.901-4.78c-2.791,7.256-9.826,12.405-18.065,12.405  c-8.573,0-15.842-5.575-18.384-13.298c-3.227,2.578-7.316,4.117-11.767,4.117c-10.852,0-18.774-8.366-18.45-19.068  c-1.89,1.892-2.878,4.574-3.125,7.416H22.657c-1.983,3.596-5.812,6.032-10.208,6.032c-4.398,0-8.225-2.437-10.209-6.032H0v-27.148  c9.56-2.197,20.122,0.078,27.212,6.854c-1.226-2.534-2.818-4.659-4.664-6.396c6.473-4.949,16.946-5.751,23.714-0.936  c-6.204-8.969-19.593-8.363-25.23-0.361c-5.954-4.627-13.964-5.791-21.031-4.137v-55.824c4.754-2.167,10.038-3.375,15.604-3.375  c18.708,0,35.637,13.989,37.434,32.915c-1.668,0.315-5.507,1.949-6.621,5.421c3.435-2.877,7.731-3.789,11.687-3.789  c8.924,0,16.636,5.195,20.275,12.728c3.073-7.3,10.322-12.386,18.737-12.3c2.398,0,5.436,1.082,7.024,2.394  c-1.414-2.966-4.026-4.008-6.07-4.524c3-5.059,10.311-6.882,14.811-2.798c-0.155-1.088-0.556-2.162-1.217-2.846  c2.552-3.594,6.748-5.941,11.493-5.941C132.324,149.772,138.993,158.372,136.841,167.203L136.841,167.203z M94.072,195.861  c-1.525-0.939-3.327-1.473-5.131-1.473c-0.625,0-1.252,0.064-1.873,0.187c-4.381-4.048-13.063-3.723-16.24,1.488  c4.089-2.962,9.496-3.173,13.759-0.661c-2.248,1.077-4.096,2.947-4.782,5.285c2.219-2.731,5.603-4.478,9.396-4.478  c3.145,0,6.009,1.201,8.16,3.167c-0.449-0.904-1.074-1.713-1.82-2.403c0.477-0.286,1-0.513,1.564-0.663  c1.848-0.494,3.723-0.085,5.16,0.955C100.782,194.831,96.337,194.187,94.072,195.861z"/>
<path fill-rule="evenodd" clip-rule="evenodd" fill="#E6E6E6" d="M257.349,373.059c0.707-0.003,1.41,0.039,2.101,0.111  c1.554-24.837,32.401-36.022,50.065-16.433c-2.561,1.598-5.164,4.398-5.682,6.916c12.162-12.23,34.859-5.17,34.866,13.69  c37.202,0.013,37.199,56.507,0.003,56.507c-7.153,0.002-15.801,0.071-22.955,0.074c0.782-1.848,0.917-4.406,0.508-6.248  c-8.708,20.131-35.577,23.293-48.617,6.181c-20.197-0.005-50.058,5.018-50.058-19.893c-0.004-14.851,16.53-25.452,29.152-16.686  c-0.703-1.876-4.466-5.808-9.145-6.53C238.677,380.804,247.116,373.058,257.349,373.059z"/>
<path opacity="0.5" fill-rule="evenodd" clip-rule="evenodd" fill="#007E9C" d="M339.645,393.458c1.396,0.25,2.711,0.738,3.9,1.42  c2.141-2.1,1.12-2.121,4.434,0.656c0.376,0.316-0.552,1.332-1.106,2.14c0.884,1.061,1.592,2.272,2.08,3.593  c2.979-0.232,2.223-0.907,2.973,3.353c0.085,0.486-1.279,0.665-2.223,0.929c-0.005,1.434-0.258,2.809-0.716,4.086  c2.436,1.742,2.283,0.736,0.122,4.48c-0.246,0.428-1.408-0.313-2.3-0.717c-0.897,1.059-1.971,1.963-3.177,2.668  c0.748,2.9,1.28,2.033-2.786,3.512c-0.462,0.17-0.877-1.143-1.299-2.025h-4.15c-1.292,2.705-0.327,2.379-4.391,0.9  c-0.464-0.168,0.062-1.438,0.306-2.387c-1.205-0.705-2.28-1.608-3.178-2.668c-2.566,1.166-1.946,1.328-3.06-0.603l-16.832,4.269  c-0.159,1.023-0.401,2.021-0.723,2.981c1.396,1.032,2.886,1.753,2.479,2.458l-2.78,4.816c-0.407,0.705-1.778-0.225-3.373-0.919  c-1.197,1.349-2.59,2.521-4.132,3.47c0.405,1.688,1.083,3.201,0.318,3.479l-5.224,1.901c-0.767,0.279-1.219-1.314-1.994-2.871  h-5.396c-0.774,1.555-1.228,3.15-1.993,2.871l-5.224-1.9c-0.767-0.279-0.089-1.79,0.318-3.479c-1.543-0.95-2.936-2.121-4.133-3.471  c-1.592,0.692-2.965,1.624-3.372,0.919l-2.781-4.816c-0.407-0.705,1.082-1.425,2.478-2.458c-0.34-1.021-0.594-2.081-0.752-3.173  l-24.699,0.635l-1.254,2.221c-0.181,0.314-1.082-0.247-1.706-0.531c-0.667,0.785-1.465,1.457-2.359,1.98  c0.551,2.145,0.947,1.512-2.069,2.607c-0.339,0.123-0.667-0.883-0.964-1.504h-3.08c-0.958,2.002-0.246,1.765-3.261,0.668  c-0.339-0.123,0.057-1.105,0.228-1.771c-0.896-0.523-1.692-1.195-2.359-1.98c-2.019,0.918-1.325,1.195-2.929-1.583  c-0.181-0.313,0.755-0.812,1.314-1.211c-0.342-0.948-0.529-1.97-0.534-3.034c-2.138-0.596-1.783,0.063-1.225-3.096  c0.063-0.355,1.098-0.137,1.783-0.084c0.361-0.979,0.887-1.879,1.543-2.667c-1.256-1.829-1.406-1.097,1.052-3.157  c0.275-0.233,0.927,0.6,1.419,1.082c0.882-0.506,1.858-0.869,2.896-1.055c0.214-2.205-0.373-1.741,2.834-1.741  c0.364,0,0.327,1.058,0.394,1.741c1.036,0.186,2.012,0.549,2.895,1.055c1.585-1.555,0.835-1.573,3.292,0.488  c0.276,0.232-0.434,1.021-0.82,1.587c0.46,0.556,0.859,1.166,1.179,1.821l23.542,1.277c0.709-4.021-0.092-3.372,3.979-3.122  c0.669-1.696,1.583-3.269,2.702-4.672c-0.959-1.448-2.114-2.638-1.49-3.161l4.259-3.574c0.624-0.523,1.593,0.818,2.854,2.015  c0.133-0.073,0.268-0.144,0.404-0.214l-0.612-9.95c-1.013-0.507-1.96-1.136-2.822-1.866c-1.21,0.769-2.735,2.064-3.146,1.539  l-2.639-3.38c-0.412-0.526,1.213-1.69,2.251-2.677c-0.594-1.201-1.024-2.506-1.26-3.89c-1.421-0.188-3.421-0.176-3.398-0.843  l0.15-4.286c0.023-0.668,2.016-0.515,3.445-0.604c0.327-1.341,0.847-2.616,1.535-3.79c-0.968-1.057-2.508-2.334-2.063-2.83  l2.871-3.186c0.447-0.497,1.876,0.9,3.028,1.752c1.088-0.801,2.3-1.453,3.611-1.92c-0.062-1.429-0.422-3.397,0.24-3.49l4.246-0.596  c0.662-0.093,0.857,1.896,1.194,3.289c1.388,0.088,2.732,0.381,3.999,0.851c0.874-1.138,1.862-2.874,2.427-2.519l3.638,2.271  c0.566,0.355-0.564,2.006-1.202,3.289c0.984,0.938,1.834,2.021,2.519,3.221c1.399-0.31,3.273-1.005,3.479-0.369l1.324,4.078  c0.208,0.635-1.719,1.174-3.033,1.746c0.092,0.836,0.109,1.664,0.057,2.477l26.735,18.16c1.666-1.398,1.041-1.459,3.047,0.508  c1.188-0.682,2.502-1.17,3.898-1.42c0.292-2.98-0.505-2.348,3.82-2.348C339.609,391.111,339.55,392.484,339.645,393.458  L339.645,393.458z M271.83,415.704c-0.025-0.322-0.043-0.647-0.052-0.974c-3.751-1.11-3.341-0.515-2.913-2.945l-21.127-1.146  c0.48,2.73,0.819,2.143-1.291,2.73c-0.003,1.052-0.188,2.063-0.521,3.002L271.83,415.704L271.83,415.704z M240.453,416.511  l3.638-0.094c0.863-1.881,0.898-4.064,0.088-5.974l-3.629-0.197C242.253,412.004,242.209,414.808,240.453,416.511L240.453,416.511z   M276.438,415.584l4.967-0.128c-0.049-0.334-0.078-0.676-0.088-1.021c-2.464-0.687-2.126-0.223-1.8-2.07l-2.995-0.163  L276.438,415.584L276.438,415.584z M284.239,415.384l3.879-0.1c-0.455-0.757-0.442-1.709,0.033-2.451l-3.832-0.209L284.239,415.384  L284.239,415.384z M289.948,416.408l-5.342,0.139c2.558,5.93,11.508,4.121,11.508-2.373c0-6.303-8.532-8.292-11.356-2.7l5.357,0.284  C293.284,411.757,293.125,416.628,289.948,416.408L289.948,416.408z M281.658,416.623l-5.054,0.131  c1.182,6.387,6.781,11.225,13.511,11.225c6.162,0,11.378-4.057,13.122-9.645l-3.643,0.924c-1.177,2.039-0.53,1.853-2.906,0.771  c-0.566,0.635-1.222,1.187-1.947,1.636c0.676,2.628,1.122,1.856-2.203,3.069c-0.387,0.141-0.785-1.082-1.152-1.85h-2.543  c-1.17,2.449-0.333,2.145-3.659,0.936c-0.386-0.14,0.094-1.334,0.305-2.155c-0.725-0.449-1.381-1.001-1.947-1.636  c-2.466,1.121-1.637,1.432-3.404-1.635c-0.206-0.355,0.925-0.959,1.619-1.454C281.722,416.834,281.69,416.729,281.658,416.623  L281.658,416.623z M243.403,417.607l-6.063,0.155c-5.578-0.017-6.045-8.54-0.067-8.862l6.252,0.334  c-4.031-6.047-13.554-3.213-13.554,4.097C229.971,420.534,239.262,423.443,243.403,417.607L243.403,417.607z M276.747,411.039  l2.977,0.162c0.11-0.635,0.261-0.433,2.211-0.281c0.162-0.406,0.353-0.799,0.571-1.173l-0.138-2.255  c-0.104-0.302-0.545-0.393-0.05-0.811l-0.223-3.605C279.46,404.972,277.523,407.781,276.747,411.039L276.747,411.039z   M324.463,411.738c-0.527-0.911-0.609-0.599,1.495-2.104c-0.458-1.277-0.711-2.652-0.718-4.086c-2.888-0.805-2.402,0.09-1.651-4.169  c0.085-0.485,1.427-0.188,2.402-0.112c0.487-1.32,1.194-2.532,2.078-3.593c-1.478-2.155-1.5-1.809-0.649-2.522l-23.101-15.691  l-1.604,4.289c-0.251,0.619-2.075-0.207-3.448-0.611c-0.758,1.135-1.679,2.16-2.734,3.037c0.546,1.325,1.557,3.051,0.968,3.363  l-3.787,2.014c-0.589,0.313-1.455-1.491-2.247-2.684l-4.047,0.567c-0.432,1.366-0.768,3.339-1.421,3.2l-3.413-0.727l0.334,5.447  c1.122-0.48,2.302-0.85,3.526-1.098c0.196-1.729,0.076-3.377,0.891-3.377h5.559c0.815,0,0.694,1.65,0.89,3.377  c1.802,0.365,3.505,0.995,5.073,1.846c1.26-1.195,2.228-2.537,2.853-2.014l4.26,3.572c0.625,0.525-0.53,1.715-1.489,3.163  c1.116,1.403,2.032,2.976,2.701,4.672c1.731-0.105,3.336-0.511,3.479,0.29l0.966,5.477c0.14,0.803-1.507,0.972-3.174,1.465  c-0.01,0.363-0.03,0.726-0.061,1.084L324.463,411.738L324.463,411.738z M299.91,417.965l3.663-0.929  c2.426-11.716-10.207-20.581-20.345-14.695l0.209,3.402c1.212-1.018,0.708-1.084,2.504,0.678c0.74-0.398,1.543-0.695,2.392-0.87  c0.262-2.693-0.421-2.13,3.117-2.13c0.412,0,0.368,1.283,0.45,2.13c0.849,0.175,1.652,0.472,2.392,0.87  c1.92-1.883,1.048-1.912,3.758,0.373c0.315,0.265-0.545,1.223-1.026,1.923c0.525,0.663,0.956,1.403,1.274,2.202  c2.695-0.209,2.026-0.786,2.638,2.701c0.072,0.406-1.202,0.586-2.021,0.814c-0.025,0.871-0.179,1.714-0.44,2.505L299.91,417.965  L299.91,417.965z M328.918,410.608l6.386-1.62c-3.175-1.975-2.258-6.838,1.401-7.527l-5.48-3.724  C327.362,400.85,326.363,406.342,328.918,410.608L328.918,410.608z M337.666,409.601l-8.039,2.039  c5.797,7.395,17.806,3.324,17.806-6.144c0-7.853-8.636-12.526-15.188-8.481l7.113,4.832  C343.346,404.222,341.497,409.423,337.666,409.601L337.666,409.601z M291.637,369.431l7.652,5.197  c-0.092-1.644-0.529-3.258-1.277-4.725c-1.237-2.426-3.316-4.369-5.805-5.449c-5.285-2.295-11.375-0.473-14.612,4.395  c-1.562,2.351-2.188,5.291-1.794,8.08c0.477,3.381,2.369,6.354,5.196,8.218l-0.589-10.061c0.012-1.552,0.532-3.013,1.424-4.195  C284.154,367.81,288.517,367.16,291.637,369.431L291.637,369.431z M303.515,378.916l-2.045-1.391c-0.015,0.1-0.032,0.197-0.05,0.296  L303.515,378.916L303.515,378.916z M299.285,376.042l-5.265-3.577c3.121,7.627-7.263,13.51-12.203,6.92l0.396,6.468  c2.145,1.071,4.545,1.465,6.925,1.132C294.718,386.199,298.935,381.587,299.285,376.042L299.285,376.042z M287.152,372.843  c-3.034,0.425-2.386,5.033,0.647,4.607S290.187,372.417,287.152,372.843L287.152,372.843z M290.977,370.502  c-4.126-3.11-9.979,0.338-9.259,5.452c0.717,5.113,7.29,6.819,10.402,2.692C294.054,376.083,293.542,372.435,290.977,370.502z"/>
<path opacity="0.5" fill-rule="evenodd" clip-rule="evenodd" fill="#007E9C" d="M64.711,336.04c0.218-0.981-0.045-1.984-0.679-2.724  l-1.683,0.996c0.506,0.355,0.668,1.037,0.369,1.582L64.711,336.04L64.711,336.04z M91.673,316.959l-2.769,1.638  c-0.526,4.422,2.922,8.314,7.377,8.314c3.29,0,6.081-2.141,7.057-5.105l-1.815-2.678c0.203,3.035-2.202,5.606-5.241,5.606  C92.258,324.735,89.778,320.414,91.673,316.959L91.673,316.959z M85.44,320.648c0.083,0.781,0.249,1.537,0.487,2.26l-1.882,1.346  c-0.15,0.107-0.214,0.298-0.123,0.455l1.653,2.863c0.092,0.159,0.289,0.198,0.456,0.121l2.109-0.957  c0.7,0.785,1.513,1.469,2.413,2.025l-0.578,2.242c-0.046,0.178,0.027,0.365,0.199,0.428l3.105,1.129  c0.172,0.064,0.349-0.033,0.427-0.198l0.999-2.089h3.152l0.999,2.089c0.079,0.165,0.255,0.263,0.428,0.198l3.105-1.129  c0.173-0.063,0.245-0.25,0.2-0.428l-0.578-2.242c0.899-0.557,1.712-1.24,2.412-2.027c2.186,0.996,2.299,1.301,2.685,0.631  l1.091,1.609c-0.497,0.175-0.974,0.395-1.425,0.652c-0.52-0.509-1.093-1.268-1.364-1.039l-1.798,1.509  c-0.272,0.228,0.375,0.924,0.788,1.526c-0.631,0.756-1.135,1.621-1.482,2.562c-0.726-0.056-1.652-0.269-1.713,0.079l-0.408,2.313  c-0.061,0.349,0.883,0.467,1.585,0.662c0.001,0.531,0.052,1.05,0.145,1.555l-31.352-2.283c0.034-0.284,0.055-0.572,0.062-0.864  c0.871-0.257,1.733-0.345,1.659-0.765l-0.505-2.863c-0.073-0.418-0.914-0.207-1.818-0.15c-0.257-0.653-0.585-1.271-0.973-1.846  L85.44,320.648L85.44,320.648z M67.524,331.25l-2.216,1.313c0.253,0.331,0.463,0.698,0.62,1.092  c1.408-0.109,1.058-0.407,1.379,1.412c0.037,0.209-0.653,0.313-1.057,0.426c-0.006,0.223-0.028,0.441-0.065,0.654l2.588,0.189  C69.014,334.501,68.546,332.699,67.524,331.25L67.524,331.25z M111.856,334.369l-2.71-3.998c-3.637,1.041-5.866,4.797-4.938,8.544  l4.816,0.351C106.945,337.168,108.967,333.605,111.856,334.369L111.856,334.369z M61.125,334.21  c-1.114,0.535-0.821,2.246,0.484,2.316l2.859,0.207c-1.452,2.959-5.953,1.935-5.953-1.379c0-2.572,2.922-4.023,4.972-2.541  L61.125,334.21L61.125,334.21z M64.729,330.601c-0.163-0.137-0.597,0.408-0.895,0.701c-0.387-0.208-0.808-0.363-1.251-0.455  c-0.04-0.414-0.023-1.113-0.235-1.113c-1.848,0-1.493-0.291-1.631,1.113c-0.443,0.092-0.863,0.247-1.25,0.455  c-0.298-0.291-0.733-0.838-0.896-0.701c-1.417,1.188-1.332,0.736-0.533,1.902c-0.274,0.346-0.5,0.732-0.665,1.15  c-0.417-0.031-1.101-0.17-1.138,0.039c-0.321,1.82-0.546,1.42,0.814,1.799c0.013,0.455,0.094,0.896,0.23,1.309  c-0.339,0.243-0.953,0.578-0.847,0.762c0.924,1.602,0.498,1.438,1.781,0.854c0.294,0.331,0.638,0.62,1.018,0.854  c-0.104,0.404-0.359,1.055-0.16,1.127c1.737,0.63,1.303,0.789,1.913-0.488h1.33c0.181,0.377,0.403,1.039,0.602,0.966  c1.736-0.634,1.505-0.233,1.152-1.604c0.379-0.235,0.723-0.523,1.018-0.854c0.38,0.173,0.976,0.537,1.083,0.353  c0.921-1.589,0.98-1.161-0.077-1.916l2.551,0.186c-0.747,3.172-3.594,5.533-6.993,5.533c-3.968,0-7.185-3.217-7.185-7.185  c0-6.655,8.294-9.69,12.616-4.702l-1.32,0.781L64.729,330.601L64.729,330.601z M69.178,329.446l16.208-9.591l-0.002-0.051  l-2.232-0.621c-0.178-0.049-0.303-0.205-0.271-0.385l0.574-3.256c0.032-0.181,0.204-0.284,0.386-0.271l2.308,0.179  c0.394-0.988,0.928-1.906,1.578-2.728l-1.311-1.909c-0.104-0.152-0.099-0.353,0.041-0.471l2.532-2.125  c0.141-0.117,0.339-0.088,0.471,0.041l1.652,1.621c0.917-0.494,1.912-0.861,2.962-1.078l0.224-2.303  c0.017-0.184,0.15-0.334,0.334-0.334h3.304c0.183,0,0.315,0.15,0.334,0.334l0.223,2.303c1.051,0.217,2.046,0.584,2.961,1.078  l1.653-1.621c0.132-0.129,0.331-0.158,0.47-0.041l2.532,2.125c0.141,0.118,0.145,0.318,0.042,0.471l-1.311,1.909  c0.649,0.822,1.184,1.739,1.577,2.728l2.308-0.179c0.182-0.014,0.354,0.09,0.386,0.271l0.574,3.254  c0.032,0.182-0.094,0.338-0.271,0.387l-2.232,0.621c-0.031,1.082-0.22,2.123-0.544,3.104l1.882,1.346  c0.149,0.107,0.214,0.298,0.121,0.455l-1.138,1.975l1.406,2.074c0.213-0.056,0.429-0.103,0.648-0.143  c0.07-0.725,0.021-1.674,0.375-1.674h2.348c0.354,0,0.306,0.949,0.376,1.674c0.996,0.179,1.933,0.526,2.782,1.014  c0.521-0.512,1.093-1.27,1.364-1.041l1.798,1.509c0.272,0.228-0.377,0.925-0.789,1.526c0.63,0.756,1.135,1.621,1.481,2.562  c0.727-0.056,1.652-0.269,1.714,0.079l0.407,2.313c0.061,0.35-0.883,0.467-1.584,0.662c-0.004,1.023-0.185,2.004-0.512,2.914  c0.592,0.424,1.438,0.857,1.261,1.164l-1.174,2.033c-0.178,0.307-0.977-0.211-1.64-0.512c-0.64,0.755-1.407,1.4-2.267,1.902  c0.182,0.707,0.552,1.582,0.218,1.703l-2.205,0.803c-0.334,0.121-0.613-0.789-0.927-1.445c-0.977,0.167-1.983,0.167-2.959,0  c-0.315,0.658-0.594,1.566-0.926,1.445l-2.206-0.803c-0.333-0.121,0.037-0.998,0.219-1.703c-0.86-0.503-1.626-1.147-2.267-1.902  c-0.664,0.301-1.462,0.818-1.64,0.512l-1.173-2.033c-0.177-0.307,0.668-0.74,1.261-1.164c-0.074-0.208-0.142-0.42-0.201-0.635  l-31.627-2.303c-0.08,0.414-0.186,0.818-0.318,1.211c0.729,0.539,1.509,0.916,1.296,1.285l-1.454,2.517  c-0.213,0.369-0.93-0.118-1.763-0.48c-0.625,0.706-1.353,1.318-2.161,1.813c0.212,0.883,0.567,1.674,0.167,1.819l-2.731,0.994  c-0.4,0.146-0.636-0.687-1.042-1.501l-2.821,0.001c-0.404,0.812-0.641,1.646-1.041,1.5l-2.731-0.994  c-0.4-0.146-0.046-0.935,0.166-1.817c-0.806-0.497-1.535-1.109-2.159-1.815c-0.834,0.362-1.55,0.85-1.763,0.48l-1.453-2.517  c-0.214-0.369,0.564-0.746,1.294-1.285c-0.292-0.878-0.462-1.811-0.487-2.78c-0.872-0.258-1.733-0.346-1.659-0.765l0.504-2.863  c0.074-0.418,0.913-0.207,1.819-0.15c0.35-0.889,0.829-1.709,1.412-2.443c-0.501-0.758-1.104-1.379-0.778-1.652l2.226-1.869  c0.327-0.273,0.833,0.428,1.492,1.054c0.819-0.445,1.711-0.774,2.651-0.966c0.103-0.901,0.041-1.764,0.465-1.764h2.907  c0.425,0,0.363,0.862,0.465,1.764c0.941,0.191,1.833,0.521,2.652,0.966c0.657-0.624,1.164-1.327,1.491-1.054l2.227,1.869  c0.327,0.273-0.277,0.895-0.779,1.652L69.178,329.446L69.178,329.446z M113.386,335.361c1.564,1.934,0.168,5.07-2.74,4.735  l-6.216-0.452c0.997,2.721,3.609,4.664,6.676,4.664c3.924,0,7.106-3.182,7.106-7.107c0-4.418-3.985-7.752-8.325-7L113.386,335.361  L113.386,335.361z M96.282,314.229c-1.157,0-2.226,0.374-3.093,1.008l-4.112,2.433c0.809-3.226,3.728-5.616,7.206-5.616  c4.68,0,8.175,4.269,7.294,8.841l-2.788-4.111C99.797,315.23,98.248,314.229,96.282,314.229L96.282,314.229z M96.282,316.582  c3.819,0,3.819,5.801,0,5.801C92.462,322.382,92.462,316.582,96.282,316.582z"/>
<path opacity="0.5" fill-rule="evenodd" clip-rule="evenodd" fill="#007E9C" d="M886.838,374.087c-0.071-0.324-0.11-0.663-0.11-1.01  c0-1.149,0.419-2.201,1.113-3.01l2.484,1.47c-0.464,0.325-0.767,0.863-0.767,1.472c0,0.313,0.08,0.607,0.222,0.863L886.838,374.087  L886.838,374.087z M847.04,345.923l4.086,2.418c0.05,0.428,0.076,0.863,0.076,1.306c0,6.056-4.908,10.966-10.965,10.966  c-4.858,0-8.977-3.158-10.418-7.535l2.683-3.951c-0.013,0.172-0.019,0.345-0.019,0.521c0,4.282,3.472,7.754,7.754,7.754  c4.281,0,7.754-3.472,7.754-7.754C847.991,348.297,847.647,347.029,847.04,345.923L847.04,345.923z M856.242,351.368  c-0.125,1.153-0.369,2.269-0.722,3.335l2.78,1.988c0.22,0.158,0.314,0.438,0.181,0.672l-2.44,4.225  c-0.135,0.235-0.425,0.293-0.672,0.182l-3.114-1.416c-1.034,1.16-2.233,2.169-3.561,2.99l0.853,3.311  c0.067,0.262-0.039,0.539-0.294,0.631l-4.585,1.668c-0.255,0.094-0.514-0.051-0.631-0.295l-1.476-3.082  c-0.758,0.109-1.534,0.166-2.322,0.166c-0.791,0-1.568-0.057-2.327-0.166l-1.476,3.082c-0.117,0.244-0.377,0.388-0.631,0.295  l-4.583-1.668c-0.255-0.092-0.362-0.369-0.295-0.631l0.853-3.311c-1.326-0.821-2.526-1.831-3.561-2.991l-3.114,1.417  c-0.245,0.111-0.537,0.054-0.673-0.182l-0.175-0.305l-1.61,2.375c0.734,0.258,1.437,0.583,2.104,0.965l1.521-1.493  c0.137-0.134,0.345-0.167,0.492-0.043l2.653,2.228c0.147,0.123,0.152,0.333,0.043,0.492l-1.207,1.76  c0.932,1.117,1.676,2.393,2.188,3.782l2.124-0.165c0.191-0.015,0.372,0.094,0.405,0.283l0.602,3.412  c0.033,0.189-0.1,0.354-0.284,0.405l-2.057,0.573c-0.003,0.783-0.075,1.549-0.214,2.293l46.278-3.368  c-0.048-0.42-0.079-0.845-0.09-1.275l-2.16-0.639c-0.195-0.058-0.331-0.257-0.289-0.491l0.745-4.225  c0.041-0.234,0.235-0.375,0.439-0.362l2.245,0.138c0.38-0.964,0.864-1.875,1.437-2.723L856.242,351.368L856.242,351.368z   M882.687,367.018l3.273,1.936c-0.376,0.489-0.685,1.03-0.916,1.612l-1.438-0.111c-0.114-0.008-0.221,0.057-0.24,0.168l-0.356,2.027  c-0.021,0.113,0.057,0.211,0.167,0.242l1.392,0.387c0.01,0.328,0.041,0.65,0.097,0.967l-3.82,0.277  c-0.061-0.457-0.092-0.924-0.092-1.398C880.752,370.851,881.469,368.745,882.687,367.018L882.687,367.018z M817.248,371.62  l4.001-5.901c4.386,1.257,7.597,5.295,7.597,10.085c0,0.872-0.107,1.718-0.309,2.528l-7.11,0.518  c0.777-0.782,1.255-1.857,1.255-3.046c0-2.39-1.937-4.327-4.325-4.327C817.974,371.476,817.602,371.527,817.248,371.62  L817.248,371.62z M892.134,371.388c0.604,0.289,1.021,0.906,1.021,1.621c0,0.971-0.771,1.764-1.734,1.796l-4.22,0.308  c0.753,1.537,2.332,2.592,4.156,2.592c2.557,0,4.629-2.07,4.629-4.627s-2.072-4.627-4.629-4.627c-1.013,0-1.946,0.323-2.708,0.875  L892.134,371.388L892.134,371.388z M886.812,366.06c0.089-0.073,0.211-0.055,0.293,0.025l1.029,1.01  c0.57-0.308,1.192-0.537,1.845-0.672l0.141-1.435c0.013-0.113,0.094-0.207,0.208-0.207h2.059c0.114,0,0.198,0.094,0.208,0.207  l0.141,1.435c0.652,0.135,1.273,0.364,1.845,0.672l1.029-1.01c0.082-0.08,0.205-0.099,0.293-0.025l1.577,1.324  c0.087,0.072,0.09,0.197,0.024,0.292l-0.814,1.19c0.404,0.512,0.736,1.083,0.982,1.699l1.438-0.111  c0.112-0.008,0.221,0.057,0.239,0.168l0.359,2.027c0.019,0.113-0.06,0.211-0.17,0.242l-1.391,0.387  c-0.021,0.674-0.138,1.322-0.34,1.932l1.173,0.84c0.094,0.066,0.134,0.185,0.077,0.283l-1.03,1.785  c-0.056,0.098-0.18,0.122-0.284,0.076l-1.313-0.6c-0.438,0.49-0.941,0.916-1.504,1.263l0.36,1.397  c0.028,0.111-0.017,0.228-0.124,0.266l-1.936,0.705c-0.106,0.039-0.216-0.021-0.266-0.124l-0.621-1.303  c-0.32,0.047-0.648,0.071-0.982,0.071c-0.333,0-0.661-0.024-0.98-0.071l-0.623,1.303c-0.049,0.103-0.158,0.163-0.266,0.124  l-1.936-0.705c-0.107-0.038-0.152-0.154-0.123-0.266l0.359-1.397c-0.562-0.347-1.067-0.772-1.504-1.263l-1.313,0.6  c-0.104,0.046-0.229,0.021-0.285-0.076l-1.027-1.785c-0.059-0.099-0.019-0.216,0.075-0.283l1.066-0.763l-3.765,0.274  c1.1,4.682,5.305,8.168,10.321,8.168c5.857,0,10.604-4.748,10.604-10.605c0-5.856-4.747-10.605-10.604-10.605  c-3.202,0-6.072,1.421-8.017,3.665l1.95,1.154L886.812,366.06L886.812,366.06z M880.246,364.353l-23.925-14.157l0.004-0.073  l3.295-0.917c0.261-0.072,0.446-0.303,0.399-0.569l-0.847-4.805c-0.047-0.267-0.301-0.42-0.571-0.4l-3.404,0.266  c-0.583-1.459-1.369-2.813-2.33-4.026l1.935-2.821c0.154-0.223,0.147-0.519-0.061-0.692l-3.737-3.136  c-0.208-0.174-0.501-0.129-0.693,0.061l-2.44,2.393c-1.353-0.729-2.821-1.271-4.37-1.591l-0.331-3.401  c-0.026-0.27-0.222-0.491-0.493-0.491h-4.878c-0.271,0-0.466,0.223-0.492,0.491l-0.329,3.401c-1.553,0.319-3.021,0.861-4.371,1.591  l-2.441-2.393c-0.193-0.189-0.487-0.234-0.692-0.061l-3.738,3.136c-0.208,0.174-0.214,0.47-0.061,0.692l1.934,2.822  c-0.959,1.213-1.748,2.566-2.328,4.025l-3.405-0.266c-0.271-0.02-0.523,0.134-0.57,0.4l-0.847,4.805  c-0.047,0.266,0.138,0.497,0.398,0.57l3.294,0.916c0.047,1.597,0.326,3.135,0.806,4.582l-2.779,1.986  c-0.221,0.158-0.316,0.438-0.182,0.672l1.684,2.913l-2.076,3.062c-0.314-0.082-0.633-0.15-0.957-0.209l-0.206-2.123  c-0.019-0.19-0.158-0.35-0.35-0.35h-3.464c-0.192,0-0.331,0.159-0.351,0.35l-0.206,2.123c-1.471,0.263-2.854,0.776-4.105,1.494  l-1.523-1.493c-0.137-0.135-0.345-0.167-0.492-0.043l-2.652,2.228c-0.148,0.123-0.153,0.334-0.044,0.492l1.206,1.76  c-0.931,1.117-1.676,2.393-2.186,3.782l-2.127-0.165c-0.19-0.015-0.371,0.094-0.404,0.283l-0.601,3.412  c-0.033,0.189,0.098,0.354,0.282,0.405l2.057,0.571c0.006,1.512,0.272,2.959,0.756,4.305l-1.732,1.238  c-0.157,0.112-0.226,0.312-0.129,0.479l1.732,3c0.096,0.166,0.303,0.208,0.478,0.129l1.942-0.885  c0.945,1.116,2.076,2.068,3.346,2.811l-0.531,2.064c-0.049,0.186,0.026,0.383,0.208,0.447l3.256,1.186  c0.181,0.066,0.364-0.036,0.448-0.209l0.92-1.924c0.711,0.121,1.44,0.186,2.186,0.186c0.744,0,1.474-0.063,2.185-0.185l0.919,1.923  c0.083,0.173,0.268,0.275,0.448,0.209l3.255-1.186c0.18-0.064,0.258-0.262,0.209-0.447l-0.53-2.064  c1.269-0.742,2.4-1.694,3.344-2.811l1.944,0.885c0.173,0.079,0.381,0.037,0.477-0.129l1.733-3c0.095-0.167,0.028-0.366-0.13-0.479  l-1.733-1.239c0.109-0.306,0.211-0.62,0.297-0.938l46.685-3.398c0.119,0.61,0.275,1.207,0.469,1.787l-1.809,1.337  c-0.164,0.121-0.223,0.353-0.104,0.56l2.146,3.716c0.117,0.206,0.35,0.271,0.537,0.19l2.065-0.899  c0.922,1.041,1.997,1.945,3.187,2.678l-0.524,2.188c-0.047,0.199,0.057,0.415,0.279,0.496l4.032,1.467  c0.223,0.082,0.442-0.018,0.534-0.199l1.003-2.015c0.68,0.101,1.374,0.153,2.084,0.153c0.707,0,1.4-0.053,2.08-0.152l1.005,2.014  c0.091,0.184,0.31,0.281,0.532,0.199l4.033-1.467c0.224-0.081,0.328-0.297,0.281-0.496l-0.528-2.188  c1.192-0.733,2.267-1.638,3.189-2.679l2.065,0.899c0.188,0.08,0.419,0.016,0.538-0.19l2.145-3.716c0.12-0.207,0.06-0.439-0.104-0.56  l-1.808-1.337c0.432-1.295,0.683-2.672,0.72-4.103l2.159-0.64c0.196-0.058,0.331-0.256,0.29-0.49l-0.745-4.225  c-0.04-0.234-0.236-0.375-0.438-0.363l-2.244,0.139c-0.519-1.31-1.225-2.522-2.087-3.606l1.243-1.877  c0.112-0.171,0.089-0.409-0.094-0.562l-3.285-2.759c-0.182-0.152-0.424-0.134-0.57,0.006l-1.631,1.549  c-1.21-0.657-2.526-1.144-3.915-1.425l-0.253-2.234c-0.023-0.204-0.197-0.371-0.435-0.371h-4.29c-0.239,0-0.41,0.168-0.434,0.371  l-0.254,2.234c-1.39,0.281-2.706,0.768-3.913,1.425l-1.634-1.549c-0.146-0.14-0.386-0.158-0.568-0.006l-3.288,2.759  c-0.182,0.152-0.206,0.392-0.094,0.562l1.244,1.877L880.246,364.353L880.246,364.353z M814.99,373.083  c-0.602,0.744-0.961,1.689-0.961,2.72c0,2.388,1.937,4.325,4.327,4.325c0.23,0,0.457-0.018,0.678-0.053l9.175-0.668  c-1.47,4.018-5.327,6.884-9.853,6.884c-5.793,0-10.489-4.695-10.489-10.488c0-5.794,4.696-10.489,10.489-10.489  c0.613,0,1.213,0.054,1.797,0.154L814.99,373.083L814.99,373.083z M840.237,341.894c1.707,0,3.286,0.551,4.566,1.485l6.069,3.593  c-1.193-4.764-5.502-8.291-10.636-8.291c-6.055,0-10.965,4.909-10.965,10.966c0,0.712,0.066,1.409,0.197,2.083l4.116-6.068  c0.147-0.246,0.308-0.482,0.48-0.709l0.005-0.006C835.488,343.091,837.723,341.894,840.237,341.894L840.237,341.894z   M840.237,345.365c-2.366,0-4.282,1.918-4.282,4.282c0,2.365,1.916,4.282,4.282,4.282c2.364,0,4.281-1.917,4.281-4.282  C844.519,347.283,842.602,345.365,840.237,345.365z"/>
<path fill-rule="evenodd" clip-rule="evenodd" fill="#E6E6E6" d="M1041.243,255.05c-0.573-0.003-1.144,0.031-1.705,0.09  c-1.259-20.148-26.284-29.223-40.61-13.33c2.075,1.297,4.188,3.567,4.606,5.609c-9.865-9.921-28.276-4.193-28.283,11.107  c-30.179,0.009-30.176,45.837-0.002,45.838c5.804,0.002,12.818,0.057,18.622,0.059c-0.635-1.498-0.745-3.573-0.414-5.068  c7.063,16.332,28.86,18.896,39.438,5.015c16.383-0.003,40.607,4.069,40.607-16.138c0.004-12.047-13.408-20.646-23.648-13.535  c0.571-1.521,3.625-4.709,7.42-5.297C1056.389,261.332,1049.544,255.05,1041.243,255.05z"/>
<path opacity="0.5" fill-rule="evenodd" clip-rule="evenodd" fill="#007E9C" d="M974.484,271.597c-1.132,0.203-2.2,0.6-3.164,1.152  c-1.736-1.703-0.909-1.722-3.595,0.533c-0.308,0.256,0.446,1.08,0.895,1.734c-0.717,0.861-1.291,1.844-1.685,2.914  c-2.418-0.188-1.806-0.735-2.411,2.721c-0.07,0.393,1.035,0.539,1.801,0.752c0.007,1.164,0.211,2.281,0.582,3.316  c-1.975,1.413-1.853,0.596-0.099,3.635c0.2,0.346,1.142-0.254,1.865-0.583c0.728,0.859,1.599,1.594,2.578,2.165  c-0.607,2.354-1.038,1.648,2.258,2.85c0.377,0.137,0.711-0.928,1.055-1.645h3.367c1.049,2.194,0.266,1.931,3.562,0.73  c0.375-0.137-0.051-1.167-0.249-1.936c0.979-0.571,1.849-1.305,2.577-2.165c2.081,0.946,1.579,1.079,2.482-0.489l13.653,3.464  c0.129,0.831,0.326,1.64,0.587,2.419c-1.132,0.838-2.34,1.422-2.01,1.994l2.255,3.906c0.331,0.573,1.443-0.183,2.736-0.746  c0.972,1.094,2.101,2.045,3.352,2.814c-0.33,1.369-0.878,2.597-0.258,2.824l4.238,1.542c0.622,0.226,0.986-1.065,1.615-2.329  l4.378,0.001c0.629,1.26,0.996,2.554,1.617,2.328l4.239-1.542c0.62-0.228,0.071-1.452-0.26-2.823  c1.253-0.771,2.382-1.722,3.353-2.815c1.292,0.563,2.405,1.318,2.737,0.746l2.255-3.906c0.329-0.572-0.878-1.156-2.012-1.994  c0.276-0.828,0.482-1.689,0.61-2.575l20.037,0.517l1.016,1.801c0.148,0.255,0.878-0.201,1.385-0.432  c0.541,0.639,1.188,1.184,1.914,1.607c-0.447,1.74-0.769,1.227,1.677,2.114c0.276,0.101,0.542-0.716,0.784-1.22h2.499  c0.776,1.624,0.199,1.432,2.645,0.542c0.274-0.099-0.048-0.897-0.186-1.437c0.727-0.426,1.373-0.969,1.913-1.607  c1.639,0.745,1.076,0.971,2.377-1.283c0.146-0.255-0.613-0.658-1.064-0.982c0.276-0.77,0.428-1.599,0.431-2.462  c1.735-0.483,1.445,0.052,0.995-2.511c-0.052-0.289-0.892-0.111-1.446-0.068c-0.295-0.794-0.72-1.524-1.252-2.163  c1.018-1.485,1.142-0.89-0.852-2.562c-0.227-0.189-0.754,0.486-1.154,0.877c-0.714-0.41-1.506-0.703-2.349-0.855  c-0.172-1.789,0.303-1.412-2.298-1.412c-0.295,0-0.265,0.858-0.32,1.412c-0.84,0.152-1.632,0.445-2.349,0.855  c-1.285-1.26-0.676-1.275-2.669,0.396c-0.225,0.188,0.352,0.828,0.665,1.288c-0.374,0.45-0.697,0.944-0.957,1.476l-19.099,1.037  c-0.573-3.262,0.076-2.735-3.225-2.531c-0.545-1.376-1.286-2.652-2.193-3.791c0.778-1.174,1.716-2.14,1.211-2.564l-3.458-2.9  c-0.505-0.424-1.292,0.666-2.313,1.637c-0.109-0.061-0.22-0.117-0.33-0.175l0.497-8.071c0.821-0.412,1.59-0.921,2.288-1.514  c0.983,0.625,2.221,1.675,2.553,1.248l2.142-2.741c0.333-0.427-0.984-1.371-1.827-2.173c0.482-0.973,0.832-2.031,1.023-3.154  c1.151-0.152,2.776-0.143,2.757-0.684l-0.121-3.477c-0.021-0.543-1.637-0.419-2.797-0.49c-0.265-1.088-0.686-2.122-1.245-3.074  c0.785-0.857,2.035-1.893,1.673-2.295l-2.327-2.586c-0.364-0.402-1.524,0.732-2.458,1.422c-0.881-0.648-1.865-1.178-2.927-1.557  c0.048-1.159,0.341-2.756-0.196-2.831l-3.445-0.483c-0.538-0.076-0.695,1.539-0.968,2.666c-1.126,0.072-2.218,0.311-3.243,0.691  c-0.711-0.923-1.511-2.33-1.971-2.043l-2.95,1.844c-0.458,0.287,0.457,1.626,0.975,2.666c-0.797,0.762-1.488,1.641-2.044,2.613  c-1.135-0.251-2.652-0.814-2.821-0.299l-1.074,3.309c-0.167,0.515,1.396,0.952,2.461,1.416c-0.073,0.679-0.089,1.349-0.047,2.008  l-21.687,14.732c-1.352-1.135-0.845-1.184-2.472,0.412c-0.965-0.553-2.029-0.949-3.163-1.152c-0.235-2.418,0.411-1.902-3.098-1.902  C974.513,269.695,974.562,270.807,974.484,271.597L974.484,271.597z M1029.496,289.642c0.02-0.262,0.035-0.523,0.042-0.789  c3.043-0.9,2.711-0.418,2.363-2.389l17.138-0.932c-0.39,2.215-0.665,1.74,1.047,2.216c0.003,0.854,0.152,1.673,0.423,2.435  L1029.496,289.642L1029.496,289.642z M1054.949,290.298l-2.952-0.076c-0.701-1.525-0.728-3.297-0.071-4.846l2.943-0.16  C1053.489,286.642,1053.524,288.916,1054.949,290.298L1054.949,290.298z M1025.758,289.546l-4.029-0.104  c0.038-0.271,0.063-0.549,0.072-0.83c1.999-0.557,1.725-0.18,1.46-1.68l2.429-0.131L1025.758,289.546L1025.758,289.546z   M1019.429,289.383l-3.146-0.081c0.368-0.613,0.358-1.386-0.026-1.988l3.106-0.169L1019.429,289.383L1019.429,289.383z   M1014.798,290.215l4.334,0.111c-2.075,4.811-9.336,3.343-9.336-1.925c0-5.111,6.923-6.728,9.213-2.189l-4.347,0.229  C1012.093,286.441,1012.223,290.392,1014.798,290.215L1014.798,290.215z M1021.522,290.388l4.102,0.105  c-0.959,5.182-5.502,9.105-10.962,9.105c-4.998,0-9.229-3.289-10.644-7.822l2.954,0.749c0.954,1.653,0.431,1.503,2.359,0.626  c0.458,0.515,0.988,0.962,1.577,1.326c-0.547,2.133-0.909,1.506,1.787,2.488c0.314,0.115,0.637-0.875,0.936-1.498h2.063  c0.948,1.985,0.269,1.739,2.969,0.76c0.313-0.114-0.076-1.084-0.248-1.75c0.589-0.364,1.121-0.812,1.579-1.326  c2.001,0.909,1.327,1.162,2.763-1.326c0.167-0.289-0.752-0.779-1.313-1.18C1021.473,290.56,1021.498,290.474,1021.522,290.388  L1021.522,290.388z M1052.557,291.187l4.918,0.127c4.524-0.015,4.903-6.93,0.054-7.189l-5.072,0.27  c3.271-4.904,10.996-2.605,10.996,3.324C1063.452,293.56,1055.916,295.919,1052.557,291.187L1052.557,291.187z M1025.507,285.859  l-2.414,0.131c-0.091-0.514-0.211-0.352-1.793-0.229c-0.132-0.33-0.287-0.647-0.463-0.95l0.111-1.829  c0.084-0.246,0.442-0.32,0.04-0.658l0.18-2.926C1023.308,280.937,1024.878,283.216,1025.507,285.859L1025.507,285.859z   M986.799,286.426c0.428-0.739,0.495-0.485-1.211-1.706c0.371-1.035,0.577-2.152,0.58-3.316c2.344-0.652,1.949,0.074,1.34-3.381  c-0.068-0.394-1.155-0.152-1.948-0.092c-0.394-1.07-0.969-2.053-1.685-2.914c1.198-1.748,1.216-1.467,0.525-2.045l18.74-12.73  l1.303,3.48c0.202,0.502,1.683-0.168,2.796-0.497c0.615,0.921,1.362,1.753,2.218,2.465c-0.443,1.073-1.264,2.474-0.785,2.728  l3.071,1.633c0.479,0.255,1.181-1.209,1.823-2.176l3.284,0.461c0.35,1.106,0.621,2.707,1.152,2.595l2.769-0.589l-0.271,4.42  c-0.91-0.391-1.866-0.69-2.861-0.893c-0.159-1.4-0.06-2.738-0.722-2.738h-4.509c-0.661,0-0.564,1.338-0.723,2.738  c-1.462,0.297-2.845,0.809-4.115,1.498c-1.023-0.969-1.809-2.059-2.313-1.635l-3.455,2.9c-0.508,0.425,0.431,1.391,1.208,2.564  c-0.907,1.139-1.647,2.415-2.192,3.791c-1.404-0.087-2.707-0.416-2.82,0.234l-0.784,4.443c-0.115,0.65,1.223,0.787,2.575,1.188  c0.007,0.295,0.023,0.588,0.049,0.88L986.799,286.426L986.799,286.426z M1006.716,291.478l-2.969-0.754  c-1.968-9.504,8.279-16.695,16.503-11.92l-0.169,2.76c-0.982-0.826-0.574-0.879-2.031,0.549c-0.6-0.324-1.251-0.563-1.941-0.705  c-0.212-2.186,0.342-1.728-2.528-1.728c-0.333,0-0.299,1.04-0.365,1.728c-0.688,0.142-1.339,0.381-1.94,0.705  c-1.557-1.527-0.85-1.551-3.048,0.303c-0.255,0.217,0.441,0.992,0.832,1.559c-0.425,0.539-0.774,1.141-1.032,1.787  c-2.187-0.17-1.645-0.637-2.142,2.191c-0.058,0.329,0.976,0.476,1.641,0.66c0.02,0.709,0.144,1.391,0.355,2.033L1006.716,291.478  L1006.716,291.478z M983.186,285.509l-5.179-1.313c2.573-1.603,1.83-5.548-1.138-6.108l4.446-3.02  C984.447,277.593,985.258,282.048,983.186,285.509L983.186,285.509z M976.092,284.693l6.521,1.654  c-4.704,5.998-14.446,2.695-14.446-4.983c0-6.37,7.005-10.163,12.32-6.882l-5.77,3.92  C971.483,280.33,972.98,284.548,976.092,284.693L976.092,284.693z M1013.429,252.107l-6.208,4.217  c0.076-1.334,0.43-2.645,1.038-3.834c1.002-1.967,2.689-3.543,4.709-4.42c4.287-1.863,9.227-0.385,11.854,3.565  c1.267,1.905,1.773,4.292,1.454,6.554c-0.387,2.742-1.921,5.154-4.214,6.666l0.477-8.16c-0.008-1.259-0.431-2.445-1.154-3.404  C1019.499,250.792,1015.96,250.263,1013.429,252.107L1013.429,252.107z M1003.794,259.799l1.658-1.126  c0.015,0.08,0.027,0.159,0.041,0.238L1003.794,259.799L1003.794,259.799z M1007.224,257.468l4.271-2.9  c-2.53,6.186,5.891,10.959,9.9,5.613l-0.322,5.245c-1.74,0.87-3.688,1.19-5.619,0.918  C1010.93,265.709,1007.508,261.968,1007.224,257.468L1007.224,257.468z M1017.067,254.874c2.46,0.346,1.935,4.084-0.526,3.737  C1014.08,258.266,1014.605,254.529,1017.067,254.874L1017.067,254.874z M1013.966,252.975c3.345-2.522,8.093,0.274,7.51,4.424  c-0.582,4.147-5.915,5.532-8.439,2.184C1011.469,257.502,1011.884,254.544,1013.966,252.975z"/>
<path opacity="0.5" fill-rule="evenodd" clip-rule="evenodd" fill="#007E9C" d="M1006.781,421.494  c1.392-0.967,2.913-1.665,4.492-2.094l0.023-2.416c0.001-0.219,0.142-0.41,0.359-0.43l3.913-0.342c0.217-0.02,0.39,0.146,0.43,0.359  l0.443,2.379c1.641,0.149,3.261,0.576,4.785,1.278l1.571-1.835c0.142-0.166,0.373-0.223,0.552-0.097l3.217,2.253  c0.178,0.125,0.205,0.361,0.099,0.551l-1.19,2.107c1.204,1.216,2.154,2.59,2.844,4.056l2.384-0.396  c0.214-0.037,0.428,0.068,0.485,0.279l1.016,3.795c0.058,0.21-0.075,0.408-0.279,0.484l-2.267,0.851  c0.138,1.65-0.007,3.321-0.43,4.933l2.082,1.23c0.188,0.111,0.284,0.328,0.192,0.525l-1.661,3.561  c-0.092,0.197-0.321,0.264-0.527,0.191l-2.28-0.805c-0.472,0.666-1.004,1.303-1.601,1.899c-0.599,0.598-1.234,1.131-1.9,1.603  l0.806,2.28c0.073,0.206,0.006,0.436-0.19,0.526l-3.562,1.66c-0.197,0.093-0.417-0.005-0.527-0.193l-1.229-2.08  c-1.612,0.424-3.281,0.566-4.933,0.43l-0.85,2.266c-0.076,0.204-0.276,0.336-0.487,0.28l-1.756-0.471l-8.287,13.919h-1.633  l8.512-14.297l-0.629-0.168c-0.211-0.056-0.316-0.271-0.281-0.486l0.396-2.382c-1.467-0.69-2.838-1.639-4.056-2.844l-2.105,1.188  c-0.19,0.107-0.427,0.082-0.553-0.097l-2.254-3.218c-0.125-0.178-0.067-0.41,0.099-0.552l1.835-1.57  c-0.703-1.524-1.129-3.146-1.278-4.786l-2.379-0.443c-0.214-0.041-0.38-0.211-0.359-0.43l0.063-0.707l-32.744,6.254  c0.116,0.047,0.213,0.136,0.268,0.262l1.999,4.713c0.11,0.262-0.024,0.541-0.274,0.678l-3.153,1.716  c0.319,1.599,0.408,3.239,0.258,4.872l3.313,1.375c0.263,0.109,0.426,0.375,0.341,0.646l-1.497,4.895  c-0.082,0.271-0.366,0.398-0.645,0.343l-3.517-0.712c-0.387,0.706-0.828,1.393-1.327,2.055c-0.497,0.661-1.036,1.275-1.609,1.842  l0.963,1.854h-10.271c0.089-0.015,0.177-0.032,0.267-0.051l-8.851-7.826c-0.055-0.05-0.102-0.107-0.14-0.169  c-1.299-1.319-2.092-2.993-2.338-4.743c-0.3-2.139,0.216-4.393,1.618-6.253c1.371-1.82,3.34-2.928,5.426-3.257l10.848-2.071  c-0.292-0.26-0.597-0.51-0.914-0.749l-0.194-0.143v-0.001l-0.232-0.165l-0.061-0.042l-0.235-0.159l-0.06-0.039l-0.061-0.038  l-0.118-0.077l-0.059-0.037l-0.061-0.037l-0.021-0.013l-0.16-0.098l-0.062-0.036l-0.06-0.037l-0.017-0.008l-0.227-0.131  l-0.063-0.033l-0.063-0.033l-0.184-0.1l-0.062-0.031l-0.013-0.006l-0.235-0.121l-0.062-0.029l-0.064-0.031l-0.188-0.089l-0.062-0.03  l-0.064-0.027l-0.186-0.084l-0.003-0.001l-0.064-0.026l-0.063-0.027l-0.19-0.08l-0.064-0.025l-0.063-0.025l-0.186-0.072  l-0.005-0.002l-0.065-0.024l-0.064-0.023l-0.203-0.072l-0.139-0.048l-0.109-0.036l-0.065-0.022  c-1.728-0.557-3.528-0.768-5.304-0.645l0,0l-0.015,0.002l-0.263,0.021l-0.04,0.003l-0.028,0.004l-0.258,0.026l-0.087,0.011  l-0.209,0.025l-0.069,0.01l-0.061,0.008l-0.237,0.037l-0.114,0.018l-0.224,0.04l-0.114,0.022l-0.226,0.045l-0.05,0.012l-0.069,0.015  l-0.136,0.03l-0.068,0.017l-0.119,0.028l-0.016,0.004l-0.068,0.016l-0.066,0.018l-0.066,0.018l-0.067,0.019l-0.068,0.017  l-0.196,0.056l-0.065,0.019l-0.007,0.002l-0.066,0.021l-0.067,0.021l-0.066,0.02l-0.065,0.021l-0.067,0.021l-0.067,0.022  l-0.131,0.044l-0.065,0.021l-0.064,0.022h-0.003l-0.065,0.023l-0.065,0.023l-0.067,0.023l-0.003,0.001l-0.127,0.048l-0.065,0.025  l-0.065,0.024l-0.065,0.026l-0.129,0.051h-0.001c-1.636,0.662-3.161,1.637-4.482,2.91l0,0l-0.024,0.025l-0.099,0.096l-0.023,0.023  l-0.025,0.025l-0.024,0.023l-0.024,0.025l-0.022,0.024l-0.121,0.123l-0.024,0.024l-0.023,0.025l-0.023,0.025l-0.025,0.025  l-0.023,0.025l-0.023,0.024l-0.096,0.103l-0.023,0.025l-0.115,0.13l-0.023,0.026l-0.047,0.053l-0.021,0.025l-0.161,0.186  l-0.021,0.027l-0.011,0.012l-0.013,0.014v0.003c-0.069,0.081-0.135,0.161-0.2,0.243l-0.016,0.021l-0.006,0.007  c-0.073,0.092-0.146,0.186-0.216,0.279c-0.07,0.093-0.139,0.186-0.204,0.279l-0.005,0.006l-0.007,0.01l-0.015,0.02  c-0.06,0.086-0.119,0.17-0.179,0.256l-0.021,0.033l-0.02,0.029l-0.02,0.029l-0.114,0.175l-0.021,0.03l-0.019,0.029l-0.019,0.029  l-0.13,0.207l-0.017,0.029l-0.004,0.003l-0.05,0.087l-0.019,0.029l-0.035,0.06l-0.019,0.03l-0.017,0.029l-0.019,0.03v0.001  l-0.085,0.148l-0.015,0.031l-0.02,0.029l-0.017,0.03l-0.016,0.03l-0.016,0.029l-0.082,0.153l-0.002,0.001  c-0.861,1.623-1.38,3.363-1.563,5.119l-0.012,0.111l-0.014,0.156l-0.005,0.07l-0.012,0.134l-0.009,0.144l-0.004,0.07v0.002  l-0.005,0.102l-0.008,0.175l-0.003,0.069l-0.003,0.108l-0.004,0.247v0.063v0.001v0.069l0.002,0.14l0.002,0.07v0.06l0.006,0.218  l0.004,0.07l0.004,0.056l0.011,0.223l0.004,0.068l0.001,0.008l0.004,0.063l0.021,0.261l0.002,0.015v0.002l0.007,0.069l0.023,0.224  l0.01,0.087l0.03,0.23l0.014,0.095l0.038,0.259l0.015,0.095l0.042,0.234l0.016,0.076l0.053,0.266l0.002,0.014l0,0  c0.37,1.74,1.07,3.414,2.083,4.922l0.038,0.057l0.068,0.102l0.009,0.011l0.038,0.056l0.041,0.057l0.014,0.02l0.1,0.14l0.086,0.117  l0.041,0.055l0.07,0.093l0.098,0.125l0.044,0.055l0.085,0.107l0.044,0.053l0.043,0.055l0.013,0.016l0.122,0.143l0.043,0.053  l0.045,0.053l0.004,0.002l0.133,0.153l0.047,0.052l0.047,0.051l0.188,0.203l0.002,0.002l0.049,0.051l0.049,0.051l0.097,0.1  l0.099,0.098l0.197,0.193l0.004,0.004l0.052,0.049l0.05,0.047l0.104,0.097l0.053,0.047l0.052,0.048l0.054,0.047l0,0l0.154,0.135  l0.005,0.006l0.056,0.046l0.053,0.047l0.148,0.124l0.121,0.098l0.152,0.121c0.07,0.055,0.141,0.111,0.213,0.166  c1.414,1.064,2.964,1.823,4.569,2.287h0.002c0.091,0.026,0.181,0.052,0.271,0.076l0.068,0.018l0.272,0.068l0.067,0.018  c0.218,0.05,0.436,0.094,0.652,0.135h-7.065l-0.114-0.079l-0.103,0.079h-5.412l-1.556-1.667c-0.194-0.208-0.162-0.519,0.025-0.729  l2.374-2.688c-0.855-1.408-1.493-2.924-1.904-4.494l-3.585-0.16c-0.283-0.014-0.528-0.205-0.542-0.488l-0.269-5.113  c-0.015-0.282,0.208-0.501,0.488-0.542l3.548-0.534c0.241-1.594,0.715-3.166,1.427-4.668l-2.643-2.424  c-0.206-0.193-0.271-0.497-0.1-0.723l3.079-4.09c0.174-0.227,0.482-0.249,0.726-0.102l3.059,1.871  c1.245-1.098,2.628-1.985,4.094-2.658l-0.466-3.556c-0.036-0.281,0.111-0.555,0.389-0.618l4.987-1.152  c0.277-0.064,0.53,0.118,0.621,0.387l1.142,3.403c1.62-0.038,3.255,0.157,4.845,0.591l1.929-3.021  c0.151-0.239,0.441-0.354,0.693-0.225l4.563,2.324c0.253,0.129,0.327,0.43,0.225,0.695l-1.313,3.34  c0.783,0.627,1.496,1.311,2.139,2.04l37.893-7.236l0.154-1.759c0.02-0.217,0.212-0.359,0.428-0.36l2.418-0.023  c0.428-1.578,1.126-3.1,2.094-4.489l-1.535-1.867c-0.139-0.168-0.154-0.406,0-0.561l2.777-2.777c0.154-0.153,0.392-0.139,0.561,0  L1006.781,421.494L1006.781,421.494z M963.27,464.033h36.086l0.717-1.319c0.151-0.277,0.083-0.642-0.219-0.854l-5.438-3.807  c-0.303-0.211-0.667-0.148-0.877,0.086l-2.305,2.605c-1.996-0.866-4.097-1.42-6.224-1.663l-0.693-3.413  c-0.064-0.31-0.35-0.545-0.719-0.514l-6.612,0.578c-0.366,0.033-0.607,0.314-0.615,0.631l-0.091,3.479  c-2.041,0.604-4.012,1.512-5.841,2.723l-2.724-2.166c-0.246-0.197-0.617-0.193-0.877,0.068L963.27,464.033L963.27,464.033z   M1012.205,445.023l4.021-6.758c-1.595,0.372-3.341-0.063-4.584-1.309c-1.694-1.693-1.89-4.319-0.586-6.227l-7.77,1.482  c-0.37,3.453,0.768,7.038,3.416,9.686C1008.278,443.476,1010.188,444.515,1012.205,445.023L1012.205,445.023z M1018.737,436.789  l-5.063,8.507c3.503,0.423,7.155-0.71,9.845-3.397c4.644-4.644,4.644-12.174,0-16.817c-4.645-4.644-12.174-4.644-16.816,0.001  c-1.618,1.617-2.673,3.586-3.163,5.66l10.083-1.926c1.69-0.537,3.613-0.137,4.957,1.205  C1020.438,431.882,1020.492,434.865,1018.737,436.789L1018.737,436.789z M964.012,439.713l-2.898,0.553  c0.07,0.098,0.141,0.194,0.206,0.293L964.012,439.713L964.012,439.713z M958.018,440.857l-7.463,1.427  c0.635,0.265,1.246,0.613,1.819,1.048c1.861,1.402,2.977,3.426,3.277,5.564c0.3,2.139-0.215,4.393-1.616,6.253  c-1.402,1.861-3.428,2.978-5.566,3.278c-0.785,0.109-1.583,0.109-2.373-0.002l5.794,5.121c0.425-0.141,0.845-0.303,1.257-0.486  l0.063-0.027l0.188-0.086l0.063-0.029l0.064-0.029l0.186-0.09l0.061-0.032l0.062-0.03c0.268-0.136,0.53-0.281,0.79-0.434l0.06-0.037  l0.237-0.145l0.058-0.037l0.178-0.113l0.057-0.039l0.059-0.039c0.077-0.051,0.152-0.103,0.229-0.155l0.002-0.001l0.057-0.041  c0.248-0.174,0.49-0.357,0.728-0.549l0.057-0.047l0.055-0.045l0.162-0.135l0.054-0.046l0.005-0.005  c0.087-0.074,0.174-0.152,0.262-0.23l0,0c0.654-0.592,1.262-1.251,1.812-1.98c0.548-0.73,1.015-1.496,1.404-2.285v-0.002  l0.031-0.063l0.092-0.192l0.028-0.064c0.238-0.516,0.441-1.04,0.611-1.572l0.022-0.066c0.063-0.199,0.122-0.398,0.175-0.602  l0.017-0.066l0.069-0.271l0.015-0.067c0.074-0.313,0.137-0.631,0.188-0.949l0.011-0.066l0.031-0.205l0.011-0.068  c0.247-1.789,0.147-3.605-0.285-5.347v-0.001l-0.016-0.066l-0.018-0.067l-0.053-0.201l-0.02-0.067l-0.02-0.066  c-0.05-0.178-0.104-0.354-0.162-0.531l-0.021-0.065c-0.059-0.175-0.122-0.351-0.188-0.523l-0.025-0.065l-0.023-0.064l-0.078-0.195  l-0.025-0.063l-0.026-0.063l-0.082-0.193l-0.028-0.063l-0.114-0.255l-0.03-0.063l-0.03-0.063l-0.092-0.188l-0.032-0.063  l-0.029-0.063l-0.097-0.187l-0.034-0.062l-0.135-0.246l-0.032-0.062l-0.143-0.243l-0.036-0.061l-0.109-0.18l-0.037-0.061  l-0.002-0.001C958.975,442.041,958.522,441.431,958.018,440.857L958.018,440.857z M945.077,448.4  c-0.923,1.224-0.68,2.965,0.547,3.887c1.225,0.924,2.966,0.68,3.889-0.545c0.923-1.226,0.679-2.967-0.547-3.89  C947.741,446.929,946,447.173,945.077,448.4L945.077,448.4z M946.33,443.196c-1.761,0.247-3.426,1.165-4.579,2.696  s-1.576,3.385-1.331,5.143c0.248,1.76,1.165,3.424,2.697,4.578c1.53,1.154,3.386,1.579,5.143,1.331  c1.759-0.247,3.425-1.165,4.578-2.696s1.577-3.384,1.331-5.143c-0.248-1.76-1.166-3.425-2.696-4.578  C949.942,443.373,948.09,442.949,946.33,443.196z"/>
<path fill-rule="evenodd" clip-rule="evenodd" fill="#FFC500" d="M279.231,123.876c12.709,0,23.074-10.365,23.074-23.075  c0-12.709-10.365-23.075-23.074-23.075c-12.71,0-23.076,10.366-23.076,23.075C256.155,113.511,266.521,123.876,279.231,123.876z"/>
<path fill-rule="evenodd" clip-rule="evenodd" fill="#BBD4DA" d="M230.082,114.458c0.917,0,1.799,0.151,2.623,0.431  c-0.765-5.955,3.863-11.229,9.868-11.229c3.893,0,7.262,2.235,8.897,5.492c-0.368,0.316-1.724,1.718-1.772,3.22  c3.894-5.284,14.011-4.231,18.649,0.111c1.259-1.631,3.232-2.683,5.452-2.683c2.809,0,5.226,1.683,6.294,4.097  c-0.462,0.407-1.013,1.664-1.195,2.403c1.267-1.27,3.199-1.843,4.957-1.843c4.501,0,8.15,3.649,8.15,8.15s-3.649,8.15-8.15,8.15  c-3.989,0-8.46,0-12.451,0c0.438-0.778,0.526-1.871,0.131-2.725c-1.346,5.014-7.731,8.442-12.66,8.442  c-4.612,0-8.698-2.253-11.217-5.717h-17.575c-4.501,0-8.151-3.648-8.151-8.15S225.58,114.458,230.082,114.458z"/>
<path fill-rule="evenodd" clip-rule="evenodd" fill="#FFC500" d="M243.252,125.085l4.317,13.169l-4.327,0.733l1.357,12.625  l-8.485-14.866l3.705-0.866l-5.271-7.368C237.152,128.864,240.596,128.363,243.252,125.085z"/>
<path fill-rule="evenodd" clip-rule="evenodd" fill="#72B2C1" d="M250.931,381.031c3.484-1.067,4.593,2.518,1.326,4.404  c-3.26,1.882-5.864-0.885-3.114-3.386l-12.296-21.301c-4.175,0.722-4.752-5.895-0.504-5.895c2.526,0,3.877,2.952,2.285,4.865  L250.931,381.031z"/>
<path fill-rule="evenodd" clip-rule="evenodd" fill="#E6E6E6" d="M246.148,248.26c12.885,0,23.475,9.822,24.689,22.388  c0.194-0.006,0.387-0.01,0.581-0.01c8.581,0,15.919,5.315,18.903,12.834c1.304-0.531,2.729-0.826,4.223-0.826  c6.177,0,11.186,5.008,11.186,11.186c0,6.176-5.009,11.184-11.186,11.184h-8.433c-3.701,3.871-8.914,6.281-14.692,6.281  c-5.777,0-10.991-2.41-14.69-6.281h-16.265c-3.78,7.001-11.181,11.76-19.696,11.76c-12.354,0-22.369-10.016-22.369-22.371  c0-12.354,10.016-22.369,22.369-22.369c0.201,0,0.398,0.003,0.596,0.008C221.901,258.818,232.792,248.26,246.148,248.26z"/>
<path fill-rule="evenodd" clip-rule="evenodd" fill="#72B2C1" d="M222.649,283.968c0.989,0.178,1.933,0.493,2.807,0.926  l10.107-9.792c-0.104-0.552-0.166-1.116-0.183-1.694l-2.207-0.613c-0.174-0.049-0.298-0.203-0.266-0.383l0.566-3.215  c0.032-0.179,0.201-0.281,0.382-0.268l2.28,0.178c0.388-0.977,0.917-1.883,1.559-2.695l-1.294-1.888  c-0.104-0.149-0.099-0.349,0.041-0.464l2.501-2.099c0.139-0.117,0.334-0.087,0.465,0.04l1.632,1.602  c0.905-0.488,1.888-0.852,2.926-1.065l0.221-2.275c0.019-0.181,0.149-0.329,0.33-0.329h3.266c0.181,0,0.311,0.148,0.33,0.329  l0.221,2.275c1.038,0.214,2.021,0.577,2.926,1.065l1.632-1.602c0.129-0.127,0.325-0.157,0.464-0.04l2.503,2.099  c0.139,0.115,0.142,0.314,0.04,0.464l-1.296,1.888c0.643,0.813,1.17,1.719,1.559,2.695l2.28-0.178  c0.181-0.014,0.351,0.089,0.381,0.268l0.567,3.215c0.032,0.18-0.092,0.334-0.266,0.383l-2.206,0.613  c-0.032,1.068-0.218,2.098-0.539,3.066l1.861,1.33c0.147,0.105,0.211,0.293,0.121,0.449l-1.274,2.205l0.849,1.488l0.107-1.107  c0.01-0.102,0.084-0.186,0.184-0.186h1.825c0.101,0,0.174,0.084,0.185,0.186l0.108,1.117c0.774,0.139,1.502,0.408,2.162,0.786  l0.801-0.786c0.072-0.07,0.183-0.088,0.26-0.021l1.396,1.172c0.078,0.064,0.08,0.176,0.023,0.259l-0.635,0.927  c0.489,0.588,0.881,1.26,1.15,1.991l1.12-0.087c0.101-0.008,0.196,0.049,0.213,0.148l0.316,1.798  c0.019,0.099-0.052,0.186-0.148,0.212l-1.082,0.302c-0.003,0.795-0.144,1.559-0.398,2.266l0.912,0.653  c0.083,0.059,0.117,0.164,0.067,0.251l-0.913,1.58c-0.05,0.087-0.159,0.108-0.251,0.067l-1.023-0.467  c-0.497,0.589-1.093,1.09-1.761,1.479l0.28,1.088c0.025,0.099-0.016,0.202-0.111,0.235l-1.713,0.624  c-0.095,0.036-0.192-0.019-0.235-0.11l-0.486-1.012c-0.374,0.063-0.758,0.096-1.15,0.096s-0.777-0.031-1.15-0.096l-0.484,1.012  c-0.045,0.092-0.141,0.146-0.236,0.11l-1.714-0.624c-0.095-0.033-0.136-0.138-0.11-0.235l0.279-1.088  c-0.667-0.39-1.262-0.891-1.759-1.479l-1.024,0.467c-0.092,0.041-0.201,0.02-0.251-0.067l-0.67-1.161l-20.799,3.825  c-0.105,0.653-0.27,1.288-0.489,1.896l1.424,1.018c0.129,0.092,0.185,0.256,0.106,0.394l-1.425,2.466  c-0.079,0.137-0.248,0.17-0.392,0.105l-1.597-0.727c-0.777,0.918-1.706,1.701-2.75,2.31l0.438,1.696  c0.039,0.153-0.023,0.315-0.172,0.368l-2.675,0.975c-0.149,0.055-0.301-0.029-0.369-0.171l-0.756-1.582  c-0.584,0.1-1.183,0.152-1.796,0.152s-1.212-0.052-1.796-0.152l-0.755,1.582c-0.069,0.142-0.219,0.226-0.368,0.171l-2.677-0.975  c-0.147-0.053-0.209-0.215-0.171-0.368l0.438-1.696c-1.043-0.61-1.974-1.392-2.749-2.31l-1.597,0.727  c-0.145,0.066-0.315,0.031-0.394-0.105l-1.423-2.466c-0.081-0.138-0.023-0.302,0.103-0.392l1.427-1.02  c-0.398-1.106-0.616-2.295-0.621-3.537l-1.69-0.471c-0.153-0.043-0.261-0.177-0.233-0.332l0.495-2.805  c0.028-0.155,0.175-0.246,0.333-0.232l1.746,0.135c0.42-1.142,1.033-2.19,1.798-3.109l-0.992-1.445  c-0.089-0.13-0.086-0.303,0.035-0.406l2.181-1.83c0.122-0.101,0.292-0.074,0.405,0.037l1.252,1.227  c1.028-0.59,2.167-1.012,3.375-1.229l0.169-1.744c0.015-0.157,0.129-0.287,0.288-0.287h2.848c0.157,0,0.271,0.13,0.286,0.287  L222.649,283.968L222.649,283.968z M293.661,295.988l-2.612-0.843c0.533,1.413,1.897,2.42,3.495,2.42  c2.063,0,3.733-1.671,3.733-3.733s-1.671-3.734-3.733-3.734c-0.529,0-1.031,0.111-1.486,0.309l2.292,1.237  c0.32,0.118,0.606,0.304,0.842,0.54l0.002,0.001c0.422,0.421,0.681,1.005,0.681,1.647s-0.261,1.225-0.681,1.646l-0.002,0.001  c-0.421,0.422-1.004,0.683-1.647,0.683C294.231,296.162,293.934,296.1,293.661,295.988L293.661,295.988z M289.107,294.519  c0.045,0.355,0.124,0.703,0.234,1.033l-0.948,0.677c-0.074,0.054-0.107,0.149-0.06,0.229l0.83,1.438  c0.047,0.08,0.144,0.1,0.229,0.063l1.06-0.482c0.352,0.395,0.76,0.738,1.212,1.018l-0.29,1.127c-0.023,0.09,0.013,0.184,0.099,0.215  l1.562,0.568c0.087,0.031,0.176-0.017,0.214-0.1l0.502-1.051c0.258,0.037,0.522,0.058,0.792,0.058c0.27,0,0.533-0.021,0.792-0.058  l0.502,1.051c0.041,0.083,0.127,0.131,0.215,0.1l1.56-0.568c0.087-0.031,0.124-0.125,0.1-0.215l-0.289-1.127  c0.452-0.279,0.86-0.623,1.212-1.018l1.06,0.482c0.083,0.037,0.184,0.018,0.229-0.063l0.831-1.438  c0.047-0.08,0.013-0.176-0.061-0.229l-0.947-0.677c0.164-0.491,0.258-1.016,0.275-1.559l1.121-0.313  c0.089-0.025,0.152-0.104,0.136-0.193l-0.288-1.637c-0.017-0.091-0.102-0.144-0.194-0.137l-1.16,0.09  c-0.198-0.496-0.465-0.957-0.792-1.369l0.658-0.961c0.052-0.076,0.05-0.177-0.02-0.235l-1.272-1.068  c-0.072-0.06-0.171-0.044-0.236,0.021l-0.832,0.814c-0.46-0.248-0.959-0.432-1.487-0.541l-0.114-1.158  c-0.008-0.092-0.075-0.168-0.167-0.168h-1.661c-0.092,0-0.159,0.076-0.167,0.168l-0.114,1.158c-0.527,0.109-1.026,0.294-1.487,0.543  l-0.832-0.816c-0.065-0.064-0.166-0.08-0.236-0.021l-0.765,0.644l-5.827-3.148l0.536-0.149c0.124-0.034,0.212-0.146,0.19-0.272  l-0.405-2.294c-0.022-0.128-0.142-0.2-0.271-0.19l-1.627,0.127c-0.278-0.697-0.652-1.344-1.111-1.924l0.923-1.346  c0.074-0.105,0.07-0.248-0.028-0.331l-1.784-1.497c-0.099-0.084-0.24-0.063-0.332,0.028l-1.165,1.144  c-0.646-0.35-1.348-0.607-2.087-0.76l-0.158-1.624c-0.013-0.129-0.105-0.235-0.236-0.235h-2.329c-0.128,0-0.222,0.106-0.234,0.235  l-0.159,1.624c-0.739,0.152-1.441,0.41-2.085,0.76l-1.165-1.144c-0.094-0.091-0.232-0.112-0.331-0.028l-1.785,1.497  c-0.099,0.083-0.102,0.226-0.029,0.331l0.922,1.346c-0.457,0.58-0.833,1.227-1.111,1.924l-1.627-0.127  c-0.127-0.01-0.248,0.063-0.271,0.19l-0.405,2.294c-0.022,0.127,0.067,0.238,0.191,0.272l1.574,0.438  c0.021,0.762,0.155,1.495,0.385,2.186l-1.328,0.949c-0.105,0.074-0.15,0.209-0.087,0.322l1.165,2.017  c0.065,0.112,0.204,0.14,0.321,0.085l1.487-0.676c0.494,0.555,1.066,1.036,1.701,1.429l-0.409,1.581  c-0.032,0.125,0.02,0.256,0.141,0.301l2.19,0.797c0.12,0.043,0.244-0.024,0.301-0.141l0.704-1.473  c0.363,0.053,0.733,0.079,1.111,0.079c0.377,0,0.747-0.027,1.11-0.079l0.705,1.473c0.055,0.116,0.179,0.184,0.301,0.141l2.188-0.797  c0.122-0.045,0.173-0.176,0.141-0.301l-0.407-1.582c0.274-0.17,0.537-0.355,0.787-0.559L289.107,294.519L289.107,294.519z   M278.104,290.968c-0.767,0.371-1.627,0.58-2.537,0.58c-3.215,0-5.822-2.606-5.822-5.822c0-3.215,2.606-5.822,5.822-5.822  c2.597,0,4.795,1.699,5.546,4.047l-3.17-1.713l-0.013-0.008c-0.675-0.455-1.488-0.722-2.362-0.722c-1.165,0-2.219,0.472-2.982,1.235  s-1.235,1.817-1.235,2.982c0,1.166,0.472,2.221,1.235,2.983c0.532,0.533,1.208,0.925,1.963,1.112L278.104,290.968L278.104,290.968z   M277.209,289.615c0.503-0.214,0.959-0.523,1.342-0.905c0.763-0.763,1.235-1.817,1.235-2.983c0-0.521-0.096-1.023-0.27-1.484  l1.853,1c0.014,0.16,0.02,0.321,0.02,0.484c0,1.834-0.849,3.469-2.172,4.536L277.209,289.615L277.209,289.615z M281.236,290.915  l0.069-0.077l0.75,0.341L281.236,290.915L281.236,290.915z M283.049,291.5c0.025-0.018,0.047-0.042,0.064-0.071l1.165-2.017  c0.065-0.113,0.021-0.246-0.085-0.322l-1.327-0.947c0.199-0.602,0.326-1.235,0.37-1.893l6.577,3.554l0.434,0.632  c-0.328,0.412-0.596,0.873-0.793,1.369l-1.16-0.09c-0.092-0.007-0.178,0.046-0.194,0.137l-0.213,1.209L283.049,291.5L283.049,291.5z   M290.814,294.005c-0.001-0.059-0.003-0.115-0.003-0.174c0-1.117,0.49-2.119,1.267-2.803l1.375,0.742  c-0.206,0.109-0.394,0.248-0.558,0.412c-0.42,0.422-0.682,1.004-0.682,1.648c0,0.228,0.032,0.447,0.094,0.655L290.814,294.005  L290.814,294.005z M277.765,283.529c0.563,0.563,0.911,1.34,0.911,2.197c0,0.858-0.348,1.637-0.911,2.197l0,0  c-0.563,0.563-1.339,0.91-2.197,0.91c-0.858,0-1.635-0.348-2.198-0.91c-0.563-0.563-0.909-1.339-0.909-2.197  c0-0.857,0.347-1.635,0.909-2.196l0.014-0.013c0.561-0.555,1.333-0.898,2.184-0.898  C276.425,282.619,277.204,282.966,277.765,283.529L277.765,283.529z M252.46,291.134l0.297-0.212  c-0.255-0.708-0.396-1.471-0.398-2.266l-1.083-0.302c-0.098-0.026-0.166-0.113-0.149-0.212l0.316-1.798  c0.019-0.1,0.114-0.156,0.214-0.148l1.118,0.087c0.269-0.731,0.661-1.402,1.152-1.991l-0.636-0.927  c-0.057-0.083-0.054-0.194,0.023-0.259l1.396-1.172c0.078-0.066,0.188-0.049,0.259,0.021l0.802,0.786  c0.365-0.208,0.75-0.384,1.151-0.524l-0.564-0.988c-0.028-0.006-0.055-0.016-0.083-0.028l-2.084-0.946  c-0.691,0.775-1.493,1.45-2.382,2l0.571,2.217c0.045,0.176-0.027,0.359-0.198,0.422l-3.068,1.117  c-0.17,0.062-0.345-0.033-0.421-0.197l-0.988-2.064c-0.507,0.074-1.028,0.112-1.557,0.112c-0.527,0-1.048-0.038-1.555-0.111  l-0.988,2.063c-0.079,0.164-0.253,0.259-0.422,0.197l-3.07-1.117c-0.168-0.063-0.241-0.247-0.196-0.422l0.571-2.216  c-0.889-0.55-1.69-1.226-2.383-2.001l-2.084,0.946c-0.164,0.075-0.358,0.037-0.45-0.12l-1.632-2.828  c-0.023-0.041-0.037-0.084-0.04-0.127l-6.099,5.908l2.061,1.729c0.121,0.104,0.126,0.276,0.035,0.406l-0.993,1.445  c0.765,0.918,1.378,1.968,1.8,3.109l1.744-0.135c0.159-0.014,0.306,0.077,0.335,0.232l0.494,2.805  c0.026,0.155-0.082,0.289-0.233,0.332l-1.69,0.471c0,0.197-0.007,0.395-0.019,0.59L252.46,291.134L252.46,291.134z M223.679,296.427  l5.653-1.039c0.037-0.33,0.056-0.664,0.056-1.002c0-3.258-1.806-6.092-4.471-7.559l-4.133,4.002c1.956,0.01,3.539,1.598,3.539,3.557  C224.323,295.145,224.085,295.849,223.679,296.427L223.679,296.427z M254.076,290.837l3.422-0.629  c-0.394-0.41-0.636-0.967-0.636-1.58c0-1.258,1.02-2.276,2.276-2.276c0.049,0,0.097,0.001,0.146,0.005l-1.723-3.021  c-2.281,0.68-3.945,2.792-3.945,5.293C253.616,289.414,253.779,290.162,254.076,290.837L254.076,290.837z M259.351,290.898  l-4.754,0.873c0.997,1.438,2.659,2.381,4.541,2.381c3.05,0,5.522-2.473,5.522-5.523c0-3.049-2.473-5.521-5.522-5.521  c-0.178,0-0.353,0.008-0.527,0.025l2.375,4.166c0.272,0.374,0.431,0.834,0.431,1.33  C261.417,289.815,260.509,290.791,259.351,290.898L259.351,290.898z M229.139,296.453l-7.478,1.375  c-0.285,0.074-0.584,0.113-0.894,0.113c-1.963,0-3.556-1.592-3.556-3.555c0-1.018,0.429-1.936,1.113-2.584l0.019-0.021l5.592-5.416  c-0.981-0.388-2.05-0.603-3.168-0.603c-4.761,0-8.621,3.861-8.621,8.623c0,4.76,3.86,8.621,8.621,8.621  C224.817,303.007,228.213,300.215,229.139,296.453L229.139,296.453z M253.609,276.404l-1.572-2.757  c-0.132,1.41-0.76,2.677-1.708,3.624c-1.07,1.07-2.547,1.732-4.182,1.732c-1.632,0-3.11-0.662-4.182-1.732  c-1.07-1.07-1.732-2.549-1.732-4.182c0-0.42,0.044-0.829,0.127-1.225l-2.312,2.24c0.5,4.028,3.936,7.146,8.098,7.146  C249.476,281.251,252.337,279.259,253.609,276.404L253.609,276.404z M251.663,270.947l2.389,4.189  c0.168-0.654,0.259-1.34,0.259-2.047c0-4.509-3.654-8.162-8.163-8.162c-4.392,0-7.975,3.471-8.154,7.821l4.108-3.98  c0.022-0.021,0.047-0.04,0.07-0.058c1.051-0.953,2.446-1.535,3.976-1.535c1.634,0,3.112,0.662,4.182,1.732  C250.906,269.482,251.363,270.175,251.663,270.947L251.663,270.947z M235.845,276.24l-1.127,1.092l1.202-0.857  C235.894,276.396,235.869,276.32,235.845,276.24L235.845,276.24z M295.336,293.039v0.002c0.203,0.201,0.329,0.482,0.329,0.791  s-0.125,0.589-0.327,0.791l-0.002,0.001c-0.203,0.202-0.482,0.327-0.792,0.327c-0.309,0-0.589-0.125-0.79-0.328l-0.017-0.015  c-0.192-0.202-0.312-0.476-0.312-0.776c0-0.311,0.124-0.59,0.327-0.791v-0.002l0.002,0.002c0.201-0.203,0.48-0.328,0.79-0.328  C294.854,292.712,295.133,292.837,295.336,293.039L295.336,293.039z M249.498,269.74c-0.857-0.855-2.042-1.385-3.35-1.385  c-1.307,0-2.491,0.529-3.348,1.385c-0.857,0.857-1.388,2.041-1.388,3.35s0.53,2.491,1.388,3.348  c0.857,0.857,2.041,1.388,3.348,1.388c1.308,0,2.493-0.53,3.35-1.388c0.857-0.856,1.386-2.039,1.386-3.348  S250.354,270.597,249.498,269.74z"/>
<path fill-rule="evenodd" clip-rule="evenodd" fill="#FFC500" d="M271.67,307.951l-14.638,26.227l-9.632-4.109l-3.589,8.961  l-6.008,0.01l-1.537,18.836l-3.286-23.516l6.696-0.86l2.33-16.661l8.375,3.822l4.821-20.547  C257.606,305.388,266.286,309.517,271.67,307.951z"/>
<path fill-rule="evenodd" clip-rule="evenodd" fill="#72B2C1" d="M879.24,339.031c2.361,1.254,1.078,3.69-1.599,2.974  c-2.668-0.714-2.582-3.503,0.143-3.372l4.672-17.439c-2.541-1.791,0.595-5.525,2.799-3.32c1.313,1.311,0.48,3.545-1.339,3.711  L879.24,339.031z"/>
<path fill-rule="evenodd" clip-rule="evenodd" fill="#FFC500" d="M879.865,274.722l8.152,24.023l-7.45,0.055l3.083,20.424  l-14.429-26.6l6.773-0.199l-2.466-16.849C874.746,277.048,879.186,276.501,879.865,274.722z"/>
<path fill-rule="evenodd" clip-rule="evenodd" fill="#E6E6E6" d="M43.086,198.113c-12.762,0-23.384,9.153-25.665,21.252  c2.392,0.559,4.216,2.027,4.771,3.593c-7.609-3.71-17.434,0.726-22.192,6.464v28.445h1.013c3.897,4.075,9.385,6.613,15.468,6.613  c6.083,0,11.572-2.538,15.468-6.613c4.851,0,9.702,0,14.555,0c-0.248-1.716-0.125-3.211,0.592-4.595  c1.958,9.661,12.227,16.976,22.712,16.976c13.006,0,23.55-10.545,23.55-23.551c0-13.008-10.544-23.552-23.55-23.552  c-0.21,0-0.419,0.001-0.627,0.009C68.614,209.228,57.149,198.113,43.086,198.113z"/>
<path fill-rule="evenodd" clip-rule="evenodd" fill="#72B2C1" d="M67.827,235.708c-1.042,0.187-2.034,0.52-2.955,0.975  l-10.642-10.311c0.109-0.579,0.175-1.176,0.192-1.783l2.323-0.646c0.184-0.052,0.314-0.214,0.28-0.401l-0.596-3.387  c-0.034-0.188-0.211-0.296-0.403-0.281l-2.4,0.186c-0.408-1.027-0.964-1.982-1.641-2.836l1.363-1.988  c0.109-0.156,0.104-0.365-0.042-0.488l-2.634-2.209c-0.146-0.123-0.354-0.092-0.488,0.042l-1.72,1.687  c-0.954-0.514-1.989-0.896-3.081-1.121l-0.233-2.396c-0.018-0.189-0.156-0.347-0.347-0.347h-3.438c-0.19,0-0.327,0.157-0.347,0.347  l-0.233,2.396c-1.093,0.225-2.128,0.606-3.08,1.121l-1.72-1.687c-0.136-0.134-0.343-0.165-0.49-0.042l-2.631,2.209  c-0.147,0.123-0.152,0.332-0.044,0.488l1.364,1.988c-0.677,0.854-1.233,1.81-1.642,2.836l-2.399-0.186  c-0.19-0.015-0.37,0.094-0.402,0.281l-0.597,3.387c-0.032,0.188,0.098,0.35,0.282,0.401l2.321,0.646  c0.033,1.125,0.229,2.209,0.567,3.227l-1.958,1.402c-0.155,0.11-0.224,0.309-0.127,0.474l1.34,2.321l-0.893,1.566l-0.114-1.168  c-0.01-0.104-0.088-0.193-0.194-0.193h-1.92c-0.107,0-0.184,0.089-0.194,0.193l-0.115,1.178c-0.814,0.146-1.582,0.432-2.275,0.828  l-0.844-0.828c-0.076-0.073-0.191-0.092-0.272-0.023l-1.471,1.234c-0.082,0.069-0.084,0.187-0.025,0.273l0.67,0.977  c-0.516,0.619-0.928,1.325-1.213,2.097l-1.177-0.091c-0.106-0.01-0.206,0.051-0.224,0.156l-0.334,1.891  c-0.019,0.104,0.056,0.196,0.156,0.225l1.141,0.317c0.002,0.837,0.151,1.64,0.418,2.386l-0.959,0.688  c-0.089,0.061-0.126,0.171-0.071,0.264l0.96,1.663c0.054,0.093,0.167,0.114,0.265,0.07l1.077-0.489  c0.523,0.618,1.151,1.146,1.854,1.557l-0.294,1.146c-0.027,0.103,0.016,0.212,0.115,0.249l1.805,0.656  c0.101,0.035,0.203-0.021,0.249-0.117l0.509-1.064c0.394,0.066,0.799,0.102,1.212,0.102c0.412,0,0.817-0.035,1.211-0.102l0.51,1.064  c0.046,0.097,0.148,0.152,0.247,0.117l1.806-0.656c0.1-0.037,0.142-0.146,0.115-0.249l-0.294-1.146  c0.703-0.41,1.329-0.938,1.853-1.557l1.078,0.489c0.096,0.044,0.211,0.022,0.265-0.07l0.706-1.223l21.899,4.027  c0.109,0.688,0.282,1.354,0.513,1.995l-1.5,1.073c-0.136,0.097-0.194,0.271-0.111,0.413l1.5,2.596  c0.081,0.145,0.261,0.18,0.414,0.111l1.681-0.766c0.818,0.967,1.796,1.791,2.895,2.432l-0.46,1.789  c-0.042,0.16,0.025,0.329,0.181,0.387l2.818,1.025c0.156,0.057,0.315-0.031,0.387-0.182l0.797-1.664  c0.614,0.105,1.245,0.16,1.89,0.16c0.644,0,1.277-0.055,1.891-0.16l0.795,1.664c0.072,0.15,0.231,0.238,0.388,0.182l2.817-1.025  c0.157-0.058,0.222-0.227,0.181-0.387l-0.46-1.789c1.1-0.641,2.077-1.465,2.895-2.432l1.682,0.766  c0.152,0.068,0.33,0.033,0.414-0.111l1.5-2.596c0.082-0.145,0.024-0.316-0.111-0.413l-1.502-1.073  c0.418-1.163,0.65-2.416,0.655-3.723l1.779-0.496c0.16-0.045,0.274-0.186,0.247-0.35l-0.523-2.951  c-0.027-0.164-0.184-0.26-0.35-0.246l-1.838,0.143c-0.444-1.203-1.087-2.307-1.893-3.273l1.043-1.523  c0.096-0.137,0.091-0.318-0.037-0.426l-2.296-1.928c-0.128-0.105-0.309-0.078-0.426,0.039l-1.317,1.291  c-1.084-0.621-2.28-1.066-3.554-1.294l-0.178-1.836c-0.017-0.165-0.137-0.303-0.303-0.303h-2.997c-0.167,0-0.288,0.138-0.303,0.303  L67.827,235.708L67.827,235.708z M0,246.125v-1.121l4.237-1.368c-0.028-0.019-0.051-0.043-0.068-0.074l-1.227-2.123  c-0.069-0.119-0.021-0.26,0.09-0.339l1.397-0.999c-0.208-0.633-0.342-1.299-0.388-1.99L0,240.294v-1.215l2.933-1.586l-0.563-0.154  c-0.131-0.038-0.226-0.154-0.202-0.289l0.426-2.415c0.023-0.134,0.15-0.21,0.286-0.2l1.712,0.133  c0.292-0.732,0.688-1.414,1.171-2.023l-0.973-1.418c-0.077-0.111-0.073-0.261,0.03-0.348l1.88-1.578  c0.103-0.086,0.25-0.063,0.348,0.031l1.226,1.203c0.68-0.367,1.418-0.64,2.197-0.801l0.167-1.709  c0.014-0.135,0.112-0.248,0.248-0.248h2.452c0.137,0,0.234,0.113,0.248,0.248l0.166,1.709c0.78,0.161,1.518,0.434,2.198,0.801  l1.227-1.203c0.096-0.095,0.245-0.117,0.349-0.031l1.878,1.578c0.103,0.087,0.107,0.236,0.03,0.348l-0.972,1.417  c0.483,0.61,0.879,1.292,1.17,2.024l1.712-0.133c0.136-0.01,0.263,0.066,0.287,0.2l0.426,2.415c0.023,0.135-0.069,0.251-0.201,0.289  L20.2,237.8c-0.023,0.801-0.164,1.573-0.404,2.301l1.397,0.999c0.11,0.079,0.158,0.22,0.09,0.339l-1.226,2.123  c-0.069,0.117-0.215,0.146-0.338,0.091l-1.565-0.712c-0.519,0.583-1.122,1.09-1.79,1.503l0.429,1.665  c0.035,0.131-0.02,0.27-0.148,0.316l-2.305,0.84c-0.128,0.045-0.258-0.025-0.316-0.148l-0.742-1.551  c-0.382,0.056-0.772,0.083-1.169,0.083c-0.396,0-0.788-0.028-1.17-0.085l-0.74,1.553c-0.06,0.123-0.19,0.193-0.318,0.148  l-2.305-0.84c-0.127-0.047-0.182-0.186-0.147-0.316l0.429-1.665c-0.289-0.179-0.566-0.376-0.83-0.589L0,246.125L0,246.125z   M9.442,243.078c0.808,0.391,1.714,0.61,2.67,0.61c3.386,0,6.129-2.743,6.129-6.129c0-3.385-2.744-6.13-6.129-6.13  c-2.733,0-5.048,1.79-5.838,4.261l3.338-1.804l0.015-0.007c0.708-0.481,1.564-0.761,2.485-0.761c1.226,0,2.337,0.496,3.14,1.301  c0.803,0.803,1.301,1.914,1.301,3.14c0,1.227-0.498,2.337-1.301,3.142c-0.562,0.561-1.272,0.972-2.068,1.17L9.442,243.078  L9.442,243.078z M10.386,241.654c-0.532-0.227-1.011-0.551-1.413-0.953c-0.805-0.805-1.301-1.915-1.301-3.142  c0-0.55,0.1-1.077,0.283-1.565l-1.951,1.056c-0.014,0.169-0.021,0.338-0.021,0.51c0,1.932,0.893,3.652,2.288,4.776L10.386,241.654  L10.386,241.654z M6.146,243.022l-0.073-0.082l-0.789,0.36L6.146,243.022L6.146,243.022z M9.799,235.246  c-0.591,0.592-0.958,1.41-0.958,2.313c0,0.905,0.366,1.722,0.958,2.313l0.001-0.002c0.591,0.594,1.408,0.959,2.312,0.959  c0.903,0,1.722-0.365,2.313-0.959c0.591-0.592,0.958-1.408,0.958-2.312s-0.366-1.72-0.958-2.313l-0.013-0.014  c-0.591-0.584-1.403-0.943-2.3-0.943C11.208,234.289,10.391,234.654,9.799,235.246L9.799,235.246z M36.44,243.253l-0.311-0.225  c0.267-0.744,0.415-1.547,0.418-2.384l1.14-0.317c0.102-0.028,0.176-0.12,0.156-0.225l-0.333-1.891  c-0.019-0.105-0.119-0.166-0.225-0.156l-1.177,0.091c-0.283-0.771-0.697-1.478-1.213-2.097l0.67-0.977  c0.06-0.087,0.058-0.204-0.024-0.272l-1.472-1.235c-0.081-0.068-0.197-0.05-0.272,0.023l-0.845,0.828  c-0.383-0.219-0.789-0.405-1.213-0.551l0.595-1.041c0.03-0.008,0.059-0.018,0.087-0.03l2.195-0.997  c0.729,0.818,1.574,1.529,2.51,2.105l-0.603,2.334c-0.047,0.186,0.028,0.381,0.208,0.445l3.23,1.176  c0.181,0.064,0.362-0.034,0.445-0.207l1.039-2.174c0.537,0.077,1.083,0.117,1.64,0.117c0.556,0,1.103-0.04,1.638-0.117l1.039,2.174  c0.082,0.173,0.266,0.271,0.445,0.207l3.23-1.176c0.18-0.064,0.256-0.262,0.207-0.445l-0.599-2.334  c0.935-0.578,1.78-1.287,2.508-2.105l2.195,0.997c0.173,0.079,0.378,0.038,0.473-0.128l1.721-2.976  c0.024-0.043,0.038-0.088,0.043-0.134l6.419,6.22l-2.17,1.821c-0.127,0.107-0.132,0.289-0.037,0.426l1.044,1.523  c-0.806,0.967-1.449,2.07-1.893,3.273l-1.839-0.143c-0.166-0.014-0.321,0.08-0.35,0.244l-0.521,2.953  c-0.029,0.164,0.085,0.305,0.245,0.35l1.779,0.496c0.002,0.207,0.007,0.414,0.019,0.621L36.44,243.253L36.44,243.253z   M66.743,248.826l-5.951-1.095c-0.04-0.347-0.061-0.698-0.061-1.056c0-3.428,1.901-6.413,4.708-7.957l4.352,4.215  c-2.059,0.008-3.727,1.682-3.727,3.742C66.064,247.475,66.315,248.216,66.743,248.826L66.743,248.826z M34.74,242.94l-3.602-0.663  c0.414-0.432,0.669-1.016,0.669-1.662c0-1.324-1.074-2.397-2.398-2.397c-0.052,0-0.103,0.001-0.151,0.005l1.813-3.18  c2.401,0.715,4.151,2.939,4.151,5.572C35.223,241.441,35.05,242.228,34.74,242.94L34.74,242.94z M29.187,243.002l5.005,0.921  c-1.051,1.514-2.801,2.506-4.782,2.506c-3.211,0-5.813-2.604-5.813-5.814s2.603-5.813,5.813-5.813c0.187,0,0.373,0.01,0.555,0.026  l-2.501,4.387c-0.283,0.395-0.452,0.878-0.452,1.4C27.012,241.865,27.967,242.89,29.187,243.002L29.187,243.002z M60.994,248.852  l7.873,1.448c0.3,0.078,0.616,0.119,0.941,0.119c2.068,0,3.743-1.676,3.743-3.744c0-1.072-0.451-2.037-1.172-2.721l-0.021-0.02  l-5.886-5.702c1.032-0.407,2.158-0.634,3.336-0.634c5.013,0,9.076,4.064,9.076,9.076c0,5.013-4.063,9.077-9.076,9.078  C65.544,255.752,61.969,252.814,60.994,248.852L60.994,248.852z M35.231,227.746l1.655-2.902c0.14,1.482,0.8,2.816,1.796,3.814  c1.127,1.125,2.684,1.822,4.403,1.822c1.718,0,3.275-0.697,4.403-1.822c1.126-1.127,1.822-2.684,1.822-4.404  c0-0.441-0.047-0.872-0.134-1.288l2.435,2.358c-0.527,4.24-4.143,7.523-8.526,7.523C39.584,232.847,36.571,230.75,35.231,227.746  L35.231,227.746z M37.282,221.999l-2.516,4.411c-0.179-0.688-0.273-1.41-0.273-2.156c0-4.745,3.847-8.592,8.593-8.592  c4.625,0,8.396,3.654,8.585,8.233l-4.326-4.19c-0.023-0.021-0.047-0.042-0.073-0.061c-1.106-1.004-2.575-1.616-4.186-1.616  c-1.72,0-3.276,0.696-4.403,1.823C38.079,220.456,37.597,221.185,37.282,221.999L37.282,221.999z M53.933,227.572l1.187,1.148  l-1.265-0.903C53.881,227.736,53.908,227.654,53.933,227.572L53.933,227.572z M39.561,220.73c0.902-0.904,2.149-1.461,3.526-1.461  c1.376,0,2.624,0.557,3.524,1.461c0.903,0.9,1.46,2.147,1.46,3.523c0,1.377-0.558,2.624-1.46,3.525  c-0.9,0.903-2.148,1.461-3.524,1.461c-1.377,0-2.624-0.558-3.526-1.461c-0.902-0.901-1.462-2.148-1.462-3.525  C38.099,222.877,38.659,221.63,39.561,220.73z"/>
<path fill-rule="evenodd" clip-rule="evenodd" fill="#72B2C1" d="M70.411,312.66c2.673-0.094,2.778,2.658,0.102,3.374  c-2.668,0.717-3.988-1.741-1.563-2.991l-3.141-11.724c-3.096-0.281-2.248-5.082,0.765-4.274c1.79,0.479,2.186,2.828,0.694,3.883  L70.411,312.66z"/>
<path fill-rule="evenodd" clip-rule="evenodd" fill="#FFC500" d="M68.796,263.726l-1.175,13.262l-4.316,0.805l2.847,21.699  l-9.266-23.098l4.177-3.609l-3.149-12.838c0.235-0.082,0.458-0.191,0.662-0.324C61.35,262.009,64.9,263.52,68.796,263.726z"/>
<path fill-rule="evenodd" clip-rule="evenodd" fill="#72B2C1" d="M1043.732,262.692c-2.361-0.085-2.455,2.349-0.089,2.983  c2.359,0.631,3.526-1.539,1.382-2.645l3.008-11.227c2.736-0.25,1.987-4.494-0.675-3.781c-1.583,0.424-1.933,2.502-0.613,3.435  L1043.732,262.692z"/>
<path fill-rule="evenodd" clip-rule="evenodd" fill="#72B2C1" d="M227.967,116.132c1.082-0.038,1.124,1.076,0.041,1.366  c-1.08,0.29-1.614-0.705-0.632-1.211l-1.376-5.138c-1.253-0.114-0.911-2.057,0.308-1.73c0.725,0.193,0.886,1.145,0.281,1.572  L227.967,116.132z"/>
<path fill-rule="evenodd" clip-rule="evenodd" fill="#72B2C1" d="M977.621,354.222c2.672-0.095,2.776,2.657,0.103,3.375  c-2.669,0.715-3.99-1.742-1.563-2.992l-2.612-9.744c-3.096-0.283-2.248-5.082,0.764-4.275c1.791,0.479,2.188,2.83,0.695,3.883  L977.621,354.222z"/>
<path fill-rule="evenodd" clip-rule="evenodd" fill="#FFC500" d="M972.391,299.908l-7.641,17.701l6.507,1.1l-0.841,7.816l4.53,3.699  l-1.281,12.658l6.219-16.087l-3.227-2.14l5.316-9.316l-5.569-1.301c3.286-5.689,6.488-10.549,9.789-16.266  c-3.439,1.721-7.196,2.441-10.894,2.361C974.325,300.113,973.353,300.036,972.391,299.908z"/>
<path fill-rule="evenodd" clip-rule="evenodd" fill="#72B2C1" d="M57.56,427.779c-2.361,1.255-1.078,3.689,1.599,2.975  c2.667-0.715,2.583-3.504-0.142-3.373l-5.97-22.281c2.542-1.791-0.594-5.525-2.799-3.32c-1.311,1.312-0.479,3.545,1.341,3.711  l2.111,7.879L57.56,427.779z"/>
<path fill-rule="evenodd" clip-rule="evenodd" fill="#FFC500" d="M53.624,351.527l-8.208,24.428l8.881,1.504l-2.786,25.91  l17.413-30.509l-7.601-1.776l10.816-15.124l3.883-5.423c-1.622-0.334-2.53-0.789-3.557-1.924  C68.277,353.851,59.782,354.185,53.624,351.527z"/>
<path fill-rule="evenodd" clip-rule="evenodd" fill="#72B2C1" d="M860.425,464.033l2.714-10.122  c-2.541-1.792,0.592-5.526,2.797-3.321c1.311,1.311,0.479,3.545-1.34,3.711l-2.606,9.732H860.425z"/>
<path fill-rule="evenodd" clip-rule="evenodd" fill="#FFC500" d="M867.035,387.421l2.346,31.805l-9.992-0.219l5.089,33.121  l-17.73-42.227l9.695,0.313l-5.387-14.351C857.628,395.679,863.425,392.394,867.035,387.421z"/>
<path fill-rule="evenodd" clip-rule="evenodd" fill="#72B2C1" d="M213.191,275.263c2.635-0.094,2.738,2.621,0.1,3.327  c-2.632,0.706-3.934-1.718-1.542-2.95l-3.097-11.563c-3.055-0.277-2.218-5.012,0.752-4.215c1.766,0.471,2.158,2.789,0.686,3.828  L213.191,275.263z"/>
<path fill-rule="evenodd" clip-rule="evenodd" fill="#72B2C1" d="M415.072,446.107c2.361,1.254,1.076,3.689-1.599,2.973  c-2.668-0.715-2.583-3.502,0.142-3.372l4.674-17.439c-2.543-1.792,0.592-5.525,2.797-3.321c1.312,1.312,0.48,3.545-1.339,3.712  L415.072,446.107z"/>
<path fill-rule="evenodd" clip-rule="evenodd" fill="#72B2C1" d="M74.66,226.184c-2.298-0.082-2.39,2.286-0.088,2.901  c2.295,0.617,3.431-1.498,1.345-2.572l2.701-10.084c2.665-0.242,1.934-4.371-0.656-3.678c-1.541,0.412-1.882,2.434-0.599,3.34  L74.66,226.184z"/>
<path fill-rule="evenodd" clip-rule="evenodd" fill="#D7E0E1" d="M982.422,143.931c-0.664-0.002-1.323,0.037-1.973,0.104  c-1.459-23.326-30.431-33.83-47.018-15.432c2.403,1.5,4.849,4.13,5.333,6.494c-11.42-11.485-32.734-4.854-32.74,12.859  c-34.939,0.011-34.935,53.064-0.004,53.065c6.719-0.001,14.174,0.069,20.889,0.069c-1.173-1.438-1.899-6.658-1.515-8.389  c6.917,21.795,35.933,24.472,47.362,8.326c18.968-0.004,47.012,4.712,47.012-18.682c0.004-13.947-15.523-23.903-27.377-15.67  c0.66-1.762,4.193-5.453,8.588-6.132C999.955,151.205,992.031,143.929,982.422,143.931z"/>
<path opacity="0.5" fill-rule="evenodd" clip-rule="evenodd" fill="#007E9C" d="M905.136,163.087  c-1.312,0.236-2.547,0.695-3.664,1.335c-2.01-1.972-1.053-1.993-4.162,0.617c-0.355,0.297,0.517,1.249,1.037,2.009  c-0.829,0.996-1.494,2.134-1.952,3.373c-2.799-0.218-2.088-0.852-2.791,3.148c-0.081,0.456,1.199,0.625,2.087,0.872  c0.005,1.347,0.243,2.639,0.673,3.839c-2.286,1.636-2.146,0.689-0.114,4.207c0.231,0.4,1.321-0.293,2.16-0.674  c0.842,0.994,1.85,1.845,2.983,2.506c-0.702,2.725-1.203,1.91,2.615,3.299c0.435,0.158,0.823-1.073,1.22-1.902h3.896  c1.216,2.539,0.308,2.234,4.125,0.845c0.436-0.157-0.06-1.351-0.289-2.241c1.133-0.661,2.143-1.511,2.986-2.506  c2.408,1.096,1.825,1.248,2.873-0.566l15.807,4.01c0.148,0.962,0.378,1.897,0.679,2.8c-1.31,0.97-2.71,1.646-2.326,2.31l2.609,4.521  c0.383,0.663,1.671-0.211,3.169-0.863c1.123,1.268,2.431,2.367,3.878,3.26c-0.38,1.584-1.017,3.005-0.297,3.268l4.905,1.785  c0.721,0.262,1.144-1.234,1.872-2.695h5.068c0.727,1.459,1.152,2.957,1.87,2.695l4.906-1.785c0.72-0.262,0.084-1.681-0.298-3.268  c1.45-0.891,2.758-1.992,3.881-3.26c1.496,0.652,2.784,1.525,3.167,0.863l2.611-4.521c0.383-0.663-1.015-1.339-2.327-2.31  c0.32-0.96,0.558-1.954,0.704-2.979l23.198,0.597l1.178,2.085c0.169,0.295,1.016-0.232,1.601-0.5  c0.627,0.738,1.375,1.369,2.218,1.861c-0.52,2.014-0.892,1.419,1.941,2.448c0.319,0.116,0.626-0.83,0.905-1.413h2.895  c0.896,1.881,0.231,1.658,3.063,0.629c0.317-0.116-0.055-1.039-0.216-1.664c0.841-0.492,1.589-1.122,2.215-1.861  c1.897,0.862,1.246,1.123,2.75-1.486c0.17-0.293-0.707-0.762-1.233-1.137c0.321-0.891,0.498-1.85,0.501-2.85  c2.009-0.56,1.674,0.061,1.151-2.906c-0.059-0.335-1.031-0.129-1.674-0.078c-0.34-0.922-0.833-1.766-1.449-2.506  c1.18-1.719,1.32-1.029-0.986-2.967c-0.261-0.218-0.873,0.564-1.334,1.018c-0.829-0.475-1.746-0.814-2.719-0.99  c-0.202-2.072,0.35-1.637-2.663-1.637c-0.34,0-0.306,0.994-0.368,1.637c-0.975,0.176-1.89,0.516-2.719,0.99  c-1.488-1.459-0.785-1.477-3.092,0.459c-0.262,0.218,0.407,0.959,0.77,1.49c-0.433,0.521-0.806,1.094-1.107,1.709l-22.108,1.201  c-0.666-3.777,0.088-3.167-3.735-2.933c-0.631-1.591-1.488-3.069-2.539-4.388c0.9-1.359,1.986-2.477,1.4-2.969l-4.001-3.357  c-0.586-0.49-1.496,0.77-2.679,1.893c-0.128-0.068-0.253-0.135-0.381-0.199l0.575-9.346c0.95-0.477,1.839-1.066,2.649-1.752  c1.137,0.722,2.568,1.938,2.955,1.444l2.479-3.174c0.386-0.493-1.14-1.586-2.113-2.513c0.557-1.128,0.961-2.354,1.182-3.653  c1.336-0.177,3.214-0.166,3.191-0.793l-0.141-4.024c-0.021-0.627-1.893-0.483-3.235-0.567c-0.307-1.26-0.797-2.457-1.441-3.558  c0.909-0.993,2.356-2.192,1.935-2.658l-2.694-2.993c-0.42-0.465-1.761,0.847-2.842,1.646c-1.023-0.751-2.162-1.363-3.393-1.801  c0.058-1.343,0.396-3.192-0.226-3.279l-3.987-0.56c-0.622-0.087-0.807,1.782-1.122,3.088c-1.302,0.083-2.565,0.357-3.756,0.799  c-0.82-1.068-1.747-2.698-2.278-2.365l-3.417,2.133c-0.531,0.333,0.529,1.884,1.129,3.089c-0.924,0.881-1.723,1.898-2.365,3.024  c-1.314-0.29-3.074-0.943-3.267-0.347l-1.244,3.83c-0.193,0.598,1.616,1.104,2.849,1.642c-0.086,0.784-0.103,1.562-0.054,2.324  l-25.106,17.055c-1.564-1.313-0.978-1.371-2.861,0.478c-1.116-0.64-2.352-1.099-3.662-1.335c-0.273-2.799,0.476-2.203-3.586-2.203  C905.168,160.884,905.224,162.174,905.136,163.087L905.136,163.087z M968.821,183.98c0.025-0.303,0.04-0.607,0.049-0.916  c3.523-1.041,3.138-0.482,2.736-2.764l19.841-1.078c-0.453,2.564-0.771,2.013,1.211,2.564c0.005,0.988,0.176,1.938,0.491,2.818  L968.821,183.98L968.821,183.98z M998.288,184.739l-3.415-0.089c-0.813-1.766-0.845-3.816-0.084-5.609l3.409-0.186  C996.598,180.505,996.64,183.138,998.288,184.739L998.288,184.739z M964.494,183.869l-4.665-0.12  c0.047-0.315,0.075-0.636,0.083-0.96c2.315-0.645,1.997-0.209,1.691-1.945l2.812-0.153L964.494,183.869L964.494,183.869z   M957.167,183.679l-3.641-0.094c0.425-0.71,0.413-1.604-0.031-2.301l3.597-0.195L957.167,183.679L957.167,183.679z M951.807,184.642  l5.017,0.129c-2.402,5.569-10.806,3.871-10.806-2.229c0-5.918,8.011-7.787,10.662-2.535l-5.03,0.265  C948.674,180.272,948.824,184.847,951.807,184.642L951.807,184.642z M959.591,184.842l4.747,0.122  c-1.108,5.998-6.369,10.543-12.688,10.543c-5.787,0-10.685-3.811-12.322-9.057l3.418,0.866c1.107,1.915,0.5,1.739,2.732,0.726  c0.53,0.596,1.146,1.113,1.828,1.535c-0.636,2.469-1.055,1.742,2.067,2.883c0.363,0.131,0.737-1.016,1.081-1.736h2.39  c1.1,2.298,0.313,2.014,3.436,0.879c0.364-0.132-0.089-1.254-0.285-2.025c0.681-0.422,1.296-0.939,1.827-1.535  c2.315,1.053,1.536,1.344,3.198-1.536c0.193-0.335-0.87-0.901-1.521-1.366C959.532,185.042,959.563,184.941,959.591,184.842  L959.591,184.842z M995.52,185.767l5.692,0.146c5.238-0.018,5.678-8.021,0.063-8.324l-5.872,0.314  c3.786-5.68,12.73-3.018,12.73,3.848C1008.133,188.515,999.407,191.248,995.52,185.767L995.52,185.767z M964.204,179.599  l-2.794,0.152c-0.105-0.596-0.246-0.407-2.079-0.266c-0.15-0.381-0.331-0.748-0.535-1.102l0.131-2.117  c0.097-0.283,0.512-0.369,0.047-0.76l0.207-3.389C961.656,173.901,963.475,176.54,964.204,179.599L964.204,179.599z   M919.393,180.255c0.495-0.855,0.572-0.563-1.405-1.975c0.433-1.2,0.67-2.492,0.675-3.839c2.714-0.755,2.257,0.085,1.551-3.915  c-0.081-0.455-1.34-0.178-2.255-0.105c-0.457-1.239-1.122-2.379-1.952-3.373c1.39-2.025,1.409-1.699,0.61-2.369l21.693-14.737  l1.508,4.028c0.234,0.582,1.947-0.194,3.238-0.575c0.711,1.066,1.576,2.029,2.568,2.853c-0.515,1.244-1.464,2.864-0.909,3.158  l3.555,1.891c0.553,0.295,1.366-1.399,2.109-2.52l3.802,0.534c0.406,1.282,0.722,3.135,1.334,3.004l3.206-0.683l-0.315,5.116  c-1.053-0.449-2.158-0.798-3.31-1.031c-0.183-1.621-0.07-3.17-0.837-3.17h-5.221c-0.766,0-0.651,1.549-0.836,3.17  c-1.691,0.344-3.292,0.935-4.764,1.734c-1.184-1.123-2.092-2.383-2.678-1.893l-4.001,3.357c-0.588,0.492,0.497,1.608,1.399,2.969  c-1.05,1.318-1.909,2.795-2.538,4.388c-1.626-0.099-3.134-0.479-3.268,0.272l-0.907,5.143c-0.133,0.756,1.416,0.912,2.981,1.375  c0.009,0.342,0.028,0.683,0.058,1.02L919.393,180.255L919.393,180.255z M942.45,186.105l-3.438-0.873  c-2.278-11.002,9.585-19.328,19.106-13.801l-0.197,3.195c-1.137-0.955-0.665-1.018-2.352,0.637c-0.695-0.375-1.45-0.653-2.245-0.818  c-0.246-2.529,0.395-2-2.929-2c-0.386,0-0.346,1.206-0.423,2c-0.797,0.165-1.551,0.443-2.246,0.818  c-1.803-1.77-0.984-1.797-3.529,0.35c-0.294,0.25,0.512,1.148,0.963,1.805c-0.491,0.623-0.897,1.32-1.194,2.068  c-2.532-0.196-1.904-0.737-2.479,2.537c-0.066,0.381,1.13,0.551,1.898,0.766c0.024,0.818,0.167,1.609,0.413,2.354L942.45,186.105  L942.45,186.105z M915.209,179.195l-5.998-1.522c2.983-1.854,2.123-6.422-1.315-7.069l5.147-3.496  C916.671,170.031,917.607,175.187,915.209,179.195L915.209,179.195z M906.992,178.249l7.55,1.915  c-5.443,6.944-16.722,3.121-16.722-5.77c0-7.373,8.11-11.765,14.264-7.965l-6.68,4.537  C901.659,173.197,903.395,178.082,906.992,178.249L906.992,178.249z M950.22,140.523l-7.186,4.882  c0.086-1.543,0.497-3.061,1.199-4.438c1.162-2.277,3.116-4.102,5.452-5.117c4.964-2.155,10.683-0.444,13.724,4.127  c1.467,2.207,2.054,4.969,1.684,7.588c-0.448,3.174-2.225,5.966-4.878,7.717l0.553-9.448c-0.01-1.457-0.501-2.83-1.338-3.941  C957.249,139.001,953.151,138.391,950.22,140.523L950.22,140.523z M939.066,149.431l1.92-1.306c0.015,0.093,0.03,0.185,0.047,0.277  L939.066,149.431L939.066,149.431z M943.037,146.732l4.945-3.359c-2.932,7.162,6.821,12.688,11.461,6.499l-0.373,6.074  c-2.015,1.006-4.269,1.376-6.503,1.063C947.327,156.272,943.365,151.94,943.037,146.732L943.037,146.732z M954.432,143.727  c2.849,0.401,2.241,4.728-0.607,4.328C950.976,147.655,951.583,143.328,954.432,143.727L954.432,143.727z M950.841,141.53  c3.874-2.921,9.369,0.317,8.695,5.122c-0.675,4.801-6.847,6.404-9.77,2.527C947.952,146.77,948.432,143.345,950.841,141.53z"/>
<path fill-rule="evenodd" clip-rule="evenodd" fill="#72B2C1" d="M988.448,151.417c-3.271-1.002-4.312,2.365-1.243,4.136  c3.06,1.768,5.505-0.831,2.922-3.179l11.55-20.004c3.92,0.677,4.463-5.538,0.472-5.538c-2.37,0-3.64,2.773-2.145,4.57  L988.448,151.417z"/>
<path fill-rule="evenodd" clip-rule="evenodd" fill="#72B2C1" d="M1058.614,414.63c-4.279,2.271-1.952,6.684,2.895,5.386  c4.833-1.294,4.679-6.345-0.257-6.108l-5.69-21.233c4.604-3.243-1.075-10.006-5.068-6.013c-2.374,2.373-0.868,6.419,2.427,6.72  L1058.614,414.63z"/>
<path fill-rule="evenodd" clip-rule="evenodd" fill="#BBD4DA" d="M111.279,294.566c-3.111,0.984-5.366,3.895-5.366,7.332  c0,0.217,0.01,0.415,0.029,0.602c1.436,0.798,2.756,1.771,3.934,2.885c1.727,0.471,3.784,1.332,5.678,4.202h25.748  c4.801,0,8.691-3.892,8.691-8.692c0-4.467-3.372-8.148-7.709-8.637c-1.123-4.758-6.263-7.384-10.773-5.521  c-1.854-3.399-5.46-5.704-9.605-5.704C114.787,281.033,109.608,287.708,111.279,294.566z"/>
<path fill-rule="evenodd" clip-rule="evenodd" fill="#72B2C1" d="M135.191,287.373c-1.342-0.047-1.396,1.334-0.052,1.694  c1.341,0.359,2.004-0.874,0.786-1.503l1.577-5.887c1.556-0.141,1.129-2.553-0.383-2.146c-0.9,0.24-1.099,1.421-0.349,1.949  L135.191,287.373z"/>
</svg>