<?xml version="1.0" encoding="UTF-8"?>
<!-- Generator: Adobe Illustrator 19.2.1, SVG Export Plug-In . SVG Version: 6.00 Build 0)  -->
<svg version="1.1" id="Layer_1" xmlns="http://www.w3.org/2000/svg" xmlns:xlink="http://www.w3.org/1999/xlink" x="0px" y="0px" viewBox="0 0 1278.658 236.388" enable-background="new 0 0 1278.658 236.388" xml:space="preserve">
<path opacity="0.1" fill-rule="evenodd" clip-rule="evenodd" d="M998.656,126.053c-8.199,2.595-14.143,10.264-14.143,19.321  c0,10.798,8.446,19.622,19.092,20.229c-4.581,5.577-6.986,12.817-6.35,20.423c9.405-5.211,23.005-4.944,32.091,2.205  c-9.284-3.219-22.142-2.31-29.148,1.988c3.568,2.029,5.661,5.199,6.128,7.708c-21.191-16.775-61.79-6.378-68.588,27.193  c2.635-0.11,5.109,0.533,6.469,2.009c0.1,0.109,0.153,0.222,0.167,0.341c-3.886-0.356-7.716,0.292-11.16,1.813  c-2.698-9.162-11.171-15.85-21.206-15.85c-4.827,0-10.41,1.489-13.371,5.578c0.082-2.335,2.532-5.239,3.804-5.912  c-6.512-11.482-19.328-18.648-32.883-18.648c-10.872,0-20.253,4.113-27.371,12.236c-0.015-2.337,2.703-7.197,6.465-9.621  c-1.549-9.224-8.811-16.512-18.024-18.095c-5.792-0.996-15.426-0.034-18.987,4.567c-13.196-14.43-43.52-13.635-55.209,2.939  c-15.285-0.922-30.534,6.602-38.032,20.316c-18.717-44.434-86.347-59.011-114.191-7.168c2.311,1.256,7.197,5.487,7.189,11.135  c-3.699-5.871-9.602-9.256-15.431-11.134c-13.161-4.236-26.996-0.234-35.938,9.144c-1.057-12.102-9.191-22.978-21.48-26.934  c-16.161-5.203-33.465,3.508-38.964,19.49c-11.605-12.319-32.682-6.961-36.602,9.928c7.984-1.574,17.724,1.773,22.613,9.032  c-5.943-4.473-15.42-6.8-21.466-5.329c2.102,2.29,2.874,5.06,2.629,6.976c-3.894-5.819-10.082-9.507-15.468-11.24  c-12.254-3.944-25.311-1.319-34.227,7.142c-10.692-2.046-21.694-0.761-31.464,3.554c-6.367-21.618-26.357-37.402-50.039-37.402  c-11.391,0-24.566,3.517-31.554,13.163c0.194-5.51,5.975-12.362,8.978-13.95c-15.367-27.096-45.608-44.002-77.594-44.002  c-25.656,0-47.79,9.705-64.588,28.87c-0.036-5.514,6.381-16.98,15.256-22.7c-4.83-28.761-32.615-48.242-61.684-42.445  c-4.396-11.092-10.518-21.313-18.033-30.333h52.149c10.796,0,19.547-8.752,19.547-19.548c0-8.737-5.733-16.135-13.642-18.638  C168.642,16.971,155.478,0,137.383,0c-13.474,0-26.049,9.61-26.27,23.662c-0.536-0.161-2.393-6.001-1.674-10.254  c-10.487-2.232-21.3,4.258-23.862,15.131c-8.346,0.937-15.283,6.524-18.165,14.109c-10.305-4.779-21.46-8.038-33.177-9.479  c-12.048-1.483-22.189-1.199-34.234,1.029v74.699c19.383-1.188,39.828,9.461,47.278,30.302  c-11.064-13.386-29.496-20.238-47.278-19.962V233.47H0v2.918h654.626h16.949h53.345h553.738v-2.637V178.2  c-19.56-4.497-41.17,0.159-55.681,14.025c2.51-5.186,5.767-9.532,9.546-13.087c-13.244-10.129-34.675-11.767-48.524-1.915  c12.693-18.35,40.093-17.109,51.627-0.738c12.182-9.468,28.574-11.85,43.033-8.464V53.794c-9.727-4.434-20.539-6.908-31.927-6.908  c-38.281,0-72.921,28.623-76.598,67.349c3.414,0.644,11.27,3.988,13.547,11.092c-7.029-5.887-15.821-7.753-23.911-7.753  c-18.264,0-34.041,10.632-41.49,26.044c-6.29-14.937-21.119-25.344-38.34-25.167c-3.702-11.664-16.64-17.708-27.968-13.03  c-4.889-8.956-14.392-15.034-25.315-15.034C1007.9,90.388,994.253,107.982,998.656,126.053L998.656,126.053z M42.394,188.772  c15.141-21.325,44.65-24.32,65.761-11.675c12.353-6.193,27.782-6.526,38.963,2.271c-10.281-2.096-21.303-0.744-31.273,3.382  c5.8,5.192,10.496,11.876,13.39,19.972c-6.269-7.586-12.775-13.148-19.284-17.141l-0.145,0.08c-0.041-0.081-0.081-0.163-0.123-0.244  C79.93,167.374,50.145,182.225,42.394,188.772z"/>
</svg>