<?xml version="1.0" encoding="utf-8"?>
<!-- Generator: Adobe Illustrator 19.2.1, SVG Export Plug-In . SVG Version: 6.00 Build 0)  -->
<svg version="1.1" id="Layer_1" xmlns="http://www.w3.org/2000/svg" xmlns:xlink="http://www.w3.org/1999/xlink" x="0px" y="0px"
	 viewBox="0 0 275.985 275.985" enable-background="new 0 0 275.985 275.985" xml:space="preserve">
<g>
	<path fill-rule="evenodd" clip-rule="evenodd" fill="#7DE6FF" d="M137.994,271.139c73.335,0,133.147-59.811,133.147-133.146
		S211.329,4.847,137.994,4.847S4.847,64.658,4.847,137.993S64.659,271.139,137.994,271.139z"/>
	<path fill-rule="evenodd" clip-rule="evenodd" fill="#2D1B1F" d="M137.993,0c38.103,0,72.604,15.447,97.575,40.417
		s40.417,59.471,40.417,97.575c0,38.105-15.447,72.605-40.417,97.575s-59.471,40.417-97.575,40.417
		c-38.104,0-72.605-15.447-97.575-40.417S0,176.097,0,137.992c0-38.103,15.447-72.604,40.417-97.575S99.888,0,137.993,0L137.993,0z
		 M228.715,47.271C205.498,24.055,173.42,9.693,137.993,9.693c-35.43,0-67.505,14.362-90.721,37.578S9.693,102.564,9.693,137.992
		c0,35.43,14.362,67.506,37.578,90.722c23.216,23.217,55.292,37.577,90.721,37.577c35.428,0,67.506-14.361,90.722-37.577
		c23.216-23.216,37.577-55.292,37.577-90.722C266.292,102.564,251.931,70.487,228.715,47.271z"/>
	<rect x="71.227" y="71.229" fill-rule="evenodd" clip-rule="evenodd" fill="#E6E6E6" width="133.528" height="133.529"/>
	<path fill-rule="evenodd" clip-rule="evenodd" fill="#2D1B1F" d="M71.228,68.555h133.528c1.476,0,2.674,1.198,2.674,2.674v133.529
		c0,1.476-1.198,2.674-2.674,2.674H71.228c-1.476,0-2.675-1.197-2.675-2.674V71.229C68.553,69.753,69.752,68.555,71.228,68.555
		L71.228,68.555z M202.082,73.903H73.902v128.181h128.18V73.903z"/>
	<path fill-rule="evenodd" clip-rule="evenodd" fill="#2D1B1F" d="M84.604,91.29c-1.476,0-2.674-1.198-2.674-2.674
		c0-1.476,1.197-2.674,2.674-2.674H191.38c1.476,0,2.674,1.198,2.674,2.674c0,1.476-1.198,2.674-2.674,2.674H84.604z"/>
	<path fill-rule="evenodd" clip-rule="evenodd" fill="#2D1B1F" d="M84.604,107.75c-1.476,0-2.674-1.199-2.674-2.674
		c0-1.476,1.197-2.674,2.674-2.674h75.201c1.476,0,2.674,1.198,2.674,2.674c0,1.475-1.197,2.674-2.674,2.674H84.604z"/>
	<path fill-rule="evenodd" clip-rule="evenodd" fill="#2D1B1F" d="M84.604,124.207c-1.476,0-2.674-1.199-2.674-2.674
		c0-1.476,1.197-2.674,2.674-2.674H191.38c1.476,0,2.674,1.198,2.674,2.674c0,1.475-1.198,2.674-2.674,2.674H84.604z"/>
	<path fill-rule="evenodd" clip-rule="evenodd" fill="#2D1B1F" d="M84.604,140.666c-1.476,0-2.674-1.198-2.674-2.674
		c0-1.476,1.197-2.674,2.674-2.674h53.389c1.476,0,2.674,1.198,2.674,2.674c0,1.476-1.198,2.674-2.674,2.674H84.604z"/>
	<g>
		<path fill-rule="evenodd" clip-rule="evenodd" fill="#DBB55A" d="M163.619,98.842c0,0-12.645-39.196,24.205-67.502l6.788,12.676
			l5.38-20.556c16.309-8.921,39.274-15.952,71.529-18.996c-5.856,6.621-8.301,16.377-10.416,27.485l-15.079,3.52l10.889,8.039
			c-8.384,17.122-20.16,30.92-30.851,40.11l-26.959-2.878l17.853,12.122C204.657,103.535,184.228,102.535,163.619,98.842z"/>
		<path fill-rule="evenodd" clip-rule="evenodd" fill="#716358" d="M163.619,98.842c0,0-10.992-34.089,17.415-61.645l12.458,24.357
			l16.62-10.654l39.035,6.221c-7.144,10.897-15.395,19.888-23.082,26.497l-26.958-2.877l17.853,12.12
			C204.657,103.535,184.227,102.535,163.619,98.842z"/>
		<g>
			<path fill-rule="evenodd" clip-rule="evenodd" fill="#2D1B1F" d="M161.053,99.554c-0.524-1.689-12.422-41.474,25.152-70.335
				c1.17-0.893,2.846-0.668,3.739,0.501c0.12,0.158,0.221,0.325,0.301,0.499l3.508,6.55l3.659-13.978
				c0.195-0.753,0.695-1.347,1.333-1.686c8.315-4.546,18.318-8.608,30.333-11.916c11.953-3.292,25.909-5.841,42.191-7.378
				c1.464-0.137,2.766,0.938,2.904,2.402c0.073,0.781-0.197,1.515-0.689,2.052c-2.657,3.017-4.563,6.802-6.058,11.125
				c-1.545,4.479-2.662,9.591-3.699,15.049c-0.2,1.073-1.016,1.874-2.017,2.107v0.003l-9.452,2.206l6.245,4.611
				c1.089,0.809,1.385,2.292,0.737,3.444c-3.979,8.103-8.696,15.47-13.69,21.965c-5.766,7.493-11.918,13.855-17.754,18.869
				c-0.579,0.496-1.311,0.701-2.016,0.626l-16.366-1.746l9.036,6.133c1.216,0.824,1.534,2.48,0.71,3.697
				c-0.134,0.197-0.289,0.371-0.462,0.521l0.004,0.003c-6.641,5.762-15.357,8.367-25.122,9.025
				c-9.453,0.637-19.931-0.557-30.433-2.44C162.107,101.277,161.317,100.51,161.053,99.554L161.053,99.554z M186.992,35.43
				c-28.371,23.656-23.011,53.942-21.251,61.08c9.545,1.642,18.989,2.639,27.485,2.067c7.306-0.493,13.886-2.157,19.162-5.602
				l-14.63-9.932c-0.875-0.515-1.418-1.509-1.304-2.584c0.155-1.464,1.47-2.525,2.935-2.37l25.804,2.754
				c5.324-4.678,10.895-10.51,16.14-17.327c4.413-5.741,8.595-12.173,12.197-19.194l-8.98-6.63
				c-0.547-0.364-0.963-0.928-1.123-1.618c-0.334-1.436,0.559-2.872,1.995-3.207l13.395-3.127c0.984-5.008,2.079-9.746,3.576-14.084
				c0.984-2.846,2.138-5.505,3.544-7.934c-13.493,1.531-25.239,3.791-35.46,6.606c-11.109,3.059-20.414,6.777-28.197,10.926
				l-5.088,19.43h-0.001c-0.181,0.695-0.642,1.317-1.325,1.683c-1.296,0.692-2.912,0.2-3.604-1.097L186.992,35.43L186.992,35.43z
				 M259.242,44.81l-0.184,0.285C259.126,45.003,259.188,44.907,259.242,44.81z"/>
		</g>
		<path fill-rule="evenodd" clip-rule="evenodd" fill="#E6E6E6" d="M137.993,137.992c0,0,35.957-73.6,104.957-117.076
			c-30.727,23.747-55.618,54.849-71.931,78.916c-8.056,11.888-14.024,22.061-17.565,28.784
			C145.063,129.488,142.374,133.696,137.993,137.992z"/>
		<path fill-rule="evenodd" clip-rule="evenodd" fill="#2D1B1F" d="M135.601,136.812c0.106-0.214,36.288-74.273,105.929-118.152
			c1.245-0.784,2.893-0.41,3.678,0.836c0.75,1.191,0.441,2.75-0.677,3.569c-13.46,10.408-25.812,22.268-36.803,34.327
			c-13.85,15.194-25.506,30.656-34.505,43.933c-3.61,5.326-6.838,10.379-9.63,14.953c-3.261,5.343-5.873,9.966-7.779,13.582
			c-0.445,0.846-1.284,1.354-2.172,1.418c-6.074,0.652-8.764,3.448-11.812,6.612c-0.612,0.637-1.242,1.291-1.968,2.003
			c-1.049,1.032-2.738,1.017-3.77-0.032c-0.817-0.83-0.976-2.06-0.489-3.05H135.601L135.601,136.812z M194.891,63.92
			c-23.733,24.601-39.853,49.457-48.09,63.548c1.42-0.576,3.04-1.028,4.944-1.32c1.871-3.482,4.315-7.766,7.294-12.648
			c2.762-4.523,6.026-9.626,9.777-15.161C175.964,87.795,184.734,75.92,194.891,63.92z"/>
		<path fill-rule="evenodd" clip-rule="evenodd" fill="#2D1B1F" d="M217.39,71.96c-1.458-0.184-2.493-1.519-2.309-2.977
			c0.185-1.458,1.519-2.493,2.977-2.309l20.18,2.554c1.459,0.184,2.494,1.519,2.309,2.977c-0.184,1.458-1.519,2.493-2.977,2.309
			L217.39,71.96z"/>
		<path fill-rule="evenodd" clip-rule="evenodd" fill="#2D1B1F" d="M216.21,28.483c-0.304,1.441-1.723,2.362-3.165,2.058
			c-1.441-0.305-2.362-1.724-2.057-3.165l2.491-11.764c0.304-1.441,1.723-2.363,3.164-2.058c1.442,0.305,2.363,1.724,2.058,3.165
			L216.21,28.483z"/>
	</g>
</g>
</svg>
