<?xml version="1.0" encoding="utf-8"?>
<!-- Generator: Adobe Illustrator 19.0.0, SVG Export Plug-In . SVG Version: 6.00 Build 0)  -->
<svg version="1.1" id="Layer_1" xmlns="http://www.w3.org/2000/svg" xmlns:xlink="http://www.w3.org/1999/xlink" x="0px" y="0px"
	 viewBox="513.7 772.6 973 455.1" enable-background="new 513.7 772.6 973 455.1" xml:space="preserve">
<g id="Layer_1_1_">
</g>
<rect x="513.7" y="772.6" fill="none" width="972.8" height="455"/>
<g>
	<g>
		<path opacity="0.1" fill="#000002" enable-background="new    " d="M513.7,1223.4v-112.5c6.3,4,11.6,9,15.9,15.1
			c33.9-2,67.7,16.1,81.7,48.5c-3.3,1.8-10.5,8-10.5,16.1c5.3-8.5,13.9-13.4,22.4-16.1c19.1-6.1,39.2-0.3,52.1,13.3
			c1.5-17.6,13.3-33.4,31-39c23.4-7.5,48.5,5.1,56.4,28.2c16.8-17.9,47.3-10.1,52.9,14.4c-11.6-2.3-25.7,2.5-32.7,13.1
			c8.6-6.5,22.4-9.8,31-7.8c-3,3.3-4.1,7.3-3.8,10.1c5.6-8.5,14.6-13.8,22.4-16.3c17.8-5.6,36.7-2,49.6,10.3
			c15.4-3,31.4-1.2,45.6,5.1c9.3-31.4,38.2-54.1,72.5-54.1c16.4,0,35.5,5.1,45.6,19.1c-0.3-8-8.6-17.9-12.9-20.3
			c22.2-39.2,66.1-63.7,112.4-63.7c37.2,0,69.2,14.1,93.6,41.8c0-8-9.3-24.6-22.1-32.9c7-41.7,47.3-69.9,89.3-61.4
			c6.3-16.1,15.3-30.9,26.1-44h-75.5c-15.6,0-28.4-12.6-28.4-28.4c0-12.6,8.3-23.4,19.8-27.1c-6.1-25.2,12.9-49.8,39.2-49.8
			c19.6,0,37.7,13.9,38,34.4c0.8-0.2,3.5-8.6,2.5-14.8c15.3-3.2,30.9,6.1,34.5,21.9c12.1,1.3,22.1,9.5,26.4,20.4
			c14.9-7,31-11.6,48.1-13.8c17.4-2.2,32.2-1.7,49.6,1.5v108.2c-28.1-1.7-57.8,13.8-68.6,43.8c16.1-19.4,42.7-29.4,68.6-28.9v165.5
			l0,0v4.1h-973V1223.4L513.7,1223.4z M1425.1,1158.7L1425.1,1158.7c-21.9-30.9-64.7-35.2-95.3-16.9c-17.9-9-40.2-9.5-56.4,3.3
			c14.9-3,30.9-1,45.3,5c-8.5,7.5-15.3,17.3-19.4,28.9c9.1-11,18.4-19.1,27.9-24.9l0.2,0.2c0-0.2,0.2-0.2,0.2-0.3
			C1370.8,1127.6,1414,1149.2,1425.1,1158.7z"/>
		<path opacity="0.1" fill="#000002" enable-background="new    " d="M962.3,1050.8c13.1,4.1,22.7,16.4,22.7,31
			c0,17.3-13.6,31.4-30.5,32.4c7.3,9,11.1,20.6,10.1,32.7c-15.1-8.3-36.8-8-51.5,3.5c14.9-5.1,35.5-3.7,46.6,3.2
			c-5.6,3.3-9.1,8.3-9.8,12.3c34-26.9,99.1-10.3,109.9,43.7c-4.1-0.2-8.1,0.8-10.3,3.2c-0.2,0.2-0.2,0.3-0.3,0.5
			c6.3-0.5,12.3,0.5,17.9,3c4.3-14.6,17.9-25.4,34-25.4c7.8,0,16.8,2.3,21.4,9c-0.2-3.8-4-8.5-6.1-9.5c10.5-18.4,31-29.9,52.6-29.9
			c17.4,0,32.5,6.6,43.8,19.6c0-3.8-4.3-11.5-10.3-15.4c2.5-14.8,14.1-26.4,28.9-29c9.3-1.7,24.7,0,30.4,7.3
			c21.1-23.1,69.7-21.9,88.5,4.6c26.4-1.7,52.6,12.4,63.4,37.7c-2.7,1.5-8.1,6.1-8.1,12.4c4.1-6.6,10.8-10.5,17.4-12.4
			c14.8-4.8,30.4-0.3,40.5,10.3c1.2-13.1,9.8-25.1,22.9-29.9v57.6v4.1H513.7v-4.1v-88.6c31.4-7.1,65.9,0.3,89.3,22.4
			c-4-8.3-9.3-15.3-15.3-20.9c21.2-16.3,55.6-18.9,77.7-3c-20.4-29.4-64.2-27.4-82.7-1.2c-19.6-15.3-45.8-19.1-69-13.8V934.9
			c15.6-7.1,32.9-11.1,51.1-11.1c61.4,0,116.9,45.8,122.8,107.9c-5.5,1-18.1,6.5-21.7,17.8c11.3-9.5,25.4-12.4,38.3-12.4
			c29.2,0,54.6,17.1,66.6,41.7c10.1-23.9,33.9-40.7,61.4-40.3c6-18.8,26.7-28.4,44.8-20.9c7.8-14.3,23.1-24.1,40.5-24.1
			C947.6,993.7,969.5,1021.9,962.3,1050.8z"/>
	</g>
</g>
</svg>
