<?xml version="1.0" encoding="utf-8"?>
<!-- Generator: Adobe Illustrator 16.0.0, SVG Export Plug-In . SVG Version: 6.00 Build 0)  -->
<!DOCTYPE svg PUBLIC "-//W3C//DTD SVG 1.1//EN" "http://www.w3.org/Graphics/SVG/1.1/DTD/svg11.dtd">
<svg version="1.1" id="Layer_1" xmlns="http://www.w3.org/2000/svg" xmlns:xlink="http://www.w3.org/1999/xlink" x="0px" y="0px"
	 width="2000px" height="935.336px" viewBox="0 532.332 2000 935.336" enable-background="new 0 532.332 2000 935.336"
	 xml:space="preserve">
<g>
	<path fill="#96AAAE" d="M2000,1112.097v3.413v46.408c-1.706,0.341-3.754,0.683-5.801,0.683c-11.943,0-21.84-8.19-24.91-19.109
		c-6.825,6.142-15.697,9.896-25.594,9.896c-18.086,0-37.195-13.991-36.171-33.1c-2.048,2.729-2.048,8.189-1.706,12.284
		c-7.166,2.729-17.063,1.365-22.181-5.118c-0.341,2.729,2.389,5.459,3.753,6.483c-4.436,4.095-10.919,7.507-17.402,7.507
		c-11.603,0-21.498-8.531-23.546-19.45c5.118,0,9.214-3.413,10.92-7.849c-2.389,3.071-6.825,5.118-11.261,5.118l0,0l0,0
		c-4.777,0-8.531-2.047-11.261-5.118c1.364,3.754,4.436,6.483,8.53,7.507c-2.729,1.706-5.801,3.071-9.213,3.071
		c-6.484,0-11.943-3.754-14.674-8.872h-35.146h-18.428l3.071,0.683c0,0,3.413,8.53-6.483,6.142
		c-7.166-1.706-12.626-0.341-14.674,0.683c1.024,2.389,1.365,5.119,1.365,7.849c0,12.626-10.236,22.863-22.863,22.863
		c-10.236,0-18.768-6.825-21.839-16.038c-3.753,3.412-8.872,5.46-14.332,5.46c-4.437,0-8.872-1.365-12.284-3.754
		c-2.389,12.967-13.65,22.862-27.299,22.862c-13.309,0-24.229-9.213-27.3-21.839c1.024,0.342,2.048,0.342,3.071,0.342
		c7.166,0,13.309-5.119,15.697-12.285c-3.412,4.777-9.214,7.849-15.697,7.849s-11.943-3.071-15.697-7.849
		c1.023,3.412,3.071,6.483,5.46,8.531h-4.437h-33.441c-9.213,0-16.379-7.166-16.379-16.38c0-9.213,7.166-16.379,16.379-16.379
		c0.342,1.706,2.048,5.801,4.096,6.483c-2.73-12.285,5.118-25.252,16.038-30.712c2.048-1.023,4.095-2.047,6.142-2.729
		c16.039-5.119,34.807,2.047,41.291,18.086c-1.365,0.682-4.096,3.07-4.096,6.483c2.048-3.413,5.46-5.46,8.873-6.483
		c7.848-2.389,15.696,0,21.156,5.459c0.683-7.166,5.46-13.308,12.626-15.696c9.555-3.071,19.45,2.047,22.863,11.261
		c6.825-7.166,19.109-4.095,21.498,5.801c-4.777-1.023-10.237,1.023-13.309,5.118c3.413-2.729,8.872-4.095,12.626-3.07
		c-1.023,1.023-1.706,2.729-1.706,3.753h0.341c2.389-3.07,5.801-5.118,8.873-6.142c7.166-2.389,14.673-0.683,20.133,4.095
		c6.143-1.365,12.625-0.342,18.427,2.047c3.753-12.625,15.355-21.839,29.347-21.839c6.824,0,14.332,2.048,18.427,7.849
		c0-3.071-3.413-7.166-5.118-8.189c8.871-15.697,26.616-25.593,45.385-25.593c15.014,0,27.98,5.801,37.877,17.062
		c0-3.071-3.754-9.896-8.872-13.309c3.412-20.815,29.005-33.1,45.726-20.815c-0.682-3.412-4.436-6.483-8.189-8.189
		c1.706-4.095,4.436-8.189,7.508-11.943c1.705,0.341,8.53-1.365,8.871-1.706h-37.877c-6.483,0-11.602-5.119-11.602-11.603
		c0-5.118,3.412-9.555,7.848-10.92c-2.389-10.236,5.119-20.133,15.697-20.133c7.848,0,15.355,5.46,15.355,13.991
		c0.342,0,1.365-3.413,1.023-6.143c6.143-1.365,12.626,2.389,13.991,8.872c4.777,0.683,8.872,3.754,10.578,8.189
		c6.143-2.729,12.626-4.777,19.45-5.459c7.166-1.024,12.968-0.683,20.134,0.682v43.679c-11.261-0.683-23.204,5.46-27.641,17.745
		c6.483-7.849,17.403-11.943,27.641-11.603v63.129H2000z M1975.432,1089.234L1975.432,1089.234
		c-8.873-12.626-26.276-14.332-38.561-6.825c-7.166-3.754-16.379-3.754-22.863,1.365c6.143-1.365,12.626-0.342,18.428,2.047
		c-3.413,3.071-6.143,6.825-7.85,11.603c3.754-4.437,7.508-7.849,11.262-9.896l0,0l0,0
		C1953.25,1076.608,1970.653,1085.48,1975.432,1089.234z"/>
	<path fill="#96AAAE" d="M250.469,924.416c7.507,2.389,12.626,9.213,12.626,17.402c0,8.19-5.801,15.356-12.967,17.403
		c-2.73-1.706-5.119-2.389-7.849-2.389c7.166,3.071,10.237,13.991,9.555,21.157c-8.531-4.777-20.474-4.437-28.664,2.047
		c8.19-2.729,19.792-2.047,25.935,1.707c-3.071,1.706-5.119,4.777-5.46,6.824c19.109-15.015,55.28-5.801,61.423,24.229
		c-2.389,0-4.436,0.341-5.801,1.706v0.341c3.412-0.341,6.824,0.342,9.896,1.706c2.389-8.189,9.896-14.332,19.109-14.332
		c4.437,0,9.214,1.365,11.943,5.119c0-2.048-2.389-4.777-3.412-5.46c5.801-10.237,17.403-16.721,29.347-16.721
		c4.095,0,7.849,0.683,11.261,1.706c4.095-3.412,9.213-5.46,15.015-5.46c12.967,0,23.204,10.579,23.204,23.204
		c0,3.071-0.683,5.802-1.706,8.531c5.801,0.683,10.578,5.46,10.578,11.603c0,6.483-5.118,11.602-11.603,11.602h-17.062
		c-1.365,0-2.389-0.341-3.754-0.683c-2.389,14.332-14.673,25.252-29.688,25.252c-11.603,0-21.839-6.483-26.616-16.38
		c2.729-0.341,5.118-1.706,6.824-3.753c3.412,2.729,7.849,4.095,12.285,4.095c8.872,0,16.721-6.143,20.133-15.015
		c-6.143,8.189-19.792,12.626-30.712,8.189l0,0l0,0c-3.753-1.706-7.166-4.095-9.555-8.189c1.365,3.754,3.754,7.166,6.483,9.555
		c-2.047,0.683-4.436,1.023-6.824,1.023c-3.754,0-7.166-1.023-9.896-2.729c1.365,3.412,4.777,6.143,8.873,6.483
		c-3.071,6.825-9.896,11.603-17.745,11.603c-10.578,0-19.45-8.531-19.45-19.451c-2.389,2.73-5.801,4.437-9.896,4.437
		c-4.436,0-8.19-2.048-10.579-5.46c-4.095,5.118-10.578,8.189-17.744,8.189c-7.507,0-13.991-3.412-18.086-8.872
		c-5.118,13.309-18.085,22.863-33.1,22.863c-15.697,0-29.005-10.237-33.783-24.229c-5.801,4.777-13.308,7.508-21.498,7.508
		c-19.792,0-34.465-15.356-33.782-34.807c-3.413,3.412-5.119,8.531-5.801,13.649H41.631c-3.753,6.483-10.578,10.92-18.768,10.92
		c-8.189,0-15.014-4.437-18.768-10.92H0V969.8c17.403-4.095,36.854,0,49.821,12.626c-2.389-4.777-5.119-8.53-8.531-11.602
		c11.943-9.214,31.053-10.579,43.337-1.706c-11.261-16.38-35.83-15.356-46.067-0.683c-10.92-8.531-25.593-10.578-38.56-7.508
		V858.557c8.872-4.095,18.427-6.143,28.664-6.143c34.124,0,65.177,25.593,68.589,60.399c-3.071,0.683-10.237,3.412-12.285,9.896
		c6.143-5.118,13.991-6.824,21.498-6.824c16.379,0,30.371,9.555,37.195,23.204c5.459-13.309,18.768-22.521,34.465-22.521
		c4.436,0,9.896,2.047,12.967,4.436c-2.73-5.46-7.507-7.507-11.261-8.189c5.459-9.214,18.768-12.626,26.958-5.118
		c-0.341-2.048-1.023-4.096-2.389-5.119c4.777-6.483,12.285-10.92,21.157-10.92C242.279,892.339,254.564,908.036,250.469,924.416
		L250.469,924.416z M172.326,976.967L172.326,976.967c-2.73-1.707-6.143-2.73-9.555-2.73c-1.024,0-2.389,0-3.413,0.342
		c-8.189-7.508-23.887-6.825-29.688,2.729c7.507-5.46,17.403-5.801,25.251-1.365c-4.095,2.048-7.507,5.46-8.872,9.555
		c4.095-5.118,10.237-8.189,17.062-8.189c5.801,0,10.919,2.048,15.014,5.801c-0.682-1.706-2.047-3.07-3.412-4.436
		c1.023-0.683,1.706-1.024,2.73-1.365c3.412-1.023,6.825,0,9.555,1.706C184.61,974.919,176.42,973.896,172.326,976.967z"/>
	<path fill="#CC9E00" d="M531.309,859.239c23.204,0,42.313-19.109,42.313-42.313c0-23.205-19.109-42.314-42.313-42.314
		s-42.313,19.109-42.313,42.314C488.995,840.13,508.104,859.239,531.309,859.239z"/>
	<path fill="#96AAAE" d="M441.222,841.836c1.706,0,3.412,0.341,4.777,0.683c-1.365-10.92,7.166-20.475,18.086-20.475
		c7.166,0,13.308,4.095,16.379,9.896c-0.683,0.683-3.071,3.071-3.412,5.802c7.166-9.555,25.593-7.849,34.124,0.341
		c2.389-3.071,5.801-4.777,9.896-4.777c5.119,0,9.555,3.071,11.603,7.508c-0.683,0.682-1.706,3.07-2.048,4.436
		c2.389-2.389,5.802-3.412,9.214-3.412c8.189,0,15.014,6.824,15.014,15.015c0,8.189-6.824,15.015-15.014,15.015
		c-7.166,0-15.355,0-22.863,0c0.683-1.365,1.023-3.413,0.342-5.119c-2.389,9.214-13.991,15.355-23.205,15.355
		c-8.53,0-16.038-4.095-20.474-10.578h-32.077c-8.189,0-15.014-6.824-15.014-15.015C426.549,848.66,433.032,841.836,441.222,841.836
		z"/>
	<path fill="#CC9E00" d="M465.449,861.286l7.849,24.229l-7.849,1.364l2.389,23.205l-15.696-27.3l6.824-1.706l-9.555-13.649
		C454.188,868.452,460.672,867.429,465.449,861.286z"/>
	<path fill="#CC9E00" d="M1610.988,1121.311l15.014,44.02h-13.648l5.801,37.536l-26.275-48.797l12.284-0.341l-4.437-30.712
		C1601.434,1125.405,1609.623,1124.382,1610.988,1121.311z"/>
	<path fill="#6BAEBF" d="M437.468,844.907c2.048,0,2.048,2.047,0,2.389c-2.047,0.683-3.071-1.365-1.023-2.048l-2.389-9.555
		c-2.389-0.341-1.706-3.754,0.683-3.071c1.365,0.342,1.706,2.048,0.683,2.73L437.468,844.907z"/>
	<path fill="#96AAAE" d="M203.72,1157.481c-5.801,1.706-9.896,7.166-9.896,13.309c0,0.341,0,0.683,0,1.023
		c0,9.896,10.237,12.968,17.744,12.968h47.091c8.872,0,16.038-7.167,16.038-16.039c0-8.189-6.143-15.014-13.991-15.696
		c-2.047-8.873-11.602-13.649-19.792-10.237c-3.413-6.143-9.896-10.578-17.745-10.578
		C210.203,1132.912,200.648,1144.855,203.72,1157.481z"/>
	<path fill="#5B8E9A" d="M247.398,1144.515c-2.389,0-2.389,2.389,0,3.071s3.754-1.706,1.365-2.73l2.73-10.919
		c2.729-0.342,2.047-4.777-0.683-4.095c-1.706,0.341-2.047,2.729-0.683,3.412L247.398,1144.515z"/>
	<path fill="#96AAAE" d="M831.939,1323.323c18.428,0,33.783,12.968,37.878,30.029c-6.142,2.048-11.603,6.143-13.649,9.214
		c17.063-9.214,37.877-2.389,45.043,16.038c2.048-0.683,4.437-1.365,6.484-1.365c9.555,0,17.402,7.849,17.402,17.403
		s-7.848,17.403-17.402,17.403c-3.071,0-7.508,0-10.579,0c1.024-1.706,1.365-4.437,1.024-6.143
		c-1.024,2.048-2.048,4.437-3.754,6.143c-5.801,6.143-13.991,9.896-23.204,9.896c-9.214,0-17.403-3.753-23.204-9.896h-25.594
		c-5.801,0-7.166-6.143-7.848-8.189c-2.048,7.507,2.389,10.919,5.459,11.602c-6.483,8.872-16.721,15.015-28.664,15.015
		c-19.45,0-35.147-15.697-35.147-35.147c0-19.451,15.697-35.147,35.147-35.147c0.342,0,0.683,0,1.024,0
		C794.063,1340.044,811.124,1323.323,831.939,1323.323z"/>
	<path fill="#5B8E9A" d="M780.072,1365.979c4.094,0,4.436,4.095,0,5.118c-4.096,1.024-6.143-2.729-2.389-4.777l-4.777-18.085
		c-4.777-0.342-3.413-7.849,1.023-6.483c2.729,0.682,3.412,4.436,1.023,6.142L780.072,1365.979z"/>
	<path fill="#CC9E00" d="M852.073,1407.269l-9.896,30.028l9.896,1.707l-3.071,28.664l19.45-33.783l-8.53-2.047l11.943-16.721
		C866.063,1415.799,858.215,1414.775,852.073,1407.269z"/>
</g>
<rect y="532.332" fill="none" width="2000" height="935.336"/>
</svg>
