<?xml version="1.0" encoding="utf-8"?>
<!-- Generator: Adobe Illustrator 16.0.0, SVG Export Plug-In . SVG Version: 6.00 Build 0)  -->
<!DOCTYPE svg PUBLIC "-//W3C//DTD SVG 1.1//EN" "http://www.w3.org/Graphics/SVG/1.1/DTD/svg11.dtd">
<svg version="1.1" id="Layer_1" xmlns="http://www.w3.org/2000/svg" xmlns:xlink="http://www.w3.org/1999/xlink" x="0px" y="0px"
	 width="2000px" height="935.336px" viewBox="0 532.332 2000 935.336" enable-background="new 0 532.332 2000 935.336"
	 xml:space="preserve">
<path fill="#B8B8B8" d="M473.64,1467.668H0v-146.733c22.863-0.341,46.408,8.531,60.74,25.594
	c-9.555-26.617-35.83-40.267-60.74-38.901v-95.889c15.355-2.729,28.664-3.07,44.02-1.364c15.015,1.706,29.347,6.142,42.655,12.284
	c3.753-9.896,12.625-17.062,23.204-18.086c3.412-13.99,17.062-22.18,30.711-19.45c-1.024,5.46,1.365,12.967,2.047,13.309
	c0.341-18.086,16.379-30.37,33.783-30.37c23.204,0,40.266,21.839,34.806,44.36c10.237,3.071,17.403,12.626,17.403,23.887
	c0,13.991-11.261,25.252-25.251,25.252h-66.542c9.555,11.602,17.403,24.91,23.204,38.901c37.536-7.508,73.025,17.744,79.167,54.598
	c-11.261,7.508-19.792,22.181-19.451,29.347c21.498-24.569,50.162-37.195,82.921-37.195c41.29,0,79.85,21.84,99.642,56.646
	c-3.754,2.047-11.261,10.919-11.602,18.085c8.872-12.284,25.934-17.062,40.607-17.062c30.37,0,56.304,20.133,64.494,48.114
	c12.625-5.46,26.616-7.166,40.607-4.436c11.602-10.92,28.322-14.332,44.02-9.214c6.824,2.389,15.014,6.825,19.791,14.332
	c0.342-2.389-0.682-6.142-3.412-8.872c7.849-2.048,19.792,1.023,27.641,6.825c-6.143-9.214-18.768-13.649-29.006-11.603
	c5.119-21.839,32.077-28.664,47.092-12.626c7.166-20.474,29.346-31.735,50.162-24.91c15.697,5.118,26.275,19.109,27.641,34.465
	c11.602-11.943,29.346-17.062,46.066-11.602c7.508,2.389,15.015,6.824,19.792,14.332c0-7.166-6.143-12.626-9.214-14.332
	c15.015-34.807,55.622-50.845,91.111-39.584c10.578,3.412,53.233,17.062,53.233,82.921h-47.433H473.64V1467.668z M1487.459,1270.772
	L1487.459,1270.772c-15.014,4.777-25.934,18.769-25.934,35.489c0,19.792,15.355,35.83,34.807,37.195
	c-8.531,10.236-12.626,23.545-11.603,37.536c17.062-9.555,41.973-9.214,58.693,4.095c-17.062-5.801-40.607-4.095-53.233,3.754
	c6.483,3.753,10.237,9.555,11.261,13.99c-38.901-30.711-113.291-11.602-125.575,49.821c4.777-0.342,9.213,1.023,11.943,3.753
	c0.341,0.342,0.341,0.342,0.341,0.683c-7.166-0.683-13.991,0.683-20.475,3.413c-4.777-16.721-20.474-29.006-38.901-29.006
	c-8.872,0-19.109,2.73-24.568,10.237c0-4.436,4.777-9.555,6.824-10.92c-11.943-21.156-35.488-34.124-60.058-34.124
	c-19.792,0-37.195,7.508-50.162,22.522c0-4.437,5.118-13.309,11.943-17.744c-2.73-16.721-16.038-30.371-33.101-33.101
	c-10.578-1.706-28.322,0-34.807,8.531c-16.379-18.086-48.456-20.475-68.589-13.991c-28.664,8.872-43.337,27.981-50.503,47.433
	c-9.555,26.275-4.777,53.574-0.342,58.692H2000v-101.688c-35.83-8.19-75.414,0.341-102.03,25.593
	c4.437-9.555,10.578-17.403,17.403-23.887c-24.229-18.427-63.471-21.498-88.723-3.412c23.204-33.441,73.366-31.395,94.523-1.365
	c22.181-17.403,52.209-21.84,78.826-15.355v-209.18c-17.744-8.189-37.537-12.626-58.352-12.626
	c-42.996,0-83.604,19.792-110.221,51.527c-1.023,1.365,10.237,9.896,9.555,11.261c-6.143,0-10.92-1.706-14.673-4.095
	c-13.649,18.427-22.522,40.607-24.569,64.835c6.143,1.024,20.475,7.166,24.91,20.475c-12.967-10.92-29.005-14.332-43.678-14.332
	c-33.441,0-62.447,19.45-76.097,47.773c-11.603-27.299-38.56-46.408-70.296-46.067c-6.824-21.498-30.369-32.418-51.186-23.887
	c-8.872-16.379-26.275-27.641-46.408-27.641C1504.18,1205.255,1479.27,1237.673,1487.459,1270.772L1487.459,1270.772z
	 M54.598,1410.34L54.598,1410.34c9.896-8.531,48.115-27.641,86.675-4.437v0.341h0.341c8.531,5.119,16.721,12.285,24.91,22.181
	c-3.753-10.578-9.896-19.109-17.062-25.593c12.967-5.46,26.958-7.166,40.266-4.436c-14.332-11.262-34.124-10.92-50.162-3.071
	C111.926,1378.945,74.049,1383.04,54.598,1410.34z"/>
<path fill="#B8B8B8" d="M471.251,1301.144c1.364,0,2.729,0,3.753,0.341c2.73-45.385,59.376-65.859,91.794-30.029
	c-4.777,3.071-9.555,8.19-10.237,12.626c22.181-22.521,63.812-9.555,63.812,24.91c68.248,0,68.248,103.396,0,103.396
	c-12.967,0-29.005,0-41.973,0c1.365-3.412,1.706-8.189,1.024-11.602c-16.039,36.854-65.177,42.654-89.063,11.261
	c-36.854,0-91.794,9.213-91.794-36.513c0-27.299,30.371-46.75,53.233-30.712c-1.364-3.412-8.189-10.578-16.721-11.943
	C437.127,1315.476,452.482,1301.144,471.251,1301.144z"/>
<path fill="#B8B8B8" d="M1906.501,1085.139c-1.024,0-2.048,0-3.071,0c-2.389-36.854-48.115-53.574-74.391-24.568
	c3.754,2.389,7.508,6.483,8.531,10.236c-18.086-18.085-51.868-7.507-51.868,20.475c-55.28,0-55.28,83.945,0,83.945
	c10.578,0,23.546,0,34.124,0c-1.023-2.73-1.365-6.484-0.683-9.214c12.967,30.029,52.892,34.465,72.343,9.214
	c30.029,0,74.39,7.507,74.39-29.688c0-22.181-24.569-37.877-43.337-24.91c1.023-2.729,6.483-8.531,13.649-9.555
	C1934.141,1096.741,1921.516,1085.139,1906.501,1085.139z"/>
<path fill="#5B8E9A" enable-background="new    " d="M1784.338,1115.51c-2.048,0.341-4.096,1.023-5.802,2.047
	c-3.071-3.071-1.706-3.071-6.483,1.023c-0.683,0.342,0.683,2.048,1.706,3.071c-1.365,1.706-2.389,3.413-3.071,5.46
	c-4.436-0.341-3.412-1.365-4.436,5.119c0,0.682,2.047,1.023,3.412,1.364c0,2.048,0.341,4.095,1.023,6.143
	c-3.754,2.729-3.412,1.023-0.341,6.483c0.341,0.683,2.047-0.341,3.412-1.023c1.365,1.706,3.071,3.071,4.777,4.095
	c-1.023,4.437-2.048,3.071,4.095,5.118c0.683,0.342,1.365-1.706,2.048-3.07h6.142c2.048,4.095,0.342,3.412,6.484,1.364
	c0.682-0.341,0-2.047-0.342-3.412c1.707-1.023,3.412-2.389,4.777-4.095c3.754,1.706,2.73,2.047,4.437-1.024l24.91,6.484
	c0.341,1.364,0.683,3.07,1.024,4.436c-2.048,1.365-4.437,2.73-3.754,3.754l4.095,7.166c0.683,1.023,2.729-0.341,5.118-1.365
	c1.707,2.048,3.754,3.754,6.143,5.119c-0.683,2.389-1.706,4.777-0.341,5.118l7.849,2.73c1.023,0.341,1.705-2.048,3.07-4.096h7.849
	c1.024,2.389,1.706,4.777,3.071,4.096l7.849-2.73c1.023-0.341,0-2.729-0.341-5.118c2.389-1.365,4.436-3.071,6.143-5.119
	c2.389,1.024,4.436,2.389,5.118,1.365l4.095-7.166c0.683-1.023-1.706-2.048-3.754-3.754c0.342-1.364,1.023-3.071,1.023-4.777
	l36.854,1.024l1.706,3.412c0.341,0.341,1.706-0.342,2.389-0.683c1.023,1.023,2.047,2.048,3.412,3.071
	c-0.682,3.071-1.365,2.389,3.071,3.754c0.341,0.341,1.024-1.365,1.365-2.389h4.437c1.365,3.07,0.341,2.729,4.777,1.023
	c0.341-0.342,0-1.706-0.342-2.73c1.365-0.682,2.389-1.706,3.412-3.07c3.072,1.364,2.048,1.706,4.437-2.389
	c0.341-0.342-1.023-1.365-2.048-1.707c0.342-1.364,0.684-3.07,0.684-4.436c3.07-1.023,2.729,0,1.705-4.437
	c0-0.683-1.705-0.341-2.729,0c-0.683-1.364-1.364-2.729-2.389-4.095c1.706-2.729,2.048-1.706-1.706-4.777
	c-0.341-0.341-1.365,1.023-2.047,1.706c-1.365-0.683-2.73-1.364-4.437-1.706c-0.341-3.412,0.683-2.729-4.095-2.729
	c-0.683,0-0.342,1.706-0.683,2.729c-1.706,0.342-3.071,0.683-4.437,1.706c-2.389-2.389-1.365-2.389-4.777,0.683
	c-0.341,0.342,0.683,1.365,1.365,2.389c-0.683,0.683-1.365,1.706-1.706,2.73l-34.807,2.047c-1.023-6.143,0-5.118-5.801-4.777
	c-1.023-2.389-2.389-4.777-4.095-6.824c1.365-2.048,3.071-3.754,2.047-4.777l-6.483-5.46c-1.023-0.683-2.389,1.364-4.095,3.071
	c-0.342,0-0.342-0.342-0.683-0.342l1.023-14.673c1.365-0.683,3.071-1.706,4.095-2.73c1.707,1.024,4.096,3.071,4.777,2.389
	l3.754-5.118c0.683-0.683-1.706-2.389-3.412-4.095c1.023-1.706,1.365-3.754,1.706-5.802c2.048-0.341,5.118-0.341,5.118-1.364
	l-0.341-6.483c0-1.024-3.071-0.683-5.118-1.024c-0.342-2.047-1.365-3.753-2.389-5.46c1.365-1.706,3.753-3.412,3.07-4.095
	l-4.094-4.777c-0.684-0.683-2.73,1.365-4.437,2.73c-1.706-1.024-3.413-2.048-5.46-2.73c0-2.047,0.683-5.118-0.342-5.118
	l-6.142-1.023c-1.023,0-1.365,2.729-1.706,4.777c-2.047,0-4.096,0.682-5.801,1.364c-1.365-1.706-2.73-4.436-3.754-3.753l-5.46,3.412
	c-0.683,0.683,0.683,3.071,1.706,4.777c-1.365,1.365-2.729,3.071-3.754,4.777c-2.047-0.342-4.777-1.365-5.118-0.683l-2.047,6.143
	c-0.341,1.023,2.389,1.706,4.436,2.729c0,1.365,0,2.389,0,3.754l-39.583,26.958c-2.389-2.048-1.707-2.048-4.437,0.683
	c-1.706-1.024-3.753-1.707-5.801-2.048c-0.341-4.437,0.683-3.412-5.802-3.412C1784.338,1112.097,1784.338,1114.145,1784.338,1115.51
	L1784.338,1115.51z M1885.003,1148.609L1885.003,1148.609c0-0.341,0-1.023,0-1.365c5.46-1.706,5.118-0.682,4.437-4.436l31.394-1.706
	c-0.683,4.095-1.365,3.071,2.047,4.095c0,1.706,0.341,3.071,0.683,4.436L1885.003,1148.609L1885.003,1148.609z M1931.411,1149.633
	L1931.411,1149.633h-5.46c-1.365-2.729-1.365-6.142,0-8.872l5.46-0.341C1928.682,1143.149,1929.022,1147.244,1931.411,1149.633
	L1931.411,1149.633z M1878.178,1148.269L1878.178,1148.269l-7.507-0.342c0-0.341,0-1.023,0-1.364
	c3.753-1.024,3.071-0.342,2.729-3.071l4.436-0.342L1878.178,1148.269L1878.178,1148.269z M1866.576,1147.927L1866.576,1147.927
	h-5.802c0.683-1.023,0.683-2.389,0-3.754l5.802-0.341V1147.927L1866.576,1147.927z M1858.045,1149.633L1858.045,1149.633
	l7.848,0.342c-3.753,8.872-17.062,6.143-17.062-3.412c0-9.214,12.626-12.285,16.722-4.096l-7.85,0.342
	C1852.926,1142.809,1853.268,1149.975,1858.045,1149.633L1858.045,1149.633z M1870.329,1149.975L1870.329,1149.975l7.507,0.341
	c-1.705,9.555-10.236,16.721-20.133,16.721c-9.213,0-17.062-6.142-19.45-14.332l5.46,1.365c1.706,3.071,0.682,2.729,4.436,1.023
	c0.683,1.024,1.706,1.706,2.73,2.389c-1.024,3.754-1.707,2.73,3.412,4.437c0.683,0.341,1.023-1.706,1.706-2.73h3.753
	c1.707,3.754,0.342,3.071,5.461,1.365c0.682-0.341,0-2.048-0.342-3.071c1.023-0.683,2.047-1.364,2.73-2.389
	c3.753,1.706,2.389,2.048,5.118-2.389c0.341-0.683-1.365-1.364-2.389-2.047C1870.329,1150.315,1870.329,1149.975,1870.329,1149.975
	L1870.329,1149.975z M1926.975,1151.34L1926.975,1151.34l8.873,0.341c8.189,0,8.871-12.626,0-13.309l-9.214,0.342
	c6.142-8.872,20.133-4.777,20.133,6.142C1947.107,1155.775,1933.459,1159.87,1926.975,1151.34L1926.975,1151.34z M1877.496,1141.443
	L1877.496,1141.443l-4.437,0.342c0-1.024-0.341-0.683-3.413-0.342c-0.341-0.683-0.682-1.023-0.682-1.706l0.341-3.412
	c0-0.342,0.683-0.683,0-1.365l0.341-5.46C1873.742,1132.571,1876.472,1136.666,1877.496,1141.443L1877.496,1141.443z
	 M1806.859,1142.467L1806.859,1142.467c0.682-1.364,1.023-1.023-2.389-3.07c0.682-2.048,1.023-4.096,1.023-6.143
	c4.436-1.023,3.412,0,2.389-6.143c0-0.683-2.047-0.341-3.412,0c-0.684-2.047-1.707-3.754-3.072-5.46
	c2.048-3.071,2.389-2.729,1.024-3.753l34.465-23.205l2.389,6.483c0.341,1.024,3.071-0.341,5.118-1.023
	c1.024,1.706,2.389,3.071,4.096,4.437c-0.683,2.047-2.389,4.436-1.365,5.118l5.459,3.071c1.024,0.341,2.048-2.048,3.413-4.095
	l6.142,0.683c0.684,2.047,1.024,5.118,2.048,4.777l5.118-1.024l-0.341,8.19c-1.706-0.683-3.412-1.365-5.118-1.707
	c-0.342-2.729,0-5.118-1.365-5.118h-8.189c-1.365,0-1.023,2.389-1.365,5.118c-2.73,0.683-5.119,1.365-7.508,2.73
	c-1.706-1.706-3.412-3.754-4.095-3.071l-6.483,5.46c-1.023,0.683,0.683,2.389,2.047,4.777c-1.706,2.048-3.07,4.437-4.095,6.825
	c-2.729,0-5.118-0.683-5.118,0.341l-1.365,8.189c-0.342,1.024,2.389,1.365,4.777,2.048c0,0.683,0,1.023,0,1.706L1806.859,1142.467
	L1806.859,1142.467z M1843.371,1152.021L1843.371,1152.021l-5.459-1.364c-3.754-17.403,15.014-30.712,30.37-21.84l-0.341,5.119
	c-1.707-1.365-1.023-1.706-3.754,1.023c-1.023-0.683-2.389-1.023-3.412-1.365c-0.342-4.095,0.682-3.071-4.777-3.071
	c-0.683,0-0.683,2.048-0.683,3.071c-1.365,0.342-2.39,0.683-3.413,1.365c-2.729-2.729-1.706-2.729-5.459,0.683
	c-0.342,0.341,0.682,1.706,1.365,2.729c-0.684,1.024-1.365,2.048-2.048,3.413c-4.095-0.342-3.071-1.024-3.753,4.095
	c0,0.683,1.705,1.023,3.07,1.364c0,1.365,0.342,2.389,0.683,3.754L1843.371,1152.021L1843.371,1152.021z M1800.034,1141.103
	L1800.034,1141.103l-9.555-2.389c4.777-3.071,3.413-10.237-2.048-11.261l8.19-5.46
	C1802.423,1126.429,1803.787,1134.619,1800.034,1141.103L1800.034,1141.103z M1787.067,1139.396L1787.067,1139.396l11.943,3.07
	c-8.531,10.92-26.275,4.777-26.275-9.213c0-11.603,12.967-18.769,22.521-12.626l-10.578,7.166
	C1778.536,1131.548,1781.607,1139.055,1787.067,1139.396L1787.067,1139.396z M1855.656,1079.68L1855.656,1079.68l-11.261,7.848
	c0-2.389,0.683-4.777,2.047-7.166c1.706-3.753,4.777-6.483,8.531-8.189c7.849-3.412,17.062-0.683,21.839,6.483
	c2.389,3.413,3.413,7.849,2.73,11.943c-0.683,5.119-3.412,9.555-7.849,12.285l1.023-15.015c0-2.389-0.683-4.437-2.047-6.143
	C1866.576,1077.291,1860.092,1076.267,1855.656,1079.68L1855.656,1079.68z M1837.912,1094.012L1837.912,1094.012l3.07-2.048v0.341
	L1837.912,1094.012L1837.912,1094.012z M1844.055,1089.575L1844.055,1089.575l7.848-5.46c-4.777,11.261,10.92,20.133,18.086,10.237
	l-0.683,9.555c-3.071,1.706-6.825,2.048-10.237,1.706C1850.879,1104.59,1844.736,1097.765,1844.055,1089.575L1844.055,1089.575z
	 M1862.14,1084.798L1862.14,1084.798c4.437,0.683,3.413,7.507-1.023,6.825C1856.68,1090.94,1857.703,1084.115,1862.14,1084.798
	L1862.14,1084.798z M1856.339,1081.386L1856.339,1081.386c6.142-4.777,14.673,0.341,13.649,8.189
	c-1.023,7.507-10.92,10.237-15.355,4.095C1851.902,1089.575,1852.585,1084.115,1856.339,1081.386z"/>
<path fill="#5B8E9A" d="M1609.965,1239.038c4.436,2.389,2.047,6.824-3.072,5.46c-4.777-1.365-4.777-6.484,0.342-6.143l8.531-32.076
	c-4.777-3.413,1.023-10.237,5.118-6.143c2.389,2.389,1.024,6.483-2.389,6.824L1609.965,1239.038z"/>
<path fill="#B8B8B8" d="M78.826,981.062c-23.204,0-42.655,16.721-47.091,38.901c4.436,1.023,7.848,3.753,8.872,6.483
	c-13.991-6.825-32.077,1.364-40.607,11.943v52.209h1.706c7.166,7.508,17.062,11.943,28.323,11.943
	c11.261,0,21.157-4.777,28.323-11.943c8.873,0,17.745,0,26.617,0c-0.341-3.071-0.341-5.801,1.024-8.53
	c3.753,17.744,22.521,31.053,41.631,31.053c23.887,0,42.996-19.451,42.996-42.996c0-23.887-19.45-42.996-42.996-42.996
	c-0.341,0-0.682,0-1.023,0C125.576,1001.194,104.76,981.062,78.826,981.062z"/>
<path fill="#5B8E9A" enable-background="new    " d="M124.211,1049.65c-2.047,0.341-3.754,1.023-5.46,1.706L99.3,1032.588
	c0.341-1.023,0.341-2.047,0.341-3.412l4.095-1.023c0.341,0,0.683-0.342,0.683-0.683l-1.023-6.143c0-0.341-0.341-0.683-0.683-0.683
	l-4.436,0.342c-0.683-2.048-1.707-3.754-3.071-5.119l2.389-3.753c0.341-0.342,0.341-0.683,0-1.024l-4.777-4.095
	c-0.341-0.341-0.683,0-1.024,0l-3.071,3.071c-1.707-1.023-3.754-1.706-5.801-2.047l-0.341-4.437c0-0.341-0.341-0.683-0.682-0.683
	h-6.143c-0.341,0-0.683,0.342-0.683,0.683l-0.341,4.437c-2.048,0.341-3.754,1.023-5.801,2.047l-3.071-3.071
	c-0.341-0.341-0.682-0.341-1.023,0l-4.777,4.095c-0.341,0.342-0.341,0.683,0,1.024l2.389,3.753
	c-1.365,1.707-2.389,3.413-3.071,5.119l-4.436-0.342c-0.341,0-0.683,0-0.683,0.683l-1.023,6.143c0,0.341,0.341,0.683,0.683,0.683
	l4.095,1.023c0,2.048,0.341,4.095,1.023,5.801l-3.753,2.73c-0.341,0.341-0.341,0.683-0.341,1.023l2.389,4.095l-1.706,2.73
	l-0.341-2.048c0-0.341,0-0.341-0.341-0.341h-3.413c-0.341,0-0.341,0-0.341,0.341l-0.341,2.048c-1.365,0.341-2.73,0.683-4.095,1.364
	l-1.706-1.364h-0.341l-2.73,2.389v0.341l1.365,1.706c-1.024,1.024-1.706,2.389-2.389,3.754h-2.047c-0.341,0-0.341,0-0.341,0.341
	l-0.683,3.413c0,0.341,0,0.341,0.341,0.341l2.047,0.683c0,1.365,0.341,3.071,0.683,4.437l-1.706,1.364c0,0-0.341,0.342,0,0.342
	l1.706,3.071c0,0,0.341,0.341,0.341,0l2.047-1.024c1.024,1.024,2.047,2.048,3.412,2.73l-0.682,2.047c0,0.342,0,0.342,0.341,0.342
	l3.412,1.364c0.341,0,0.341,0,0.341-0.341l1.024-2.048c0.682,0,1.365,0.342,2.389,0.342c0.682,0,1.365,0,2.047-0.342l1.023,2.048
	c0,0.341,0.341,0.341,0.341,0.341l3.413-1.364c0.341,0,0.341-0.342,0.341-0.342l-0.683-2.047c1.365-0.683,2.389-1.706,3.412-2.73
	l2.047,1.024c0.341,0,0.341,0,0.341,0l1.365-2.389l39.925,7.507c0.341,1.365,0.683,2.389,1.024,3.754l-2.73,2.047
	c-0.341,0.342-0.341,0.342-0.341,0.683l2.73,4.777c0,0.342,0.341,0.342,0.682,0.342l3.071-1.365c1.365,1.706,3.413,3.412,5.46,4.437
	l-0.683,3.412c0,0.341,0,0.683,0.341,0.683l5.119,2.047c0.341,0,0.683,0,0.683-0.341l1.365-3.071
	c1.024,0.341,2.389,0.341,3.413,0.341c1.023,0,2.389,0,3.412-0.341l1.365,3.071c0,0.341,0.341,0.341,0.682,0.341l5.119-2.047
	c0.341,0,0.341-0.342,0.341-0.683l-0.683-3.412c2.047-1.024,3.754-2.73,5.46-4.437l3.071,1.365c0.341,0,0.682,0,0.682-0.342
	l2.73-4.777c0-0.341,0-0.683-0.341-0.683l-2.729-2.047c0.682-2.048,1.023-4.437,1.365-6.825l3.413-1.023
	c0.341,0,0.341-0.342,0.341-0.683l-1.023-5.46c0-0.341-0.341-0.341-0.683-0.341l-3.412,0.341c-0.683-2.047-2.048-4.095-3.413-6.143
	l2.047-2.729c0.341-0.341,0-0.683,0-0.683l-4.095-3.412c-0.341-0.342-0.683,0-0.683,0l-2.389,2.389
	c-2.047-1.023-4.095-2.048-6.483-2.389l-0.341-3.412c0-0.342-0.341-0.683-0.683-0.683h-5.459c-0.341,0-0.683,0.341-0.683,0.683
	V1049.65L124.211,1049.65z M0,1068.76L0,1068.76v-2.048l7.849-2.389l0,0l-2.389-3.753c0-0.342,0-0.342,0-0.683l2.389-1.706
	c-0.341-1.024-0.683-2.389-0.683-3.754L0,1058.182v-2.389l5.46-3.071l-1.024-0.342c-0.341,0-0.341-0.341-0.341-0.683l0.683-4.436
	c0-0.342,0.341-0.342,0.683-0.342l3.071,0.342c0.683-1.365,1.365-2.73,2.047-3.754l-1.706-2.729c0-0.342,0-0.342,0-0.683l3.413-2.73
	c0.341,0,0.341,0,0.682,0l2.389,2.048c1.365-0.683,2.73-1.023,4.095-1.365l0.341-3.071c0-0.341,0.341-0.341,0.341-0.341h4.437
	c0.341,0,0.341,0.341,0.341,0.341l0.341,3.071c1.365,0.342,2.73,0.683,4.095,1.365l2.389-2.048c0.341-0.341,0.341-0.341,0.682,0
	l3.413,2.73c0.341,0,0.341,0.341,0,0.683l-1.706,2.729c1.023,1.023,1.706,2.389,2.047,3.754l3.071-0.342
	c0.341,0,0.341,0,0.683,0.342l0.683,4.436c0,0.342,0,0.342-0.341,0.683l-3.071,0.683c0,1.365-0.341,2.73-0.682,4.095l2.729,1.706
	c0.341,0,0.341,0.342,0,0.683l-2.389,3.754c0,0.341-0.341,0.341-0.682,0l-2.73-1.365c-1.024,1.024-2.047,2.048-3.413,2.73
	l0.683,3.071c0,0.341,0,0.341-0.341,0.682l-4.095,1.707c-0.341,0-0.341,0-0.683-0.342l-1.365-2.729c-0.683,0-1.365,0-2.047,0
	c-0.683,0-1.365,0-2.048,0l-1.365,2.729c0,0.342-0.341,0.342-0.683,0.342l-4.095-1.707c-0.341,0-0.341-0.341-0.341-0.682
	l0.683-3.071c-0.683-0.342-1.024-0.683-1.365-1.024L0,1068.76L0,1068.76z M17.403,1063.3L17.403,1063.3
	c1.365,0.683,3.071,1.023,4.777,1.023c6.142,0,11.261-5.118,11.261-11.261s-5.119-11.261-11.261-11.261
	c-5.119,0-9.214,3.412-10.579,7.849l6.142-3.412l0,0c1.365-1.024,2.73-1.365,4.437-1.365c2.389,0,4.436,1.023,5.801,2.389
	c1.365,1.365,2.389,3.412,2.389,5.801s-1.023,4.437-2.389,5.801c-1.023,1.024-2.389,1.707-3.753,2.048L17.403,1063.3L17.403,1063.3z
	 M19.109,1060.57L19.109,1060.57c-1.024-0.342-1.706-1.024-2.73-1.707c-1.365-1.364-2.389-3.412-2.389-5.801
	c0-1.023,0.341-2.047,0.683-2.729l-3.413,2.047c0,0.342,0,0.683,0,1.024c0,3.412,1.706,6.824,4.095,8.872L19.109,1060.57
	L19.109,1060.57z M11.261,1063.3L11.261,1063.3L11.261,1063.3l-1.706,0.341L11.261,1063.3L11.261,1063.3z M18.085,1048.968
	L18.085,1048.968c-1.023,1.023-1.706,2.729-1.706,4.095c0,1.706,0.683,3.071,1.706,4.095l0,0c1.024,1.024,2.73,1.706,4.095,1.706
	c1.706,0,3.071-0.682,4.095-1.706c1.023-1.023,1.706-2.729,1.706-4.095c0-1.706-0.683-3.071-1.706-4.095l0,0
	c-1.024-1.023-2.73-1.706-4.095-1.706C20.474,1047.262,19.109,1047.944,18.085,1048.968L18.085,1048.968z M66.883,1063.641
	L66.883,1063.641L66.2,1063.3c0.341-1.365,0.683-2.729,0.683-4.437l2.047-0.682c0.341,0,0.341-0.342,0.341-0.342l-0.683-3.412
	c0-0.342-0.341-0.342-0.341-0.342H66.2c-0.683-1.364-1.365-2.729-2.389-3.753l1.365-1.707v-0.341l-2.73-2.389h-0.341l-1.706,1.365
	c-0.683-0.342-1.365-0.683-2.389-1.024l1.023-2.047l0,0l4.095-1.706c1.365,1.364,2.73,2.729,4.437,3.753l-1.024,4.437
	c0,0.341,0,0.683,0.341,0.683l5.801,2.047c0.341,0,0.683,0,0.683-0.341l2.047-4.095c1.024,0,2.047,0.341,3.071,0.341
	s2.047,0,3.071-0.341l2.047,4.095c0,0.341,0.341,0.341,0.683,0.341l5.801-2.047c0.341,0,0.341-0.342,0.341-0.683l-1.024-4.437
	c1.707-1.023,3.413-2.389,4.437-3.753l4.095,1.706c0.341,0,0.683,0,1.023-0.342l3.071-5.46c0,0,0,0,0-0.341l11.602,11.261
	l-4.095,3.412c-0.341,0.342-0.341,0.683,0,0.683l2.047,2.73c-1.365,1.706-2.73,3.753-3.412,6.142l-3.413-0.341
	c-0.341,0-0.683,0-0.683,0.341l-1.023,5.46c0,0.342,0,0.683,0.341,0.683l3.412,1.023c0,0.342,0,0.683,0,1.024L66.883,1063.641
	L66.883,1063.641z M122.164,1073.878L122.164,1073.878l-10.92-2.047c0-0.683,0-1.365,0-2.048c0-6.143,3.413-11.602,8.531-14.673
	l7.848,7.849c-3.753,0-6.825,3.07-6.825,6.824C120.798,1071.148,121.481,1072.514,122.164,1073.878L122.164,1073.878z
	 M63.47,1062.959L63.47,1062.959l-6.483-1.365c0.683-0.683,1.365-1.706,1.365-3.071c0-2.389-2.047-4.437-4.436-4.437h-0.341
	l3.413-5.801c4.436,1.365,7.507,5.46,7.507,10.237C64.494,1060.229,64.153,1061.594,63.47,1062.959L63.47,1062.959z
	 M53.574,1062.959L53.574,1062.959l9.214,1.706c-2.048,2.729-5.119,4.436-8.873,4.436c-5.801,0-10.578-4.777-10.578-10.578
	s4.777-10.578,10.578-10.578c0.341,0,0.683,0,1.024,0l-4.436,8.189c-0.683,0.683-0.683,1.706-0.683,2.729
	C49.479,1060.911,51.186,1062.959,53.574,1062.959L53.574,1062.959z M111.585,1073.878L111.585,1073.878l14.332,2.73
	c0.683,0,1.024,0.341,1.706,0.341c3.754,0,6.825-3.071,6.825-6.824c0-2.048-0.683-3.754-2.048-5.119l0,0l-10.919-10.578
	c2.047-0.683,4.095-1.023,6.142-1.023c9.214,0,16.721,7.507,16.721,16.721c0,9.213-7.507,16.721-16.721,16.721
	C120.116,1086.504,113.291,1081.044,111.585,1073.878L111.585,1073.878z M64.494,1035.318L64.494,1035.318l3.071-5.46
	c0.341,2.729,1.365,5.118,3.412,6.825c2.047,2.047,4.777,3.412,8.19,3.412c3.071,0,6.142-1.365,8.189-3.412
	c2.047-2.048,3.413-4.777,3.413-8.19c0-0.683,0-1.706-0.341-2.389l4.436,4.437c-1.023,7.849-7.507,13.649-15.697,13.649
	C72.343,1044.531,66.883,1040.778,64.494,1035.318L64.494,1035.318z M68.248,1024.74L68.248,1024.74l-4.436,8.189
	c-0.341-1.365-0.341-2.73-0.341-4.095c0-8.531,7.166-15.697,15.697-15.697c8.531,0,15.355,6.825,15.697,15.015l-7.849-7.508l0,0
	c-2.047-1.706-4.777-3.07-7.507-3.07c-3.071,0-6.143,1.364-8.19,3.412C69.613,1021.669,68.93,1023.033,68.248,1024.74
	L68.248,1024.74z M98.618,1034.977L98.618,1034.977l2.047,2.048l-2.389-1.706C98.618,1035.318,98.618,1034.977,98.618,1034.977
	L98.618,1034.977z M72.343,1022.352L72.343,1022.352c1.706-1.707,4.095-2.73,6.483-2.73s4.777,1.023,6.483,2.73
	c1.706,1.706,2.73,4.095,2.73,6.483s-1.024,4.777-2.73,6.483s-4.095,2.729-6.483,2.729s-4.777-1.023-6.483-2.729
	c-1.707-1.706-2.73-4.095-2.73-6.483C69.613,1026.104,70.636,1024.058,72.343,1022.352z"/>
<path fill="#5B8E9A" enable-background="new    " d="M130.012,1212.763l0.341-3.071c0-0.342,0-0.683-0.341-0.683l-4.777-1.023
	c-0.341,0-0.341,0-0.682,0.341l-1.024,2.73c-2.047,0-4.095,0-6.142,0.682l-1.707-2.729c0-0.341-0.341-0.341-0.682-0.341
	l-4.436,2.047c-0.341,0-0.341,0.342-0.341,0.683l1.023,2.729c-1.706,1.365-3.071,2.73-4.436,4.437l-2.73-1.023
	c-0.341,0-0.682,0-0.682,0.341l-2.048,4.437c0,0.341,0,0.683,0.341,0.683l2.73,1.364c-0.341,2.048-0.683,4.095-0.341,6.143
	l-2.73,1.023c-0.341,0-0.341,0.342-0.341,0.683l1.365,4.777c0,0.342,0.341,0.342,0.683,0.342l3.071-0.683
	c1.024,1.706,2.048,3.412,3.754,5.118l-1.365,2.73c0,0.341,0,0.682,0,0.682l4.095,2.73c0.341,0,0.341,0,0.682,0l2.048-2.389
	c1.023,0.341,2.047,0.683,3.071,1.023c1.024,0.342,2.047,0.342,3.071,0.342l0.683,3.07c0,0.342,0.341,0.342,0.682,0.342l4.777-0.342
	c0.341,0,0.341-0.341,0.341-0.682v-3.071c2.047-0.683,3.754-1.365,5.46-2.73l2.389,1.706c0.341,0,0.341,0.342,0.683,0l3.412-3.412
	c0.341-0.341,0-0.341,0-0.683l-2.047-2.389c0.683-1.023,1.024-2.047,1.706-3.071l36.171,2.389l0.683,2.048l0.341,0.341l2.047-0.341
	c0.683,1.023,1.365,2.389,2.389,3.071l-1.024,1.706v0.341l2.73,1.707h0.341l1.365-1.365c0.682,0.341,1.365,0.341,1.706,0.683
	c0.683,0,1.365,0.341,2.047,0.341l0.341,2.048l0.341,0.341l3.071-0.341c0.341,0,0.341-0.342,0.341-0.342v-2.047
	c1.365-0.342,2.389-1.024,3.413-1.706l1.365,1.364h0.341l2.047-2.389v-0.341l-1.365-1.365c0.683-1.023,1.365-2.389,1.706-3.754
	h2.047c0.341,0,0.341,0,0.341-0.341l0.341-3.071c0-0.341,0-0.341-0.341-0.341l-2.047-0.342c0-1.364-0.683-2.729-1.024-3.753
	l1.365-1.365c0,0,0.341-0.342,0-0.342l-1.706-2.389h-0.341l-1.707,1.024c-1.023-1.024-2.047-1.706-3.412-2.048l0.341-2.047
	c0,0,0-0.342-0.341-0.342l-3.071-0.683c0,0-0.341,0-0.341,0.342l-0.682,1.706l-0.683-2.73l3.071-3.07
	c0.341-0.342,0.341-0.683,0-0.683l-2.389-3.071c1.023-1.365,1.706-3.071,2.047-4.777h4.095c0.341,0,0.683-0.342,0.683-0.683
	l0.341-5.46c0-0.341-0.341-0.683-0.683-0.683l-3.754-0.683c-0.341-1.706-0.682-3.412-1.365-5.118l3.071-2.729
	c0.341-0.342,0.341-0.683,0-0.683l-3.413-4.437c-0.341-0.341-0.683-0.341-0.683,0l-3.412,2.048c-1.365-1.024-2.73-2.048-4.436-3.071
	l0.682-3.754c0-0.341,0-0.683-0.341-0.683l-5.46-1.364c-0.341,0-0.683,0-0.683,0.341l-1.365,3.754c-1.707,0-3.754,0-5.46,0.683
	l-2.047-3.413c0-0.341-0.341-0.341-0.683-0.341l-5.119,2.389c-0.341,0-0.341,0.341-0.341,0.683l1.365,3.753
	c-1.365,1.024-2.73,2.389-3.754,3.754l-3.753-1.364c-0.341,0-0.683,0-0.683,0.341l-2.389,5.118c0,0.342,0,0.683,0.341,0.683
	l3.413,2.048c-0.341,1.023-0.341,2.047-0.341,2.729l-20.815,11.943C133.083,1214.469,131.718,1213.445,130.012,1212.763
	L130.012,1212.763z M176.762,1236.99l-36.854-2.048c0-0.341,0.341-0.682,0.341-1.023h3.071c0.341,0,0.341-0.341,0.683-0.341
	l0.341-4.777c0-0.342-0.341-0.342-0.341-0.683l-3.071-0.342c-0.341-2.047-0.683-4.095-1.706-5.801l2.389-2.047
	c0.341-0.342,0.341-0.342,0-0.683l-2.73-3.754l12.625-7.166c0,0,0,0,0,0.341l1.707,5.46c0,0.342,0.341,0.342,0.682,0.342
	l3.754-0.683c0.683,1.706,2.047,3.071,3.071,4.437l-1.707,3.412c0,0.341,0,0.683,0,0.683l4.777,3.07c0.341,0.342,0.683,0,0.683,0
	l2.389-3.07c0.683,0.341,1.706,0.682,2.389,0.682c1.024,0.342,1.706,0.342,2.73,0.342l0.683,3.754c0,0.341,0.341,0.683,0.682,0.341
	l5.46-0.683c0.341,0,0.341-0.341,0.341-0.683v-4.095c1.706-0.683,3.412-1.364,4.777-2.389l3.071,2.389l0,0l0.682,2.048
	c-0.682,0-1.365,0.341-2.047,0.341l-1.023-1.706c0,0-0.341-0.341-0.341,0l-2.73,1.365c0,0-0.341,0.341,0,0.341l0.683,1.706
	c-1.024,0.683-2.048,1.707-2.73,2.73l-2.047-0.342h-0.341l-1.365,2.73v0.341l1.707,1.024c-0.341,1.364-0.341,2.729-0.341,4.095
	L176.762,1236.99L176.762,1236.99L176.762,1236.99z M126.6,1233.919c1.023-0.683,1.706-1.706,2.047-3.071
	c0.683-3.412-1.024-6.483-4.436-7.507l8.531-5.118c3.754,3.412,5.801,8.872,4.436,14.332c0,0.682-0.341,1.023-0.682,1.706
	L126.6,1233.919L126.6,1233.919L126.6,1233.919z M179.492,1237.332c-0.341-1.365-0.341-2.73,0-3.754
	c1.023-4.095,4.777-6.825,8.872-7.166l1.706,5.801c0,0,0,0-0.341,0c-2.047-0.683-4.095,0.683-4.777,2.729
	c-0.341,1.024,0,2.048,0.341,2.73L179.492,1237.332L179.492,1237.332L179.492,1237.332z M188.364,1239.721
	c2.047,0.341,3.753-1.024,4.436-3.071c0.341-0.683,0-1.706,0-2.389l-2.389-7.849c0.341,0,0.683,0,1.024,0.341
	c5.119,1.365,8.189,6.483,6.825,11.603c-1.365,5.118-6.483,8.189-11.602,6.824c-3.071-0.682-5.46-3.07-6.484-5.801L188.364,1239.721
	L188.364,1239.721L188.364,1239.721z M135.472,1236.308c-3.071,5.802-9.896,9.214-16.721,7.508
	c-7.849-2.048-12.626-9.896-10.919-18.086c2.047-7.849,9.896-12.626,18.085-10.92c1.706,0.342,3.413,1.365,5.119,2.389
	l-11.602,6.825l0,0c-1.365,0.683-2.389,2.047-3.071,3.754c-0.683,3.412,1.024,6.483,4.436,7.507c0.683,0,1.024,0.341,1.707,0.341
	L135.472,1236.308L135.472,1236.308L135.472,1236.308z M184.61,1213.104c-3.413,4.095-8.873,6.483-14.332,5.119
	c-6.825-1.707-11.261-8.19-10.579-15.356l4.777-2.729c-0.341,0.683-0.683,1.364-0.683,2.047c-0.682,2.73-0.341,5.46,1.024,7.849
	c1.365,2.389,3.412,4.095,6.142,4.777s5.46,0.342,7.849-1.023c2.047-1.023,3.413-3.071,4.436-5.46L184.61,1213.104L184.61,1213.104
	L184.61,1213.104z M183.586,1203.208c-0.341-1.365-0.683-2.73-1.365-4.095c-1.365-2.389-3.413-4.096-6.143-4.777
	c-2.389-0.683-5.119-0.342-7.166,1.023l0,0l-8.531,4.777c2.047-7.166,9.555-11.603,16.721-9.555
	c7.507,1.706,11.943,9.555,10.237,17.062c-0.341,1.024-0.682,2.389-1.365,3.413L183.586,1203.208L183.586,1203.208L183.586,1203.208
	z M155.264,1205.597v0.341l-2.389,1.023L155.264,1205.597L155.264,1205.597L155.264,1205.597z M181.539,1206.62
	c-0.683,2.048-2.047,4.095-3.754,5.118c-1.706,1.024-4.095,1.365-6.142,1.024c-2.047-0.683-4.095-2.048-5.119-3.754
	c-1.023-1.706-1.365-4.095-1.023-6.143c0.682-2.047,2.047-4.095,3.753-5.118s4.095-1.365,6.142-1.023
	c2.048,0.682,4.095,2.047,5.119,3.753l0,0C181.539,1202.184,181.88,1204.231,181.539,1206.62z"/>
<path fill="#5B8E9A" enable-background="new    " d="M1605.869,1272.82c-2.389,1.023-4.777,2.73-6.824,4.437l-33.441-19.451
	c0-1.364-0.342-3.071-0.683-4.777l5.46-3.071c0.341-0.341,0.682-0.682,0.341-1.023l-3.753-8.189
	c-0.342-0.342-0.684-0.683-1.024-0.342l-5.801,2.048c-1.706-2.389-3.754-4.437-5.802-6.143l2.048-5.801
	c0.341-0.341,0-1.023-0.341-1.365l-8.189-3.753c-0.342-0.342-1.024,0-1.365,0.341l-3.412,5.46c-2.73-0.683-5.461-1.023-8.531-1.023
	l-2.048-5.802c0-0.341-0.683-0.683-1.023-0.683l-8.531,2.048c-0.341,0-0.683,0.683-0.683,1.023l1.023,6.143
	c-2.729,1.365-5.118,2.729-7.166,4.777l-5.459-3.071c-0.342-0.341-1.023-0.341-1.365,0.342l-5.119,7.166
	c-0.341,0.341-0.341,1.023,0.342,1.364l4.777,4.095c-1.023,2.73-2.047,5.46-2.389,8.19l-6.143,1.023
	c-0.341,0-1.023,0.341-0.682,1.023l0.682,8.872c0,0.342,0.342,0.683,1.023,0.683h6.143c0.683,2.73,2.048,5.46,3.412,7.849
	l-4.095,4.777c-0.341,0.342-0.341,1.023,0,1.365l4.777,5.118l-1.364,4.437l-1.024-2.73c0-0.341-0.341-0.341-0.683-0.341
	l-4.777,1.365c-0.341,0-0.341,0.341-0.341,0.683l0.341,3.07c-2.047,1.024-3.753,2.048-5.118,3.413l-2.729-1.706
	c-0.342,0-0.683,0-0.683,0l-3.071,4.095c0,0.341,0,0.683,0,0.683l2.389,2.047c-1.023,2.048-1.365,3.754-1.706,6.143l-3.071,0.341
	c-0.342,0-0.342,0.342-0.342,0.683l0.342,5.119c0,0.341,0.342,0.341,0.683,0.341h3.071c0.682,2.048,1.365,4.095,2.389,5.801
	l-2.048,2.389c-0.341,0.342-0.341,0.683,0,0.683l3.413,3.754c0.341,0.341,0.341,0.341,0.682,0l2.389-2.048
	c1.707,1.365,3.754,2.048,5.801,2.73v3.071c0,0.341,0.342,0.682,0.342,0.682l5.119,0.683c0.341,0,0.341-0.341,0.682-0.341
	l0.684-3.071c1.023,0,2.047-0.341,3.07-0.341c1.023-0.342,2.048-0.683,3.071-1.024l2.048,2.389c0.341,0.342,0.341,0.342,0.682,0
	l4.096-2.729c0.341,0,0.341-0.342,0-0.683l-1.365-2.73c1.365-1.364,2.73-3.07,3.754-5.118l3.07,0.683c0.342,0,0.684,0,0.684-0.342
	l1.023-3.412l57.669-3.754c0.683,1.707,1.706,3.071,2.389,4.777l-3.071,3.754c-0.341,0.342-0.341,0.683,0,1.023l5.46,5.46
	c0.341,0.342,0.683,0.342,1.024,0l3.753-3.071c2.729,2.048,5.802,3.413,8.872,4.437v4.777c0,0.341,0.342,0.683,0.683,1.023
	l7.849,0.683c0.342,0,0.683-0.341,1.023-0.683l1.023-4.777c1.707,0,3.072-0.341,4.777-0.682c1.707-0.342,3.072-1.024,4.777-1.707
	l3.071,3.754c0.342,0.342,0.683,0.342,1.024,0.342l6.482-4.437c0.342-0.341,0.342-0.683,0.342-1.023l-2.389-4.095
	c2.389-2.389,4.436-5.119,5.801-7.849l4.777,1.023c0.342,0,1.023,0,1.023-0.683l2.048-7.507c0-0.342,0-0.683-0.683-1.024
	l-4.436-1.706c0.341-3.071,0-6.483-0.683-9.896l4.095-2.389c0.342-0.342,0.683-0.683,0.342-1.023l-3.071-7.166
	c-0.342-0.342-0.683-0.683-1.024-0.342l-4.436,1.365c-1.706-2.73-4.095-5.119-6.824-7.166l1.705-4.437c0-0.341,0-1.023-0.341-1.023
	l-6.825-3.412c-0.341-0.342-0.682,0-1.023,0.341l-2.389,4.095c-3.07-1.023-6.483-1.364-9.896-1.023l-1.706-4.437
	c0-0.341-0.683-0.683-1.023-0.683l-7.508,2.048c-0.342,0-0.683,0.683-0.683,1.023L1605.869,1272.82L1605.869,1272.82z
	 M1531.82,1311.38L1531.82,1311.38l-1.023-0.341c0.342-2.048,0-4.095-0.342-6.143l2.73-1.364c0.342,0,0.342-0.342,0.342-0.683
	l-2.048-4.437c0-0.341-0.341-0.341-0.683-0.341l-3.071,1.023c-1.364-1.706-2.729-3.412-4.437-4.437l1.024-2.729
	c0-0.341,0-0.683-0.341-0.683l-4.437-2.047c-0.341,0-0.683,0-0.683,0.341l-1.706,2.729c-1.024-0.341-2.389-0.682-3.413-0.682
	l0.684-3.071c0,0,0,0,0.341,0l4.777-3.754c2.389,1.706,4.777,2.729,7.507,3.754v6.143c0,0.341,0.342,1.023,0.683,1.023l8.872,1.023
	c0.342,0,1.023-0.341,1.023-0.683l1.365-6.142c1.365,0,2.73-0.342,4.096-0.683c1.364-0.342,2.729-0.683,4.094-1.365l4.096,4.777
	c0.341,0.341,0.683,0.683,1.365,0.341l7.507-5.118c0.341-0.341,0.341-0.683,0.341-1.365l-3.07-5.46
	c2.047-2.047,3.754-4.436,5.118-6.824l6.143,1.023c0.341,0,1.023,0,1.023-0.683l2.389-8.53v-0.342l20.133,11.603l-4.436,5.801
	c-0.342,0.341,0,0.683,0.341,1.023l3.754,3.071c-1.365,3.071-2.389,6.143-2.73,9.555l-4.777,0.683c-0.341,0-0.682,0.341-0.682,0.683
	l0.682,7.849c0,0.341,0.342,0.683,0.684,0.683h4.777c0,0.682,0.341,1.023,0.341,1.706L1531.82,1311.38L1531.82,1311.38z
	 M1611.67,1306.603L1611.67,1306.603l-15.696,1.024c-0.342-0.683-0.683-1.706-0.683-2.73c-2.048-8.53,0.683-17.403,6.824-22.862
	l13.65,7.848c-5.119,1.365-8.19,6.484-7.166,11.603C1608.94,1303.532,1609.965,1305.238,1611.67,1306.603L1611.67,1306.603z
	 M1527.043,1311.722L1527.043,1311.722l-9.555,0.683c0.683-1.365,1.023-3.071,0.683-4.777c-0.683-3.413-4.095-5.46-7.507-4.437
	h-0.342l2.73-9.213c6.483,0.341,12.284,4.777,13.99,11.602C1527.385,1307.627,1527.385,1309.674,1527.043,1311.722
	L1527.043,1311.722z M1513.394,1315.476L1513.394,1315.476l13.309-0.683c-1.706,4.436-5.46,8.189-10.579,9.213
	c-8.189,2.048-16.379-3.071-18.426-10.919c-2.048-8.19,3.07-16.38,10.919-18.427c0.341,0,1.024-0.342,1.365-0.342l-3.413,12.626
	c-0.341,1.023-0.682,2.389-0.341,3.754C1506.91,1313.769,1509.981,1315.816,1513.394,1315.476L1513.394,1315.476z
	 M1596.997,1310.356L1596.997,1310.356l20.815-1.365c0.683,0,1.707,0,2.389-0.341c5.119-1.365,8.531-6.483,7.166-11.943
	c-0.682-2.729-2.389-4.777-4.777-6.143l0,0l-18.427-10.578c2.389-1.706,5.118-3.071,7.849-3.754
	c12.626-3.071,25.252,4.437,28.664,17.063c3.071,12.625-4.436,25.251-17.063,28.664
	C1612.694,1324.688,1602.115,1319.57,1596.997,1310.356L1596.997,1310.356z M1518.854,1273.162L1518.854,1273.162l2.389-8.19
	c1.365,3.754,3.754,6.483,6.824,8.531c3.413,2.048,7.85,3.071,12.285,1.706c4.436-1.023,7.849-3.754,9.896-7.507
	c2.047-3.413,3.07-7.849,1.705-12.285c-0.341-1.023-0.682-2.047-1.023-3.071l7.508,4.437c1.365,10.92-5.801,21.498-16.721,24.228
	C1533.186,1283.398,1524.313,1279.986,1518.854,1273.162L1518.854,1273.162z M1520.56,1257.465L1520.56,1257.465l-3.412,12.626
	c-1.024-1.707-1.706-3.413-2.048-5.119c-3.07-11.943,4.437-24.228,16.38-26.958c11.603-3.07,23.546,4.096,26.958,15.356
	l-13.65-7.849c0,0,0,0-0.341,0c-3.412-1.706-7.507-2.389-11.603-1.365c-4.436,1.023-7.848,3.754-9.896,7.508
	C1521.584,1253.028,1520.9,1255.076,1520.56,1257.465L1520.56,1257.465z M1565.944,1260.877L1565.944,1260.877l3.754,2.048
	l-3.754-1.365C1565.944,1261.56,1565.944,1261.219,1565.944,1260.877L1565.944,1260.877z M1525.337,1252.688L1525.337,1252.688
	c1.706-2.73,4.437-5.119,7.849-5.801c3.412-1.024,6.824-0.342,9.896,1.364c2.729,1.706,5.118,4.437,5.801,7.849
	c1.023,3.412,0.341,6.825-1.365,9.896c-1.706,2.73-4.436,5.119-7.849,5.802c-3.412,1.023-6.825,0.341-9.896-1.365
	c-2.73-1.706-5.119-4.437-5.801-7.849C1522.948,1259.171,1523.631,1255.759,1525.337,1252.688z"/>
<path fill="#5B8E9A" d="M128.988,1190.582c4.777-0.342,5.119,4.777,0.341,6.143c-4.777,1.364-7.166-3.071-2.73-5.46l-5.801-21.498
	c-5.801-0.683-4.095-9.214,1.365-7.849c3.412,1.023,4.095,5.118,1.365,7.166L128.988,1190.582z"/>
<path fill="#CC9E00" d="M125.917,1101.178l-2.047,24.228l-7.849,1.365l5.119,39.583l-17.062-42.313l7.507-6.483l-5.801-23.545
	c0.341,0,0.682-0.342,1.365-0.683C112.268,1097.765,118.751,1100.836,125.917,1101.178z"/>
<path fill="#5B8E9A" d="M1910.937,1099.13c-4.436,0-4.436,4.437,0,5.46c4.437,1.023,6.483-2.73,2.39-4.777l5.459-20.475
	c5.119-0.341,3.754-8.189-1.365-6.824c-2.729,0.682-3.412,4.436-1.023,6.142L1910.937,1099.13z"/>
<path fill="#5B8E9A" d="M1789.797,1266.678c4.777-0.341,5.119,4.777,0.342,6.143s-7.166-3.071-2.73-5.46l-4.777-17.744
	c-5.801-0.683-4.095-9.214,1.365-7.849c3.412,1.023,4.095,5.118,1.365,7.166L1789.797,1266.678z"/>
<path fill="#CC9E00" d="M1780.242,1167.378l-13.99,32.417l11.943,2.048l-1.707,14.332l8.19,6.825l-2.389,23.204l11.261-29.347
	l-5.801-3.754l9.896-17.062l-10.237-2.389c6.143-10.579,11.943-19.451,18.086-29.688c-6.143,3.071-13.309,4.437-19.792,4.437
	C1783.996,1167.719,1782.29,1167.378,1780.242,1167.378z"/>
<path fill="#5B8E9A" d="M105.443,1401.468c-4.436,2.389-2.047,6.824,3.071,5.459c4.777-1.364,4.777-6.483-0.341-6.142l-10.92-40.949
	c4.777-3.412-1.023-10.237-5.119-6.143c-2.389,2.389-1.023,6.484,2.389,6.825l3.754,14.332L105.443,1401.468z"/>
<path fill="#CC9E00" d="M98.277,1261.9l-15.015,44.703l16.379,2.729l-5.119,47.432l31.735-55.963l-13.991-3.412l19.792-27.641
	l7.166-9.896c-3.071-0.683-4.777-1.365-6.484-3.412C124.894,1265.995,109.538,1266.678,98.277,1261.9z"/>
<path fill="#5B8E9A" d="M1575.499,1467.668l5.118-18.427c-4.777-3.413,1.024-10.237,5.119-6.143
	c2.389,2.389,1.023,6.483-2.389,6.825l-4.777,17.744H1575.499L1575.499,1467.668z"/>
<path fill="#CC9E00" d="M1587.442,1327.419l4.437,58.352l-18.428-0.342l9.214,60.741l-32.417-77.462l17.744,0.683l-9.896-26.275
	C1570.381,1342.774,1580.959,1336.632,1587.442,1327.419z"/>
<path fill="#5B8E9A" d="M759.938,1434.909c4.437,2.389,2.048,6.824-3.071,5.459c-4.777-1.364-4.777-6.483,0.342-6.142l8.531-32.076
	c-4.777-3.413,1.023-10.237,5.118-6.143c2.389,2.389,1.023,6.483-2.389,6.824L759.938,1434.909z"/>
<path fill="#5B8E9A" d="M136.837,1032.247c-4.095,0-4.437,4.095,0,5.46c4.095,1.023,6.142-2.73,2.389-4.777l4.777-18.427
	c4.777-0.342,3.412-7.849-1.365-6.825c-2.73,0.683-3.412,4.437-1.023,6.143L136.837,1032.247z"/>
<path fill="#5B8E9A" d="M1938.236,1377.239c-7.849,4.095-3.413,12.285,5.459,9.896c8.873-2.389,8.531-11.603-0.341-11.262
	l-10.578-38.9c8.53-5.802-2.048-18.427-9.214-10.92c-4.436,4.437-1.706,11.602,4.437,12.284L1938.236,1377.239z"/>
<path fill="#B8B8B8" d="M1798.669,881.761c-1.364,0-2.389,0-3.753,0.341c-2.73-42.654-55.622-62.105-85.992-28.322
	c4.436,2.729,8.872,7.507,9.896,11.943c-20.815-21.157-60.058-8.872-60.058,23.545c-63.813,0-63.813,97.254,0,97.254
	c12.284,0,25.934,0,38.219,0c-2.048-2.73-3.412-12.285-2.73-15.356c12.626,39.925,65.859,44.702,86.675,15.356
	c34.807,0,85.992,8.53,85.992-34.124c0-25.593-28.323-43.679-50.162-28.664c1.365-3.071,7.849-9.896,15.697-11.261
	C1830.746,895.069,1816.414,881.761,1798.669,881.761z"/>
<path fill="#5B8E9A" enable-background="new    " d="M1657.396,916.908c-2.389,0.342-4.777,1.365-6.824,2.389
	c-3.754-3.754-2.048-3.754-7.508,1.023c-0.683,0.683,1.023,2.389,2.047,3.754c-1.364,1.706-2.729,3.754-3.412,6.143
	c-5.118-0.342-3.754-1.706-5.118,5.801c0,0.683,2.048,1.023,3.753,1.706c0,2.389,0.342,4.777,1.365,7.166
	c-4.095,3.071-4.095,1.365-0.341,7.849c0.341,0.683,2.389-0.683,4.095-1.365c1.706,1.707,3.412,3.413,5.46,4.437
	c-1.365,5.118-2.048,3.412,4.777,6.143c0.683,0.341,1.364-2.048,2.389-3.413h7.166c2.389,4.777,0.683,4.096,7.507,1.707
	c0.683-0.342,0-2.389-0.682-4.096c2.047-1.364,3.753-2.729,5.459-4.436c4.437,2.047,3.412,2.389,5.119-1.023l29.005,7.507
	c0.341,1.706,0.683,3.412,1.365,5.118c-2.389,1.707-5.118,3.071-4.095,4.096l4.777,8.189c0.682,1.365,3.07-0.342,5.801-1.706
	c2.047,2.389,4.436,4.436,7.166,5.801c-0.683,3.071-1.706,5.46-0.683,6.143l8.872,3.412c1.365,0.341,2.048-2.389,3.412-4.777h9.214
	c1.365,2.729,2.048,5.46,3.413,4.777l8.871-3.412c1.365-0.342,0-3.071-0.682-6.143c2.729-1.706,5.118-3.754,7.166-5.801
	c2.729,1.023,5.118,2.729,5.801,1.706l4.777-8.189c0.683-1.365-1.706-2.389-4.095-4.096c0.683-1.706,1.023-3.412,1.364-5.459
	l42.314,1.023l2.047,3.754c0.342,0.682,1.707-0.342,3.071-1.024c1.024,1.365,2.389,2.389,4.095,3.413
	c-1.023,3.753-1.706,2.729,3.412,4.436c0.684,0.342,1.024-1.365,1.707-2.729h5.459c1.707,3.412,0.342,3.071,5.461,1.023
	c0.682-0.341,0-2.048-0.342-3.071c1.706-1.023,3.071-2.047,4.095-3.412c3.413,1.706,2.389,2.047,5.118-2.73
	c0.342-0.682-1.364-1.364-2.389-2.047c0.684-1.706,1.024-3.412,1.024-5.119c3.753-1.023,3.071,0,2.047-5.459
	c0-0.683-2.047-0.342-3.071,0c-0.682-1.707-1.365-3.071-2.729-4.437c2.048-3.071,2.389-2.048-1.706-5.46
	c-0.342-0.341-1.706,1.023-2.389,1.706c-1.365-1.023-3.071-1.364-5.119-1.706c-0.341-3.754,0.683-3.071-4.777-3.071
	c-0.682,0-0.682,1.706-0.682,3.071c-1.707,0.342-3.413,1.023-5.119,1.706c-2.73-2.729-1.365-2.729-5.801,0.683
	c-0.342,0.342,0.682,1.706,1.365,2.73c-0.684,1.023-1.365,2.047-2.048,3.07l-40.607,2.048c-1.365-6.825,0-5.801-6.825-5.46
	c-1.023-3.071-2.729-5.46-4.777-8.189c1.707-2.389,3.754-4.437,2.73-5.46l-7.166-6.143c-1.023-1.023-2.73,1.365-4.777,3.413
	c-0.342,0-0.342-0.342-0.683-0.342l1.023-17.062c1.706-1.024,3.412-2.048,4.777-3.071c2.048,1.365,4.777,3.412,5.46,2.729
	l4.436-5.801c0.683-1.023-2.047-3.071-3.753-4.437c1.023-2.047,1.706-4.436,2.047-6.824c2.389-0.342,5.802-0.342,5.802-1.365
	l-0.342-7.507c0-1.024-3.412-1.024-5.801-1.024c-0.683-2.389-1.365-4.436-2.73-6.483c1.707-1.706,4.437-4.095,3.413-4.777
	l-4.778-5.46c-0.682-1.023-3.07,1.707-5.118,3.071c-1.706-1.364-4.095-2.389-6.142-3.412c0-2.389,0.682-5.801-0.342-6.143
	l-7.166-1.023c-1.023,0-1.365,3.412-2.047,5.801c-2.389,0-4.777,0.683-6.825,1.365c-1.364-2.048-3.071-4.777-4.095-4.437
	l-6.143,3.754c-1.023,0.683,1.023,3.412,2.048,5.801c-1.706,1.707-3.071,3.413-4.437,5.46c-2.389-0.683-5.459-1.706-6.142-0.683
	l-2.39,7.166c-0.341,1.024,3.072,2.048,5.119,3.071c0,1.365-0.342,2.73,0,4.095l-46.067,31.395
	c-2.729-2.389-1.706-2.389-5.118,1.023c-2.048-1.023-4.437-2.047-6.825-2.389c-0.341-5.118,1.024-4.095-6.483-4.095
	C1657.396,912.813,1657.396,915.202,1657.396,916.908L1657.396,916.908z M1773.759,955.127L1773.759,955.127
	c0-0.683,0-1.023,0-1.706c6.483-2.048,5.802-1.023,5.118-5.118l36.172-2.048c-0.683,4.777-1.365,3.754,2.047,4.777
	c0,1.706,0.342,3.412,1.023,5.118L1773.759,955.127L1773.759,955.127z M1827.674,956.492L1827.674,956.492h-6.142
	c-1.365-3.071-1.706-6.825,0-10.237l6.142-0.341C1824.604,948.644,1824.604,953.421,1827.674,956.492L1827.674,956.492z
	 M1765.91,954.786L1765.91,954.786l-8.531-0.342c0-0.683,0-1.023,0-1.706c4.096-1.023,3.754-0.341,3.072-3.412l5.118-0.342
	L1765.91,954.786L1765.91,954.786z M1752.602,954.444L1752.602,954.444l-6.824-0.341c0.683-1.365,0.683-3.071,0-4.095l6.483-0.342
	L1752.602,954.444L1752.602,954.444z M1742.706,956.15L1742.706,956.15l9.214,0.342c-4.437,10.237-19.792,7.166-19.792-4.095
	c0-10.92,14.673-14.332,19.45-4.777l-9.213,0.341C1736.905,948.303,1737.246,956.492,1742.706,956.15L1742.706,956.15z
	 M1757.038,956.492L1757.038,956.492l8.531,0.341c-2.048,10.92-11.603,19.451-23.204,19.451c-10.578,0-19.451-6.825-22.521-16.721
	l6.142,1.706c2.048,3.412,1.024,3.071,5.118,1.365c1.024,1.023,2.048,2.047,3.413,2.729c-1.024,4.437-2.048,3.071,3.753,5.118
	c0.684,0.342,1.365-1.706,2.048-3.07h4.437c2.047,4.095,0.682,3.753,6.143,1.706c0.682-0.342,0-2.389-0.684-3.754
	c1.365-0.683,2.389-1.706,3.413-2.729c4.095,2.047,2.729,2.389,5.801-2.73c0.341-0.683-1.706-1.706-2.729-2.389
	C1756.697,956.833,1757.038,956.833,1757.038,956.492L1757.038,956.492z M1822.556,958.198L1822.556,958.198l10.579,0.341
	c9.555,0,10.236-14.673,0-15.355l-10.92,0.683c6.824-10.237,23.204-5.46,23.204,7.166
	C1845.76,963.316,1829.723,968.436,1822.556,958.198L1822.556,958.198z M1765.228,946.938L1765.228,946.938l-5.118,0.341
	c-0.342-1.023-0.342-0.683-3.754-0.341c-0.341-0.683-0.682-1.365-1.023-2.048l0.342-3.753c0.34-0.683,1.023-0.683,0-1.365
	l0.34-6.143C1760.792,936.7,1764.204,941.478,1765.228,946.938L1765.228,946.938z M1683.33,948.303L1683.33,948.303
	c1.024-1.707,1.024-1.024-2.729-3.754c0.683-2.048,1.365-4.437,1.365-7.166c5.118-1.365,4.095,0,2.729-7.166
	c0-0.683-2.389-0.342-4.095-0.342c-0.683-2.389-2.048-4.436-3.412-6.142c2.389-3.754,2.729-3.071,1.023-4.437l39.583-26.958
	l2.73,7.508c0.342,1.023,3.412-0.342,5.801-1.024c1.365,2.048,2.73,3.754,4.777,5.119c-1.023,2.389-2.729,5.118-1.706,5.801
	l6.483,3.412c1.023,0.683,2.389-2.729,3.754-4.777l6.824,1.024c0.684,2.389,1.365,5.801,2.389,5.46l5.802-1.365l-0.683,9.213
	c-2.047-0.682-4.095-1.364-6.143-2.047c-0.341-3.071,0-5.801-1.365-5.801h-9.555c-1.364,0-1.023,2.729-1.364,5.801
	c-3.071,0.683-6.143,1.706-8.872,3.071c-2.048-2.048-3.754-4.437-4.777-3.413l-7.166,6.143c-1.023,1.023,1.023,3.071,2.729,5.46
	c-2.048,2.389-3.412,5.118-4.777,8.189c-3.071-0.341-5.801-1.023-6.142,0.342l-1.707,9.555c-0.341,1.364,2.73,1.706,5.46,2.389
	c0,0.683,0,1.364,0,1.706L1683.33,948.303L1683.33,948.303z M1725.645,958.881L1725.645,958.881l-6.143-1.706
	c-4.095-20.134,17.403-35.489,35.147-25.252l-0.341,5.801c-2.048-1.706-1.365-1.706-4.437,1.024
	c-1.364-0.683-2.729-1.365-4.095-1.365c-0.342-4.777,0.683-3.754-5.46-3.754c-0.683,0-0.683,2.048-0.683,3.754
	c-1.365,0.341-2.729,0.683-4.095,1.365c-3.412-3.071-1.706-3.413-6.483,0.682c-0.683,0.342,1.023,2.048,1.706,3.413
	c-1.023,1.023-1.706,2.389-2.048,3.753c-4.777-0.341-3.412-1.364-4.436,4.777c0,0.683,2.047,1.024,3.412,1.365
	c0,1.365,0.342,3.071,0.683,4.437L1725.645,958.881L1725.645,958.881z M1675.823,946.255L1675.823,946.255l-10.919-2.729
	c5.459-3.413,3.753-11.603-2.39-12.968l9.555-6.483C1678.212,929.534,1679.918,939.089,1675.823,946.255L1675.823,946.255z
	 M1660.468,944.549L1660.468,944.549l13.991,3.412c-9.896,12.626-30.712,5.801-30.712-10.578c0-13.649,15.015-21.498,26.275-14.674
	l-12.284,8.19C1650.913,935.335,1653.984,944.207,1660.468,944.549L1660.468,944.549z M1739.635,875.618L1739.635,875.618
	l-13.309,8.872c0-2.729,1.024-5.459,2.048-8.189c2.048-4.095,5.802-7.507,9.896-9.213c9.214-4.096,19.451-0.683,25.252,7.507
	c2.73,4.095,3.754,9.214,3.071,13.991c-0.683,5.801-4.095,10.919-8.872,13.99l1.023-17.403c0-2.729-1.023-5.118-2.389-7.166
	C1752.602,872.547,1745.095,871.523,1739.635,875.618L1739.635,875.618z M1719.502,891.656L1719.502,891.656l3.412-2.389v0.342
	L1719.502,891.656L1719.502,891.656z M1726.668,886.879L1726.668,886.879l9.213-6.142c-5.459,12.967,12.627,23.204,20.816,11.943
	l-0.684,11.261c-3.753,1.706-7.848,2.389-11.943,2.047C1734.517,904.282,1727.351,896.434,1726.668,886.879L1726.668,886.879z
	 M1747.483,881.42L1747.483,881.42c5.118,0.682,4.095,8.53-1.023,7.848C1741,888.586,1742.365,880.737,1747.483,881.42
	L1747.483,881.42z M1741,877.324L1741,877.324c7.166-5.459,17.063,0.683,16.038,9.214c-1.364,8.872-12.626,11.603-17.744,4.777
	C1735.54,886.879,1736.564,880.737,1741,877.324z"/>
<path fill="#5B8E9A" d="M1809.93,895.41c-6.142-1.706-7.848,4.437-2.389,7.508c5.46,3.07,10.238-1.365,5.46-5.802l21.157-36.513
	c7.166,1.365,8.189-10.236,1.023-10.236c-4.436,0-6.824,5.118-4.095,8.53L1809.93,895.41z"/>
<g id="background">
</g>
</svg>
