<?xml version="1.0" encoding="utf-8"?>
<!-- Generator: Adobe Illustrator 19.2.1, SVG Export Plug-In . SVG Version: 6.00 Build 0)  -->
<svg version="1.1" id="Layer_1" xmlns="http://www.w3.org/2000/svg" xmlns:xlink="http://www.w3.org/1999/xlink" x="0px" y="0px"
	 viewBox="0 0 275.985 275.985" enable-background="new 0 0 275.985 275.985" xml:space="preserve">
<g>
	<path fill-rule="evenodd" clip-rule="evenodd" fill="#7DE6FF" d="M137.994,271.139c73.335,0,133.147-59.812,133.147-133.147
		S211.329,4.846,137.994,4.846S4.847,64.657,4.847,137.993S64.659,271.139,137.994,271.139z"/>
	<path fill-rule="evenodd" clip-rule="evenodd" fill="#2D1B1F" d="M137.993,0c38.103,0,72.604,15.447,97.575,40.417
		s40.417,59.472,40.417,97.575c0,38.105-15.447,72.605-40.417,97.575c-24.97,24.97-59.471,40.417-97.575,40.417
		c-38.104,0-72.605-15.447-97.575-40.417C15.447,210.597,0,176.097,0,137.993c0-38.103,15.447-72.605,40.417-97.575
		S99.888,0,137.993,0L137.993,0z M228.715,47.27C205.498,24.054,173.42,9.693,137.993,9.693c-35.43,0-67.506,14.361-90.722,37.577
		C24.054,70.487,9.693,102.565,9.693,137.993c0,35.429,14.361,67.506,37.577,90.722c23.216,23.216,55.293,37.577,90.722,37.577
		c35.428,0,67.506-14.361,90.722-37.577c23.216-23.216,37.577-55.293,37.577-90.722C266.292,102.565,251.931,70.487,228.715,47.27z"
		/>
	<g>
		<path fill-rule="evenodd" clip-rule="evenodd" fill="#E6E6E6" d="M210.454,111.213c-2.9,5.77-8.158,10.328-14.89,12.131
			c-5.547,1.487-11.161,0.853-15.986-1.402l-58.618,58.617c0.067,0.223,0.132,0.448,0.192,0.676
			c3.351,12.51-4.073,25.37-16.583,28.722c-7.117,1.907-14.346,0.326-19.872-3.694c-2.871-2.088,0.81-2.546,3.805-3.349
			l12.698-3.402l1.868-6.965l1.867-6.965l-5.1-5.098l-5.101-5.101l-13.036,3.494c-3.508,0.939-5.206-0.006-4.156-2.092
			c2.9-5.772,8.156-10.328,14.888-12.133c5.547-1.487,11.162-0.853,15.987,1.401l58.616-58.616
			c-0.067-0.223-0.132-0.448-0.193-0.674c-3.351-12.511,4.073-25.371,16.585-28.724c7.115-1.905,14.346-0.327,19.87,3.695
			c2.873,2.088-0.809,2.546-3.805,3.349l-12.696,3.402l-1.869,6.965l-1.867,6.965l5.102,5.098l5.1,5.1l13.037-3.492
			C209.804,108.18,211.502,109.125,210.454,111.213z"/>
		<path fill-rule="evenodd" clip-rule="evenodd" fill="#2D1B1F" d="M212.763,112.549c-1.643,3.221-3.949,6.098-6.782,8.407
			c-2.777,2.262-6.059,3.988-9.726,4.969c-3.033,0.813-6.085,1.056-9.034,0.799c-2.415-0.21-4.776-0.766-7.017-1.625l-56.265,56.264
			c1.566,6.695,0.393,13.439-2.82,19.004l-0.087,0.139c-3.354,5.725-8.872,10.182-15.772,12.031
			c-3.876,1.037-7.796,1.143-11.509,0.453c-3.864-0.718-7.496-2.293-10.621-4.566c-2.582-1.878-2.773-3.664-1.499-5.418
			l-0.002-0.001c1.007-1.386,2.952-1.866,4.993-2.366c0.284-0.068,0.616-0.153,1.19-0.305l11.208-3.001l1.468-5.475l1.469-5.483
			l-4.002-4l-0.005-0.005l-0.006,0.005l-4.01-4.011l-11.546,3.094c-1.613,0.432-3.005,0.544-4.098,0.382
			c-1.009-0.149-1.845-0.527-2.485-1.111l-0.085-0.082c-0.759-0.731-1.152-1.666-1.149-2.771v-0.011
			c0.003-0.729,0.195-1.498,0.59-2.281l0.072-0.135c1.641-3.221,3.946-6.098,6.779-8.407c2.777-2.262,6.06-3.988,9.728-4.971
			c3.032-0.813,6.084-1.056,9.033-0.799c2.415,0.211,4.776,0.766,7.019,1.624l56.263-56.263c-1.567-6.692-0.392-13.429,2.82-18.994
			l0.005-0.008l-0.005-0.003c3.343-5.786,8.893-10.304,15.86-12.171c3.876-1.037,7.796-1.143,11.51-0.453
			c3.846,0.716,7.476,2.294,10.611,4.574l0.006-0.007c2.585,1.881,2.776,3.67,1.503,5.42c-0.088,0.123-0.187,0.235-0.291,0.338
			c-1.066,1.136-2.843,1.574-4.705,2.028c-0.283,0.068-0.617,0.152-1.19,0.305l-11.205,3.001l-1.469,5.475l-1.471,5.483l4.004,4
			l4.014,4.012l11.553-3.095c1.611-0.431,3.004-0.544,4.096-0.382c1.001,0.146,1.842,0.527,2.486,1.11
			c0.818,0.746,1.242,1.712,1.235,2.866c-0.003,0.725-0.193,1.497-0.588,2.28L212.763,112.549L212.763,112.549z M202.617,116.819
			c1.803-1.468,3.334-3.219,4.542-5.164l-0.171,0.045l-13.037,3.492l-0.002-0.005c-0.886,0.236-1.872,0.008-2.568-0.684l-5.1-5.1
			l-4.991-4.987c-0.733-0.649-1.082-1.68-0.812-2.691l1.868-6.965l1.867-6.953c0.236-0.898,0.932-1.648,1.893-1.902l12.696-3.402
			l0.52-0.128c-1.877-1.008-3.915-1.732-6.035-2.126c-2.947-0.547-6.068-0.46-9.17,0.37c-5.545,1.486-9.963,5.081-12.623,9.684
			l-0.004-0.003c-2.655,4.604-3.554,10.226-2.068,15.774l-0.006,0.001l0.066,0.235l0.012,0.039l0.05,0.169
			c0.347,0.946,0.14,2.051-0.619,2.81l-58.616,58.616l-0.007-0.007c-0.77,0.77-1.969,1.018-3.012,0.529
			c-2.162-1.009-4.522-1.652-6.975-1.866c-2.356-0.206-4.785-0.014-7.195,0.631c-2.931,0.785-5.545,2.157-7.744,3.947
			c-1.8,1.467-3.333,3.217-4.539,5.162l0.171-0.044l12.931-3.465c0.919-0.285,1.96-0.065,2.686,0.662l5.1,5.1l-0.005,0.005
			l4.983,4.982c0.733,0.649,1.08,1.681,0.811,2.691l-1.867,6.966l-1.865,6.953c-0.236,0.897-0.933,1.647-1.893,1.902l-12.698,3.401
			l-0.51,0.127c1.883,1.012,3.916,1.734,6.029,2.126c2.946,0.547,6.067,0.46,9.169-0.37c5.498-1.474,9.885-5.008,12.547-9.546
			l0.074-0.137c2.657-4.602,3.557-10.226,2.073-15.768l0.005-0.002l-0.066-0.238l-0.011-0.037l-0.05-0.168
			c-0.346-0.947-0.14-2.052,0.619-2.81l58.618-58.618l0.007,0.006c0.77-0.77,1.969-1.017,3.012-0.529
			c2.162,1.01,4.52,1.654,6.973,1.868c2.356,0.205,4.787,0.013,7.195-0.632C197.807,119.98,200.419,118.609,202.617,116.819z"/>
	</g>
	<g>
		<path fill-rule="evenodd" clip-rule="evenodd" fill="#716358" d="M85.247,89.035l3.786-3.786c2.678-2.678,7.058-2.682,9.74,0
			l104.58,104.58c1.868,1.868,1.871,4.936-0.002,6.809l-6.714,6.714c-1.872,1.873-4.941,1.87-6.808,0.002L85.247,98.774
			C82.567,96.094,82.57,91.713,85.247,89.035z"/>
		<path fill-rule="evenodd" clip-rule="evenodd" fill="#2D1B1F" d="M83.358,87.144l3.786-3.786l0.002-0.002l0.179-0.163
			c1.839-1.752,4.211-2.629,6.579-2.629c2.439,0,4.885,0.932,6.747,2.793l0.005,0.005l0.006-0.005l0.001,0.002L205.244,187.94
			c1.454,1.454,2.185,3.376,2.185,5.294c0,1.909-0.73,3.827-2.187,5.286l-0.005,0.005l0.005,0.005l-6.714,6.713
			c-1.453,1.453-3.375,2.177-5.295,2.178v0.011c-1.917,0-3.841-0.731-5.296-2.186L83.358,100.665l-0.002-0.002
			c-1.861-1.861-2.792-4.313-2.792-6.759c0-2.44,0.934-4.886,2.792-6.748l0.006-0.005l-0.006-0.005L83.358,87.144L83.358,87.144z
			 M90.925,87.139l-3.786,3.786l-0.002,0.002l-0.005-0.006c-0.81,0.815-1.22,1.896-1.22,2.983c0,1.082,0.41,2.163,1.226,2.979
			l0.002,0.001l104.581,104.58c0.412,0.413,0.962,0.62,1.515,0.62v0.01c0.542,0,1.093-0.211,1.514-0.632l6.714-6.712l0.005,0.005
			c0.408-0.413,0.615-0.966,0.615-1.521c0-0.551-0.207-1.101-0.619-1.513L96.882,87.14l-0.001-0.001l0.005-0.005
			c-0.817-0.812-1.898-1.221-2.982-1.221c-1.038,0-2.07,0.373-2.872,1.113l-0.106,0.112L90.925,87.139z"/>
		<path fill-rule="evenodd" clip-rule="evenodd" fill="#E6E6E6" d="M145.487,99.86l-45.63,45.63c-2.581,2.581-6.804,2.581-9.384,0
			l-17.31-17.31c-2.58-2.58-2.58-6.803,0-9.384l45.63-45.63c2.581-2.58,6.804-2.58,9.385,0l17.31,17.31
			C148.068,93.057,148.068,97.279,145.487,99.86z"/>
		<path fill-rule="evenodd" clip-rule="evenodd" fill="#2D1B1F" d="M147.378,101.751l-45.63,45.63
			c-1.811,1.811-4.198,2.719-6.582,2.719c-2.375,0-4.76-0.908-6.572-2.719l-0.005-0.006l-0.005,0.006L71.273,130.07l-0.002-0.002
			c-1.811-1.811-2.718-4.196-2.718-6.58h0.011c-0.002-2.381,0.903-4.766,2.706-6.57l0.005-0.005l-0.005-0.006l0.001-0.001
			l45.63-45.63l0.002-0.002c1.811-1.811,4.199-2.718,6.582-2.718s4.769,0.907,6.58,2.718l0.002,0.002l17.31,17.309l0.158,0.171
			c1.706,1.792,2.56,4.106,2.56,6.412C150.096,97.551,149.19,99.939,147.378,101.751L147.378,101.751z M97.966,143.6l45.63-45.63
			c0.768-0.768,1.152-1.785,1.152-2.801c0-0.975-0.348-1.946-1.042-2.699l-0.11-0.103l-17.31-17.309l-0.002-0.002
			c-0.767-0.767-1.783-1.151-2.799-1.151c-1.017,0-2.034,0.383-2.802,1.151l-0.001,0.002l-45.63,45.63l-0.002,0.001l-0.005-0.005
			c-0.769,0.773-1.155,1.79-1.155,2.805h0.01c0,1.016,0.385,2.032,1.152,2.799l0.002,0.002L92.364,143.6l-0.006,0.005
			c0.768,0.762,1.786,1.147,2.808,1.147C96.181,144.752,97.199,144.367,97.966,143.6z"/>
		<path fill-rule="evenodd" clip-rule="evenodd" fill="#DBB55A" d="M74.904,117.248l57.46,2.226
			c5.297,0.204,6.989-7.976,1.691-8.182l-57.459-2.226C71.01,108.848,69.898,117.055,74.904,117.248z"/>
		<path fill-rule="evenodd" clip-rule="evenodd" fill="#2D1B1F" d="M74.998,114.584l57.459,2.226h0.011
			c0.91,0.035,1.586-0.547,1.913-1.254c0.122-0.262,0.198-0.542,0.221-0.812c0.018-0.207,0.003-0.394-0.047-0.539
			c-0.045-0.132-0.231-0.236-0.593-0.25l-57.46-2.226h-0.01c-0.957-0.038-1.607,0.486-1.904,1.134
			c-0.112,0.246-0.182,0.518-0.202,0.788c-0.017,0.233,0,0.444,0.054,0.606C74.498,114.433,74.679,114.572,74.998,114.584
			L74.998,114.584z M132.26,122.136l-57.449-2.226c-2.918-0.112-4.696-1.778-5.428-3.961c-0.288-0.86-0.393-1.786-0.324-2.694
			c0.064-0.875,0.296-1.768,0.681-2.606c1.113-2.427,3.488-4.381,6.959-4.246l57.449,2.226c2.964,0.113,4.732,1.717,5.464,3.843
			c0.297,0.864,0.396,1.8,0.316,2.732c-0.075,0.869-0.314,1.757-0.699,2.587C138.087,120.252,135.647,122.268,132.26,122.136z"/>
		<path fill-rule="evenodd" clip-rule="evenodd" fill="#DBB55A" d="M82.657,109.301l57.46,2.227
			c5.297,0.204,6.989-7.976,1.691-8.182l-57.459-2.226C78.763,100.902,77.651,109.107,82.657,109.301z"/>
		<path fill-rule="evenodd" clip-rule="evenodd" fill="#2D1B1F" d="M82.751,106.638l57.461,2.227
			c0.915,0.035,1.595-0.547,1.922-1.254c0.122-0.262,0.199-0.542,0.221-0.812c0.018-0.213,0.004-0.404-0.045-0.549l-0.012-0.036
			c-0.07-0.11-0.256-0.194-0.582-0.205l-57.461-2.227h-0.01c-0.956-0.037-1.606,0.485-1.902,1.134
			c-0.113,0.246-0.183,0.517-0.202,0.786c-0.017,0.233,0,0.444,0.054,0.606l0.017,0.052
			C82.283,106.513,82.458,106.628,82.751,106.638L82.751,106.638z M140.024,114.191l-57.461-2.226
			c-2.844-0.109-4.606-1.699-5.369-3.808l-0.058-0.155c-0.287-0.86-0.393-1.786-0.323-2.694c0.066-0.873,0.297-1.766,0.68-2.605
			c1.112-2.426,3.489-4.381,6.959-4.245l57.45,2.225c2.836,0.11,4.576,1.594,5.359,3.595c0.038,0.082,0.072,0.17,0.103,0.26
			c0.294,0.862,0.395,1.797,0.315,2.722c-0.075,0.869-0.314,1.757-0.699,2.587C145.84,112.307,143.403,114.32,140.024,114.191z"/>
		<path fill-rule="evenodd" clip-rule="evenodd" fill="#DBB55A" d="M117.246,74.906l2.226,57.46
			c0.204,5.297-7.976,6.989-8.181,1.691l-2.227-57.459C108.846,71.012,117.053,69.899,117.246,74.906z"/>
		<path fill-rule="evenodd" clip-rule="evenodd" fill="#2D1B1F" d="M119.909,74.813l2.225,57.448
			c0.133,3.389-1.884,5.829-4.344,6.97c-0.831,0.384-1.718,0.624-2.588,0.699c-0.932,0.08-1.868-0.02-2.731-0.317
			c-2.128-0.731-3.73-2.497-3.844-5.463l-2.225-57.449c-0.136-3.471,1.818-5.846,4.245-6.96c0.837-0.382,1.732-0.616,2.606-0.68
			c0.908-0.07,1.834,0.036,2.694,0.325C118.13,70.114,119.796,71.897,119.909,74.813L119.909,74.813z M116.808,132.459
			l-2.225-57.458c-0.013-0.318-0.152-0.5-0.328-0.559c-0.163-0.055-0.373-0.072-0.605-0.055c-0.269,0.02-0.542,0.09-0.788,0.202
			c-0.647,0.296-1.171,0.946-1.134,1.903v0.011l2.225,57.459c0.014,0.361,0.118,0.549,0.25,0.594
			c0.144,0.05,0.333,0.064,0.539,0.047c0.27-0.023,0.551-0.099,0.811-0.221c0.708-0.327,1.289-1.004,1.254-1.914V132.459z"/>
		<path fill-rule="evenodd" clip-rule="evenodd" fill="#DBB55A" d="M109.299,82.659l2.227,57.46
			c0.204,5.297-7.976,6.989-8.182,1.691l-2.226-57.459C100.9,78.765,109.106,77.653,109.299,82.659z"/>
		<path fill-rule="evenodd" clip-rule="evenodd" fill="#2D1B1F" d="M111.963,82.566l2.225,57.46c0.13,3.38-1.884,5.817-4.344,6.958
			c-0.831,0.385-1.718,0.624-2.588,0.699c-0.926,0.08-1.859-0.021-2.722-0.315c-0.089-0.031-0.177-0.066-0.259-0.103
			c-2.002-0.783-3.486-2.523-3.595-5.359l-2.226-57.451c-0.135-3.468,1.82-5.848,4.245-6.959c0.837-0.383,1.73-0.614,2.606-0.681
			c0.908-0.069,1.834,0.037,2.694,0.324l0.155,0.057C110.264,77.959,111.853,79.722,111.963,82.566L111.963,82.566z
			 M108.863,140.213l-2.226-57.459c-0.011-0.294-0.126-0.47-0.279-0.541l-0.052-0.018c-0.162-0.053-0.372-0.071-0.605-0.053
			c-0.27,0.02-0.542,0.089-0.787,0.201c-0.647,0.297-1.17,0.947-1.133,1.903v0.01l2.226,57.461c0.012,0.325,0.096,0.512,0.205,0.581
			l0.037,0.013c0.144,0.049,0.335,0.062,0.548,0.045c0.27-0.023,0.551-0.099,0.812-0.221
			C108.316,141.808,108.898,141.129,108.863,140.213z"/>
	</g>
	<g>
		<path fill-rule="evenodd" clip-rule="evenodd" fill="#E6E6E6" d="M64.948,11.206l-1.714,9.865
			c4.72,2.732,8.55,6.632,11.206,11.213l9.872-1.713l3.696,13.794l-9.402,3.448c-0.007,2.618-0.347,5.278-1.056,7.925
			c-0.71,2.648-1.745,5.123-3.048,7.392l6.416,7.687L70.821,80.914l-7.692-6.422c-4.591,2.64-9.857,4.1-15.312,4.107L44.369,88
			l-13.795-3.695l1.715-9.866c-4.72-2.733-8.55-6.633-11.206-11.214l-9.872,1.713L7.514,51.145l9.402-3.448
			c0.007-2.618,0.347-5.278,1.056-7.925c0.71-2.648,1.745-5.121,3.048-7.392l-6.417-7.686l10.099-10.098l7.692,6.422
			c4.591-2.638,9.857-4.101,15.311-4.107l3.449-9.401L64.948,11.206z"/>
		<path fill-rule="evenodd" clip-rule="evenodd" fill="#2D1B1F" d="M67.53,11.904l-1.363,7.84c1.915,1.26,3.685,2.705,5.284,4.306
			c1.613,1.616,3.059,3.393,4.309,5.296l8.1-1.405c1.394-0.239,2.721,0.649,3.046,2.005l3.679,13.725
			c0.362,1.346-0.374,2.73-1.659,3.2l-7.71,2.827c-0.048,0.813-0.126,1.632-0.236,2.457l-0.011,0.072
			c-0.195,1.442-0.472,2.848-0.835,4.203c-0.368,1.374-0.84,2.75-1.401,4.115l-0.004,0.01l0.001,0.001
			c-0.316,0.769-0.66,1.517-1.024,2.246l5.262,6.302c0.932,1.117,0.798,2.772-0.293,3.723l-9.966,9.966
			c-0.979,0.984-2.541,1.039-3.589,0.167l-0.004,0.006l-6.312-5.271c-2.034,1.024-4.171,1.84-6.375,2.432
			c-2.187,0.585-4.442,0.957-6.733,1.089l-2.822,7.693c-0.474,1.308-1.872,2.018-3.191,1.662l-0.001,0.002l-13.795-3.695
			c-1.359-0.364-2.188-1.715-1.926-3.075l1.398-8.037c-1.915-1.26-3.685-2.705-5.284-4.306c-1.614-1.616-3.059-3.393-4.309-5.295
			l-8.1,1.406c-1.394,0.238-2.721-0.649-3.046-2.006L4.939,51.839c-0.362-1.345,0.374-2.73,1.659-3.2l7.71-2.827
			c0.049-0.813,0.125-1.632,0.236-2.458l0.01-0.07c0.195-1.441,0.473-2.849,0.836-4.204c0.368-1.375,0.839-2.75,1.401-4.115
			c0.319-0.777,0.662-1.529,1.025-2.258l-5.261-6.302c-0.932-1.116-0.798-2.772,0.293-3.722l9.966-9.968
			c0.98-0.984,2.542-1.039,3.59-0.167l0.005-0.006l6.312,5.271c2.034-1.024,4.172-1.84,6.378-2.433
			c2.185-0.586,4.441-0.954,6.728-1.087l2.823-7.694c0.474-1.309,1.872-2.018,3.191-1.662l0.003-0.012L65.64,8.623
			c1.426,0.382,2.273,1.849,1.891,3.275L67.53,11.904L67.53,11.904z M60.612,20.607l1.294-7.448l-9.095-2.437l-2.532,6.901
			c-0.314,1.128-1.349,1.958-2.576,1.957c-2.469,0.002-4.896,0.331-7.216,0.954c-2.337,0.628-4.579,1.551-6.661,2.736
			c-0.952,0.606-2.226,0.559-3.14-0.2l-5.828-4.865l-6.647,6.647l4.857,5.817c0.694,0.831,0.838,2.04,0.269,3.036
			c-0.613,1.066-1.154,2.161-1.613,3.275c-0.441,1.075-0.835,2.237-1.169,3.484c-0.326,1.217-0.563,2.392-0.718,3.518l-0.009,0.075
			c-0.158,1.182-0.237,2.378-0.243,3.577c0.026,1.111-0.651,2.165-1.752,2.569l-7.109,2.607l2.433,9.082l7.474-1.298l0.001,0.003
			c1.066-0.182,2.181,0.298,2.757,1.288c1.222,2.108,2.722,4.064,4.463,5.805c1.698,1.699,3.634,3.198,5.772,4.434l-0.005,0.008
			c0.943,0.544,1.494,1.636,1.293,2.769l-1.297,7.459l9.095,2.436l2.536-6.912c0.314-1.128,1.348-1.958,2.576-1.957
			c2.471-0.002,4.899-0.332,7.219-0.955c2.335-0.626,4.576-1.549,6.656-2.734c0.953-0.607,2.226-0.56,3.142,0.199l5.826,4.865
			l6.649-6.646l-4.857-5.817c-0.694-0.831-0.838-2.04-0.269-3.035c0.609-1.062,1.152-2.16,1.615-3.285h0.002
			c0.439-1.072,0.832-2.232,1.165-3.476c0.326-1.217,0.563-2.392,0.718-3.518l0.009-0.075c0.158-1.182,0.237-2.378,0.243-3.577
			c-0.026-1.111,0.651-2.165,1.752-2.569l7.109-2.607l-2.433-9.081l-7.473,1.297l-0.001-0.004c-1.066,0.183-2.181-0.298-2.756-1.288
			c-1.222-2.108-2.723-4.064-4.463-5.805c-1.698-1.699-3.634-3.198-5.772-4.434l0.005-0.009
			C60.962,22.832,60.411,21.74,60.612,20.607z"/>
		
			<ellipse transform="matrix(0.2588 -0.9659 0.9659 0.2588 -10.7277 81.5287)" fill-rule="evenodd" clip-rule="evenodd" fill="#716358" cx="47.761" cy="47.755" rx="18.77" ry="18.77"/>
		<path fill-rule="evenodd" clip-rule="evenodd" fill="#2D1B1F" d="M53.311,27.042c5.712,1.531,10.268,5.237,13.012,9.988
			l0.008,0.013c2.742,4.752,3.674,10.55,2.144,16.262c-1.531,5.713-5.238,10.268-9.988,13.012l-0.013,0.008
			c-4.752,2.742-10.55,3.675-16.262,2.144C36.498,66.937,31.943,63.23,29.2,58.48l-0.008-0.013
			c-2.742-4.752-3.674-10.549-2.144-16.262c1.531-5.712,5.237-10.268,9.988-13.012l0.013-0.008
			C41.801,26.443,47.598,25.511,53.311,27.042L53.311,27.042z M61.709,39.701c-2.06-3.562-5.484-6.342-9.782-7.494
			c-4.298-1.153-8.653-0.456-12.218,1.599c-3.562,2.06-6.342,5.484-7.494,9.782c-1.152,4.298-0.456,8.653,1.599,12.218
			c2.06,3.562,5.483,6.342,9.782,7.494c4.298,1.152,8.654,0.456,12.219-1.599c3.562-2.06,6.342-5.483,7.494-9.781
			C64.46,47.622,63.764,43.267,61.709,39.701z"/>
		<path opacity="0.1" fill-rule="evenodd" clip-rule="evenodd" d="M66.322,37.029L66.322,37.029L66.322,37.029z M58.486,66.316
			L58.486,66.316L58.486,66.316z M58.473,66.324c-4.751,2.742-10.549,3.674-16.261,2.145c-3.386-0.908-6.365-2.58-8.815-4.793
			l12.801,12.8c0.449-0.343,1.012-0.546,1.621-0.546c2.473-0.002,4.899-0.332,7.22-0.955c2.335-0.626,4.576-1.549,6.657-2.734
			c0.953-0.607,2.225-0.56,3.142,0.199l5.826,4.866l6.648-6.647l-4.856-5.817l-0.032-0.038l-0.031-0.04l-0.032-0.04l-0.009-0.012
			l-0.02-0.03l-0.03-0.041l-0.027-0.042l-0.011-0.016l-0.016-0.026l-0.052-0.087l-0.008-0.014c-0.454-0.794-0.486-1.801-0.004-2.65
			c0.61-1.061,1.153-2.159,1.617-3.285l0,0c0.44-1.072,0.833-2.231,1.166-3.476c0.326-1.215,0.563-2.391,0.718-3.516l0.009-0.074
			c0.158-1.184,0.237-2.38,0.245-3.579c-0.005-0.179,0.009-0.356,0.04-0.532l-0.04-0.351c-0.016-0.589,0.169-0.339,0.51-0.75
			l0.002-0.004l0.016-0.021l0.012-0.016l0.005-0.005L63.681,33.392c1.007,1.119,1.891,2.34,2.65,3.652
			c2.742,4.752,3.675,10.549,2.143,16.261C66.942,59.017,63.236,63.572,58.473,66.324z"/>
	</g>
</g>
</svg>
