<?xml version="1.0" encoding="utf-8"?>
<!-- Generator: Adobe Illustrator 19.2.1, SVG Export Plug-In . SVG Version: 6.00 Build 0)  -->
<svg version="1.1" id="Layer_1" xmlns="http://www.w3.org/2000/svg" xmlns:xlink="http://www.w3.org/1999/xlink" x="0px" y="0px"
	 viewBox="0 0 275.985 275.985" enable-background="new 0 0 275.985 275.985" xml:space="preserve">
<g>
	<path fill-rule="evenodd" clip-rule="evenodd" fill="#7DE6FF" d="M137.994,271.139c73.335,0,133.147-59.812,133.147-133.147
		S211.329,4.846,137.994,4.846S4.847,64.657,4.847,137.993S64.659,271.139,137.994,271.139z"/>
	<path fill-rule="evenodd" clip-rule="evenodd" fill="#2D1B1F" d="M137.993,0c38.103,0,72.604,15.447,97.575,40.417
		c24.97,24.97,40.417,59.472,40.417,97.575c0,38.105-15.447,72.605-40.417,97.575c-24.97,24.97-59.471,40.418-97.575,40.418
		c-38.104,0-72.605-15.447-97.575-40.418C15.447,210.597,0,176.098,0,137.993c0-38.103,15.447-72.605,40.417-97.575
		C65.388,15.447,99.888,0,137.993,0L137.993,0z M228.715,47.27c-23.217-23.216-55.294-37.577-90.722-37.577
		c-35.43,0-67.505,14.361-90.721,37.577S9.693,102.565,9.693,137.993c0,35.43,14.362,67.506,37.578,90.722
		s55.292,37.577,90.721,37.577c35.428,0,67.506-14.361,90.722-37.577c23.216-23.216,37.577-55.293,37.577-90.722
		C266.292,102.565,251.931,70.487,228.715,47.27z"/>
	<path fill-rule="evenodd" clip-rule="evenodd" fill="#E6E6E6" d="M80.493,71.229h114.998c5.096,0,9.265,4.169,9.265,9.266v114.997
		c0,5.097-4.169,9.266-9.265,9.266H80.493c-5.097,0-9.266-4.169-9.266-9.266V80.495C71.227,75.398,75.396,71.229,80.493,71.229z"/>
	<path fill-rule="evenodd" clip-rule="evenodd" fill="#2D1B1F" d="M80.493,68.555h114.998c3.287,0,6.271,1.343,8.434,3.506
		c2.161,2.161,3.506,5.147,3.506,8.433v114.999c0,3.286-1.344,6.272-3.506,8.435c-2.163,2.161-5.148,3.504-8.434,3.504H80.493
		c-3.285,0-6.273-1.343-8.435-3.504c-2.163-2.163-3.504-5.15-3.504-8.435V80.494c0-3.286,1.342-6.272,3.504-8.433
		C74.22,69.898,77.206,68.555,80.493,68.555L80.493,68.555z M195.491,73.903H80.493c-1.81,0-3.459,0.743-4.654,1.939
		c-1.194,1.193-1.937,2.842-1.937,4.652v114.999c0,1.81,0.743,3.46,1.937,4.654c1.193,1.194,2.844,1.937,4.654,1.937h114.998
		c1.81,0,3.459-0.743,4.653-1.937c1.195-1.195,1.938-2.843,1.938-4.654V80.494c0-1.809-0.743-3.457-1.938-4.652
		C198.949,74.646,197.3,73.903,195.491,73.903z"/>
	<path fill-rule="evenodd" clip-rule="evenodd" fill="#DBB55A" d="M83.074,80.89H192.91c1.06,0,1.927,0.867,1.927,1.927v79.767
		c0,1.061-0.867,1.928-1.927,1.928H83.074c-1.061,0-1.927-0.867-1.927-1.928V82.818C81.147,81.757,82.014,80.89,83.074,80.89z"/>
	<path fill-rule="evenodd" clip-rule="evenodd" fill="#2D1B1F" d="M83.073,187.309c-1.476,0-2.674-1.198-2.674-2.675
		c0-1.475,1.197-2.674,2.674-2.674h111.764c1.476,0,2.674,1.199,2.674,2.674c0,1.476-1.198,2.675-2.674,2.675H83.073z"/>
	<path fill-rule="evenodd" clip-rule="evenodd" fill="#DBB55A" d="M188.736,190.736c3.361,0,6.102-2.741,6.102-6.102
		c0-3.361-2.741-6.101-6.102-6.101c-3.361,0-6.102,2.74-6.102,6.101C182.634,187.995,185.375,190.736,188.736,190.736z"/>
	<path fill-rule="evenodd" clip-rule="evenodd" fill="#2D1B1F" d="M188.735,175.859c2.423,0,4.618,0.984,6.205,2.571
		s2.571,3.782,2.571,6.204c0,2.415-0.985,4.609-2.576,6.2l0.005,0.005c-1.587,1.587-3.782,2.571-6.205,2.571
		c-2.411,0-4.604-0.984-6.194-2.571l-0.01-0.01c-1.587-1.59-2.571-3.783-2.571-6.195c0-2.422,0.984-4.617,2.571-6.204l0.179-0.164
		C184.285,176.775,186.407,175.859,188.735,175.859L188.735,175.859z M191.159,182.211c-0.619-0.619-1.477-1.004-2.424-1.004
		c-0.902,0-1.717,0.341-2.322,0.897l-0.101,0.107c-0.62,0.619-1.004,1.477-1.004,2.423c0,0.954,0.379,1.812,0.993,2.424l0.011,0.011
		c0.612,0.614,1.47,0.993,2.423,0.993c0.947,0,1.805-0.385,2.424-1.004l0.005,0.006l0.006-0.006c0.614-0.612,0.993-1.47,0.993-2.424
		C192.163,183.689,191.778,182.83,191.159,182.211z"/>
	<path fill-rule="evenodd" clip-rule="evenodd" fill="#DBB55A" d="M137.993,190.736c3.361,0,6.102-2.741,6.102-6.102
		c0-3.361-2.741-6.101-6.102-6.101c-3.361,0-6.102,2.74-6.102,6.101C131.891,187.995,134.632,190.736,137.993,190.736z"/>
	<path fill-rule="evenodd" clip-rule="evenodd" fill="#2D1B1F" d="M137.993,175.859c2.423,0,4.618,0.984,6.205,2.571
		s2.571,3.782,2.571,6.204c0,2.415-0.985,4.609-2.576,6.2l0.005,0.005c-1.587,1.587-3.782,2.571-6.205,2.571
		c-2.412,0-4.604-0.984-6.194-2.571l-0.01-0.01c-1.587-1.59-2.571-3.783-2.571-6.195c0-2.422,0.984-4.617,2.571-6.204l0.179-0.164
		C133.542,176.775,135.665,175.859,137.993,175.859L137.993,175.859z M140.416,182.211c-0.619-0.619-1.477-1.004-2.424-1.004
		c-0.902,0-1.718,0.341-2.322,0.897l-0.102,0.107c-0.619,0.619-1.003,1.477-1.003,2.423c0,0.954,0.379,1.812,0.993,2.424l0.01,0.011
		c0.613,0.614,1.471,0.993,2.424,0.993c0.947,0,1.805-0.385,2.424-1.004l0.005,0.006l0.006-0.006
		c0.614-0.612,0.993-1.47,0.993-2.424C141.42,183.689,141.035,182.83,140.416,182.211z"/>
	<path fill-rule="evenodd" clip-rule="evenodd" fill="#2D1B1F" d="M81.147,125.374c-1.476,0-2.674-1.198-2.674-2.674
		c0-1.476,1.198-2.674,2.674-2.674h22.072c1.157,0,2.147,0.738,2.518,1.769l3.05,6.636l0.365-0.793l15.54-33.749
		c0.616-1.339,2.203-1.923,3.542-1.307c0.781,0.36,1.305,1.049,1.484,1.828l14.347,49.284l15.438-40.38
		c0.524-1.378,2.068-2.069,3.447-1.545c0.83,0.315,1.411,1.003,1.627,1.798l0.003-0.001l5.7,21.009l5.462-4.033
		c0.517-0.383,1.129-0.554,1.728-0.521l17.369,0.017c1.471,0,2.663,1.193,2.663,2.663c0,1.47-1.193,2.664-2.663,2.664l-16.628-0.016
		l-7.745,5.719c-0.292,0.252-0.645,0.445-1.044,0.553c-1.423,0.385-2.895-0.457-3.279-1.881l-4.576-16.863l-15.345,40.135
		l-0.005-0.002c-0.287,0.754-0.914,1.369-1.749,1.611c-1.413,0.409-2.892-0.403-3.301-1.816l-14.611-50.195L114,129.873
		l-2.788,6.055l-0.005-0.002c-0.258,0.56-0.708,1.034-1.312,1.309c-1.338,0.611-2.919,0.021-3.53-1.317l-4.849-10.543H81.147z"/>
	<path fill-rule="evenodd" clip-rule="evenodd" fill="#2D1B1F" d="M83.073,78.216h109.838c1.266,0,2.42,0.517,3.252,1.349
		c0.075,0.075,0.144,0.152,0.208,0.234c0.709,0.81,1.141,1.868,1.141,3.017v79.769c0,1.268-0.517,2.42-1.348,3.252
		c-0.832,0.831-1.986,1.348-3.252,1.348H83.073c-1.269,0-2.42-0.517-3.252-1.348c-0.831-0.832-1.349-1.983-1.349-3.252V82.817
		c0-1.258,0.517-2.407,1.349-3.241l0.006-0.006l-0.006-0.005C80.653,78.733,81.807,78.216,83.073,78.216L83.073,78.216z
		 M192.163,83.564H83.821v78.274h108.342V83.564z"/>
	<g>
		<path fill-rule="evenodd" clip-rule="evenodd" fill="#E6E6E6" d="M235.642,75.842c19.552,0,35.498-15.946,35.498-35.498
			S255.194,4.846,235.642,4.846c-19.552,0-35.499,15.946-35.499,35.498S216.09,75.842,235.642,75.842z"/>
		<path fill-rule="evenodd" clip-rule="evenodd" fill="#2D1B1F" d="M235.642,2.173c10.539,0,20.085,4.275,26.99,11.181
			c6.907,6.905,11.181,16.451,11.181,26.99c0,10.54-4.274,20.085-11.181,26.991c-6.906,6.906-16.45,11.18-26.99,11.18
			c-10.541,0-20.086-4.274-26.992-11.18c-6.906-6.907-11.179-16.451-11.179-26.991c0-10.541,4.274-20.086,11.179-26.99
			C215.556,6.447,225.101,2.173,235.642,2.173L235.642,2.173z M258.851,17.135c-5.937-5.939-14.146-9.615-23.209-9.615
			c-9.065,0-17.273,3.675-23.211,9.615c-5.938,5.937-9.613,14.145-9.613,23.21c0,9.063,3.675,17.272,9.613,23.211
			c5.938,5.937,14.147,9.612,23.211,9.612c9.064,0,17.272-3.675,23.209-9.612c5.938-5.939,9.614-14.147,9.614-23.211
			C268.464,31.279,264.789,23.072,258.851,17.135z"/>
		<path fill-rule="evenodd" clip-rule="evenodd" fill="#2D1B1F" d="M232.968,13.256c0-1.475,1.198-2.674,2.674-2.674
			c1.475,0,2.674,1.199,2.674,2.674v3.538c0,1.475-1.199,2.674-2.674,2.674c-1.476,0-2.674-1.199-2.674-2.674V13.256z"/>
		<path fill-rule="evenodd" clip-rule="evenodd" fill="#2D1B1F" d="M219.789,18.21c-0.731-1.274-0.291-2.904,0.983-3.635
			c1.274-0.731,2.904-0.292,3.635,0.983l1.769,3.064c0.731,1.274,0.292,2.904-0.983,3.635c-1.273,0.731-2.904,0.292-3.635-0.983
			L219.789,18.21z"/>
		<path fill-rule="evenodd" clip-rule="evenodd" fill="#2D1B1F" d="M210.846,29.109c-1.274-0.738-1.71-2.372-0.972-3.646
			c0.738-1.274,2.371-1.71,3.645-0.972l3.063,1.769c1.274,0.738,1.71,2.372,0.972,3.646c-0.738,1.274-2.371,1.711-3.646,0.972
			L210.846,29.109z"/>
		<path fill-rule="evenodd" clip-rule="evenodd" fill="#2D1B1F" d="M208.553,43.006c-1.47,0-2.663-1.193-2.663-2.664
			c0-1.47,1.193-2.663,2.663-2.663l3.537,0.001c1.471,0,2.663,1.193,2.663,2.664c0,1.47-1.193,2.663-2.663,2.663L208.553,43.006z"/>
		<path fill-rule="evenodd" clip-rule="evenodd" fill="#2D1B1F" d="M213.508,56.196c-1.274,0.731-2.904,0.292-3.635-0.983
			c-0.731-1.274-0.292-2.904,0.983-3.635l3.064-1.767c1.274-0.731,2.904-0.292,3.635,0.983c0.731,1.273,0.291,2.904-0.983,3.635
			L213.508,56.196z"/>
		<path fill-rule="evenodd" clip-rule="evenodd" fill="#2D1B1F" d="M224.405,65.139c-0.737,1.274-2.371,1.71-3.646,0.973
			c-1.274-0.738-1.71-2.372-0.972-3.646l1.77-3.063c0.738-1.274,2.372-1.711,3.646-0.972c1.274,0.738,1.71,2.372,0.972,3.646
			L224.405,65.139z"/>
		<path fill-rule="evenodd" clip-rule="evenodd" fill="#2D1B1F" d="M238.303,67.432c0,1.471-1.193,2.663-2.663,2.663
			s-2.663-1.193-2.663-2.663l0.001-3.537c0-1.47,1.193-2.664,2.664-2.664c1.47,0,2.663,1.193,2.663,2.664L238.303,67.432z"/>
		<path fill-rule="evenodd" clip-rule="evenodd" fill="#2D1B1F" d="M251.493,62.477c0.732,1.274,0.292,2.904-0.983,3.635
			c-1.274,0.731-2.904,0.291-3.635-0.983l-1.769-3.064c-0.731-1.274-0.291-2.904,0.983-3.635c1.274-0.731,2.904-0.292,3.635,0.983
			L251.493,62.477z"/>
		<path fill-rule="evenodd" clip-rule="evenodd" fill="#2D1B1F" d="M260.436,51.58c1.274,0.738,1.71,2.372,0.972,3.646
			c-0.737,1.274-2.371,1.711-3.646,0.972l-3.063-1.769c-1.273-0.738-1.71-2.372-0.972-3.646c0.738-1.274,2.372-1.71,3.646-0.972
			L260.436,51.58z"/>
		<path fill-rule="evenodd" clip-rule="evenodd" fill="#2D1B1F" d="M262.729,37.682c1.471,0,2.663,1.193,2.663,2.663
			c0,1.471-1.193,2.664-2.663,2.664l-3.537-0.002c-1.471,0-2.664-1.193-2.664-2.663c0-1.471,1.192-2.664,2.664-2.664L262.729,37.682
			z"/>
		<path fill-rule="evenodd" clip-rule="evenodd" fill="#2D1B1F" d="M257.774,24.491c1.274-0.731,2.904-0.291,3.635,0.983
			c0.731,1.274,0.291,2.904-0.983,3.635l-3.064,1.769c-1.274,0.731-2.904,0.291-3.635-0.983c-0.731-1.273-0.291-2.903,0.983-3.634
			L257.774,24.491z"/>
		<path fill-rule="evenodd" clip-rule="evenodd" fill="#2D1B1F" d="M246.877,15.549c0.738-1.274,2.371-1.71,3.646-0.972
			c1.274,0.738,1.71,2.372,0.972,3.646l-1.77,3.063c-0.737,1.274-2.371,1.71-3.645,0.972c-1.274-0.738-1.71-2.371-0.972-3.645
			L246.877,15.549z"/>
		<path fill-rule="evenodd" clip-rule="evenodd" fill="#2D1B1F" d="M237.975,41.727c-0.737,1.274-2.371,1.71-3.646,0.972
			c-1.274-0.738-1.71-2.372-0.972-3.646l13.545-23.458c0.737-1.274,2.371-1.711,3.646-0.972c1.274,0.738,1.71,2.372,0.972,3.646
			L237.975,41.727z"/>
		<path fill-rule="evenodd" clip-rule="evenodd" fill="#2D1B1F" d="M236.993,38.08c1.274,0.731,1.714,2.361,0.983,3.635
			c-0.731,1.274-2.361,1.714-3.635,0.983l-12.739-7.355c-1.274-0.731-1.714-2.361-0.983-3.635c0.731-1.273,2.361-1.713,3.635-0.982
			L236.993,38.08z"/>
	</g>
</g>
</svg>
