<?xml version="1.0" encoding="utf-8"?>
<!-- Generator: Adobe Illustrator 19.2.1, SVG Export Plug-In . SVG Version: 6.00 Build 0)  -->
<svg version="1.1" id="Layer_1" xmlns="http://www.w3.org/2000/svg" xmlns:xlink="http://www.w3.org/1999/xlink" x="0px" y="0px"
	 viewBox="0 0 275.985 275.985" enable-background="new 0 0 275.985 275.985" xml:space="preserve">
<g>
	<path fill-rule="evenodd" clip-rule="evenodd" fill="#7DE6FF" d="M137.994,271.139c73.335,0,133.147-59.813,133.147-133.147
		S211.329,4.846,137.994,4.846S4.847,64.657,4.847,137.992S64.659,271.139,137.994,271.139z"/>
	<path fill-rule="evenodd" clip-rule="evenodd" fill="#2D1B1F" d="M137.993,0c38.103,0,72.604,15.447,97.575,40.417
		c24.97,24.97,40.417,59.472,40.417,97.575c0,38.104-15.447,72.605-40.417,97.575c-24.97,24.97-59.471,40.417-97.575,40.417
		c-38.104,0-72.605-15.447-97.575-40.417C15.447,210.597,0,176.097,0,137.993c0-38.103,15.447-72.605,40.417-97.575
		C65.388,15.447,99.888,0,137.993,0L137.993,0z M228.715,47.27C205.498,24.054,173.42,9.693,137.993,9.693
		c-35.43,0-67.505,14.361-90.721,37.577C24.054,70.487,9.693,102.565,9.693,137.993c0,35.43,14.361,67.505,37.578,90.721
		c23.216,23.216,55.292,37.578,90.721,37.578c35.428,0,67.506-14.362,90.722-37.578c23.216-23.216,37.577-55.292,37.577-90.721
		C266.292,102.565,251.931,70.487,228.715,47.27z"/>
	<path fill-rule="evenodd" clip-rule="evenodd" fill="#E6E6E6" d="M210.52,123.417c31.917,0,57.948-26.032,57.948-57.948
		S242.437,7.52,210.52,7.52s-57.948,26.032-57.948,57.948S178.603,123.417,210.52,123.417z"/>
	<path fill-rule="evenodd" clip-rule="evenodd" fill="#2D1B1F" d="M210.519,4.847c16.738,0,31.896,6.787,42.865,17.754
		c10.968,10.97,17.754,26.128,17.754,42.867c0,16.738-6.786,31.896-17.754,42.865c-10.97,10.968-26.125,17.754-42.865,17.754
		c-16.74,0-31.897-6.787-42.867-17.754c-10.968-10.969-17.754-26.127-17.754-42.865c0-16.739,6.786-31.897,17.754-42.867
		C178.621,11.633,193.777,4.847,210.519,4.847L210.519,4.847z M249.603,26.382c-10.001-10.001-23.821-16.188-39.084-16.188
		c-15.264,0-29.085,6.187-39.086,16.188c-10.001,10.002-16.188,23.821-16.188,39.086c0,15.264,6.187,29.084,16.188,39.084
		c10.002,10.001,23.823,16.188,39.086,16.188c15.262,0,29.083-6.187,39.084-16.188c10.001-10.001,16.188-23.82,16.188-39.084
		C265.791,50.203,259.603,36.383,249.603,26.382z"/>
	<path fill-rule="evenodd" clip-rule="evenodd" fill="#007E9C" d="M210.519,100.351c19.214,0,34.884-15.671,34.884-34.885
		s-15.67-34.885-34.884-34.885c-19.213,0-34.885,15.671-34.885,34.885S191.306,100.351,210.519,100.351z"/>
	<path fill-rule="evenodd" clip-rule="evenodd" fill="#2D1B1F" d="M210.519,27.908c10.37,0,19.762,4.206,26.557,11
		c6.794,6.796,11,16.187,11,26.557s-4.206,19.762-11,26.557c-6.796,6.796-16.188,11-26.557,11c-10.37,0-19.762-4.205-26.557-11
		c-6.796-6.796-11-16.188-11-26.557s4.205-19.762,11-26.557C190.757,32.115,200.147,27.908,210.519,27.908L210.519,27.908z
		 M233.295,42.69c-5.828-5.827-13.883-9.434-22.776-9.434c-8.893,0-16.949,3.607-22.777,9.434
		c-5.828,5.828-9.434,13.882-9.434,22.776c0,8.895,3.606,16.949,9.434,22.776c5.828,5.828,13.881,9.434,22.777,9.434
		c8.894,0,16.948-3.606,22.776-9.434c5.826-5.827,9.433-13.883,9.433-22.776S239.121,48.518,233.295,42.69z"/>
	<path fill-rule="evenodd" clip-rule="evenodd" fill="#DBB55A" d="M210.519,77.287c6.511,0,11.821-5.31,11.821-11.821
		c0-6.511-5.31-11.821-11.821-11.821s-11.821,5.31-11.821,11.821C198.698,71.977,204.008,77.287,210.519,77.287z"/>
	<path fill-rule="evenodd" clip-rule="evenodd" fill="#2D1B1F" d="M210.519,50.971c4,0,7.627,1.625,10.248,4.246
		c2.622,2.622,4.246,6.249,4.246,10.249c0,4.002-1.624,7.628-4.246,10.25c-2.622,2.622-6.248,4.245-10.248,4.245
		c-4.004,0-7.628-1.624-10.25-4.245c-2.622-2.622-4.246-6.247-4.246-10.25c0-4,1.625-7.627,4.246-10.249
		C202.891,52.596,206.515,50.971,210.519,50.971L210.519,50.971z M216.986,58.998c-1.653-1.653-3.942-2.679-6.468-2.679
		c-2.526,0-4.815,1.025-6.469,2.679c-1.653,1.654-2.679,3.943-2.679,6.468c0,2.525,1.025,4.815,2.679,6.468
		c1.654,1.653,3.943,2.679,6.469,2.679c2.525,0,4.814-1.025,6.468-2.679c1.654-1.653,2.68-3.943,2.68-6.468
		C219.666,62.941,218.641,60.652,216.986,58.998z"/>
	<g>
		<polygon fill-rule="evenodd" clip-rule="evenodd" fill="#E6E6E6" points="162.024,83.652 210.519,65.467 192.334,113.962 
			188.665,87.321 		"/>
		<path fill-rule="evenodd" clip-rule="evenodd" fill="#2D1B1F" d="M161.213,81.111l48.377-18.141
			c1.378-0.512,2.912,0.189,3.425,1.567c0.232,0.623,0.216,1.281,0,1.858l-18.184,48.496c-0.511,1.378-2.046,2.079-3.425,1.567
			c-0.954-0.355-1.584-1.198-1.712-2.14h-0.002l-3.393-24.631l-24.631-3.391c-1.458-0.195-2.483-1.54-2.288-2.999
			C159.52,82.242,160.262,81.415,161.213,81.111L161.213,81.111z M205.967,70.018l-33.145,12.429l16.198,2.231
			c1.162,0.156,2.125,1.07,2.288,2.288l2.232,16.198L205.967,70.018z"/>
		<polygon fill-rule="evenodd" clip-rule="evenodd" fill="#DBB55A" points="86.703,149.558 86.703,174.165 59.281,201.589 
			59.281,176.98 		"/>
		<path fill-rule="evenodd" clip-rule="evenodd" fill="#2D1B1F" d="M89.366,149.783l0.002,24.382c0,0.735-0.3,1.401-0.781,1.882
			l0.008,0.009L61.172,203.48c-1.042,1.043-2.738,1.043-3.781,0c-0.579-0.579-0.835-1.357-0.772-2.114l-0.002-24.385
			c0-0.735,0.298-1.399,0.781-1.882l-0.008-0.008l27.423-27.423c1.042-1.042,2.738-1.042,3.781,0
			C89.173,148.247,89.429,149.024,89.366,149.783L89.366,149.783z M84.041,173.047l-0.002-17.044l-22.096,22.096l0.002,17.048
			L84.041,173.047z"/>
		<polygon fill-rule="evenodd" clip-rule="evenodd" fill="#DBB55A" points="29.488,171.794 54.094,171.794 81.518,144.372 
			56.91,144.372 		"/>
		<path fill-rule="evenodd" clip-rule="evenodd" fill="#2D1B1F" d="M35.943,169.12h17.045l22.076-22.074H58.018L35.943,169.12
			L35.943,169.12z M54.094,174.469H29.488v-0.002c-0.684,0-1.369-0.261-1.89-0.781c-1.042-1.043-1.042-2.739,0-3.781l27.377-27.377
			l0.045-0.045c0.484-0.484,1.153-0.783,1.89-0.783h24.608v0.001c0.685,0,1.369,0.261,1.891,0.782c1.042,1.042,1.042,2.738,0,3.781
			l-27.424,27.423C55.501,174.169,54.832,174.469,54.094,174.469z"/>
		<path fill-rule="evenodd" clip-rule="evenodd" fill="#2D1B1F" d="M64.823,158.392c1.476,0,2.674,1.199,2.674,2.674
			c0,1.476-1.197,2.675-2.674,2.675H40.215c-1.475,0-2.674-1.199-2.674-2.675c0-1.475,1.198-2.674,2.674-2.674H64.823z"/>
		<path fill-rule="evenodd" clip-rule="evenodd" fill="#2D1B1F" d="M74.105,159.483c0-1.476,1.197-2.674,2.674-2.674
			c1.476,0,2.674,1.197,2.674,2.674v24.606c0,1.476-1.197,2.674-2.674,2.674c-1.476,0-2.674-1.198-2.674-2.674V159.483z"/>
		<polygon fill-rule="evenodd" clip-rule="evenodd" fill="#716358" points="184.107,86.691 188.664,87.321 189.292,91.877 
			137.355,143.816 114.9,121.361 59.281,176.98 54.096,171.794 114.9,110.99 137.354,133.446 		"/>
		<path fill-rule="evenodd" clip-rule="evenodd" fill="#2D1B1F" d="M184.619,84.068l4.41,0.609c1.243,0.171,2.169,1.175,2.29,2.37
			l0.616,4.473c0.115,0.856-0.191,1.672-0.758,2.241l0.005,0.005l-51.94,51.94c-1.042,1.043-2.738,1.043-3.781,0L114.9,125.142
			l-53.729,53.73c-1.043,1.042-2.739,1.042-3.781,0l-0.14-0.151l-5.044-5.046c-1.036-1.042-1.032-2.728,0.005-3.765l-0.005-0.005
			L113.01,109.1c1.043-1.043,2.738-1.043,3.781,0l20.562,20.565L182.216,84.8C182.869,84.148,183.775,83.903,184.619,84.068
			L184.619,84.068z M186.298,89.687l-1.236-0.171l-45.819,45.82c-1.042,1.042-2.738,1.042-3.781,0L114.9,114.77L57.872,171.8
			l1.404,1.405l53.735-53.735c1.043-1.043,2.738-1.043,3.781,0l20.562,20.565l49.116-49.116L186.298,89.687z"/>
		<path fill-rule="evenodd" clip-rule="evenodd" fill="#2D1B1F" d="M59.281,204.264c-1.475,0-2.674-1.198-2.674-2.675
			c0-1.475,1.199-2.674,2.674-2.674h148.563v-75.502c0-1.476,1.198-2.674,2.674-2.674c1.475,0,2.674,1.198,2.674,2.674v78.176
			c0,1.476-1.199,2.675-2.674,2.675H59.281z"/>
	</g>
</g>
</svg>
