<?xml version="1.0" encoding="utf-8"?>
<!-- Generator: Adobe Illustrator 16.0.0, SVG Export Plug-In . SVG Version: 6.00 Build 0)  -->
<!DOCTYPE svg PUBLIC "-//W3C//DTD SVG 1.1//EN" "http://www.w3.org/Graphics/SVG/1.1/DTD/svg11.dtd">
<svg version="1.1" id="Layer_1" xmlns="http://www.w3.org/2000/svg" xmlns:xlink="http://www.w3.org/1999/xlink" x="0px" y="0px"
	 width="999.999px" height="184.872px" viewBox="0.001 523.303 999.999 184.872"
	 enable-background="new 0.001 523.303 999.999 184.872" xml:space="preserve">
<path opacity="0.1" enable-background="new    " d="M781.019,621.884c-6.412,2.031-11.06,8.028-11.06,15.11
	c0,8.444,6.605,15.346,14.931,15.819c-3.583,4.362-5.463,10.024-4.966,15.972c7.355-4.075,17.991-3.867,25.097,1.726
	c-7.261-2.517-17.317-1.808-22.795,1.555c2.791,1.588,4.428,4.065,4.793,6.028c-16.573-13.12-48.324-4.989-53.64,21.267
	c2.062-0.085,3.996,0.416,5.059,1.57c0.079,0.085,0.119,0.174,0.132,0.267c-3.039-0.279-6.034,0.228-8.728,1.417
	c-2.109-7.165-8.737-12.396-16.585-12.396c-3.776,0-8.142,1.165-10.458,4.363c0.063-1.826,1.981-4.098,2.976-4.623
	c-5.093-8.98-15.116-14.584-25.716-14.584c-8.504,0-15.84,3.217-21.406,9.569c-0.013-1.828,2.113-5.629,5.055-7.524
	c-1.211-7.215-6.891-12.914-14.096-14.151c-4.528-0.779-12.063-0.026-14.848,3.571c-10.32-11.284-34.037-10.663-43.178,2.299
	c-11.954-0.722-23.88,5.163-29.744,15.889c-14.638-34.75-67.529-46.151-89.306-5.604c1.808,0.981,5.629,4.291,5.622,8.708
	c-2.893-4.592-7.508-7.238-12.068-8.707c-10.293-3.313-21.113-0.183-28.105,7.151c-0.827-9.465-7.188-17.97-16.799-21.064
	c-12.64-4.068-26.172,2.743-30.473,15.243c-9.076-9.635-25.56-5.443-28.625,7.765c6.245-1.231,13.861,1.386,17.686,7.064
	c-4.647-3.498-12.059-5.319-16.787-4.168c1.644,1.79,2.247,3.957,2.055,5.456c-3.045-4.55-7.885-7.436-12.098-8.791
	c-9.584-3.085-19.795-1.031-26.768,5.585c-8.362-1.6-16.966-0.595-24.607,2.78c-4.979-16.907-20.613-29.251-39.134-29.251
	c-8.909,0-19.213,2.751-24.677,10.295c0.152-4.309,4.673-9.667,7.021-10.909c-12.019-21.191-35.668-34.413-60.684-34.413
	c-20.065,0-37.376,7.589-50.513,22.578c-0.028-4.312,4.99-13.279,11.932-17.752c-3.778-22.494-25.507-37.729-48.241-33.196
	c-3.438-8.675-8.226-16.668-14.104-23.723h40.782c8.442,0,15.287-6.845,15.287-15.288c0-6.834-4.484-12.618-10.668-14.576
	c3.32-13.636-6.975-26.907-21.126-26.907c-10.538,0-20.372,7.517-20.545,18.505c-0.42-0.125-1.871-4.692-1.31-8.02
	c-8.201-1.745-16.659,3.33-18.662,11.834c-6.527,0.733-11.952,5.103-14.208,11.034c-8.058-3.737-16.783-6.287-25.945-7.413
	c-9.421-1.159-17.353-0.937-26.773,0.806v58.42c15.158-0.93,31.148,7.398,36.975,23.698c-8.653-10.47-23.068-15.827-36.975-15.612
	v89.338l0,0v2.282h511.963h13.254h41.719H1000v-2.062v-43.444c-15.298-3.518-32.198,0.125-43.547,10.969
	c1.963-4.057,4.511-7.454,7.466-10.234c-10.358-7.923-27.118-9.203-37.949-1.498c9.927-14.352,31.356-13.38,40.376-0.577
	c9.527-7.405,22.348-9.267,33.654-6.62v-89.334c-7.606-3.468-16.063-5.402-24.969-5.402c-29.938,0-57.028,22.386-59.904,52.672
	c2.67,0.504,8.814,3.12,10.596,8.675c-5.497-4.603-12.374-6.063-18.701-6.063c-14.284,0-26.622,8.314-32.447,20.369
	c-4.919-11.682-16.517-19.82-29.984-19.683c-2.895-9.122-13.014-13.85-21.873-10.191c-3.823-7.004-11.255-11.757-19.798-11.757
	C788.248,593.992,777.576,607.751,781.019,621.884L781.019,621.884z M33.155,670.937c11.841-16.678,34.919-19.021,51.43-9.13
	c9.662-4.844,21.729-5.105,30.471,1.776c-8.042-1.639-16.661-0.583-24.457,2.646c4.537,4.061,8.208,9.288,10.471,15.619
	c-4.903-5.934-9.991-10.282-15.081-13.404l-0.113,0.062c-0.033-0.063-0.063-0.127-0.096-0.19
	C62.511,654.2,39.217,665.814,33.155,670.937z"/>
</svg>
