<?xml version="1.0" encoding="utf-8"?>
<!-- Generator: Adobe Illustrator 16.0.0, SVG Export Plug-In . SVG Version: 6.00 Build 0)  -->
<!DOCTYPE svg PUBLIC "-//W3C//DTD SVG 1.1//EN" "http://www.w3.org/Graphics/SVG/1.1/DTD/svg11.dtd">
<svg version="1.1" id="Layer_1" xmlns="http://www.w3.org/2000/svg" xmlns:xlink="http://www.w3.org/1999/xlink" x="0px" y="0px"
	 width="1000.003px" height="147.189px" viewBox="0 291.826 1000.003 147.189" enable-background="new 0 291.826 1000.003 147.189"
	 xml:space="preserve">
<path opacity="0.1" enable-background="new    " d="M158.641,396.643c7.789-2.466,13.436-9.75,13.436-18.355
	c0-10.258-8.024-18.64-18.137-19.216c4.353-5.298,6.637-12.175,6.033-19.402c-8.935,4.95-21.855,4.697-30.487-2.096
	c8.819,3.059,21.035,2.195,27.691-1.888c-3.391-1.929-5.379-4.939-5.822-7.323c20.132,15.936,58.7,6.059,65.159-25.834
	c-2.503,0.105-4.854-0.506-6.146-1.908c-0.094-0.104-0.146-0.21-0.159-0.324c3.69,0.339,7.329-0.277,10.602-1.722
	c2.562,8.704,10.612,15.058,20.145,15.058c4.586,0,9.889-1.414,12.704-5.298c-0.078,2.218-2.405,4.976-3.615,5.616
	c6.188,10.908,18.361,17.715,31.24,17.715c10.329,0,19.239-3.908,26.002-11.624c0.015,2.221-2.567,6.836-6.141,9.139
	c1.471,8.763,8.371,15.687,17.124,17.19c5.501,0.946,14.654,0.031,18.037-4.338c12.536,13.708,41.344,12.953,52.449-2.792
	c14.52,0.876,29.006-6.272,36.129-19.3c17.781,42.213,82.029,56.061,108.481,6.81c-2.196-1.194-6.838-5.213-6.83-10.578
	c3.514,5.579,9.12,8.794,14.659,10.577c12.503,4.024,25.646,0.223,34.141-8.686c1.003,11.497,8.73,21.827,20.405,25.586
	c15.354,4.943,31.791-3.332,37.017-18.515c11.025,11.703,31.047,6.613,34.771-9.432c-7.584,1.496-16.837-1.684-21.481-8.581
	c5.646,4.249,14.65,6.46,20.394,5.062c-1.997-2.176-2.73-4.806-2.499-6.627c3.699,5.528,9.578,9.031,14.695,10.678
	c11.641,3.747,24.045,1.253,32.516-6.786c10.157,1.944,20.61,0.724,29.891-3.376c6.048,20.537,25.04,35.531,47.536,35.531
	c10.821,0,23.337-3.341,29.976-12.505c-0.185,5.233-5.677,11.743-8.529,13.251c14.599,25.741,43.326,41.801,73.714,41.801
	c24.372,0,45.4-9.218,61.357-27.426c0.036,5.24-6.063,16.131-14.492,21.566c4.589,27.322,30.984,45.829,58.6,40.321
	c2.861,7.224,6.497,14.058,10.798,20.402v-88.894c-10.792,3.854-23.136,3.166-32.404-4.127c9.767,1.99,20.238,0.706,29.71-3.214
	c-5.51-4.931-9.972-11.283-12.721-18.973c5.022,6.078,10.205,10.788,15.415,14.39v-46.371H485.468h-16.102h-50.677H0v112.54
	c1.879,0.229,3.751,0.331,5.585,0.331c17.352,0,32.339-10.1,39.414-24.742c5.976,14.19,20.063,24.076,36.423,23.909
	c3.516,11.08,15.807,16.821,26.568,12.378c4.643,8.508,13.671,14.281,24.05,14.281C149.859,430.524,162.825,413.81,158.641,396.643z
	"/>
</svg>
