<svg xmlns="http://www.w3.org/2000/svg" viewBox="0 0 269.78 147.43"><defs><style>.cls-1{fill:#f1f1f1;}.cls-2{fill:none;stroke:#939598;stroke-miterlimit:10;}</style></defs><title>Asset 3</title><g id="Layer_2" data-name="Layer 2"><g id="Artwork"><path class="cls-1" d="M86.51,80.5a35.87,35.87,0,1,0,35.87,62.12l.05.09,15.54-9a4.58,4.58,0,0,0,2.3-4V103.52h0l0-4,0-.06v-6a4.19,4.19,0,0,0-.17-1.27s-.15-.44-.31-.81a7.75,7.75,0,0,0-.82-1.15,4.58,4.58,0,0,0-1-.76L106.55,71.36a4.61,4.61,0,0,0-4.6,0l-15.54,9"/><path class="cls-1" d="M171.26,141.28a35.86,35.86,0,0,0,35.86-62.12l0-.1-15.54-9a4.61,4.61,0,0,0-4.6,0L164.32,83.21h0l-3.44,2,0,.06-5.21,3a4.3,4.3,0,0,0-1,.79s-.31.35-.55.68A8.66,8.66,0,0,0,153.5,91a4.31,4.31,0,0,0-.16,1.24l0,36.28a4.62,4.62,0,0,0,2.3,4l15.54,9"/><path class="cls-1" d="M181.26,37.36a35.87,35.87,0,1,0-71.73,0h-.11v18a4.62,4.62,0,0,0,2.3,4l22.72,13.11h0l3.41,2h.06l5.21,3a4.25,4.25,0,0,0,1.19.48s.46.09.86.13a8.19,8.19,0,0,0,1.4-.13,4.45,4.45,0,0,0,1.15-.48l31.43-18.13a4.6,4.6,0,0,0,2.3-4V37.37"/><path class="cls-2" d="M92.51,79.5a35.87,35.87,0,1,0,35.87,62.12l.05.09,15.54-9a4.58,4.58,0,0,0,2.3-4V102.52h0l0-4,0-.06v-6a4.19,4.19,0,0,0-.17-1.27s-.15-.44-.31-.81a7.75,7.75,0,0,0-.82-1.15,4.58,4.58,0,0,0-1-.76L112.55,70.36a4.61,4.61,0,0,0-4.6,0l-15.54,9"/><path class="cls-2" d="M177.26,140.28a35.86,35.86,0,0,0,35.86-62.12l0-.1-15.54-9a4.61,4.61,0,0,0-4.6,0L170.32,82.21h0l-3.44,2,0,.06-5.21,3a4.3,4.3,0,0,0-1,.79s-.31.35-.55.68A8.66,8.66,0,0,0,159.5,90a4.31,4.31,0,0,0-.16,1.24l0,36.28a4.62,4.62,0,0,0,2.3,4l15.54,9"/><path class="cls-2" d="M187.26,36.36a35.87,35.87,0,1,0-71.73,0h-.11v18a4.62,4.62,0,0,0,2.3,4l22.72,13.11h0l3.41,2h.06l5.21,3a4.25,4.25,0,0,0,1.19.48s.46.09.86.13a8.19,8.19,0,0,0,1.4-.13,4.45,4.45,0,0,0,1.15-.48l31.43-18.13a4.6,4.6,0,0,0,2.3-4V36.37"/><path class="cls-1" d="M264,34.27A26.25,26.25,0,1,1,237.74,8,26.26,26.26,0,0,1,264,34.27Z"/><path class="cls-2" d="M269.28,33.27A26.25,26.25,0,1,1,243,7,26.25,26.25,0,0,1,269.28,33.27Z"/><line class="cls-2" x1="216.78" y1="33.27" x2="187.45" y2="33.27"/><circle class="cls-1" cx="26.25" cy="74.41" r="26.25"/><circle class="cls-2" cx="33.54" cy="73.41" r="26.25"/><line class="cls-2" x1="77.08" y1="98.41" x2="56.78" y2="87.13"/></g></g></svg>