<svg xmlns="http://www.w3.org/2000/svg" viewBox="0 0 309.89 160.28"><defs><style>.cls-1{fill:#f1f1f1;}.cls-2,.cls-3{fill:none;stroke:#939598;stroke-miterlimit:10;}.cls-3{stroke-width:1.08px;}</style></defs><title>Asset 1</title><g id="Layer_2" data-name="Layer 2"><g id="Artwork"><g id="Layer_2-2" data-name="Layer 2"><g id="Layer_1-2" data-name="Layer 1-2"><path class="cls-1" d="M162.18,77.9l-4-6.85-6.74-11.61h0L125.86,15.06A9.21,9.21,0,0,0,118,10.5H45.44a9.2,9.2,0,0,0-8,4.6L11.24,60.53h0l-4,6.82v.14l-6,10.41a9.24,9.24,0,0,0-1,2.37S.09,81.19,0,82a17.46,17.46,0,0,0,.26,2.8,9.2,9.2,0,0,0,1,2.31L37.49,150a9.19,9.19,0,0,0,8,4.6H118a9.22,9.22,0,0,0,8-4.6l28.45-49.3h0l3.69-6.51h0l4.06-7A9.2,9.2,0,0,0,162.18,77.9Z"/></g></g><circle class="cls-1" cx="188.96" cy="27.75" r="26.25"/><circle class="cls-1" cx="227.71" cy="100.78" r="21.5"/><circle class="cls-1" cx="261.46" cy="64.53" r="15.75"/><circle class="cls-1" cx="283.6" cy="139.78" r="20.5"/><path class="cls-1" d="M186.33,122.78a6.39,6.39,0,1,1-6.39-6.39A6.39,6.39,0,0,1,186.33,122.78Z"/><g id="Layer_2-3" data-name="Layer 2"><g id="Layer_1-2-2" data-name="Layer 1-2"><path class="cls-2" d="M167.47,76.9l-3.95-6.85-6.74-11.61h0L131.15,14.06a9.19,9.19,0,0,0-7.9-4.56H50.73a9.17,9.17,0,0,0-8,4.6L16.54,59.53h0l-4,6.82v.14l-6,10.41a8.92,8.92,0,0,0-1,2.37s-.17.92-.26,1.72a17.46,17.46,0,0,0,.26,2.8,9.23,9.23,0,0,0,1,2.31L42.78,149a9.21,9.21,0,0,0,8,4.6h72.51a9.22,9.22,0,0,0,8-4.6l28.45-49.3h0l3.7-6.51h0l4-7A9.18,9.18,0,0,0,167.47,76.9Z"/></g></g><circle class="cls-2" cx="194.25" cy="26.75" r="26.25"/><circle class="cls-2" cx="233" cy="99.78" r="21.5"/><circle class="cls-2" cx="266.75" cy="63.53" r="15.75"/><circle class="cls-2" cx="288.89" cy="138.78" r="20.5"/><circle class="cls-2" cx="186.23" cy="121.78" r="6.39"/><line class="cls-2" x1="168" y1="26.75" x2="138.67" y2="26.75"/><line class="cls-2" x1="211.5" y1="100.78" x2="159.67" y2="100.78"/><line class="cls-3" x1="250.45" y1="64" x2="160.57" y2="64"/><line class="cls-2" x1="268.39" y1="138.78" x2="137.61" y2="138.78"/><line class="cls-2" x1="179.5" y1="122.28" x2="145.64" y2="122.28"/></g></g></svg>