<svg xmlns="http://www.w3.org/2000/svg" viewBox="0 0 275.91 159.03"><defs><style>.cls-1{fill:#f1f1f1;}.cls-2{fill:none;stroke:#939598;stroke-miterlimit:10;}</style></defs><title>Asset 2</title><g id="Layer_2" data-name="Layer 2"><g id="Artwork"><circle class="cls-1" cx="15.75" cy="70.75" r="15.75"/><circle class="cls-2" cx="21.04" cy="69.75" r="15.75"/><circle class="cls-1" cx="264.89" cy="142.53" r="7.87"/><circle class="cls-2" cx="267.54" cy="142.03" r="7.87"/><g id="Layer_2-2" data-name="Layer 2"><g id="Layer_1-2" data-name="Layer 1-2"><path class="cls-1" d="M172.21,75.22l-2-3.43L166.86,66h0L154.05,43.8a4.57,4.57,0,0,0-4-2.28H113.84a4.59,4.59,0,0,0-4,2.29L96.74,66.53h0l-2,3.41V70l-3,5.21a4.53,4.53,0,0,0-.49,1.18s-.08.46-.13.86a9.34,9.34,0,0,0,.13,1.4,4.33,4.33,0,0,0,.49,1.15l18.13,31.44a4.61,4.61,0,0,0,4,2.3H150.1a4.62,4.62,0,0,0,4-2.3l14.23-24.66h0l1.84-3.25h0l2-3.51A4.58,4.58,0,0,0,172.21,75.22Z"/></g></g><g id="Layer_2-3" data-name="Layer 2"><g id="Layer_1-2-2" data-name="Layer 1-2"><path class="cls-2" d="M178.86,75.22l-2-3.43L173.51,66h0L160.7,43.8a4.58,4.58,0,0,0-3.95-2.28H120.49a4.61,4.61,0,0,0-4,2.29L103.39,66.53h0l-2,3.41V70l-3,5.21a4.5,4.5,0,0,0-.48,1.18s-.09.46-.13.86a8.19,8.19,0,0,0,.13,1.4,4.66,4.66,0,0,0,.48,1.15l18.13,31.44a4.62,4.62,0,0,0,4,2.3h36.26a4.64,4.64,0,0,0,4-2.3L175,86.59h0l1.85-3.25h0l2-3.51A4.58,4.58,0,0,0,178.86,75.22Z"/></g></g><g id="Layer_2-4" data-name="Layer 2"><g id="Layer_1-2-3" data-name="Layer 1-2"><path class="cls-1" d="M245.21,34.2l-2-3.43L239.86,25h0L227.05,2.78a4.61,4.61,0,0,0-4-2.28H186.84a4.6,4.6,0,0,0-4,2.3L169.74,25.52h0l-2,3.41V29l-3,5.21a4.68,4.68,0,0,0-.49,1.18s-.08.47-.13.87a9.47,9.47,0,0,0,.13,1.4,4.48,4.48,0,0,0,.49,1.15l18.13,31.43a4.59,4.59,0,0,0,4,2.3H223.1a4.6,4.6,0,0,0,4-2.3l14.23-24.65h0l1.84-3.26h0l2-3.5A4.6,4.6,0,0,0,245.21,34.2Z"/></g></g><g id="Layer_2-5" data-name="Layer 2"><g id="Layer_1-2-4" data-name="Layer 1-2"><path class="cls-2" d="M251.86,34.2l-2-3.43L246.51,25h0L233.7,2.78A4.62,4.62,0,0,0,229.75.5H193.49a4.62,4.62,0,0,0-4,2.3L176.39,25.52h0l-2,3.41V29l-3,5.21a4.65,4.65,0,0,0-.48,1.18s-.09.47-.13.87a8.29,8.29,0,0,0,.13,1.4,4.83,4.83,0,0,0,.48,1.15l18.13,31.43a4.6,4.6,0,0,0,4,2.3h36.26a4.62,4.62,0,0,0,4-2.3L248,45.58h0l1.85-3.26h0l2-3.5A4.6,4.6,0,0,0,251.86,34.2Z"/></g></g><g id="Layer_2-6" data-name="Layer 2"><g id="Layer_1-2-5" data-name="Layer 1-2"><path class="cls-1" d="M102.21,120.2l-2-3.43L96.86,111h0L84.05,88.78a4.61,4.61,0,0,0-4-2.28H43.84a4.6,4.6,0,0,0-4,2.3L26.74,111.52h0l-2,3.41V115l-3,5.21a4.68,4.68,0,0,0-.49,1.18s-.08.47-.13.87a9.47,9.47,0,0,0,.13,1.4,4.48,4.48,0,0,0,.49,1.15l18.13,31.43a4.59,4.59,0,0,0,4,2.3H80.1a4.6,4.6,0,0,0,4-2.3l14.23-24.65h0l1.84-3.26h0l2-3.5A4.6,4.6,0,0,0,102.21,120.2Z"/></g></g><g id="Layer_2-7" data-name="Layer 2"><g id="Layer_1-2-6" data-name="Layer 1-2"><path class="cls-2" d="M108.86,120.2l-2-3.43-3.37-5.8h0L90.7,88.78a4.62,4.62,0,0,0-4-2.28H50.49a4.62,4.62,0,0,0-4,2.3L33.39,111.52h0l-2,3.41V115l-3,5.21a4.65,4.65,0,0,0-.48,1.18s-.09.47-.13.87a8.29,8.29,0,0,0,.13,1.4,4.83,4.83,0,0,0,.48,1.15l18.13,31.43a4.6,4.6,0,0,0,4,2.3H86.75a4.62,4.62,0,0,0,4-2.3L105,131.58h0l1.85-3.26h0l2-3.5A4.6,4.6,0,0,0,108.86,120.2Z"/></g></g><g id="Layer_2-8" data-name="Layer 2"><g id="Layer_1-2-7" data-name="Layer 1-2"><path class="cls-1" d="M82.75,24.61l-1-1.71L80.08,20h0L73.67,8.9a2.29,2.29,0,0,0-2-1.14H53.57a2.3,2.3,0,0,0-2,1.15L45,20.27h0L44,22v0l-1.5,2.61a2.06,2.06,0,0,0-.25.59s0,.23-.06.43a4,4,0,0,0,.06.7,2.48,2.48,0,0,0,.25.58l9.06,15.71a2.3,2.3,0,0,0,2,1.15H71.7a2.3,2.3,0,0,0,2-1.15L80.8,30.3h0l.92-1.63h0l1-1.75A2.3,2.3,0,0,0,82.75,24.61Z"/></g></g><g id="Layer_2-9" data-name="Layer 2"><g id="Layer_1-2-8" data-name="Layer 1-2"><path class="cls-2" d="M88.08,24.61l-1-1.71L85.4,20h0L79,8.9a2.29,2.29,0,0,0-2-1.14H58.89a2.3,2.3,0,0,0-2,1.15L50.34,20.27h0l-1,1.7v0l-1.5,2.61a2,2,0,0,0-.24.59s-.05.23-.07.43a3.26,3.26,0,0,0,.07.7,2.09,2.09,0,0,0,.24.58L56.9,42.62a2.3,2.3,0,0,0,2,1.15H77a2.3,2.3,0,0,0,2-1.15L86.12,30.3h0l.93-1.63h0l1-1.75A2.32,2.32,0,0,0,88.08,24.61Z"/></g></g><g id="Layer_2-10" data-name="Layer 2"><g id="Layer_1-2-9" data-name="Layer 1-2"><path class="cls-1" d="M227.08,121.36l-1-1.72-1.69-2.9h0L218,105.65a2.31,2.31,0,0,0-2-1.14H197.89a2.3,2.3,0,0,0-2,1.15L189.34,117h0l-1,1.7v0l-1.5,2.61a2,2,0,0,0-.24.59s0,.23-.07.43a4.05,4.05,0,0,0,.07.7,2.09,2.09,0,0,0,.24.58l9.06,15.71a2.3,2.3,0,0,0,2,1.15H216a2.3,2.3,0,0,0,2-1.15l7.11-12.32h0l.93-1.63h0l1-1.75A2.3,2.3,0,0,0,227.08,121.36Z"/></g></g><g id="Layer_2-11" data-name="Layer 2"><g id="Layer_1-2-10" data-name="Layer 1-2"><path class="cls-2" d="M232.4,121.36l-1-1.72-1.68-2.9h0l-6.41-11.09a2.3,2.3,0,0,0-2-1.14H203.21a2.3,2.3,0,0,0-2,1.15L194.67,117h0l-1,1.7v0l-1.51,2.61a2,2,0,0,0-.24.59s0,.23-.06.43a4,4,0,0,0,.06.7,2.45,2.45,0,0,0,.24.58l9.07,15.71a2.3,2.3,0,0,0,2,1.15h18.12a2.3,2.3,0,0,0,2-1.15l7.12-12.32h0l.92-1.63h0l1-1.75A2.3,2.3,0,0,0,232.4,121.36Z"/></g></g></g></g></svg>