<svg xmlns="http://www.w3.org/2000/svg" viewBox="0 0 274.52 176.8"><defs><style>.cls-1{fill:#f1f1f1;}.cls-2{fill:none;stroke:#939598;stroke-miterlimit:10;}</style></defs><title>Asset 4</title><g id="Layer_2" data-name="Layer 2"><g id="Artwork"><g id="Layer_2-2" data-name="Layer 2"><g id="Layer_1-2" data-name="Layer 1-2"><path class="cls-1" d="M20.27,86.78l-.49-.86-.85-1.45h0l-3.2-5.54a1.12,1.12,0,0,0-1-.57H5.68a1.15,1.15,0,0,0-1,.57L1.41,84.61h0l-.5.85v0l-.76,1.3a1.34,1.34,0,0,0-.12.3s0,.11,0,.21a2,2,0,0,0,0,.35,1.48,1.48,0,0,0,.12.29l4.54,7.86a1.14,1.14,0,0,0,1,.57h9.06a1.17,1.17,0,0,0,1-.57l3.56-6.17h0l.46-.81h0l.5-.88A1.13,1.13,0,0,0,20.27,86.78Z"/></g></g><g id="Layer_2-3" data-name="Layer 2"><g id="Layer_1-2-2" data-name="Layer 1-2"><path class="cls-1" d="M85.65,86.78l-.49-.86-.85-1.45h0l-3.2-5.54a1.13,1.13,0,0,0-1-.57H71.06a1.15,1.15,0,0,0-1,.57l-3.28,5.68h0l-.5.85v0l-.75,1.3a1.34,1.34,0,0,0-.12.3s0,.11,0,.21a2,2,0,0,0,0,.35,1.48,1.48,0,0,0,.12.29l4.53,7.86a1.17,1.17,0,0,0,1,.57h9.06a1.17,1.17,0,0,0,1-.57l3.55-6.17h0l.47-.81h0l.5-.88A1.15,1.15,0,0,0,85.65,86.78Z"/></g></g><g id="Layer_2-4" data-name="Layer 2"><g id="Layer_1-2-3" data-name="Layer 1-2"><path class="cls-1" d="M53.84,97.57l-.49-.86-.85-1.45h0l-3.2-5.55a1.14,1.14,0,0,0-1-.57H39.25a1.17,1.17,0,0,0-1,.57L35,95.39h0l-.5.86h0l-.76,1.31a1.48,1.48,0,0,0-.12.29s0,.12,0,.22a2.16,2.16,0,0,0,0,.35,1.39,1.39,0,0,0,.12.28l4.54,7.86a1.13,1.13,0,0,0,1,.58h9.06a1.16,1.16,0,0,0,1-.58l3.56-6.16h0l.46-.81h0l.5-.88A1.13,1.13,0,0,0,53.84,97.57Z"/></g></g><g id="Layer_2-5" data-name="Layer 2"><g id="Layer_1-2-4" data-name="Layer 1-2"><path class="cls-1" d="M53.84,75.92l-.49-.86-.85-1.45h0l-3.2-5.55a1.14,1.14,0,0,0-1-.57H39.25a1.16,1.16,0,0,0-1,.58L35,73.75h0l-.5.85h0l-.76,1.31a1.48,1.48,0,0,0-.12.29s0,.12,0,.22a2.07,2.07,0,0,0,0,.35,1.48,1.48,0,0,0,.12.29l4.54,7.86a1.14,1.14,0,0,0,1,.57h9.06a1.17,1.17,0,0,0,1-.57l3.56-6.17h0l.46-.81h0l.5-.88A1.13,1.13,0,0,0,53.84,75.92Z"/></g></g><g id="Layer_2-6" data-name="Layer 2"><g id="Layer_1-2-5" data-name="Layer 1-2"><path class="cls-1" d="M117.07,97.57l-.49-.86-.84-1.45h0l-3.21-5.55a1.14,1.14,0,0,0-1-.57h-9.07a1.14,1.14,0,0,0-1,.57l-3.28,5.68h0l-.5.86h0L97,97.57a1.08,1.08,0,0,0-.13.29s0,.12,0,.22a2.16,2.16,0,0,0,0,.35,1,1,0,0,0,.13.28l4.53,7.86a1.13,1.13,0,0,0,1,.58h9.07a1.13,1.13,0,0,0,1-.58l3.56-6.16h0l.46-.81h0l.51-.88A1.13,1.13,0,0,0,117.07,97.57Z"/></g></g><g id="Layer_2-7" data-name="Layer 2"><g id="Layer_1-2-6" data-name="Layer 1-2"><path class="cls-1" d="M117.07,75.92l-.49-.86-.84-1.45h0l-3.21-5.55a1.14,1.14,0,0,0-1-.57h-9.07a1.13,1.13,0,0,0-1,.58l-3.28,5.68h0l-.5.85h0L97,75.92a1.08,1.08,0,0,0-.13.29s0,.12,0,.22a2.07,2.07,0,0,0,0,.35,1.08,1.08,0,0,0,.13.29l4.53,7.86a1.14,1.14,0,0,0,1,.57h9.07a1.14,1.14,0,0,0,1-.57l3.56-6.17h0l.46-.81h0l.51-.88A1.13,1.13,0,0,0,117.07,75.92Z"/></g></g><g id="Layer_2-8" data-name="Layer 2"><g id="Layer_1-2-7" data-name="Layer 1-2"><path class="cls-1" d="M145.27,86.78l-.5-.86-.84-1.45h0l-3.2-5.54a1.13,1.13,0,0,0-1-.57h-9.07a1.12,1.12,0,0,0-1,.57l-3.28,5.68h0l-.5.85v0l-.75,1.3a.79.79,0,0,0-.12.3,1.5,1.5,0,0,0,0,.21c0,.12,0,.24,0,.35a.81.81,0,0,0,.12.29l4.53,7.86a1.15,1.15,0,0,0,1,.57h9.07a1.14,1.14,0,0,0,1-.57l3.56-6.17h0l.46-.81h0l.51-.88A1.15,1.15,0,0,0,145.27,86.78Z"/></g></g><g id="Layer_2-9" data-name="Layer 2"><g id="Layer_1-2-8" data-name="Layer 1-2"><path class="cls-1" d="M117.42,118.88l-.49-.86-.85-1.45h0l-3.2-5.55a1.15,1.15,0,0,0-1-.57h-9.06a1.17,1.17,0,0,0-1,.57l-3.28,5.68h0l-.5.86h0l-.75,1.31a1.48,1.48,0,0,0-.12.29s0,.12,0,.22a2.07,2.07,0,0,0,0,.35,1.18,1.18,0,0,0,.12.28l4.53,7.86a1.16,1.16,0,0,0,1,.58h9.06a1.16,1.16,0,0,0,1-.58l3.55-6.16h0l.47-.81h0l.5-.88A1.15,1.15,0,0,0,117.42,118.88Z"/></g></g><g id="Layer_2-10" data-name="Layer 2"><g id="Layer_1-2-9" data-name="Layer 1-2"><path class="cls-1" d="M85.61,108l-.49-.85-.85-1.46h0l-3.2-5.54a1.14,1.14,0,0,0-1-.57H71a1.17,1.17,0,0,0-1,.57l-3.27,5.68h0l-.5.85v0l-.76,1.3a1.57,1.57,0,0,0-.12.3s0,.11,0,.21a2,2,0,0,0,0,.35,1.26,1.26,0,0,0,.12.29L70,117a1.15,1.15,0,0,0,1,.58h9.06a1.18,1.18,0,0,0,1-.58l3.56-6.16h0l.46-.82h0l.5-.87A1.15,1.15,0,0,0,85.61,108Z"/></g></g><g id="Layer_2-11" data-name="Layer 2"><g id="Layer_1-2-10" data-name="Layer 1-2"><path class="cls-1" d="M145.84,129.66l-.49-.86-.84-1.45h0l-3.21-5.54a1.12,1.12,0,0,0-1-.57h-9.07a1.15,1.15,0,0,0-1,.57L127,127.49h0l-.5.85v0l-.76,1.3a1.34,1.34,0,0,0-.12.3s0,.11,0,.21a2,2,0,0,0,0,.35,1.48,1.48,0,0,0,.12.29l4.54,7.86a1.14,1.14,0,0,0,1,.57h9.07a1.14,1.14,0,0,0,1-.57l3.56-6.16h0l.46-.82h0l.51-.88A1.15,1.15,0,0,0,145.84,129.66Z"/></g></g><g id="Layer_2-12" data-name="Layer 2"><g id="Layer_1-2-11" data-name="Layer 1-2"><path class="cls-1" d="M145.84,43.66l-.49-.86-.84-1.45h0L141.3,35.8a1.14,1.14,0,0,0-1-.57h-9.07a1.16,1.16,0,0,0-1,.58L127,41.49h0l-.5.85v0l-.76,1.3a1.48,1.48,0,0,0-.12.29s0,.12,0,.22a2.07,2.07,0,0,0,0,.35,1.48,1.48,0,0,0,.12.29l4.54,7.86a1.14,1.14,0,0,0,1,.57h9.07a1.14,1.14,0,0,0,1-.57l3.56-6.17h0l.46-.81h0l.51-.88A1.15,1.15,0,0,0,145.84,43.66Z"/></g></g><g id="Layer_2-13" data-name="Layer 2"><g id="Layer_1-2-12" data-name="Layer 1-2"><path class="cls-1" d="M145.84,108l-.49-.85-.84-1.46h0l-3.21-5.54a1.14,1.14,0,0,0-1-.57h-9.07a1.17,1.17,0,0,0-1,.57L127,105.84h0l-.5.85v0l-.76,1.3a1.57,1.57,0,0,0-.12.3s0,.11,0,.21a2,2,0,0,0,0,.35,1.26,1.26,0,0,0,.12.29l4.54,7.86a1.15,1.15,0,0,0,1,.58h9.07a1.15,1.15,0,0,0,1-.58l3.56-6.16h0l.46-.82h0l.51-.87A1.17,1.17,0,0,0,145.84,108Z"/></g></g><g id="Layer_2-14" data-name="Layer 2"><g id="Layer_1-2-13" data-name="Layer 1-2"><path class="cls-1" d="M205.64,108l-.49-.85-.84-1.46h0l-3.21-5.54a1.14,1.14,0,0,0-1-.57h-9.07a1.14,1.14,0,0,0-1,.57l-3.28,5.68h0l-.5.85v0l-.75,1.3a1.14,1.14,0,0,0-.13.3s0,.11,0,.21a2,2,0,0,0,0,.35,1,1,0,0,0,.13.29l4.53,7.86a1.15,1.15,0,0,0,1,.58h9.07a1.15,1.15,0,0,0,1-.58l3.56-6.16h0l.46-.82h0l.51-.87A1.15,1.15,0,0,0,205.64,108Z"/></g></g><g id="Layer_2-15" data-name="Layer 2"><g id="Layer_1-2-14" data-name="Layer 1-2"><path class="cls-1" d="M174,118.88l-.5-.86-.84-1.45h0L169.5,111a1.15,1.15,0,0,0-1-.57h-9.07a1.14,1.14,0,0,0-1,.57l-3.28,5.68h0l-.5.86h0l-.75,1.31a.81.81,0,0,0-.12.29,1.84,1.84,0,0,0,0,.22,2.09,2.09,0,0,0,0,.35.7.7,0,0,0,.12.28l4.53,7.86a1.14,1.14,0,0,0,1,.58h9.07a1.13,1.13,0,0,0,1-.58l3.56-6.16h0l.46-.81h0L174,120A1.15,1.15,0,0,0,174,118.88Z"/></g></g><g id="Layer_2-16" data-name="Layer 2"><g id="Layer_1-2-15" data-name="Layer 1-2"><path class="cls-1" d="M153.39,56.11l.49.86.85,1.45h0l3.2,5.55a1.14,1.14,0,0,0,1,.57H168a1.16,1.16,0,0,0,1-.58l3.28-5.68h0l.5-.85v0l.75-1.3a1.48,1.48,0,0,0,.12-.29s0-.12,0-.22a2.07,2.07,0,0,0,0-.35,1.48,1.48,0,0,0-.12-.29L169,47.1a1.17,1.17,0,0,0-1-.57h-9.06a1.17,1.17,0,0,0-1,.57l-3.55,6.17h0l-.47.81h0l-.5.88A1.13,1.13,0,0,0,153.39,56.11Z"/></g></g><g id="Layer_2-17" data-name="Layer 2"><g id="Layer_1-2-16" data-name="Layer 1-2"><path class="cls-1" d="M185.2,67l.49.85.84,1.45h0l3.21,5.55a1.14,1.14,0,0,0,1,.57h9.07a1.17,1.17,0,0,0,1-.57l3.27-5.68h0l.5-.86h0l.76-1.3a1.88,1.88,0,0,0,.12-.3s0-.12,0-.22a2.16,2.16,0,0,0,0-.35,1.39,1.39,0,0,0-.12-.28L200.78,58a1.13,1.13,0,0,0-1-.58h-9.07a1.13,1.13,0,0,0-1,.58l-3.56,6.16h0l-.46.81h0l-.51.88A1.17,1.17,0,0,0,185.2,67Z"/></g></g><g id="Layer_2-18" data-name="Layer 2"><g id="Layer_1-2-17" data-name="Layer 1-2"><path class="cls-1" d="M125,67l.5.85.84,1.45h0l3.21,5.55a1.14,1.14,0,0,0,1,.57h9.07a1.14,1.14,0,0,0,1-.57l3.28-5.68h0l.5-.86h0l.75-1.3a1.3,1.3,0,0,0,.13-.3s0-.12,0-.22a2.16,2.16,0,0,0,0-.35,1,1,0,0,0-.13-.28L140.55,58a1.13,1.13,0,0,0-1-.58h-9.07a1.13,1.13,0,0,0-1,.58l-3.56,6.16h0l-.46.81h0l-.51.88A1.17,1.17,0,0,0,125,67Z"/></g></g><g id="Layer_2-19" data-name="Layer 2"><g id="Layer_1-2-18" data-name="Layer 1-2"><path class="cls-1" d="M96.77,56.11l.5.86.84,1.45h0l3.2,5.55a1.15,1.15,0,0,0,1,.57h9.07a1.13,1.13,0,0,0,1-.58l3.28-5.68h0l.5-.85v0l.75-1.3a.81.81,0,0,0,.12-.29s0-.12,0-.22a2.07,2.07,0,0,0,0-.35,1,1,0,0,0-.12-.29l-4.53-7.86a1.17,1.17,0,0,0-1-.57H102.3a1.14,1.14,0,0,0-1,.57l-3.56,6.17h0l-.46.81h0l-.51.88A1.15,1.15,0,0,0,96.77,56.11Z"/></g></g><g id="Layer_2-20" data-name="Layer 2"><g id="Layer_1-2-19" data-name="Layer 1-2"><path class="cls-1" d="M65.2,67l.5.85.84,1.45h0l3.2,5.55a1.15,1.15,0,0,0,1,.57H79.8a1.15,1.15,0,0,0,1-.57l3.28-5.68h0l.5-.86h0l.75-1.3a.94.94,0,0,0,.12-.3s0-.12,0-.22a2.16,2.16,0,0,0,0-.35,1,1,0,0,0-.12-.28L80.79,58a1.16,1.16,0,0,0-1-.58H70.73a1.13,1.13,0,0,0-1,.58l-3.56,6.16h0l-.46.81h0l-.51.88A1.17,1.17,0,0,0,65.2,67Z"/></g></g><g id="Layer_2-21" data-name="Layer 2"><g id="Layer_1-2-20" data-name="Layer 1-2"><path class="cls-1" d="M205.64,86.78l-.49-.86-.84-1.45h0l-3.21-5.54a1.12,1.12,0,0,0-1-.57h-9.07a1.12,1.12,0,0,0-1,.57l-3.28,5.68h0l-.5.85v0l-.75,1.3a1,1,0,0,0-.13.3s0,.11,0,.21a2,2,0,0,0,0,.35,1.08,1.08,0,0,0,.13.29l4.53,7.86a1.14,1.14,0,0,0,1,.57h9.07a1.14,1.14,0,0,0,1-.57l3.56-6.17h0l.46-.81h0l.51-.88A1.13,1.13,0,0,0,205.64,86.78Z"/></g></g><g id="Layer_2-22" data-name="Layer 2"><g id="Layer_1-2-21" data-name="Layer 1-2"><path class="cls-1" d="M269.87,86.78l-.5-.86-.84-1.45h0l-3.2-5.54a1.13,1.13,0,0,0-1-.57h-9.07a1.12,1.12,0,0,0-1,.57L251,84.61h0l-.5.85v0l-.75,1.3a.79.79,0,0,0-.12.3l0,.21c0,.12,0,.24,0,.35a1,1,0,0,0,.12.29l4.53,7.86a1.17,1.17,0,0,0,1,.57h9.06a1.14,1.14,0,0,0,1-.57l3.56-6.17h0l.46-.81h0l.51-.88A1.15,1.15,0,0,0,269.87,86.78Z"/></g></g><g id="Layer_2-23" data-name="Layer 2"><g id="Layer_1-2-22" data-name="Layer 1-2"><path class="cls-1" d="M173.84,97.57l-.5-.86-.84-1.45h0l-3.2-5.55a1.15,1.15,0,0,0-1-.57h-9.07a1.14,1.14,0,0,0-1,.57L155,95.39h0l-.5.86h0l-.75,1.31a.81.81,0,0,0-.12.29s0,.12,0,.22,0,.23,0,.35a1,1,0,0,0,.12.28l4.53,7.86a1.15,1.15,0,0,0,1,.58h9.06a1.13,1.13,0,0,0,1-.58l3.56-6.16h0l.46-.81h0l.51-.88A1.15,1.15,0,0,0,173.84,97.57Z"/></g></g><g id="Layer_2-24" data-name="Layer 2"><g id="Layer_1-2-23" data-name="Layer 1-2"><path class="cls-1" d="M173.84,75.92l-.5-.86-.84-1.45h0l-3.2-5.55a1.15,1.15,0,0,0-1-.57h-9.07a1.13,1.13,0,0,0-1,.58L155,73.75h0l-.5.85h0l-.75,1.31a.81.81,0,0,0-.12.29s0,.12,0,.22,0,.23,0,.35a1,1,0,0,0,.12.29l4.53,7.86a1.16,1.16,0,0,0,1,.57h9.06a1.14,1.14,0,0,0,1-.57l3.56-6.17h0l.46-.81h0l.51-.88A1.15,1.15,0,0,0,173.84,75.92Z"/></g></g><g id="Layer_2-25" data-name="Layer 2"><g id="Layer_1-2-24" data-name="Layer 1-2"><path class="cls-1" d="M237.07,97.57l-.5-.86-.84-1.45h0l-3.2-5.55a1.15,1.15,0,0,0-1-.57h-9.07a1.15,1.15,0,0,0-1,.57l-3.28,5.68h0l-.5.86h0L217,97.57a.81.81,0,0,0-.12.29s0,.12,0,.22a2.16,2.16,0,0,0,0,.35,1.39,1.39,0,0,0,.12.28l4.53,7.86a1.16,1.16,0,0,0,1,.58h9.06a1.16,1.16,0,0,0,1-.58l3.55-6.16h0l.46-.81h0l.51-.88A1.15,1.15,0,0,0,237.07,97.57Z"/></g></g><g id="Layer_2-26" data-name="Layer 2"><g id="Layer_1-2-25" data-name="Layer 1-2"><path class="cls-1" d="M237.07,75.92l-.5-.86-.84-1.45h0l-3.2-5.55a1.15,1.15,0,0,0-1-.57h-9.07a1.14,1.14,0,0,0-1,.58l-3.28,5.68h0l-.5.85h0L217,75.92a.81.81,0,0,0-.12.29s0,.12,0,.22a2.07,2.07,0,0,0,0,.35,1.48,1.48,0,0,0,.12.29l4.53,7.86a1.17,1.17,0,0,0,1,.57h9.06a1.17,1.17,0,0,0,1-.57l3.55-6.17h0l.46-.81h0l.51-.88A1.15,1.15,0,0,0,237.07,75.92Z"/></g></g><g id="Layer_2-27" data-name="Layer 2"><g id="Layer_1-2-26" data-name="Layer 1-2"><path class="cls-2" d="M24.27,86.78l-.49-.86-.85-1.45h0l-3.2-5.54a1.12,1.12,0,0,0-1-.57H9.68a1.15,1.15,0,0,0-1,.57L5.41,84.61h0l-.5.85v0l-.76,1.3a1.34,1.34,0,0,0-.12.3s0,.11,0,.21a2,2,0,0,0,0,.35,1.48,1.48,0,0,0,.12.29l4.54,7.86a1.14,1.14,0,0,0,1,.57h9.06a1.17,1.17,0,0,0,1-.57l3.56-6.17h0l.46-.81h0l.5-.88A1.13,1.13,0,0,0,24.27,86.78Z"/></g></g><g id="Layer_2-28" data-name="Layer 2"><g id="Layer_1-2-27" data-name="Layer 1-2"><path class="cls-2" d="M89.65,86.78l-.49-.86-.85-1.45h0l-3.2-5.54a1.13,1.13,0,0,0-1-.57H75.06a1.15,1.15,0,0,0-1,.57l-3.28,5.68h0l-.5.85v0l-.75,1.3a1.34,1.34,0,0,0-.12.3s0,.11,0,.21a2,2,0,0,0,0,.35,1.48,1.48,0,0,0,.12.29l4.53,7.86a1.17,1.17,0,0,0,1,.57h9.06a1.17,1.17,0,0,0,1-.57l3.55-6.17h0l.47-.81h0l.5-.88A1.15,1.15,0,0,0,89.65,86.78Z"/></g></g><g id="Layer_2-29" data-name="Layer 2"><g id="Layer_1-2-28" data-name="Layer 1-2"><path class="cls-2" d="M57.84,97.57l-.49-.86-.85-1.45h0l-3.2-5.55a1.14,1.14,0,0,0-1-.57H43.25a1.17,1.17,0,0,0-1,.57L39,95.39h0l-.5.86h0l-.76,1.31a1.48,1.48,0,0,0-.12.29s0,.12,0,.22a2.16,2.16,0,0,0,0,.35,1.39,1.39,0,0,0,.12.28l4.54,7.86a1.13,1.13,0,0,0,1,.58h9.06a1.16,1.16,0,0,0,1-.58l3.56-6.16h0l.46-.81h0l.5-.88A1.13,1.13,0,0,0,57.84,97.57Z"/></g></g><g id="Layer_2-30" data-name="Layer 2"><g id="Layer_1-2-29" data-name="Layer 1-2"><path class="cls-2" d="M57.84,75.92l-.49-.86-.85-1.45h0l-3.2-5.55a1.14,1.14,0,0,0-1-.57H43.25a1.16,1.16,0,0,0-1,.58L39,73.75h0l-.5.85h0l-.76,1.31a1.48,1.48,0,0,0-.12.29s0,.12,0,.22a2.07,2.07,0,0,0,0,.35,1.48,1.48,0,0,0,.12.29l4.54,7.86a1.14,1.14,0,0,0,1,.57h9.06a1.17,1.17,0,0,0,1-.57l3.56-6.17h0l.46-.81h0l.5-.88A1.13,1.13,0,0,0,57.84,75.92Z"/></g></g><g id="Layer_2-31" data-name="Layer 2"><g id="Layer_1-2-30" data-name="Layer 1-2"><path class="cls-2" d="M121.07,97.57l-.49-.86-.84-1.45h0l-3.21-5.55a1.14,1.14,0,0,0-1-.57h-9.07a1.14,1.14,0,0,0-1,.57l-3.28,5.68h0l-.5.86h0L101,97.57a1.08,1.08,0,0,0-.13.29s0,.12,0,.22a2.16,2.16,0,0,0,0,.35,1,1,0,0,0,.13.28l4.53,7.86a1.13,1.13,0,0,0,1,.58h9.07a1.13,1.13,0,0,0,1-.58l3.56-6.16h0l.46-.81h0l.51-.88A1.13,1.13,0,0,0,121.07,97.57Z"/></g></g><g id="Layer_2-32" data-name="Layer 2"><g id="Layer_1-2-31" data-name="Layer 1-2"><path class="cls-2" d="M121.07,75.92l-.49-.86-.84-1.45h0l-3.21-5.55a1.14,1.14,0,0,0-1-.57h-9.07a1.13,1.13,0,0,0-1,.58l-3.28,5.68h0l-.5.85h0L101,75.92a1.08,1.08,0,0,0-.13.29s0,.12,0,.22a2.07,2.07,0,0,0,0,.35,1.08,1.08,0,0,0,.13.29l4.53,7.86a1.14,1.14,0,0,0,1,.57h9.07a1.14,1.14,0,0,0,1-.57l3.56-6.17h0l.46-.81h0l.51-.88A1.13,1.13,0,0,0,121.07,75.92Z"/></g></g><g id="Layer_2-33" data-name="Layer 2"><g id="Layer_1-2-32" data-name="Layer 1-2"><path class="cls-2" d="M149.27,86.78l-.5-.86-.84-1.45h0l-3.2-5.54a1.13,1.13,0,0,0-1-.57h-9.07a1.12,1.12,0,0,0-1,.57l-3.28,5.68h0l-.5.85v0l-.75,1.3a.79.79,0,0,0-.12.3,1.5,1.5,0,0,0,0,.21c0,.12,0,.24,0,.35a.81.81,0,0,0,.12.29l4.53,7.86a1.15,1.15,0,0,0,1,.57h9.07a1.14,1.14,0,0,0,1-.57l3.56-6.17h0l.46-.81h0l.51-.88A1.15,1.15,0,0,0,149.27,86.78Z"/></g></g><g id="Layer_2-34" data-name="Layer 2"><g id="Layer_1-2-33" data-name="Layer 1-2"><path class="cls-2" d="M121.42,118.88l-.49-.86-.85-1.45h0l-3.2-5.55a1.15,1.15,0,0,0-1-.57h-9.06a1.17,1.17,0,0,0-1,.57l-3.28,5.68h0l-.5.86h0l-.75,1.31a1.48,1.48,0,0,0-.12.29s0,.12,0,.22a2.07,2.07,0,0,0,0,.35,1.18,1.18,0,0,0,.12.28l4.53,7.86a1.16,1.16,0,0,0,1,.58h9.06a1.16,1.16,0,0,0,1-.58l3.55-6.16h0l.47-.81h0l.5-.88A1.15,1.15,0,0,0,121.42,118.88Z"/></g></g><g id="Layer_2-35" data-name="Layer 2"><g id="Layer_1-2-34" data-name="Layer 1-2"><path class="cls-2" d="M89.61,108l-.49-.85-.85-1.46h0l-3.2-5.54a1.14,1.14,0,0,0-1-.57H75a1.17,1.17,0,0,0-1,.57l-3.27,5.68h0l-.5.85v0l-.76,1.3a1.57,1.57,0,0,0-.12.3s0,.11,0,.21a2,2,0,0,0,0,.35,1.26,1.26,0,0,0,.12.29L74,117a1.15,1.15,0,0,0,1,.58h9.06a1.18,1.18,0,0,0,1-.58l3.56-6.16h0l.46-.82h0l.5-.87A1.15,1.15,0,0,0,89.61,108Z"/></g></g><g id="Layer_2-36" data-name="Layer 2"><g id="Layer_1-2-35" data-name="Layer 1-2"><path class="cls-2" d="M149.84,129.66l-.49-.86-.84-1.45h0l-3.21-5.54a1.12,1.12,0,0,0-1-.57h-9.07a1.15,1.15,0,0,0-1,.57L131,127.49h0l-.5.85v0l-.76,1.3a1.34,1.34,0,0,0-.12.3s0,.11,0,.21a2,2,0,0,0,0,.35,1.48,1.48,0,0,0,.12.29l4.54,7.86a1.14,1.14,0,0,0,1,.57h9.07a1.14,1.14,0,0,0,1-.57l3.56-6.16h0l.46-.82h0l.51-.88A1.15,1.15,0,0,0,149.84,129.66Z"/></g></g><g id="Layer_2-37" data-name="Layer 2"><g id="Layer_1-2-36" data-name="Layer 1-2"><path class="cls-2" d="M149.84,43.66l-.49-.86-.84-1.45h0L145.3,35.8a1.14,1.14,0,0,0-1-.57h-9.07a1.16,1.16,0,0,0-1,.58L131,41.49h0l-.5.85v0l-.76,1.3a1.48,1.48,0,0,0-.12.29s0,.12,0,.22a2.07,2.07,0,0,0,0,.35,1.48,1.48,0,0,0,.12.29l4.54,7.86a1.14,1.14,0,0,0,1,.57h9.07a1.14,1.14,0,0,0,1-.57l3.56-6.17h0l.46-.81h0l.51-.88A1.15,1.15,0,0,0,149.84,43.66Z"/></g></g><g id="Layer_2-38" data-name="Layer 2"><g id="Layer_1-2-37" data-name="Layer 1-2"><path class="cls-2" d="M149.84,108l-.49-.85-.84-1.46h0l-3.21-5.54a1.14,1.14,0,0,0-1-.57h-9.07a1.17,1.17,0,0,0-1,.57L131,105.84h0l-.5.85v0l-.76,1.3a1.57,1.57,0,0,0-.12.3s0,.11,0,.21a2,2,0,0,0,0,.35,1.26,1.26,0,0,0,.12.29l4.54,7.86a1.15,1.15,0,0,0,1,.58h9.07a1.15,1.15,0,0,0,1-.58l3.56-6.16h0l.46-.82h0l.51-.87A1.17,1.17,0,0,0,149.84,108Z"/></g></g><g id="Layer_2-39" data-name="Layer 2"><g id="Layer_1-2-38" data-name="Layer 1-2"><path class="cls-2" d="M209.64,108l-.49-.85-.84-1.46h0l-3.21-5.54a1.14,1.14,0,0,0-1-.57h-9.07a1.14,1.14,0,0,0-1,.57l-3.28,5.68h0l-.5.85v0l-.75,1.3a1.14,1.14,0,0,0-.13.3s0,.11,0,.21a2,2,0,0,0,0,.35,1,1,0,0,0,.13.29l4.53,7.86a1.15,1.15,0,0,0,1,.58h9.07a1.15,1.15,0,0,0,1-.58l3.56-6.16h0l.46-.82h0l.51-.87A1.15,1.15,0,0,0,209.64,108Z"/></g></g><g id="Layer_2-40" data-name="Layer 2"><g id="Layer_1-2-39" data-name="Layer 1-2"><path class="cls-2" d="M178,118.88l-.5-.86-.84-1.45h0L173.5,111a1.15,1.15,0,0,0-1-.57h-9.07a1.14,1.14,0,0,0-1,.57l-3.28,5.68h0l-.5.86h0l-.75,1.31a.81.81,0,0,0-.12.29,1.84,1.84,0,0,0,0,.22,2.09,2.09,0,0,0,0,.35.7.7,0,0,0,.12.28l4.53,7.86a1.14,1.14,0,0,0,1,.58h9.07a1.13,1.13,0,0,0,1-.58l3.56-6.16h0l.46-.81h0L178,120A1.15,1.15,0,0,0,178,118.88Z"/></g></g><g id="Layer_2-41" data-name="Layer 2"><g id="Layer_1-2-40" data-name="Layer 1-2"><path class="cls-2" d="M157.39,56.11l.49.86.85,1.45h0l3.2,5.55a1.14,1.14,0,0,0,1,.57H172a1.16,1.16,0,0,0,1-.58l3.28-5.68h0l.5-.85v0l.75-1.3a1.48,1.48,0,0,0,.12-.29s0-.12,0-.22a2.07,2.07,0,0,0,0-.35,1.48,1.48,0,0,0-.12-.29L173,47.1a1.17,1.17,0,0,0-1-.57h-9.06a1.17,1.17,0,0,0-1,.57l-3.55,6.17h0l-.47.81h0l-.5.88A1.13,1.13,0,0,0,157.39,56.11Z"/></g></g><g id="Layer_2-42" data-name="Layer 2"><g id="Layer_1-2-41" data-name="Layer 1-2"><path class="cls-2" d="M189.2,67l.49.85.84,1.45h0l3.21,5.55a1.14,1.14,0,0,0,1,.57h9.07a1.17,1.17,0,0,0,1-.57l3.27-5.68h0l.5-.86h0l.76-1.3a1.88,1.88,0,0,0,.12-.3s0-.12,0-.22a2.16,2.16,0,0,0,0-.35,1.39,1.39,0,0,0-.12-.28L204.78,58a1.13,1.13,0,0,0-1-.58h-9.07a1.13,1.13,0,0,0-1,.58l-3.56,6.16h0l-.46.81h0l-.51.88A1.17,1.17,0,0,0,189.2,67Z"/></g></g><g id="Layer_2-43" data-name="Layer 2"><g id="Layer_1-2-42" data-name="Layer 1-2"><path class="cls-2" d="M129,67l.5.85.84,1.45h0l3.21,5.55a1.14,1.14,0,0,0,1,.57h9.07a1.14,1.14,0,0,0,1-.57l3.28-5.68h0l.5-.86h0l.75-1.3a1.3,1.3,0,0,0,.13-.3s0-.12,0-.22a2.16,2.16,0,0,0,0-.35,1,1,0,0,0-.13-.28L144.55,58a1.13,1.13,0,0,0-1-.58h-9.07a1.13,1.13,0,0,0-1,.58l-3.56,6.16h0l-.46.81h0l-.51.88A1.17,1.17,0,0,0,129,67Z"/></g></g><g id="Layer_2-44" data-name="Layer 2"><g id="Layer_1-2-43" data-name="Layer 1-2"><path class="cls-2" d="M100.77,56.11l.5.86.84,1.45h0l3.2,5.55a1.15,1.15,0,0,0,1,.57h9.07a1.13,1.13,0,0,0,1-.58l3.28-5.68h0l.5-.85v0l.75-1.3a.81.81,0,0,0,.12-.29s0-.12,0-.22a2.07,2.07,0,0,0,0-.35,1,1,0,0,0-.12-.29l-4.53-7.86a1.17,1.17,0,0,0-1-.57H106.3a1.14,1.14,0,0,0-1,.57l-3.56,6.17h0l-.46.81h0l-.51.88A1.15,1.15,0,0,0,100.77,56.11Z"/></g></g><g id="Layer_2-45" data-name="Layer 2"><g id="Layer_1-2-44" data-name="Layer 1-2"><path class="cls-2" d="M69.2,67l.5.85.84,1.45h0l3.2,5.55a1.15,1.15,0,0,0,1,.57H83.8a1.15,1.15,0,0,0,1-.57l3.28-5.68h0l.5-.86h0l.75-1.3a.94.94,0,0,0,.12-.3s0-.12,0-.22a2.16,2.16,0,0,0,0-.35,1,1,0,0,0-.12-.28L84.79,58a1.16,1.16,0,0,0-1-.58H74.73a1.13,1.13,0,0,0-1,.58l-3.56,6.16h0l-.46.81h0l-.51.88A1.17,1.17,0,0,0,69.2,67Z"/></g></g><g id="Layer_2-46" data-name="Layer 2"><g id="Layer_1-2-45" data-name="Layer 1-2"><path class="cls-2" d="M209.64,86.78l-.49-.86-.84-1.45h0l-3.21-5.54a1.12,1.12,0,0,0-1-.57h-9.07a1.12,1.12,0,0,0-1,.57l-3.28,5.68h0l-.5.85v0l-.75,1.3a1,1,0,0,0-.13.3s0,.11,0,.21a2,2,0,0,0,0,.35,1.08,1.08,0,0,0,.13.29l4.53,7.86a1.14,1.14,0,0,0,1,.57h9.07a1.14,1.14,0,0,0,1-.57l3.56-6.17h0l.46-.81h0l.51-.88A1.13,1.13,0,0,0,209.64,86.78Z"/></g></g><g id="Layer_2-47" data-name="Layer 2"><g id="Layer_1-2-46" data-name="Layer 1-2"><path class="cls-2" d="M273.87,86.78l-.5-.86-.84-1.45h0l-3.2-5.54a1.13,1.13,0,0,0-1-.57h-9.07a1.12,1.12,0,0,0-1,.57L255,84.61h0l-.5.85v0l-.75,1.3a.79.79,0,0,0-.12.3l0,.21c0,.12,0,.24,0,.35a1,1,0,0,0,.12.29l4.53,7.86a1.17,1.17,0,0,0,1,.57h9.06a1.14,1.14,0,0,0,1-.57l3.56-6.17h0l.46-.81h0l.51-.88A1.15,1.15,0,0,0,273.87,86.78Z"/></g></g><g id="Layer_2-48" data-name="Layer 2"><g id="Layer_1-2-47" data-name="Layer 1-2"><path class="cls-2" d="M177.84,97.57l-.5-.86-.84-1.45h0l-3.2-5.55a1.15,1.15,0,0,0-1-.57h-9.07a1.14,1.14,0,0,0-1,.57L159,95.39h0l-.5.86h0l-.75,1.31a.81.81,0,0,0-.12.29s0,.12,0,.22,0,.23,0,.35a1,1,0,0,0,.12.28l4.53,7.86a1.15,1.15,0,0,0,1,.58h9.06a1.13,1.13,0,0,0,1-.58l3.56-6.16h0l.46-.81h0l.51-.88A1.15,1.15,0,0,0,177.84,97.57Z"/></g></g><g id="Layer_2-49" data-name="Layer 2"><g id="Layer_1-2-48" data-name="Layer 1-2"><path class="cls-2" d="M177.84,75.92l-.5-.86-.84-1.45h0l-3.2-5.55a1.15,1.15,0,0,0-1-.57h-9.07a1.13,1.13,0,0,0-1,.58L159,73.75h0l-.5.85h0l-.75,1.31a.81.81,0,0,0-.12.29s0,.12,0,.22,0,.23,0,.35a1,1,0,0,0,.12.29l4.53,7.86a1.16,1.16,0,0,0,1,.57h9.06a1.14,1.14,0,0,0,1-.57l3.56-6.17h0l.46-.81h0l.51-.88A1.15,1.15,0,0,0,177.84,75.92Z"/></g></g><g id="Layer_2-50" data-name="Layer 2"><g id="Layer_1-2-49" data-name="Layer 1-2"><path class="cls-2" d="M241.07,97.57l-.5-.86-.84-1.45h0l-3.2-5.55a1.15,1.15,0,0,0-1-.57h-9.07a1.15,1.15,0,0,0-1,.57l-3.28,5.68h0l-.5.86h0L221,97.57a.81.81,0,0,0-.12.29s0,.12,0,.22a2.16,2.16,0,0,0,0,.35,1.39,1.39,0,0,0,.12.28l4.53,7.86a1.16,1.16,0,0,0,1,.58h9.06a1.16,1.16,0,0,0,1-.58l3.55-6.16h0l.46-.81h0l.51-.88A1.15,1.15,0,0,0,241.07,97.57Z"/></g></g><g id="Layer_2-51" data-name="Layer 2"><g id="Layer_1-2-50" data-name="Layer 1-2"><path class="cls-2" d="M241.07,75.92l-.5-.86-.84-1.45h0l-3.2-5.55a1.15,1.15,0,0,0-1-.57h-9.07a1.14,1.14,0,0,0-1,.58l-3.28,5.68h0l-.5.85h0L221,75.92a.81.81,0,0,0-.12.29s0,.12,0,.22a2.07,2.07,0,0,0,0,.35,1.48,1.48,0,0,0,.12.29l4.53,7.86a1.17,1.17,0,0,0,1,.57h9.06a1.17,1.17,0,0,0,1-.57l3.55-6.17h0l.46-.81h0l.51-.88A1.15,1.15,0,0,0,241.07,75.92Z"/></g></g><path class="cls-2" d="M66.81,20.63a144.84,144.84,0,0,1,146-.8"/><path class="cls-2" d="M212.76,156.17a144.86,144.86,0,0,1-146,.8"/></g></g></svg>