<svg xmlns="http://www.w3.org/2000/svg" viewBox="0 0 256.25 146.46"><defs><style>.cls-1{fill:#f1f1f1;}.cls-2{fill:none;stroke:#939598;stroke-miterlimit:10;}</style></defs><title>Asset 5</title><g id="Layer_2" data-name="Layer 2"><g id="Artwork"><g id="Layer_2-2" data-name="Layer 2"><g id="Layer_1-2" data-name="Layer 1-2"><path class="cls-1" d="M173.6,74.51l-.49-.86-.84-1.45h0l-3.21-5.55a1.16,1.16,0,0,0-1-.57H159a1.13,1.13,0,0,0-1,.58l-3.28,5.68h0l-.5.85v0l-.75,1.3a1.08,1.08,0,0,0-.13.29s0,.12,0,.22a2.07,2.07,0,0,0,0,.35,1.08,1.08,0,0,0,.13.29L158,83.52a1.14,1.14,0,0,0,1,.57h9.07a1.14,1.14,0,0,0,1-.57l3.56-6.17h0l.46-.81h0l.51-.88A1.13,1.13,0,0,0,173.6,74.51Z"/></g></g><g id="Layer_2-3" data-name="Layer 2"><g id="Layer_1-2-2" data-name="Layer 1-2"><path class="cls-1" d="M193,85.29l-.5-.85L191.69,83h0l-3.2-5.55a1.15,1.15,0,0,0-1-.57h-9.07a1.15,1.15,0,0,0-1,.57l-3.28,5.68h0l-.5.85v0l-.75,1.3a.94.94,0,0,0-.12.3s0,.12,0,.21a2.19,2.19,0,0,0,0,.36,1.39,1.39,0,0,0,.12.28l4.53,7.86a1.16,1.16,0,0,0,1,.58h9.06a1.16,1.16,0,0,0,1-.58l3.55-6.16h0l.46-.82h0l.51-.87A1.17,1.17,0,0,0,193,85.29Z"/></g></g><g id="Layer_2-4" data-name="Layer 2"><g id="Layer_1-2-3" data-name="Layer 1-2"><path class="cls-1" d="M193,63.65l-.5-.86-.84-1.45h0l-3.2-5.55a1.15,1.15,0,0,0-1-.57h-9.07a1.15,1.15,0,0,0-1,.57l-3.28,5.68h0l-.5.86h0l-.75,1.31a.81.81,0,0,0-.12.29s0,.12,0,.22a2.16,2.16,0,0,0,0,.35,1.39,1.39,0,0,0,.12.28l4.53,7.86a1.16,1.16,0,0,0,1,.58h9.06a1.16,1.16,0,0,0,1-.58l3.55-6.16h0l.46-.81h0l.51-.88A1.15,1.15,0,0,0,193,63.65Z"/></g></g><g id="Layer_2-5" data-name="Layer 2"><g id="Layer_1-2-4" data-name="Layer 1-2"><path class="cls-1" d="M212.22,74.51l-.49-.86-.85-1.45h0l-3.2-5.55a1.18,1.18,0,0,0-1-.57h-9.06a1.16,1.16,0,0,0-1,.58l-3.28,5.68h0l-.5.85v0l-.75,1.3a1.48,1.48,0,0,0-.12.29s0,.12,0,.22a2.07,2.07,0,0,0,0,.35,1.48,1.48,0,0,0,.12.29l4.53,7.86a1.17,1.17,0,0,0,1,.57h9.06a1.17,1.17,0,0,0,1-.57l3.55-6.17h0l.47-.81h0l.5-.88A1.15,1.15,0,0,0,212.22,74.51Z"/></g></g><g id="Layer_2-6" data-name="Layer 2"><g id="Layer_1-2-5" data-name="Layer 1-2"><path class="cls-1" d="M193.37,106.6l-.49-.85L192,104.3h0l-3.21-5.55a1.14,1.14,0,0,0-1-.57h-9.07a1.14,1.14,0,0,0-1,.57l-3.28,5.68h0l-.5.86h0l-.76,1.3a1.88,1.88,0,0,0-.12.3s0,.12,0,.22a2.16,2.16,0,0,0,0,.35,1.39,1.39,0,0,0,.12.28l4.54,7.86a1.13,1.13,0,0,0,1,.58h9.07a1.13,1.13,0,0,0,1-.58l3.56-6.16h0l.46-.82h0l.51-.87A1.15,1.15,0,0,0,193.37,106.6Z"/></g></g><g id="Layer_2-7" data-name="Layer 2"><g id="Layer_1-2-6" data-name="Layer 1-2"><path class="cls-1" d="M173.57,95.74l-.5-.86-.84-1.45h0L169,87.89a1.13,1.13,0,0,0-1-.57H159a1.12,1.12,0,0,0-1,.57l-3.28,5.68h0l-.5.85v0l-.75,1.3a.79.79,0,0,0-.12.3,1.5,1.5,0,0,0,0,.21,2,2,0,0,0,0,.35.81.81,0,0,0,.12.29l4.53,7.86a1.15,1.15,0,0,0,1,.57H168a1.14,1.14,0,0,0,1-.57l3.56-6.16h0l.46-.82h0l.51-.88A1.15,1.15,0,0,0,173.57,95.74Z"/></g></g><g id="Layer_2-8" data-name="Layer 2"><g id="Layer_1-2-7" data-name="Layer 1-2"><path class="cls-1" d="M212.8,117.39l-.5-.86-.84-1.45h0l-3.2-5.55a1.18,1.18,0,0,0-1-.57H198.2a1.14,1.14,0,0,0-1,.58l-3.28,5.68h0l-.5.85v0l-.75,1.3a.81.81,0,0,0-.12.29s0,.12,0,.22a2.07,2.07,0,0,0,0,.35,1,1,0,0,0,.12.29l4.53,7.86a1.17,1.17,0,0,0,1,.57h9.06a1.14,1.14,0,0,0,1-.57l3.56-6.17h0l.46-.81h0l.51-.88A1.15,1.15,0,0,0,212.8,117.39Z"/></g></g><g id="Layer_2-9" data-name="Layer 2"><g id="Layer_1-2-8" data-name="Layer 1-2"><path class="cls-1" d="M212.8,31.39l-.5-.86-.84-1.45h0l-3.2-5.55a1.15,1.15,0,0,0-1-.57H198.2a1.15,1.15,0,0,0-1,.57l-3.28,5.68h0l-.5.86h0l-.75,1.31a.81.81,0,0,0-.12.29s0,.12,0,.22a2.16,2.16,0,0,0,0,.35,1,1,0,0,0,.12.28l4.53,7.86a1.16,1.16,0,0,0,1,.58h9.06a1.13,1.13,0,0,0,1-.58l3.56-6.16h0l.46-.81h0l.51-.88A1.15,1.15,0,0,0,212.8,31.39Z"/></g></g><g id="Layer_2-10" data-name="Layer 2"><g id="Layer_1-2-9" data-name="Layer 1-2"><path class="cls-1" d="M212.8,95.74l-.5-.86-.84-1.45h0l-3.2-5.54a1.13,1.13,0,0,0-1-.57H198.2a1.13,1.13,0,0,0-1,.57l-3.28,5.68h0l-.5.85v0l-.75,1.3a.79.79,0,0,0-.12.3s0,.11,0,.21a2,2,0,0,0,0,.35,1,1,0,0,0,.12.29l4.53,7.86a1.17,1.17,0,0,0,1,.57h9.06a1.14,1.14,0,0,0,1-.57l3.56-6.16h0l.46-.82h0l.51-.88A1.15,1.15,0,0,0,212.8,95.74Z"/></g></g><g id="Layer_2-11" data-name="Layer 2"><g id="Layer_1-2-10" data-name="Layer 1-2"><path class="cls-1" d="M251.6,95.74l-.5-.86-.84-1.45h0l-3.2-5.54a1.13,1.13,0,0,0-1-.57H237a1.13,1.13,0,0,0-1,.57l-3.28,5.68h0l-.5.85v0l-.75,1.3a.79.79,0,0,0-.12.3s0,.11,0,.21a2,2,0,0,0,0,.35,1.48,1.48,0,0,0,.12.29l4.53,7.86a1.17,1.17,0,0,0,1,.57h9.06a1.17,1.17,0,0,0,1-.57l3.55-6.16h0l.46-.82h0l.51-.88A1.15,1.15,0,0,0,251.6,95.74Z"/></g></g><g id="Layer_2-12" data-name="Layer 2"><g id="Layer_1-2-11" data-name="Layer 1-2"><path class="cls-1" d="M232,106.6l-.49-.85-.85-1.45h0l-3.2-5.55a1.15,1.15,0,0,0-1-.57H217.4a1.17,1.17,0,0,0-1,.57l-3.28,5.68h0l-.5.86h0l-.75,1.3a1.88,1.88,0,0,0-.12.3s0,.12,0,.22a2.16,2.16,0,0,0,0,.35,1.39,1.39,0,0,0,.12.28l4.53,7.86a1.16,1.16,0,0,0,1,.58h9.06a1.16,1.16,0,0,0,1-.58l3.55-6.16h0l.47-.82h0l.5-.87A1.17,1.17,0,0,0,232,106.6Z"/></g></g><g id="Layer_2-13" data-name="Layer 2"><g id="Layer_1-2-12" data-name="Layer 1-2"><path class="cls-1" d="M211.34,43.84l.5.86.84,1.45h0l3.2,5.55a1.18,1.18,0,0,0,1,.57h9.07a1.13,1.13,0,0,0,1-.58L230.21,46h0l.5-.85v0l.75-1.3a.81.81,0,0,0,.12-.29s0-.12,0-.22,0-.24,0-.35a1,1,0,0,0-.12-.29l-4.53-7.86a1.17,1.17,0,0,0-1-.57h-9.06a1.14,1.14,0,0,0-1,.57L212.32,41h0l-.46.81h0l-.51.88A1.15,1.15,0,0,0,211.34,43.84Z"/></g></g><g id="Layer_2-14" data-name="Layer 2"><g id="Layer_1-2-13" data-name="Layer 1-2"><path class="cls-1" d="M231.15,54.7l.49.86.85,1.45h0l3.2,5.55a1.15,1.15,0,0,0,1,.57h9.06a1.16,1.16,0,0,0,1-.58L250,56.88h0l.5-.86h0l.75-1.31a1,1,0,0,0,.12-.29s0-.12,0-.22a2.07,2.07,0,0,0,0-.35,1.48,1.48,0,0,0-.12-.29l-4.53-7.85a1.16,1.16,0,0,0-1-.58h-9.06a1.16,1.16,0,0,0-1,.58l-3.55,6.16h0l-.46.81h0l-.51.88A1.15,1.15,0,0,0,231.15,54.7Z"/></g></g><g id="Layer_2-15" data-name="Layer 2"><g id="Layer_1-2-14" data-name="Layer 1-2"><path class="cls-1" d="M191.92,54.7l.49.86.85,1.45h0l3.2,5.55a1.15,1.15,0,0,0,1,.57h9.06a1.16,1.16,0,0,0,1-.58l3.28-5.67h0l.5-.86h0L212,54.7a1.48,1.48,0,0,0,.12-.29s0-.12,0-.22a2.07,2.07,0,0,0,0-.35,1.48,1.48,0,0,0-.12-.29l-4.53-7.85a1.16,1.16,0,0,0-1-.58h-9.06a1.16,1.16,0,0,0-1,.58l-3.55,6.16h0l-.47.81h0l-.5.88A1.13,1.13,0,0,0,191.92,54.7Z"/></g></g><g id="Layer_2-16" data-name="Layer 2"><g id="Layer_1-2-15" data-name="Layer 1-2"><path class="cls-1" d="M172.73,43.84l.49.86.84,1.45h0l3.21,5.55a1.16,1.16,0,0,0,1,.57h9.07a1.16,1.16,0,0,0,1-.58L191.59,46h0l.5-.85v0l.76-1.3a1.48,1.48,0,0,0,.12-.29s0-.12,0-.22a2,2,0,0,0,0-.35,1.48,1.48,0,0,0-.12-.29l-4.54-7.86a1.14,1.14,0,0,0-1-.57h-9.07a1.14,1.14,0,0,0-1,.57L173.7,41h0l-.46.81h0l-.51.88A1.15,1.15,0,0,0,172.73,43.84Z"/></g></g><g id="Layer_2-17" data-name="Layer 2"><g id="Layer_1-2-16" data-name="Layer 1-2"><path class="cls-1" d="M153.16,54.7l.49.86.84,1.45h0l3.21,5.55a1.14,1.14,0,0,0,1,.57h9.07a1.16,1.16,0,0,0,1-.58L172,56.88h0l.5-.86h0l.76-1.31a1.48,1.48,0,0,0,.12-.29s0-.12,0-.22a2.07,2.07,0,0,0,0-.35,1.48,1.48,0,0,0-.12-.29l-4.54-7.85a1.13,1.13,0,0,0-1-.58h-9.07a1.13,1.13,0,0,0-1,.58l-3.56,6.16h0l-.46.81h0l-.51.88A1.15,1.15,0,0,0,153.16,54.7Z"/></g></g><g id="Layer_2-18" data-name="Layer 2"><g id="Layer_1-2-17" data-name="Layer 1-2"><path class="cls-1" d="M251.6,74.51l-.5-.86-.84-1.45h0l-3.2-5.55a1.18,1.18,0,0,0-1-.57H237a1.14,1.14,0,0,0-1,.58l-3.28,5.68h0l-.5.85v0l-.75,1.3a.81.81,0,0,0-.12.29s0,.12,0,.22a2.07,2.07,0,0,0,0,.35,1.48,1.48,0,0,0,.12.29L236,83.52a1.17,1.17,0,0,0,1,.57h9.06a1.17,1.17,0,0,0,1-.57l3.55-6.17h0l.46-.81h0l.51-.88A1.15,1.15,0,0,0,251.6,74.51Z"/></g></g><g id="Layer_2-19" data-name="Layer 2"><g id="Layer_1-2-18" data-name="Layer 1-2"><path class="cls-1" d="M231.79,85.29l-.49-.85L230.45,83h0l-3.2-5.55a1.15,1.15,0,0,0-1-.57H217.2a1.17,1.17,0,0,0-1,.57l-3.28,5.68h0l-.5.85v0l-.75,1.3a1.88,1.88,0,0,0-.12.3s0,.12,0,.21a2.19,2.19,0,0,0,0,.36,1.39,1.39,0,0,0,.12.28l4.53,7.86a1.16,1.16,0,0,0,1,.58h9.06a1.16,1.16,0,0,0,1-.58l3.55-6.16h0l.47-.82h0l.5-.87A1.15,1.15,0,0,0,231.79,85.29Z"/></g></g><g id="Layer_2-20" data-name="Layer 2"><g id="Layer_1-2-19" data-name="Layer 1-2"><path class="cls-1" d="M231.79,63.65l-.49-.86-.85-1.45h0l-3.2-5.55a1.15,1.15,0,0,0-1-.57H217.2a1.17,1.17,0,0,0-1,.57l-3.28,5.68h0l-.5.86h0l-.75,1.31a1.48,1.48,0,0,0-.12.29s0,.12,0,.22a2.16,2.16,0,0,0,0,.35,1.39,1.39,0,0,0,.12.28l4.53,7.86a1.16,1.16,0,0,0,1,.58h9.06a1.16,1.16,0,0,0,1-.58l3.55-6.16h0l.47-.81h0l.5-.88A1.13,1.13,0,0,0,231.79,63.65Z"/></g></g><g id="Layer_2-21" data-name="Layer 2"><g id="Layer_1-2-20" data-name="Layer 1-2"><path class="cls-2" d="M177.6,74.51l-.49-.86-.84-1.45h0l-3.21-5.55a1.16,1.16,0,0,0-1-.57H163a1.13,1.13,0,0,0-1,.58l-3.28,5.68h0l-.5.85v0l-.75,1.3a1.08,1.08,0,0,0-.13.29s0,.12,0,.22a2.07,2.07,0,0,0,0,.35,1.08,1.08,0,0,0,.13.29L162,83.52a1.14,1.14,0,0,0,1,.57h9.07a1.14,1.14,0,0,0,1-.57l3.56-6.17h0l.46-.81h0l.51-.88A1.13,1.13,0,0,0,177.6,74.51Z"/></g></g><g id="Layer_2-22" data-name="Layer 2"><g id="Layer_1-2-21" data-name="Layer 1-2"><path class="cls-2" d="M197,85.29l-.5-.85L195.69,83h0l-3.2-5.55a1.15,1.15,0,0,0-1-.57h-9.07a1.15,1.15,0,0,0-1,.57l-3.28,5.68h0l-.5.85v0l-.75,1.3a.94.94,0,0,0-.12.3s0,.12,0,.21a2.19,2.19,0,0,0,0,.36,1.39,1.39,0,0,0,.12.28l4.53,7.86a1.16,1.16,0,0,0,1,.58h9.06a1.16,1.16,0,0,0,1-.58l3.55-6.16h0l.46-.82h0l.51-.87A1.17,1.17,0,0,0,197,85.29Z"/></g></g><g id="Layer_2-23" data-name="Layer 2"><g id="Layer_1-2-22" data-name="Layer 1-2"><path class="cls-2" d="M197,63.65l-.5-.86-.84-1.45h0l-3.2-5.55a1.15,1.15,0,0,0-1-.57h-9.07a1.15,1.15,0,0,0-1,.57l-3.28,5.68h0l-.5.86h0l-.75,1.31a.81.81,0,0,0-.12.29s0,.12,0,.22a2.16,2.16,0,0,0,0,.35,1.39,1.39,0,0,0,.12.28l4.53,7.86a1.16,1.16,0,0,0,1,.58h9.06a1.16,1.16,0,0,0,1-.58l3.55-6.16h0l.46-.81h0l.51-.88A1.15,1.15,0,0,0,197,63.65Z"/></g></g><g id="Layer_2-24" data-name="Layer 2"><g id="Layer_1-2-23" data-name="Layer 1-2"><path class="cls-2" d="M216.22,74.51l-.49-.86-.85-1.45h0l-3.2-5.55a1.18,1.18,0,0,0-1-.57h-9.06a1.16,1.16,0,0,0-1,.58l-3.28,5.68h0l-.5.85v0l-.75,1.3a1.48,1.48,0,0,0-.12.29s0,.12,0,.22a2.07,2.07,0,0,0,0,.35,1.48,1.48,0,0,0,.12.29l4.53,7.86a1.17,1.17,0,0,0,1,.57h9.06a1.17,1.17,0,0,0,1-.57l3.55-6.17h0l.47-.81h0l.5-.88A1.15,1.15,0,0,0,216.22,74.51Z"/></g></g><g id="Layer_2-25" data-name="Layer 2"><g id="Layer_1-2-24" data-name="Layer 1-2"><path class="cls-2" d="M197.37,106.6l-.49-.85L196,104.3h0l-3.21-5.55a1.14,1.14,0,0,0-1-.57h-9.07a1.14,1.14,0,0,0-1,.57l-3.28,5.68h0l-.5.86h0l-.76,1.3a1.88,1.88,0,0,0-.12.3s0,.12,0,.22a2.16,2.16,0,0,0,0,.35,1.39,1.39,0,0,0,.12.28l4.54,7.86a1.13,1.13,0,0,0,1,.58h9.07a1.13,1.13,0,0,0,1-.58l3.56-6.16h0l.46-.82h0l.51-.87A1.15,1.15,0,0,0,197.37,106.6Z"/></g></g><g id="Layer_2-26" data-name="Layer 2"><g id="Layer_1-2-25" data-name="Layer 1-2"><path class="cls-2" d="M177.57,95.74l-.5-.86-.84-1.45h0L173,87.89a1.13,1.13,0,0,0-1-.57H163a1.12,1.12,0,0,0-1,.57l-3.28,5.68h0l-.5.85v0l-.75,1.3a.79.79,0,0,0-.12.3,1.5,1.5,0,0,0,0,.21,2,2,0,0,0,0,.35.81.81,0,0,0,.12.29l4.53,7.86a1.15,1.15,0,0,0,1,.57H172a1.14,1.14,0,0,0,1-.57l3.56-6.16h0l.46-.82h0l.51-.88A1.15,1.15,0,0,0,177.57,95.74Z"/></g></g><g id="Layer_2-27" data-name="Layer 2"><g id="Layer_1-2-26" data-name="Layer 1-2"><path class="cls-2" d="M216.8,117.39l-.5-.86-.84-1.45h0l-3.2-5.55a1.18,1.18,0,0,0-1-.57H202.2a1.14,1.14,0,0,0-1,.58l-3.28,5.68h0l-.5.85v0l-.75,1.3a.81.81,0,0,0-.12.29s0,.12,0,.22a2.07,2.07,0,0,0,0,.35,1,1,0,0,0,.12.29l4.53,7.86a1.17,1.17,0,0,0,1,.57h9.06a1.14,1.14,0,0,0,1-.57l3.56-6.17h0l.46-.81h0l.51-.88A1.15,1.15,0,0,0,216.8,117.39Z"/></g></g><g id="Layer_2-28" data-name="Layer 2"><g id="Layer_1-2-27" data-name="Layer 1-2"><path class="cls-2" d="M216.8,31.39l-.5-.86-.84-1.45h0l-3.2-5.55a1.15,1.15,0,0,0-1-.57H202.2a1.15,1.15,0,0,0-1,.57l-3.28,5.68h0l-.5.86h0l-.75,1.31a.81.81,0,0,0-.12.29s0,.12,0,.22a2.16,2.16,0,0,0,0,.35,1,1,0,0,0,.12.28l4.53,7.86a1.16,1.16,0,0,0,1,.58h9.06a1.13,1.13,0,0,0,1-.58l3.56-6.16h0l.46-.81h0l.51-.88A1.15,1.15,0,0,0,216.8,31.39Z"/></g></g><g id="Layer_2-29" data-name="Layer 2"><g id="Layer_1-2-28" data-name="Layer 1-2"><path class="cls-2" d="M216.8,95.74l-.5-.86-.84-1.45h0l-3.2-5.54a1.13,1.13,0,0,0-1-.57H202.2a1.13,1.13,0,0,0-1,.57l-3.28,5.68h0l-.5.85v0l-.75,1.3a.79.79,0,0,0-.12.3s0,.11,0,.21a2,2,0,0,0,0,.35,1,1,0,0,0,.12.29l4.53,7.86a1.17,1.17,0,0,0,1,.57h9.06a1.14,1.14,0,0,0,1-.57l3.56-6.16h0l.46-.82h0l.51-.88A1.15,1.15,0,0,0,216.8,95.74Z"/></g></g><g id="Layer_2-30" data-name="Layer 2"><g id="Layer_1-2-29" data-name="Layer 1-2"><path class="cls-2" d="M255.6,95.74l-.5-.86-.84-1.45h0l-3.2-5.54a1.13,1.13,0,0,0-1-.57H241a1.13,1.13,0,0,0-1,.57l-3.28,5.68h0l-.5.85v0l-.75,1.3a.79.79,0,0,0-.12.3s0,.11,0,.21a2,2,0,0,0,0,.35,1.48,1.48,0,0,0,.12.29l4.53,7.86a1.17,1.17,0,0,0,1,.57h9.06a1.17,1.17,0,0,0,1-.57l3.55-6.16h0l.46-.82h0l.51-.88A1.15,1.15,0,0,0,255.6,95.74Z"/></g></g><g id="Layer_2-31" data-name="Layer 2"><g id="Layer_1-2-30" data-name="Layer 1-2"><path class="cls-2" d="M236,106.6l-.49-.85-.85-1.45h0l-3.2-5.55a1.15,1.15,0,0,0-1-.57H221.4a1.17,1.17,0,0,0-1,.57l-3.28,5.68h0l-.5.86h0l-.75,1.3a1.88,1.88,0,0,0-.12.3s0,.12,0,.22a2.16,2.16,0,0,0,0,.35,1.39,1.39,0,0,0,.12.28l4.53,7.86a1.16,1.16,0,0,0,1,.58h9.06a1.16,1.16,0,0,0,1-.58l3.55-6.16h0l.47-.82h0l.5-.87A1.17,1.17,0,0,0,236,106.6Z"/></g></g><g id="Layer_2-32" data-name="Layer 2"><g id="Layer_1-2-31" data-name="Layer 1-2"><path class="cls-2" d="M215.34,43.84l.5.86.84,1.45h0l3.2,5.55a1.18,1.18,0,0,0,1,.57h9.07a1.13,1.13,0,0,0,1-.58L234.21,46h0l.5-.85v0l.75-1.3a.81.81,0,0,0,.12-.29s0-.12,0-.22,0-.24,0-.35a1,1,0,0,0-.12-.29l-4.53-7.86a1.17,1.17,0,0,0-1-.57h-9.06a1.14,1.14,0,0,0-1,.57L216.32,41h0l-.46.81h0l-.51.88A1.15,1.15,0,0,0,215.34,43.84Z"/></g></g><g id="Layer_2-33" data-name="Layer 2"><g id="Layer_1-2-32" data-name="Layer 1-2"><path class="cls-2" d="M235.15,54.7l.49.86.85,1.45h0l3.2,5.55a1.15,1.15,0,0,0,1,.57h9.06a1.16,1.16,0,0,0,1-.58L254,56.88h0l.5-.86h0l.75-1.31a1,1,0,0,0,.12-.29s0-.12,0-.22a2.07,2.07,0,0,0,0-.35,1.48,1.48,0,0,0-.12-.29l-4.53-7.85a1.16,1.16,0,0,0-1-.58h-9.06a1.16,1.16,0,0,0-1,.58l-3.55,6.16h0l-.46.81h0l-.51.88A1.15,1.15,0,0,0,235.15,54.7Z"/></g></g><g id="Layer_2-34" data-name="Layer 2"><g id="Layer_1-2-33" data-name="Layer 1-2"><path class="cls-2" d="M195.92,54.7l.49.86.85,1.45h0l3.2,5.55a1.15,1.15,0,0,0,1,.57h9.06a1.16,1.16,0,0,0,1-.58l3.28-5.67h0l.5-.86h0L216,54.7a1.48,1.48,0,0,0,.12-.29s0-.12,0-.22a2.07,2.07,0,0,0,0-.35,1.48,1.48,0,0,0-.12-.29l-4.53-7.85a1.16,1.16,0,0,0-1-.58h-9.06a1.16,1.16,0,0,0-1,.58l-3.55,6.16h0l-.47.81h0l-.5.88A1.13,1.13,0,0,0,195.92,54.7Z"/></g></g><g id="Layer_2-35" data-name="Layer 2"><g id="Layer_1-2-34" data-name="Layer 1-2"><path class="cls-2" d="M176.73,43.84l.49.86.84,1.45h0l3.21,5.55a1.16,1.16,0,0,0,1,.57h9.07a1.16,1.16,0,0,0,1-.58L195.59,46h0l.5-.85v0l.76-1.3a1.48,1.48,0,0,0,.12-.29s0-.12,0-.22a2,2,0,0,0,0-.35,1.48,1.48,0,0,0-.12-.29l-4.54-7.86a1.14,1.14,0,0,0-1-.57h-9.07a1.14,1.14,0,0,0-1,.57L177.7,41h0l-.46.81h0l-.51.88A1.15,1.15,0,0,0,176.73,43.84Z"/></g></g><g id="Layer_2-36" data-name="Layer 2"><g id="Layer_1-2-35" data-name="Layer 1-2"><path class="cls-2" d="M157.16,54.7l.49.86.84,1.45h0l3.21,5.55a1.14,1.14,0,0,0,1,.57h9.07a1.16,1.16,0,0,0,1-.58L176,56.88h0l.5-.86h0l.76-1.31a1.48,1.48,0,0,0,.12-.29s0-.12,0-.22a2.07,2.07,0,0,0,0-.35,1.48,1.48,0,0,0-.12-.29l-4.54-7.85a1.13,1.13,0,0,0-1-.58h-9.07a1.13,1.13,0,0,0-1,.58l-3.56,6.16h0l-.46.81h0l-.51.88A1.15,1.15,0,0,0,157.16,54.7Z"/></g></g><g id="Layer_2-37" data-name="Layer 2"><g id="Layer_1-2-36" data-name="Layer 1-2"><path class="cls-2" d="M255.6,74.51l-.5-.86-.84-1.45h0l-3.2-5.55a1.18,1.18,0,0,0-1-.57H241a1.14,1.14,0,0,0-1,.58l-3.28,5.68h0l-.5.85v0l-.75,1.3a.81.81,0,0,0-.12.29s0,.12,0,.22a2.07,2.07,0,0,0,0,.35,1.48,1.48,0,0,0,.12.29L240,83.52a1.17,1.17,0,0,0,1,.57h9.06a1.17,1.17,0,0,0,1-.57l3.55-6.17h0l.46-.81h0l.51-.88A1.15,1.15,0,0,0,255.6,74.51Z"/></g></g><g id="Layer_2-38" data-name="Layer 2"><g id="Layer_1-2-37" data-name="Layer 1-2"><path class="cls-2" d="M235.79,85.29l-.49-.85L234.45,83h0l-3.2-5.55a1.15,1.15,0,0,0-1-.57H221.2a1.17,1.17,0,0,0-1,.57l-3.28,5.68h0l-.5.85v0l-.75,1.3a1.88,1.88,0,0,0-.12.3s0,.12,0,.21a2.19,2.19,0,0,0,0,.36,1.39,1.39,0,0,0,.12.28l4.53,7.86a1.16,1.16,0,0,0,1,.58h9.06a1.16,1.16,0,0,0,1-.58l3.55-6.16h0l.47-.82h0l.5-.87A1.15,1.15,0,0,0,235.79,85.29Z"/></g></g><g id="Layer_2-39" data-name="Layer 2"><g id="Layer_1-2-38" data-name="Layer 1-2"><path class="cls-2" d="M235.79,63.65l-.49-.86-.85-1.45h0l-3.2-5.55a1.15,1.15,0,0,0-1-.57H221.2a1.17,1.17,0,0,0-1,.57l-3.28,5.68h0l-.5.86h0l-.75,1.31a1.48,1.48,0,0,0-.12.29s0,.12,0,.22a2.16,2.16,0,0,0,0,.35,1.39,1.39,0,0,0,.12.28l4.53,7.86a1.16,1.16,0,0,0,1,.58h9.06a1.16,1.16,0,0,0,1-.58l3.55-6.16h0l.47-.81h0l.5-.88A1.13,1.13,0,0,0,235.79,63.65Z"/></g></g><g id="Layer_2-40" data-name="Layer 2"><g id="Layer_1-2-39" data-name="Layer 1-2"><path class="cls-1" d="M3.47,111.58l5.15,3,8.74,5h0l33.31,19.23a6.87,6.87,0,0,0,6.84,0l47.14-27.21a6.9,6.9,0,0,0,3.45-6V66.23h0l0-5.94,0-.08v-9a6.39,6.39,0,0,0-.26-1.89s-.23-.67-.48-1.22a12.26,12.26,0,0,0-1.22-1.73,7.14,7.14,0,0,0-1.49-1.13L57.48,17.94a7,7,0,0,0-6.9,0L3.45,45.15a6.93,6.93,0,0,0-3.45,6V93.86H0l0,5.61h0v6.09A6.93,6.93,0,0,0,3.47,111.58Z"/></g></g><g id="Layer_2-41" data-name="Layer 2"><g id="Layer_1-2-40" data-name="Layer 1-2"><path class="cls-2" d="M9.47,108.58l5.15,3,8.74,5h0l33.31,19.23a6.87,6.87,0,0,0,6.84,0l47.14-27.21a6.9,6.9,0,0,0,3.45-6V63.23h0l0-5.94,0-.08v-9a6.39,6.39,0,0,0-.26-1.89s-.23-.67-.48-1.22a12.26,12.26,0,0,0-1.22-1.73,7.14,7.14,0,0,0-1.49-1.13L63.48,14.94a7,7,0,0,0-6.9,0L9.45,42.15a6.93,6.93,0,0,0-3.45,6V90.86H6l0,5.61h0v6.09A6.93,6.93,0,0,0,9.47,108.58Z"/></g></g><path class="cls-2" d="M153.47,146.21a144.82,144.82,0,0,1-.79-146"/></g></g></svg>