<svg xmlns="http://www.w3.org/2000/svg" viewBox="0 0 262.89 124.07"><defs><style>.cls-1{fill:#f1f1f1;}.cls-2{fill:none;stroke:#939598;stroke-miterlimit:10;}</style></defs><title>Asset 6</title><g id="Layer_2" data-name="Layer 2"><g id="Artwork"><g id="Layer_2-2" data-name="Layer 2"><g id="Layer_1-2" data-name="Layer 1-2"><path class="cls-1" d="M254.86,61.3l-.57-1-1-1.7h0l-3.75-6.49a1.33,1.33,0,0,0-1.15-.66H237.79a1.33,1.33,0,0,0-1.16.67l-3.84,6.64h0l-.58,1v0l-.88,1.52a1,1,0,0,0-.14.35s0,.14,0,.25a1.84,1.84,0,0,0,0,.41,1.43,1.43,0,0,0,.14.34l5.3,9.19a1.33,1.33,0,0,0,1.16.67H248.4a1.33,1.33,0,0,0,1.16-.67l4.16-7.21h0l.54-.95h0l.59-1A1.33,1.33,0,0,0,254.86,61.3Z"/></g></g><g id="Layer_2-3" data-name="Layer 2"><g id="Layer_1-2-2" data-name="Layer 1-2"><path class="cls-1" d="M255.54,111.47l-.58-1-1-1.69h0l-3.74-6.49a1.35,1.35,0,0,0-1.16-.67h-10.6a1.36,1.36,0,0,0-1.17.67l-3.83,6.65h0l-.59,1v0l-.88,1.53a1.28,1.28,0,0,0-.14.34s0,.14,0,.25a2.71,2.71,0,0,0,0,.41,1.28,1.28,0,0,0,.14.34l5.3,9.19a1.35,1.35,0,0,0,1.17.68h10.6a1.35,1.35,0,0,0,1.17-.68l4.16-7.21h0l.54-1h0l.59-1A1.36,1.36,0,0,0,255.54,111.47Z"/></g></g><g id="Layer_2-4" data-name="Layer 2"><g id="Layer_1-2-3" data-name="Layer 1-2"><path class="cls-1" d="M255.54,10.86l-.58-1-1-1.69h0l-3.74-6.49A1.35,1.35,0,0,0,249.07,1h-10.6a1.36,1.36,0,0,0-1.17.67l-3.83,6.65h0l-.59,1v0L232,10.86a1.43,1.43,0,0,0-.14.34l0,.26a3,3,0,0,0,0,.41,1.36,1.36,0,0,0,.14.33l5.3,9.2a1.36,1.36,0,0,0,1.17.67h10.6a1.36,1.36,0,0,0,1.17-.67l4.16-7.22h0l.54-.95h0l.59-1A1.36,1.36,0,0,0,255.54,10.86Z"/></g></g><g id="Layer_2-5" data-name="Layer 2"><g id="Layer_1-2-4" data-name="Layer 1-2"><path class="cls-1" d="M255.54,86.14l-.58-1-1-1.7h0L250.23,77a1.34,1.34,0,0,0-1.16-.66h-10.6a1.34,1.34,0,0,0-1.17.67l-3.83,6.64h0l-.59,1v0L232,86.14a1.51,1.51,0,0,0-.14.35l0,.25a2.85,2.85,0,0,0,0,.41,1.43,1.43,0,0,0,.14.34l5.3,9.19a1.36,1.36,0,0,0,1.17.67h10.6a1.36,1.36,0,0,0,1.17-.67l4.16-7.21h0l.54-1h0l.59-1A1.36,1.36,0,0,0,255.54,86.14Z"/></g></g><g id="Layer_2-6" data-name="Layer 2"><g id="Layer_1-2-5" data-name="Layer 1-2"><path class="cls-1" d="M231.11,38.13l.58,1,1,1.7h0l3.75,6.48a1.31,1.31,0,0,0,1.15.67h10.61a1.33,1.33,0,0,0,1.16-.67l3.83-6.64h0l.59-1v0l.88-1.53a1.28,1.28,0,0,0,.14-.34s0-.14,0-.25a2.71,2.71,0,0,0,0-.41,1.43,1.43,0,0,0-.14-.34l-5.3-9.19a1.34,1.34,0,0,0-1.17-.67h-10.6a1.33,1.33,0,0,0-1.16.67l-4.16,7.21h0l-.54.95h0l-.6,1A1.36,1.36,0,0,0,231.11,38.13Z"/></g></g><g id="Layer_2-7" data-name="Layer 2"><g id="Layer_1-2-6" data-name="Layer 1-2"><path class="cls-2" d="M261.54,61.3l-.58-1-1-1.7h0l-3.75-6.49a1.33,1.33,0,0,0-1.15-.66H244.47a1.33,1.33,0,0,0-1.16.67l-3.84,6.64h0l-.58,1v0L238,61.3a1,1,0,0,0-.14.35s0,.14,0,.25a1.84,1.84,0,0,0,0,.41,1.43,1.43,0,0,0,.14.34l5.3,9.19a1.33,1.33,0,0,0,1.16.67h10.61a1.34,1.34,0,0,0,1.16-.67l4.16-7.21h0l.54-.95h0l.59-1A1.33,1.33,0,0,0,261.54,61.3Z"/></g></g><g id="Layer_2-8" data-name="Layer 2"><g id="Layer_1-2-7" data-name="Layer 1-2"><path class="cls-2" d="M262.22,111.47l-.58-1-1-1.69h0l-3.74-6.49a1.35,1.35,0,0,0-1.16-.67h-10.6a1.36,1.36,0,0,0-1.17.67l-3.83,6.65h0l-.59,1v0l-.88,1.53a1.28,1.28,0,0,0-.14.34s0,.14,0,.25a2.71,2.71,0,0,0,0,.41,1.28,1.28,0,0,0,.14.34L244,122a1.35,1.35,0,0,0,1.17.68h10.6a1.34,1.34,0,0,0,1.16-.68l4.17-7.21h0l.54-1h0l.59-1A1.36,1.36,0,0,0,262.22,111.47Z"/></g></g><g id="Layer_2-9" data-name="Layer 2"><g id="Layer_1-2-8" data-name="Layer 1-2"><path class="cls-2" d="M262.22,10.86l-.58-1-1-1.69h0l-3.74-6.49A1.35,1.35,0,0,0,255.75,1h-10.6a1.36,1.36,0,0,0-1.17.67l-3.83,6.65h0l-.59,1v0l-.88,1.53a1.43,1.43,0,0,0-.14.34,2.44,2.44,0,0,0,0,.26,3,3,0,0,0,0,.41,1.36,1.36,0,0,0,.14.33l5.3,9.2a1.36,1.36,0,0,0,1.17.67h10.6a1.35,1.35,0,0,0,1.16-.67l4.17-7.22h0l.54-.95h0l.59-1A1.36,1.36,0,0,0,262.22,10.86Z"/></g></g><g id="Layer_2-10" data-name="Layer 2"><g id="Layer_1-2-9" data-name="Layer 1-2"><path class="cls-2" d="M262.22,86.14l-.58-1-1-1.7h0L256.91,77a1.34,1.34,0,0,0-1.16-.66h-10.6A1.34,1.34,0,0,0,244,77l-3.83,6.64h0l-.59,1v0l-.88,1.52a1.51,1.51,0,0,0-.14.35,2.06,2.06,0,0,0,0,.25,2.85,2.85,0,0,0,0,.41,1.43,1.43,0,0,0,.14.34l5.3,9.19a1.36,1.36,0,0,0,1.17.67h10.6a1.35,1.35,0,0,0,1.16-.67l4.17-7.21h0l.54-1h0l.59-1A1.36,1.36,0,0,0,262.22,86.14Z"/></g></g><g id="Layer_2-11" data-name="Layer 2"><g id="Layer_1-2-10" data-name="Layer 1-2"><path class="cls-2" d="M237.79,38.13l.58,1,1,1.7h0l3.75,6.48a1.3,1.3,0,0,0,1.15.67h10.61a1.34,1.34,0,0,0,1.16-.67l3.83-6.64h0l.59-1v0l.88-1.53a1.28,1.28,0,0,0,.14-.34s0-.14,0-.25a2.71,2.71,0,0,0,0-.41,1.43,1.43,0,0,0-.14-.34L256,27.6a1.34,1.34,0,0,0-1.17-.67h-10.6a1.33,1.33,0,0,0-1.16.67l-4.16,7.21h0l-.55.95h0l-.59,1A1.34,1.34,0,0,0,237.79,38.13Z"/></g></g><rect class="cls-1" y="0.9" width="10.67" height="122.68"/><rect class="cls-1" x="19.33" y="0.9" width="10.67" height="122.68"/><rect class="cls-1" x="43.33" y="0.5" width="10.67" height="122.68"/><rect class="cls-1" x="73" y="0.5" width="10.67" height="122.68"/><rect class="cls-1" x="111" y="0.5" width="10.67" height="122.68"/><rect class="cls-1" x="166" y="0.5" width="10.67" height="122.68"/><rect class="cls-2" x="6" y="0.9" width="10.67" height="122.68"/><rect class="cls-2" x="25.33" y="0.9" width="10.67" height="122.68"/><rect class="cls-2" x="49.33" y="0.5" width="10.67" height="122.68"/><rect class="cls-2" x="79" y="0.5" width="10.67" height="122.68"/><rect class="cls-2" x="117" y="0.5" width="10.67" height="122.68"/><rect class="cls-2" x="172" y="0.5" width="10.67" height="122.68"/><line class="cls-2" x1="16.67" y1="62.74" x2="24.67" y2="62.74"/><line class="cls-2" x1="36" y1="62.74" x2="48.67" y2="62.74"/><line class="cls-2" x1="89.67" y1="62.76" x2="117" y2="62.76"/><line class="cls-2" x1="127.67" y1="62.76" x2="171.33" y2="62.76"/><line class="cls-2" x1="60" y1="62.24" x2="79" y2="62.24"/><line class="cls-2" x1="182.67" y1="62.76" x2="237.83" y2="62.76"/></g></g></svg>