<svg xmlns="http://www.w3.org/2000/svg" viewBox="0 0 339.09 186.69"><defs><style>.cls-1{fill:#f1f1f1;}.cls-2{fill:none;stroke:#939598;stroke-miterlimit:10;}</style></defs><title>Asset 8</title><g id="Layer_2" data-name="Layer 2"><g id="Artwork"><path class="cls-1" d="M10.33,55.14A20.64,20.64,0,0,0,31,90.89l0,0,8.94-5.16a2.69,2.69,0,0,0,1.33-2.3V68.39h0V66.11l0,0V62.62a2.52,2.52,0,0,0-.1-.73s-.09-.26-.18-.47a5,5,0,0,0-.47-.66,2.37,2.37,0,0,0-.57-.43L21.86,49.87a2.67,2.67,0,0,0-2.65,0L10.27,55"/><path class="cls-1" d="M59.1,90.12A20.64,20.64,0,0,0,79.74,54.36l0,0-9-5.16a2.6,2.6,0,0,0-2.64,0L55.1,56.69h0l-2,1.13,0,0-3,1.73a2.57,2.57,0,0,0-.58.45s-.18.21-.32.4a6.07,6.07,0,0,0-.34.73,2.42,2.42,0,0,0-.08.71V82.76a2.64,2.64,0,0,0,1.32,2.29L59,90.21"/><path class="cls-1" d="M65.85,30.31a20.64,20.64,0,1,0-41.28,0h-.06V40.64a2.63,2.63,0,0,0,1.32,2.29l13.08,7.55h0l2,1.15h0l3,1.73a2.38,2.38,0,0,0,.68.28l.49.08a5.56,5.56,0,0,0,.81-.08,2.38,2.38,0,0,0,.66-.28L64.64,42.93A2.64,2.64,0,0,0,66,40.64V30.31"/><path class="cls-2" d="M15.63,54.56A20.64,20.64,0,1,0,36.27,90.31l0,0,9-5.16a2.66,2.66,0,0,0,1.32-2.29V67.81h0V65.54l0,0V62a2.26,2.26,0,0,0-.1-.73,2.6,2.6,0,0,0-.65-1.13,2.67,2.67,0,0,0-.57-.43L27.16,49.3a2.67,2.67,0,0,0-2.65,0l-8.94,5.16"/><path class="cls-2" d="M64.4,89.54A20.64,20.64,0,1,0,85,53.79l0,0-8.94-5.17a2.67,2.67,0,0,0-2.65,0L60.4,56.12h0l-2,1.12,0,0-3,1.73a2.51,2.51,0,0,0-.58.45s-.18.2-.32.39a5.28,5.28,0,0,0-.33.73,2.54,2.54,0,0,0-.09.72V82.18a2.66,2.66,0,0,0,1.32,2.3l8.94,5.16"/><path class="cls-2" d="M71.16,29.74a20.65,20.65,0,1,0-41.29,0h-.06V40.07a2.67,2.67,0,0,0,1.32,2.29l13.08,7.55h0l2,1.15h0l3,1.73a2.71,2.71,0,0,0,.68.28s.26,0,.5.07a5.4,5.4,0,0,0,.8-.07,2.57,2.57,0,0,0,.66-.28L70,42.36a2.68,2.68,0,0,0,1.32-2.3V29.74"/><path class="cls-1" d="M130,148.17a20.64,20.64,0,1,0,20.64,35.75l0,.06,8.94-5.17a2.65,2.65,0,0,0,1.33-2.29v-15.1h0v-2.27l0,0v-3.46a2.3,2.3,0,0,0-.1-.73s-.09-.25-.18-.46a4.48,4.48,0,0,0-.47-.67,2.67,2.67,0,0,0-.57-.43l-18.08-10.45a2.67,2.67,0,0,0-2.65,0L130,148.07"/><path class="cls-1" d="M178.79,183.15a20.64,20.64,0,1,0,20.64-35.75l0-.05-8.94-5.17a2.67,2.67,0,0,0-2.65,0l-13.08,7.55h0l-2,1.12,0,0-3,1.73a2.51,2.51,0,0,0-.58.45s-.18.2-.32.39a4.91,4.91,0,0,0-.33.74,2.13,2.13,0,0,0-.09.71v20.88a2.66,2.66,0,0,0,1.32,2.3l8.94,5.16"/><path class="cls-1" d="M184.54,123.35a20.64,20.64,0,1,0-41.28,0h-.06v10.33a2.64,2.64,0,0,0,1.32,2.29l13.08,7.55h0l2,1.15h0l3,1.73a2.71,2.71,0,0,0,.68.28s.26,0,.49.07a5.54,5.54,0,0,0,.81-.07,2.57,2.57,0,0,0,.66-.28L183.34,136a2.68,2.68,0,0,0,1.32-2.3V123.35"/><path class="cls-2" d="M135.32,147.59A20.64,20.64,0,0,0,156,183.35l0,.05,8.95-5.16a2.68,2.68,0,0,0,1.32-2.3V160.85h0v-2.28l0,0v-3.46a2.52,2.52,0,0,0-.09-.73s-.09-.26-.19-.47a4.19,4.19,0,0,0-.47-.66,2.19,2.19,0,0,0-.57-.43l-18.08-10.46a2.67,2.67,0,0,0-2.65,0l-8.94,5.17"/><path class="cls-2" d="M184.09,182.58a20.64,20.64,0,1,0,20.64-35.76l0,0-8.94-5.16a2.62,2.62,0,0,0-2.65,0l-13.08,7.54h0l-2,1.13,0,0-3,1.73a2.82,2.82,0,0,0-.58.45s-.18.21-.32.4a4.8,4.8,0,0,0-.33.73,2.43,2.43,0,0,0-.09.71v20.89a2.64,2.64,0,0,0,1.32,2.29l8.94,5.16"/><path class="cls-2" d="M189.85,122.77a20.65,20.65,0,0,0-41.29,0h-.06V133.1a2.64,2.64,0,0,0,1.33,2.29l13.07,7.55h0l2,1.15h0l3,1.73a2.38,2.38,0,0,0,.68.28l.5.08a5.29,5.29,0,0,0,.8-.08,2.26,2.26,0,0,0,.66-.28l18.1-10.43A2.66,2.66,0,0,0,190,133.1V122.77"/><path class="cls-1" d="M253.54,87.18a20.64,20.64,0,0,0,20.64,35.75l0,.06,8.94-5.17a2.66,2.66,0,0,0,1.33-2.29v-15.1h0V98.16l0,0V94.66a2.5,2.5,0,0,0-.1-.72s-.09-.26-.18-.47a3.93,3.93,0,0,0-.47-.66,2.71,2.71,0,0,0-.57-.44L265.08,81.92a2.67,2.67,0,0,0-2.65,0l-8.94,5.16"/><path class="cls-1" d="M302.32,122.16A20.64,20.64,0,1,0,323,86.41l0,0L314,81.19a2.65,2.65,0,0,0-2.64,0l-13.08,7.55h0l-2,1.13,0,0-3,1.73a2.32,2.32,0,0,0-.58.45l-.32.39a6.21,6.21,0,0,0-.34.74,2.42,2.42,0,0,0-.08.71v20.89a2.65,2.65,0,0,0,1.32,2.29l8.94,5.16"/><path class="cls-1" d="M308.07,62.36a20.64,20.64,0,0,0-41.28,0h-.06V72.69A2.64,2.64,0,0,0,268.05,75l13.08,7.55h0l2,1.15h0l3,1.73a2.38,2.38,0,0,0,.68.28s.26,0,.49.07a4.43,4.43,0,0,0,.81-.07,2.73,2.73,0,0,0,.66-.28L306.86,75a2.66,2.66,0,0,0,1.32-2.3V62.36"/><path class="cls-2" d="M258.85,86.61a20.64,20.64,0,1,0,20.64,35.75l0,0,8.94-5.16a2.67,2.67,0,0,0,1.33-2.3V99.86h0V97.58l0,0V94.09a2.26,2.26,0,0,0-.1-.73,4.07,4.07,0,0,0-.18-.47,5,5,0,0,0-.47-.66,2.67,2.67,0,0,0-.57-.43L270.38,81.35a2.62,2.62,0,0,0-2.65,0l-8.94,5.16"/><path class="cls-2" d="M307.62,121.59a20.64,20.64,0,0,0,20.64-35.76l0,0-8.94-5.16a2.62,2.62,0,0,0-2.65,0l-13.08,7.55h0l-2,1.12,0,0-3,1.74a2.47,2.47,0,0,0-.58.44s-.18.21-.32.4a4.8,4.8,0,0,0-.33.73,2.23,2.23,0,0,0-.09.72v20.88a2.64,2.64,0,0,0,1.32,2.29l8.94,5.16"/><path class="cls-2" d="M313.38,61.78a20.65,20.65,0,0,0-41.29,0H272V72.11a2.68,2.68,0,0,0,1.32,2.3L286.43,82h0l2,1.15h0l3,1.73a2.38,2.38,0,0,0,.68.28l.5.08a4.34,4.34,0,0,0,.8-.08,2.26,2.26,0,0,0,.66-.28l18.1-10.43a2.66,2.66,0,0,0,1.32-2.29V61.78"/><path class="cls-2" d="M101.07,151.58a68.16,68.16,0,1,1,136.32,0"/><path class="cls-2" d="M86.41.43A68.16,68.16,0,0,1,18.25,118.49"/><path class="cls-2" d="M258.22,151.79a68.16,68.16,0,1,1,68.16-118"/><path class="cls-1" d="M218.36,40.19a26.25,26.25,0,1,1-26.25-26.25A26.25,26.25,0,0,1,218.36,40.19Z"/><path class="cls-2" d="M223.65,39.19A26.25,26.25,0,1,1,197.4,12.94,26.25,26.25,0,0,1,223.65,39.19Z"/><line class="cls-2" x1="221.78" y1="48.95" x2="234.62" y2="56.45"/><line class="cls-2" x1="107.5" y1="99.31" x2="118.69" y2="105.85"/></g></g></svg>