<svg xmlns="http://www.w3.org/2000/svg" viewBox="0 0 160.58 183.23"><defs><style>.cls-1{fill:#f1f1f1;}.cls-2{fill:none;stroke:#939598;stroke-miterlimit:10;}</style></defs><title>Asset 12</title><g id="Layer_2" data-name="Layer 2"><g id="Artwork"><g id="Layer_2-2" data-name="Layer 2"><g id="Layer_1-2" data-name="Layer 1-2"><path class="cls-1" d="M47,94.21,46.32,93l-1.16-2h0L40.75,83.4a1.62,1.62,0,0,0-1.36-.79H26.91a1.58,1.58,0,0,0-1.37.8L21,91.22h0l-.68,1.18v0l-1,1.79a2.09,2.09,0,0,0-.17.41l0,.3a3.88,3.88,0,0,0,0,.48,1.71,1.71,0,0,0,.17.39l6.24,10.82a1.58,1.58,0,0,0,1.37.79H39.39a1.6,1.6,0,0,0,1.37-.79l4.89-8.48h0L46.29,97h0L47,95.8A1.61,1.61,0,0,0,47,94.21Z"/></g></g><g id="Layer_2-3" data-name="Layer 2"><g id="Layer_1-2-2" data-name="Layer 1-2"><path class="cls-1" d="M74.21,138.4l-.68-1.18-1.16-2h0L68,127.58a1.58,1.58,0,0,0-1.36-.78H54.12a1.6,1.6,0,0,0-1.37.79l-4.51,7.82h0l-.69,1.17v0l-1,1.8a1.18,1.18,0,0,0-.17.4s0,.16-.05.3a3.91,3.91,0,0,0,.05.48,1.55,1.55,0,0,0,.17.4l6.24,10.82a1.59,1.59,0,0,0,1.36.79H66.6A1.59,1.59,0,0,0,68,150.8l4.9-8.49h0l.63-1.12h0l.7-1.21A1.57,1.57,0,0,0,74.21,138.4Z"/></g></g><g id="Layer_2-4" data-name="Layer 2"><g id="Layer_1-2-3" data-name="Layer 1-2"><path class="cls-1" d="M46.94,123.44l-.67-1.18-1.17-2h0l-4.41-7.63a1.58,1.58,0,0,0-1.36-.79H26.86a1.6,1.6,0,0,0-1.38.79L21,120.45h0l-.69,1.18v0l-1,1.79a1.48,1.48,0,0,0-.17.41s0,.16,0,.29a2.63,2.63,0,0,0,0,.49,1.71,1.71,0,0,0,.17.39l6.24,10.82a1.57,1.57,0,0,0,1.37.79H39.33a1.57,1.57,0,0,0,1.37-.79l4.9-8.48h0l.64-1.12h0l.69-1.21A1.56,1.56,0,0,0,46.94,123.44Z"/></g></g><g id="Layer_2-5" data-name="Layer 2"><g id="Layer_1-2-4" data-name="Layer 1-2"><path class="cls-1" d="M101,153.24l-.68-1.18-1.16-2h0l-4.41-7.63a1.59,1.59,0,0,0-1.36-.79H80.86a1.58,1.58,0,0,0-1.37.79L75,150.25h0l-.69,1.18v0l-1,1.79a1.59,1.59,0,0,0-.16.41s0,.16,0,.3a2.61,2.61,0,0,0,0,.48,1.68,1.68,0,0,0,.16.39l6.24,10.82a1.6,1.6,0,0,0,1.37.79H93.34a1.58,1.58,0,0,0,1.37-.79l4.9-8.48h0l.63-1.12h0l.7-1.21A1.59,1.59,0,0,0,101,153.24Z"/></g></g><g id="Layer_2-6" data-name="Layer 2"><g id="Layer_1-2-5" data-name="Layer 1-2"><path class="cls-1" d="M101,34.85l-.68-1.18-1.16-2h0L94.7,24a1.59,1.59,0,0,0-1.36-.79H80.86a1.58,1.58,0,0,0-1.37.79L75,31.86h0L74.29,33v0l-1,1.79a1.46,1.46,0,0,0-.16.41s0,.16,0,.29a2.63,2.63,0,0,0,0,.49,1.68,1.68,0,0,0,.16.39l6.24,10.82a1.6,1.6,0,0,0,1.37.79H93.34a1.58,1.58,0,0,0,1.37-.79l4.9-8.48h0l.63-1.12h0l.7-1.21A1.59,1.59,0,0,0,101,34.85Z"/></g></g><g id="Layer_2-7" data-name="Layer 2"><g id="Layer_1-2-6" data-name="Layer 1-2"><path class="cls-1" d="M154.36,123.44l-.68-1.18-1.16-2h0l-4.41-7.63a1.59,1.59,0,0,0-1.36-.79H134.27a1.6,1.6,0,0,0-1.37.79l-4.51,7.82h0l-.69,1.18v0l-1,1.79a1.23,1.23,0,0,0-.17.41s0,.16,0,.29a2.63,2.63,0,0,0,0,.49,1.36,1.36,0,0,0,.17.39l6.24,10.82a1.57,1.57,0,0,0,1.36.79h12.48a1.57,1.57,0,0,0,1.37-.79l4.9-8.48h0l.63-1.12h0l.7-1.21A1.59,1.59,0,0,0,154.36,123.44Z"/></g></g><g id="Layer_2-8" data-name="Layer 2"><g id="Layer_1-2-7" data-name="Layer 1-2"><path class="cls-1" d="M127.37,138.4l-.68-1.18-1.16-2h0l-4.41-7.64a1.58,1.58,0,0,0-1.36-.78H107.28a1.58,1.58,0,0,0-1.37.79l-4.51,7.82h0l-.69,1.17v0l-1,1.8a1.4,1.4,0,0,0-.16.4s0,.16-.05.3a2.61,2.61,0,0,0,.05.48,1.52,1.52,0,0,0,.16.4l6.24,10.82a1.62,1.62,0,0,0,1.37.79h12.48a1.6,1.6,0,0,0,1.37-.79l4.89-8.49h0l.64-1.12h0l.7-1.21A1.57,1.57,0,0,0,127.37,138.4Z"/></g></g><g id="Layer_2-9" data-name="Layer 2"><g id="Layer_1-2-8" data-name="Layer 1-2"><path class="cls-1" d="M99,52l.68,1.18,1.16,2h0l4.41,7.64a1.58,1.58,0,0,0,1.36.78H119a1.6,1.6,0,0,0,1.37-.79L124.92,55h0l.69-1.18v0l1-1.79a1.62,1.62,0,0,0,.17-.41s0-.16,0-.3a2.59,2.59,0,0,0,0-.48,1.55,1.55,0,0,0-.17-.4L120.4,39.6a1.6,1.6,0,0,0-1.37-.8H106.56a1.6,1.6,0,0,0-1.37.8l-4.9,8.48h0l-.64,1.12h0L99,50.41A1.59,1.59,0,0,0,99,52Z"/></g></g><g id="Layer_2-10" data-name="Layer 2"><g id="Layer_1-2-9" data-name="Layer 1-2"><path class="cls-1" d="M126.21,67l.68,1.18,1.17,2h0l4.4,7.63a1.58,1.58,0,0,0,1.36.79H146.3a1.57,1.57,0,0,0,1.37-.79l4.52-7.82h0l.68-1.18v0l1-1.79a1.86,1.86,0,0,0,.17-.41s0-.16,0-.29a2.63,2.63,0,0,0,0-.49,1.92,1.92,0,0,0-.17-.39l-6.24-10.82a1.58,1.58,0,0,0-1.37-.79H133.82a1.6,1.6,0,0,0-1.37.79L127.56,63h0l-.64,1.12h0l-.7,1.21A1.61,1.61,0,0,0,126.21,67Z"/></g></g><g id="Layer_2-11" data-name="Layer 2"><g id="Layer_1-2-10" data-name="Layer 1-2"><path class="cls-1" d="M45.79,52l.68,1.18,1.16,2h0L52,62.81a1.58,1.58,0,0,0,1.36.78H65.88a1.6,1.6,0,0,0,1.37-.79L71.76,55h0l.69-1.18v0l1-1.79a1.32,1.32,0,0,0,.17-.41s0-.16,0-.3a2.59,2.59,0,0,0,0-.48,1.55,1.55,0,0,0-.17-.4L67.25,39.6a1.63,1.63,0,0,0-1.38-.8H53.4a1.6,1.6,0,0,0-1.37.8l-4.9,8.48h0L46.5,49.2h0l-.7,1.21A1.59,1.59,0,0,0,45.79,52Z"/></g></g><g id="Layer_2-12" data-name="Layer 2"><g id="Layer_1-2-11" data-name="Layer 1-2"><path class="cls-1" d="M18.85,67l.68,1.18,1.16,2h0l4.41,7.63a1.57,1.57,0,0,0,1.36.79H38.94a1.6,1.6,0,0,0,1.37-.79l4.51-7.82h0l.69-1.18v0l1-1.79a1.23,1.23,0,0,0,.17-.41s0-.16,0-.29a3.87,3.87,0,0,0,0-.49,1.49,1.49,0,0,0-.17-.39L40.3,54.55a1.57,1.57,0,0,0-1.36-.79H26.46a1.57,1.57,0,0,0-1.37.79L20.19,63h0l-.63,1.12h0l-.7,1.21A1.59,1.59,0,0,0,18.85,67Z"/></g></g><g id="Layer_2-13" data-name="Layer 2"><g id="Layer_1-2-12" data-name="Layer 1-2"><path class="cls-1" d="M154.36,94.21,153.68,93l-1.16-2h0l-4.41-7.64a1.61,1.61,0,0,0-1.36-.79H134.27a1.6,1.6,0,0,0-1.37.8l-4.51,7.81h0l-.69,1.18v0l-1,1.79a1.32,1.32,0,0,0-.17.41s0,.16,0,.3a2.59,2.59,0,0,0,0,.48,1.36,1.36,0,0,0,.17.39l6.24,10.82a1.57,1.57,0,0,0,1.36.79h12.48a1.57,1.57,0,0,0,1.37-.79l4.9-8.48h0l.63-1.12h0l.7-1.21A1.59,1.59,0,0,0,154.36,94.21Z"/></g></g><g id="Layer_2-14" data-name="Layer 2"><g id="Layer_1-2-13" data-name="Layer 1-2"><path class="cls-2" d="M51.67,94.21,51,93l-1.16-2h0L45.42,83.4a1.61,1.61,0,0,0-1.36-.79H31.58a1.59,1.59,0,0,0-1.37.8L25.7,91.22h0L25,92.4v0l-1,1.79a1.32,1.32,0,0,0-.17.41s0,.16,0,.3a3.91,3.91,0,0,0,0,.48,1.36,1.36,0,0,0,.17.39l6.23,10.82a1.6,1.6,0,0,0,1.37.79H44.06a1.57,1.57,0,0,0,1.37-.79l4.9-8.48h0L51,97h0l.7-1.21A1.59,1.59,0,0,0,51.67,94.21Z"/></g></g><g id="Layer_2-15" data-name="Layer 2"><g id="Layer_1-2-14" data-name="Layer 1-2"><path class="cls-2" d="M79.72,138.4,79,137.22l-1.16-2h0l-4.41-7.64a1.59,1.59,0,0,0-1.36-.78H59.63a1.57,1.57,0,0,0-1.37.79l-4.52,7.82h0l-.68,1.17v0l-1,1.8a1.4,1.4,0,0,0-.16.4s0,.16,0,.3a2.61,2.61,0,0,0,0,.48,1.52,1.52,0,0,0,.16.4l6.24,10.82a1.6,1.6,0,0,0,1.37.79H72.11a1.6,1.6,0,0,0,1.37-.79l4.89-8.49h0l.64-1.12h0l.7-1.21A1.59,1.59,0,0,0,79.72,138.4Z"/></g></g><g id="Layer_2-16" data-name="Layer 2"><g id="Layer_1-2-15" data-name="Layer 1-2"><path class="cls-2" d="M51.62,123.44l-.68-1.18-1.16-2h0l-4.41-7.63a1.6,1.6,0,0,0-1.36-.79H31.53a1.57,1.57,0,0,0-1.37.79l-4.51,7.82h0L25,121.63v0l-1,1.79a1.46,1.46,0,0,0-.16.41s0,.16-.05.29a2.63,2.63,0,0,0,.05.49,1.34,1.34,0,0,0,.16.39l6.24,10.82a1.58,1.58,0,0,0,1.37.79H44a1.58,1.58,0,0,0,1.37-.79l4.89-8.48h0l.64-1.12h0l.7-1.21A1.59,1.59,0,0,0,51.62,123.44Z"/></g></g><g id="Layer_2-17" data-name="Layer 2"><g id="Layer_1-2-16" data-name="Layer 1-2"><path class="cls-2" d="M106.46,153.24l-.68-1.18-1.17-2h0l-4.41-7.63a1.57,1.57,0,0,0-1.35-.79H86.37a1.57,1.57,0,0,0-1.37.79l-4.52,7.82h0l-.68,1.18v0l-1,1.79a2.09,2.09,0,0,0-.17.41s0,.16,0,.3a3.88,3.88,0,0,0,0,.48,1.71,1.71,0,0,0,.17.39L85,165.64a1.58,1.58,0,0,0,1.37.79H98.85a1.6,1.6,0,0,0,1.37-.79l4.89-8.48h0l.64-1.12h0l.7-1.21A1.61,1.61,0,0,0,106.46,153.24Z"/></g></g><g id="Layer_2-18" data-name="Layer 2"><g id="Layer_1-2-17" data-name="Layer 1-2"><path class="cls-2" d="M106.46,34.85l-.68-1.18-1.17-2h0L100.2,24a1.57,1.57,0,0,0-1.35-.79H86.37A1.57,1.57,0,0,0,85,24l-4.52,7.82h0L79.8,33v0l-1,1.79a1.86,1.86,0,0,0-.17.41s0,.16,0,.29a3.89,3.89,0,0,0,0,.49,1.71,1.71,0,0,0,.17.39L85,47.25a1.58,1.58,0,0,0,1.37.79H98.85a1.6,1.6,0,0,0,1.37-.79l4.89-8.48h0l.64-1.12h0l.7-1.21A1.61,1.61,0,0,0,106.46,34.85Z"/></g></g><g id="Layer_2-19" data-name="Layer 2"><g id="Layer_1-2-18" data-name="Layer 1-2"><path class="cls-2" d="M159.87,123.44l-.68-1.18-1.16-2h0l-4.41-7.63a1.59,1.59,0,0,0-1.36-.79H139.78a1.57,1.57,0,0,0-1.37.79l-4.51,7.82h0l-.69,1.18v0l-1,1.79a1.46,1.46,0,0,0-.16.41s0,.16,0,.29a2.63,2.63,0,0,0,0,.49,1.34,1.34,0,0,0,.16.39l6.24,10.82a1.6,1.6,0,0,0,1.37.79h12.48a1.58,1.58,0,0,0,1.37-.79l4.89-8.48h0l.64-1.12h0l.7-1.21A1.59,1.59,0,0,0,159.87,123.44Z"/></g></g><g id="Layer_2-20" data-name="Layer 2"><g id="Layer_1-2-19" data-name="Layer 1-2"><path class="cls-2" d="M132.88,138.4l-.68-1.18-1.17-2h0l-4.41-7.64a1.56,1.56,0,0,0-1.35-.78H112.79a1.57,1.57,0,0,0-1.37.79l-4.52,7.82h0l-.68,1.17v0l-1,1.8a1.78,1.78,0,0,0-.17.4s0,.16,0,.3a3.88,3.88,0,0,0,0,.48,2,2,0,0,0,.17.4l6.24,10.82a1.6,1.6,0,0,0,1.37.79h12.48a1.62,1.62,0,0,0,1.37-.79l4.89-8.49h0l.64-1.12h0l.7-1.21A1.59,1.59,0,0,0,132.88,138.4Z"/></g></g><g id="Layer_2-21" data-name="Layer 2"><g id="Layer_1-2-20" data-name="Layer 1-2"><path class="cls-2" d="M104.45,52l.68,1.18,1.16,2h0l4.41,7.64a1.59,1.59,0,0,0,1.36.78h12.48a1.57,1.57,0,0,0,1.37-.79L130.43,55h0l.68-1.18v0l1-1.79a2.09,2.09,0,0,0,.17-.41s0-.16,0-.3a3.88,3.88,0,0,0,0-.48,2,2,0,0,0-.17-.4L125.91,39.6a1.61,1.61,0,0,0-1.37-.8H112.06a1.63,1.63,0,0,0-1.37.8l-4.89,8.48h0l-.64,1.12h0l-.7,1.21A1.61,1.61,0,0,0,104.45,52Z"/></g></g><g id="Layer_2-22" data-name="Layer 2"><g id="Layer_1-2-21" data-name="Layer 1-2"><path class="cls-2" d="M131.72,67l.68,1.18,1.16,2h0L138,77.76a1.57,1.57,0,0,0,1.36.79h12.48a1.58,1.58,0,0,0,1.37-.79l4.51-7.82h0l.69-1.18v0l1-1.79a1.46,1.46,0,0,0,.16-.41s0-.16,0-.29a2.63,2.63,0,0,0,0-.49,1.88,1.88,0,0,0-.16-.39l-6.24-10.82a1.6,1.6,0,0,0-1.37-.79H139.33a1.58,1.58,0,0,0-1.37.79L133.06,63h0l-.63,1.12h0l-.7,1.21A1.59,1.59,0,0,0,131.72,67Z"/></g></g><g id="Layer_2-23" data-name="Layer 2"><g id="Layer_1-2-22" data-name="Layer 1-2"><path class="cls-2" d="M51.29,52,52,53.18l1.17,2h0l4.41,7.64a1.56,1.56,0,0,0,1.35.78H71.38a1.57,1.57,0,0,0,1.37-.79L77.27,55h0L78,53.81v0L79,52a1.62,1.62,0,0,0,.17-.41s0-.16,0-.3a2.59,2.59,0,0,0,0-.48,2,2,0,0,0-.17-.4L72.75,39.6a1.6,1.6,0,0,0-1.37-.8H58.9a1.63,1.63,0,0,0-1.37.8l-4.89,8.48h0L52,49.2h0l-.69,1.21A1.59,1.59,0,0,0,51.29,52Z"/></g></g><g id="Layer_2-24" data-name="Layer 2"><g id="Layer_1-2-23" data-name="Layer 1-2"><path class="cls-2" d="M24.36,67,25,68.13l1.17,2h0l4.41,7.63a1.55,1.55,0,0,0,1.35.79H44.44a1.57,1.57,0,0,0,1.37-.79l4.52-7.82h0L51,68.76v0l1-1.79a1.48,1.48,0,0,0,.17-.41s0-.16,0-.29a2.63,2.63,0,0,0,0-.49,1.92,1.92,0,0,0-.17-.39L45.81,54.55a1.57,1.57,0,0,0-1.37-.79H32a1.57,1.57,0,0,0-1.36.79L25.7,63h0l-.64,1.12h0l-.69,1.21A1.56,1.56,0,0,0,24.36,67Z"/></g></g><g id="Layer_2-25" data-name="Layer 2"><g id="Layer_1-2-24" data-name="Layer 1-2"><path class="cls-2" d="M159.87,94.21,159.19,93,158,91h0l-4.41-7.64a1.61,1.61,0,0,0-1.36-.79H139.78a1.58,1.58,0,0,0-1.37.8l-4.51,7.81h0l-.69,1.18v0l-1,1.79a1.59,1.59,0,0,0-.16.41s0,.16,0,.3a2.61,2.61,0,0,0,0,.48,1.34,1.34,0,0,0,.16.39l6.24,10.82a1.6,1.6,0,0,0,1.37.79h12.48a1.58,1.58,0,0,0,1.37-.79l4.89-8.48h0l.64-1.12h0l.7-1.21A1.59,1.59,0,0,0,159.87,94.21Z"/></g></g><path class="cls-1" d="M115.81,95.16A27.42,27.42,0,1,1,88.4,67.75,27.41,27.41,0,0,1,115.81,95.16Z"/><path class="cls-2" d="M120.5,94.11A27.41,27.41,0,1,1,93.09,66.7,27.41,27.41,0,0,1,120.5,94.11Z"/><path class="cls-2" d="M62.58,182.76A93.9,93.9,0,0,1,126.26,6.09"/></g></g></svg>