<svg xmlns="http://www.w3.org/2000/svg" viewBox="0 0 335.35 162.91"><defs><style>.cls-1{fill:#f1f1f1;}.cls-2{fill:none;stroke:#939598;stroke-miterlimit:10;}</style></defs><title>Asset 11</title><g id="Layer_2" data-name="Layer 2"><g id="Artwork"><g id="Layer_2-2" data-name="Layer 2"><g id="Layer_1-2" data-name="Layer 1-2"><path class="cls-1" d="M67.83,110.5l-1.65-2.87-2.82-4.86h0L52.64,84.21a3.87,3.87,0,0,0-3.31-1.91H19a3.87,3.87,0,0,0-3.33,1.92l-11,19h0L3,106.08v.06L.51,110.5a3.49,3.49,0,0,0-.4,1s-.07.39-.11.73a6.62,6.62,0,0,0,.11,1.17,4.06,4.06,0,0,0,.4,1l15.17,26.3A3.86,3.86,0,0,0,19,142.56H49.33a3.88,3.88,0,0,0,3.34-1.92L64.57,120h0l1.54-2.72h0l1.7-2.94A3.82,3.82,0,0,0,67.83,110.5Z"/></g></g><g id="Layer_2-3" data-name="Layer 2"><g id="Layer_1-2-2" data-name="Layer 1-2"><path class="cls-1" d="M97.18,126.1,96.52,125,95.39,123h0l-4.29-7.43a1.54,1.54,0,0,0-1.33-.76H77.63a1.53,1.53,0,0,0-1.33.77l-4.39,7.6h0l-.67,1.15v0l-1,1.74a1.4,1.4,0,0,0-.16.4,2.7,2.7,0,0,0,0,.29,2.38,2.38,0,0,0,0,.46,1.68,1.68,0,0,0,.16.39l6.07,10.53a1.59,1.59,0,0,0,1.34.77H89.77a1.59,1.59,0,0,0,1.34-.77l4.76-8.26h0l.62-1.09h0l.68-1.17A1.56,1.56,0,0,0,97.18,126.1Z"/></g></g><g id="Layer_2-4" data-name="Layer 2"><g id="Layer_1-2-3" data-name="Layer 1-2"><path class="cls-1" d="M97.18,97.11,96.52,96,95.39,94h0L91.1,86.59a1.58,1.58,0,0,0-1.33-.77H77.63a1.55,1.55,0,0,0-1.33.77L71.91,94.2h0l-.67,1.14v0l-1,1.75a1.34,1.34,0,0,0-.16.39s0,.16,0,.29a2.42,2.42,0,0,0,0,.47,1.68,1.68,0,0,0,.16.39l6.07,10.52a1.55,1.55,0,0,0,1.34.77H89.77a1.55,1.55,0,0,0,1.34-.77l4.76-8.25h0l.62-1.09h0l.68-1.18A1.54,1.54,0,0,0,97.18,97.11Z"/></g></g><g id="Layer_2-5" data-name="Layer 2"><g id="Layer_1-2-4" data-name="Layer 1-2"><path class="cls-1" d="M122.88,111.66l-.66-1.15-1.13-2h0l-4.29-7.42a1.53,1.53,0,0,0-1.32-.77H103.34a1.57,1.57,0,0,0-1.34.77l-4.39,7.61h0L97,109.89v0l-1,1.75a1.11,1.11,0,0,0-.16.39s0,.16,0,.29a2.5,2.5,0,0,0,0,.47,1.46,1.46,0,0,0,.16.39L102,123.72a1.52,1.52,0,0,0,1.33.77h12.14a1.52,1.52,0,0,0,1.33-.77l4.77-8.25h0l.61-1.09h0l.68-1.18A1.52,1.52,0,0,0,122.88,111.66Z"/></g></g><g id="Layer_2-6" data-name="Layer 2"><g id="Layer_1-2-5" data-name="Layer 1-2"><path class="cls-1" d="M121.71,70.58l.66,1.15,1.13,1.94h0l4.29,7.43a1.56,1.56,0,0,0,1.32.77h12.14a1.57,1.57,0,0,0,1.34-.77L147,73.49h0l.67-1.14v0l1-1.75a1.49,1.49,0,0,0,.17-.39s0-.16,0-.29a3.57,3.57,0,0,0,0-.47,1.71,1.71,0,0,0-.17-.39l-6.07-10.52a1.52,1.52,0,0,0-1.33-.77H129.11a1.52,1.52,0,0,0-1.33.77L123,66.77h0l-.62,1.09h0L121.72,69A1.52,1.52,0,0,0,121.71,70.58Z"/></g></g><g id="Layer_2-7" data-name="Layer 2"><g id="Layer_1-2-6" data-name="Layer 1-2"><path class="cls-1" d="M95.69,85.13l.67,1.15,1.13,1.94h0l4.29,7.43a1.55,1.55,0,0,0,1.32.77h12.14a1.54,1.54,0,0,0,1.33-.77L121,88h0l.67-1.14v0l1-1.75a1.46,1.46,0,0,0,.16-.39s0-.16,0-.29a2.42,2.42,0,0,0,0-.47,1.68,1.68,0,0,0-.16-.39l-6.07-10.52a1.53,1.53,0,0,0-1.33-.77H103.1a1.55,1.55,0,0,0-1.34.77L97,81.32h0l-.62,1.09h0l-.68,1.18A1.54,1.54,0,0,0,95.69,85.13Z"/></g></g><g id="Layer_2-8" data-name="Layer 2"><g id="Layer_1-2-7" data-name="Layer 1-2"><path class="cls-1" d="M175.62,111.66l-.66-1.15-1.13-2h0l-4.29-7.42a1.53,1.53,0,0,0-1.32-.77H156.08a1.54,1.54,0,0,0-1.33.77l-4.4,7.61h0l-.67,1.14v0l-1,1.75a1.11,1.11,0,0,0-.16.39s0,.16-.05.29a2.5,2.5,0,0,0,.05.47,1.46,1.46,0,0,0,.16.39l6.07,10.52a1.52,1.52,0,0,0,1.33.77h12.14a1.52,1.52,0,0,0,1.33-.77l4.77-8.25h0l.61-1.09h0l.68-1.18A1.52,1.52,0,0,0,175.62,111.66Z"/></g></g><g id="Layer_2-9" data-name="Layer 2"><g id="Layer_1-2-8" data-name="Layer 1-2"><path class="cls-1" d="M149.09,126.1l-.66-1.15L147.3,123h0L143,115.58a1.52,1.52,0,0,0-1.32-.76H129.55a1.52,1.52,0,0,0-1.33.77l-4.39,7.6h0l-.67,1.15v0l-1,1.74a1.4,1.4,0,0,0-.16.4s0,.15,0,.29a3.59,3.59,0,0,0,0,.46,1.34,1.34,0,0,0,.16.39l6.07,10.53a1.58,1.58,0,0,0,1.33.77h12.14a1.56,1.56,0,0,0,1.33-.77l4.77-8.26h0l.62-1.09h0l.67-1.17A1.54,1.54,0,0,0,149.09,126.1Z"/></g></g><g id="Layer_2-10" data-name="Layer 2"><g id="Layer_1-2-9" data-name="Layer 1-2"><path class="cls-1" d="M149.09,97.11,148.43,96,147.3,94h0L143,86.59a1.55,1.55,0,0,0-1.32-.77H129.55a1.54,1.54,0,0,0-1.33.77l-4.39,7.61h0l-.67,1.14v0l-1,1.75a1.34,1.34,0,0,0-.16.39s0,.16,0,.29a3.56,3.56,0,0,0,0,.47,1.34,1.34,0,0,0,.16.39l6.07,10.52a1.53,1.53,0,0,0,1.33.77h12.14a1.52,1.52,0,0,0,1.33-.77l4.77-8.25h0l.62-1.09h0l.67-1.18A1.52,1.52,0,0,0,149.09,97.11Z"/></g></g><g id="Layer_2-11" data-name="Layer 2"><g id="Layer_1-2-10" data-name="Layer 1-2"><path class="cls-2" d="M73.22,110.5l-1.66-2.87-2.82-4.86h0L58,84.21a3.86,3.86,0,0,0-3.3-1.91H24.39a3.89,3.89,0,0,0-3.34,1.92l-11,19h0l-1.68,2.85v.06L5.9,110.5a3.51,3.51,0,0,0-.41,1s-.07.39-.11.73a7.72,7.72,0,0,0,.11,1.17,3.71,3.71,0,0,0,.41,1l15.16,26.3a3.87,3.87,0,0,0,3.33,1.92H54.72a3.87,3.87,0,0,0,3.33-1.92L70,120h0l1.54-2.72h0l1.7-2.94A3.84,3.84,0,0,0,73.22,110.5Z"/></g></g><g id="Layer_2-12" data-name="Layer 2"><g id="Layer_1-2-11" data-name="Layer 1-2"><path class="cls-2" d="M102.54,126.1l-.67-1.15L100.74,123h0l-4.29-7.43a1.52,1.52,0,0,0-1.32-.76H83a1.52,1.52,0,0,0-1.33.77l-4.39,7.6h0l-.67,1.15v0l-1,1.74a1.4,1.4,0,0,0-.16.4s0,.15-.05.29a3.59,3.59,0,0,0,.05.46,1.34,1.34,0,0,0,.16.39l6.07,10.53a1.58,1.58,0,0,0,1.33.77H95.13a1.56,1.56,0,0,0,1.33-.77l4.77-8.26h0l.62-1.09h0l.68-1.17A1.56,1.56,0,0,0,102.54,126.1Z"/></g></g><g id="Layer_2-13" data-name="Layer 2"><g id="Layer_1-2-12" data-name="Layer 1-2"><path class="cls-2" d="M102.54,97.11,101.87,96,100.74,94h0l-4.29-7.43a1.55,1.55,0,0,0-1.32-.77H83a1.54,1.54,0,0,0-1.33.77L77.27,94.2h0l-.67,1.14v0l-1,1.75a1.34,1.34,0,0,0-.16.39s0,.16-.05.29a3.56,3.56,0,0,0,.05.47,1.34,1.34,0,0,0,.16.39l6.07,10.52a1.53,1.53,0,0,0,1.33.77H95.13a1.52,1.52,0,0,0,1.33-.77l4.77-8.25h0l.62-1.09h0l.68-1.18A1.54,1.54,0,0,0,102.54,97.11Z"/></g></g><g id="Layer_2-14" data-name="Layer 2"><g id="Layer_1-2-13" data-name="Layer 1-2"><path class="cls-2" d="M128.24,111.66l-.66-1.15-1.13-2h0l-4.29-7.42a1.55,1.55,0,0,0-1.32-.77H108.7a1.57,1.57,0,0,0-1.34.77L103,108.75h0l-.67,1.14v0l-1,1.75a1.68,1.68,0,0,0-.16.39s0,.16,0,.29a3.73,3.73,0,0,0,0,.47,1.88,1.88,0,0,0,.16.39l6.08,10.52a1.52,1.52,0,0,0,1.33.77h12.14a1.52,1.52,0,0,0,1.33-.77l4.76-8.25h0l.62-1.09h0l.68-1.18A1.54,1.54,0,0,0,128.24,111.66Z"/></g></g><g id="Layer_2-15" data-name="Layer 2"><g id="Layer_1-2-14" data-name="Layer 1-2"><path class="cls-2" d="M127.07,70.58l.66,1.15,1.13,1.94h0l4.29,7.43a1.55,1.55,0,0,0,1.32.77h12.14a1.54,1.54,0,0,0,1.33-.77l4.39-7.61h0l.67-1.14v0l1-1.75a1.46,1.46,0,0,0,.16-.39s0-.16.05-.29a2.42,2.42,0,0,0-.05-.47A1.34,1.34,0,0,0,154,69l-6.07-10.52a1.52,1.52,0,0,0-1.33-.77H134.47a1.52,1.52,0,0,0-1.33.77l-4.77,8.25h0l-.62,1.09h0L127.08,69A1.52,1.52,0,0,0,127.07,70.58Z"/></g></g><g id="Layer_2-16" data-name="Layer 2"><g id="Layer_1-2-15" data-name="Layer 1-2"><path class="cls-2" d="M101.05,85.13l.66,1.15,1.13,1.94h0l4.29,7.43a1.58,1.58,0,0,0,1.33.77H120.6a1.55,1.55,0,0,0,1.33-.77L126.32,88h0L127,86.9v0l1-1.75a1.88,1.88,0,0,0,.16-.39s0-.16,0-.29a2.42,2.42,0,0,0,0-.47,1.68,1.68,0,0,0-.16-.39l-6.07-10.52a1.55,1.55,0,0,0-1.34-.77H108.46a1.55,1.55,0,0,0-1.34.77l-4.76,8.25h0l-.62,1.09h0l-.68,1.18A1.54,1.54,0,0,0,101.05,85.13Z"/></g></g><g id="Layer_2-17" data-name="Layer 2"><g id="Layer_1-2-16" data-name="Layer 1-2"><path class="cls-2" d="M181,111.66l-.66-1.15-1.13-2h0l-4.29-7.42a1.55,1.55,0,0,0-1.32-.77H161.44a1.57,1.57,0,0,0-1.34.77l-4.39,7.61h0l-.67,1.14v0l-1,1.75a1.36,1.36,0,0,0-.17.39s0,.16,0,.29a3.73,3.73,0,0,0,0,.47,1.49,1.49,0,0,0,.17.39l6.07,10.52a1.52,1.52,0,0,0,1.33.77h12.14a1.53,1.53,0,0,0,1.33-.77l4.76-8.25h0l.62-1.09h0l.68-1.18A1.54,1.54,0,0,0,181,111.66Z"/></g></g><g id="Layer_2-18" data-name="Layer 2"><g id="Layer_1-2-17" data-name="Layer 1-2"><path class="cls-2" d="M154.45,126.1l-.66-1.15L152.66,123h0l-4.29-7.43a1.53,1.53,0,0,0-1.32-.76H134.91a1.55,1.55,0,0,0-1.34.77l-4.39,7.6h0l-.67,1.15v0l-1,1.74a1.42,1.42,0,0,0-.17.4l0,.29a3.57,3.57,0,0,0,0,.46,1.71,1.71,0,0,0,.17.39l6.07,10.53a1.56,1.56,0,0,0,1.33.77h12.14a1.56,1.56,0,0,0,1.33-.77l4.76-8.26h0l.62-1.09h0l.68-1.17A1.54,1.54,0,0,0,154.45,126.1Z"/></g></g><g id="Layer_2-19" data-name="Layer 2"><g id="Layer_1-2-18" data-name="Layer 1-2"><path class="cls-2" d="M154.45,97.11,153.79,96,152.66,94h0l-4.29-7.43a1.56,1.56,0,0,0-1.32-.77H134.91a1.57,1.57,0,0,0-1.34.77l-4.39,7.61h0l-.67,1.14v0l-1,1.75a1.36,1.36,0,0,0-.17.39s0,.16,0,.29a3.57,3.57,0,0,0,0,.47,1.71,1.71,0,0,0,.17.39l6.07,10.52a1.52,1.52,0,0,0,1.33.77h12.14a1.52,1.52,0,0,0,1.33-.77l4.76-8.25h0l.62-1.09h0l.68-1.18A1.52,1.52,0,0,0,154.45,97.11Z"/></g></g><g id="Layer_2-20" data-name="Layer 2"><g id="Layer_1-2-19" data-name="Layer 1-2"><path class="cls-1" d="M175.67,55.79,175,54.64l-1.13-1.94h0l-4.29-7.43a1.52,1.52,0,0,0-1.32-.76H156.13a1.52,1.52,0,0,0-1.33.77l-4.39,7.6h0L149.74,54v0l-1,1.74a1.4,1.4,0,0,0-.16.4s0,.15,0,.29a2.59,2.59,0,0,0,0,.47,1.4,1.4,0,0,0,.16.38l6.07,10.53a1.58,1.58,0,0,0,1.33.77h12.14a1.56,1.56,0,0,0,1.33-.77l4.77-8.26h0l.62-1.09h0l.67-1.17A1.54,1.54,0,0,0,175.67,55.79Z"/></g></g><g id="Layer_2-21" data-name="Layer 2"><g id="Layer_1-2-20" data-name="Layer 1-2"><path class="cls-1" d="M201.69,70.24,201,69.09l-1.13-2h0l-4.29-7.43a1.54,1.54,0,0,0-1.32-.76H182.14a1.53,1.53,0,0,0-1.33.77l-4.39,7.61h0l-.67,1.14v0l-1,1.75a1.68,1.68,0,0,0-.16.39s0,.16,0,.29a2.49,2.49,0,0,0,0,.47,1.8,1.8,0,0,0,.16.38l6.07,10.53a1.55,1.55,0,0,0,1.34.77h12.14a1.54,1.54,0,0,0,1.33-.77L200.38,74h0L201,73h0l.68-1.18A1.54,1.54,0,0,0,201.69,70.24Z"/></g></g><g id="Layer_2-22" data-name="Layer 2"><g id="Layer_1-2-21" data-name="Layer 1-2"><path class="cls-1" d="M201.69,41.24,201,40.09l-1.13-1.94h0l-4.29-7.43a1.54,1.54,0,0,0-1.32-.76H182.14a1.53,1.53,0,0,0-1.33.77l-4.39,7.6h0l-.67,1.14v0l-1,1.74a2,2,0,0,0-.16.4,2.7,2.7,0,0,0,0,.29,2.56,2.56,0,0,0,0,.47,1.8,1.8,0,0,0,.16.38l6.07,10.53a1.59,1.59,0,0,0,1.34.77h12.14a1.59,1.59,0,0,0,1.33-.77l4.76-8.26h0L201,44h0l.68-1.17A1.56,1.56,0,0,0,201.69,41.24Z"/></g></g><g id="Layer_2-23" data-name="Layer 2"><g id="Layer_1-2-22" data-name="Layer 1-2"><path class="cls-1" d="M227.39,55.79l-.66-1.15L225.6,52.7h0l-4.29-7.43a1.52,1.52,0,0,0-1.32-.76H207.85a1.52,1.52,0,0,0-1.33.77l-4.4,7.6h0L201.46,54v0l-1,1.74a1.4,1.4,0,0,0-.16.4s0,.15,0,.29a2.59,2.59,0,0,0,0,.47,1.4,1.4,0,0,0,.16.38l6.07,10.53a1.56,1.56,0,0,0,1.33.77H220a1.56,1.56,0,0,0,1.33-.77l4.77-8.26h0l.62-1.09h0l.67-1.17A1.54,1.54,0,0,0,227.39,55.79Z"/></g></g><g id="Layer_2-24" data-name="Layer 2"><g id="Layer_1-2-23" data-name="Layer 1-2"><path class="cls-1" d="M202.15,98.78l-.66-1.15-1.13-1.94h0l-4.29-7.43a1.56,1.56,0,0,0-1.32-.77H182.61a1.57,1.57,0,0,0-1.34.77l-4.39,7.61h0L176.21,97v0l-1,1.75a1.36,1.36,0,0,0-.17.39s0,.16,0,.29a3.57,3.57,0,0,0,0,.47,1.71,1.71,0,0,0,.17.39l6.07,10.52a1.52,1.52,0,0,0,1.33.77h12.14a1.52,1.52,0,0,0,1.33-.77l4.76-8.25h0l.62-1.09h0l.68-1.18A1.52,1.52,0,0,0,202.15,98.78Z"/></g></g><g id="Layer_2-25" data-name="Layer 2"><g id="Layer_1-2-24" data-name="Layer 1-2"><path class="cls-1" d="M175.62,84.23,175,83.08l-1.13-1.94h0l-4.29-7.43a1.56,1.56,0,0,0-1.32-.77H156.08a1.54,1.54,0,0,0-1.33.77l-4.4,7.61h0l-.67,1.14v0l-1,1.75a1.19,1.19,0,0,0-.16.39s0,.16-.05.29a2.42,2.42,0,0,0,.05.47,1.34,1.34,0,0,0,.16.39l6.07,10.52a1.52,1.52,0,0,0,1.33.77h12.14a1.52,1.52,0,0,0,1.33-.77L174.32,88h0l.61-1.09h0l.68-1.18A1.52,1.52,0,0,0,175.62,84.23Z"/></g></g><g id="Layer_2-26" data-name="Layer 2"><g id="Layer_1-2-25" data-name="Layer 1-2"><path class="cls-1" d="M228.17,84.23l-.66-1.15-1.13-1.94h0l-4.29-7.43a1.58,1.58,0,0,0-1.33-.77H208.62a1.55,1.55,0,0,0-1.33.77l-4.39,7.61h0l-.67,1.14v0l-1,1.75a1.46,1.46,0,0,0-.16.39s0,.16,0,.29a2.42,2.42,0,0,0,0,.47,1.68,1.68,0,0,0,.16.39l6.07,10.52a1.54,1.54,0,0,0,1.33.77h12.14a1.55,1.55,0,0,0,1.34-.77L226.86,88h0l.62-1.09h0l.68-1.18A1.54,1.54,0,0,0,228.17,84.23Z"/></g></g><g id="Layer_2-27" data-name="Layer 2"><g id="Layer_1-2-26" data-name="Layer 1-2"><path class="cls-1" d="M200.2,29.26l.67,1.15L202,32.36h0l4.29,7.43a1.52,1.52,0,0,0,1.32.76h12.14a1.52,1.52,0,0,0,1.33-.77l4.39-7.61h0l.67-1.14v0l1-1.75a1.34,1.34,0,0,0,.16-.39s0-.16.05-.29a3.75,3.75,0,0,0-.05-.47,1.4,1.4,0,0,0-.16-.38L221.08,17.2a1.55,1.55,0,0,0-1.33-.77H207.61a1.54,1.54,0,0,0-1.33.77l-4.77,8.26h0l-.62,1.09h0l-.68,1.17A1.54,1.54,0,0,0,200.2,29.26Z"/></g></g><g id="Layer_2-28" data-name="Layer 2"><g id="Layer_1-2-27" data-name="Layer 1-2"><path class="cls-1" d="M253.61,70.24l-.67-1.15-1.13-2h0l-4.29-7.43A1.52,1.52,0,0,0,246.2,59H234.06a1.52,1.52,0,0,0-1.33.77l-4.39,7.61h0l-.67,1.14v0l-1,1.75a1.34,1.34,0,0,0-.16.39s0,.16-.05.29a3.75,3.75,0,0,0,.05.47,1.4,1.4,0,0,0,.16.38l6.07,10.53a1.53,1.53,0,0,0,1.33.77H246.2a1.52,1.52,0,0,0,1.33-.77L252.3,74h0l.62-1.08h0l.68-1.18A1.54,1.54,0,0,0,253.61,70.24Z"/></g></g><g id="Layer_2-29" data-name="Layer 2"><g id="Layer_1-2-28" data-name="Layer 1-2"><path class="cls-1" d="M253.61,41.24l-.67-1.15-1.13-1.94h0l-4.29-7.43A1.52,1.52,0,0,0,246.2,30H234.06a1.52,1.52,0,0,0-1.33.77l-4.39,7.6h0l-.67,1.14v0l-1,1.74a1.52,1.52,0,0,0-.16.4s0,.15-.05.29a4,4,0,0,0,.05.47,1.4,1.4,0,0,0,.16.38l6.07,10.53a1.58,1.58,0,0,0,1.33.77H246.2a1.56,1.56,0,0,0,1.33-.77l4.77-8.26h0l.62-1.09h0l.68-1.17A1.56,1.56,0,0,0,253.61,41.24Z"/></g></g><g id="Layer_2-30" data-name="Layer 2"><g id="Layer_1-2-29" data-name="Layer 1-2"><path class="cls-2" d="M181,55.79l-.66-1.15-1.13-1.94h0L175,45.27a1.53,1.53,0,0,0-1.32-.76H161.49a1.55,1.55,0,0,0-1.34.77l-4.39,7.6h0L155.09,54v0l-1,1.74a1.42,1.42,0,0,0-.17.4,2.7,2.7,0,0,0,0,.29,3.89,3.89,0,0,0,0,.47,1.84,1.84,0,0,0,.17.38l6.07,10.53a1.56,1.56,0,0,0,1.33.77h12.14a1.56,1.56,0,0,0,1.33-.77l4.76-8.26h0l.62-1.09h0l.68-1.17A1.54,1.54,0,0,0,181,55.79Z"/></g></g><g id="Layer_2-31" data-name="Layer 2"><g id="Layer_1-2-30" data-name="Layer 1-2"><path class="cls-2" d="M207.05,70.24l-.67-1.15-1.13-2h0L201,59.71a1.52,1.52,0,0,0-1.32-.76H187.5a1.52,1.52,0,0,0-1.33.77l-4.39,7.61h0l-.67,1.14v0l-1,1.75a1.34,1.34,0,0,0-.16.39s0,.16,0,.29a2.49,2.49,0,0,0,0,.47,1.8,1.8,0,0,0,.16.38l6.07,10.53a1.53,1.53,0,0,0,1.33.77h12.14A1.55,1.55,0,0,0,201,82.3L205.74,74h0l.62-1.08h0l.68-1.18A1.54,1.54,0,0,0,207.05,70.24Z"/></g></g><g id="Layer_2-32" data-name="Layer 2"><g id="Layer_1-2-31" data-name="Layer 1-2"><path class="cls-2" d="M207.05,41.24l-.67-1.15-1.13-1.94h0L201,30.72a1.52,1.52,0,0,0-1.32-.76H187.5a1.52,1.52,0,0,0-1.33.77l-4.39,7.6h0l-.67,1.14v0l-1,1.74a1.52,1.52,0,0,0-.16.4,2.7,2.7,0,0,0,0,.29,2.56,2.56,0,0,0,0,.47,1.8,1.8,0,0,0,.16.38l6.07,10.53a1.58,1.58,0,0,0,1.33.77h12.14a1.59,1.59,0,0,0,1.34-.77l4.76-8.26h0l.62-1.09h0l.68-1.17A1.56,1.56,0,0,0,207.05,41.24Z"/></g></g><g id="Layer_2-33" data-name="Layer 2"><g id="Layer_1-2-32" data-name="Layer 1-2"><path class="cls-2" d="M232.75,55.79l-.66-1.15L231,52.7h0l-4.29-7.43a1.53,1.53,0,0,0-1.32-.76H213.21a1.55,1.55,0,0,0-1.34.77l-4.39,7.6h0L206.81,54v0l-1,1.74a1.42,1.42,0,0,0-.17.4l0,.29a3.89,3.89,0,0,0,0,.47,1.84,1.84,0,0,0,.17.38l6.07,10.53a1.56,1.56,0,0,0,1.33.77h12.14a1.56,1.56,0,0,0,1.33-.77l4.76-8.26h0l.62-1.09h0l.68-1.17A1.54,1.54,0,0,0,232.75,55.79Z"/></g></g><g id="Layer_2-34" data-name="Layer 2"><g id="Layer_1-2-33" data-name="Layer 1-2"><path class="cls-2" d="M207.51,98.78l-.66-1.15-1.13-1.94h0l-4.29-7.43a1.57,1.57,0,0,0-1.32-.77H188a1.57,1.57,0,0,0-1.33.77l-4.39,7.61h0L181.57,97v0l-1,1.75a1.68,1.68,0,0,0-.16.39s0,.16,0,.29a2.42,2.42,0,0,0,0,.47,1.68,1.68,0,0,0,.16.39l6.07,10.52a1.55,1.55,0,0,0,1.34.77h12.14a1.53,1.53,0,0,0,1.33-.77l4.76-8.25h0l.62-1.09h0l.68-1.18A1.54,1.54,0,0,0,207.51,98.78Z"/></g></g><g id="Layer_2-35" data-name="Layer 2"><g id="Layer_1-2-34" data-name="Layer 1-2"><path class="cls-1" d="M204.37,135.78l-.66-1.15-1.13-1.95h0l-4.29-7.43a1.54,1.54,0,0,0-1.33-.76H184.82a1.53,1.53,0,0,0-1.33.77l-4.39,7.61h0l-.67,1.14v0l-1,1.75a1.34,1.34,0,0,0-.16.39s0,.16,0,.29a2.49,2.49,0,0,0,0,.47,1.8,1.8,0,0,0,.16.38l6.07,10.53a1.57,1.57,0,0,0,1.34.77H197a1.57,1.57,0,0,0,1.34-.77l4.76-8.26h0l.62-1.09h0l.68-1.17A1.54,1.54,0,0,0,204.37,135.78Z"/></g></g><g id="Layer_2-36" data-name="Layer 2"><g id="Layer_1-2-35" data-name="Layer 1-2"><path class="cls-2" d="M209.73,135.78l-.67-1.15-1.13-1.95h0l-4.29-7.43a1.52,1.52,0,0,0-1.32-.76H190.18a1.52,1.52,0,0,0-1.33.77l-4.39,7.61h0l-.67,1.14v0l-1,1.75a1.34,1.34,0,0,0-.16.39s0,.16-.05.29a3.75,3.75,0,0,0,.05.47,1.4,1.4,0,0,0,.16.38l6.07,10.53a1.55,1.55,0,0,0,1.33.77h12.14a1.54,1.54,0,0,0,1.33-.77l4.77-8.26h0l.62-1.09h0l.68-1.17A1.54,1.54,0,0,0,209.73,135.78Z"/></g></g><g id="Layer_2-37" data-name="Layer 2"><g id="Layer_1-2-36" data-name="Layer 1-2"><path class="cls-2" d="M181,84.23l-.66-1.15-1.13-1.94h0l-4.29-7.43a1.57,1.57,0,0,0-1.32-.77H161.44a1.57,1.57,0,0,0-1.34.77l-4.39,7.61h0L155,82.46v0l-1,1.75a1.49,1.49,0,0,0-.17.39s0,.16,0,.29a3.57,3.57,0,0,0,0,.47,1.36,1.36,0,0,0,.17.39l6.07,10.52a1.52,1.52,0,0,0,1.33.77h12.14a1.53,1.53,0,0,0,1.33-.77L179.67,88h0l.62-1.09h0l.68-1.18A1.54,1.54,0,0,0,181,84.23Z"/></g></g><g id="Layer_2-38" data-name="Layer 2"><g id="Layer_1-2-37" data-name="Layer 1-2"><path class="cls-2" d="M233.53,84.23l-.67-1.15-1.13-1.94h0l-4.29-7.43a1.55,1.55,0,0,0-1.32-.77H214a1.54,1.54,0,0,0-1.33.77l-4.39,7.61h0l-.67,1.14v0l-1,1.75a1.46,1.46,0,0,0-.16.39s0,.16,0,.29a3.56,3.56,0,0,0,0,.47,1.34,1.34,0,0,0,.16.39l6.07,10.52a1.52,1.52,0,0,0,1.33.77h12.14a1.52,1.52,0,0,0,1.33-.77L232.22,88h0l.62-1.09h0l.67-1.18A1.54,1.54,0,0,0,233.53,84.23Z"/></g></g><g id="Layer_2-39" data-name="Layer 2"><g id="Layer_1-2-38" data-name="Layer 1-2"><path class="cls-2" d="M205.56,29.26l.66,1.15,1.13,1.95h0l4.29,7.43a1.54,1.54,0,0,0,1.33.76h12.14a1.53,1.53,0,0,0,1.33-.77l4.39-7.61h0L231.5,31v0l1-1.75a1.34,1.34,0,0,0,.16-.39s0-.16,0-.29a2.49,2.49,0,0,0,0-.47,1.8,1.8,0,0,0-.16-.38L226.44,17.2a1.57,1.57,0,0,0-1.34-.77H213a1.57,1.57,0,0,0-1.34.77l-4.76,8.26h0l-.62,1.09h0l-.68,1.17A1.54,1.54,0,0,0,205.56,29.26Z"/></g></g><g id="Layer_2-40" data-name="Layer 2"><g id="Layer_1-2-39" data-name="Layer 1-2"><path class="cls-1" d="M175.74,13.33l.66,1.15,1.13,1.95h0l4.29,7.42a1.53,1.53,0,0,0,1.32.77h12.15a1.54,1.54,0,0,0,1.33-.77L201,16.24h0l.67-1.14v0l1-1.75a1.68,1.68,0,0,0,.16-.39s0-.16,0-.29a2.49,2.49,0,0,0,0-.47,1.88,1.88,0,0,0-.16-.39L196.62,1.27A1.55,1.55,0,0,0,195.28.5H183.14a1.53,1.53,0,0,0-1.33.77l-4.76,8.25h0l-.62,1.09h0l-.68,1.18A1.54,1.54,0,0,0,175.74,13.33Z"/></g></g><g id="Layer_2-41" data-name="Layer 2"><g id="Layer_1-2-40" data-name="Layer 1-2"><path class="cls-2" d="M181.1,13.33l.66,1.15,1.13,1.95h0l4.29,7.42a1.52,1.52,0,0,0,1.32.77h12.14a1.55,1.55,0,0,0,1.34-.77l4.39-7.61h0L207,15.1v0l1-1.75a1.36,1.36,0,0,0,.17-.39s0-.16,0-.29a3.73,3.73,0,0,0,0-.47,1.92,1.92,0,0,0-.17-.39L202,1.27A1.52,1.52,0,0,0,200.64.5H188.5a1.52,1.52,0,0,0-1.33.77l-4.76,8.25h0l-.62,1.09h0l-.68,1.18A1.52,1.52,0,0,0,181.1,13.33Z"/></g></g><g id="Layer_2-42" data-name="Layer 2"><g id="Layer_1-2-41" data-name="Layer 1-2"><path class="cls-1" d="M47,16.36l.66,1.15,1.13,1.94h0l4.29,7.43a1.58,1.58,0,0,0,1.33.77H66.59a1.55,1.55,0,0,0,1.33-.77l4.39-7.61h0L73,18.13v0l1-1.75a1.46,1.46,0,0,0,.16-.39s0-.16,0-.29a2.42,2.42,0,0,0,0-.47,1.68,1.68,0,0,0-.16-.39L67.92,4.3a1.55,1.55,0,0,0-1.34-.77H54.45a1.55,1.55,0,0,0-1.34.77l-4.76,8.25h0l-.62,1.09h0l-.68,1.18A1.54,1.54,0,0,0,47,16.36Z"/></g></g><g id="Layer_2-43" data-name="Layer 2"><g id="Layer_1-2-42" data-name="Layer 1-2"><path class="cls-2" d="M52.4,16.36l.66,1.15,1.13,1.94h0l4.29,7.43a1.56,1.56,0,0,0,1.32.77H71.94a1.57,1.57,0,0,0,1.34-.77l4.39-7.61h0l.67-1.14v0l1-1.75a1.49,1.49,0,0,0,.17-.39s0-.16,0-.29a3.57,3.57,0,0,0,0-.47,1.36,1.36,0,0,0-.17-.39L73.27,4.3a1.52,1.52,0,0,0-1.33-.77H59.8a1.52,1.52,0,0,0-1.33.77l-4.76,8.25h0l-.62,1.09h0l-.68,1.18A1.52,1.52,0,0,0,52.4,16.36Z"/></g></g><g id="Layer_2-44" data-name="Layer 2"><g id="Layer_1-2-43" data-name="Layer 1-2"><path class="cls-2" d="M259,70.24l-.66-1.15-1.13-2h0l-4.29-7.43a1.53,1.53,0,0,0-1.32-.76H239.42a1.55,1.55,0,0,0-1.34.77l-4.39,7.61h0L233,68.47v0l-1,1.75a1.36,1.36,0,0,0-.17.39s0,.16,0,.29a3.73,3.73,0,0,0,0,.47,1.84,1.84,0,0,0,.17.38l6.07,10.53a1.52,1.52,0,0,0,1.33.77h12.14a1.52,1.52,0,0,0,1.33-.77L257.66,74h0l.61-1.08h0l.68-1.18A1.52,1.52,0,0,0,259,70.24Z"/></g></g><g id="Layer_2-45" data-name="Layer 2"><g id="Layer_1-2-44" data-name="Layer 1-2"><path class="cls-2" d="M259,41.24l-.66-1.15-1.13-1.94h0l-4.29-7.43a1.53,1.53,0,0,0-1.32-.76H239.42a1.55,1.55,0,0,0-1.34.77l-4.39,7.6h0L233,39.47v0l-1,1.74a1.55,1.55,0,0,0-.17.4l0,.29a3.89,3.89,0,0,0,0,.47,1.84,1.84,0,0,0,.17.38l6.07,10.53a1.56,1.56,0,0,0,1.33.77h12.14a1.56,1.56,0,0,0,1.33-.77l4.77-8.26h0l.61-1.09h0l.68-1.17A1.54,1.54,0,0,0,259,41.24Z"/></g></g><circle class="cls-1" cx="274.06" cy="129.98" r="32.93"/><circle class="cls-2" cx="279.71" cy="128.72" r="32.93"/><path class="cls-2" d="M276.48,67a62,62,0,0,1,58.43,32.49"/><path class="cls-2" d="M112.71,27.86A61.73,61.73,0,0,1,84.73,55a61.67,61.67,0,0,1-30,6.1"/></g></g></svg>