<svg xmlns="http://www.w3.org/2000/svg" viewBox="0 0 299.79 146.46"><defs><style>.cls-1{fill:#f1f1f1;}.cls-2{fill:none;stroke:#939598;stroke-miterlimit:10;}</style></defs><title>Asset 9</title><g id="Layer_2" data-name="Layer 2"><g id="Artwork"><path class="cls-1" d="M213.62,29.57a16.8,16.8,0,1,1-16.8-16.8A16.8,16.8,0,0,1,213.62,29.57Z"/><path class="cls-2" d="M217,28.93a16.8,16.8,0,1,1-16.8-16.8A16.8,16.8,0,0,1,217,28.93Z"/><path class="cls-1" d="M254.84,29.57A16.8,16.8,0,1,1,238,12.77,16.81,16.81,0,0,1,254.84,29.57Z"/><path class="cls-2" d="M258.22,28.93a16.8,16.8,0,1,1-16.8-16.8A16.8,16.8,0,0,1,258.22,28.93Z"/><path class="cls-1" d="M295.9,29.57a16.8,16.8,0,1,1-16.8-16.8A16.8,16.8,0,0,1,295.9,29.57Z"/><path class="cls-2" d="M299.29,28.93a16.8,16.8,0,1,1-16.8-16.8A16.8,16.8,0,0,1,299.29,28.93Z"/><path class="cls-1" d="M213.62,69.53a16.8,16.8,0,1,1-16.8-16.8A16.8,16.8,0,0,1,213.62,69.53Z"/><path class="cls-2" d="M217,68.89a16.8,16.8,0,1,1-16.8-16.8A16.8,16.8,0,0,1,217,68.89Z"/><path class="cls-1" d="M254.84,69.53A16.8,16.8,0,1,1,238,52.73,16.8,16.8,0,0,1,254.84,69.53Z"/><path class="cls-2" d="M258.22,68.89a16.8,16.8,0,1,1-16.8-16.8A16.8,16.8,0,0,1,258.22,68.89Z"/><path class="cls-1" d="M295.9,69.53a16.8,16.8,0,1,1-16.8-16.8A16.8,16.8,0,0,1,295.9,69.53Z"/><path class="cls-2" d="M299.29,68.89a16.8,16.8,0,1,1-16.8-16.8A16.8,16.8,0,0,1,299.29,68.89Z"/><circle class="cls-1" cx="196.82" cy="109.36" r="16.8"/><path class="cls-2" d="M217,108.72a16.8,16.8,0,1,1-16.8-16.8A16.8,16.8,0,0,1,217,108.72Z"/><path class="cls-1" d="M254.84,109.36A16.8,16.8,0,1,1,238,92.56,16.8,16.8,0,0,1,254.84,109.36Z"/><path class="cls-2" d="M258.22,108.72a16.8,16.8,0,1,1-16.8-16.8A16.8,16.8,0,0,1,258.22,108.72Z"/><circle class="cls-1" cx="279.1" cy="109.36" r="16.8"/><path class="cls-2" d="M299.29,108.72a16.8,16.8,0,1,1-16.8-16.8A16.8,16.8,0,0,1,299.29,108.72Z"/><line class="cls-2" x1="183.41" y1="69.59" x2="114.1" y2="69.59"/><g id="Layer_2-2" data-name="Layer 2"><g id="Layer_1-2" data-name="Layer 1-2"><path class="cls-1" d="M3.47,104.24l5.15,3,8.74,5h0l33.31,19.23a6.9,6.9,0,0,0,6.84,0l47.14-27.22a6.87,6.87,0,0,0,3.45-6V58.89h0l0-5.93,0-.09v-9a6.34,6.34,0,0,0-.26-1.89s-.23-.67-.48-1.23A12.17,12.17,0,0,0,106.13,39a7.14,7.14,0,0,0-1.49-1.13L57.48,10.61a6.91,6.91,0,0,0-6.9,0L3.45,37.82a6.92,6.92,0,0,0-3.45,6V86.52H0l0,5.62h0v6.08A6.9,6.9,0,0,0,3.47,104.24Z"/></g></g><g id="Layer_2-3" data-name="Layer 2"><g id="Layer_1-2-2" data-name="Layer 1-2"><path class="cls-2" d="M9.47,101.24l5.15,3,8.74,5h0l33.31,19.23a6.9,6.9,0,0,0,6.84,0l47.14-27.22a6.87,6.87,0,0,0,3.45-6V55.89h0l0-5.93,0-.09v-9a6.34,6.34,0,0,0-.26-1.89s-.23-.67-.48-1.23A12.17,12.17,0,0,0,112.13,36a7.14,7.14,0,0,0-1.49-1.13L63.48,7.61a6.91,6.91,0,0,0-6.9,0L9.45,34.82a6.92,6.92,0,0,0-3.45,6V83.52H6l0,5.62h0v6.08A6.9,6.9,0,0,0,9.47,101.24Z"/></g></g><line class="cls-2" x1="200.21" y1="45.73" x2="200.21" y2="52.09"/><line class="cls-2" x1="200.21" y1="85.69" x2="200.21" y2="91.92"/><line class="cls-2" x1="241.15" y1="45.73" x2="241.15" y2="52.09"/><line class="cls-2" x1="241.15" y1="85.69" x2="241.15" y2="91.92"/><line class="cls-2" x1="282.09" y1="45.73" x2="282.09" y2="52.09"/><line class="cls-2" x1="282.09" y1="85.69" x2="282.09" y2="91.92"/><line class="cls-2" x1="217.01" y1="68.89" x2="224.62" y2="68.89"/><line class="cls-2" x1="258.22" y1="68.89" x2="265.69" y2="68.89"/><line class="cls-2" x1="217.01" y1="29.57" x2="224.62" y2="29.57"/><line class="cls-2" x1="258.22" y1="29.57" x2="265.69" y2="29.57"/><line class="cls-2" x1="217.01" y1="108.72" x2="224.62" y2="108.72"/><line class="cls-2" x1="258.22" y1="108.72" x2="265.69" y2="108.72"/><path class="cls-2" d="M158.3,146.21a144.86,144.86,0,0,1-.8-146"/></g></g></svg>