<svg xmlns="http://www.w3.org/2000/svg" viewBox="0 0 305.52 155.67"><defs><style>.cls-1{fill:#f1f1f1;}.cls-2{fill:none;stroke:#939598;stroke-miterlimit:10;}</style></defs><title>Asset 10</title><g id="Layer_2" data-name="Layer 2"><g id="Artwork"><g id="Layer_2-2" data-name="Layer 2"><g id="Layer_1-2" data-name="Layer 1-2"><path class="cls-1" d="M20.27,77.2l-.49-.86-.85-1.45h0l-3.2-5.55a1.14,1.14,0,0,0-1-.57H5.68a1.16,1.16,0,0,0-1,.58L1.41,75h0l-.5.85h0L.15,77.2a1.48,1.48,0,0,0-.12.29s0,.12,0,.22a2.07,2.07,0,0,0,0,.35,1.48,1.48,0,0,0,.12.29l4.54,7.86a1.14,1.14,0,0,0,1,.57h9.06a1.17,1.17,0,0,0,1-.57L19.3,80h0l.46-.81h0l.5-.88A1.13,1.13,0,0,0,20.27,77.2Z"/></g></g><g id="Layer_2-3" data-name="Layer 2"><g id="Layer_1-2-2" data-name="Layer 1-2"><path class="cls-1" d="M85.65,77.2l-.49-.86-.85-1.45h0l-3.2-5.55a1.15,1.15,0,0,0-1-.57H71.06a1.16,1.16,0,0,0-1,.58L66.78,75h0l-.5.85h0l-.75,1.31a1.48,1.48,0,0,0-.12.29s0,.12,0,.22a2.07,2.07,0,0,0,0,.35,1.48,1.48,0,0,0,.12.29l4.53,7.86a1.17,1.17,0,0,0,1,.57h9.06a1.17,1.17,0,0,0,1-.57L84.67,80h0l.47-.81h0l.5-.88A1.15,1.15,0,0,0,85.65,77.2Z"/></g></g><g id="Layer_2-4" data-name="Layer 2"><g id="Layer_1-2-3" data-name="Layer 1-2"><path class="cls-1" d="M53.84,88l-.49-.86-.85-1.45h0l-3.2-5.54a1.14,1.14,0,0,0-1-.57H39.25a1.17,1.17,0,0,0-1,.57L35,85.81h0l-.5.85v0L33.72,88a1.34,1.34,0,0,0-.12.3s0,.11,0,.21a2,2,0,0,0,0,.35,1.48,1.48,0,0,0,.12.29L38.26,97a1.14,1.14,0,0,0,1,.57h9.06a1.17,1.17,0,0,0,1-.57l3.56-6.16h0l.46-.82h0l.5-.87A1.15,1.15,0,0,0,53.84,88Z"/></g></g><g id="Layer_2-5" data-name="Layer 2"><g id="Layer_1-2-4" data-name="Layer 1-2"><path class="cls-1" d="M53.84,66.33l-.49-.85L52.5,64h0l-3.2-5.55a1.14,1.14,0,0,0-1-.57H39.25a1.17,1.17,0,0,0-1,.57L35,64.16h0l-.5.85v0l-.76,1.3a1.88,1.88,0,0,0-.12.3s0,.12,0,.21a2.19,2.19,0,0,0,0,.36,1.39,1.39,0,0,0,.12.28l4.54,7.86a1.13,1.13,0,0,0,1,.58h9.06a1.16,1.16,0,0,0,1-.58l3.56-6.16h0l.46-.82h0l.5-.87A1.15,1.15,0,0,0,53.84,66.33Z"/></g></g><g id="Layer_2-6" data-name="Layer 2"><g id="Layer_1-2-5" data-name="Layer 1-2"><path class="cls-1" d="M85.61,98.43l-.49-.86-.85-1.45h0l-3.2-5.55a1.16,1.16,0,0,0-1-.57H71a1.16,1.16,0,0,0-1,.58l-3.27,5.68h0l-.5.85v0l-.76,1.3a1.48,1.48,0,0,0-.12.29s0,.12,0,.22a2.07,2.07,0,0,0,0,.35,1.48,1.48,0,0,0,.12.29L70,107.44a1.14,1.14,0,0,0,1,.57h9.06a1.17,1.17,0,0,0,1-.57l3.56-6.17h0l.46-.81h0l.5-.88A1.13,1.13,0,0,0,85.61,98.43Z"/></g></g><g id="Layer_2-7" data-name="Layer 2"><g id="Layer_1-2-6" data-name="Layer 1-2"><path class="cls-1" d="M236.64,98.43l-.49-.86-.84-1.45h0l-3.21-5.55a1.16,1.16,0,0,0-1-.57h-9.07a1.13,1.13,0,0,0-1,.58l-3.28,5.68h0l-.5.85v0l-.75,1.3a1.08,1.08,0,0,0-.13.29s0,.12,0,.22a2.07,2.07,0,0,0,0,.35,1.08,1.08,0,0,0,.13.29l4.53,7.86a1.14,1.14,0,0,0,1,.57h9.07a1.14,1.14,0,0,0,1-.57l3.56-6.17h0l.46-.81h0l.51-.88A1.13,1.13,0,0,0,236.64,98.43Z"/></g></g><g id="Layer_2-8" data-name="Layer 2"><g id="Layer_1-2-7" data-name="Layer 1-2"><path class="cls-1" d="M216.2,57.39l.49.86.84,1.45h0l3.21,5.55a1.14,1.14,0,0,0,1,.57h9.07a1.16,1.16,0,0,0,1-.58l3.27-5.68h0l.5-.85v0l.76-1.3a1.48,1.48,0,0,0,.12-.29s0-.12,0-.22a2.07,2.07,0,0,0,0-.35,1.48,1.48,0,0,0-.12-.29l-4.54-7.86a1.14,1.14,0,0,0-1-.57h-9.07a1.14,1.14,0,0,0-1,.57l-3.56,6.17h0l-.46.81h0l-.51.88A1.15,1.15,0,0,0,216.2,57.39Z"/></g></g><g id="Layer_2-9" data-name="Layer 2"><g id="Layer_1-2-8" data-name="Layer 1-2"><path class="cls-1" d="M65.2,57.39l.5.86.84,1.45h0l3.2,5.55a1.15,1.15,0,0,0,1,.57H79.8a1.14,1.14,0,0,0,1-.58l3.28-5.68h0l.5-.85v0l.75-1.3a.81.81,0,0,0,.12-.29s0-.12,0-.22a2.07,2.07,0,0,0,0-.35,1,1,0,0,0-.12-.29l-4.53-7.86a1.17,1.17,0,0,0-1-.57H70.73a1.14,1.14,0,0,0-1,.57l-3.56,6.17h0l-.46.81h0l-.51.88A1.15,1.15,0,0,0,65.2,57.39Z"/></g></g><g id="Layer_2-10" data-name="Layer 2"><g id="Layer_1-2-9" data-name="Layer 1-2"><path class="cls-1" d="M236.64,77.2l-.49-.86-.84-1.45h0l-3.21-5.55a1.14,1.14,0,0,0-1-.57h-9.07a1.13,1.13,0,0,0-1,.58L217.78,75h0l-.5.85h0l-.75,1.31a1.08,1.08,0,0,0-.13.29s0,.12,0,.22a2.07,2.07,0,0,0,0,.35,1.08,1.08,0,0,0,.13.29l4.53,7.86a1.14,1.14,0,0,0,1,.57h9.07a1.14,1.14,0,0,0,1-.57L235.67,80h0l.46-.81h0l.51-.88A1.13,1.13,0,0,0,236.64,77.2Z"/></g></g><g id="Layer_2-11" data-name="Layer 2"><g id="Layer_1-2-10" data-name="Layer 1-2"><path class="cls-1" d="M300.87,77.2l-.5-.86-.84-1.45h0l-3.2-5.55a1.15,1.15,0,0,0-1-.57h-9.07a1.13,1.13,0,0,0-1,.58L282,75h0l-.5.85h0l-.75,1.31a.81.81,0,0,0-.12.29s0,.12,0,.22,0,.23,0,.35a1,1,0,0,0,.12.29l4.53,7.86a1.17,1.17,0,0,0,1,.57h9.06a1.14,1.14,0,0,0,1-.57L299.89,80h0l.46-.81h0l.51-.88A1.15,1.15,0,0,0,300.87,77.2Z"/></g></g><g id="Layer_2-12" data-name="Layer 2"><g id="Layer_1-2-11" data-name="Layer 1-2"><path class="cls-1" d="M268.07,88l-.5-.86-.84-1.45h0l-3.2-5.54a1.15,1.15,0,0,0-1-.57h-9.07a1.15,1.15,0,0,0-1,.57l-3.28,5.68h0l-.5.85v0L248,88a.79.79,0,0,0-.12.3s0,.11,0,.21a2,2,0,0,0,0,.35,1.48,1.48,0,0,0,.12.29L252.48,97a1.17,1.17,0,0,0,1,.57h9.06a1.17,1.17,0,0,0,1-.57l3.55-6.16h0l.46-.82h0l.51-.87A1.17,1.17,0,0,0,268.07,88Z"/></g></g><g id="Layer_2-13" data-name="Layer 2"><g id="Layer_1-2-12" data-name="Layer 1-2"><path class="cls-1" d="M268.07,66.33l-.5-.85L266.73,64h0l-3.2-5.55a1.15,1.15,0,0,0-1-.57h-9.07a1.15,1.15,0,0,0-1,.57l-3.28,5.68h0l-.5.85v0l-.75,1.3a.94.94,0,0,0-.12.3s0,.12,0,.21a2.19,2.19,0,0,0,0,.36,1.39,1.39,0,0,0,.12.28l4.53,7.86a1.16,1.16,0,0,0,1,.58h9.06a1.16,1.16,0,0,0,1-.58l3.55-6.16h0l.46-.82h0l.51-.87A1.17,1.17,0,0,0,268.07,66.33Z"/></g></g><g id="Layer_2-14" data-name="Layer 2"><g id="Layer_1-2-13" data-name="Layer 1-2"><path class="cls-2" d="M24.27,77.2l-.49-.86-.85-1.45h0l-3.2-5.55a1.14,1.14,0,0,0-1-.57H9.68a1.16,1.16,0,0,0-1,.58L5.41,75h0l-.5.85h0L4.15,77.2a1.48,1.48,0,0,0-.12.29s0,.12,0,.22a2.07,2.07,0,0,0,0,.35,1.48,1.48,0,0,0,.12.29l4.54,7.86a1.14,1.14,0,0,0,1,.57h9.06a1.17,1.17,0,0,0,1-.57L23.3,80h0l.46-.81h0l.5-.88A1.13,1.13,0,0,0,24.27,77.2Z"/></g></g><g id="Layer_2-15" data-name="Layer 2"><g id="Layer_1-2-14" data-name="Layer 1-2"><path class="cls-2" d="M89.65,77.2l-.49-.86-.85-1.45h0l-3.2-5.55a1.15,1.15,0,0,0-1-.57H75.06a1.16,1.16,0,0,0-1,.58L70.78,75h0l-.5.85h0l-.75,1.31a1.48,1.48,0,0,0-.12.29s0,.12,0,.22a2.07,2.07,0,0,0,0,.35,1.48,1.48,0,0,0,.12.29l4.53,7.86a1.17,1.17,0,0,0,1,.57h9.06a1.17,1.17,0,0,0,1-.57L88.67,80h0l.47-.81h0l.5-.88A1.15,1.15,0,0,0,89.65,77.2Z"/></g></g><g id="Layer_2-16" data-name="Layer 2"><g id="Layer_1-2-15" data-name="Layer 1-2"><path class="cls-2" d="M57.84,88l-.49-.86-.85-1.45h0l-3.2-5.54a1.14,1.14,0,0,0-1-.57H43.25a1.17,1.17,0,0,0-1,.57L39,85.81h0l-.5.85v0L37.72,88a1.34,1.34,0,0,0-.12.3s0,.11,0,.21a2,2,0,0,0,0,.35,1.48,1.48,0,0,0,.12.29L42.26,97a1.14,1.14,0,0,0,1,.57h9.06a1.17,1.17,0,0,0,1-.57l3.56-6.16h0l.46-.82h0l.5-.87A1.15,1.15,0,0,0,57.84,88Z"/></g></g><g id="Layer_2-17" data-name="Layer 2"><g id="Layer_1-2-16" data-name="Layer 1-2"><path class="cls-2" d="M57.84,66.33l-.49-.85L56.5,64h0l-3.2-5.55a1.14,1.14,0,0,0-1-.57H43.25a1.17,1.17,0,0,0-1,.57L39,64.16h0l-.5.85v0l-.76,1.3a1.88,1.88,0,0,0-.12.3s0,.12,0,.21a2.19,2.19,0,0,0,0,.36,1.39,1.39,0,0,0,.12.28l4.54,7.86a1.13,1.13,0,0,0,1,.58h9.06a1.16,1.16,0,0,0,1-.58l3.56-6.16h0l.46-.82h0l.5-.87A1.15,1.15,0,0,0,57.84,66.33Z"/></g></g><g id="Layer_2-18" data-name="Layer 2"><g id="Layer_1-2-17" data-name="Layer 1-2"><path class="cls-2" d="M89.61,98.43l-.49-.86-.85-1.45h0l-3.2-5.55a1.16,1.16,0,0,0-1-.57H75a1.16,1.16,0,0,0-1,.58l-3.27,5.68h0l-.5.85v0l-.76,1.3a1.48,1.48,0,0,0-.12.29s0,.12,0,.22a2.07,2.07,0,0,0,0,.35,1.48,1.48,0,0,0,.12.29L74,107.44a1.14,1.14,0,0,0,1,.57h9.06a1.17,1.17,0,0,0,1-.57l3.56-6.17h0l.46-.81h0l.5-.88A1.13,1.13,0,0,0,89.61,98.43Z"/></g></g><g id="Layer_2-19" data-name="Layer 2"><g id="Layer_1-2-18" data-name="Layer 1-2"><path class="cls-2" d="M240.64,98.43l-.49-.86-.84-1.45h0l-3.21-5.55a1.16,1.16,0,0,0-1-.57h-9.07a1.13,1.13,0,0,0-1,.58l-3.28,5.68h0l-.5.85v0l-.75,1.3a1.08,1.08,0,0,0-.13.29s0,.12,0,.22a2.07,2.07,0,0,0,0,.35,1.08,1.08,0,0,0,.13.29l4.53,7.86a1.14,1.14,0,0,0,1,.57h9.07a1.14,1.14,0,0,0,1-.57l3.56-6.17h0l.46-.81h0l.51-.88A1.13,1.13,0,0,0,240.64,98.43Z"/></g></g><g id="Layer_2-20" data-name="Layer 2"><g id="Layer_1-2-19" data-name="Layer 1-2"><path class="cls-2" d="M220.2,57.39l.49.86.84,1.45h0l3.21,5.55a1.14,1.14,0,0,0,1,.57h9.07a1.16,1.16,0,0,0,1-.58l3.27-5.68h0l.5-.85v0l.76-1.3a1.48,1.48,0,0,0,.12-.29s0-.12,0-.22a2.07,2.07,0,0,0,0-.35,1.48,1.48,0,0,0-.12-.29l-4.54-7.86a1.14,1.14,0,0,0-1-.57h-9.07a1.14,1.14,0,0,0-1,.57l-3.56,6.17h0l-.46.81h0l-.51.88A1.15,1.15,0,0,0,220.2,57.39Z"/></g></g><g id="Layer_2-21" data-name="Layer 2"><g id="Layer_1-2-20" data-name="Layer 1-2"><path class="cls-2" d="M69.2,57.39l.5.86.84,1.45h0l3.2,5.55a1.15,1.15,0,0,0,1,.57H83.8a1.14,1.14,0,0,0,1-.58l3.28-5.68h0l.5-.85v0l.75-1.3a.81.81,0,0,0,.12-.29s0-.12,0-.22a2.07,2.07,0,0,0,0-.35,1,1,0,0,0-.12-.29l-4.53-7.86a1.17,1.17,0,0,0-1-.57H74.73a1.14,1.14,0,0,0-1,.57l-3.56,6.17h0l-.46.81h0l-.51.88A1.15,1.15,0,0,0,69.2,57.39Z"/></g></g><g id="Layer_2-22" data-name="Layer 2"><g id="Layer_1-2-21" data-name="Layer 1-2"><path class="cls-2" d="M240.64,77.2l-.49-.86-.84-1.45h0l-3.21-5.55a1.14,1.14,0,0,0-1-.57h-9.07a1.13,1.13,0,0,0-1,.58L221.78,75h0l-.5.85h0l-.75,1.31a1.08,1.08,0,0,0-.13.29s0,.12,0,.22a2.07,2.07,0,0,0,0,.35,1.08,1.08,0,0,0,.13.29l4.53,7.86a1.14,1.14,0,0,0,1,.57h9.07a1.14,1.14,0,0,0,1-.57L239.67,80h0l.46-.81h0l.51-.88A1.13,1.13,0,0,0,240.64,77.2Z"/></g></g><g id="Layer_2-23" data-name="Layer 2"><g id="Layer_1-2-22" data-name="Layer 1-2"><path class="cls-2" d="M304.87,77.2l-.5-.86-.84-1.45h0l-3.2-5.55a1.15,1.15,0,0,0-1-.57h-9.07a1.13,1.13,0,0,0-1,.58L286,75h0l-.5.85h0l-.75,1.31a.81.81,0,0,0-.12.29s0,.12,0,.22,0,.23,0,.35a1,1,0,0,0,.12.29l4.53,7.86a1.17,1.17,0,0,0,1,.57h9.06a1.14,1.14,0,0,0,1-.57L303.89,80h0l.46-.81h0l.51-.88A1.15,1.15,0,0,0,304.87,77.2Z"/></g></g><g id="Layer_2-24" data-name="Layer 2"><g id="Layer_1-2-23" data-name="Layer 1-2"><path class="cls-2" d="M272.07,88l-.5-.86-.84-1.45h0l-3.2-5.54a1.15,1.15,0,0,0-1-.57h-9.07a1.15,1.15,0,0,0-1,.57l-3.28,5.68h0l-.5.85v0L252,88a.79.79,0,0,0-.12.3s0,.11,0,.21a2,2,0,0,0,0,.35,1.48,1.48,0,0,0,.12.29L256.48,97a1.17,1.17,0,0,0,1,.57h9.06a1.17,1.17,0,0,0,1-.57l3.55-6.16h0l.46-.82h0l.51-.87A1.17,1.17,0,0,0,272.07,88Z"/></g></g><g id="Layer_2-25" data-name="Layer 2"><g id="Layer_1-2-24" data-name="Layer 1-2"><path class="cls-2" d="M272.07,66.33l-.5-.85L270.73,64h0l-3.2-5.55a1.15,1.15,0,0,0-1-.57h-9.07a1.15,1.15,0,0,0-1,.57l-3.28,5.68h0l-.5.85v0l-.75,1.3a.94.94,0,0,0-.12.3s0,.12,0,.21a2.19,2.19,0,0,0,0,.36,1.39,1.39,0,0,0,.12.28l4.53,7.86a1.16,1.16,0,0,0,1,.58h9.06a1.16,1.16,0,0,0,1-.58l3.55-6.16h0l.46-.82h0l.51-.87A1.17,1.17,0,0,0,272.07,66.33Z"/></g></g><g id="Layer_2-26" data-name="Layer 2"><g id="Layer_1-2-25" data-name="Layer 1-2"><path class="cls-1" d="M99.26,111.93l5.15,3,8.74,5h0l33.31,19.23a6.9,6.9,0,0,0,6.84,0l47.14-27.22a6.87,6.87,0,0,0,3.45-6V66.58h0l0-5.93-.05-.08v-9a6.34,6.34,0,0,0-.26-1.89s-.23-.67-.48-1.22a11.71,11.71,0,0,0-1.22-1.73,7.14,7.14,0,0,0-1.49-1.13L153.27,18.3a6.94,6.94,0,0,0-6.9,0L99.24,45.51a6.93,6.93,0,0,0-3.45,6V94.21h0l0,5.62h0v6.08A6.9,6.9,0,0,0,99.26,111.93Z"/></g></g><g id="Layer_2-27" data-name="Layer 2"><g id="Layer_1-2-26" data-name="Layer 1-2"><path class="cls-2" d="M105.26,108.93l5.15,3,8.74,5h0l33.31,19.23a6.9,6.9,0,0,0,6.84,0l47.14-27.22a6.87,6.87,0,0,0,3.45-6V63.58h0l0-5.93-.05-.08v-9a6.34,6.34,0,0,0-.26-1.89s-.23-.67-.48-1.22a11.71,11.71,0,0,0-1.22-1.73,7.14,7.14,0,0,0-1.49-1.13L159.27,15.3a6.94,6.94,0,0,0-6.9,0L105.24,42.51a6.93,6.93,0,0,0-3.45,6V91.21h0l0,5.62h0v6.08A6.9,6.9,0,0,0,105.26,108.93Z"/></g></g><path class="cls-2" d="M27.73,42.41A88.5,88.5,0,0,1,103,.5"/><path class="cls-2" d="M285.44,113.26a88.5,88.5,0,0,1-75.29,41.91"/></g></g></svg>