<svg xmlns="http://www.w3.org/2000/svg" viewBox="0 0 130.16 130.16"><defs><style>.cls-1{fill:#68dbf3;}.cls-2,.cls-3{fill:none;stroke:#027f9d;stroke-width:3px;}.cls-2{stroke-linecap:round;stroke-linejoin:round;}.cls-3{stroke-miterlimit:10;stroke-dasharray:6.81 6.81;}.cls-4{fill:#007e9c;}</style></defs><title>Asset 1</title><g id="Layer_2" data-name="Layer 2"><g id="Layer_1-2" data-name="Layer 1"><circle class="cls-1" cx="65.08" cy="65.08" r="41.97"/><polygon class="cls-2" points="128.66 65.08 119.39 79.64 120.15 96.88 104.82 104.83 96.88 120.15 79.64 119.39 65.08 128.66 50.53 119.39 33.28 120.15 25.34 104.83 10.01 96.88 10.78 79.64 1.5 65.08 10.78 50.53 10.01 33.28 25.34 25.34 33.28 10.01 50.53 10.78 65.08 1.5 79.64 10.78 96.88 10.01 104.83 25.34 120.15 33.28 119.39 50.53 128.66 65.08"/><path class="cls-2" d="M106.85,65.08a41.77,41.77,0,0,1-41.77,41.77"/><path class="cls-3" d="M65.08,23.31a41.77,41.77,0,0,1,41.77,41.77"/><path class="cls-2" d="M23.31,65.08A41.77,41.77,0,0,1,65.08,23.31"/><path class="cls-3" d="M65.08,106.85A41.77,41.77,0,0,1,23.31,65.08"/><path class="cls-4" d="M37.89,57.65h2.9L48,69.22h0V57.65h2.62v15.7H47.72L40.57,61.8h-.06V73.35H37.89Z"/><path class="cls-4" d="M57.18,57.65H68.49V60H59.93v4.12h7.92v2.24H59.93V71h8.71v2.37H57.18Z"/><path class="cls-4" d="M72.8,57.65h2.8l2.83,12h0l3.17-12h2.81l3.08,12h0l2.92-12h2.8L89,73.35H86.18L83,61.34h0l-3.21,12H76.94Z"/></g></g></svg>