<?xml version="1.0" encoding="utf-8"?>
<!-- Generator: Adobe Illustrator 19.2.0, SVG Export Plug-In . SVG Version: 6.00 Build 0)  -->
<svg version="1.1" id="Layer_1" xmlns="http://www.w3.org/2000/svg" xmlns:xlink="http://www.w3.org/1999/xlink" x="0px" y="0px"
	 viewBox="0 0 40 40" style="enable-background:new 0 0 40 40;" xml:space="preserve">
<style type="text/css">
	.st0{fill:none;stroke:#FFFFFF;stroke-miterlimit:10;}
	.st1{fill:none;stroke:#FFFFFF;stroke-miterlimit:10;stroke-dasharray:1.9187,1.9187;}
	.st2{fill:none;stroke:#034757;stroke-miterlimit:10;}
</style>
<g>
	<path class="st0" d="M30,15.9v15.9c0,2.4-1.8,4.4-3.9,4.4H14c-2.1,0-3.9-2-3.9-4.4V21.5"/>
	<circle class="st0" cx="30" cy="12.1" r="3.1"/>
	<g>
		<g>
			<line class="st0" x1="10.1" y1="21.5" x2="10.1" y2="20.5"/>
			<line class="st1" x1="10.1" y1="18.6" x2="10.1" y2="11.8"/>
			<line class="st0" x1="10.1" y1="10.9" x2="10.1" y2="9.9"/>
		</g>
	</g>
</g>
<g>
	<path class="st2" d="M39.2,7c-9.8,0-8.2,6.5-19.1,6.5S10.8,7,1,7"/>
	<path class="st2" d="M39.2,33c-9.8,0-8.2-6.5-19.1-6.5S10.8,33,1,33"/>
	<path class="st2" d="M33.2,12.6c-0.3,0.2-0.5,0.4-0.8,0.6c-2.3,1.7-5.5,4.1-12.3,4.1s-10-2.4-12.3-4.1C7.5,13,7.3,12.8,7,12.6v14.9
		c0.3-0.2,0.5-0.4,0.8-0.6c2.3-1.7,5.5-4.1,12.3-4.1s10,2.4,12.3,4.1c0.3,0.2,0.5,0.4,0.8,0.6V12.6z"/>
</g>
</svg>
