<?xml version="1.0" encoding="UTF-8" standalone="no"?>
<svg width="116px" height="80px" viewBox="0 0 116 80" version="1.1" xmlns="http://www.w3.org/2000/svg" xmlns:xlink="http://www.w3.org/1999/xlink">
    <!-- Generator: Sketch 48.1 (47250) - http://www.bohemiancoding.com/sketch -->
    <title>Connectors icon</title>
    <desc>Created with Sketch.</desc>
    <defs>
        <polygon id="path-1" points="0.86207 0.787368421 32.69497 0.787368421 32.69497 19.2764211 0.86207 19.2764211 0.86207 0.787368421"></polygon>
    </defs>
    <g id="New-Home" stroke="none" stroke-width="1" fill="none" fill-rule="evenodd" transform="translate(-166.000000, -1735.000000)">
        <g id="middle-box" transform="translate(97.000000, 1693.000000)">
            <g id="Connectors-icon" transform="translate(69.000000, 42.000000)">
                <path d="M64.1528208,75 C63.8064348,75 63.4809513,74.7734672 63.356531,74.4078538 L54.0508894,47.2017911 C53.8916314,46.7360818 54.118574,46.2219051 54.5585241,46.0533225 C54.9994696,45.8857936 55.4852064,46.1260237 55.643469,46.591733 L64.9491106,73.7977957 C65.1083686,74.263505 64.881426,74.7776818 64.4414759,74.9462643 C64.3459211,74.9831417 64.249371,75 64.1528208,75" id="Fill-1" fill="#148696"></path>
                <path d="M89.5119318,49 C89.376591,49 89.240201,48.9827034 89.1038111,48.9450577 L27.0809966,31.8325722 C26.2909839,31.614838 25.8325038,30.8151225 26.0570226,30.048983 C26.2815415,29.2818259 27.1030288,28.8382179 27.8961889,29.0549347 L89.9190034,46.1674202 C90.7090161,46.3861719 91.1674962,47.1848698 90.9429774,47.9510094 C90.7572772,48.585898 90.1603088,49 89.5119318,49" id="Fill-3" fill="#148696"></path>
                <path d="M29.5244721,64 C29.191139,64 28.8556553,63.8939577 28.5750103,63.6777146 C27.9158709,63.1703749 27.8072688,62.2430246 28.3330749,61.6057312 L66.2814408,15.5553026 C66.8061717,14.9200884 67.7663862,14.8130064 68.4244504,15.3213857 C69.084665,15.8287254 69.1921919,16.7571153 68.667461,17.3933691 L30.7190951,63.4437977 C30.41802,63.808708 29.972859,64 29.5244721,64" id="Fill-5" fill="#148696"></path>
                <path d="M74.0129687,53.9989552 C74.0192923,53.9989552 74.7401797,54 74.7465033,54 C79.8570051,54 84,49.3809403 84,43.6826025 C84,37.9842647 79.8570051,33.365205 74.7465033,33.365205 C74.1383862,33.365205 73.5450242,33.4352066 72.968525,33.5605826 L72.968525,33.558493 C72.1432986,26.4716163 66.7271574,21 60.1453708,21 C55.8031832,21 51.9816366,23.3821434 49.6292671,27.0389425 C48.3287187,26.3462403 46.8806202,25.9554852 45.3429378,25.9554852 C39.9721155,25.9554852 35.5951484,30.6957416 35.3812008,36.6228906 C34.6223719,36.3460187 33.8203319,36.2070603 32.9835123,36.2070603 C28.5728193,36.2070603 25,40.1919265 25,45.109799 C25,45.5381669 25.0231864,45.9539972 25.0906379,46.3583347 L25.0906379,46.3698274 C25.6334113,50.6827608 28.9575034,53.9989552 32.9835123,53.9989552 L73.770565,53.9989552" id="Fill-7" fill="#FEFEFE"></path>
                <path d="M56.2100122,35.8480595 C69.516331,35.8480595 80.4679495,42.421825 81.8844321,50.8696355 C83.2061235,49.1698475 84,46.9900703 84,44.6120368 C84,39.1829412 79.8571924,34.7816487 74.7470834,34.7816487 C74.1384806,34.7816487 73.5449583,34.8484298 72.9697479,34.9673836 L72.9697479,34.9663402 C72.1435561,28.2141439 66.72753,23 60.1460026,23 C55.803918,23 51.9810308,25.2705577 49.629562,28.7546535 C48.328337,28.0941466 46.8806164,27.7216332 45.3434904,27.7216332 C39.9716284,27.7216332 35.5950742,32.2397927 35.3807168,37.8859268 C34.6223869,37.6219327 33.819893,37.489414 32.9840067,37.489414 C28.572983,37.489414 25,41.2865462 25,45.9716584 C25,46.3806927 25.0226206,46.7772056 25.0904825,47.1611969 L25.0904825,47.1737184 C25.5138115,50.3802551 27.6347653,53.0003703 30.4580359,54 C30.4095631,53.5794877 30.3772479,53.155845 30.3772479,52.7269851 C30.3772479,43.405803 41.9428551,35.8480595 56.2100122,35.8480595" id="Fill-9" fill="#BEE3E9"></path>
                <path d="M26.0769152,46.7466519 C26.5512598,50.3337885 29.2961338,53.0309386 32.4805672,53.0309386 L73.2731477,53.0309386 C73.3142575,53.0309386 73.3553674,53.0330302 73.3954232,53.0361677 C73.4354789,53.0330302 73.4765888,53.0309386 73.5176987,53.0309386 L74.2524057,53.0330302 C78.5288857,53.0330302 82.0095209,49.065218 82.0095209,44.1885948 C82.0095209,38.7702408 77.6993097,34.4405775 72.7924785,35.5052145 C72.3518651,35.6024751 71.8880615,35.4947564 71.5349383,35.2123871 C71.2218709,34.9613921 71.0247543,34.5984952 70.9857527,34.2042239 C70.2299636,27.7965314 65.3589717,22.9669698 59.6478629,22.9669698 C55.9532456,22.9669698 52.5790744,24.9205473 50.3897106,28.3278041 C49.9691251,28.9824826 49.1110884,29.2052407 48.4206535,28.8360689 C47.2906593,28.233681 46.0879323,27.9272579 44.8419871,27.9272579 C40.2809004,27.9272579 36.5609847,31.9902391 36.372301,37.1753769 C36.3554354,37.6512216 36.1087762,38.0904628 35.7103268,38.3550533 C35.3129314,38.6196438 34.8101262,38.6792551 34.3589717,38.5140168 C33.7718386,38.2985794 33.1404332,38.1887691 32.4805672,38.1887691 C28.9019008,38.1887691 25.9915332,41.5207274 25.9915332,45.6171746 C25.9915332,46.0177207 26.0136693,46.3366935 26.0611037,46.6222003 C26.0684824,46.6640328 26.0737529,46.7048195 26.0769152,46.7466519 M74.2513516,56 L73.5155905,55.9989542 C73.4755347,55.9989542 73.4354789,55.9968626 73.3964773,55.9937251 C73.3553674,55.9968626 73.3142575,55.9989542 73.2731477,55.9989542 L32.4805672,55.9989542 C27.7750689,55.9989542 23.7431399,52.1566395 23.1022476,47.0624873 C23.1011935,47.0551666 23.1001394,47.0468001 23.0990853,47.0384336 C23.031623,46.6096505 23,46.1557679 23,45.6171746 C23,39.8850768 27.2532898,35.2217994 32.4805672,35.2217994 C32.8452855,35.2217994 33.2068414,35.2437614 33.5620728,35.2876856 C34.5371145,29.3715249 39.2141521,24.9602882 44.8419871,24.9602882 C46.1437995,24.9602882 47.4087184,25.1966418 48.6188242,25.6630741 C51.351049,22.0947622 55.3893026,20 59.6478629,20 C66.4225577,20 72.2464552,25.2311536 73.7190316,32.391831 C79.8770784,32.035209 85,37.4818 85,44.1885948 C85,50.7019144 80.1785508,56 74.2513516,56" id="Fill-11" fill="#148696"></path>
                <path d="M25.2607463,32 C25.2639644,32 25.6061604,32 25.6093786,32 C28.0337139,32 30,29.7608474 30,26.9980308 C30,24.2352142 28.0337139,21.9960617 25.6093786,21.9960617 C25.3208183,21.9960617 25.0386944,22.0297413 24.7651521,22.0894955 C24.3736112,18.6530862 21.8033867,16 18.6796414,16 C16.6189564,16 14.8049958,17.155972 13.6882997,18.9290419 C13.0714888,18.5922455 12.3849513,18.403205 11.6544326,18.403205 C9.1056624,18.403205 7.02888668,20.7021118 6.92697878,23.5757452 C6.56761934,23.4410267 6.18680561,23.3736674 5.78882844,23.3736674 C3.695962,23.3736674 2,25.3053575 2,27.690093 C2,27.897603 2.01072715,28.0996809 2.04290859,28.29524 C2.30143284,30.392069 3.8783235,32 5.78882844,32 L25.1459658,32" id="Fill-13" fill="#FEFEFE"></path>
                <path d="M3.07546909,29.3455736 C3.25329141,30.7290065 4.20560489,31.7685739 5.30360413,31.7685739 L24.6326756,31.7685739 C24.6519576,31.7685739 24.6712395,31.7685739 24.6905214,31.7697125 C24.7098034,31.7685739 24.7280141,31.7685739 24.747296,31.7685739 L25.0975846,31.7697125 C26.6754898,31.7697125 27.9609523,30.1414745 27.9609523,28.1420438 C27.9609523,26.1426132 26.6754898,24.5143752 25.0965134,24.5143752 C24.928332,24.5143752 24.7537233,24.5348705 24.5769723,24.5769997 C24.1570545,24.6737831 23.718926,24.5781383 23.3697087,24.312838 C23.0204914,24.0475377 22.7923218,23.6376317 22.7430457,23.1833191 C22.4366771,20.3606604 20.4731331,18.2314261 18.1753689,18.2314261 C16.7077992,18.2314261 15.3591347,19.0774267 14.4732368,20.5530885 C14.0458205,21.2670083 13.1727772,21.5083974 12.4711289,21.1076003 C12.055496,20.8696271 11.6152251,20.7489325 11.1610284,20.7489325 C9.43850859,20.7489325 8.03092712,22.4466268 7.95808425,24.6122972 C7.94094475,25.1303729 7.69027955,25.6085966 7.28535886,25.8966695 C6.88043816,26.185881 6.36946681,26.2496442 5.91205639,26.069741 C5.72459311,25.9968688 5.51999032,25.9581554 5.30360413,25.9581554 C4.05563427,25.9581554 3.03904765,27.2630231 3.03904765,28.8673498 C3.03904765,29.019926 3.04654618,29.1394819 3.06154325,29.233988 C3.06797056,29.2704241 3.07225543,29.3079989 3.07546909,29.3455736 M25.0965134,35 L24.7462248,34.9988614 C24.7280141,34.9988614 24.7087322,34.9988614 24.6905214,34.9977227 C24.6712395,34.9988614 24.6530288,34.9988614 24.6326756,34.9988614 L5.30360413,34.9988614 C2.6651923,34.9988614 0.40920557,32.7238827 0.0546321573,29.7076573 C0.0546321573,29.7065186 0.0546321573,29.70538 0.0546321573,29.7042414 C0.0182107191,29.4491887 0,29.1747794 0,28.8673498 C0,25.5345858 2.30526279,22.8144036 5.16648813,22.7290065 C5.92705346,19.6991176 8.32122741,17.518645 11.1610284,17.518645 C11.6773558,17.518645 12.1829711,17.5903786 12.6746605,17.7338457 C14.1058088,16.0019926 16.0886347,15 18.1753689,15 C21.5679187,15 24.5084143,17.6188443 25.4821521,21.2988898 C28.5586924,21.5300313 31,24.5109593 31,28.1420438 C31,31.9234273 28.3519472,35 25.0965134,35" id="Fill-15" fill="#148696"></path>
                <path d="M75.2607463,19 C75.2639644,19 75.6061604,19 75.6093786,19 C78.0337139,19 80,16.7608474 80,13.9980308 C80,11.2352142 78.0337139,8.99606166 75.6093786,8.99606166 C75.3208183,8.99606166 75.0386944,9.02974129 74.7651521,9.08949548 C74.3736112,5.65308617 71.8033867,3 68.6796414,3 C66.6189564,3 64.8049958,4.15488558 63.6882997,5.92795546 C63.0714888,5.59224554 62.3849513,5.40211856 61.6544326,5.40211856 C59.1056624,5.40211856 57.0288867,7.70211177 56.9269788,10.5746588 C56.5676193,10.4410267 56.1868056,10.3736674 55.7899012,10.3736674 C53.695962,10.3736674 52,12.3053575 52,14.690093 C52,14.897603 52.0117999,15.0996809 52.0429086,15.2941536 L52.0429086,15.3006722 C52.3014328,17.392069 53.8783235,19 55.7899012,19 L75.1459658,19" id="Fill-17" fill="#FEFEFE"></path>
                <g id="Group-21" transform="translate(49.000000, 0.000000)">
                    <mask id="mask-2" fill="white">
                        <use xlink:href="#path-1"></use>
                    </mask>
                    <g id="Clip-20"></g>
                    <path d="M4.02017,14.0469474 C4.20167,15.328 5.18067,16.2890526 6.30817,16.2890526 L26.15657,16.2890526 C26.17637,16.2890526 26.19617,16.2890526 26.21597,16.2901053 C26.23577,16.2890526 26.25447,16.2890526 26.27427,16.2890526 L26.63397,16.2890526 C28.25427,16.2890526 29.57427,14.7848421 29.57427,12.9353684 C29.57427,10.8901053 27.95837,9.24694737 26.10267,9.63957895 C25.67257,9.73115789 25.22047,9.64273684 24.86077,9.39642105 C24.50217,9.15115789 24.26787,8.77221053 24.21727,8.35221053 C23.90157,5.74168421 21.88637,3.77326316 19.52687,3.77326316 C18.01987,3.77326316 16.63387,4.55642105 15.72417,5.92063158 C15.28527,6.57957895 14.38987,6.80378947 13.66827,6.43326316 C13.24257,6.21326316 12.78937,6.10168421 12.32297,6.10168421 C10.55417,6.10168421 9.10987,7.67010526 9.03397,9.67326316 C9.01637,10.1522105 8.75897,10.5943158 8.34317,10.8606316 C7.92627,11.1269474 7.40047,11.1869474 6.93297,11.0206316 C6.74047,10.9522105 6.53037,10.9174737 6.30817,10.9174737 C5.02667,10.9174737 3.98387,12.1237895 3.98387,13.6058947 C3.98387,13.748 3.99047,13.8595789 4.00587,13.948 C4.01247,13.9816842 4.01687,14.0143158 4.02017,14.0469474 M26.63177,19.2764211 L26.27317,19.2753684 C26.25447,19.2753684 26.23467,19.2753684 26.21597,19.2743158 C26.19617,19.2753684 26.17747,19.2753684 26.15657,19.2753684 L6.30817,19.2753684 C3.59997,19.2753684 1.28227,17.1732632 0.91817,14.3837895 C0.91817,14.3827368 0.91817,14.3806316 0.91817,14.3795789 C0.88077,14.1437895 0.86207,13.8911579 0.86207,13.6058947 C0.86207,10.5258947 3.23037,8.01010526 6.16847,7.93221053 C6.94837,5.13115789 9.40687,3.11431579 12.32297,3.11431579 C12.85317,3.11431579 13.37237,3.18168421 13.87727,3.31326316 C15.34687,1.71326316 17.38407,0.786947368 19.52687,0.786947368 C23.00947,0.786947368 26.02897,3.208 27.02887,6.61010526 C30.18807,6.82484211 32.69497,9.57957895 32.69497,12.9353684 C32.69497,16.4322105 29.97577,19.2764211 26.63177,19.2764211" id="Fill-19" fill="#148696" mask="url(#mask-2)"></path>
                </g>
                <path d="M30.2607463,73 C30.2628917,73 30.6061604,73 30.6093786,73 C33.0337139,73 35,70.7608474 35,67.9980308 C35,65.2363007 33.0337139,62.9960617 30.6093786,62.9960617 C30.3197456,62.9960617 30.0386944,63.0297413 29.7651521,63.0905819 L29.7651521,63.0894955 C29.3736112,59.6541726 26.802314,57 23.6796414,57 C21.6189564,57 19.8049958,58.155972 18.6882997,59.9290419 C18.0714888,59.5922455 17.3849513,59.403205 16.6544326,59.403205 C14.1056624,59.403205 12.0288867,61.7021118 11.9269788,64.5757452 C11.5676193,64.4410267 11.1857329,64.3736674 10.7888284,64.3736674 C8.695962,64.3736674 7,66.3053575 7,68.690093 C7,68.897603 7.01072715,69.0996809 7.04290859,69.29524 L7.04290859,69.3017587 C7.30143284,71.3931554 8.8783235,73 10.7888284,73 L30.1459658,73" id="Fill-22" fill="#FEFEFE"></path>
                <path d="M10.0754691,70.344435 C10.2522202,71.7290065 11.2045337,72.7685739 12.3036041,72.7685739 L31.6326756,72.7685739 L31.747296,72.7685739 L32.0975846,72.7697125 C33.6754898,72.7697125 34.9598811,71.1426132 34.9598811,69.1420438 C34.9598811,66.9296897 33.4130412,65.1488756 31.5780435,65.5769997 C31.1581257,65.6737831 30.7199972,65.5781383 30.3697087,65.312838 C30.0204914,65.0475377 29.7923218,64.6376317 29.7430457,64.1833191 C29.4366771,61.3606604 27.4731331,59.2314261 25.1764401,59.2314261 C23.7077992,59.2314261 22.3580635,60.0774267 21.474308,61.5530885 C21.0458205,62.2670083 20.1738484,62.5083974 19.4722001,62.108739 C19.055496,61.8696271 18.6152251,61.7500712 18.1610284,61.7500712 C16.4374374,61.7500712 15.0309271,63.4466268 14.9580842,65.6122972 C14.9409447,66.1303729 14.6902796,66.6085966 14.2853589,66.8966695 C13.8804382,67.185881 13.3694668,67.2496442 12.9120564,67.069741 C12.7245931,66.9968688 12.5199903,66.9581554 12.3036041,66.9581554 C11.0556343,66.9581554 10.0390477,68.2630231 10.0390477,69.8673498 C10.0390477,70.019926 10.0465462,70.1394819 10.0615432,70.2351267 C10.0679706,70.2715628 10.0722554,70.3079989 10.0754691,70.344435 M32.0954421,76 L31.7451536,76 C31.7087322,76 31.6712395,76 31.6326756,76 L12.3036041,76 C9.6651923,76 7.40813435,73.7250213 7.05463216,70.7076573 L7.05463216,70.70538 C7.01821072,70.4503274 7,70.175918 7,69.8673498 C7,66.5345858 9.30526279,63.8144036 12.1664881,63.7301452 C12.9270535,60.6991176 15.3201562,58.518645 18.1610284,58.518645 C18.6773558,58.518645 19.1829711,58.5903786 19.6746605,58.7338457 C21.1058088,57.0031312 23.0886347,56 25.1764401,56 C28.5679187,56 31.5084143,58.6199829 32.4821521,62.2988898 C35.5586924,62.5311699 38,65.5109593 38,69.1420438 C38,72.9234273 35.350876,76 32.0954421,76" id="Fill-24" fill="#148696"></path>
                <path d="M74.2607463,78 C74.2639644,78 74.6061604,78 74.6093786,78 C77.0337139,78 79,75.7608474 79,72.9980308 C79,70.2352142 77.0337139,67.9960617 74.6093786,67.9960617 C74.3208183,67.9960617 74.0386944,68.0297413 73.7651521,68.0894955 C73.3736112,64.6530862 70.8033867,62 67.6796414,62 C65.6189564,62 63.8049958,63.1548856 62.6882997,64.9290419 C62.0714888,64.5922455 61.3849513,64.4021186 60.6544326,64.4021186 C58.1056624,64.4021186 56.0288867,66.7021118 55.9269788,69.5757452 C55.5676193,69.4410267 55.1868056,69.3736674 54.7899012,69.3736674 C52.695962,69.3736674 51,71.3053575 51,73.690093 C51,73.897603 51.0117999,74.0996809 51.0429086,74.29524 L51.0429086,74.3006722 C51.3014328,76.392069 52.8783235,78 54.7899012,78 L74.1459658,78" id="Fill-26" fill="#FEFEFE"></path>
                <path d="M52.0754691,74.344435 C52.2532914,75.7290065 53.2056049,76.7685739 54.3036041,76.7685739 L73.6337468,76.7685739 L73.7483673,76.7685739 L74.0975846,76.7685739 C75.6754898,76.7685739 76.9609523,75.1414745 76.9609523,73.1420438 C76.9609523,71.1414745 75.6754898,69.5143752 74.0954421,69.5143752 C73.9261896,69.5143752 73.756937,69.5348705 73.5769723,69.5769997 C73.1581257,69.6737831 72.718926,69.5781383 72.3697087,69.312838 C72.0204914,69.0463991 71.7923218,68.636493 71.7430457,68.1833191 C71.4366771,65.3595218 69.4731331,63.2314261 67.1764401,63.2314261 C65.7088704,63.2314261 64.3591347,64.0774267 63.4732368,65.5530885 C63.0458205,66.2658696 62.1738484,66.5083974 61.4722001,66.1076003 C61.0565673,65.8696271 60.6152251,65.7489325 60.1610284,65.7489325 C58.4385086,65.7489325 57.0309271,67.4466268 56.9580842,69.6134358 C56.9409447,70.1303729 56.6902796,70.6085966 56.2842876,70.8966695 C55.8793669,71.185881 55.3683956,71.2496442 54.9109852,71.069741 C54.7245931,70.9957301 54.5199903,70.9581554 54.3036041,70.9581554 C53.0556343,70.9581554 52.0390477,72.2630231 52.0390477,73.8662112 C52.0390477,74.0176487 52.0476174,74.1383433 52.0615432,74.2362653 C52.0679706,74.2727014 52.0722554,74.3079989 52.0754691,74.344435 M74.0954421,80 L73.7462248,79.9988614 L73.6337468,79.9988614 L54.3036041,79.9988614 C51.6651923,79.9988614 49.4092056,77.7250213 49.0557034,74.7076573 C49.0546322,74.7065186 49.0546322,74.70538 49.0546322,74.7031028 C49.0182107,74.4469115 49,74.1725021 49,73.8662112 C49,70.5345858 51.3052628,67.8144036 54.1675593,67.7301452 C54.9259822,64.6991176 57.3212274,62.518645 60.1610284,62.518645 C60.6773558,62.518645 61.1829711,62.5903786 61.6746605,62.7338457 C63.1058088,61.0019926 65.0886347,60 67.1764401,60 C70.5679187,60 73.5084143,62.6188443 74.4821521,66.2977512 C77.5586924,66.5300313 80,69.5109593 80,73.1420438 C80,76.9234273 77.3519472,80 74.0954421,80" id="Fill-28" fill="#148696"></path>
                <path d="M110.260746,55 C110.262892,55 110.60616,55 110.609379,55 C113.033714,55 115,52.7608474 115,49.9980308 C115,47.2363007 113.033714,44.9960617 110.609379,44.9960617 C110.319746,44.9960617 110.038694,45.0297413 109.765152,45.0905819 L109.765152,45.0894955 C109.373611,41.6541726 106.802314,39 103.679641,39 C101.618956,39 99.8049958,40.155972 98.6882997,41.9290419 C98.0714888,41.5922455 97.3849513,41.403205 96.6544326,41.403205 C94.1056624,41.403205 92.0288867,43.7021118 91.9269788,46.5757452 C91.5676193,46.4410267 91.1857329,46.3736674 90.7888284,46.3736674 C88.695962,46.3736674 87,48.3053575 87,50.690093 C87,50.897603 87.0107271,51.0996809 87.0429086,51.29524 L87.0429086,51.3017587 C87.3003601,53.392069 88.8783235,55 90.7888284,55 L110.145966,55" id="Fill-30" fill="#FEFEFE"></path>
                <path d="M88.0754691,52.344435 C88.2522202,53.7290065 89.2056049,54.7685739 90.3036041,54.7685739 L109.632676,54.7685739 C109.651958,54.7685739 109.67124,54.7685739 109.690521,54.7697125 C109.709803,54.7685739 109.728014,54.7685739 109.747296,54.7685739 L110.097585,54.7685739 C111.67549,54.7685739 112.960952,53.1414745 112.960952,51.1409052 C112.960952,49.1414745 111.67549,47.5143752 110.095442,47.5143752 C109.928332,47.5143752 109.753723,47.5348705 109.576972,47.5758611 C109.157054,47.6726445 108.718926,47.5781383 108.369709,47.312838 C108.01942,47.0463991 107.792322,46.636493 107.743046,46.1833191 C107.436677,43.3595218 105.473133,41.2302875 103.175369,41.2302875 C101.707799,41.2302875 100.359135,42.0774267 99.4732368,43.5530885 C99.0458205,44.2658696 98.1738484,44.5083974 97.4711289,44.1076003 C97.0565673,43.8696271 96.6152251,43.7489325 96.1610284,43.7489325 C94.4374374,43.7489325 93.0309271,45.4454882 92.9580842,47.6122972 C92.9409447,48.1303729 92.6913508,48.607458 92.2853589,48.8955309 C91.8804382,49.1847424 91.3716092,49.2485056 90.9131276,49.069741 C90.7245931,48.9957301 90.5199903,48.9581554 90.3036041,48.9581554 C89.0556343,48.9581554 88.0401189,50.2630231 88.0401189,51.8662112 C88.0401189,52.019926 88.0465462,52.1406206 88.0615432,52.2362653 C88.0679706,52.2727014 88.0722554,52.3079989 88.0754691,52.344435 M110.095442,58 L109.746225,57.9988614 C109.728014,57.9988614 109.708732,57.9988614 109.690521,57.9977227 C109.67124,57.9988614 109.653029,57.9988614 109.632676,57.9988614 L90.3036041,57.9988614 C87.6651923,57.9988614 85.4081344,55.7238827 85.0546322,52.7065186 C85.0546322,52.70538 85.0546322,52.7042414 85.0546322,52.7031028 C85.0182107,52.4480501 85,52.1736408 85,51.8662112 C85,48.5345858 87.3052628,45.813265 90.1664881,45.7290065 C90.9259822,42.6991176 93.3201562,40.5175064 96.1610284,40.5175064 C96.6773558,40.5175064 97.1829711,40.5903786 97.6746605,40.7327071 C99.1058088,39.0019926 101.088635,38 103.175369,38 C106.567919,38 109.508414,40.6188443 110.482152,44.2977512 C113.558692,44.5300313 116,47.5109593 116,51.1409052 C116,54.9234273 113.351947,58 110.095442,58" id="Fill-32" fill="#148696"></path>
            </g>
        </g>
    </g>
</svg>