<?xml version="1.0" encoding="UTF-8" standalone="no"?>
<svg width="117px" height="79px" viewBox="0 0 117 79" version="1.1" xmlns="http://www.w3.org/2000/svg" xmlns:xlink="http://www.w3.org/1999/xlink">
    <!-- Generator: Sketch 48.1 (47250) - http://www.bohemiancoding.com/sketch -->
    <title>Function Icon</title>
    <desc>Created with Sketch.</desc>
    <defs>
        <polygon id="path-1" points="110.286674 60.9597995 110.286674 0.531988732 0.67907907 0.531988732 0.67907907 60.9597995 110.286674 60.9597995"></polygon>
    </defs>
    <g id="New-Home" stroke="none" stroke-width="1" fill="none" fill-rule="evenodd" transform="translate(-451.000000, -1324.000000)">
        <g id="middle-box" transform="translate(390.000000, 1281.000000)">
            <g id="Function-Icon" transform="translate(63.000000, 45.000000)">
                <g id="Group-3" transform="translate(4.000000, 2.000000)">
                    <mask id="mask-2" fill="white">
                        <use xlink:href="#path-1"></use>
                    </mask>
                    <g id="Clip-2"></g>
                    <path d="M85.7511302,59 C85.7621638,59 86.9354072,59 86.9464409,59 C95.2584476,59 102,51.302913 102,41.805731 C102,32.3085489 95.2584476,24.6114619 86.9464409,24.6114619 C85.9570914,24.6114619 84.9898092,24.7272357 84.05195,24.9326407 C82.7095242,13.1199837 73.8973259,4 63.187342,4 C56.1221362,4 49.9028427,7.97365383 46.0741706,14.0685815 C43.9593901,12.910844 41.6055475,12.2610172 39.1009118,12.2610172 C30.3622711,12.2610172 23.2418972,20.1635092 22.8924987,30.0416242 C21.6604092,29.5785292 20.3547621,29.3469817 18.9902689,29.3469817 C11.8147268,29.3469817 6,35.9871664 6,44.1846948 C6,44.8980105 6.03677879,45.592653 6.14711516,46.2648876 C7.03348402,53.4727371 12.4399663,59 18.9902689,59 L85.3575971,59" id="Fill-13" fill="#FEFEFE" mask="url(#mask-2)"></path>
                    <path d="M93.0646372,60.9572141 L93.082707,60.9597915 C102.583102,60.9692423 110.287707,52.5065662 110.287707,42.0669746 C110.287707,31.6333972 102.590847,23.1741577 93.0981953,23.1741577 C91.9675442,23.1741577 90.8644279,23.3021718 89.7948698,23.5315662 L89.7948698,23.5289887 C88.2615209,10.5531718 78.1992419,0.531988732 65.972893,0.531988732 C57.9051721,0.531988732 50.804614,4.89649577 46.4351721,11.5918901 C44.0181256,10.3220592 41.3291721,9.6063831 38.4724279,9.6063831 C28.493614,9.6063831 20.3630791,18.2881437 19.9638233,29.1401296 C18.5561023,28.6315099 17.0649163,28.3780592 15.5100558,28.3780592 C7.31756744,28.3780592 0.67907907,35.6740028 0.67907907,44.6796648 C0.67907907,45.4640732 0.72124186,46.2261437 0.846869767,46.9650169 L0.846869767,46.9882141 C1.85533488,54.8855662 12.1232651,59.5542141 15.5685674,57.3822704 C19.0371023,55.194862 10.2741256,55.011862 9.58833488,46.9907915 L9.58833488,46.9701718 C9.48249767,46.3077634 9.4472186,45.6255944 9.4472186,44.9219465 C9.4472186,36.8536225 15.6468698,32.5604254 22.5288698,32.5604254 C23.8350558,32.5604254 25.087893,32.7881014 26.2701721,33.2434535 C26.6057535,23.519538 33.4111721,15.6728761 41.7929628,15.6728761 C44.1928,15.6728761 46.4515209,16.3138056 48.4813581,17.4513268 C52.1521023,11.4518479 58.1168465,7.5418338 64.8930093,7.5418338 C69.328707,7.5418338 75.8123116,9.44228451 79.4632651,15.0929465 C82.2090093,19.3414676 82.8870558,23.9568479 83.053986,26.031707 C83.1004512,26.6073408 83.549614,27.0712845 84.1252651,27.1305662 C84.9194744,27.2139042 85.8212419,27.4424394 86.4657302,27.4424394 C94.4405209,27.4424394 101.517847,33.2322845 101.517847,42.5816085 C101.517847,51.9300732 95.0540326,59.5086789 87.0792419,59.5086789 C87.0697767,59.5086789 87.0603116,59.5078197 87.051707,59.5078197 L93.0646372,60.9572141 Z" id="Fill-1" fill="#34A9C5" mask="url(#mask-2)"></path>
                </g>
                <path d="M89.3440331,59.9974193 C89.3551806,59.9974193 89.364613,60 89.3757604,60 C98.5569506,60 106,51.6006194 106,41.2407524 C106,30.8808855 98.5569506,22.4823651 89.3757604,22.4823651 C88.2833128,22.4823651 87.2165901,22.6096806 86.1815946,22.8367839 L86.1815946,22.8342031 C84.6989872,9.95039284 74.9672858,0 63.1432986,0 C55.3418166,0 48.4750032,4.33302747 44.2492719,10.9818203 C41.9126003,9.72070884 39.3118205,9.01015083 36.5489742,9.01015083 C26.8987348,9.01015083 19.0363707,17.6306131 18.6504983,28.4051156 C17.2896551,27.9001548 15.8464924,27.6489648 14.3433051,27.6489648 C6.42005889,27.6489648 0,34.8930435 0,43.8343752 C0,44.6137524 0.0403022262,45.3707633 0.162066399,46.1045478 L0.162066399,46.126914 C1.13789477,53.9679991 7.1111992,59.9974193 14.3433051,59.9974193 L19.9873317,59.9974193" id="Stroke-4" stroke="#0E8696" stroke-width="3" stroke-linecap="round" stroke-linejoin="round"></path>
                <path d="M57.0843616,38.262983 C56.701934,38.262983 56.3947668,38.3568792 56.1646101,38.5463943 C55.9353286,38.7341866 55.7498031,38.9796948 55.6089087,39.2811962 C55.4680144,39.5835589 55.3726262,39.9289934 55.3218693,40.3183608 C55.2702372,40.7085897 55.2448587,41.1048486 55.2448587,41.5071376 L55.2448587,48.4089343 C55.2448587,49.2884568 55.1109653,50.0370416 54.8423033,50.6529658 C54.5745165,51.26889 54.2612234,51.778858 53.9041743,52.1802855 C53.5462501,52.5834359 53.1822001,52.8840758 52.8120242,53.0865124 C52.4409731,53.2872262 52.141682,53.4121339 51.9115253,53.4629584 L51.9115253,53.5758061 C52.141682,53.6007876 52.4409731,53.7015752 52.8120242,53.8773074 C53.1822001,54.0539011 53.5462501,54.3364509 53.9041743,54.7266798 C54.2612234,55.1169087 54.5745165,55.6251538 54.8423033,56.2539995 C55.1109653,56.8828452 55.2448587,57.6745016 55.2448587,58.6298302 L55.2448587,65.4945853 C55.2448587,65.8710313 55.2702372,66.2543687 55.3218693,66.6445976 C55.3726262,67.0339651 55.4680144,67.3854295 55.6089087,67.6998523 C55.7498031,68.0151366 55.9353286,68.2666749 56.1646101,68.4544671 C56.3947668,68.6431208 56.701934,68.737017 57.0843616,68.737017 L59,68.737017 L59,71 L56.3177562,71 C55.8320644,71 55.3472477,70.8931824 54.8624311,70.6795471 C54.3758642,70.4659119 53.9356787,70.151489 53.5401243,69.73714 C53.1436948,69.3219296 52.81815,68.806793 52.56349,68.1908688 C52.3070797,67.5740832 52.1801873,66.8642629 52.1801873,66.059685 L52.1801873,59.2328329 C52.1801873,58.5540241 52.0900499,57.9380999 51.9115253,57.3850603 C51.7330008,56.8320207 51.4958432,56.3668472 51.2026779,55.9904012 C50.9086374,55.6122323 50.570841,55.3236525 50.1875383,55.1220773 C49.8051107,54.9213635 49.4086812,54.8205759 49,54.8205759 L49,52.2560916 C49.4086812,52.2560916 49.8051107,52.1492739 50.1875383,51.9356387 C50.570841,51.7220034 50.9086374,51.4205021 51.2026779,51.0302732 C51.4958432,50.6409057 51.7330008,50.1688408 51.9115253,49.6149397 C52.0900499,49.0636229 52.1801873,48.4588974 52.1801873,47.8050701 L52.1801873,40.9411765 C52.1801873,40.1365986 52.3070797,39.4267782 52.56349,38.8099926 C52.81815,38.1940684 53.1436948,37.6780704 53.5401243,37.2637214 C53.9356787,36.848511 54.3758642,36.5349495 54.8624311,36.3204529 C55.3472477,36.1076791 55.8320644,36 56.3177562,36 L59,36 L59,38.262983 L57.0843616,38.262983 Z" id="Fill-6" fill="#75C1C9"></path>
                <path d="M66.1009968,55.0561755 L60.2304743,46.2987517 C60.4600723,46.2493853 60.7606529,46.1864006 61.132216,46.1114999 C61.5029028,46.0374503 61.8288969,46 62.1101983,46 C62.8007449,46 63.3247891,46.1251182 63.6832074,46.3728012 C64.0416256,46.6221865 64.373754,46.9830717 64.6813452,47.4529033 L68.0955198,52.7453187 L71.5491291,47.7142047 C71.9329609,47.143938 72.3290612,46.7149612 72.7383065,46.4289767 C73.1475518,46.1429922 73.6724723,46 74.3113156,46 C74.6960237,46 75.0220177,46.0314923 75.2901742,46.0936259 C75.5583306,46.1557594 75.7949392,46.2366181 76,46.336202 L69.8613211,55.0561755 L75.9614416,63.7012483 C75.7572571,63.7999811 75.4750794,63.8748818 75.1175375,63.9250993 C74.7591193,63.9753168 74.4515281,64 74.1965166,64 C73.7609815,64 73.3079198,63.9123321 72.8347026,63.7386987 C72.3614854,63.5650653 71.9452295,63.2305655 71.5876876,62.7326461 L67.8659218,57.4410819 L64.373754,62.6211462 C64.0153357,63.1675809 63.5999562,63.5335729 63.126739,63.7208247 C62.6535217,63.9063741 62.1233432,64 61.535327,64 C61.3048527,64 61.0428305,63.9804237 60.7492606,63.9438245 C60.4548143,63.9063741 60.2041845,63.8374314 60,63.7386987 L66.1009968,55.0561755 Z" id="Fill-8" fill="#0E8696"></path>
                <path d="M78.9156384,68.737017 C79.298066,68.737017 79.6052332,68.6431208 79.8353899,68.4544671 C80.0646714,68.2658134 80.2493218,68.0203052 80.3910913,67.7188038 C80.5311105,67.4173025 80.6264986,67.0710066 80.6781307,66.6816392 C80.7288877,66.2914103 80.7551413,65.8951514 80.7551413,65.4937238 L80.7551413,58.6298302 C80.7551413,57.7494462 80.8890347,57.0017229 81.1568216,56.3849372 C81.4246084,55.769013 81.7379015,55.2599065 82.0958257,54.8576175 C82.4528748,54.4553286 82.8169248,54.1538272 83.1879758,53.952252 C83.5581517,53.7515383 83.8574429,53.6257691 84.0875995,53.5749446 L84.0875995,53.4629584 C83.8574429,53.4371154 83.5581517,53.3363278 83.1879758,53.1605956 C82.8169248,52.9848634 82.4528748,52.7023136 82.0958257,52.3120847 C81.7379015,51.9218558 81.4246084,51.4136106 81.1568216,50.7839035 C80.8890347,50.1567807 80.7551413,49.3642629 80.7551413,48.4080729 L80.7551413,41.5820822 C80.7551413,41.1539503 80.7288877,40.7456313 80.6781307,40.3562638 C80.6264986,39.9668964 80.5311105,39.6145705 80.3910913,39.3001477 C80.2493218,38.9857248 80.0646714,38.7341866 79.8353899,38.5455329 C79.6052332,38.3568792 79.298066,38.262983 78.9156384,38.262983 L77,38.262983 L77,36 L79.6813687,36 C80.1670605,36 80.6518771,36.1068176 81.1375689,36.3204529 C81.6223856,36.5340881 82.0634462,36.848511 82.4598757,37.26286 C82.8554301,37.6780704 83.1809749,38.193207 83.43651,38.8091312 C83.69117,39.4259168 83.8198127,40.1357371 83.8198127,40.940315 L83.8198127,47.8042087 C83.8198127,48.4838789 83.909075,49.0998031 84.0875995,49.6537042 C84.2661241,50.2058824 84.5032817,50.6779473 84.7973221,51.0664534 C85.0904874,51.4566823 85.4282839,51.753015 85.8124617,51.9537288 C86.1948893,52.155304 86.5913188,52.2552301 87,52.2552301 L87,54.8205759 C86.5913188,54.8205759 86.1948893,54.9273936 85.8124617,55.1401674 C85.4282839,55.354664 85.0904874,55.6561654 84.7973221,56.0455329 C84.5032817,56.4357618 84.2661241,56.9009353 84.0875995,57.4419148 C83.909075,57.9828944 83.8198127,58.5790057 83.8198127,59.2328329 L83.8198127,66.059685 C83.8198127,66.8634014 83.69117,67.5732218 83.43651,68.1900074 C83.1809749,68.8059316 82.8554301,69.3219296 82.4598757,69.7362786 C82.0634462,70.151489 81.6223856,70.4659119 81.1375689,70.6795471 C80.6518771,70.8931824 80.1670605,71 79.6813687,71 L77,71 L77,68.737017 L78.9156384,68.737017 Z" id="Fill-10" fill="#75C1C9"></path>
                <path d="M44.440631,36.0008108 C44.8132594,36.4361763 45,36.8698412 45,37.3043564 C45,37.7694833 44.8840333,38.1419249 44.6503944,38.4208309 C44.4176082,38.699737 44.1131955,38.9488817 43.740567,39.1657142 L42.9936048,39.5840732 C42.1843957,37.9710099 40.8465146,37.1640531 38.9808143,37.1640531 C38.2338521,37.1640531 37.5798337,37.3043564 37.0204647,37.5832625 C36.460243,37.8621685 35.985291,38.2507663 35.597314,38.7465048 C35.2076316,39.2430936 34.8972501,39.8170618 34.6636112,40.4684095 C34.430825,41.1206075 34.250906,41.8178726 34.1264123,42.5627558 L33.6599872,45.4011351 L40.7996163,45.4011351 L40.2871456,48.5192707 L33.1466638,48.5192707 L29.9268813,67.9721173 C29.7094436,69.2433507 29.4212321,70.4227491 29.0639522,71.508612 C28.7058197,72.5944749 28.2231933,73.5485376 27.616926,74.3708003 C27.0106587,75.1922126 26.2474952,75.8367577 25.3299936,76.3018846 C24.412492,76.7670114 23.2843743,77 21.9464933,77 C21.0127904,77 20.1660627,76.8988115 19.4037519,76.6972849 C18.6414411,76.4957583 18.042848,76.1930432 17.6062673,75.7899899 C17.2029418,75.3869367 17,74.9371156 17,74.4405268 C17,74.0986968 17.0468983,73.8274437 17.1398423,73.6267674 C17.2336389,73.4235401 17.3888297,73.1999051 17.6062673,72.9516107 L18.3532296,72.2067274 C18.8196547,72.7339279 19.3261565,73.1301786 19.8701769,73.3929285 C20.4150501,73.6565287 21.0596888,73.7891791 21.806651,73.7891791 C22.4606694,73.7891791 23.0200384,73.6412229 23.4873161,73.3461607 C23.9537412,73.0519488 24.3493925,72.6488956 24.676828,72.1370009 C25.0034108,71.6251063 25.275421,71.0196761 25.4928587,70.322411 C25.7102963,69.6242955 25.8816883,68.8862149 26.0070347,68.1115703 L30.1136218,43.1214183 C30.3310595,41.7566493 30.6729908,40.5075244 31.1402686,39.3748937 C31.6066937,38.2431134 32.2052867,37.2805474 32.9369004,36.4897467 C33.6676615,35.698946 34.5391175,35.0858629 35.5504157,34.6513477 C36.5608612,34.2168324 37.7503731,34 39.1206566,34 C40.4576849,34 41.5704541,34.202377 42.4572586,34.6045799 C43.3440631,35.0084835 44.0040503,35.4736103 44.440631,36.0008108" id="Fill-12" fill="#0E8696"></path>
            </g>
        </g>
    </g>
</svg>