
<svg viewBox="0 0 34 33" version="1.1" xmlns="http://www.w3.org/2000/svg" xmlns:xlink="http://www.w3.org/1999/xlink">
    <g id="github" stroke="none" stroke-width="1" fill="none" fill-rule="evenodd">
        <g id="Blog-Post" transform="translate(-749.000000, -2837.000000)" fill="#B2EAED">
            <g id="Group-2-Copy-2" transform="translate(749.000000, 2836.000000)">
                <path d="M16.9989376,1.00634343 C7.6112743,1.00634343 0,8.57828974 0,17.9221687 C0,25.3947346 4.87019561,31.7339401 11.6251484,33.971058 C12.4750953,34.1296439 12.7874508,33.6052533 12.7874508,33.1590984 C12.7874508,32.7531186 12.7704518,31.4209973 12.7640772,30.0085259 C8.03412287,31.0319333 7.03756015,28.0124585 7.03756015,28.0124585 C6.26410849,26.0565662 5.15067808,25.5364046 5.15067808,25.5364046 C3.6080245,24.485509 5.26754578,24.5108827 5.26754578,24.5108827 C6.97381414,24.627179 7.87263296,26.2532127 7.87263296,26.2532127 C9.38978814,28.8392195 11.8503844,28.0885797 12.8193238,27.6572262 C12.9723142,26.564041 13.4121617,25.8197447 13.8987563,25.3947346 C10.1228673,24.9697245 6.1536154,23.5191924 6.1536154,17.0340879 C6.1536154,15.1902629 6.81869883,13.6784111 7.90450597,12.4943033 C7.72814199,12.0671787 7.14592838,10.348108 8.06812074,8.01795302 C8.06812074,8.01795302 9.4960315,7.56334022 12.7449534,9.75182512 C14.1006187,9.37756248 15.5540279,9.18937392 16.9989376,9.18303049 C18.4438473,9.18937392 19.8993813,9.37756248 21.2571714,9.75182512 C24.5018436,7.56334022 25.9276295,8.01795302 25.9276295,8.01795302 C26.8519468,10.348108 26.271858,12.0692932 26.095494,12.4943033 C27.1855509,13.6784111 27.8442597,15.1902629 27.8442597,17.0340879 C27.8442597,23.5318793 23.8665083,24.9612665 20.0821199,25.3820477 C20.6919568,25.9064383 21.2359228,26.9340747 21.2359228,28.5114754 C21.2359228,30.7760815 21.2146741,32.5966472 21.2146741,33.1548694 C21.2146741,33.6052533 21.5227798,34.1317583 22.3854759,33.9647146 C29.136179,31.7254822 34,25.3862767 34,17.9158253 C34,8.57406078 26.3887257,1 17.0010624,1 L16.9989376,1.00634343" id="433-github"></path>
            </g>
        </g>
    </g>
</svg>
