<svg viewBox="0 0 30 25" version="1.1" xmlns="http://www.w3.org/2000/svg" xmlns:xlink="http://www.w3.org/1999/xlink">
    <defs>
        <polygon id="twitter-path-1" points="1.01909562e-15 25 1.01909562e-15 0 30 0 30 25"></polygon>
    </defs>
    <g id="Welcome" stroke="none" stroke-width="1" fill="none" fill-rule="evenodd">
        <g id="Blog-Post" transform="translate(-800.000000, -2842.000000)">
            <g id="Group-2-Copy-2" transform="translate(749.000000, 2836.000000)">
                <g id="Twitter-icon" transform="translate(51.000000, 6.000000)">
                    <mask id="mask-2" fill="white">
                        <use xlink:href="#twitter-path-1"></use>
                    </mask>
                    <g id="Clip-2"></g>
                    <path d="M26.4649402,3.9532492 C27.7357621,3.17223127 28.7117305,1.93527262 29.171184,0.461566852 C27.9820037,1.18486079 26.6647646,1.71000279 25.2628114,1.99310913 C24.1401295,0.766502534 22.5404367,0 20.7703281,0 C17.3710084,0 14.6152749,2.82588735 14.6152749,6.31115592 C14.6152749,6.80591688 14.6697026,7.28751272 14.7746077,7.74941713 C9.65938769,7.48622726 5.12421815,4.97360225 2.08855481,1.1552674 C1.55865247,2.08740289 1.25523977,3.17155614 1.25523977,4.32817381 C1.25523977,6.51774703 2.34181938,8.44953146 3.99330627,9.5813942 C2.98441786,9.54865018 2.03533414,9.26464366 1.20553056,8.7919371 C1.20509163,8.81826734 1.20498189,8.8447101 1.20498189,8.87126538 C1.20498189,11.9291739 3.32656644,14.4800565 6.14221442,15.0598844 C5.62569955,15.2040256 5.08197081,15.2811034 4.52068474,15.2811034 C4.12399868,15.2811034 3.73850543,15.2416081 3.36266872,15.1680184 C4.14594535,17.6753549 6.41885219,19.5001305 9.11214748,19.5511032 C7.00570613,21.2437775 4.35191485,22.2526533 1.4682322,22.2526533 C0.97146933,22.2526533 0.481509931,22.2228348 0,22.1645482 C2.7239109,23.9552296 5.95906946,25 9.43487326,25 C20.755953,25 26.9466696,15.3831612 26.9466696,7.04300156 C26.9466696,6.7693471 26.9406343,6.49715543 26.9288928,6.22653908 C28.1313508,5.33671201 29.1748052,4.2251033 30,2.95945143 C28.8961923,3.46141382 27.7100845,3.80078136 26.4649402,3.9532492 Z" id="Fill-1" fill="#B2EAED" mask="url(#mask-2)"></path>
                </g>
            </g>
        </g>
    </g>
</svg>
