<svg viewBox="0 0 32 28" version="1.1" xmlns="http://www.w3.org/2000/svg" xmlns:xlink="http://www.w3.org/1999/xlink">
    <g id="medium" stroke="none" stroke-width="1" fill="none" fill-rule="evenodd">
        <g id="Blog-Post" transform="translate(-895.000000, -2842.000000)" fill="#B2EAED">
            <g id="Group-2-Copy-2" transform="translate(749.000000, 2836.000000)">
                <path d="M178,11.3126997 C178,11.3503785 176.449739,13.9847428 173.349216,19.2158116 C170.248693,24.4468804 168.432494,27.5082765 167.900636,28.4 L160.829268,16.4558452 L166.703943,6.5275021 C166.90943,6.17582775 167.223725,6 167.646792,6 C167.816015,6 167.973163,6.03767872 168.118217,6.11303616 L177.927473,11.1996636 C177.97583,11.2247765 178,11.2624552 178,11.3126997 L178,11.3126997 Z M178,13.2 L178,32.9506306 C178,33.2629492 177.919055,33.5159222 177.757182,33.7095495 C177.595308,33.9031769 177.37561,34 177.098103,34 C176.820596,34 176.548865,33.918805 176.282927,33.7563964 L168.634146,29.6338739 L178,13.2 Z M157.707317,13.2 L167.073171,29.2 L157.707317,24.2854503 L157.707317,13.2 Z M156.926829,11.1212724 L156.926829,32.8866799 C156.926829,33.1959417 156.850561,33.4587966 156.698043,33.6752816 C156.545525,33.8917667 156.322834,34 156.029987,34 C155.822561,34 155.621229,33.9505129 155.425992,33.8515573 L146.915145,29.5281643 C146.658904,29.4044559 146.442326,29.1972671 146.265392,28.9065606 C146.088458,28.6158542 146,28.3282465 146,28.0437376 L146,6.89065606 C146,6.64325779 146.061004,6.43295162 146.183029,6.25977469 C146.305054,6.08659775 146.48197,6 146.713813,6 C146.884634,6 147.153082,6.09277667 147.51914,6.27833002 L156.871921,11.0284957 C156.908526,11.0656064 156.926829,11.0965381 156.926829,11.1212724 L156.926829,11.1212724 Z" id="Page-1"></path>
            </g>
        </g>
    </g>
</svg>
