<?xml version="1.0" encoding="UTF-8" standalone="no"?>
<svg width="83px" height="82px" viewBox="0 0 83 82" version="1.1" xmlns="http://www.w3.org/2000/svg" xmlns:xlink="http://www.w3.org/1999/xlink">
    <!-- Generator: Sketch 48.1 (47250) - http://www.bohemiancoding.com/sketch -->
    <title>kubernetes logo</title>
    <desc>Created with Sketch.</desc>
    <defs>
        <polygon id="path-1" points="8.68647196e-15 81.9996095 8.68647196e-15 0.722380952 82.7471961 0.722380952 82.7471961 81.9996095"></polygon>
    </defs>
    <g id="New-Home" stroke="none" stroke-width="1" fill="none" fill-rule="evenodd" transform="translate(-761.000000, -1324.000000)">
        <g id="right-box" transform="translate(682.000000, 1281.000000)">
            <g id="kubernetes-logo" transform="translate(79.000000, 43.000000)">
                <path d="M25.9964212,81 C24.0792072,81 22.2685764,80.1348079 21.0447954,78.5649344 L2.4081396,55.0272721 C1.1830745,53.4587036 0.704092032,51.4555816 1.1830745,49.5072682 L7.83874785,20.1272754 C8.26508077,18.177657 9.54279541,16.6090885 11.3007767,15.7438964 L38.2419356,2.64856784 C39.0946014,2.21662427 40.0525664,2 41.0105313,2 C41.9684963,2 42.9290295,2.21662427 43.7804112,2.64856784 L70.7228543,15.6890878 C72.4795514,16.5555849 73.757266,18.1241534 74.1823148,20.0724669 L80.8392723,49.4537646 C81.2656052,51.402078 80.8392723,53.4052 79.6142072,54.9737685 L60.9788355,78.5114308 C59.7537704,80.0264958 57.9431396,80.9451914 56.0272097,80.9451914 L25.9964212,81 Z" id="Fill-1" fill="#148696"></path>
                <g id="Group-5">
                    <mask id="mask-2" fill="white">
                        <use xlink:href="#path-1"></use>
                    </mask>
                    <g id="Clip-4"></g>
                    <path d="M41.4545039,0.721990476 C40.3305965,0.721990476 39.2066892,0.991419048 38.1369771,1.47691111 L11.0638422,14.5383397 C8.92312771,15.5626889 7.42501467,17.4525937 6.89080382,19.7733238 L0.201554915,49.0785619 C-0.332655935,51.3992921 0.201554915,53.7746889 1.69966795,55.6632921 L20.4267261,79.1400222 C21.8719342,80.9739587 24.0642633,81.9996095 26.3662733,81.9996095 L56.381439,81.9996095 C58.683449,81.9996095 60.8770684,80.9739587 62.3209862,79.1400222 L81.0480443,55.6632921 C82.5461573,53.828054 83.0803682,51.3992921 82.5461573,49.0785619 L75.8569084,19.7733238 C75.3226976,17.4525937 73.8245846,15.5626889 71.6838701,14.5383397 L44.7178354,1.47691111 C43.7010283,0.991419048 42.5771209,0.721990476 41.4545039,0.721990476 M41.4545039,3.25748254 C42.2029152,3.25748254 42.9526169,3.42018095 43.6481233,3.74427619 L70.7212582,16.7497365 C72.112271,17.4525937 73.1819831,18.747673 73.5032838,20.2588159 L80.1912424,49.564054 C80.5667384,51.1298635 80.1912424,52.7490381 79.1744352,53.9894508 L60.4486675,77.466181 C59.4860556,78.7078952 57.9879426,79.4094508 56.4343439,79.4094508 L26.4204686,79.4094508 C24.8681603,79.4094508 23.3687569,78.7078952 22.406145,77.466181 L3.68037726,53.9894508 C2.71647508,52.7490381 2.34226941,51.1298635 2.66357014,49.564054 L9.35152868,20.2588159 C9.72573435,18.6943079 10.7425415,17.3992286 12.1335543,16.7497365 L39.2066892,3.68960952 C39.9021956,3.42018095 40.7048022,3.25748254 41.4545039,3.25748254" id="Fill-3" fill="#FEFEFE" mask="url(#mask-2)"></path>
                </g>
                <path d="M55.5034274,51.5939428 C54.1655006,53.7566636 52.400521,55.485276 50.3671818,56.8371395 L46.9959159,48.675117 C46.8359324,48.0272133 47.1030016,47.3245571 47.7455162,46.9999534 C47.9596877,46.8917522 48.226757,46.8383034 48.4938262,46.8383034 L57.0542356,48.2970645 C56.7329783,49.4859743 56.1975495,50.566683 55.5034274,51.5939428 Z M45.0709527,59.1080615 C43.8401116,59.3779128 42.6105608,59.5408664 41.3268219,59.5408664 C39.4547565,59.5408664 37.6342987,59.2162628 35.9222168,58.6752567 L40.1501688,50.9460391 C40.5772216,50.4597854 41.2726339,50.2433829 41.8609605,50.566683 C42.12932,50.7296366 42.3422013,50.9460391 42.503475,51.1611379 L46.6217608,58.6752567 C46.1405201,58.8382103 45.6050913,58.9464115 45.0709527,59.1080615 Z M25.5439301,48.3518169 L34.0501514,46.8917522 C34.7455637,46.8383034 35.3880783,47.3245571 35.5480618,48.0272133 C35.6022498,48.3518169 35.6022498,48.6216682 35.495164,48.8915194 L32.232274,56.8371395 C29.2364533,54.8908211 26.827669,51.9185465 25.5439301,48.3518169 Z M26.9889427,33.7016319 L33.3547391,39.4323859 C33.9430657,39.9186396 33.9972537,40.8376982 33.5160129,41.4321531 C33.3547391,41.6485555 33.1405676,41.8102056 32.8734984,41.8636544 L24.5814485,44.2962265 C24.2601913,40.6212957 25.0626893,36.8916125 26.9889427,33.7016319 Z M37.527213,26.0271667 C38.1155395,25.9189655 38.6509683,25.8107643 39.240585,25.702563 L38.758054,34.3508392 C38.7038661,35.1082478 38.1155395,35.7574551 37.3130414,35.7574551 C37.0988699,35.7574551 36.8318007,35.7027027 36.6718171,35.5945015 L29.5577106,30.4582024 C31.749743,28.2433364 34.4784945,26.7298228 37.527213,26.0271667 Z M53.0417453,30.4582024 L46.0334343,35.4863003 C45.4451077,35.8643527 44.6426097,35.7574551 44.1613689,35.1616966 C44.0013854,35.0000466 43.9471974,34.7823405 43.8942996,34.565938 L43.4130588,25.7560118 C47.1030016,26.1888167 50.4742676,27.8639803 53.0417453,30.4582024 Z M57.6425621,38.837931 C58.0709051,40.6747445 58.1767007,42.5128617 58.0167171,44.2962265 L49.8317531,41.9184068 C49.0821528,41.7020043 48.6551,40.9458994 48.8150835,40.1884908 C48.8692715,39.9720884 48.975067,39.7569895 49.1363408,39.5940359 L55.609223,33.7016319 C56.5188068,35.216449 57.2142191,36.946365 57.6425621,38.837931 Z M43.6801281,44.4578765 L41.3268219,45.5933375 L38.9722255,44.4578765 L38.3826088,41.9184068 L39.9888951,39.8638871 L42.6105608,39.8638871 L44.2155569,41.9184068 L43.6801281,44.4578765 Z M68.4491919,47.1081547 C68.3950039,47.1081547 68.3950039,47.1081547 68.4491919,47.1081547 L68.3950039,47.1081547 C68.3421061,47.1081547 68.2879181,47.1081547 68.2879181,47.0547059 C68.1808324,47.0547059 68.0750368,46.9999534 67.9679511,46.9999534 C67.5925058,46.9465046 67.2725388,46.8917522 66.9512815,46.8917522 C66.7900078,46.8917522 66.6300242,46.8917522 66.4158527,46.8383034 L66.362955,46.8383034 C65.2391996,46.7301022 64.3296158,46.621901 63.47422,46.3520497 C63.100065,46.1890961 62.9929792,45.9726936 62.8858934,45.7562912 C62.8858934,45.7015387 62.8317055,45.7015387 62.8317055,45.64809 L62.1375834,45.4316875 C62.4575504,42.9456666 62.3504647,40.3514445 61.7621381,37.8106711 C61.1738116,35.2698978 60.1558518,32.8907745 58.7663174,30.7293573 L59.300456,30.2431036 L59.300456,30.1349023 C59.300456,29.8637475 59.354644,29.5938962 59.5675253,29.324045 C60.2100398,28.7295901 61.0138281,28.2433364 61.9763096,27.6488814 C62.1375834,27.5406802 62.2975669,27.4859278 62.4575504,27.3777266 C62.7788077,27.2160765 63.045877,27.0544265 63.3671342,26.8380241 C63.4213222,26.7832716 63.5271178,26.7298228 63.6342035,26.6216216 C63.6883915,26.5668692 63.7412893,26.5668692 63.7412893,26.5134204 C64.4908896,25.8642131 64.6508731,24.7835044 64.1167345,24.0808483 C63.848375,23.7014922 63.3671342,23.4850897 62.8858934,23.4850897 C62.4575504,23.4850897 62.0833954,23.6480434 61.7092404,23.9191983 C61.6550524,23.9726471 61.6550524,23.9726471 61.6021546,24.0273995 C61.4950688,24.0808483 61.4421711,24.1890495 61.3350853,24.2438019 C61.0667258,24.5136532 60.8525543,24.7300556 60.6383828,24.9999069 C60.5312971,25.1081081 60.4242113,25.2697581 60.2629376,25.3779594 C59.5146275,26.1888167 58.8192152,26.8380241 58.1238029,27.3242778 C57.9638194,27.432479 57.8025456,27.4859278 57.6425621,27.4859278 C57.5354764,27.4859278 57.4283906,27.4859278 57.3213048,27.432479 L57.2142191,27.432479 L56.5729948,27.8639803 C55.8775825,27.1078753 55.1279822,26.458668 54.3796721,25.8107643 C51.1696799,23.2686873 47.2642754,21.701725 43.1988873,21.3236725 L43.1446993,20.6210164 C43.0918016,20.5662639 43.0918016,20.5662639 43.0376136,20.5128151 C42.8776301,20.3511651 42.6634585,20.1882115 42.6105608,19.810159 C42.5563728,18.9458528 42.6634585,17.9720418 42.7705443,16.8913332 L42.7705443,16.8378844 C42.7705443,16.6749307 42.8247323,16.4585283 42.8776301,16.2968783 C42.931818,15.9722746 42.9847158,15.6489746 43.0376136,15.2696185 L43.0376136,14.9463184 L43.0376136,14.7833648 C43.0376136,13.8108574 42.2893035,13 41.3797197,13 C40.9526669,13 40.5243239,13.2164024 40.2030666,13.5410061 C39.8818093,13.8643062 39.7218258,14.2971111 39.7218258,14.7833648 L39.7218258,14.891566 L39.7218258,15.2161697 C39.7218258,15.5942221 39.7747236,15.9188258 39.8818093,16.2434295 C39.9359973,16.4050795 39.9359973,16.5667295 39.9888951,16.783132 L39.9888951,16.8378844 C40.0959808,17.918593 40.2572546,18.8911004 40.1501688,19.7554066 C40.0959808,20.1347627 39.8818093,20.2964127 39.7218258,20.4580627 L39.61474,20.5662639 L39.5618423,21.2689201 C38.5967803,21.3771213 37.6342987,21.4853225 36.6718171,21.701725 C32.5522411,22.6207836 28.915196,24.7300556 26.0793589,27.755779 L25.5439301,27.3777266 L25.4368444,27.3777266 C25.3297586,27.3777266 25.2226728,27.432479 25.1155871,27.432479 C24.9556036,27.432479 24.79562,27.3777266 24.6343463,27.2695253 C23.938934,26.7832716 23.2435217,26.0806155 22.4952116,25.2697581 C22.3881259,25.1615569 22.2810401,24.9999069 22.1210566,24.8917057 C21.9068851,24.6218544 21.6927136,24.405452 21.4256443,24.1356007 C21.3714563,24.0808483 21.2643705,24.0273995 21.1572848,23.9191983 C21.104387,23.8644458 21.0514892,23.8644458 21.0514892,23.810997 C20.730232,23.5398422 20.301889,23.3768885 19.8735459,23.3768885 C19.3923051,23.3768885 18.9110643,23.593291 18.6439951,23.9726471 C18.1085663,24.6753032 18.26984,25.7560118 19.0181501,26.4052192 C19.0723381,26.4052192 19.0723381,26.458668 19.1252359,26.458668 C19.2323216,26.5134204 19.2852194,26.6216216 19.3923051,26.6750704 C19.7135624,26.8914729 19.9806317,27.0544265 20.301889,27.2160765 C20.4618725,27.2695253 20.6231462,27.3777266 20.7831297,27.4859278 C21.7469015,28.0803827 22.5481094,28.5666364 23.1906239,29.1610913 C23.4576932,29.4322462 23.4576932,29.7020974 23.4576932,29.9719487 L23.4576932,30.0801499 L23.993122,30.5664036 C23.8860362,30.7293573 23.7789505,30.8375585 23.7260527,30.9992085 C21.0514892,35.2698978 20.0348197,40.296692 20.730232,45.2687339 L20.0348197,45.4851363 C20.0348197,45.5398887 19.9806317,45.5398887 19.9806317,45.5933375 C19.8735459,45.80974 19.7135624,46.0261424 19.3923051,46.1890961 C18.5898071,46.4589473 17.6273255,46.5671485 16.50228,46.6753498 L16.4493822,46.6753498 C16.2893987,46.6753498 16.0752272,46.6753498 15.9139534,46.7301022 C15.5939864,46.7301022 15.2727291,46.783551 14.8985741,46.8383034 C14.7914883,46.8383034 14.6844026,46.8917522 14.5773168,46.8917522 C14.5231288,46.8917522 14.4702311,46.8917522 14.4173333,46.9465046 C13.4535615,47.1616035 12.865235,48.0806621 13.0265087,48.9462719 C13.1864922,49.7023768 13.8819045,50.1886305 14.7373003,50.1886305 C14.8985741,50.1886305 15.0056598,50.1886305 15.1656434,50.1351817 C15.2185411,50.1351817 15.2727291,50.1351817 15.2727291,50.0804293 C15.3798149,50.0804293 15.4869006,50.0269805 15.5939864,50.0269805 C15.9681414,49.9187792 16.2352107,49.810578 16.556468,49.648928 C16.7177417,49.5941756 16.8790154,49.4859743 17.038999,49.4325255 L17.0931869,49.4325255 C18.1085663,49.0544731 19.0181501,48.7298694 19.8735459,48.6216682 L19.9806317,48.6216682 C20.301889,48.6216682 20.5160605,48.7833182 20.676044,48.8915194 C20.730232,48.8915194 20.730232,48.9462719 20.7831297,48.9462719 L21.53273,48.8380706 C22.8164689,52.837605 25.2768608,56.4043346 28.541041,58.9998603 C29.2893511,59.5943152 30.0389514,60.0805689 30.8414494,60.5668226 L30.5201922,61.2694788 C30.5201922,61.3242312 30.5730899,61.3242312 30.5730899,61.37768 C30.6801757,61.5940825 30.7872614,61.8639337 30.6801757,62.2432898 C30.3602086,63.0541472 29.8776776,63.8637009 29.2893511,64.7827595 L29.2893511,64.8375119 C29.1822653,64.999162 29.0751796,65.1073632 28.969384,65.2690132 C28.7552125,65.5401681 28.5939388,65.8100193 28.3810575,66.134623 C28.3268695,66.1880718 28.2739717,66.296273 28.2197837,66.4044742 C28.2197837,66.4592267 28.166886,66.5126755 28.166886,66.5126755 C27.7372528,67.4317341 28.0598002,68.4602975 28.8622983,68.83835 C29.0751796,68.9465512 29.2893511,69 29.5035226,69 C30.1460371,69 30.7872614,68.5671951 31.1085187,67.9714366 C31.1085187,67.9179878 31.1614165,67.8632353 31.1614165,67.8632353 C31.2156045,67.7563377 31.2685022,67.6481365 31.3226902,67.5933841 C31.4826737,67.2153316 31.5368617,66.9454804 31.6439475,66.6208767 C31.6968453,66.4592267 31.749743,66.296273 31.803931,66.134623 C32.178086,65.0539144 32.4451553,64.1883046 32.9276863,63.4321996 C33.1405676,63.107596 33.4089271,63.0541472 33.6230986,62.9459459 C33.6759964,62.9459459 33.6759964,62.9459459 33.7288942,62.8911935 L34.1043394,62.1885374 C36.4576456,63.107596 39.0264135,63.5938497 41.5938912,63.5938497 C43.1446993,63.5938497 44.7496954,63.4321996 46.2476058,63.0541472 C47.2100874,62.8377447 48.1196712,62.5665898 49.029255,62.2432898 L49.3505123,62.8377447 C49.4034101,62.8377447 49.4034101,62.8377447 49.457598,62.8911935 C49.7246673,62.9459459 49.940129,63.0541472 50.1543005,63.3774472 C50.5813533,64.1348558 50.9026106,65.0539144 51.2767656,66.0798706 L51.2767656,66.134623 C51.3309536,66.296273 51.3838514,66.4592267 51.4380394,66.6208767 C51.5451251,66.9454804 51.5980229,67.2687804 51.7580064,67.5933841 C51.8121944,67.7015853 51.8650922,67.7563377 51.9192802,67.8632353 C51.9192802,67.9179878 51.9721779,67.9714366 51.9721779,67.9714366 C52.2934352,68.6219475 52.9346595,69 53.5771741,69 C53.7913456,69 54.0055171,68.9465512 54.2183984,68.83835 C54.5938436,68.6219475 54.9138107,68.2973439 55.0208964,67.8632353 C55.1279822,67.4317341 55.1279822,66.9454804 54.9138107,66.5126755 C54.9138107,66.4592267 54.8609129,66.4592267 54.8609129,66.4044742 C54.8080151,66.296273 54.7538271,66.1880718 54.7009294,66.134623 C54.5396556,65.8100193 54.3254841,65.5401681 54.1126028,65.2690132 C54.0055171,65.1073632 53.8984313,64.999162 53.7913456,64.8375119 L53.7913456,64.7827595 C53.203019,63.8637009 52.6675902,63.0541472 52.400521,62.2432898 C52.2934352,61.8639337 52.400521,61.6488349 52.4534187,61.37768 C52.4534187,61.3242312 52.5076067,61.3242312 52.5076067,61.2694788 L52.2392472,60.6215751 C55.0750844,58.9464115 57.4825786,56.5659846 59.300456,53.6484624 C60.2629376,52.1349489 61.0138281,50.4597854 61.5479666,48.7833182 L62.1904811,48.8915194 C62.2433789,48.8915194 62.2433789,48.8380706 62.2975669,48.8380706 C62.5117384,48.7298694 62.6717219,48.5669158 62.9929792,48.5669158 L63.100065,48.5669158 C63.9554608,48.675117 64.8650446,48.9997207 65.8817142,49.3777731 L65.9346119,49.3777731 C66.0958857,49.4325255 66.2558692,49.5407268 66.4158527,49.5941756 C66.73711,49.7571292 67.0041793,49.8640268 67.3796245,49.972228 C67.4854201,49.972228 67.5925058,50.0269805 67.6995916,50.0269805 C67.7537796,50.0269805 67.8066773,50.0269805 67.8608653,50.0804293 C68.0208488,50.1351817 68.1279346,50.1351817 68.2879181,50.1351817 C69.0904162,50.1351817 69.7858285,49.5941756 70,48.8915194 C70,48.2436157 69.4116735,47.3780059 68.4491919,47.1081547 Z" id="Fill-6" fill="#FEFEFE"></path>
            </g>
        </g>
    </g>
</svg>