<svg width="94px" height="94px" viewBox="0 0 94 94" version="1.1" xmlns="http://www.w3.org/2000/svg" xmlns:xlink="http://www.w3.org/1999/xlink">  <desc>Created with Sketch.</desc> <defs></defs> <g id="Welcome" stroke="none" stroke-width="1" fill="none" fill-rule="evenodd"> <g id="Blog-Post" transform="translate(-825.000000, -532.000000)"> <g id="Icon---NEW" transform="translate(827.000000, 534.000000)"> <path d="M78,51.9993897 C78,67.4644173 65.4634699,80 50,80 C34.5365301,80 22,67.4644173 22,51.9993897 C22,36.5355827 34.5365301,24 50,24 C65.4634699,24 78,36.5355827 78,51.9993897" id="Fill-1" fill="#68DBF3"></path> <polygon id="Stroke-3" stroke="#027F9D" stroke-width="3" stroke-linecap="round" stroke-linejoin="round" points="90 44.9993972 83.4340715 55.3004059 83.9766105 67.505124 73.1282402 73.1294458 67.505124 83.9766105 55.3004059 83.4340715 44.9993972 90 34.6983885 83.4340715 22.4936704 83.9766105 16.8705542 73.1282402 6.02338946 67.505124 6.5647229 55.3004059 0 44.9993972 6.5647229 34.6983885 6.02338946 22.4936704 16.8717598 16.8705542 22.494876 6.02338946 34.6995941 6.5647229 44.9993972 0 55.3004059 6.5647229 67.505124 6.02338946 73.1294458 16.8717598 83.9766105 22.494876 83.4340715 34.6995941"></polygon> <path d="M75,45 C75,61.5690633 61.5678398,75 45,75" id="Stroke-5" stroke="#027F9D" stroke-width="3" stroke-linecap="round" stroke-linejoin="round"></path> <path d="M45,15 C61.5690633,15 75,28.4321602 75,45" id="Stroke-7" stroke="#027F9D" stroke-width="3" stroke-dasharray="4,4"></path> <path d="M15,45 C15,28.4321602 28.4321602,15 45,15" id="Stroke-9" stroke="#027F9D" stroke-width="3" stroke-linecap="round" stroke-linejoin="round"></path> <path d="M45,75 C28.4321602,75 15,61.5678398 15,45" id="Stroke-11" stroke="#027F9D" stroke-width="3" stroke-dasharray="4,4"></path> <polygon id="Fill-13" fill="#027F9D" points="36 53 32.9596929 53 27.0403071 43.1306062 27.0403071 53 24 53 24 38 27.0403071 38 32.9693908 47.8903401 32.9693908 38 36 38"></polygon> <polygon id="Fill-15" fill="#027F9D" points="47.9754902 46.4999589 42.0735294 46.4999589 42.0735294 50.5182782 49 50.5182782 49 53 39 53 39 38 48.9791667 38 48.9791667 40.5026698 42.0735294 40.5026698 42.0735294 44.0773844 47.9754902 44.0773844"></polygon> <polygon id="Fill-17" fill="#027F9D" points="62.1196059 48.6727452 64.0526571 38 67 38 63.8144165 53 60.8375885 53 58.5 42.9655002 56.1624115 53 53.1855835 53 50 38 52.9485223 38 54.8910087 48.6517989 57.256903 38 59.7619675 38"></polygon> </g> </g> </g> </svg>