<svg id="Layer_1" data-name="Layer 1" xmlns="http://www.w3.org/2000/svg" xmlns:xlink="http://www.w3.org/1999/xlink" viewBox="0 0 1532 850.06"><defs><style>@import url('https://fonts.googleapis.com/css?family=Ubuntu');.cls-1,.cls-2{fill:#34a8c4;}.cls-1{opacity:0.15;}.cls-108,.cls-109,.cls-2{opacity:0.4;}.cls-118,.cls-17,.cls-3,.cls-4,.cls-96{fill:#fff;}.cls-17,.cls-4{font-size:28px;}.cls-17,.cls-20,.cls-23,.cls-29,.cls-33,.cls-37,.cls-4,.cls-45{font-family: Ubuntu;}.cls-17,.cls-20,.cls-23,.cls-29,.cls-33,.cls-37,.cls-4,.cls-45,.cls-68,.cls-81,.cls-90{font-weight:700;}.cls-4{letter-spacing:-0.25em;}.cls-5{letter-spacing:0.08em;}.cls-17,.cls-6{letter-spacing:-0.35em;}.cls-7{letter-spacing:0.28em;}.cls-8{letter-spacing:-0.12em;}.cls-9{letter-spacing:0.3em;}.cls-10{letter-spacing:0.08em;}.cls-11{letter-spacing:-0.25em;}.cls-12{letter-spacing:0.21em;}.cls-13{letter-spacing:-0.03em;}.cls-14{letter-spacing:0.17em;}.cls-15{letter-spacing:0.4em;}.cls-16{letter-spacing:0.04em;}.cls-18{letter-spacing:0.02em;}.cls-19{letter-spacing:0.3em;}.cls-20,.cls-23,.cls-29,.cls-33,.cls-37{font-size:23.98px;}.cls-20,.cls-23,.cls-29,.cls-33,.cls-37,.cls-45,.cls-57,.cls-68,.cls-81,.cls-90,.cls-98{fill:#158696;}.cls-20{letter-spacing:-0.03em;}.cls-21{letter-spacing:0.39em;}.cls-22{letter-spacing:0.05em;}.cls-23{letter-spacing:0.2em;}.cls-24{letter-spacing:-0.12em;}.cls-25{letter-spacing:-0.34em;}.cls-26{letter-spacing:0.03em;}.cls-27{letter-spacing:0.1em;}.cls-28{letter-spacing:0.01em;}.cls-29{letter-spacing:0.03em;}.cls-30{letter-spacing:0.03em;}.cls-31{letter-spacing:-0.27em;}.cls-32{letter-spacing:0.33em;}.cls-33{letter-spacing:-0.05em;}.cls-34{letter-spacing:-0.03em;}.cls-35{letter-spacing:0.38em;}.cls-36{letter-spacing:-0.14em;}.cls-37{letter-spacing:0.16em;}.cls-38{letter-spacing:-0.19em;}.cls-39{letter-spacing:0.33em;}.cls-40{letter-spacing:0.01em;}.cls-41{letter-spacing:0.03em;}.cls-42{letter-spacing:-0.01em;}.cls-43{letter-spacing:0.31em;}.cls-44{letter-spacing:0.19em;}.cls-118,.cls-45{font-size:30px;}.cls-45{letter-spacing:0.05em;}.cls-46{letter-spacing:0.42em;}.cls-47{letter-spacing:0.46em;}.cls-48{letter-spacing:0.11em;}.cls-49{letter-spacing:0.05em;}.cls-50{letter-spacing:0.33em;}.cls-51{letter-spacing:0.05em;}.cls-52{letter-spacing:-0.23em;}.cls-53{letter-spacing:0.1em;}.cls-54{letter-spacing:0.42em;}.cls-55{letter-spacing:-0.32em;}.cls-56{letter-spacing:0.35em;}.cls-58{font-size:24px;}.cls-111,.cls-58{fill:#04363d;}.cls-111,.cls-118,.cls-58{font-family: Ubuntu;}.cls-59{letter-spacing:-0.04em;}.cls-60{letter-spacing:0.02em;}.cls-61{letter-spacing:0.13em;}.cls-62{letter-spacing:-0.28em;}.cls-63{letter-spacing:0.04em;}.cls-64{letter-spacing:-0.02em;}.cls-65{letter-spacing:-0.22em;}.cls-66{letter-spacing:0.24em;}.cls-67{fill:#35a9c5;}.cls-67,.cls-98{opacity:0.2;}.cls-68{font-size:23.12px;}.cls-68,.cls-81,.cls-90{font-family: Ubuntu;}.cls-69{letter-spacing:0.03em;}.cls-70{letter-spacing:0em;}.cls-71{letter-spacing:0em;}.cls-72{letter-spacing:0.01em;}.cls-73{letter-spacing:0.03em;}.cls-100,.cls-108,.cls-109,.cls-138,.cls-74{fill:none;}.cls-100,.cls-110,.cls-74,.cls-96{stroke:#158696;}.cls-100,.cls-110,.cls-74{stroke-linecap:round;stroke-linejoin:round;}.cls-110,.cls-74,.cls-96{stroke-width:3px;}.cls-75{letter-spacing:-0.3em;}.cls-76{letter-spacing:-0.04em;}.cls-77{letter-spacing:-0.44em;}.cls-78{letter-spacing:-0.2em;}.cls-79{letter-spacing:-0.06em;}.cls-80{letter-spacing:-0.35em;}.cls-81{font-size:23.93px;}.cls-82{letter-spacing:0.03em;}.cls-83{letter-spacing:0em;}.cls-84{letter-spacing:0em;}.cls-85{letter-spacing:0.01em;}.cls-86{letter-spacing:0.03em;}.cls-87{letter-spacing:-0.19em;}.cls-88{letter-spacing:0.35em;}.cls-89{letter-spacing:0.3em;}.cls-90{font-size:23.91px;}.cls-91{letter-spacing:0.03em;}.cls-92{letter-spacing:0em;}.cls-93{letter-spacing:0em;}.cls-94{letter-spacing:0.01em;}.cls-95{letter-spacing:0.03em;}.cls-108,.cls-109,.cls-138,.cls-96{stroke-miterlimit:10;}.cls-97{letter-spacing:-0.24em;}.cls-99{letter-spacing:-0.22em;}.cls-100{stroke-width:2px;}.cls-101{letter-spacing:0.06em;}.cls-102{letter-spacing:0.43em;}.cls-103{letter-spacing:0.21em;}.cls-104{letter-spacing:-0.25em;}.cls-105{letter-spacing:-0.03em;}.cls-106{letter-spacing:0.4em;}.cls-107{letter-spacing:0.04em;}.cls-108,.cls-109{stroke:#34a8c4;}.cls-108{stroke-width:4px;}.cls-109{stroke-width:5px;}.cls-110{fill:#bfe4ea;}.cls-111{font-size:21.74px;}.cls-112{letter-spacing:0.22em;}.cls-113{letter-spacing:0.24em;}.cls-114{letter-spacing:-0.24em;}.cls-115{letter-spacing:0.24em;}.cls-116{letter-spacing:-0.02em;}.cls-117{letter-spacing:-0.22em;}.cls-119{letter-spacing:0.13em;}.cls-120{letter-spacing:0.24em;}.cls-121{letter-spacing:0.26em;}.cls-122{letter-spacing:0.09em;}.cls-123{letter-spacing:-0.02em;}.cls-124{letter-spacing:0.37em;}.cls-125{letter-spacing:-0.3em;}.cls-126{letter-spacing:-0.04em;}.cls-127{letter-spacing:0.35em;}.cls-128{letter-spacing:0.04em;}.cls-129{letter-spacing:-0.35em;}.cls-130{letter-spacing:-0.09em;}.cls-131{letter-spacing:0.24em;}.cls-132{letter-spacing:-0.24em;}.cls-133{letter-spacing:0.22em;}.cls-134{letter-spacing:0.28em;}.cls-135{letter-spacing:0.3em;}.cls-136{fill:url(#linear-gradient);}.cls-137{fill:#ffc60a;}.cls-138{stroke:#91d2d7;stroke-width:10px;}.cls-139{fill:#91d2d7;}</style><linearGradient id="linear-gradient" x1="1043.36" y1="135.02" x2="1420.61" y2="1171.5" gradientUnits="userSpaceOnUse"><stop offset="0.13" stop-color="#3192ac"/><stop offset="0.17" stop-color="#469eb6"/><stop offset="0.26" stop-color="#7dbed1"/><stop offset="0.37" stop-color="#cbebf7"/></linearGradient></defs><title>Artboard 1 copy 2</title><rect class="cls-1" x="481.27" y="21.07" width="752.86" height="726.8" rx="17.89" ry="17.89"/><rect class="cls-2" x="13.21" y="577.84" width="393" height="252.16" rx="17.89" ry="17.89"/><rect class="cls-3" x="30.43" y="595.52" width="352" height="87.78" rx="15" ry="15"/><rect class="cls-3" x="30.43" y="695.52" width="352" height="87.78" rx="15" ry="15"/><text class="cls-4" transform="translate(93.3 817.09)">P<tspan class="cls-5" x="19.38" y="0">R</tspan><tspan class="cls-6" x="40.29" y="0">I</tspan><tspan class="cls-7" x="49.25" y="0">V</tspan><tspan class="cls-8" x="66.3" y="0">A</tspan><tspan class="cls-9" x="83.61" y="0">T</tspan><tspan class="cls-10" x="101.42" y="0">E</tspan><tspan class="cls-11" x="120.26" y="0"> </tspan><tspan class="cls-12" x="128.74" y="0">C</tspan><tspan class="cls-13" x="150.19" y="0">L</tspan><tspan class="cls-14" x="167.49" y="0">O</tspan><tspan class="cls-15" x="189.98" y="0">U</tspan><tspan class="cls-16" x="211.43" y="0">D</tspan></text><rect class="cls-2" x="13.21" y="300.84" width="393" height="252.16" rx="17.89" ry="17.89"/><rect class="cls-3" x="30.43" y="318.52" width="352" height="87.78" rx="15" ry="15"/><rect class="cls-3" x="30.43" y="418.52" width="352" height="87.78" rx="15" ry="15"/><text class="cls-17" transform="translate(136.44 540.09)">I<tspan class="cls-18" x="8.96" y="0">N</tspan><tspan class="cls-19" x="30.41" y="0">T</tspan><tspan class="cls-10" x="48.22" y="0">ER</tspan><tspan class="cls-18" x="87.98" y="0">N</tspan><tspan class="cls-13" x="109.42" y="0">AL</tspan></text><rect class="cls-2" x="483.09" y="776.84" width="130" height="50.73" rx="15" ry="15"/><text class="cls-20" transform="translate(517.44 811.84)">A<tspan class="cls-21" x="17.05" y="0">W</tspan><tspan class="cls-22" x="40.89" y="0">S</tspan></text><rect class="cls-2" x="632.69" y="776.84" width="130" height="50.73" rx="15" ry="15"/><text class="cls-23" transform="translate(665.06 811.84)">T<tspan class="cls-24" x="12.69" y="0">r</tspan><tspan class="cls-25" x="22.25" y="0">i</tspan><tspan class="cls-26" x="28.68" y="0">t</tspan><tspan class="cls-27" x="37.36" y="0">o</tspan><tspan class="cls-28" x="52.26" y="0">n</tspan></text><rect class="cls-2" x="782.29" y="776.84" width="130" height="50.73" rx="15" ry="15"/><text class="cls-29" transform="translate(804.17 811.84)">G<tspan class="cls-27" x="18.44" y="0">oo</tspan><tspan class="cls-30" x="48.23" y="0">g</tspan><tspan class="cls-31" x="63.12" y="0">l</tspan><tspan class="cls-32" x="69.55" y="0">e</tspan></text><rect class="cls-2" x="931.89" y="776.84" width="130" height="50.73" rx="15" ry="15"/><text class="cls-33" transform="translate(963.99 811.84)">A<tspan class="cls-34" x="16.67" y="0">z</tspan><tspan class="cls-35" x="29.35" y="0">u</tspan><tspan class="cls-36" x="43.81" y="0">r</tspan><tspan class="cls-32" x="52.95" y="0">e</tspan></text><rect class="cls-2" x="1081.48" y="776.84" width="153.98" height="50.73" rx="15" ry="15"/><text class="cls-37" transform="translate(1094.48 811.84)">O<tspan class="cls-38" x="18.9" y="0">p</tspan><tspan class="cls-39" x="33.79" y="0">e</tspan><tspan class="cls-40" x="47.79" y="0">n</tspan><tspan class="cls-30" x="62.26" y="0">s</tspan><tspan class="cls-41" x="75.37" y="0">t</tspan><tspan class="cls-42" x="84.05" y="0">a</tspan><tspan class="cls-43" x="98.06" y="0">c</tspan><tspan class="cls-44" x="112.07" y="0">k</tspan></text><rect class="cls-2" x="13.21" y="20.84" width="393" height="252.16" rx="17.89" ry="17.89"/><rect class="cls-3" x="30.43" y="38.52" width="352" height="87.78" rx="15" ry="15"/><rect class="cls-3" x="30.43" y="138.52" width="352" height="87.78" rx="15" ry="15"/><text class="cls-45" transform="translate(712.39 688.17)">K<tspan class="cls-46" x="23.16" y="0">U</tspan><tspan class="cls-47" x="46.89" y="0">B</tspan><tspan class="cls-48" x="69.51" y="0">ER</tspan><tspan class="cls-49" x="113.61" y="0">N</tspan><tspan class="cls-48" x="137.34" y="0">E</tspan><tspan class="cls-50" x="158.28" y="0">T</tspan><tspan class="cls-48" x="178.11" y="0">E</tspan><tspan class="cls-51" x="199.05" y="0">S</tspan><tspan class="cls-52" x="220.02" y="0"> </tspan><tspan class="cls-53" x="229.86" y="0">R</tspan><tspan class="cls-54" x="253.02" y="0">U</tspan><tspan class="cls-49" x="276.75" y="0">N</tspan><tspan class="cls-50" x="300.48" y="0">T</tspan><tspan class="cls-55" x="320.31" y="0">I</tspan><tspan class="cls-56" x="330.66" y="0">M</tspan><tspan class="cls-53" x="359.37" y="0">E</tspan></text><path class="cls-57" d="M654.86,708.82A4.89,4.89,0,0,1,651,707l-14.51-18a4.87,4.87,0,0,1-1-4.23l5.18-22.52a4.91,4.91,0,0,1,2.7-3.36l21-10a4.92,4.92,0,0,1,4.31,0l21,10a4.91,4.91,0,0,1,2.7,3.36l5.18,22.52a5,5,0,0,1-1,4.23l-14.51,18a5,5,0,0,1-3.86,1.87l-23.39,0Z"/><path class="cls-3" d="M666.51,649.32a4.06,4.06,0,0,1,1.7.37l21,10a4,4,0,0,1,2.16,2.7l5.18,22.52a3.88,3.88,0,0,1-.79,3.4l-14.51,18a4,4,0,0,1-3.11,1.49H654.86a4,4,0,0,1-3.11-1.49l-14.51-18a4.15,4.15,0,0,1-.79-3.4l5.18-22.52a4,4,0,0,1,2.16-2.7l21-10a5,5,0,0,1,1.74-.33Zm0-1.95h0a6.27,6.27,0,0,0-2.57.58l-21,10a5.87,5.87,0,0,0-3.23,4l-5.18,22.52a5.88,5.88,0,0,0,1.16,5.06l14.51,18a5.86,5.86,0,0,0,4.6,2.2h23.26a5.86,5.86,0,0,0,4.6-2.2l14.51-18a5.85,5.85,0,0,0,1.16-5.06L693.17,662a5.87,5.87,0,0,0-3.23-4l-20.9-10a5.94,5.94,0,0,0-2.53-.58Z"/><path class="cls-3" d="M687.53,683.11h0s-.08,0-.08,0-.17,0-.25,0a5.67,5.67,0,0,0-.79-.08,1.56,1.56,0,0,1-.41,0h0a10.94,10.94,0,0,1-2.24-.37.81.81,0,0,1-.46-.46s0,0,0-.08h0l-.54-.17a16.4,16.4,0,0,0-.29-5.85,17.09,17.09,0,0,0-2.32-5.43l.41-.37v-.08a.94.94,0,0,1,.21-.62,12.1,12.1,0,0,1,1.87-1.29h0c.12-.08.25-.12.37-.21a6.24,6.24,0,0,0,.7-.41s.12-.08.21-.17.08,0,.08-.08h0a1.38,1.38,0,0,0,.29-1.87,1.18,1.18,0,0,0-1-.46,1.54,1.54,0,0,0-.91.33h0l-.08.08c-.08,0-.12.12-.21.17a6.89,6.89,0,0,0-.54.58,1.92,1.92,0,0,1-.29.29h0a10.54,10.54,0,0,1-1.66,1.49.67.67,0,0,1-.37.12.53.53,0,0,1-.25,0h-.08l-.5.33a20.14,20.14,0,0,0-1.7-1.58,16.56,16.56,0,0,0-8.67-3.44l0-.54-.08-.08a.87.87,0,0,1-.33-.54,14.55,14.55,0,0,1,.12-2.24v0a1.47,1.47,0,0,1,.08-.41c0-.25.08-.5.12-.79v-.37h0a1.27,1.27,0,0,0-2.2-1,1.31,1.31,0,0,0-.37,1h0v.33a2.41,2.41,0,0,0,.12.79c0,.12,0,.25.08.41v0a10.71,10.71,0,0,1,.12,2.24.87.87,0,0,1-.33.54l-.08.08h0l0,.54a20.83,20.83,0,0,0-2.24.33,16,16,0,0,0-8.21,4.64l-.41-.29h-.08c-.08,0-.17,0-.25,0a.67.67,0,0,1-.37-.12,11,11,0,0,1-1.66-1.53h0a1.92,1.92,0,0,0-.29-.29,6.89,6.89,0,0,0-.54-.58s-.12-.08-.21-.17-.08,0-.08-.08h0a1.45,1.45,0,0,0-.91-.33,1.18,1.18,0,0,0-1,.46,1.38,1.38,0,0,0,.29,1.87h0s0,0,.08,0,.12.12.21.17a6.24,6.24,0,0,0,.7.41,1.68,1.68,0,0,1,.37.21h0a12.1,12.1,0,0,1,1.87,1.29.76.76,0,0,1,.21.62V670h0l.41.37a1.45,1.45,0,0,0-.21.33,16.15,16.15,0,0,0-2.32,10.95l-.54.17s0,0,0,.08a1,1,0,0,1-.46.46,10.47,10.47,0,0,1-2.24.37h0a1.41,1.41,0,0,0-.41,0,5.67,5.67,0,0,0-.79.08c-.08,0-.17,0-.25,0a.15.15,0,0,0-.12,0h0a1.36,1.36,0,0,0-1.08,1.53,1.28,1.28,0,0,0,1.33,1,.91.91,0,0,0,.33,0h0s.08,0,.08,0,.17,0,.25,0a4,4,0,0,0,.75-.29c.12,0,.25-.12.37-.17h0a10.19,10.19,0,0,1,2.16-.62H650a.92.92,0,0,1,.54.21s0,0,.08,0h0l.58-.08a16.4,16.4,0,0,0,5.43,7.8,16.79,16.79,0,0,0,1.78,1.2l-.25.54s0,0,0,.08a.85.85,0,0,1,.08.66,11.69,11.69,0,0,1-1.08,1.95v0c-.08.12-.17.21-.25.33s-.29.41-.46.66a.91.91,0,0,0-.12.21.14.14,0,0,1,0,.08h0a1.31,1.31,0,0,0,.54,1.78,1.1,1.1,0,0,0,.5.12,1.49,1.49,0,0,0,1.24-.79h0a.14.14,0,0,1,0-.08.91.91,0,0,1,.12-.21,7.85,7.85,0,0,0,.25-.75l.12-.37h0a9.74,9.74,0,0,1,.87-2.07,1.06,1.06,0,0,1,.54-.37s0,0,.08,0h0l.29-.54a16.2,16.2,0,0,0,5.81,1.08,15.05,15.05,0,0,0,3.61-.41,18.43,18.43,0,0,0,2.16-.62l.25.46s0,0,.08,0a.77.77,0,0,1,.54.37,14.2,14.2,0,0,1,.87,2.07v0l.12.37a5.25,5.25,0,0,0,.25.75c0,.08.08.12.12.21a.14.14,0,0,0,0,.08h0a1.41,1.41,0,0,0,1.24.79,1.1,1.1,0,0,0,.5-.12,1.24,1.24,0,0,0,.62-.75,1.5,1.5,0,0,0-.08-1h0s0,0,0-.08a.91.91,0,0,0-.12-.21,3.76,3.76,0,0,0-.46-.66c-.08-.12-.17-.21-.25-.33v0a9.31,9.31,0,0,1-1.08-1.95,1.16,1.16,0,0,1,0-.66s0,0,0-.08h0l-.21-.5a16.45,16.45,0,0,0,7.21-9.08l.5.08s0,0,.08,0a1.05,1.05,0,0,1,.54-.21h.08a10.19,10.19,0,0,1,2.16.62h0c.12,0,.25.12.37.17a4,4,0,0,0,.75.29c.08,0,.17,0,.25,0a.15.15,0,0,1,.12,0h0a.91.91,0,0,0,.33,0,1.4,1.4,0,0,0,1.33-1,1.6,1.6,0,0,0-1.2-1.37Zm-19.2-2-1.82.87-1.82-.87-.46-1.95,1.24-1.58h2l1.24,1.58-.41,1.95Zm10.82-4.31a13.07,13.07,0,0,1,.29,4.19l-6.34-1.82a1.12,1.12,0,0,1-.79-1.33,1,1,0,0,1,.25-.46l5-4.52a13.29,13.29,0,0,1,1.58,3.94Zm-3.57-6.43-5.43,3.86a1.1,1.1,0,0,1-1.45-.25.92.92,0,0,1-.21-.46l-.37-6.76a12.59,12.59,0,0,1,7.46,3.61Zm-12-3.4,1.33-.25-.37,6.63a1.13,1.13,0,0,1-1.12,1.08,1,1,0,0,1-.5-.12l-5.51-3.94a12.65,12.65,0,0,1,6.18-3.4Zm-8.17,5.89,4.93,4.4a1.1,1.1,0,0,1,.12,1.53.83.83,0,0,1-.5.33L653.53,681a13.35,13.35,0,0,1,1.87-8.13Zm-1.12,11.24,6.59-1.12a1.12,1.12,0,0,1,1.16.87,1.18,1.18,0,0,1,0,.66h0l-2.53,6.1a13.07,13.07,0,0,1-5.18-6.51Zm15.13,8.25a13.54,13.54,0,0,1-2.9.33,14,14,0,0,1-4.19-.66l3.28-5.93a1.09,1.09,0,0,1,1.33-.29,1.77,1.77,0,0,1,.5.46h0l3.19,5.76c-.37.12-.79.21-1.2.33Zm8.09-5.76a13.16,13.16,0,0,1-4,4l-2.61-6.26a1.12,1.12,0,0,1,.58-1.29,1.32,1.32,0,0,1,.58-.12L678.7,684a8.34,8.34,0,0,1-1.2,2.53Z"/><text class="cls-58" transform="translate(248.6 75.9)"><tspan class="cls-59">V<tspan class="cls-60" x="14.66" y="0">P</tspan><tspan class="cls-61" x="30.67" y="0">C</tspan><tspan class="cls-62" x="48" y="0" xml:space="preserve"> </tspan></tspan><tspan class="cls-63" x="0" y="28.8">S</tspan><tspan class="cls-64" x="15.55" y="28.8">e</tspan><tspan class="cls-65" x="28.9" y="28.8">r</tspan><tspan x="37.34" y="28.8">vi</tspan><tspan class="cls-66" x="55.58" y="28.8">c</tspan><tspan class="cls-64" x="68.93" y="28.8">e</tspan><tspan x="82.27" y="28.8">s</tspan></text><path class="cls-67" d="M88.27,215.43C77.64,211.54,71,203.35,68.5,199.72c-8-11.57-8.36-28.7-.86-43.66l1.91-3.8,4.32.84a22.53,22.53,0,0,0,8.58,0,22.24,22.24,0,0,0,7.84-3.17l3.18-2.08,3.18,2.08a22.25,22.25,0,0,0,7.83,3.17,22.54,22.54,0,0,0,8.58,0l4.32-.84,1.91,3.8c7.5,15,7.17,32.1-.86,43.66-2.51,3.62-9.13,11.82-19.76,15.71l-3.92,1.16a4.53,4.53,0,0,1-2.58,0Z"/><text class="cls-68" transform="translate(75.56 176.73)"><tspan class="cls-69">a</tspan><tspan class="cls-70" x="11.97" y="0">b</tspan><tspan x="23.28" y="0">c</tspan><tspan class="cls-71" x="-5.31" y="18.3">c</tspan><tspan class="cls-72" x="5.35" y="18.3">o</tspan><tspan class="cls-73" x="18.53" y="18.3">r</tspan><tspan x="29.09" y="18.3">p</tspan></text><path class="cls-74" d="M87,216.72C76.34,212.84,69.73,204.64,67.21,201c-8-11.57-8.36-28.7-.86-43.66l1.91-3.8,4.32.84a22.53,22.53,0,0,0,8.58,0A22.24,22.24,0,0,0,89,151.23l3.18-2.08,3.18,2.08a22.25,22.25,0,0,0,7.83,3.17,22.54,22.54,0,0,0,8.58,0l4.32-.84,1.91,3.8c7.5,15,7.17,32.1-.86,43.66-2.51,3.62-9.13,11.82-19.76,15.71l-3.92,1.16a4.53,4.53,0,0,1-2.58,0Z"/><circle class="cls-67" cx="192.73" cy="197.71" r="10.42"/><path class="cls-74" d="M176.25,167.58a1.41,1.41,0,0,1-.47-1.3,10.48,10.48,0,0,0,.12-2.65,1.41,1.41,0,0,1,.59-1.25l2-1.46a1.45,1.45,0,0,0,.44-1.83l-1.33-2.57a1.45,1.45,0,0,0-1.75-.71l-2.37.8a1.46,1.46,0,0,1-1.4-.29A10.52,10.52,0,0,0,170,155a1.49,1.49,0,0,1-.86-1.17l-.26-2.47a1.45,1.45,0,0,0-1.37-1.29l-2.89-.14a1.45,1.45,0,0,0-1.49,1.16l-.49,2.44a1.49,1.49,0,0,1-1,1.09,10.51,10.51,0,0,0-2.21,1.15,1.46,1.46,0,0,1-1.42.15l-2.29-1a1.45,1.45,0,0,0-1.81.54l-1.56,2.44a1.45,1.45,0,0,0,.26,1.87l1.86,1.64a1.41,1.41,0,0,1,.47,1.3,10.46,10.46,0,0,0-.12,2.65,1.41,1.41,0,0,1-.59,1.25l-2,1.46a1.45,1.45,0,0,0-.44,1.83l1.33,2.57a1.45,1.45,0,0,0,1.75.71l2.37-.8a1.46,1.46,0,0,1,1.4.29,10.51,10.51,0,0,0,2.09,1.35,1.49,1.49,0,0,1,.86,1.17l.26,2.47a1.45,1.45,0,0,0,1.37,1.29l2.89.14a1.45,1.45,0,0,0,1.49-1.16l.49-2.44a1.49,1.49,0,0,1,1-1.09,10.51,10.51,0,0,0,2.21-1.15,1.46,1.46,0,0,1,1.42-.15l2.29,1a1.45,1.45,0,0,0,1.81-.54l1.56-2.44a1.45,1.45,0,0,0-.26-1.87Z"/><circle class="cls-74" cx="165.39" cy="164.47" r="3.69" transform="translate(-6.64 321.98) rotate(-87.32)"/><path class="cls-74" d="M211.35,187.08l-2.76.31a1.25,1.25,0,0,1-1.23-.65,18,18,0,0,0-1.83-2.67,1.25,1.25,0,0,1-.16-1.38l1.28-2.47a1.25,1.25,0,0,0-.43-1.62l-5.1-3.31a1.25,1.25,0,0,0-1.65.27l-1.73,2.17a1.25,1.25,0,0,1-1.32.41,18,18,0,0,0-3.18-.59,1.25,1.25,0,0,1-1.09-.86l-.84-2.65a1.25,1.25,0,0,0-1.45-.84l-5.94,1.26a1.25,1.25,0,0,0-1,1.36l.31,2.76a1.25,1.25,0,0,1-.65,1.23,18,18,0,0,0-2.66,1.83,1.25,1.25,0,0,1-1.38.16l-2.47-1.28a1.25,1.25,0,0,0-1.62.43l-3.31,5.1a1.25,1.25,0,0,0,.27,1.65l2.17,1.73a1.25,1.25,0,0,1,.41,1.32,18.07,18.07,0,0,0-.59,3.18,1.25,1.25,0,0,1-.86,1.09l-2.65.84a1.25,1.25,0,0,0-.84,1.45l1.26,5.94a1.25,1.25,0,0,0,1.36,1l2.76-.31a1.25,1.25,0,0,1,1.23.65,18.06,18.06,0,0,0,1.83,2.67,1.25,1.25,0,0,1,.16,1.38l-1.28,2.47a1.25,1.25,0,0,0,.43,1.62l5.1,3.31a1.25,1.25,0,0,0,1.65-.27l1.73-2.17a1.25,1.25,0,0,1,1.32-.41,18,18,0,0,0,3.18.59,1.25,1.25,0,0,1,1.09.86l.84,2.65a1.25,1.25,0,0,0,1.45.84l5.94-1.26a1.25,1.25,0,0,0,1-1.36l-.31-2.76a1.25,1.25,0,0,1,.65-1.23,18,18,0,0,0,2.67-1.83,1.25,1.25,0,0,1,1.38-.16l2.47,1.28a1.25,1.25,0,0,0,1.62-.43l3.31-5.1a1.25,1.25,0,0,0-.27-1.65l-2.17-1.73a1.25,1.25,0,0,1-.41-1.32,18,18,0,0,0,.59-3.18,1.25,1.25,0,0,1,.86-1.09l2.65-.84A1.25,1.25,0,0,0,214,194l-1.26-5.94A1.25,1.25,0,0,0,211.35,187.08Zm-17.23,20.78a12.47,12.47,0,1,1,9.6-14.78A12.47,12.47,0,0,1,194.12,207.86Z"/><text class="cls-58" transform="translate(248.6 173.9)"><tspan class="cls-75">I<tspan class="cls-76" x="6.67" y="0">n</tspan><tspan class="cls-77" x="20.45" y="0">t</tspan><tspan class="cls-64" x="28.44" y="0">e</tspan><tspan class="cls-78" x="41.78" y="0">r</tspan><tspan class="cls-76" x="50.66" y="0">n</tspan><tspan class="cls-79" x="64.44" y="0">a</tspan><tspan class="cls-80" x="77.78" y="0">l</tspan><tspan class="cls-62" x="83.57" y="0"> </tspan></tspan><tspan class="cls-63" x="0" y="28.8">S</tspan><tspan class="cls-64" x="15.55" y="28.8">e</tspan><tspan class="cls-65" x="28.9" y="28.8">r</tspan><tspan x="37.34" y="28.8">vi</tspan><tspan class="cls-66" x="55.58" y="28.8">c</tspan><tspan class="cls-64" x="68.93" y="28.8">e</tspan><tspan x="82.27" y="28.8">s</tspan></text><path class="cls-67" d="M89.23,395.21c-11-4-17.86-12.51-20.46-16.26-8.31-12-8.66-29.71-.89-45.2l2-3.93,4.47.87a23.32,23.32,0,0,0,8.88,0,23,23,0,0,0,8.11-3.28l3.3-2.15,3.3,2.15a23,23,0,0,0,8.11,3.28,23.33,23.33,0,0,0,8.88,0l4.47-.87,2,3.93c7.77,15.48,7.42,33.23-.89,45.2-2.6,3.75-9.45,12.23-20.45,16.26l-4.06,1.21a4.69,4.69,0,0,1-2.67,0Z"/><text class="cls-81" transform="translate(76.07 355.15)"><tspan class="cls-82">a</tspan><tspan class="cls-83" x="12.39" y="0">b</tspan><tspan x="24.1" y="0">c</tspan><tspan class="cls-84" x="-5.49" y="18.94">c</tspan><tspan class="cls-85" x="5.54" y="18.94">o</tspan><tspan class="cls-86" x="19.18" y="18.94">r</tspan><tspan x="30.11" y="18.94">p</tspan></text><path class="cls-74" d="M87.89,396.55c-11-4-17.86-12.51-20.46-16.26-8.31-12-8.66-29.71-.89-45.2l2-3.93L73,332a23.32,23.32,0,0,0,8.88,0A23,23,0,0,0,90,328.75l3.3-2.15,3.3,2.15a23,23,0,0,0,8.11,3.28,23.33,23.33,0,0,0,8.88,0l4.47-.87,2,3.93c7.77,15.48,7.42,33.23-.89,45.2-2.6,3.75-9.45,12.23-20.45,16.26l-4.06,1.21a4.69,4.69,0,0,1-2.67,0Z"/><circle class="cls-67" cx="193.98" cy="376.86" r="10.79"/><path class="cls-74" d="M176.93,345.68a1.46,1.46,0,0,1-.49-1.34,10.85,10.85,0,0,0,.13-2.74,1.46,1.46,0,0,1,.61-1.29l2.08-1.51a1.5,1.5,0,0,0,.45-1.9l-1.38-2.66a1.5,1.5,0,0,0-1.81-.73l-2.46.83a1.51,1.51,0,0,1-1.45-.3,10.89,10.89,0,0,0-2.17-1.4,1.54,1.54,0,0,1-.89-1.22l-.27-2.56a1.5,1.5,0,0,0-1.42-1.34l-3-.14a1.5,1.5,0,0,0-1.54,1.2l-.5,2.52a1.54,1.54,0,0,1-1,1.13,10.88,10.88,0,0,0-2.29,1.19,1.51,1.51,0,0,1-1.47.16l-2.37-1.06a1.5,1.5,0,0,0-1.87.56l-1.62,2.52a1.5,1.5,0,0,0,.27,1.93l1.93,1.69a1.46,1.46,0,0,1,.49,1.34,10.83,10.83,0,0,0-.13,2.74,1.46,1.46,0,0,1-.61,1.29l-2.08,1.51a1.5,1.5,0,0,0-.45,1.9l1.38,2.66a1.5,1.5,0,0,0,1.81.73l2.46-.83a1.51,1.51,0,0,1,1.45.3,10.88,10.88,0,0,0,2.17,1.4,1.54,1.54,0,0,1,.89,1.22l.27,2.56a1.5,1.5,0,0,0,1.42,1.34l3,.14a1.5,1.5,0,0,0,1.54-1.2l.5-2.52a1.54,1.54,0,0,1,1-1.13,10.88,10.88,0,0,0,2.29-1.19,1.51,1.51,0,0,1,1.47-.16l2.37,1.06a1.5,1.5,0,0,0,1.87-.56l1.62-2.52a1.5,1.5,0,0,0-.27-1.93Z"/><circle class="cls-74" cx="165.68" cy="342.46" r="3.82" transform="translate(-184.15 491.94) rotate(-87.32)"/><path class="cls-74" d="M213.26,365.86l-2.86.32a1.29,1.29,0,0,1-1.27-.67,18.67,18.67,0,0,0-1.89-2.76,1.29,1.29,0,0,1-.17-1.42l1.33-2.55a1.29,1.29,0,0,0-.44-1.68l-5.27-3.43A1.29,1.29,0,0,0,201,354l-1.79,2.25a1.29,1.29,0,0,1-1.37.43,18.65,18.65,0,0,0-3.29-.61,1.29,1.29,0,0,1-1.13-.89l-.87-2.75a1.29,1.29,0,0,0-1.5-.87l-6.15,1.31a1.29,1.29,0,0,0-1,1.41l.32,2.86a1.29,1.29,0,0,1-.67,1.27,18.65,18.65,0,0,0-2.76,1.89,1.29,1.29,0,0,1-1.42.17l-2.55-1.33a1.29,1.29,0,0,0-1.68.44l-3.43,5.28a1.29,1.29,0,0,0,.28,1.71l2.25,1.79a1.29,1.29,0,0,1,.43,1.37A18.71,18.71,0,0,0,174,373a1.29,1.29,0,0,1-.89,1.13l-2.75.87a1.29,1.29,0,0,0-.87,1.5l1.31,6.15a1.29,1.29,0,0,0,1.41,1l2.86-.32a1.29,1.29,0,0,1,1.27.67,18.7,18.7,0,0,0,1.89,2.76,1.29,1.29,0,0,1,.17,1.42l-1.33,2.55a1.29,1.29,0,0,0,.44,1.68l5.28,3.43a1.29,1.29,0,0,0,1.71-.28l1.79-2.25a1.29,1.29,0,0,1,1.37-.43,18.66,18.66,0,0,0,3.29.61,1.29,1.29,0,0,1,1.13.89l.87,2.75a1.29,1.29,0,0,0,1.5.87l6.15-1.31a1.29,1.29,0,0,0,1-1.41l-.32-2.86a1.29,1.29,0,0,1,.67-1.27,18.67,18.67,0,0,0,2.76-1.89,1.29,1.29,0,0,1,1.42-.17l2.55,1.33a1.29,1.29,0,0,0,1.68-.44l3.43-5.27a1.29,1.29,0,0,0-.28-1.71l-2.25-1.79a1.29,1.29,0,0,1-.43-1.37,18.67,18.67,0,0,0,.61-3.29,1.29,1.29,0,0,1,.89-1.13l2.75-.87A1.29,1.29,0,0,0,216,373l-1.31-6.15A1.29,1.29,0,0,0,213.26,365.86Zm-17.84,21.51a12.9,12.9,0,1,1,9.94-15.3A12.9,12.9,0,0,1,195.42,387.37Z"/><text class="cls-58" transform="translate(248.6 358.57)"><tspan class="cls-87">L<tspan class="cls-64" x="13.78" y="0">e</tspan><tspan class="cls-88" x="27.12" y="0">g</tspan><tspan class="cls-79" x="41.35" y="0">a</tspan><tspan class="cls-66" x="54.69" y="0">c</tspan><tspan class="cls-89" x="68.04" y="0">y</tspan></tspan><tspan class="cls-63" x="0" y="28.8">S</tspan><tspan class="cls-64" x="15.55" y="28.8">e</tspan><tspan class="cls-65" x="28.9" y="28.8">r</tspan><tspan x="37.34" y="28.8">vi</tspan><tspan class="cls-66" x="55.58" y="28.8">c</tspan><tspan class="cls-64" x="68.93" y="28.8">e</tspan><tspan x="82.27" y="28.8">s</tspan></text><rect class="cls-3" x="154.73" y="435.48" width="52.9" height="50.79"/><path class="cls-74" d="M208.92,485.72c0,7-12.35,12.69-27.58,12.69s-27.58-5.68-27.58-12.69"/><path class="cls-67" d="M88.69,495.11c-11-4-17.84-12.5-20.44-16.25-8.3-12-8.65-29.69-.89-45.16l2-3.93,4.46.87a23.3,23.3,0,0,0,8.87,0,23,23,0,0,0,8.1-3.27l3.29-2.15,3.29,2.15a23,23,0,0,0,8.1,3.27,23.31,23.31,0,0,0,8.88,0l4.46-.87,2,3.93c7.76,15.47,7.41,33.2-.89,45.16-2.6,3.74-9.44,12.22-20.44,16.24l-4.05,1.2a4.68,4.68,0,0,1-2.66,0Z"/><text class="cls-90" transform="translate(75.54 455.08)"><tspan class="cls-91">a</tspan><tspan class="cls-92" x="12.38" y="0">b</tspan><tspan x="24.08" y="0">c</tspan><tspan class="cls-93" x="-5.49" y="18.93">c</tspan><tspan class="cls-94" x="5.54" y="18.93">o</tspan><tspan class="cls-95" x="19.16" y="18.93">r</tspan><tspan x="30.09" y="18.93">p</tspan></text><path class="cls-74" d="M87.35,496.45c-11-4-17.84-12.5-20.44-16.25-8.3-12-8.65-29.69-.89-45.16l2-3.93,4.46.87a23.3,23.3,0,0,0,8.87,0,23,23,0,0,0,8.1-3.27l3.29-2.15L96,428.7a23,23,0,0,0,8.1,3.27,23.31,23.31,0,0,0,8.88,0l4.46-.87,2,3.93c7.76,15.47,7.41,33.2-.89,45.16-2.6,3.74-9.44,12.22-20.44,16.24l-4.05,1.2a4.68,4.68,0,0,1-2.66,0Z"/><path class="cls-74" d="M208.8,470.32c0,7-12.35,12.69-27.58,12.69s-27.58-5.68-27.58-12.69"/><path class="cls-74" d="M208.8,454.55c0,7-12.35,12.69-27.58,12.69s-27.58-5.68-27.58-12.69"/><path class="cls-67" d="M154,482c0,7.17,12.35,13,27.58,13s27.58-5.81,27.58-13V470.87c0,7.17-12.35,13-27.58,13S154,478,154,470.87Z"/><path class="cls-67" d="M154,466.07c0,7.17,12.35,13,27.58,13s27.58-5.81,27.58-13V454.92c0,7.17-12.35,13-27.58,13s-27.58-5.81-27.58-13Z"/><path class="cls-67" d="M154,450.77c0,7.17,12.35,13,27.58,13s27.58-5.81,27.58-13V439.63c0,7.17-12.35,13-27.58,13S154,446.8,154,439.63Z"/><ellipse class="cls-96" cx="181.21" cy="438.79" rx="27.58" ry="12.69"/><text class="cls-58" transform="translate(248.6 456.93)"><tspan class="cls-87">L<tspan class="cls-64" x="13.78" y="0">e</tspan><tspan class="cls-88" x="27.12" y="0">g</tspan><tspan class="cls-79" x="41.35" y="0">a</tspan><tspan class="cls-66" x="54.69" y="0">c</tspan><tspan class="cls-89" x="68.04" y="0">y</tspan><tspan class="cls-62" x="80.49" y="0"> </tspan></tspan><tspan class="cls-59" x="0" y="28.8">D</tspan><tspan class="cls-79" x="17.33" y="28.8">a</tspan><tspan class="cls-77" x="30.67" y="28.8">t</tspan><tspan class="cls-79" x="38.66" y="28.8">a</tspan><tspan x="52.01" y="28.8">s</tspan><tspan class="cls-77" x="64.46" y="28.8">t</tspan><tspan class="cls-66" x="72.46" y="28.8">o</tspan><tspan class="cls-97" x="86.69" y="28.8">r</tspan><tspan class="cls-64" x="94.7" y="28.8">e</tspan><tspan x="108.05" y="28.8">s</tspan></text><circle class="cls-67" cx="190" cy="651.73" r="10.62"/><path class="cls-74" d="M173.2,621a1.44,1.44,0,0,1-.48-1.32,10.68,10.68,0,0,0,.13-2.7,1.44,1.44,0,0,1,.6-1.27l2-1.48a1.47,1.47,0,0,0,.44-1.87l-1.35-2.62a1.47,1.47,0,0,0-1.78-.72l-2.42.82a1.49,1.49,0,0,1-1.43-.29,10.72,10.72,0,0,0-2.13-1.37A1.52,1.52,0,0,1,166,607l-.26-2.52a1.47,1.47,0,0,0-1.4-1.32l-2.95-.14a1.47,1.47,0,0,0-1.51,1.18l-.5,2.49a1.52,1.52,0,0,1-1,1.11,10.72,10.72,0,0,0-2.25,1.17,1.49,1.49,0,0,1-1.45.16l-2.33-1a1.47,1.47,0,0,0-1.84.55l-1.59,2.48a1.47,1.47,0,0,0,.27,1.9l1.9,1.67a1.44,1.44,0,0,1,.48,1.32,10.67,10.67,0,0,0-.13,2.7,1.44,1.44,0,0,1-.6,1.27l-2,1.48a1.47,1.47,0,0,0-.44,1.87l1.35,2.62a1.47,1.47,0,0,0,1.78.72l2.42-.82a1.49,1.49,0,0,1,1.43.29,10.72,10.72,0,0,0,2.13,1.37,1.52,1.52,0,0,1,.87,1.2l.26,2.52a1.47,1.47,0,0,0,1.4,1.32l2.95.14a1.47,1.47,0,0,0,1.51-1.18l.5-2.49a1.52,1.52,0,0,1,1-1.11,10.72,10.72,0,0,0,2.25-1.17,1.49,1.49,0,0,1,1.45-.16l2.33,1a1.47,1.47,0,0,0,1.84-.55l1.59-2.48a1.47,1.47,0,0,0-.27-1.9Z"/><circle class="cls-74" cx="162.13" cy="617.84" r="3.77" transform="translate(-462.62 750.89) rotate(-87.32)"/><path class="cls-74" d="M209,640.89l-2.82.32a1.27,1.27,0,0,1-1.25-.66,18.39,18.39,0,0,0-1.86-2.72,1.27,1.27,0,0,1-.17-1.4l1.31-2.51a1.27,1.27,0,0,0-.44-1.65l-5.19-3.37a1.27,1.27,0,0,0-1.69.27l-1.77,2.22a1.27,1.27,0,0,1-1.35.42,18.37,18.37,0,0,0-3.24-.6,1.27,1.27,0,0,1-1.11-.87l-.85-2.7a1.27,1.27,0,0,0-1.48-.86L181,628a1.27,1.27,0,0,0-1,1.39l.32,2.82a1.27,1.27,0,0,1-.66,1.25,18.37,18.37,0,0,0-2.72,1.86,1.27,1.27,0,0,1-1.4.17l-2.51-1.31a1.27,1.27,0,0,0-1.65.44l-3.37,5.2a1.27,1.27,0,0,0,.27,1.69l2.22,1.77a1.27,1.27,0,0,1,.42,1.35,18.42,18.42,0,0,0-.6,3.24,1.27,1.27,0,0,1-.87,1.11l-2.7.85a1.27,1.27,0,0,0-.86,1.48l1.29,6.06a1.27,1.27,0,0,0,1.39,1l2.82-.32a1.27,1.27,0,0,1,1.25.66,18.41,18.41,0,0,0,1.87,2.72,1.27,1.27,0,0,1,.17,1.4l-1.31,2.51a1.27,1.27,0,0,0,.44,1.65l5.2,3.37a1.27,1.27,0,0,0,1.69-.27l1.77-2.22a1.27,1.27,0,0,1,1.35-.42,18.38,18.38,0,0,0,3.24.6,1.27,1.27,0,0,1,1.11.87l.85,2.7a1.27,1.27,0,0,0,1.48.86l6.06-1.29a1.27,1.27,0,0,0,1-1.39l-.32-2.82a1.27,1.27,0,0,1,.66-1.25,18.39,18.39,0,0,0,2.72-1.86,1.27,1.27,0,0,1,1.4-.17l2.51,1.31a1.27,1.27,0,0,0,1.65-.44l3.37-5.19a1.27,1.27,0,0,0-.27-1.69L207,656a1.27,1.27,0,0,1-.42-1.35,18.38,18.38,0,0,0,.6-3.24,1.27,1.27,0,0,1,.87-1.11l2.7-.86a1.27,1.27,0,0,0,.86-1.48l-1.29-6.06A1.27,1.27,0,0,0,209,640.89Zm-17.57,21.18A12.71,12.71,0,1,1,201.21,647,12.71,12.71,0,0,1,191.42,662.07Z"/><path class="cls-98" d="M78.72,670c0-5.22,7.07-9.34,7.07-9.34l.91,1.1,8.6-4.11,9.07,4.19,1-7.37s5,2.25,6.66,3.86a36,36,0,0,1,5.26,6.92,42.46,42.46,0,0,1,1.52,4.74Z"/><path class="cls-57" d="M119.1,671H78.72a1,1,0,1,1,0-2.05h39c-2.12-6.4-6.21-10.94-11.93-13.25V662a1,1,0,0,1-1.47.93l-8.88-4.24-8.88,4.24a1,1,0,0,1-1.47-.93v-6.34a20,20,0,0,0-11.48,11.77,1,1,0,0,1-1.91-.76,22.29,22.29,0,0,1,14.1-13.45,1,1,0,0,1,1.34,1v6.18L95,656.63a1,1,0,0,1,.88,0l7.85,3.75v-6.15a1,1,0,0,1,1.35-1c7.51,2.47,12.7,8.16,15,16.44a1,1,0,0,1-1,1.3Z"/><path class="cls-57" d="M95.58,647.14a7.52,7.52,0,0,1-4.52-1.65,1,1,0,0,1,1.24-1.64,5,5,0,0,0,6.56,0,1,1,0,1,1,1.24,1.64A7.52,7.52,0,0,1,95.58,647.14Z"/><path class="cls-57" d="M112,658.15a1,1,0,0,1-.91-1.5,38.7,38.7,0,0,0,4.39-15.18c.14-1.95,1-19.25-9.87-27.24a18.27,18.27,0,0,0-9-3.37,17,17,0,0,0-2.62,0,18.42,18.42,0,0,0-9,3.37c-10.92,8-10,25.29-9.87,27.24a38.42,38.42,0,0,0,4.39,15.18,1,1,0,0,1-1.82,1,40.47,40.47,0,0,1-4.62-16c-.15-2.06-1.11-20.4,10.7-29a20.17,20.17,0,0,1,10.08-3.76,18.27,18.27,0,0,1,2.87,0,20.17,20.17,0,0,1,10,3.76c11.8,8.64,10.85,27,10.7,29a40.72,40.72,0,0,1-4.62,16A1,1,0,0,1,112,658.15Z"/><path class="cls-57" d="M95.34,653.06c-4.91-.19-9.54-4.14-12-8a18,18,0,0,1-2.72-9.64,20.86,20.86,0,0,1,3.61-12,1,1,0,0,1,1-.44,1,1,0,0,1,.83.72c.34,1.12.66,2.24,1,3.36.95.12,1.95.22,3,.31a1,1,0,1,1-.17,2c-1.32-.11-2.58-.24-3.76-.41a1,1,0,0,1-.85-.73l-.5-1.73a18.51,18.51,0,0,0-2.09,8.81,16,16,0,0,0,2.4,8.57c2.08,3.27,6.18,6.87,10.25,7,4-.16,8.09-3.75,10.17-7a16,16,0,0,0,2.4-8.57,18.52,18.52,0,0,0-2.09-8.81l-.5,1.74a1,1,0,0,1-.85.73,59.32,59.32,0,0,1-6.42.55,1,1,0,1,1,0-2.05c.82,0,3-.14,5.49-.45q.49-1.68,1-3.36a1,1,0,0,1,1.83-.28,20.86,20.86,0,0,1,3.61,12,18.23,18.23,0,0,1-2.72,9.64C104.8,648.92,100.17,652.88,95.34,653.06Z"/><path class="cls-57" d="M92.78,629.63a1,1,0,0,1-1-1v-1L90.84,629a1,1,0,0,1-1.73-1.1l2.8-4.39a1,1,0,0,1,1.89.55v4.54a1,1,0,0,1-1,1Z"/><text class="cls-58" transform="translate(248.6 632.66)"><tspan class="cls-60">P<tspan class="cls-79" x="16.01" y="0">a</tspan><tspan class="cls-99" x="29.35" y="0">r</tspan><tspan class="cls-77" x="37.8" y="0">t</tspan><tspan class="cls-76" x="45.79" y="0">n</tspan><tspan class="cls-64" x="59.57" y="0">e</tspan><tspan class="cls-99" x="72.91" y="0">r</tspan><tspan class="cls-62" x="81.36" y="0"> </tspan></tspan><tspan class="cls-63" x="0" y="28.8">S</tspan><tspan class="cls-64" x="15.55" y="28.8">e</tspan><tspan class="cls-65" x="28.9" y="28.8">r</tspan><tspan x="37.34" y="28.8">vi</tspan><tspan class="cls-66" x="55.58" y="28.8">c</tspan><tspan class="cls-64" x="68.93" y="28.8">e</tspan><tspan x="82.27" y="28.8">s</tspan></text><circle class="cls-67" cx="193.83" cy="753.47" r="10.86"/><path class="cls-74" d="M176.67,722.08a1.47,1.47,0,0,1-.49-1.35,10.92,10.92,0,0,0,.13-2.76,1.47,1.47,0,0,1,.62-1.3l2.09-1.52a1.51,1.51,0,0,0,.45-1.91l-1.38-2.68a1.51,1.51,0,0,0-1.82-.74l-2.47.84a1.52,1.52,0,0,1-1.46-.3,11,11,0,0,0-2.18-1.4,1.55,1.55,0,0,1-.89-1.22l-.27-2.58a1.51,1.51,0,0,0-1.43-1.35l-3-.14a1.51,1.51,0,0,0-1.55,1.21l-.51,2.54a1.55,1.55,0,0,1-1,1.14,11,11,0,0,0-2.3,1.19,1.52,1.52,0,0,1-1.48.16l-2.38-1.06a1.51,1.51,0,0,0-1.88.56l-1.63,2.54a1.51,1.51,0,0,0,.27,1.95l1.94,1.71a1.47,1.47,0,0,1,.49,1.35,10.9,10.9,0,0,0-.13,2.76,1.47,1.47,0,0,1-.62,1.3l-2.09,1.52a1.51,1.51,0,0,0-.45,1.91l1.38,2.68a1.51,1.51,0,0,0,1.82.74l2.47-.84a1.52,1.52,0,0,1,1.46.3,11,11,0,0,0,2.18,1.4,1.55,1.55,0,0,1,.89,1.22l.27,2.58a1.51,1.51,0,0,0,1.43,1.35l3,.14a1.51,1.51,0,0,0,1.55-1.21l.51-2.54a1.55,1.55,0,0,1,1-1.13,11,11,0,0,0,2.3-1.19,1.52,1.52,0,0,1,1.48-.16l2.38,1.06a1.51,1.51,0,0,0,1.88-.56l1.63-2.54a1.51,1.51,0,0,0-.27-1.95Z"/><circle class="cls-74" cx="165.35" cy="718.84" r="3.85" transform="translate(-560.44 850.38) rotate(-87.32)"/><path class="cls-74" d="M213.24,742.39l-2.88.33a1.3,1.3,0,0,1-1.28-.67,18.8,18.8,0,0,0-1.91-2.78,1.3,1.3,0,0,1-.17-1.43l1.34-2.57a1.3,1.3,0,0,0-.45-1.69l-5.31-3.45a1.3,1.3,0,0,0-1.72.28l-1.8,2.26a1.3,1.3,0,0,1-1.38.43,18.78,18.78,0,0,0-3.31-.61,1.3,1.3,0,0,1-1.13-.89l-.87-2.76a1.3,1.3,0,0,0-1.51-.88l-6.19,1.32a1.3,1.3,0,0,0-1,1.42l.33,2.88a1.3,1.3,0,0,1-.67,1.28,18.77,18.77,0,0,0-2.78,1.91,1.3,1.3,0,0,1-1.43.17l-2.57-1.34a1.3,1.3,0,0,0-1.69.45l-3.45,5.31a1.3,1.3,0,0,0,.28,1.72l2.27,1.8a1.3,1.3,0,0,1,.43,1.38,18.83,18.83,0,0,0-.61,3.31,1.3,1.3,0,0,1-.89,1.13l-2.76.87a1.3,1.3,0,0,0-.88,1.51l1.32,6.19a1.3,1.3,0,0,0,1.42,1l2.88-.33a1.3,1.3,0,0,1,1.28.67,18.82,18.82,0,0,0,1.91,2.78,1.3,1.3,0,0,1,.17,1.43l-1.34,2.57a1.3,1.3,0,0,0,.45,1.69l5.31,3.45a1.3,1.3,0,0,0,1.72-.28l1.8-2.26a1.3,1.3,0,0,1,1.38-.43,18.79,18.79,0,0,0,3.31.61,1.3,1.3,0,0,1,1.13.89l.87,2.76a1.3,1.3,0,0,0,1.51.88l6.19-1.32a1.3,1.3,0,0,0,1-1.42l-.33-2.88a1.3,1.3,0,0,1,.67-1.28,18.79,18.79,0,0,0,2.78-1.91,1.3,1.3,0,0,1,1.43-.17l2.57,1.34a1.3,1.3,0,0,0,1.69-.45l3.45-5.31a1.3,1.3,0,0,0-.28-1.72l-2.26-1.8a1.3,1.3,0,0,1-.43-1.38,18.79,18.79,0,0,0,.61-3.31,1.3,1.3,0,0,1,.89-1.13l2.76-.87a1.3,1.3,0,0,0,.88-1.51l-1.32-6.19A1.3,1.3,0,0,0,213.24,742.39Zm-18,21.65a13,13,0,1,1,10-15.41A13,13,0,0,1,195.29,764Z"/><path class="cls-67" d="M75.89,737.39s2.81,4.52,6.79,4.52,5.46-1,5.46-1S85.74,730.26,75.89,737.39Z"/><path class="cls-67" d="M108.76,737.39s2.81,4.52,6.79,4.52,5.46-1,5.46-1S118.61,730.26,108.76,737.39Z"/><path class="cls-67" d="M91.8,710.89s2.81,4.52,6.79,4.52,5.46-1,5.46-1S101.64,703.75,91.8,710.89Z"/><path class="cls-100" d="M68.55,771.88v-8.51a12.78,12.78,0,0,1,4.61-9.8"/><path class="cls-100" d="M89.48,753.57a12.78,12.78,0,0,1,4.61,9.8v8.51"/><path class="cls-100" d="M101.18,771.88v-8.51a12.78,12.78,0,0,1,4.61-9.8"/><path class="cls-100" d="M122.11,753.57a12.78,12.78,0,0,1,4.61,9.8v8.51"/><path class="cls-100" d="M78.13,739.72a8.55,8.55,0,0,0,10,1.18"/><ellipse class="cls-100" cx="81.32" cy="744.22" rx="7.09" ry="9.22"/><line class="cls-100" x1="74.23" y1="763.37" x2="74.23" y2="771.88"/><line class="cls-100" x1="88.41" y1="763.37" x2="88.41" y2="771.88"/><ellipse class="cls-100" cx="113.95" cy="744.22" rx="7.09" ry="9.22"/><path class="cls-100" d="M110.76,739.72a8.55,8.55,0,0,0,10,1.18"/><line class="cls-100" x1="106.86" y1="763.37" x2="106.86" y2="771.88"/><line class="cls-100" x1="121.05" y1="763.37" x2="121.05" y2="771.88"/><ellipse class="cls-100" cx="96.93" cy="717.26" rx="7.09" ry="9.22"/><path class="cls-100" d="M105.09,726.61a13,13,0,0,1,3.12,3.86"/><path class="cls-100" d="M85.65,730.47a13,13,0,0,1,3.12-3.86"/><path class="cls-100" d="M93.73,712.77a8.55,8.55,0,0,0,10,1.18"/><text class="cls-58" transform="translate(248.6 734.1)"><tspan class="cls-60">P</tspan><tspan class="cls-63" x="16.01" y="0">u</tspan><tspan class="cls-101" x="29.78" y="0">b</tspan><tspan class="cls-80" x="44.45" y="0">l</tspan><tspan x="50.23" y="0">i</tspan><tspan class="cls-66" x="56.02" y="0">c</tspan><tspan class="cls-63" x="0" y="28.8">S</tspan><tspan class="cls-64" x="15.55" y="28.8">e</tspan><tspan class="cls-65" x="28.9" y="28.8">r</tspan><tspan x="37.34" y="28.8">vi</tspan><tspan class="cls-66" x="55.58" y="28.8">c</tspan><tspan class="cls-64" x="68.93" y="28.8">e</tspan><tspan x="82.27" y="28.8">s</tspan></text><text class="cls-4" transform="translate(98.96 260.09)">P<tspan class="cls-15" x="19.38" y="0">U</tspan><tspan class="cls-102" x="40.82" y="0">B</tspan><tspan class="cls-13" x="61.24" y="0">L</tspan><tspan class="cls-6" x="78.54" y="0">I</tspan><tspan class="cls-103" x="87.5" y="0">C</tspan><tspan class="cls-104" x="108.95" y="0"> </tspan><tspan class="cls-12" x="117.43" y="0">C</tspan><tspan class="cls-105" x="138.88" y="0">L</tspan><tspan class="cls-14" x="156.18" y="0">O</tspan><tspan class="cls-106" x="178.67" y="0">U</tspan><tspan class="cls-107" x="200.11" y="0">D</tspan></text><polyline class="cls-108" points="406.09 136.1 446.59 136.1 446.59 417.33"/><polyline class="cls-108" points="406.09 704.09 446.59 704.09 446.59 423"/><line class="cls-109" x1="543.47" y1="420" x2="406.73" y2="420"/><rect class="cls-3" x="509.79" y="80.6" width="217.49" height="523.47" rx="17.89" ry="17.89"/><path class="cls-110" d="M678.61,161.69a24.6,24.6,0,0,0-5.28.58h0c-2.45-21.21-18.52-37.59-38.05-37.59-12.89,0-24.23,7.13-31.21,18.08a26.68,26.68,0,0,0-12.72-3.25c-15.94,0-28.92,14.19-29.56,31.93a20.39,20.39,0,0,0-7.11-1.25c-13.09,0-23.69,11.93-23.69,26.65a22.7,22.7,0,0,0,.27,3.74v0c1.61,12.91,11.48,22.84,23.42,22.84H678.61c15.16,0,27.46-13.83,27.46-30.88S693.78,161.69,678.61,161.69Z"/><path class="cls-3" d="M627.36,179.37a2.07,2.07,0,0,1-.69-1.9,15.32,15.32,0,0,0,.18-3.87,2.07,2.07,0,0,1,.87-1.82l2.94-2.13a2.11,2.11,0,0,0,.64-2.68l-1.94-3.76a2.11,2.11,0,0,0-2.56-1l-3.47,1.17a2.14,2.14,0,0,1-2-.42,15.38,15.38,0,0,0-3.06-2,2.18,2.18,0,0,1-1.25-1.72l-.38-3.62a2.11,2.11,0,0,0-2-1.89l-4.23-.2a2.11,2.11,0,0,0-2.17,1.7l-.71,3.56a2.18,2.18,0,0,1-1.41,1.59,15.37,15.37,0,0,0-3.23,1.68,2.14,2.14,0,0,1-2.08.23l-3.34-1.49a2.11,2.11,0,0,0-2.64.79l-2.29,3.56a2.11,2.11,0,0,0,.38,2.73l2.72,2.39a2.07,2.07,0,0,1,.69,1.9,15.3,15.3,0,0,0-.18,3.87,2.07,2.07,0,0,1-.87,1.82L592.3,180a2.11,2.11,0,0,0-.64,2.68l1.94,3.76a2.11,2.11,0,0,0,2.56,1l3.47-1.17a2.14,2.14,0,0,1,2,.42,15.37,15.37,0,0,0,3.06,2A2.18,2.18,0,0,1,606,190.4l.38,3.62a2.11,2.11,0,0,0,2,1.89l4.23.2a2.11,2.11,0,0,0,2.17-1.7l.71-3.56a2.18,2.18,0,0,1,1.41-1.59,15.37,15.37,0,0,0,3.23-1.68,2.14,2.14,0,0,1,2.08-.22l3.34,1.49a2.11,2.11,0,0,0,2.64-.79l2.29-3.56a2.11,2.11,0,0,0-.38-2.73Z"/><path class="cls-3" d="M678.67,207.87l-4,.46a1.83,1.83,0,0,1-1.79-.94,26.37,26.37,0,0,0-2.67-3.9,1.82,1.82,0,0,1-.24-2l1.87-3.61a1.82,1.82,0,0,0-.62-2.37l-7.45-4.84a1.82,1.82,0,0,0-2.42.39l-2.53,3.18a1.82,1.82,0,0,1-1.93.6,26.35,26.35,0,0,0-4.65-.86,1.83,1.83,0,0,1-1.59-1.25l-1.23-3.88a1.82,1.82,0,0,0-2.12-1.23l-8.69,1.85a1.82,1.82,0,0,0-1.43,2l.46,4a1.83,1.83,0,0,1-.94,1.79,26.34,26.34,0,0,0-3.9,2.67,1.82,1.82,0,0,1-2,.24l-3.61-1.87a1.82,1.82,0,0,0-2.37.62l-4.84,7.45a1.82,1.82,0,0,0,.39,2.42l3.18,2.53a1.82,1.82,0,0,1,.6,1.93,26.42,26.42,0,0,0-.86,4.65,1.83,1.83,0,0,1-1.25,1.59l-3.88,1.23a1.82,1.82,0,0,0-1.23,2.12l1.85,8.69a1.82,1.82,0,0,0,2,1.43l4-.46a1.83,1.83,0,0,1,1.79.94,26.4,26.4,0,0,0,2.67,3.9,1.82,1.82,0,0,1,.24,2L627.59,243a1.82,1.82,0,0,0,.62,2.37l7.45,4.84a1.82,1.82,0,0,0,2.42-.39l2.53-3.18a1.82,1.82,0,0,1,1.93-.6,26.36,26.36,0,0,0,4.65.86,1.83,1.83,0,0,1,1.59,1.25L650,252a1.82,1.82,0,0,0,2.12,1.23l8.69-1.85a1.82,1.82,0,0,0,1.43-2l-.46-4a1.83,1.83,0,0,1,.94-1.79,26.37,26.37,0,0,0,3.9-2.67,1.82,1.82,0,0,1,2-.24l3.61,1.87a1.82,1.82,0,0,0,2.37-.62l4.84-7.45a1.82,1.82,0,0,0-.39-2.42l-3.18-2.53a1.82,1.82,0,0,1-.6-1.93,26.36,26.36,0,0,0,.86-4.65,1.83,1.83,0,0,1,1.25-1.59l3.88-1.23a1.82,1.82,0,0,0,1.23-2.12l-1.85-8.69A1.82,1.82,0,0,0,678.67,207.87Z"/><path class="cls-67" d="M668,220.37c1.86,6-3.09,12.87-11.05,15.33s-17.61,1.25-17.78-6.42A15.13,15.13,0,0,1,650.23,214C658.19,211.49,666.14,214.37,668,220.37Z"/><path class="cls-100" d="M626.89,179.19a2.07,2.07,0,0,1-.69-1.9,15.32,15.32,0,0,0,.18-3.87,2.07,2.07,0,0,1,.87-1.82l2.94-2.13a2.11,2.11,0,0,0,.64-2.68L628.88,163a2.11,2.11,0,0,0-2.56-1l-3.47,1.17a2.14,2.14,0,0,1-2-.42,15.38,15.38,0,0,0-3.06-2,2.18,2.18,0,0,1-1.25-1.72l-.38-3.62a2.11,2.11,0,0,0-2-1.89l-4.23-.2a2.11,2.11,0,0,0-2.17,1.7l-.71,3.56a2.18,2.18,0,0,1-1.41,1.59,15.37,15.37,0,0,0-3.23,1.68,2.14,2.14,0,0,1-2.08.23l-3.34-1.49a2.11,2.11,0,0,0-2.64.79L592,165a2.11,2.11,0,0,0,.38,2.73l2.72,2.39a2.07,2.07,0,0,1,.69,1.9,15.3,15.3,0,0,0-.18,3.87,2.07,2.07,0,0,1-.87,1.82l-2.94,2.13a2.11,2.11,0,0,0-.64,2.68l1.94,3.76a2.11,2.11,0,0,0,2.56,1l3.47-1.17a2.14,2.14,0,0,1,2,.42,15.37,15.37,0,0,0,3.06,2,2.18,2.18,0,0,1,1.25,1.72l.38,3.62a2.11,2.11,0,0,0,2,1.89l4.23.2a2.11,2.11,0,0,0,2.17-1.7l.71-3.56a2.18,2.18,0,0,1,1.41-1.59,15.37,15.37,0,0,0,3.23-1.68,2.14,2.14,0,0,1,2.08-.22l3.34,1.49a2.11,2.11,0,0,0,2.64-.79l2.29-3.56a2.11,2.11,0,0,0-.38-2.73Z"/><circle class="cls-100" cx="611.01" cy="174.64" r="5.4" transform="translate(407.97 776.81) rotate(-87.32)"/><path class="cls-100" d="M678.2,207.69l-4,.46a1.83,1.83,0,0,1-1.79-.94,26.37,26.37,0,0,0-2.67-3.9,1.82,1.82,0,0,1-.24-2l1.87-3.61a1.82,1.82,0,0,0-.62-2.37l-7.45-4.84a1.82,1.82,0,0,0-2.42.39l-2.53,3.18a1.82,1.82,0,0,1-1.93.6,26.35,26.35,0,0,0-4.65-.86,1.83,1.83,0,0,1-1.59-1.25l-1.23-3.88a1.82,1.82,0,0,0-2.12-1.23l-8.69,1.85a1.82,1.82,0,0,0-1.43,2l.46,4a1.83,1.83,0,0,1-.94,1.79,26.34,26.34,0,0,0-3.9,2.67,1.82,1.82,0,0,1-2,.24l-3.61-1.87a1.82,1.82,0,0,0-2.37.62l-4.84,7.45a1.82,1.82,0,0,0,.39,2.42l3.18,2.53a1.82,1.82,0,0,1,.6,1.93,26.42,26.42,0,0,0-.86,4.65,1.83,1.83,0,0,1-1.25,1.59l-3.88,1.23a1.82,1.82,0,0,0-1.23,2.12l1.85,8.69a1.82,1.82,0,0,0,2,1.43l4-.46a1.83,1.83,0,0,1,1.79.94,26.4,26.4,0,0,0,2.67,3.9,1.82,1.82,0,0,1,.24,2l-1.87,3.61a1.82,1.82,0,0,0,.62,2.37l7.45,4.84a1.82,1.82,0,0,0,2.42-.39l2.53-3.18a1.82,1.82,0,0,1,1.93-.6,26.36,26.36,0,0,0,4.65.86,1.83,1.83,0,0,1,1.59,1.25l1.23,3.88a1.82,1.82,0,0,0,2.12,1.23l8.69-1.85a1.82,1.82,0,0,0,1.43-2l-.46-4a1.83,1.83,0,0,1,.94-1.79,26.37,26.37,0,0,0,3.9-2.67,1.82,1.82,0,0,1,2-.24l3.61,1.87a1.82,1.82,0,0,0,2.37-.62l4.84-7.45a1.82,1.82,0,0,0-.39-2.42l-3.18-2.53a1.82,1.82,0,0,1-.6-1.93,26.36,26.36,0,0,0,.86-4.65,1.83,1.83,0,0,1,1.25-1.59l3.88-1.23a1.82,1.82,0,0,0,1.23-2.12l-1.85-8.69A1.82,1.82,0,0,0,678.2,207.69ZM653,238.07a18.22,18.22,0,1,1,14-21.61A18.22,18.22,0,0,1,653,238.07Z"/><text class="cls-111" transform="translate(554.28 281.14)"><tspan class="cls-112">M</tspan><tspan x="19.32" y="0">i</tspan><tspan class="cls-113" x="24.56" y="0">c</tspan><tspan class="cls-114" x="36.65" y="0">r</tspan><tspan class="cls-115" x="43.91" y="0">o</tspan><tspan x="56.8" y="0">s</tspan><tspan class="cls-116" x="68.08" y="0">e</tspan><tspan class="cls-117" x="80.17" y="0">r</tspan><tspan x="87.82" y="0">vi</tspan><tspan class="cls-113" x="104.34" y="0">c</tspan><tspan class="cls-116" x="116.42" y="0">e</tspan></text><path class="cls-110" d="M678.61,347.69a24.6,24.6,0,0,0-5.28.58h0c-2.45-21.21-18.52-37.59-38.05-37.59-12.89,0-24.23,7.13-31.21,18.08a26.68,26.68,0,0,0-12.72-3.25c-15.94,0-28.92,14.19-29.56,31.93a20.39,20.39,0,0,0-7.11-1.25c-13.09,0-23.69,11.93-23.69,26.65a22.7,22.7,0,0,0,.27,3.74v0c1.61,12.91,11.48,22.84,23.42,22.84H678.61c15.16,0,27.46-13.83,27.46-30.88S693.78,347.69,678.61,347.69Z"/><path class="cls-3" d="M627.36,365.37a2.07,2.07,0,0,1-.69-1.9,15.32,15.32,0,0,0,.18-3.87,2.07,2.07,0,0,1,.87-1.82l2.94-2.13a2.11,2.11,0,0,0,.64-2.68l-1.94-3.76a2.11,2.11,0,0,0-2.56-1l-3.47,1.17a2.14,2.14,0,0,1-2-.42,15.38,15.38,0,0,0-3.06-2,2.18,2.18,0,0,1-1.25-1.72l-.38-3.62a2.11,2.11,0,0,0-2-1.89l-4.23-.2a2.11,2.11,0,0,0-2.17,1.7l-.71,3.56a2.18,2.18,0,0,1-1.41,1.59,15.37,15.37,0,0,0-3.23,1.68,2.14,2.14,0,0,1-2.08.23l-3.34-1.49a2.11,2.11,0,0,0-2.64.79l-2.29,3.56a2.11,2.11,0,0,0,.38,2.73l2.72,2.39a2.07,2.07,0,0,1,.69,1.9,15.3,15.3,0,0,0-.18,3.87,2.07,2.07,0,0,1-.87,1.82L592.3,366a2.11,2.11,0,0,0-.64,2.68l1.94,3.76a2.11,2.11,0,0,0,2.56,1l3.47-1.17a2.14,2.14,0,0,1,2,.42,15.37,15.37,0,0,0,3.06,2A2.18,2.18,0,0,1,606,376.4l.38,3.62a2.11,2.11,0,0,0,2,1.89l4.23.2a2.11,2.11,0,0,0,2.17-1.7l.71-3.56a2.18,2.18,0,0,1,1.41-1.59,15.37,15.37,0,0,0,3.23-1.68,2.14,2.14,0,0,1,2.08-.22l3.34,1.49a2.11,2.11,0,0,0,2.64-.79l2.29-3.56a2.11,2.11,0,0,0-.38-2.73Z"/><path class="cls-3" d="M678.67,393.87l-4,.46a1.83,1.83,0,0,1-1.79-.94,26.37,26.37,0,0,0-2.67-3.9,1.82,1.82,0,0,1-.24-2l1.87-3.61a1.82,1.82,0,0,0-.62-2.37l-7.45-4.84a1.82,1.82,0,0,0-2.42.39l-2.53,3.18a1.82,1.82,0,0,1-1.93.6,26.35,26.35,0,0,0-4.65-.86,1.83,1.83,0,0,1-1.59-1.25l-1.23-3.88a1.82,1.82,0,0,0-2.12-1.23l-8.69,1.85a1.82,1.82,0,0,0-1.43,2l.46,4a1.83,1.83,0,0,1-.94,1.79,26.34,26.34,0,0,0-3.9,2.67,1.82,1.82,0,0,1-2,.24l-3.61-1.87a1.82,1.82,0,0,0-2.37.62l-4.84,7.45a1.82,1.82,0,0,0,.39,2.42l3.18,2.53a1.82,1.82,0,0,1,.6,1.93,26.42,26.42,0,0,0-.86,4.65,1.83,1.83,0,0,1-1.25,1.59l-3.88,1.23a1.82,1.82,0,0,0-1.23,2.12l1.85,8.69a1.82,1.82,0,0,0,2,1.43l4-.46a1.83,1.83,0,0,1,1.79.94,26.4,26.4,0,0,0,2.67,3.9,1.82,1.82,0,0,1,.24,2L627.59,429a1.82,1.82,0,0,0,.62,2.37l7.45,4.84a1.82,1.82,0,0,0,2.42-.39l2.53-3.18a1.82,1.82,0,0,1,1.93-.6,26.36,26.36,0,0,0,4.65.86,1.83,1.83,0,0,1,1.59,1.25L650,438a1.82,1.82,0,0,0,2.12,1.23l8.69-1.85a1.82,1.82,0,0,0,1.43-2l-.46-4a1.83,1.83,0,0,1,.94-1.79,26.37,26.37,0,0,0,3.9-2.67,1.82,1.82,0,0,1,2-.24l3.61,1.87a1.82,1.82,0,0,0,2.37-.62l4.84-7.45a1.82,1.82,0,0,0-.39-2.42l-3.18-2.53a1.82,1.82,0,0,1-.6-1.93,26.36,26.36,0,0,0,.86-4.65,1.83,1.83,0,0,1,1.25-1.59l3.88-1.23a1.82,1.82,0,0,0,1.23-2.12l-1.85-8.69A1.82,1.82,0,0,0,678.67,393.87Z"/><path class="cls-67" d="M668,406.37c1.86,6-3.09,12.87-11.05,15.33s-17.61,1.25-17.78-6.42A15.13,15.13,0,0,1,650.23,400C658.19,397.49,666.14,400.37,668,406.37Z"/><path class="cls-100" d="M626.89,365.19a2.07,2.07,0,0,1-.69-1.9,15.32,15.32,0,0,0,.18-3.87,2.07,2.07,0,0,1,.87-1.82l2.94-2.13a2.11,2.11,0,0,0,.64-2.68L628.88,349a2.11,2.11,0,0,0-2.56-1l-3.47,1.17a2.14,2.14,0,0,1-2-.42,15.38,15.38,0,0,0-3.06-2,2.18,2.18,0,0,1-1.25-1.72l-.38-3.62a2.11,2.11,0,0,0-2-1.89l-4.23-.2a2.11,2.11,0,0,0-2.17,1.7l-.71,3.56a2.18,2.18,0,0,1-1.41,1.59,15.37,15.37,0,0,0-3.23,1.68,2.14,2.14,0,0,1-2.08.23l-3.34-1.49a2.11,2.11,0,0,0-2.64.79L592,351a2.11,2.11,0,0,0,.38,2.73l2.72,2.39a2.07,2.07,0,0,1,.69,1.9,15.3,15.3,0,0,0-.18,3.87,2.07,2.07,0,0,1-.87,1.82l-2.94,2.13a2.11,2.11,0,0,0-.64,2.68l1.94,3.76a2.11,2.11,0,0,0,2.56,1l3.47-1.17a2.14,2.14,0,0,1,2,.42,15.37,15.37,0,0,0,3.06,2,2.18,2.18,0,0,1,1.25,1.72l.38,3.62a2.11,2.11,0,0,0,2,1.89l4.23.2a2.11,2.11,0,0,0,2.17-1.7l.71-3.56a2.18,2.18,0,0,1,1.41-1.59,15.37,15.37,0,0,0,3.23-1.68,2.14,2.14,0,0,1,2.08-.22l3.34,1.49a2.11,2.11,0,0,0,2.64-.79l2.29-3.56a2.11,2.11,0,0,0-.38-2.73Z"/><circle class="cls-100" cx="611.01" cy="360.64" r="5.4" transform="translate(222.18 954.11) rotate(-87.32)"/><path class="cls-100" d="M678.2,393.69l-4,.46a1.83,1.83,0,0,1-1.79-.94,26.37,26.37,0,0,0-2.67-3.9,1.82,1.82,0,0,1-.24-2l1.87-3.61a1.82,1.82,0,0,0-.62-2.37l-7.45-4.84a1.82,1.82,0,0,0-2.42.39l-2.53,3.18a1.82,1.82,0,0,1-1.93.6,26.35,26.35,0,0,0-4.65-.86,1.83,1.83,0,0,1-1.59-1.25l-1.23-3.88a1.82,1.82,0,0,0-2.12-1.23l-8.69,1.85a1.82,1.82,0,0,0-1.43,2l.46,4a1.83,1.83,0,0,1-.94,1.79,26.34,26.34,0,0,0-3.9,2.67,1.82,1.82,0,0,1-2,.24l-3.61-1.87a1.82,1.82,0,0,0-2.37.62l-4.84,7.45a1.82,1.82,0,0,0,.39,2.42l3.18,2.53a1.82,1.82,0,0,1,.6,1.93,26.42,26.42,0,0,0-.86,4.65,1.83,1.83,0,0,1-1.25,1.59l-3.88,1.23a1.82,1.82,0,0,0-1.23,2.12l1.85,8.69a1.82,1.82,0,0,0,2,1.43l4-.46a1.83,1.83,0,0,1,1.79.94,26.4,26.4,0,0,0,2.67,3.9,1.82,1.82,0,0,1,.24,2l-1.87,3.61a1.82,1.82,0,0,0,.62,2.37l7.45,4.84a1.82,1.82,0,0,0,2.42-.39l2.53-3.18a1.82,1.82,0,0,1,1.93-.6,26.36,26.36,0,0,0,4.65.86,1.83,1.83,0,0,1,1.59,1.25l1.23,3.88a1.82,1.82,0,0,0,2.12,1.23l8.69-1.85a1.82,1.82,0,0,0,1.43-2l-.46-4a1.83,1.83,0,0,1,.94-1.79,26.37,26.37,0,0,0,3.9-2.67,1.82,1.82,0,0,1,2-.24l3.61,1.87a1.82,1.82,0,0,0,2.37-.62l4.84-7.45a1.82,1.82,0,0,0-.39-2.42l-3.18-2.53a1.82,1.82,0,0,1-.6-1.93,26.36,26.36,0,0,0,.86-4.65,1.83,1.83,0,0,1,1.25-1.59l3.88-1.23a1.82,1.82,0,0,0,1.23-2.12l-1.85-8.69A1.82,1.82,0,0,0,678.2,393.69ZM653,424.07a18.22,18.22,0,1,1,14-21.61A18.22,18.22,0,0,1,653,424.07Z"/><text class="cls-111" transform="translate(554.28 467.14)"><tspan class="cls-112">M</tspan><tspan x="19.32" y="0">i</tspan><tspan class="cls-113" x="24.56" y="0">c</tspan><tspan class="cls-114" x="36.65" y="0">r</tspan><tspan class="cls-115" x="43.91" y="0">o</tspan><tspan x="56.8" y="0">s</tspan><tspan class="cls-116" x="68.08" y="0">e</tspan><tspan class="cls-117" x="80.17" y="0">r</tspan><tspan x="87.82" y="0">vi</tspan><tspan class="cls-113" x="104.34" y="0">c</tspan><tspan class="cls-116" x="116.42" y="0">e</tspan></text><path class="cls-57" d="M525.93,604.08h185.2c8.92,0,16.15-7.63,16.15-17.05V495.39H509.79V587C509.79,596.44,517,604.08,525.93,604.08Z"/><text class="cls-118" transform="translate(532.4 545.42)"><tspan class="cls-119">C</tspan><tspan class="cls-120" x="21.66" y="0">o</tspan><tspan class="cls-121" x="39.45" y="0">m</tspan><tspan class="cls-122" x="65.55" y="0">p</tspan><tspan class="cls-120" x="83.88" y="0">o</tspan><tspan x="101.67" y="0">s</tspan><tspan class="cls-123" x="117.24" y="0">e</tspan><tspan class="cls-99" x="133.92" y="0">r</tspan><tspan class="cls-62" x="144.48" y="0"> </tspan><tspan class="cls-124" x="152.82" y="0">&amp;</tspan><tspan class="cls-62" x="172.26" y="0"> </tspan><tspan class="cls-125"><tspan x="18.33" y="34">I</tspan><tspan class="cls-126" x="26.67" y="34">n</tspan><tspan class="cls-77" x="43.89" y="34">t</tspan><tspan class="cls-123" x="53.88" y="34">e</tspan><tspan class="cls-127" x="70.56" y="34">g</tspan><tspan class="cls-99" x="88.35" y="34">r</tspan><tspan class="cls-79" x="98.91" y="34">a</tspan><tspan class="cls-77" x="115.59" y="34">t</tspan><tspan class="cls-120" x="125.58" y="34">o</tspan><tspan class="cls-99" x="143.37" y="34">r</tspan></tspan></text><rect class="cls-3" x="751.79" y="80.6" width="217.49" height="523.47" rx="17.89" ry="17.89"/><path class="cls-110" d="M920.61,161.69a24.6,24.6,0,0,0-5.28.58h0c-2.45-21.21-18.52-37.59-38.05-37.59-12.89,0-24.23,7.13-31.21,18.08a26.68,26.68,0,0,0-12.72-3.25c-15.94,0-28.92,14.19-29.56,31.93a20.39,20.39,0,0,0-7.11-1.25c-13.09,0-23.69,11.93-23.69,26.65a22.7,22.7,0,0,0,.27,3.74v0c1.61,12.91,11.48,22.84,23.42,22.84H920.61c15.16,0,27.46-13.83,27.46-30.88S935.78,161.69,920.61,161.69Z"/><path class="cls-3" d="M869.36,179.37a2.07,2.07,0,0,1-.69-1.9,15.32,15.32,0,0,0,.18-3.87,2.07,2.07,0,0,1,.87-1.82l2.94-2.13a2.11,2.11,0,0,0,.64-2.68l-1.94-3.76a2.11,2.11,0,0,0-2.56-1l-3.47,1.17a2.14,2.14,0,0,1-2-.42,15.38,15.38,0,0,0-3.06-2,2.18,2.18,0,0,1-1.25-1.72l-.38-3.62a2.11,2.11,0,0,0-2-1.89l-4.23-.2a2.11,2.11,0,0,0-2.17,1.7l-.71,3.56a2.18,2.18,0,0,1-1.41,1.59,15.37,15.37,0,0,0-3.23,1.68,2.14,2.14,0,0,1-2.08.23l-3.34-1.49a2.11,2.11,0,0,0-2.64.79l-2.29,3.56a2.11,2.11,0,0,0,.38,2.73l2.72,2.39a2.07,2.07,0,0,1,.69,1.9,15.3,15.3,0,0,0-.18,3.87,2.07,2.07,0,0,1-.87,1.82L834.3,180a2.11,2.11,0,0,0-.64,2.68l1.94,3.76a2.11,2.11,0,0,0,2.56,1l3.47-1.17a2.14,2.14,0,0,1,2,.42,15.37,15.37,0,0,0,3.06,2A2.18,2.18,0,0,1,848,190.4l.38,3.62a2.11,2.11,0,0,0,2,1.89l4.23.2a2.11,2.11,0,0,0,2.17-1.7l.71-3.56a2.18,2.18,0,0,1,1.41-1.59,15.37,15.37,0,0,0,3.23-1.68,2.14,2.14,0,0,1,2.08-.22l3.34,1.49a2.11,2.11,0,0,0,2.64-.79l2.29-3.56a2.11,2.11,0,0,0-.38-2.73Z"/><path class="cls-3" d="M920.67,207.87l-4,.46a1.83,1.83,0,0,1-1.79-.94,26.37,26.37,0,0,0-2.67-3.9,1.82,1.82,0,0,1-.24-2l1.87-3.61a1.82,1.82,0,0,0-.62-2.37l-7.45-4.84a1.82,1.82,0,0,0-2.42.39l-2.53,3.18a1.82,1.82,0,0,1-1.93.6,26.35,26.35,0,0,0-4.65-.86,1.83,1.83,0,0,1-1.59-1.25l-1.23-3.88a1.82,1.82,0,0,0-2.12-1.23l-8.69,1.85a1.82,1.82,0,0,0-1.43,2l.46,4a1.83,1.83,0,0,1-.94,1.79,26.34,26.34,0,0,0-3.9,2.67,1.82,1.82,0,0,1-2,.24l-3.61-1.87a1.82,1.82,0,0,0-2.37.62l-4.84,7.45a1.82,1.82,0,0,0,.39,2.42l3.18,2.53a1.82,1.82,0,0,1,.6,1.93,26.42,26.42,0,0,0-.86,4.65,1.83,1.83,0,0,1-1.25,1.59l-3.88,1.23a1.82,1.82,0,0,0-1.23,2.12l1.85,8.69a1.82,1.82,0,0,0,2,1.43l4-.46a1.83,1.83,0,0,1,1.79.94,26.4,26.4,0,0,0,2.67,3.9,1.82,1.82,0,0,1,.24,2L869.59,243a1.82,1.82,0,0,0,.62,2.37l7.45,4.84a1.82,1.82,0,0,0,2.42-.39l2.53-3.18a1.82,1.82,0,0,1,1.93-.6,26.36,26.36,0,0,0,4.65.86,1.83,1.83,0,0,1,1.59,1.25L892,252a1.82,1.82,0,0,0,2.12,1.23l8.69-1.85a1.82,1.82,0,0,0,1.43-2l-.46-4a1.83,1.83,0,0,1,.94-1.79,26.37,26.37,0,0,0,3.9-2.67,1.82,1.82,0,0,1,2-.24l3.61,1.87a1.82,1.82,0,0,0,2.37-.62l4.84-7.45a1.82,1.82,0,0,0-.39-2.42l-3.18-2.53a1.82,1.82,0,0,1-.6-1.93,26.36,26.36,0,0,0,.86-4.65,1.83,1.83,0,0,1,1.25-1.59l3.88-1.23a1.82,1.82,0,0,0,1.23-2.12l-1.85-8.69A1.82,1.82,0,0,0,920.67,207.87Z"/><path class="cls-67" d="M910,220.37c1.86,6-3.09,12.87-11.05,15.33s-17.61,1.25-17.78-6.42A15.13,15.13,0,0,1,892.23,214C900.19,211.49,908.14,214.37,910,220.37Z"/><path class="cls-100" d="M868.89,179.19a2.07,2.07,0,0,1-.69-1.9,15.32,15.32,0,0,0,.18-3.87,2.07,2.07,0,0,1,.87-1.82l2.94-2.13a2.11,2.11,0,0,0,.64-2.68L870.88,163a2.11,2.11,0,0,0-2.56-1l-3.47,1.17a2.14,2.14,0,0,1-2-.42,15.38,15.38,0,0,0-3.06-2,2.18,2.18,0,0,1-1.25-1.72l-.38-3.62a2.11,2.11,0,0,0-2-1.89l-4.23-.2a2.11,2.11,0,0,0-2.17,1.7l-.71,3.56a2.18,2.18,0,0,1-1.41,1.59,15.37,15.37,0,0,0-3.23,1.68,2.14,2.14,0,0,1-2.08.23l-3.34-1.49a2.11,2.11,0,0,0-2.64.79L834,165a2.11,2.11,0,0,0,.38,2.73l2.72,2.39a2.07,2.07,0,0,1,.69,1.9,15.3,15.3,0,0,0-.18,3.87,2.07,2.07,0,0,1-.87,1.82l-2.94,2.13a2.11,2.11,0,0,0-.64,2.68l1.94,3.76a2.11,2.11,0,0,0,2.56,1l3.47-1.17a2.14,2.14,0,0,1,2,.42,15.37,15.37,0,0,0,3.06,2,2.18,2.18,0,0,1,1.25,1.72l.38,3.62a2.11,2.11,0,0,0,2,1.89l4.23.2a2.11,2.11,0,0,0,2.17-1.7l.71-3.56a2.18,2.18,0,0,1,1.41-1.59,15.37,15.37,0,0,0,3.23-1.68,2.14,2.14,0,0,1,2.08-.22l3.34,1.49a2.11,2.11,0,0,0,2.64-.79l2.29-3.56a2.11,2.11,0,0,0-.38-2.73Z"/><circle class="cls-100" cx="853.01" cy="174.64" r="5.4" transform="translate(638.65 1018.55) rotate(-87.32)"/><path class="cls-100" d="M920.2,207.69l-4,.46a1.83,1.83,0,0,1-1.79-.94,26.37,26.37,0,0,0-2.67-3.9,1.82,1.82,0,0,1-.24-2l1.87-3.61a1.82,1.82,0,0,0-.62-2.37l-7.45-4.84a1.82,1.82,0,0,0-2.42.39l-2.53,3.18a1.82,1.82,0,0,1-1.93.6,26.35,26.35,0,0,0-4.65-.86,1.83,1.83,0,0,1-1.59-1.25l-1.23-3.88a1.82,1.82,0,0,0-2.12-1.23l-8.69,1.85a1.82,1.82,0,0,0-1.43,2l.46,4a1.83,1.83,0,0,1-.94,1.79,26.34,26.34,0,0,0-3.9,2.67,1.82,1.82,0,0,1-2,.24l-3.61-1.87a1.82,1.82,0,0,0-2.37.62l-4.84,7.45a1.82,1.82,0,0,0,.39,2.42l3.18,2.53a1.82,1.82,0,0,1,.6,1.93,26.42,26.42,0,0,0-.86,4.65,1.83,1.83,0,0,1-1.25,1.59l-3.88,1.23a1.82,1.82,0,0,0-1.23,2.12l1.85,8.69a1.82,1.82,0,0,0,2,1.43l4-.46a1.83,1.83,0,0,1,1.79.94,26.4,26.4,0,0,0,2.67,3.9,1.82,1.82,0,0,1,.24,2l-1.87,3.61a1.82,1.82,0,0,0,.62,2.37l7.45,4.84a1.82,1.82,0,0,0,2.42-.39l2.53-3.18a1.82,1.82,0,0,1,1.93-.6,26.36,26.36,0,0,0,4.65.86,1.83,1.83,0,0,1,1.59,1.25l1.23,3.88a1.82,1.82,0,0,0,2.12,1.23l8.69-1.85a1.82,1.82,0,0,0,1.43-2l-.46-4a1.83,1.83,0,0,1,.94-1.79,26.37,26.37,0,0,0,3.9-2.67,1.82,1.82,0,0,1,2-.24l3.61,1.87a1.82,1.82,0,0,0,2.37-.62l4.84-7.45a1.82,1.82,0,0,0-.39-2.42l-3.18-2.53a1.82,1.82,0,0,1-.6-1.93,26.36,26.36,0,0,0,.86-4.65,1.83,1.83,0,0,1,1.25-1.59l3.88-1.23a1.82,1.82,0,0,0,1.23-2.12l-1.85-8.69A1.82,1.82,0,0,0,920.2,207.69ZM895,238.07a18.22,18.22,0,1,1,14-21.61A18.22,18.22,0,0,1,895,238.07Z"/><text class="cls-111" transform="translate(796.28 281.14)"><tspan class="cls-112">M</tspan><tspan x="19.32" y="0">i</tspan><tspan class="cls-113" x="24.56" y="0">c</tspan><tspan class="cls-114" x="36.65" y="0">r</tspan><tspan class="cls-115" x="43.91" y="0">o</tspan><tspan x="56.8" y="0">s</tspan><tspan class="cls-116" x="68.08" y="0">e</tspan><tspan class="cls-117" x="80.17" y="0">r</tspan><tspan x="87.82" y="0">vi</tspan><tspan class="cls-113" x="104.34" y="0">c</tspan><tspan class="cls-116" x="116.42" y="0">e</tspan></text><path class="cls-110" d="M920.61,347.69a24.6,24.6,0,0,0-5.28.58h0c-2.45-21.21-18.52-37.59-38.05-37.59-12.89,0-24.23,7.13-31.21,18.08a26.68,26.68,0,0,0-12.72-3.25c-15.94,0-28.92,14.19-29.56,31.93a20.39,20.39,0,0,0-7.11-1.25c-13.09,0-23.69,11.93-23.69,26.65a22.7,22.7,0,0,0,.27,3.74v0c1.61,12.91,11.48,22.84,23.42,22.84H920.61c15.16,0,27.46-13.83,27.46-30.88S935.78,347.69,920.61,347.69Z"/><path class="cls-3" d="M869.36,365.37a2.07,2.07,0,0,1-.69-1.9,15.32,15.32,0,0,0,.18-3.87,2.07,2.07,0,0,1,.87-1.82l2.94-2.13a2.11,2.11,0,0,0,.64-2.68l-1.94-3.76a2.11,2.11,0,0,0-2.56-1l-3.47,1.17a2.14,2.14,0,0,1-2-.42,15.38,15.38,0,0,0-3.06-2,2.18,2.18,0,0,1-1.25-1.72l-.38-3.62a2.11,2.11,0,0,0-2-1.89l-4.23-.2a2.11,2.11,0,0,0-2.17,1.7l-.71,3.56a2.18,2.18,0,0,1-1.41,1.59,15.37,15.37,0,0,0-3.23,1.68,2.14,2.14,0,0,1-2.08.23l-3.34-1.49a2.11,2.11,0,0,0-2.64.79l-2.29,3.56a2.11,2.11,0,0,0,.38,2.73l2.72,2.39a2.07,2.07,0,0,1,.69,1.9,15.3,15.3,0,0,0-.18,3.87,2.07,2.07,0,0,1-.87,1.82L834.3,366a2.11,2.11,0,0,0-.64,2.68l1.94,3.76a2.11,2.11,0,0,0,2.56,1l3.47-1.17a2.14,2.14,0,0,1,2,.42,15.37,15.37,0,0,0,3.06,2A2.18,2.18,0,0,1,848,376.4l.38,3.62a2.11,2.11,0,0,0,2,1.89l4.23.2a2.11,2.11,0,0,0,2.17-1.7l.71-3.56a2.18,2.18,0,0,1,1.41-1.59,15.37,15.37,0,0,0,3.23-1.68,2.14,2.14,0,0,1,2.08-.22l3.34,1.49a2.11,2.11,0,0,0,2.64-.79l2.29-3.56a2.11,2.11,0,0,0-.38-2.73Z"/><path class="cls-3" d="M920.67,393.87l-4,.46a1.83,1.83,0,0,1-1.79-.94,26.37,26.37,0,0,0-2.67-3.9,1.82,1.82,0,0,1-.24-2l1.87-3.61a1.82,1.82,0,0,0-.62-2.37l-7.45-4.84a1.82,1.82,0,0,0-2.42.39l-2.53,3.18a1.82,1.82,0,0,1-1.93.6,26.35,26.35,0,0,0-4.65-.86,1.83,1.83,0,0,1-1.59-1.25l-1.23-3.88a1.82,1.82,0,0,0-2.12-1.23l-8.69,1.85a1.82,1.82,0,0,0-1.43,2l.46,4a1.83,1.83,0,0,1-.94,1.79,26.34,26.34,0,0,0-3.9,2.67,1.82,1.82,0,0,1-2,.24l-3.61-1.87a1.82,1.82,0,0,0-2.37.62l-4.84,7.45a1.82,1.82,0,0,0,.39,2.42l3.18,2.53a1.82,1.82,0,0,1,.6,1.93,26.42,26.42,0,0,0-.86,4.65,1.83,1.83,0,0,1-1.25,1.59l-3.88,1.23a1.82,1.82,0,0,0-1.23,2.12l1.85,8.69a1.82,1.82,0,0,0,2,1.43l4-.46a1.83,1.83,0,0,1,1.79.94,26.4,26.4,0,0,0,2.67,3.9,1.82,1.82,0,0,1,.24,2L869.59,429a1.82,1.82,0,0,0,.62,2.37l7.45,4.84a1.82,1.82,0,0,0,2.42-.39l2.53-3.18a1.82,1.82,0,0,1,1.93-.6,26.36,26.36,0,0,0,4.65.86,1.83,1.83,0,0,1,1.59,1.25L892,438a1.82,1.82,0,0,0,2.12,1.23l8.69-1.85a1.82,1.82,0,0,0,1.43-2l-.46-4a1.83,1.83,0,0,1,.94-1.79,26.37,26.37,0,0,0,3.9-2.67,1.82,1.82,0,0,1,2-.24l3.61,1.87a1.82,1.82,0,0,0,2.37-.62l4.84-7.45a1.82,1.82,0,0,0-.39-2.42l-3.18-2.53a1.82,1.82,0,0,1-.6-1.93,26.36,26.36,0,0,0,.86-4.65,1.83,1.83,0,0,1,1.25-1.59l3.88-1.23a1.82,1.82,0,0,0,1.23-2.12l-1.85-8.69A1.82,1.82,0,0,0,920.67,393.87Z"/><path class="cls-67" d="M910,406.37c1.86,6-3.09,12.87-11.05,15.33s-17.61,1.25-17.78-6.42A15.13,15.13,0,0,1,892.23,400C900.19,397.49,908.14,400.37,910,406.37Z"/><path class="cls-100" d="M868.89,365.19a2.07,2.07,0,0,1-.69-1.9,15.32,15.32,0,0,0,.18-3.87,2.07,2.07,0,0,1,.87-1.82l2.94-2.13a2.11,2.11,0,0,0,.64-2.68L870.88,349a2.11,2.11,0,0,0-2.56-1l-3.47,1.17a2.14,2.14,0,0,1-2-.42,15.38,15.38,0,0,0-3.06-2,2.18,2.18,0,0,1-1.25-1.72l-.38-3.62a2.11,2.11,0,0,0-2-1.89l-4.23-.2a2.11,2.11,0,0,0-2.17,1.7l-.71,3.56a2.18,2.18,0,0,1-1.41,1.59,15.37,15.37,0,0,0-3.23,1.68,2.14,2.14,0,0,1-2.08.23l-3.34-1.49a2.11,2.11,0,0,0-2.64.79L834,351a2.11,2.11,0,0,0,.38,2.73l2.72,2.39a2.07,2.07,0,0,1,.69,1.9,15.3,15.3,0,0,0-.18,3.87,2.07,2.07,0,0,1-.87,1.82l-2.94,2.13a2.11,2.11,0,0,0-.64,2.68l1.94,3.76a2.11,2.11,0,0,0,2.56,1l3.47-1.17a2.14,2.14,0,0,1,2,.42,15.37,15.37,0,0,0,3.06,2,2.18,2.18,0,0,1,1.25,1.72l.38,3.62a2.11,2.11,0,0,0,2,1.89l4.23.2a2.11,2.11,0,0,0,2.17-1.7l.71-3.56a2.18,2.18,0,0,1,1.41-1.59,15.37,15.37,0,0,0,3.23-1.68,2.14,2.14,0,0,1,2.08-.22l3.34,1.49a2.11,2.11,0,0,0,2.64-.79l2.29-3.56a2.11,2.11,0,0,0-.38-2.73Z"/><circle class="cls-100" cx="853.01" cy="360.64" r="5.4" transform="translate(452.86 1195.85) rotate(-87.32)"/><path class="cls-100" d="M920.2,393.69l-4,.46a1.83,1.83,0,0,1-1.79-.94,26.37,26.37,0,0,0-2.67-3.9,1.82,1.82,0,0,1-.24-2l1.87-3.61a1.82,1.82,0,0,0-.62-2.37l-7.45-4.84a1.82,1.82,0,0,0-2.42.39l-2.53,3.18a1.82,1.82,0,0,1-1.93.6,26.35,26.35,0,0,0-4.65-.86,1.83,1.83,0,0,1-1.59-1.25l-1.23-3.88a1.82,1.82,0,0,0-2.12-1.23l-8.69,1.85a1.82,1.82,0,0,0-1.43,2l.46,4a1.83,1.83,0,0,1-.94,1.79,26.34,26.34,0,0,0-3.9,2.67,1.82,1.82,0,0,1-2,.24l-3.61-1.87a1.82,1.82,0,0,0-2.37.62l-4.84,7.45a1.82,1.82,0,0,0,.39,2.42l3.18,2.53a1.82,1.82,0,0,1,.6,1.93,26.42,26.42,0,0,0-.86,4.65,1.83,1.83,0,0,1-1.25,1.59l-3.88,1.23a1.82,1.82,0,0,0-1.23,2.12l1.85,8.69a1.82,1.82,0,0,0,2,1.43l4-.46a1.83,1.83,0,0,1,1.79.94,26.4,26.4,0,0,0,2.67,3.9,1.82,1.82,0,0,1,.24,2l-1.87,3.61a1.82,1.82,0,0,0,.62,2.37l7.45,4.84a1.82,1.82,0,0,0,2.42-.39l2.53-3.18a1.82,1.82,0,0,1,1.93-.6,26.36,26.36,0,0,0,4.65.86,1.83,1.83,0,0,1,1.59,1.25l1.23,3.88a1.82,1.82,0,0,0,2.12,1.23l8.69-1.85a1.82,1.82,0,0,0,1.43-2l-.46-4a1.83,1.83,0,0,1,.94-1.79,26.37,26.37,0,0,0,3.9-2.67,1.82,1.82,0,0,1,2-.24l3.61,1.87a1.82,1.82,0,0,0,2.37-.62l4.84-7.45a1.82,1.82,0,0,0-.39-2.42l-3.18-2.53a1.82,1.82,0,0,1-.6-1.93,26.36,26.36,0,0,0,.86-4.65,1.83,1.83,0,0,1,1.25-1.59l3.88-1.23a1.82,1.82,0,0,0,1.23-2.12l-1.85-8.69A1.82,1.82,0,0,0,920.2,393.69ZM895,424.07a18.22,18.22,0,1,1,14-21.61A18.22,18.22,0,0,1,895,424.07Z"/><text class="cls-111" transform="translate(796.28 467.14)"><tspan class="cls-112">M</tspan><tspan x="19.32" y="0">i</tspan><tspan class="cls-113" x="24.56" y="0">c</tspan><tspan class="cls-114" x="36.65" y="0">r</tspan><tspan class="cls-115" x="43.91" y="0">o</tspan><tspan x="56.8" y="0">s</tspan><tspan class="cls-116" x="68.08" y="0">e</tspan><tspan class="cls-117" x="80.17" y="0">r</tspan><tspan x="87.82" y="0">vi</tspan><tspan class="cls-113" x="104.34" y="0">c</tspan><tspan class="cls-116" x="116.42" y="0">e</tspan></text><path class="cls-57" d="M767.93,604.08h185.2c8.92,0,16.15-7.63,16.15-17.05V495.39H751.79V587C751.79,596.44,759,604.08,767.93,604.08Z"/><text class="cls-118" transform="translate(788.26 562.42)"><tspan class="cls-128">S</tspan><tspan class="cls-123" x="19.44" y="0">e</tspan><tspan class="cls-99" x="36.12" y="0">r</tspan><tspan x="46.68" y="0">v</tspan><tspan class="cls-123" x="62.25" y="0">e</tspan><tspan class="cls-99" x="78.93" y="0">r</tspan><tspan class="cls-129" x="89.49" y="0">l</tspan><tspan class="cls-123" x="96.72" y="0">e</tspan><tspan x="113.4" y="0">ss</tspan></text><rect class="cls-3" x="992.79" y="80.6" width="217.49" height="523.47" rx="17.89" ry="17.89"/><path class="cls-57" d="M1008.93,604.08h185.2c8.92,0,16.15-7.63,16.15-17.05V495.39H992.79V587C992.79,596.44,1000,604.08,1008.93,604.08Z"/><text class="cls-118" transform="translate(1045.94 545.42)"><tspan class="cls-130">E</tspan><tspan class="cls-131" x="18.9" y="0">x</tspan><tspan class="cls-122" x="35.01" y="0">p</tspan><tspan class="cls-132" x="53.34" y="0">r</tspan><tspan class="cls-123" x="63.36" y="0">e</tspan><tspan x="80.04" y="0">ss</tspan><tspan class="cls-62" x="111.18" y="0" xml:space="preserve"> </tspan><tspan class="cls-133"><tspan x="-5.26" y="34">G</tspan><tspan class="cls-79" x="17.5" y="34">a</tspan><tspan class="cls-77" x="34.18" y="34">t</tspan><tspan class="cls-123" x="44.17" y="34">e</tspan><tspan class="cls-134" x="60.85" y="34">w</tspan><tspan class="cls-79" x="84.19" y="34">a</tspan><tspan class="cls-135" x="100.87" y="34">y</tspan></tspan></text><path class="cls-136" d="M1179.22,299.77l-3.9,6.75c-12,5.48-23.78,9.36-36.34,6.17-10.21-2.59-16.54-6.38-25.3-11.63-2.32-1.39-4.79-2.87-7.54-4.45,26.07-8.84,51.27-5.4,73.74,1a10.45,10.45,0,0,0-.22-5.4c-24.08-6.69-51.2-9.86-79.42,1.08-1.16-.63-2.35-1.27-3.61-1.93-2.25-1.18-4.57-2.45-6.93-3.74-5.47-3-11.22-6.13-17.2-8.77l4.78-3.13c14.29-9.42,25.6-16.86,45-16.21,23.42.79,40.25,13,53.12,24.78l3.81,6.6A8.86,8.86,0,0,1,1179.22,299.77ZM1067.6,276.86c2.52-1.61,4.94-3.19,7.29-4.74,14.94-9.84,26.72-17.64,47.55-16.92,19.51.66,34.52,8.66,46.55,18l-24.68-42.75a8.86,8.86,0,0,0-7.67-4.43h-69.83a8.86,8.86,0,0,0-7.67,4.43l-25.26,43.76A54.68,54.68,0,0,1,1040,273C1049.61,271.58,1058.84,273.53,1067.6,276.86Zm-27,.39a46.39,46.39,0,0,0-10,2.49l-6.45,11.17a8.84,8.84,0,0,0-.91,2.28,97.94,97.94,0,0,0,38.9-13l.7-.43C1055.67,277.39,1048.21,276.15,1040.62,277.24Zm97.3,39.65c-10.82-2.74-17.38-6.67-26.46-12.11-3.15-1.89-6.61-4-10.64-6.21l-5.5,2.2c-16.23,6.53-32.89,13.22-49.6,13.22a56.09,56.09,0,0,1-14.37-1.84l-3.95-6.84a31.54,31.54,0,0,0,4.37,1.67c20.14,5.71,41.23-2.76,61.63-11l1.55-.62-.34-.18c-2.28-1.19-4.61-2.47-7-3.78a192.63,192.63,0,0,0-19.55-9.74c-1.18.74-2.39,1.49-3.64,2.24a102.59,102.59,0,0,1-41.13,13.61,8.85,8.85,0,0,0,.9,2.23l34.92,60.48a8.86,8.86,0,0,0,7.67,4.43h69.83a8.86,8.86,0,0,0,7.67-4.43l27.4-47.45c-7.62,3.1-15.43,5.36-23.53,5.36A41.59,41.59,0,0,1,1137.91,316.89Z"/><path class="cls-137" d="M1093.41,296c-20.4,8.2-41.5,16.68-61.63,11a31.54,31.54,0,0,1-4.37-1.67l3.95,6.84a56.09,56.09,0,0,0,14.37,1.84c16.71,0,33.37-6.7,49.6-13.22l5.5-2.2c-1.82-1-3.76-2.08-5.86-3.18Z"/><path class="cls-137" d="M1179.88,297.62a10.45,10.45,0,0,0-.22-5.4c-24.08-6.69-51.2-9.86-79.42,1.08q3.16,1.72,5.9,3.3C1132.21,287.77,1157.41,291.21,1179.88,297.62Z"/><path class="cls-137" d="M1099.59,293.55,1095,295.4c2.09,1.1,4,2.16,5.86,3.18l.65-.26c1.56-.62,3.12-1.17,4.68-1.7q-2.74-1.58-5.9-3.3Z"/><rect class="cls-57" x="1289.46" y="190.71" width="234.64" height="160.63"/><rect class="cls-3" x="1295" y="195.11" width="223.57" height="140.57" rx="3.96" ry="3.96"/><rect class="cls-57" x="1267.88" y="266.31" width="123.06" height="189.18" transform="translate(2658.81 721.8) rotate(-180)"/><rect class="cls-3" x="1272.25" y="271.5" width="114.3" height="168.67" rx="2.94" ry="2.94" transform="translate(2658.81 711.67) rotate(-180)"/><path class="cls-3" d="M1329.4,444.48a3.55,3.55,0,1,1-3.55,3.55,3.55,3.55,0,0,1,3.55-3.55m0-.5a4,4,0,1,0,4,4,4,4,0,0,0-4-4Z"/><rect class="cls-57" x="1357.16" y="401.84" width="70.29" height="127.24"/><rect class="cls-3" x="1361.68" y="406.66" width="61.27" height="100.86" rx="4.36" ry="4.36"/><path class="cls-3" d="M1392.31,512.19a5.7,5.7,0,1,1-5.7,5.7,5.71,5.71,0,0,1,5.7-5.7m0-1a6.7,6.7,0,1,0,6.7,6.7,6.7,6.7,0,0,0-6.7-6.7Z"/><path class="cls-100" d="M1490.13,422.63c-16.66,0-30.16,18.06-30.16,40.34s13.5,40.34,30.16,40.34"/><ellipse class="cls-100" cx="1470.65" cy="463.31" rx="30.16" ry="41.54"/><path class="cls-57" d="M1470.65,504.85h23.81c16.66,0,30.16-18.6,30.16-41.54s-13.5-41.54-30.16-41.54h-23.81c16.66,0,30.16,18.6,30.16,41.54s-13.5,41.54-30.16,41.54"/><rect class="cls-57" x="1494.67" y="444.85" width="32.23" height="43.42" rx="6.83" ry="6.83" transform="translate(3021.57 933.11) rotate(-180)"/><path class="cls-3" d="M1498,472.17v8.16c0,2.31,1.32,4.17,3,4.17h19.73c1.63,0,3-1.87,3-4.17V452.44c0-2.31-1.32-4.17-3-4.17h-19.73c-1.63,0-3,1.87-3,4.17v19.73Z"/><path class="cls-138" d="M1234.55,343.23s61.1,7.37,94.6-28.24c24.53-26.07,28.19-65.64,28.38-85"/><polygon class="cls-139" points="1374.84 249.57 1357.53 232.98 1340.94 250.3 1340.63 235.91 1357.22 218.59 1374.53 235.18 1374.84 249.57"/><path class="cls-138" d="M1234.55,363.22s63.83-5.76,98,32.31"/><polygon class="cls-139" points="1306.88 390.32 1330.69 393.25 1333.6 369.45 1342.46 380.79 1339.54 404.59 1315.75 401.66 1306.88 390.32"/><path class="cls-138" d="M1288.55,353.59s103.05-15.53,105.1,104.06"/><polygon class="cls-139" points="1376.82 437.61 1393.65 454.7 1410.73 437.86 1410.62 452.26 1393.54 469.08 1376.72 452 1376.82 437.61"/><path class="cls-138" d="M1327.54,340.09c61.36,0,172.54-76.85,176.88,60.57"/><polygon class="cls-139" points="1487.13 380.99 1504.33 397.7 1521.04 380.5 1521.24 394.89 1504.54 412.09 1487.34 395.38 1487.13 380.99"/><rect class="cls-3" x="67.78" y="58.45" width="47.75" height="47.83"/><path class="cls-74" d="M116.69,105.77c0,6.6-11.15,12-24.9,12s-24.9-5.35-24.9-12"/><path class="cls-74" d="M116.58,91.27c0,6.6-11.15,12-24.9,12s-24.9-5.35-24.9-12"/><path class="cls-74" d="M116.58,76.42c0,6.6-11.15,12-24.9,12s-24.9-5.35-24.9-12"/><path class="cls-67" d="M67.08,102.28c0,6.75,11.15,12.22,24.9,12.22s24.9-5.47,24.9-12.22V91.79c0,6.75-11.15,12.22-24.9,12.22s-24.9-5.47-24.9-12.22Z"/><path class="cls-67" d="M67.08,87.26C67.08,94,78.23,99.48,92,99.48s24.9-5.47,24.9-12.22V76.77C116.88,83.51,105.74,89,92,89s-24.9-5.47-24.9-12.22Z"/><path class="cls-67" d="M67.08,72.86c0,6.75,11.15,12.22,24.9,12.22s24.9-5.47,24.9-12.22V62.36c0,6.75-11.15,12.22-24.9,12.22s-24.9-5.47-24.9-12.22Z"/><ellipse class="cls-96" cx="91.68" cy="61.57" rx="24.9" ry="11.96"/><ellipse class="cls-67" cx="190.46" cy="95.84" rx="9.73" ry="10.15"/><path class="cls-74" d="M175.07,66.5a1.41,1.41,0,0,1-.44-1.26,10.64,10.64,0,0,0,.12-2.58,1.4,1.4,0,0,1,.55-1.22L177.17,60a1.45,1.45,0,0,0,.41-1.79l-1.24-2.51a1.33,1.33,0,0,0-1.63-.69l-2.22.78a1.32,1.32,0,0,1-1.31-.28,9.79,9.79,0,0,0-2-1.31,1.45,1.45,0,0,1-.8-1.14l-.24-2.41a1.38,1.38,0,0,0-1.28-1.26l-2.7-.13a1.36,1.36,0,0,0-1.39,1.13l-.45,2.37a1.43,1.43,0,0,1-.9,1.06A9.68,9.68,0,0,0,159.41,55a1.32,1.32,0,0,1-1.33.15l-2.14-1a1.32,1.32,0,0,0-1.69.53L152.8,57a1.45,1.45,0,0,0,.25,1.82l1.74,1.59a1.41,1.41,0,0,1,.44,1.26,10.63,10.63,0,0,0-.12,2.58,1.4,1.4,0,0,1-.55,1.22l-1.88,1.42a1.45,1.45,0,0,0-.41,1.79l1.24,2.51a1.33,1.33,0,0,0,1.63.69l2.22-.78a1.32,1.32,0,0,1,1.31.28,9.78,9.78,0,0,0,2,1.31,1.45,1.45,0,0,1,.8,1.14l.24,2.41a1.38,1.38,0,0,0,1.28,1.26l2.7.13A1.36,1.36,0,0,0,167,76.52l.45-2.37a1.43,1.43,0,0,1,.9-1.06A9.68,9.68,0,0,0,170.45,72a1.32,1.32,0,0,1,1.33-.15l2.14,1a1.32,1.32,0,0,0,1.69-.53l1.46-2.37a1.45,1.45,0,0,0-.25-1.82Z"/><path class="cls-74" d="M164.77,67.06a3.6,3.6,0,1,1,3.61-3.43A3.54,3.54,0,0,1,164.77,67.06Z"/><path class="cls-74" d="M207.84,85.49l-2.58.3a1.15,1.15,0,0,1-1.14-.63,17.62,17.62,0,0,0-1.71-2.6,1.26,1.26,0,0,1-.15-1.34l1.2-2.4a1.24,1.24,0,0,0-.4-1.58L198.3,74a1.13,1.13,0,0,0-1.54.26l-1.62,2.12a1.14,1.14,0,0,1-1.24.4,16.2,16.2,0,0,0-3-.57,1.18,1.18,0,0,1-1-.84l-.78-2.58a1.16,1.16,0,0,0-1.35-.82l-5.55,1.23a1.21,1.21,0,0,0-.91,1.32l.29,2.69a1.23,1.23,0,0,1-.6,1.19,16.82,16.82,0,0,0-2.49,1.78,1.13,1.13,0,0,1-1.28.16l-2.3-1.25a1.14,1.14,0,0,0-1.51.42l-3.09,5a1.25,1.25,0,0,0,.25,1.61l2,1.69a1.25,1.25,0,0,1,.38,1.29,18.29,18.29,0,0,0-.55,3.1,1.21,1.21,0,0,1-.8,1.06l-2.48.82a1.22,1.22,0,0,0-.79,1.41l1.18,5.79a1.17,1.17,0,0,0,1.27,1l2.58-.3a1.15,1.15,0,0,1,1.14.63,17.64,17.64,0,0,0,1.71,2.6,1.26,1.26,0,0,1,.15,1.34l-1.2,2.4a1.24,1.24,0,0,0,.4,1.58l4.76,3.22a1.13,1.13,0,0,0,1.54-.26l1.62-2.12a1.14,1.14,0,0,1,1.24-.4,16.21,16.21,0,0,0,3,.57,1.18,1.18,0,0,1,1,.84l.78,2.58a1.16,1.16,0,0,0,1.35.82l5.55-1.23a1.21,1.21,0,0,0,.91-1.32l-.29-2.69a1.23,1.23,0,0,1,.6-1.19,16.83,16.83,0,0,0,2.49-1.78,1.13,1.13,0,0,1,1.28-.16l2.3,1.25a1.14,1.14,0,0,0,1.51-.42l3.09-5a1.25,1.25,0,0,0-.25-1.61l-2-1.69a1.25,1.25,0,0,1-.38-1.29,18.25,18.25,0,0,0,.55-3.1,1.21,1.21,0,0,1,.8-1.06l2.48-.82a1.22,1.22,0,0,0,.79-1.41l-1.18-5.79A1.17,1.17,0,0,0,207.84,85.49Zm-16.09,20.24A11.65,11.65,0,0,1,178,96.38a12.15,12.15,0,0,1,9-14.4,11.65,11.65,0,0,1,13.8,9.35A12.15,12.15,0,0,1,191.76,105.73Z"/></svg>