<svg id="Layer_1" data-name="Layer 1" xmlns="http://www.w3.org/2000/svg" viewBox="0 0 35.14 31.98"><title>Artboard 1</title><path d="M23.46,0H11.68a5.78,5.78,0,0,0-5,2.89L.77,13.1a5.78,5.78,0,0,0,0,5.78L6.67,29.09a5.78,5.78,0,0,0,5,2.89H23.46a5.78,5.78,0,0,0,5-2.89l5.89-10.21a5.78,5.78,0,0,0,0-5.78L28.47,2.89A5.78,5.78,0,0,0,23.46,0Z" style="fill:#158696"/><polygon points="13.71 2.87 9.45 2.87 7.32 6.57 9.45 10.26 13.71 10.26 15.85 6.57 13.71 2.87" style="fill:#ffc60a"/><rect x="18.58" y="3.15" width="6.84" height="6.84" style="fill:#d8eff4"/><rect x="11.31" y="12.78" width="12.51" height="6.84" style="fill:#04363d"/><circle cx="5.86" cy="16.2" r="3.56" style="fill:#919191"/><rect x="24.31" y="14.11" width="9.26" height="4.17" rx="1.95" ry="1.95" transform="translate(12.74 45.14) rotate(-90)" style="fill:#34bcd2"/><ellipse cx="22.68" cy="26.27" rx="4.65" ry="3.06" style="fill:#74cfe8"/><polygon points="11.71 21.16 13.11 23.97 16.22 24.41 13.98 26.61 14.53 29.7 11.74 28.26 8.97 29.73 9.49 26.64 7.22 24.45 10.33 23.99 11.71 21.16" style="fill:#34a8c4"/></svg>