<svg id="Layer_1" data-name="Layer 1" xmlns="http://www.w3.org/2000/svg" xmlns:xlink="http://www.w3.org/1999/xlink" viewBox="0 0 645.33 422"><defs><linearGradient id="linear-gradient" x1="543.91" y1="156.25" x2="643.7" y2="430.43" gradientUnits="userSpaceOnUse"><stop offset="0.13" stop-color="#3192ac"/><stop offset="0.17" stop-color="#469eb6"/><stop offset="0.26" stop-color="#7dbed1"/><stop offset="0.37" stop-color="#cbebf7"/></linearGradient><clipPath id="clip-path"><path d="M483.95,311.25a.67.67,0,0,1-.23,0,.69.69,0,0,1-.41-.88l3.55-9.87a.68.68,0,0,1,.88-.41.69.69,0,0,1,.41.88l-3.56,9.87a.68.68,0,0,1-.64.45" style="fill:none;clip-rule:evenodd"/></clipPath><clipPath id="clip-path-2"><rect x="-8.12" y="-135.14" width="719.85" height="2683.96" style="fill:none"/></clipPath><clipPath id="clip-path-3"><path d="M481,310.55a.68.68,0,0,1-.52-.24l-3.34-3.93a.75.75,0,0,1,0-1l3.53-3.76a.68.68,0,0,1,1,0,.75.75,0,0,1,0,1l-3.07,3.28,2.91,3.42a.75.75,0,0,1-.06,1,.68.68,0,0,1-.46.18" style="fill:none;clip-rule:evenodd"/></clipPath><clipPath id="clip-path-5"><path d="M490.29,310.55a.68.68,0,0,1-.49-.21.75.75,0,0,1,0-1l3.07-3.27L490,302.62a.75.75,0,0,1,.06-1,.68.68,0,0,1,1,.07l3.34,3.94a.75.75,0,0,1,0,1l-3.53,3.75a.68.68,0,0,1-.5.22" style="fill:none;clip-rule:evenodd"/></clipPath><clipPath id="clip-path-7"><path d="M474.94,293.77c-1.45,1.32-5.1,4.54-6.28,5.59a.47.47,0,0,0,0,.69l5.94,6.14a.49.49,0,0,0,.85-.33c0-2.75.09-9.49.11-11.83a.35.35,0,0,0-.59-.25" style="fill:none;clip-rule:evenodd"/></clipPath><clipPath id="clip-path-9"><path d="M486.28,289.87c-2.25-.09-7-.33-8.57-.41a.51.51,0,0,0-.54.49l-.24,8.84a.52.52,0,0,0,.88.37l8.81-8.43a.5.5,0,0,0-.34-.86" style="fill:none;clip-rule:evenodd"/></clipPath><clipPath id="clip-path-11"><path d="M501.12,306.68c.08-2,.34-7.09.42-8.73a.5.5,0,0,0-.49-.53l-8.84-.23a.51.51,0,0,0-.37.86l8.66,8.87a.36.36,0,0,0,.61-.24" style="fill:none;clip-rule:evenodd"/></clipPath><clipPath id="clip-path-13"><path d="M496.34,318.28c1.45-1.43,5.11-4.93,6.3-6.06a.5.5,0,0,0,0-.72l-6.26-6.24a.51.51,0,0,0-.86.37c0,2.88.17,9.95.21,12.4a.36.36,0,0,0,.61.25" style="fill:none;clip-rule:evenodd"/></clipPath><clipPath id="clip-path-14"><rect x="-1572.13" y="510.44" width="2683.96" height="719.85" transform="translate(-705.08 105.55) rotate(-46.65)" style="fill:none"/></clipPath><clipPath id="clip-path-15"><path d="M485,321.39c2.25.09,7,.33,8.57.41a.51.51,0,0,0,.54-.49l.24-8.83a.52.52,0,0,0-.88-.37l-8.81,8.43a.5.5,0,0,0,.34.86" style="fill:none;clip-rule:evenodd"/></clipPath><clipPath id="clip-path-16"><rect x="-7.62" y="-135.14" width="719.85" height="2683.96" style="fill:none"/></clipPath><clipPath id="clip-path-17"><path d="M474.59,316.29c1.44,1.58,4.45,4.93,5.45,6a.48.48,0,0,0,.7,0l6.22-5.94a.49.49,0,0,0-.33-.85L475,315.47a.49.49,0,0,0-.36.82" style="fill:none;clip-rule:evenodd"/></clipPath><clipPath id="clip-path-18"><rect x="-7.78" y="-135.14" width="719.85" height="2683.96" style="fill:none"/></clipPath><clipPath id="clip-path-19"><path d="M469.6,304.72c-.09,2.25-.32,7-.4,8.56a.51.51,0,0,0,.48.54l9,.25a.37.37,0,0,0,.26-.63l-8.5-9.06a.49.49,0,0,0-.84.34" style="fill:none;clip-rule:evenodd"/></clipPath><clipPath id="clip-path-21"><path d="M497.26,295.32c-1.55-1.63-4.78-5.1-5.86-6.27a.51.51,0,0,0-.73,0l-6.33,6.17a.52.52,0,0,0,.37.88l12.19.1a.5.5,0,0,0,.36-.85" style="fill:none;clip-rule:evenodd"/></clipPath><clipPath id="clip-path-22"><rect x="-1580.42" y="499.02" width="2683.96" height="719.85" transform="translate(-687.98 89.17) rotate(-45.8)" style="fill:none"/></clipPath></defs><title>Artboard 1</title><circle cx="215.51" cy="210" r="202.33" style="fill:#33a8c3;opacity:0.15"/><circle cx="433.49" cy="210" r="202.33" style="fill:#33a8c3;opacity:0.15"/><path d="M98.3,149.84a37.6,37.6,0,0,1,37.41,33.92h.88a30.82,30.82,0,0,1,28.64,19.45,17,17,0,1,1,6.4,32.65H158.86a30.8,30.8,0,0,1-44.53,0H89.69a33.9,33.9,0,1,1-29.85-50h.9A37.59,37.59,0,0,1,98.3,149.84Z" style="fill:#fff;fill-rule:evenodd"/><path d="M515.05,300.85a18.45,18.45,0,0,0-2,.11c-1.47-23.49-30.65-34.07-47.35-15.54,2.42,1.51,4.88,4.16,5.37,6.54-11.5-11.57-33-4.89-33,12.95-35.19,0-35.18,53.44,0,53.45,6.77,0,14.95.07,21.71.07a10.66,10.66,0,0,1-.48-5.91c8.24,19,33.65,22,46,5.85,19.1,0,47.35,4.75,47.35-18.82,0-14-15.63-24.07-27.57-15.78.66-1.77,4.22-5.49,8.65-6.18A18.81,18.81,0,0,0,515.05,300.85Z" style="fill:#fff;fill-rule:evenodd"/><path d="M136,298.85a18.45,18.45,0,0,1,2,.11c1.47-23.49,30.65-34.07,47.35-15.54-2.42,1.51-4.88,4.16-5.37,6.54,11.5-11.57,33-4.89,33,12.95,35.19,0,35.18,53.44,0,53.45-6.77,0-14.95.07-21.71.07a10.66,10.66,0,0,0,.48-5.91c-8.24,19-33.65,22-46,5.85-19.1,0-47.35,4.75-47.35-18.82,0-14,15.63-24.07,27.57-15.78-.66-1.77-4.22-5.49-8.65-6.18A18.81,18.81,0,0,1,136,298.85Z" style="fill:#fff;fill-rule:evenodd"/><path d="M457.76,68.55a18.76,18.76,0,0,1,2,.11c1.49-23.88,31.15-34.64,48.14-15.8-2.46,1.54-5,4.23-5.46,6.65,11.69-11.76,33.52-5,33.52,13.16,35.77,0,35.77,54.33,0,54.33-6.88,0-15.19.07-22.07.07a10.84,10.84,0,0,0,.49-6c-8.37,19.36-34.21,22.4-46.75,5.94-19.42,0-48.13,4.82-48.13-19.13,0-14.28,15.89-24.47,28-16-.67-1.8-4.29-5.58-8.79-6.28A19.12,19.12,0,0,1,457.76,68.55Z" style="fill:#fff;fill-rule:evenodd"/><path d="M197.23,59.89a18.76,18.76,0,0,0-2,.11c-1.49-23.88-31.15-34.64-48.14-15.8,2.46,1.54,5,4.23,5.46,6.65C140.85,39.08,119,45.87,119,64c-35.77,0-35.77,54.33,0,54.33,6.88,0,15.19.07,22.07.07a10.84,10.84,0,0,1-.49-6c8.37,19.36,34.21,22.4,46.75,5.94,19.42,0,48.13,4.82,48.13-19.13,0-14.28-15.89-24.47-28-16,.67-1.8,4.29-5.58,8.79-6.28A19.12,19.12,0,0,0,197.23,59.89Z" style="fill:#fff;fill-rule:evenodd"/><path d="M417.85,210A202.18,202.18,0,0,0,324.5,39.5a202.39,202.39,0,0,0,0,341A202.18,202.18,0,0,0,417.85,210Z" style="fill:#33a8c3"/><path d="M131.83,95.7l-.32-.73-.43-1q-.23-.52-.49-1.06l-.49-1q-.23-.49-.43-.87t-.32-.59q-.13,1.42-.22,3.07T129,96.85h-1.14q0-1.08.11-2.18t.14-2.16q.08-1.06.17-2.07t.2-1.91h1q.32.53.7,1.25t.74,1.51q.37.79.72,1.57l.64,1.43.64-1.43q.35-.79.72-1.57t.74-1.51q.37-.72.7-1.25h1q.41,4,.61,8.32h-1.14q-.06-1.68-.14-3.33t-.22-3.07q-.12.2-.32.59t-.43.87l-.49,1q-.26.55-.49,1.06l-.43,1-.32.73Z" style="fill:#158696"/><path d="M139,89.48a.72.72,0,0,1-.51-.2.78.78,0,0,1,0-1.07.76.76,0,0,1,1,0,.78.78,0,0,1,0,1.07A.72.72,0,0,1,139,89.48Zm.56,7.37h-1.12V90.61h1.12Z" style="fill:#158696"/><path d="M144.22,97a3.39,3.39,0,0,1-1.33-.24,2.66,2.66,0,0,1-1-.67,2.78,2.78,0,0,1-.58-1,4.24,4.24,0,0,1-.19-1.31,4,4,0,0,1,.21-1.32,3.11,3.11,0,0,1,.59-1,2.66,2.66,0,0,1,.94-.68,3,3,0,0,1,1.24-.25,5,5,0,0,1,.84.07,3.93,3.93,0,0,1,.8.23l-.25.95a2.68,2.68,0,0,0-.58-.19,3.27,3.27,0,0,0-.7-.07,1.78,1.78,0,0,0-1.43.59,2.59,2.59,0,0,0-.5,1.72,3.51,3.51,0,0,0,.11.92,1.9,1.9,0,0,0,.36.72,1.61,1.61,0,0,0,.63.46,2.41,2.41,0,0,0,.94.16,3.57,3.57,0,0,0,.8-.08,3,3,0,0,0,.56-.18l.16.94a1.15,1.15,0,0,1-.28.11l-.41.1-.49.07Z" style="fill:#158696"/><path d="M149.39,90.48l.33,0,.37,0,.33.06.22.05-.19,1-.44-.11a3.84,3.84,0,0,0-.79-.07,2.93,2.93,0,0,0-.62.07l-.4.09v5.24h-1.12v-6a7.63,7.63,0,0,1,1-.27A6.32,6.32,0,0,1,149.39,90.48Z" style="fill:#158696"/><path d="M157.23,93.73a4,4,0,0,1-.22,1.34,3.08,3.08,0,0,1-.61,1,2.66,2.66,0,0,1-.93.67,3.07,3.07,0,0,1-2.35,0,2.66,2.66,0,0,1-.93-.67,3.07,3.07,0,0,1-.61-1,4.27,4.27,0,0,1,0-2.68,3.06,3.06,0,0,1,.61-1,2.67,2.67,0,0,1,.93-.67,3.07,3.07,0,0,1,2.35,0,2.67,2.67,0,0,1,.93.67,3.07,3.07,0,0,1,.61,1A4,4,0,0,1,157.23,93.73Zm-1.16,0a2.69,2.69,0,0,0-.47-1.67,1.66,1.66,0,0,0-2.58,0,3.19,3.19,0,0,0,0,3.35,1.66,1.66,0,0,0,2.58,0A2.69,2.69,0,0,0,156.06,93.73Z" style="fill:#158696"/><path d="M160.25,96a2.19,2.19,0,0,0,1-.18.61.61,0,0,0,.33-.58.77.77,0,0,0-.32-.65,5.15,5.15,0,0,0-1.07-.54l-.69-.29a2.42,2.42,0,0,1-.57-.35,1.53,1.53,0,0,1-.38-.49,1.57,1.57,0,0,1-.14-.71,1.59,1.59,0,0,1,.61-1.31,2.61,2.61,0,0,1,1.67-.49l.53,0,.49.07.4.09.27.08-.2,1a2.81,2.81,0,0,0-.56-.2,3.64,3.64,0,0,0-.92-.1,1.71,1.71,0,0,0-.82.19.62.62,0,0,0-.35.58.79.79,0,0,0,.08.36.83.83,0,0,0,.24.28,2,2,0,0,0,.4.23l.58.23q.44.17.79.33a2.48,2.48,0,0,1,.59.38,1.45,1.45,0,0,1,.38.52,1.9,1.9,0,0,1,.13.75,1.49,1.49,0,0,1-.64,1.31,3.2,3.2,0,0,1-1.83.44,4.79,4.79,0,0,1-1.3-.14,6.61,6.61,0,0,1-.64-.21l.2-1,.61.22A3.53,3.53,0,0,0,160.25,96Z" style="fill:#158696"/><path d="M163.8,93.75A4,4,0,0,1,164,92.3a3,3,0,0,1,.64-1,2.59,2.59,0,0,1,.91-.61,2.84,2.84,0,0,1,1.06-.2,2.4,2.4,0,0,1,1.93.79,3.62,3.62,0,0,1,.67,2.39v.19a1.74,1.74,0,0,1,0,.21H165a2.28,2.28,0,0,0,.56,1.48,2.06,2.06,0,0,0,1.54.5,4.1,4.1,0,0,0,1-.1,3.53,3.53,0,0,0,.61-.2l.16.94a3.28,3.28,0,0,1-.71.23,5.07,5.07,0,0,1-1.16.12,3.67,3.67,0,0,1-1.41-.25,2.63,2.63,0,0,1-1-.68,2.76,2.76,0,0,1-.57-1A4.34,4.34,0,0,1,163.8,93.75Zm4.28-.61a1.87,1.87,0,0,0-.38-1.24,1.3,1.3,0,0,0-1.07-.49,1.47,1.47,0,0,0-.68.15,1.6,1.6,0,0,0-.5.39,1.79,1.79,0,0,0-.32.55,2.74,2.74,0,0,0-.15.64Z" style="fill:#158696"/><path d="M173.16,90.48l.33,0,.37,0,.33.06.22.05-.19,1-.44-.11a3.84,3.84,0,0,0-.79-.07,2.93,2.93,0,0,0-.62.07l-.4.09v5.24h-1.12v-6a7.63,7.63,0,0,1,1-.27A6.32,6.32,0,0,1,173.16,90.48Z" style="fill:#158696"/><path d="M180.62,90.61a31.47,31.47,0,0,1-1.1,3.36q-.63,1.61-1.22,2.88h-1q-.59-1.27-1.22-2.88a31.47,31.47,0,0,1-1.1-3.36h1.2q.14.59.34,1.25t.42,1.32q.22.65.45,1.27t.43,1.09q.2-.48.43-1.09t.45-1.27q.22-.65.42-1.32t.34-1.25Z" style="fill:#158696"/><path d="M182.32,89.48a.72.72,0,0,1-.51-.2.78.78,0,0,1,0-1.07.76.76,0,0,1,1,0,.78.78,0,0,1,0,1.07A.72.72,0,0,1,182.32,89.48Zm.56,7.37h-1.12V90.61h1.12Z" style="fill:#158696"/><path d="M187.52,97a3.39,3.39,0,0,1-1.33-.24,2.66,2.66,0,0,1-1-.67,2.78,2.78,0,0,1-.58-1,4.24,4.24,0,0,1-.19-1.31,4,4,0,0,1,.21-1.32,3.11,3.11,0,0,1,.59-1,2.66,2.66,0,0,1,.94-.68,3,3,0,0,1,1.24-.25,5,5,0,0,1,.84.07,3.93,3.93,0,0,1,.8.23l-.25.95a2.68,2.68,0,0,0-.58-.19,3.27,3.27,0,0,0-.7-.07,1.78,1.78,0,0,0-1.43.59,2.59,2.59,0,0,0-.5,1.72,3.51,3.51,0,0,0,.11.92,1.9,1.9,0,0,0,.36.72,1.61,1.61,0,0,0,.63.46,2.41,2.41,0,0,0,.94.16,3.57,3.57,0,0,0,.8-.08,3,3,0,0,0,.56-.18l.16.94a1.15,1.15,0,0,1-.28.11l-.41.1L188,97Z" style="fill:#158696"/><path d="M190,93.75a4,4,0,0,1,.24-1.45,3,3,0,0,1,.64-1,2.59,2.59,0,0,1,.91-.61,2.84,2.84,0,0,1,1.06-.2,2.4,2.4,0,0,1,1.93.79,3.62,3.62,0,0,1,.67,2.39v.19a1.74,1.74,0,0,1,0,.21H191.2a2.28,2.28,0,0,0,.56,1.48,2.06,2.06,0,0,0,1.54.5,4.1,4.1,0,0,0,1-.1,3.56,3.56,0,0,0,.61-.2l.16.94a3.28,3.28,0,0,1-.71.23,5.07,5.07,0,0,1-1.16.12,3.67,3.67,0,0,1-1.41-.25,2.63,2.63,0,0,1-1-.68,2.76,2.76,0,0,1-.57-1A4.34,4.34,0,0,1,190,93.75Zm4.28-.61a1.87,1.87,0,0,0-.38-1.24,1.3,1.3,0,0,0-1.07-.49,1.47,1.47,0,0,0-.68.15,1.6,1.6,0,0,0-.5.39,1.79,1.79,0,0,0-.32.55,2.74,2.74,0,0,0-.15.64Z" style="fill:#158696"/><path d="M131.69,111.43a4.26,4.26,0,0,1-1.6-.29,3.4,3.4,0,0,1-1.24-.84,3.79,3.79,0,0,1-.8-1.36,5.62,5.62,0,0,1-.28-1.85,5,5,0,0,1,.32-1.85,4,4,0,0,1,.86-1.36,3.63,3.63,0,0,1,1.26-.84,4.1,4.1,0,0,1,1.54-.29,5.48,5.48,0,0,1,.93.07,5.67,5.67,0,0,1,.72.17,3.44,3.44,0,0,1,.5.19l.26.14-.34,1a1.91,1.91,0,0,0-.31-.16L133,104a4.17,4.17,0,0,0-.56-.14,3.53,3.53,0,0,0-.62-.05,3,3,0,0,0-1.19.23,2.45,2.45,0,0,0-.9.66,3,3,0,0,0-.57,1.05,4.54,4.54,0,0,0-.2,1.39,4.94,4.94,0,0,0,.17,1.36,3,3,0,0,0,.52,1.05,2.34,2.34,0,0,0,.87.68,2.89,2.89,0,0,0,1.22.24,4.47,4.47,0,0,0,1.33-.17,5.83,5.83,0,0,0,.79-.3l.3,1a1.66,1.66,0,0,1-.3.15,4.11,4.11,0,0,1-.54.17,6.88,6.88,0,0,1-1.69.2Z" style="fill:#158696"/><path d="M140.81,108.13a4,4,0,0,1-.22,1.34,3.08,3.08,0,0,1-.61,1,2.66,2.66,0,0,1-.93.67,3.07,3.07,0,0,1-2.35,0,2.66,2.66,0,0,1-.93-.67,3.07,3.07,0,0,1-.61-1,4.27,4.27,0,0,1,0-2.68,3.06,3.06,0,0,1,.61-1,2.67,2.67,0,0,1,.93-.67,3.07,3.07,0,0,1,2.35,0,2.67,2.67,0,0,1,.93.67,3.07,3.07,0,0,1,.61,1A4,4,0,0,1,140.81,108.13Zm-1.16,0a2.69,2.69,0,0,0-.47-1.67,1.66,1.66,0,0,0-2.58,0,3.19,3.19,0,0,0,0,3.35,1.66,1.66,0,0,0,2.58,0A2.69,2.69,0,0,0,139.64,108.13Z" style="fill:#158696"/><path d="M142.38,105.19q.38-.1,1-.2a8.74,8.74,0,0,1,1.46-.11,2.74,2.74,0,0,1,1,.16,1.77,1.77,0,0,1,.68.47l.26-.17a2.84,2.84,0,0,1,.44-.21,4.72,4.72,0,0,1,.59-.18,3,3,0,0,1,.7-.08,2.83,2.83,0,0,1,1.18.21,1.69,1.69,0,0,1,.71.59,2.31,2.31,0,0,1,.35.91,6.86,6.86,0,0,1,.09,1.15v3.5h-1.12V108a7.11,7.11,0,0,0-.05-.95,1.84,1.84,0,0,0-.2-.66.94.94,0,0,0-.41-.39,1.52,1.52,0,0,0-.67-.13,2.47,2.47,0,0,0-.93.15,1.82,1.82,0,0,0-.5.27,4.1,4.1,0,0,1,.14.68,6.15,6.15,0,0,1,0,.78v3.5h-1.12V108A6.43,6.43,0,0,0,146,107a1.91,1.91,0,0,0-.21-.66.94.94,0,0,0-.41-.39,1.49,1.49,0,0,0-.65-.13h-.36l-.37,0-.32,0-.19,0v5.27h-1.12Z" style="fill:#158696"/><path d="M158.21,108.15a4.4,4.4,0,0,1-.19,1.31,3,3,0,0,1-.55,1,2.48,2.48,0,0,1-.88.67,2.83,2.83,0,0,1-1.19.24,2.9,2.9,0,0,1-1-.14,3,3,0,0,1-.62-.28v2.5h-1.12v-8.27l1-.21a7.33,7.33,0,0,1,1.37-.11,3.5,3.5,0,0,1,1.3.23,2.79,2.79,0,0,1,1,.65,2.87,2.87,0,0,1,.63,1A3.94,3.94,0,0,1,158.21,108.15Zm-1.16,0a2.4,2.4,0,0,0-.54-1.68,1.86,1.86,0,0,0-1.44-.59,6.6,6.6,0,0,0-.79,0,3.11,3.11,0,0,0-.45.08v3.94a2.29,2.29,0,0,0,.59.32,2.21,2.21,0,0,0,.84.16,1.79,1.79,0,0,0,.82-.17,1.5,1.5,0,0,0,.56-.48,2,2,0,0,0,.31-.72A4,4,0,0,0,157,108.15Z" style="fill:#158696"/><path d="M165.29,108.13a4,4,0,0,1-.22,1.34,3.08,3.08,0,0,1-.61,1,2.66,2.66,0,0,1-.93.67,3.07,3.07,0,0,1-2.35,0,2.66,2.66,0,0,1-.93-.67,3.07,3.07,0,0,1-.61-1,4.27,4.27,0,0,1,0-2.68,3.06,3.06,0,0,1,.61-1,2.67,2.67,0,0,1,.93-.67,3.07,3.07,0,0,1,2.35,0,2.67,2.67,0,0,1,.93.67,3.07,3.07,0,0,1,.61,1A4,4,0,0,1,165.29,108.13Zm-1.16,0a2.69,2.69,0,0,0-.47-1.67,1.66,1.66,0,0,0-2.58,0,3.19,3.19,0,0,0,0,3.35,1.66,1.66,0,0,0,2.58,0A2.69,2.69,0,0,0,164.12,108.13Z" style="fill:#158696"/><path d="M168.31,110.45a2.19,2.19,0,0,0,1-.18.61.61,0,0,0,.33-.58.77.77,0,0,0-.32-.65,5.15,5.15,0,0,0-1.07-.54l-.69-.29a2.42,2.42,0,0,1-.57-.35,1.53,1.53,0,0,1-.38-.49,1.57,1.57,0,0,1-.14-.71,1.59,1.59,0,0,1,.61-1.31,2.61,2.61,0,0,1,1.67-.49l.53,0,.49.07.4.09.27.08-.2,1a2.81,2.81,0,0,0-.56-.2,3.64,3.64,0,0,0-.92-.1,1.71,1.71,0,0,0-.82.19.62.62,0,0,0-.35.58.79.79,0,0,0,.08.36.83.83,0,0,0,.24.28,2,2,0,0,0,.4.23l.58.23q.44.17.79.33a2.48,2.48,0,0,1,.59.38,1.45,1.45,0,0,1,.38.52,1.9,1.9,0,0,1,.13.75,1.49,1.49,0,0,1-.64,1.31,3.2,3.2,0,0,1-1.83.44,4.79,4.79,0,0,1-1.3-.14,6.61,6.61,0,0,1-.64-.21l.2-1,.61.22A3.53,3.53,0,0,0,168.31,110.45Z" style="fill:#158696"/><path d="M172.76,103.88a.72.72,0,0,1-.51-.2.78.78,0,0,1,0-1.07.76.76,0,0,1,1,0,.78.78,0,0,1,0,1.07A.72.72,0,0,1,172.76,103.88Zm.56,7.37h-1.12V105h1.12Z" style="fill:#158696"/><path d="M176.29,105h2.36v.94h-2.36v2.88a3.44,3.44,0,0,0,.07.77,1.16,1.16,0,0,0,.22.48.78.78,0,0,0,.36.25,1.6,1.6,0,0,0,.5.07,2.36,2.36,0,0,0,.81-.11l.43-.16.22.92a4.12,4.12,0,0,1-.59.21,3.35,3.35,0,0,1-1,.13,2.91,2.91,0,0,1-1.05-.16,1.53,1.53,0,0,1-.67-.49,1.94,1.94,0,0,1-.35-.8,5.24,5.24,0,0,1-.1-1.1v-5.57l1.12-.19Z" style="fill:#158696"/><path d="M180.62,103.88a.72.72,0,0,1-.51-.2.78.78,0,0,1,0-1.07.76.76,0,0,1,1,0,.78.78,0,0,1,0,1.07A.72.72,0,0,1,180.62,103.88Zm.56,7.37h-1.12V105h1.12Z" style="fill:#158696"/><path d="M188.61,108.13a4,4,0,0,1-.22,1.34,3.08,3.08,0,0,1-.61,1,2.66,2.66,0,0,1-.93.67,3.07,3.07,0,0,1-2.35,0,2.66,2.66,0,0,1-.93-.67,3.07,3.07,0,0,1-.61-1,4.27,4.27,0,0,1,0-2.68,3.06,3.06,0,0,1,.61-1,2.67,2.67,0,0,1,.93-.67,3.07,3.07,0,0,1,2.35,0,2.67,2.67,0,0,1,.93.67,3.07,3.07,0,0,1,.61,1A4,4,0,0,1,188.61,108.13Zm-1.16,0a2.69,2.69,0,0,0-.47-1.67,1.66,1.66,0,0,0-2.58,0,3.19,3.19,0,0,0,0,3.35,1.66,1.66,0,0,0,2.58,0A2.69,2.69,0,0,0,187.45,108.13Z" style="fill:#158696"/><path d="M190.19,105.19q.38-.1,1-.2a8.85,8.85,0,0,1,1.46-.11,3.17,3.17,0,0,1,1.24.21,1.94,1.94,0,0,1,.79.59,2.29,2.29,0,0,1,.41.91,5.26,5.26,0,0,1,.12,1.16v3.5h-1.12V108a5.35,5.35,0,0,0-.08-1,1.67,1.67,0,0,0-.26-.66,1,1,0,0,0-.48-.37,2.1,2.1,0,0,0-.74-.11h-.37l-.37,0-.31,0-.2,0v5.27h-1.12Z" style="fill:#158696"/><path d="M466.76,95.7l-.84.91-1,1-1,1-.95.94a10.72,10.72,0,0,1,1.09.89q.58.53,1.13,1.13t1,1.22A10.27,10.27,0,0,1,467,104h-1.37a11.56,11.56,0,0,0-.83-1.13q-.47-.57-1-1.09t-1.06-1a9.21,9.21,0,0,0-1-.76V104h-1.16V95.7h1.16v3.67l.92-.89,1-1,.93-1q.44-.46.74-.81Z" style="fill:#158696"/><path d="M472.89,103.84q-.39.1-1,.2a8.69,8.69,0,0,1-1.46.11,3.09,3.09,0,0,1-1.21-.21,2,2,0,0,1-.79-.59,2.41,2.41,0,0,1-.43-.91,4.68,4.68,0,0,1-.13-1.16v-3.5H469V101a2.83,2.83,0,0,0,.36,1.63,1.4,1.4,0,0,0,1.21.49h.37l.36,0,.31,0,.2,0V97.78h1.12Z" style="fill:#158696"/><path d="M475.93,98.06a3,3,0,0,1,.62-.28,2.91,2.91,0,0,1,1-.14,2.83,2.83,0,0,1,1.19.24,2.49,2.49,0,0,1,.88.67,3,3,0,0,1,.55,1,4.44,4.44,0,0,1,.19,1.32,4,4,0,0,1-.22,1.36,2.88,2.88,0,0,1-.63,1,2.78,2.78,0,0,1-1,.65,3.5,3.5,0,0,1-1.3.23,7.87,7.87,0,0,1-1.38-.11q-.6-.11-1-.22V94.9l1.12-.19Zm0,5a3.65,3.65,0,0,0,.47.09,5.79,5.79,0,0,0,.76,0,1.85,1.85,0,0,0,1.44-.59,2.42,2.42,0,0,0,.54-1.69,4.07,4.07,0,0,0-.1-.9,2,2,0,0,0-.31-.73,1.5,1.5,0,0,0-.56-.48,1.8,1.8,0,0,0-.82-.17,2.22,2.22,0,0,0-.84.16,2.3,2.3,0,0,0-.59.32Z" style="fill:#158696"/><path d="M481.53,100.91a4,4,0,0,1,.24-1.45,3,3,0,0,1,.64-1,2.59,2.59,0,0,1,.91-.61,2.85,2.85,0,0,1,1.06-.2,2.4,2.4,0,0,1,1.93.79,3.61,3.61,0,0,1,.67,2.39V101a1.74,1.74,0,0,1,0,.21H482.7a2.29,2.29,0,0,0,.56,1.48,2.06,2.06,0,0,0,1.54.5,4.11,4.11,0,0,0,1-.1,3.51,3.51,0,0,0,.61-.2l.16.94a3.29,3.29,0,0,1-.71.23,5.08,5.08,0,0,1-1.16.12,3.67,3.67,0,0,1-1.41-.25,2.64,2.64,0,0,1-1-.68,2.76,2.76,0,0,1-.57-1A4.34,4.34,0,0,1,481.53,100.91Zm4.28-.61a1.87,1.87,0,0,0-.38-1.24,1.3,1.3,0,0,0-1.07-.49,1.47,1.47,0,0,0-.68.15,1.6,1.6,0,0,0-.5.39,1.79,1.79,0,0,0-.32.55,2.74,2.74,0,0,0-.15.64Z" style="fill:#158696"/><path d="M490.89,97.65l.33,0,.37,0,.33.06.22.05-.19,1-.44-.11a3.84,3.84,0,0,0-.79-.07,2.93,2.93,0,0,0-.62.07l-.4.09V104h-1.12V98a7.62,7.62,0,0,1,1-.27A6.33,6.33,0,0,1,490.89,97.65Z" style="fill:#158696"/><path d="M493.22,98q.38-.1,1-.2a8.85,8.85,0,0,1,1.46-.11,3.17,3.17,0,0,1,1.24.21,1.94,1.94,0,0,1,.79.59,2.27,2.27,0,0,1,.41.91,5.25,5.25,0,0,1,.12,1.16V104h-1.12v-3.26a5.35,5.35,0,0,0-.08-1,1.66,1.66,0,0,0-.26-.66,1,1,0,0,0-.48-.37,2.1,2.1,0,0,0-.74-.11h-.37l-.37,0-.31,0-.2,0V104h-1.12Z" style="fill:#158696"/><path d="M499.76,100.91a4,4,0,0,1,.24-1.45,3,3,0,0,1,.64-1,2.59,2.59,0,0,1,.91-.61,2.85,2.85,0,0,1,1.06-.2,2.4,2.4,0,0,1,1.93.79,3.61,3.61,0,0,1,.67,2.39V101a1.74,1.74,0,0,1,0,.21h-4.27a2.29,2.29,0,0,0,.56,1.48,2.06,2.06,0,0,0,1.54.5,4.11,4.11,0,0,0,1-.1,3.51,3.51,0,0,0,.61-.2l.16.94a3.29,3.29,0,0,1-.71.23,5.08,5.08,0,0,1-1.16.12,3.67,3.67,0,0,1-1.41-.25,2.64,2.64,0,0,1-1-.68,2.76,2.76,0,0,1-.57-1A4.34,4.34,0,0,1,499.76,100.91Zm4.28-.61a1.87,1.87,0,0,0-.38-1.24,1.3,1.3,0,0,0-1.07-.49,1.47,1.47,0,0,0-.68.15,1.6,1.6,0,0,0-.5.39,1.79,1.79,0,0,0-.32.55,2.74,2.74,0,0,0-.15.64Z" style="fill:#158696"/><path d="M507.86,97.78h2.36v.94h-2.36v2.88a3.41,3.41,0,0,0,.07.77,1.15,1.15,0,0,0,.22.48.78.78,0,0,0,.36.25,1.6,1.6,0,0,0,.5.07,2.37,2.37,0,0,0,.81-.11l.43-.16.22.92a4.08,4.08,0,0,1-.59.21,3.34,3.34,0,0,1-1,.13,2.91,2.91,0,0,1-1-.16,1.53,1.53,0,0,1-.67-.49,1.94,1.94,0,0,1-.35-.8,5.23,5.23,0,0,1-.1-1.1V96l1.12-.19Z" style="fill:#158696"/><path d="M511.17,100.91a4,4,0,0,1,.24-1.45,3,3,0,0,1,.64-1,2.58,2.58,0,0,1,.91-.61,2.84,2.84,0,0,1,1.06-.2,2.4,2.4,0,0,1,1.93.79,3.62,3.62,0,0,1,.67,2.39V101a1.73,1.73,0,0,1,0,.21h-4.27a2.28,2.28,0,0,0,.56,1.48,2.06,2.06,0,0,0,1.54.5,4.1,4.1,0,0,0,1-.1,3.56,3.56,0,0,0,.61-.2l.16.94a3.28,3.28,0,0,1-.71.23,5.07,5.07,0,0,1-1.16.12,3.67,3.67,0,0,1-1.41-.25,2.63,2.63,0,0,1-1-.68,2.77,2.77,0,0,1-.57-1A4.34,4.34,0,0,1,511.17,100.91Zm4.28-.61a1.87,1.87,0,0,0-.38-1.24,1.3,1.3,0,0,0-1.07-.49,1.47,1.47,0,0,0-.68.15,1.6,1.6,0,0,0-.5.39,1.79,1.79,0,0,0-.32.55,2.74,2.74,0,0,0-.15.64Z" style="fill:#158696"/><path d="M519.68,103.22a2.19,2.19,0,0,0,1-.18.61.61,0,0,0,.33-.58.76.76,0,0,0-.32-.65,5.16,5.16,0,0,0-1.07-.54l-.69-.29a2.42,2.42,0,0,1-.57-.35,1.53,1.53,0,0,1-.38-.49,1.56,1.56,0,0,1-.14-.71,1.59,1.59,0,0,1,.61-1.31,2.61,2.61,0,0,1,1.67-.49l.53,0,.49.07.4.09.27.08-.2,1a2.83,2.83,0,0,0-.56-.2,3.65,3.65,0,0,0-.92-.1,1.71,1.71,0,0,0-.82.19.62.62,0,0,0-.35.58.78.78,0,0,0,.08.36.83.83,0,0,0,.24.28,2,2,0,0,0,.4.23l.58.23q.44.17.79.33a2.49,2.49,0,0,1,.59.38,1.45,1.45,0,0,1,.38.52,1.9,1.9,0,0,1,.13.75,1.49,1.49,0,0,1-.64,1.31,3.2,3.2,0,0,1-1.83.44,4.79,4.79,0,0,1-1.3-.14,6.59,6.59,0,0,1-.64-.21l.2-1,.61.22A3.53,3.53,0,0,0,519.68,103.22Z" style="fill:#158696"/><path d="M473.08,114.94l.49.63q.29.39.61.86t.62,1a10.18,10.18,0,0,1,.52,1H474q-.24-.46-.52-.92t-.57-.89q-.29-.43-.57-.8l-.51-.65h-1.69v3.25H469v-8.2a6.52,6.52,0,0,1,1.1-.16q.6,0,1.11,0a4.55,4.55,0,0,1,2.67.66,2.27,2.27,0,0,1,.92,2,2.3,2.3,0,0,1-.44,1.42A2.58,2.58,0,0,1,473.08,114.94Zm-1.76-3.9q-.74,0-1.14,0v3.13H471a8.75,8.75,0,0,0,1.08-.06,2.45,2.45,0,0,0,.81-.23,1.22,1.22,0,0,0,.51-.47,1.59,1.59,0,0,0,.18-.81,1.54,1.54,0,0,0-.18-.78,1.34,1.34,0,0,0-.49-.49,2.14,2.14,0,0,0-.72-.25A5.17,5.17,0,0,0,471.32,111Z" style="fill:#158696"/><path d="M481.46,118.24q-.38.1-1,.2a8.69,8.69,0,0,1-1.46.11,3.08,3.08,0,0,1-1.21-.21,2,2,0,0,1-.79-.59,2.41,2.41,0,0,1-.43-.91,4.73,4.73,0,0,1-.13-1.16v-3.5h1.12v3.26a2.83,2.83,0,0,0,.36,1.63,1.4,1.4,0,0,0,1.21.49h.37l.36,0,.31,0,.2,0v-5.27h1.12Z" style="fill:#158696"/><path d="M483.38,112.36q.38-.1,1-.2a8.85,8.85,0,0,1,1.46-.11,3.17,3.17,0,0,1,1.24.21,1.94,1.94,0,0,1,.79.59,2.27,2.27,0,0,1,.41.91,5.25,5.25,0,0,1,.12,1.16v3.5H487.3v-3.26a5.35,5.35,0,0,0-.08-1,1.66,1.66,0,0,0-.26-.66,1,1,0,0,0-.48-.37,2.1,2.1,0,0,0-.74-.11h-.37l-.37,0-.31,0-.2,0v5.27h-1.12Z" style="fill:#158696"/><path d="M491.31,112.18h2.36v.94h-2.36V116a3.41,3.41,0,0,0,.07.77,1.15,1.15,0,0,0,.22.48.78.78,0,0,0,.36.25,1.6,1.6,0,0,0,.5.07,2.37,2.37,0,0,0,.81-.11l.43-.16.22.92a4.08,4.08,0,0,1-.59.21,3.34,3.34,0,0,1-1,.13,2.91,2.91,0,0,1-1-.16,1.53,1.53,0,0,1-.67-.49,1.94,1.94,0,0,1-.35-.8,5.23,5.23,0,0,1-.1-1.1v-5.57l1.12-.19Z" style="fill:#158696"/><path d="M495.64,111.05a.72.72,0,0,1-.51-.2.78.78,0,0,1,0-1.07.76.76,0,0,1,1,0,.78.78,0,0,1,0,1.07A.72.72,0,0,1,495.64,111.05Zm.56,7.37h-1.12v-6.24h1.12Z" style="fill:#158696"/><path d="M498.13,112.36q.38-.1,1-.2a8.74,8.74,0,0,1,1.46-.11,2.74,2.74,0,0,1,1,.16,1.77,1.77,0,0,1,.68.47l.26-.17a2.85,2.85,0,0,1,.44-.21,4.72,4.72,0,0,1,.59-.18,3,3,0,0,1,.7-.08,2.83,2.83,0,0,1,1.18.21,1.69,1.69,0,0,1,.71.59,2.3,2.3,0,0,1,.35.91,6.81,6.81,0,0,1,.09,1.15v3.5H505.5v-3.26a7.1,7.1,0,0,0-.05-.95,1.83,1.83,0,0,0-.2-.66.93.93,0,0,0-.41-.39,1.53,1.53,0,0,0-.67-.13,2.47,2.47,0,0,0-.93.15,1.82,1.82,0,0,0-.5.27,4.1,4.1,0,0,1,.14.68,6.24,6.24,0,0,1,0,.78v3.5h-1.12v-3.26a6.43,6.43,0,0,0-.06-.95,1.92,1.92,0,0,0-.21-.66.94.94,0,0,0-.41-.39,1.49,1.49,0,0,0-.65-.13h-.36l-.37,0-.32,0-.19,0v5.27h-1.12Z" style="fill:#158696"/><path d="M508.11,115.31a4,4,0,0,1,.24-1.45,3,3,0,0,1,.64-1,2.59,2.59,0,0,1,.91-.61A2.85,2.85,0,0,1,511,112a2.4,2.4,0,0,1,1.93.79,3.61,3.61,0,0,1,.67,2.39v.19a1.74,1.74,0,0,1,0,.21h-4.27a2.29,2.29,0,0,0,.56,1.48,2.06,2.06,0,0,0,1.54.5,4.11,4.11,0,0,0,1-.1,3.51,3.51,0,0,0,.61-.2l.16.94a3.29,3.29,0,0,1-.71.23,5.08,5.08,0,0,1-1.16.12,3.67,3.67,0,0,1-1.41-.25,2.64,2.64,0,0,1-1-.68,2.76,2.76,0,0,1-.57-1A4.34,4.34,0,0,1,508.11,115.31Zm4.28-.61a1.87,1.87,0,0,0-.38-1.24,1.3,1.3,0,0,0-1.07-.49,1.47,1.47,0,0,0-.68.15,1.6,1.6,0,0,0-.5.39,1.79,1.79,0,0,0-.32.55,2.74,2.74,0,0,0-.15.64Z" style="fill:#158696"/><path d="M145.46,337.36q1.82,0,1.82-1.25a1.25,1.25,0,0,0-.16-.65,1.57,1.57,0,0,0-.44-.47,3,3,0,0,0-.63-.34l-.75-.29a7.4,7.4,0,0,1-.86-.35,3,3,0,0,1-.71-.47,2,2,0,0,1-.47-.64,2.11,2.11,0,0,1-.17-.9,2.09,2.09,0,0,1,.74-1.7,3.14,3.14,0,0,1,2.05-.61,5.44,5.44,0,0,1,1.37.16,3.15,3.15,0,0,1,.91.35l-.37.95a3.28,3.28,0,0,0-.75-.31,4,4,0,0,0-1.16-.15,2.58,2.58,0,0,0-.62.07,1.61,1.61,0,0,0-.5.22,1.07,1.07,0,0,0-.34.37,1,1,0,0,0-.13.52,1.11,1.11,0,0,0,.13.56,1.3,1.3,0,0,0,.37.4,3.21,3.21,0,0,0,.56.32l.7.29q.54.22,1,.43a3.26,3.26,0,0,1,.78.52,2.07,2.07,0,0,1,.51.71,2.5,2.5,0,0,1,.18,1,2,2,0,0,1-.8,1.68,3.74,3.74,0,0,1-2.25.59,5.77,5.77,0,0,1-.91-.07,6.87,6.87,0,0,1-.74-.16,4.28,4.28,0,0,1-.56-.19l-.37-.17.35-1a5.28,5.28,0,0,0,.84.35A4.32,4.32,0,0,0,145.46,337.36Z" style="fill:#158696"/><path d="M149.5,335.08a4,4,0,0,1,.24-1.45,3,3,0,0,1,.64-1,2.59,2.59,0,0,1,.91-.61,2.85,2.85,0,0,1,1.06-.2,2.4,2.4,0,0,1,1.93.79,3.62,3.62,0,0,1,.67,2.39v.19a1.73,1.73,0,0,1,0,.21h-4.27a2.28,2.28,0,0,0,.56,1.48,2.06,2.06,0,0,0,1.54.5,4.08,4.08,0,0,0,1-.1,3.49,3.49,0,0,0,.61-.2l.16.94a3.26,3.26,0,0,1-.71.23,5.07,5.07,0,0,1-1.16.12,3.67,3.67,0,0,1-1.41-.25,2.63,2.63,0,0,1-1-.68,2.76,2.76,0,0,1-.57-1A4.33,4.33,0,0,1,149.5,335.08Zm4.28-.61a1.87,1.87,0,0,0-.38-1.24,1.3,1.3,0,0,0-1.07-.49,1.46,1.46,0,0,0-.68.15,1.58,1.58,0,0,0-.5.39,1.78,1.78,0,0,0-.32.55,2.74,2.74,0,0,0-.15.64Z" style="fill:#158696"/><path d="M158.86,331.81l.33,0,.37,0,.33.06.22.05-.19,1-.44-.11a3.83,3.83,0,0,0-.79-.07,2.93,2.93,0,0,0-.62.07l-.4.09v5.24h-1.12v-6a7.64,7.64,0,0,1,1-.27A6.32,6.32,0,0,1,158.86,331.81Z" style="fill:#158696"/><path d="M166.31,331.95a31.51,31.51,0,0,1-1.1,3.36q-.63,1.61-1.22,2.88h-1q-.59-1.27-1.22-2.88a31.51,31.51,0,0,1-1.1-3.36h1.2q.14.59.34,1.25t.42,1.32q.22.65.45,1.27t.43,1.09q.2-.48.43-1.09t.45-1.27q.22-.65.42-1.32t.34-1.25Z" style="fill:#158696"/><path d="M166.94,335.08a4,4,0,0,1,.24-1.45,3,3,0,0,1,.64-1,2.59,2.59,0,0,1,.91-.61,2.85,2.85,0,0,1,1.06-.2,2.4,2.4,0,0,1,1.93.79,3.62,3.62,0,0,1,.67,2.39v.19a1.73,1.73,0,0,1,0,.21h-4.27a2.28,2.28,0,0,0,.56,1.48,2.06,2.06,0,0,0,1.54.5,4.08,4.08,0,0,0,1-.1,3.49,3.49,0,0,0,.61-.2l.16.94a3.26,3.26,0,0,1-.71.23,5.07,5.07,0,0,1-1.16.12,3.67,3.67,0,0,1-1.41-.25,2.63,2.63,0,0,1-1-.68,2.76,2.76,0,0,1-.57-1A4.33,4.33,0,0,1,166.94,335.08Zm4.28-.61a1.87,1.87,0,0,0-.38-1.24,1.3,1.3,0,0,0-1.07-.49,1.46,1.46,0,0,0-.68.15,1.58,1.58,0,0,0-.5.39,1.78,1.78,0,0,0-.32.55,2.74,2.74,0,0,0-.15.64Z" style="fill:#158696"/><path d="M176.3,331.81l.33,0,.37,0,.33.06.22.05-.19,1-.44-.11a3.83,3.83,0,0,0-.79-.07,2.93,2.93,0,0,0-.62.07l-.4.09v5.24H174v-6a7.64,7.64,0,0,1,1-.27A6.32,6.32,0,0,1,176.3,331.81Z" style="fill:#158696"/><path d="M180.5,338.31a2.14,2.14,0,0,1-1.46-.44,1.75,1.75,0,0,1-.43-1.31v-7.49l1.12-.19v7.5a1.79,1.79,0,0,0,0,.46.63.63,0,0,0,.16.29.67.67,0,0,0,.29.16,2.89,2.89,0,0,0,.44.09Z" style="fill:#158696"/><path d="M181.56,335.08a4,4,0,0,1,.24-1.45,3,3,0,0,1,.64-1,2.59,2.59,0,0,1,.91-.61,2.85,2.85,0,0,1,1.06-.2,2.4,2.4,0,0,1,1.93.79A3.62,3.62,0,0,1,187,335v.19a1.73,1.73,0,0,1,0,.21h-4.27a2.28,2.28,0,0,0,.56,1.48,2.06,2.06,0,0,0,1.54.5,4.08,4.08,0,0,0,1-.1,3.49,3.49,0,0,0,.61-.2l.16.94a3.26,3.26,0,0,1-.71.23,5.07,5.07,0,0,1-1.16.12,3.67,3.67,0,0,1-1.41-.25,2.63,2.63,0,0,1-1-.68,2.76,2.76,0,0,1-.57-1A4.33,4.33,0,0,1,181.56,335.08Zm4.28-.61a1.87,1.87,0,0,0-.38-1.24,1.3,1.3,0,0,0-1.07-.49,1.46,1.46,0,0,0-.68.15,1.58,1.58,0,0,0-.5.39,1.78,1.78,0,0,0-.32.55,2.74,2.74,0,0,0-.15.64Z" style="fill:#158696"/><path d="M190.07,337.38a2.19,2.19,0,0,0,1-.18.61.61,0,0,0,.33-.58.76.76,0,0,0-.32-.65,5.15,5.15,0,0,0-1.07-.54l-.69-.29a2.42,2.42,0,0,1-.57-.35,1.53,1.53,0,0,1-.38-.49,1.57,1.57,0,0,1-.14-.71,1.59,1.59,0,0,1,.61-1.31,2.61,2.61,0,0,1,1.67-.49,4.78,4.78,0,0,1,.53,0l.49.07.4.09.27.08-.2,1a2.81,2.81,0,0,0-.56-.2,3.67,3.67,0,0,0-.92-.1,1.71,1.71,0,0,0-.82.19.62.62,0,0,0-.35.58.79.79,0,0,0,.08.36.83.83,0,0,0,.24.28,2,2,0,0,0,.4.23l.58.23q.44.17.79.33a2.45,2.45,0,0,1,.59.38,1.44,1.44,0,0,1,.38.52,1.9,1.9,0,0,1,.13.75,1.49,1.49,0,0,1-.64,1.31,3.2,3.2,0,0,1-1.83.44,4.79,4.79,0,0,1-1.3-.14q-.47-.14-.64-.21l.2-1,.61.22A3.54,3.54,0,0,0,190.07,337.38Z" style="fill:#158696"/><path d="M195.42,337.38a2.19,2.19,0,0,0,1-.18.61.61,0,0,0,.33-.58.76.76,0,0,0-.32-.65,5.15,5.15,0,0,0-1.07-.54l-.69-.29a2.42,2.42,0,0,1-.57-.35,1.53,1.53,0,0,1-.38-.49,1.57,1.57,0,0,1-.14-.71,1.59,1.59,0,0,1,.61-1.31,2.61,2.61,0,0,1,1.67-.49,4.78,4.78,0,0,1,.53,0l.49.07.4.09.27.08-.2,1a2.81,2.81,0,0,0-.56-.2,3.67,3.67,0,0,0-.92-.1,1.71,1.71,0,0,0-.82.19.62.62,0,0,0-.35.58.79.79,0,0,0,.08.36.83.83,0,0,0,.24.28,2,2,0,0,0,.4.23l.58.23q.44.17.79.33a2.45,2.45,0,0,1,.59.38,1.44,1.44,0,0,1,.38.52,1.9,1.9,0,0,1,.13.75,1.49,1.49,0,0,1-.64,1.31,3.2,3.2,0,0,1-1.83.44,4.79,4.79,0,0,1-1.3-.14q-.47-.14-.64-.21l.2-1,.61.22A3.54,3.54,0,0,0,195.42,337.38Z" style="fill:#158696"/><path d="M145.12,351.19v-8.32h5v1h-3.85v2.51h3.42v1h-3.42v3.83Z" style="fill:#158696"/><path d="M156.16,351q-.38.1-1,.2a8.69,8.69,0,0,1-1.46.11,3.1,3.1,0,0,1-1.21-.21,2,2,0,0,1-.79-.59,2.41,2.41,0,0,1-.43-.91,4.71,4.71,0,0,1-.13-1.16v-3.5h1.12v3.26a2.83,2.83,0,0,0,.36,1.63,1.4,1.4,0,0,0,1.21.49h.37l.36,0,.31,0,.2,0v-5.27h1.12Z" style="fill:#158696"/><path d="M158.08,345.13q.38-.1,1-.2a8.91,8.91,0,0,1,1.46-.11,3.17,3.17,0,0,1,1.24.21,1.93,1.93,0,0,1,.79.59,2.27,2.27,0,0,1,.41.91,5.25,5.25,0,0,1,.12,1.16v3.5H162v-3.26a5.34,5.34,0,0,0-.08-1,1.66,1.66,0,0,0-.26-.66,1,1,0,0,0-.48-.37,2.1,2.1,0,0,0-.74-.11h-.37l-.37,0-.31,0-.2,0v5.27h-1.12Z" style="fill:#158696"/><path d="M167.68,351.33a3.39,3.39,0,0,1-1.33-.24,2.65,2.65,0,0,1-1-.67,2.78,2.78,0,0,1-.58-1,4.25,4.25,0,0,1-.19-1.31,4,4,0,0,1,.21-1.32,3.12,3.12,0,0,1,.59-1,2.66,2.66,0,0,1,.94-.68,3,3,0,0,1,1.24-.25,5,5,0,0,1,.84.07,3.9,3.9,0,0,1,.8.23L169,346a2.68,2.68,0,0,0-.58-.19,3.24,3.24,0,0,0-.7-.07,1.78,1.78,0,0,0-1.43.59,2.59,2.59,0,0,0-.5,1.72,3.51,3.51,0,0,0,.11.92,1.9,1.9,0,0,0,.36.72,1.62,1.62,0,0,0,.63.46,2.42,2.42,0,0,0,.94.16,3.57,3.57,0,0,0,.8-.08,3,3,0,0,0,.56-.18l.16.94a1.13,1.13,0,0,1-.28.11l-.41.1-.49.07A4.2,4.2,0,0,1,167.68,351.33Z" style="fill:#158696"/><path d="M171.59,344.95H174v.94h-2.36v2.88a3.44,3.44,0,0,0,.07.77,1.16,1.16,0,0,0,.22.48.78.78,0,0,0,.36.25,1.6,1.6,0,0,0,.5.07,2.37,2.37,0,0,0,.81-.11l.43-.16.22.92a4.18,4.18,0,0,1-.59.21,3.35,3.35,0,0,1-1,.13,2.9,2.9,0,0,1-1.05-.16,1.53,1.53,0,0,1-.67-.49,1.93,1.93,0,0,1-.35-.8,5.23,5.23,0,0,1-.1-1.1v-5.57l1.12-.19Z" style="fill:#158696"/><path d="M175.93,343.82a.72.72,0,0,1-.51-.2.78.78,0,0,1,0-1.07.76.76,0,0,1,1,0,.78.78,0,0,1,0,1.07A.72.72,0,0,1,175.93,343.82Zm.56,7.37h-1.12v-6.24h1.12Z" style="fill:#158696"/><path d="M183.92,348.07a3.94,3.94,0,0,1-.22,1.34,3.08,3.08,0,0,1-.61,1,2.67,2.67,0,0,1-.93.67,3.08,3.08,0,0,1-2.35,0,2.67,2.67,0,0,1-.93-.67,3.07,3.07,0,0,1-.61-1,4.26,4.26,0,0,1,0-2.68,3.06,3.06,0,0,1,.61-1,2.67,2.67,0,0,1,.93-.67,3.07,3.07,0,0,1,2.35,0,2.67,2.67,0,0,1,.93.67,3.07,3.07,0,0,1,.61,1A4,4,0,0,1,183.92,348.07Zm-1.16,0a2.68,2.68,0,0,0-.47-1.67,1.66,1.66,0,0,0-2.58,0,3.19,3.19,0,0,0,0,3.35,1.66,1.66,0,0,0,2.58,0A2.68,2.68,0,0,0,182.75,348.07Z" style="fill:#158696"/><path d="M185.49,345.13q.38-.1,1-.2a8.91,8.91,0,0,1,1.46-.11,3.17,3.17,0,0,1,1.24.21,1.93,1.93,0,0,1,.79.59,2.27,2.27,0,0,1,.41.91,5.25,5.25,0,0,1,.12,1.16v3.5h-1.12v-3.26a5.34,5.34,0,0,0-.08-1,1.66,1.66,0,0,0-.26-.66,1,1,0,0,0-.48-.37,2.1,2.1,0,0,0-.74-.11h-.37l-.37,0-.31,0-.2,0v5.27h-1.12Z" style="fill:#158696"/><path d="M193.83,350.38a2.19,2.19,0,0,0,1-.18.61.61,0,0,0,.33-.58.76.76,0,0,0-.32-.65,5.15,5.15,0,0,0-1.07-.54l-.69-.29a2.42,2.42,0,0,1-.57-.35,1.53,1.53,0,0,1-.38-.49,1.57,1.57,0,0,1-.14-.71,1.59,1.59,0,0,1,.61-1.31,2.61,2.61,0,0,1,1.67-.49,4.78,4.78,0,0,1,.53,0l.49.07.4.09.27.08-.2,1a2.81,2.81,0,0,0-.56-.2,3.67,3.67,0,0,0-.92-.1,1.71,1.71,0,0,0-.82.19.62.62,0,0,0-.35.58.79.79,0,0,0,.08.36.83.83,0,0,0,.24.28,2,2,0,0,0,.4.23l.58.23q.44.17.79.33a2.45,2.45,0,0,1,.59.38,1.44,1.44,0,0,1,.38.52,1.9,1.9,0,0,1,.13.75,1.49,1.49,0,0,1-.64,1.31,3.2,3.2,0,0,1-1.83.44,4.79,4.79,0,0,1-1.3-.14q-.47-.14-.64-.21l.2-1,.61.22A3.54,3.54,0,0,0,193.83,350.38Z" style="fill:#158696"/><path d="M464.31,334.19a4.82,4.82,0,0,1-.34,1.88,3.47,3.47,0,0,1-.95,1.32,4,4,0,0,1-1.46.78,6.41,6.41,0,0,1-1.87.26q-.5,0-1.11,0a6.5,6.5,0,0,1-1.1-.16v-8.06a6.6,6.6,0,0,1,1.1-.16q.61,0,1.11,0a6.45,6.45,0,0,1,1.87.26A4,4,0,0,1,463,331a3.48,3.48,0,0,1,.95,1.32A4.83,4.83,0,0,1,464.31,334.19Zm-4.52,3.21a3.23,3.23,0,1,0,0-6.43H459l-.38,0v6.36l.38,0Z" style="fill:#158696"/><path d="M465.62,335.25a4,4,0,0,1,.24-1.45,3,3,0,0,1,.64-1,2.58,2.58,0,0,1,.91-.61,2.86,2.86,0,0,1,1.06-.2,2.4,2.4,0,0,1,1.93.79,3.61,3.61,0,0,1,.67,2.39v.19a1.75,1.75,0,0,1,0,.21h-4.27a2.29,2.29,0,0,0,.56,1.48,2.06,2.06,0,0,0,1.54.5,4.13,4.13,0,0,0,1-.1,3.47,3.47,0,0,0,.61-.2l.16.94a3.32,3.32,0,0,1-.71.23,5.08,5.08,0,0,1-1.16.12,3.67,3.67,0,0,1-1.41-.25,2.63,2.63,0,0,1-1-.68,2.75,2.75,0,0,1-.57-1A4.34,4.34,0,0,1,465.62,335.25Zm4.28-.61a1.88,1.88,0,0,0-.38-1.24,1.3,1.3,0,0,0-1.07-.49,1.48,1.48,0,0,0-.68.15,1.6,1.6,0,0,0-.5.39,1.78,1.78,0,0,0-.32.55,2.74,2.74,0,0,0-.15.64Z" style="fill:#158696"/><path d="M477.55,332.11a31.6,31.6,0,0,1-1.1,3.36q-.63,1.61-1.22,2.88h-1q-.59-1.27-1.22-2.88a31.6,31.6,0,0,1-1.1-3.36h1.2q.14.59.34,1.25t.42,1.32q.22.65.45,1.27t.43,1.09q.2-.48.43-1.09t.45-1.27q.22-.65.42-1.32t.34-1.25Z" style="fill:#158696"/><path d="M478.19,335.25a4,4,0,0,1,.24-1.45,3,3,0,0,1,.64-1,2.57,2.57,0,0,1,.91-.61A2.85,2.85,0,0,1,481,332a2.4,2.4,0,0,1,1.93.79,3.62,3.62,0,0,1,.67,2.39v.19a1.75,1.75,0,0,1,0,.21h-4.27a2.28,2.28,0,0,0,.56,1.48,2.06,2.06,0,0,0,1.54.5,4.12,4.12,0,0,0,1-.1,3.51,3.51,0,0,0,.61-.2l.16.94a3.3,3.3,0,0,1-.71.23,5.07,5.07,0,0,1-1.16.12,3.67,3.67,0,0,1-1.41-.25,2.63,2.63,0,0,1-1-.68,2.77,2.77,0,0,1-.57-1A4.34,4.34,0,0,1,478.19,335.25Zm4.28-.61a1.88,1.88,0,0,0-.38-1.24,1.3,1.3,0,0,0-1.07-.49,1.47,1.47,0,0,0-.68.15,1.6,1.6,0,0,0-.5.39,1.79,1.79,0,0,0-.32.55,2.74,2.74,0,0,0-.15.64Z" style="fill:#158696"/><path d="M487.11,338.47a2.14,2.14,0,0,1-1.46-.44,1.76,1.76,0,0,1-.43-1.31v-7.49l1.12-.19v7.5a1.8,1.8,0,0,0,0,.46.63.63,0,0,0,.16.29.67.67,0,0,0,.29.16,3,3,0,0,0,.44.09Z" style="fill:#158696"/><path d="M494,335.23a4,4,0,0,1-.22,1.34,3.1,3.1,0,0,1-.61,1,2.67,2.67,0,0,1-.93.67,3.08,3.08,0,0,1-2.35,0,2.68,2.68,0,0,1-.93-.67,3.09,3.09,0,0,1-.61-1,4.26,4.26,0,0,1,0-2.68,3.05,3.05,0,0,1,.61-1,2.66,2.66,0,0,1,.93-.67,3.07,3.07,0,0,1,2.35,0,2.65,2.65,0,0,1,.93.67,3.07,3.07,0,0,1,.61,1A4,4,0,0,1,494,335.23Zm-1.16,0a2.69,2.69,0,0,0-.47-1.67,1.66,1.66,0,0,0-2.58,0,3.19,3.19,0,0,0,0,3.35,1.66,1.66,0,0,0,2.58,0A2.69,2.69,0,0,0,492.86,335.23Z" style="fill:#158696"/><path d="M501.09,335.25a4.39,4.39,0,0,1-.19,1.31,3,3,0,0,1-.55,1,2.48,2.48,0,0,1-.88.67,2.83,2.83,0,0,1-1.19.24,2.91,2.91,0,0,1-1-.14,3.05,3.05,0,0,1-.62-.28v2.5H495.6V332.3l1-.21A7.33,7.33,0,0,1,498,332a3.49,3.49,0,0,1,1.3.23,2.77,2.77,0,0,1,1,.65,2.84,2.84,0,0,1,.63,1A3.93,3.93,0,0,1,501.09,335.25Zm-1.16,0a2.4,2.4,0,0,0-.54-1.68A1.87,1.87,0,0,0,498,333a6.47,6.47,0,0,0-.79,0,2.91,2.91,0,0,0-.45.08V337a2.31,2.31,0,0,0,.59.32,2.22,2.22,0,0,0,.84.16,1.8,1.8,0,0,0,.82-.17,1.52,1.52,0,0,0,.56-.48,2,2,0,0,0,.31-.72A3.92,3.92,0,0,0,499.93,335.25Z" style="fill:#158696"/><path d="M502.32,335.25a4,4,0,0,1,.24-1.45,3,3,0,0,1,.64-1,2.57,2.57,0,0,1,.91-.61,2.85,2.85,0,0,1,1.06-.2,2.4,2.4,0,0,1,1.93.79,3.62,3.62,0,0,1,.67,2.39v.19a1.75,1.75,0,0,1,0,.21h-4.27A2.28,2.28,0,0,0,504,337a2.06,2.06,0,0,0,1.54.5,4.12,4.12,0,0,0,1-.1,3.51,3.51,0,0,0,.61-.2l.16.94a3.3,3.3,0,0,1-.71.23,5.07,5.07,0,0,1-1.16.12,3.67,3.67,0,0,1-1.41-.25,2.63,2.63,0,0,1-1-.68,2.77,2.77,0,0,1-.57-1A4.34,4.34,0,0,1,502.32,335.25Zm4.28-.61a1.88,1.88,0,0,0-.38-1.24,1.3,1.3,0,0,0-1.07-.49,1.47,1.47,0,0,0-.68.15,1.6,1.6,0,0,0-.5.39,1.79,1.79,0,0,0-.32.55,2.74,2.74,0,0,0-.15.64Z" style="fill:#158696"/><path d="M511.68,332l.33,0,.37,0,.33.06.22.05-.19,1-.44-.11a3.76,3.76,0,0,0-.79-.07,2.86,2.86,0,0,0-.62.07l-.4.09v5.24h-1.12v-6a7.65,7.65,0,0,1,1-.27A6.32,6.32,0,0,1,511.68,332Z" style="fill:#158696"/><path d="M471.43,344.35a4.62,4.62,0,0,1,2.69.67,2.27,2.27,0,0,1,.94,2,2.7,2.7,0,0,1-.26,1.23,2.11,2.11,0,0,1-.74.83,3.4,3.4,0,0,1-1.18.46,7.81,7.81,0,0,1-1.57.14h-.92v3.08h-1.16v-8.2a6.57,6.57,0,0,1,1.1-.16Q470.93,344.35,471.43,344.35Zm.1,1q-.74,0-1.14,0v3.26h.88a6.79,6.79,0,0,0,1.08-.08,2.44,2.44,0,0,0,.81-.26,1.3,1.3,0,0,0,.51-.51,1.68,1.68,0,0,0,.18-.83,1.53,1.53,0,0,0-.19-.79,1.4,1.4,0,0,0-.5-.5,2.17,2.17,0,0,0-.74-.26A5.17,5.17,0,0,0,471.53,345.37Z" style="fill:#158696"/><path d="M481.7,349.63a4,4,0,0,1-.22,1.34,3.09,3.09,0,0,1-.61,1,2.65,2.65,0,0,1-.93.67,3.08,3.08,0,0,1-2.35,0,2.66,2.66,0,0,1-.93-.67,3.07,3.07,0,0,1-.61-1,4.25,4.25,0,0,1,0-2.68,3.06,3.06,0,0,1,.61-1,2.67,2.67,0,0,1,.93-.67,3.08,3.08,0,0,1,2.35,0,2.66,2.66,0,0,1,.93.67,3.07,3.07,0,0,1,.61,1A4,4,0,0,1,481.7,349.63Zm-1.16,0a2.69,2.69,0,0,0-.47-1.67,1.66,1.66,0,0,0-2.58,0,3.19,3.19,0,0,0,0,3.35,1.66,1.66,0,0,0,2.58,0A2.69,2.69,0,0,0,480.54,349.63Z" style="fill:#158696"/><path d="M485.58,346.38l.33,0,.37,0,.33.06.22.05-.19,1-.44-.11a3.85,3.85,0,0,0-.79-.07,2.93,2.93,0,0,0-.62.07l-.4.09v5.24h-1.12v-6a7.62,7.62,0,0,1,1-.27A6.33,6.33,0,0,1,485.58,346.38Z" style="fill:#158696"/><path d="M489,346.51h2.36v.94H489v2.88a3.42,3.42,0,0,0,.07.77,1.16,1.16,0,0,0,.22.48.77.77,0,0,0,.36.25,1.61,1.61,0,0,0,.5.07,2.37,2.37,0,0,0,.81-.11l.43-.16.22.92a4,4,0,0,1-.59.21,3.34,3.34,0,0,1-1,.13,2.9,2.9,0,0,1-1-.16,1.52,1.52,0,0,1-.67-.49,1.93,1.93,0,0,1-.35-.8,5.24,5.24,0,0,1-.1-1.1v-5.57l1.12-.19Z" style="fill:#158696"/><path d="M494.75,346.36a3.23,3.23,0,0,1,1.13.17,1.83,1.83,0,0,1,.74.49,1.86,1.86,0,0,1,.4.76,3.64,3.64,0,0,1,.12,1v3.9l-.4.07-.58.08-.7.07-.75,0a4.1,4.1,0,0,1-1-.11,2.19,2.19,0,0,1-.77-.34,1.57,1.57,0,0,1-.5-.62,2.16,2.16,0,0,1-.18-.92,1.77,1.77,0,0,1,.21-.89,1.68,1.68,0,0,1,.57-.6,2.66,2.66,0,0,1,.84-.34,4.61,4.61,0,0,1,1-.11l.35,0,.34,0,.28.05.17,0v-.31a2.51,2.51,0,0,0-.06-.55,1.24,1.24,0,0,0-.22-.48,1.08,1.08,0,0,0-.43-.34,1.67,1.67,0,0,0-.7-.13,5.29,5.29,0,0,0-1,.08,3.5,3.5,0,0,0-.62.16l-.13-.92a3.4,3.4,0,0,1,.72-.19A6.18,6.18,0,0,1,494.75,346.36Zm.1,5.59.7,0a3.21,3.21,0,0,0,.51-.07V350a1.48,1.48,0,0,0-.39-.1,4.45,4.45,0,0,0-.65,0,4.33,4.33,0,0,0-.53,0,1.66,1.66,0,0,0-.52.15,1.1,1.1,0,0,0-.39.31.82.82,0,0,0-.16.52.9.9,0,0,0,.38.83A2,2,0,0,0,494.84,351.95Z" style="fill:#158696"/><path d="M500.87,352.87a2.14,2.14,0,0,1-1.46-.44,1.75,1.75,0,0,1-.43-1.31v-7.49l1.12-.19v7.5a1.78,1.78,0,0,0,0,.46.62.62,0,0,0,.16.29.69.69,0,0,0,.29.16,3.16,3.16,0,0,0,.44.09Z" style="fill:#158696"/><path d="M68.34,212.81V204.5h5.08v1H69.5V208H73v1H69.5v2.88h4.21v1Z" style="fill:#158696"/><path d="M75.12,206.75q.38-.1,1-.2a8.85,8.85,0,0,1,1.46-.11,3.17,3.17,0,0,1,1.24.21,1.93,1.93,0,0,1,.79.59,2.27,2.27,0,0,1,.41.91,5.25,5.25,0,0,1,.12,1.16v3.5H79v-3.26a5.35,5.35,0,0,0-.08-1,1.67,1.67,0,0,0-.26-.66,1,1,0,0,0-.48-.37,2.1,2.1,0,0,0-.74-.11h-.37l-.37,0-.31,0-.2,0v5.27H75.12Z" style="fill:#158696"/><path d="M83.05,206.57h2.36v.94H83.05v2.88a3.44,3.44,0,0,0,.07.77,1.16,1.16,0,0,0,.22.48.78.78,0,0,0,.36.25,1.6,1.6,0,0,0,.5.07,2.36,2.36,0,0,0,.81-.11l.43-.16.22.92a4.12,4.12,0,0,1-.59.21,3.35,3.35,0,0,1-1,.13,2.91,2.91,0,0,1-1.05-.16,1.53,1.53,0,0,1-.67-.49,1.94,1.94,0,0,1-.35-.8,5.24,5.24,0,0,1-.1-1.1v-5.57l1.12-.19Z" style="fill:#158696"/><path d="M86.36,209.7a4,4,0,0,1,.24-1.45,3,3,0,0,1,.64-1,2.59,2.59,0,0,1,.91-.61,2.84,2.84,0,0,1,1.06-.2,2.4,2.4,0,0,1,1.93.79,3.62,3.62,0,0,1,.67,2.39v.19a1.74,1.74,0,0,1,0,.21H87.53a2.28,2.28,0,0,0,.56,1.48,2.06,2.06,0,0,0,1.54.5,4.1,4.1,0,0,0,1-.1,3.53,3.53,0,0,0,.61-.2l.16.94a3.28,3.28,0,0,1-.71.23,5.07,5.07,0,0,1-1.16.12,3.67,3.67,0,0,1-1.41-.25,2.63,2.63,0,0,1-1-.68,2.76,2.76,0,0,1-.57-1A4.34,4.34,0,0,1,86.36,209.7Zm4.28-.61a1.87,1.87,0,0,0-.38-1.24,1.3,1.3,0,0,0-1.07-.49,1.47,1.47,0,0,0-.68.15,1.6,1.6,0,0,0-.5.39,1.79,1.79,0,0,0-.32.55,2.74,2.74,0,0,0-.15.64Z" style="fill:#158696"/><path d="M95.72,206.44l.33,0,.37,0,.33.06.22.05-.19,1-.44-.11a3.84,3.84,0,0,0-.79-.07,2.93,2.93,0,0,0-.62.07l-.4.09v5.24H93.42v-6a7.63,7.63,0,0,1,1-.27A6.32,6.32,0,0,1,95.72,206.44Z" style="fill:#158696"/><path d="M103.55,209.7a4.4,4.4,0,0,1-.19,1.31,3,3,0,0,1-.55,1,2.48,2.48,0,0,1-.88.67,2.83,2.83,0,0,1-1.19.24,2.9,2.9,0,0,1-1-.14,3,3,0,0,1-.62-.28V215H98.05v-8.27l1-.21a7.33,7.33,0,0,1,1.37-.11,3.5,3.5,0,0,1,1.3.23,2.79,2.79,0,0,1,1,.65,2.87,2.87,0,0,1,.63,1A3.94,3.94,0,0,1,103.55,209.7Zm-1.16,0a2.4,2.4,0,0,0-.54-1.68,1.86,1.86,0,0,0-1.44-.59,6.6,6.6,0,0,0-.79,0,3.11,3.11,0,0,0-.45.08v3.94a2.29,2.29,0,0,0,.59.32,2.21,2.21,0,0,0,.84.16,1.79,1.79,0,0,0,.82-.17,1.5,1.5,0,0,0,.56-.48,2,2,0,0,0,.31-.72A4,4,0,0,0,102.38,209.7Z" style="fill:#158696"/><path d="M107.42,206.44l.33,0,.37,0,.33.06.22.05-.19,1-.44-.11a3.84,3.84,0,0,0-.79-.07,2.93,2.93,0,0,0-.62.07l-.4.09v5.24h-1.12v-6a7.63,7.63,0,0,1,1-.27A6.32,6.32,0,0,1,107.42,206.44Z" style="fill:#158696"/><path d="M110.3,205.44a.72.72,0,0,1-.51-.2.78.78,0,0,1,0-1.07.76.76,0,0,1,1,0,.78.78,0,0,1,0,1.07A.72.72,0,0,1,110.3,205.44Zm.56,7.37h-1.12v-6.24h1.12Z" style="fill:#158696"/><path d="M114.24,212a2.19,2.19,0,0,0,1-.18.61.61,0,0,0,.33-.58.77.77,0,0,0-.32-.65,5.15,5.15,0,0,0-1.07-.54l-.69-.29a2.42,2.42,0,0,1-.57-.35,1.53,1.53,0,0,1-.38-.49,1.57,1.57,0,0,1-.14-.71,1.59,1.59,0,0,1,.61-1.31,2.61,2.61,0,0,1,1.67-.49l.53,0,.49.07.4.09.27.08-.2,1a2.81,2.81,0,0,0-.56-.2,3.64,3.64,0,0,0-.92-.1,1.71,1.71,0,0,0-.82.19.62.62,0,0,0-.35.58.79.79,0,0,0,.08.36.83.83,0,0,0,.24.28,2,2,0,0,0,.4.23l.58.23q.44.17.79.33a2.48,2.48,0,0,1,.59.38,1.45,1.45,0,0,1,.38.52,1.9,1.9,0,0,1,.13.75,1.49,1.49,0,0,1-.64,1.31,3.2,3.2,0,0,1-1.83.44,4.79,4.79,0,0,1-1.3-.14,6.61,6.61,0,0,1-.64-.21l.2-1,.61.22A3.53,3.53,0,0,0,114.24,212Z" style="fill:#158696"/><path d="M117.79,209.7a4,4,0,0,1,.24-1.45,3,3,0,0,1,.64-1,2.59,2.59,0,0,1,.91-.61,2.84,2.84,0,0,1,1.06-.2,2.4,2.4,0,0,1,1.93.79,3.62,3.62,0,0,1,.67,2.39v.19a1.74,1.74,0,0,1,0,.21H119a2.28,2.28,0,0,0,.56,1.48,2.06,2.06,0,0,0,1.54.5,4.1,4.1,0,0,0,1-.1,3.53,3.53,0,0,0,.61-.2l.16.94a3.28,3.28,0,0,1-.71.23,5.07,5.07,0,0,1-1.16.12,3.67,3.67,0,0,1-1.41-.25,2.63,2.63,0,0,1-1-.68,2.76,2.76,0,0,1-.57-1A4.34,4.34,0,0,1,117.79,209.7Zm4.28-.61a1.87,1.87,0,0,0-.38-1.24,1.3,1.3,0,0,0-1.07-.49,1.47,1.47,0,0,0-.68.15,1.6,1.6,0,0,0-.5.39,1.79,1.79,0,0,0-.32.55,2.74,2.74,0,0,0-.15.64Z" style="fill:#158696"/><path d="M69.14,227.39a4.26,4.26,0,0,1-1.6-.29,3.4,3.4,0,0,1-1.24-.84,3.79,3.79,0,0,1-.8-1.36,5.62,5.62,0,0,1-.28-1.85,5,5,0,0,1,.32-1.85,4,4,0,0,1,.86-1.36,3.63,3.63,0,0,1,1.26-.84,4.1,4.1,0,0,1,1.54-.29,5.48,5.48,0,0,1,.93.07,5.67,5.67,0,0,1,.72.17,3.44,3.44,0,0,1,.5.19l.26.14-.34,1a1.91,1.91,0,0,0-.31-.16l-.46-.17a4.17,4.17,0,0,0-.56-.14,3.53,3.53,0,0,0-.62-.05,3,3,0,0,0-1.19.23,2.45,2.45,0,0,0-.9.66,3,3,0,0,0-.57,1.05,4.54,4.54,0,0,0-.2,1.39,4.94,4.94,0,0,0,.17,1.36,3,3,0,0,0,.52,1.05,2.34,2.34,0,0,0,.87.68,2.89,2.89,0,0,0,1.22.24,4.47,4.47,0,0,0,1.33-.17,5.83,5.83,0,0,0,.79-.3l.3,1a1.66,1.66,0,0,1-.3.15,4.11,4.11,0,0,1-.54.17,6.88,6.88,0,0,1-1.69.2Z" style="fill:#158696"/><path d="M78.26,224.09a4,4,0,0,1-.22,1.34,3.08,3.08,0,0,1-.61,1,2.66,2.66,0,0,1-.93.67,3.07,3.07,0,0,1-2.35,0,2.66,2.66,0,0,1-.93-.67,3.07,3.07,0,0,1-.61-1,4.27,4.27,0,0,1,0-2.68,3.06,3.06,0,0,1,.61-1,2.67,2.67,0,0,1,.93-.67,3.07,3.07,0,0,1,2.35,0,2.67,2.67,0,0,1,.93.67,3.07,3.07,0,0,1,.61,1A4,4,0,0,1,78.26,224.09Zm-1.16,0a2.69,2.69,0,0,0-.47-1.67,1.66,1.66,0,0,0-2.58,0,3.19,3.19,0,0,0,0,3.35,1.66,1.66,0,0,0,2.58,0A2.69,2.69,0,0,0,77.1,224.09Z" style="fill:#158696"/><path d="M79.83,221.15q.38-.1,1-.2a8.85,8.85,0,0,1,1.46-.11,3.17,3.17,0,0,1,1.24.21,1.93,1.93,0,0,1,.79.59,2.27,2.27,0,0,1,.41.91,5.25,5.25,0,0,1,.12,1.16v3.5H83.76v-3.26a5.35,5.35,0,0,0-.08-1,1.67,1.67,0,0,0-.26-.66,1,1,0,0,0-.48-.37,2.1,2.1,0,0,0-.74-.11h-.37l-.37,0-.31,0-.2,0v5.27H79.83Z" style="fill:#158696"/><path d="M86.72,221.15q.38-.1,1-.2a8.85,8.85,0,0,1,1.46-.11,3.17,3.17,0,0,1,1.24.21,1.93,1.93,0,0,1,.79.59,2.27,2.27,0,0,1,.41.91,5.25,5.25,0,0,1,.12,1.16v3.5H90.65v-3.26a5.35,5.35,0,0,0-.08-1,1.67,1.67,0,0,0-.26-.66,1,1,0,0,0-.48-.37,2.1,2.1,0,0,0-.74-.11h-.37l-.37,0-.31,0-.2,0v5.27H86.72Z" style="fill:#158696"/><path d="M93.26,224.1a4,4,0,0,1,.24-1.45,3,3,0,0,1,.64-1,2.59,2.59,0,0,1,.91-.61,2.84,2.84,0,0,1,1.06-.2,2.4,2.4,0,0,1,1.93.79,3.62,3.62,0,0,1,.67,2.39v.19a1.74,1.74,0,0,1,0,.21H94.43a2.28,2.28,0,0,0,.56,1.48,2.06,2.06,0,0,0,1.54.5,4.1,4.1,0,0,0,1-.1,3.53,3.53,0,0,0,.61-.2l.16.94a3.28,3.28,0,0,1-.71.23,5.07,5.07,0,0,1-1.16.12,3.67,3.67,0,0,1-1.41-.25,2.63,2.63,0,0,1-1-.68,2.76,2.76,0,0,1-.57-1A4.34,4.34,0,0,1,93.26,224.1Zm4.28-.61a1.87,1.87,0,0,0-.38-1.24,1.3,1.3,0,0,0-1.07-.49,1.47,1.47,0,0,0-.68.15,1.6,1.6,0,0,0-.5.39,1.79,1.79,0,0,0-.32.55,2.74,2.74,0,0,0-.15.64Z" style="fill:#158696"/><path d="M103,227.36a3.39,3.39,0,0,1-1.33-.24,2.66,2.66,0,0,1-1-.67,2.78,2.78,0,0,1-.58-1,4.24,4.24,0,0,1-.19-1.31,4,4,0,0,1,.21-1.32,3.11,3.11,0,0,1,.59-1,2.66,2.66,0,0,1,.94-.68,3,3,0,0,1,1.24-.25,5,5,0,0,1,.84.07,3.93,3.93,0,0,1,.8.23l-.25.95a2.68,2.68,0,0,0-.58-.19,3.27,3.27,0,0,0-.7-.07,1.78,1.78,0,0,0-1.43.59,2.59,2.59,0,0,0-.5,1.72,3.51,3.51,0,0,0,.11.92,1.9,1.9,0,0,0,.36.72,1.61,1.61,0,0,0,.63.46,2.41,2.41,0,0,0,.94.16,3.57,3.57,0,0,0,.8-.08,3,3,0,0,0,.56-.18l.16.94a1.15,1.15,0,0,1-.28.11l-.41.1-.49.07Z" style="fill:#158696"/><path d="M106.94,221h2.36v.94h-2.36v2.88a3.44,3.44,0,0,0,.07.77,1.16,1.16,0,0,0,.22.48.78.78,0,0,0,.36.25,1.6,1.6,0,0,0,.5.07,2.36,2.36,0,0,0,.81-.11l.43-.16.22.92a4.12,4.12,0,0,1-.59.21,3.35,3.35,0,0,1-1,.13,2.91,2.91,0,0,1-1.05-.16,1.53,1.53,0,0,1-.67-.49,1.94,1.94,0,0,1-.35-.8,5.24,5.24,0,0,1-.1-1.1v-5.57l1.12-.19Z" style="fill:#158696"/><path d="M116.06,224.09a4,4,0,0,1-.22,1.34,3.08,3.08,0,0,1-.61,1,2.66,2.66,0,0,1-.93.67,3.07,3.07,0,0,1-2.35,0,2.66,2.66,0,0,1-.93-.67,3.07,3.07,0,0,1-.61-1,4.27,4.27,0,0,1,0-2.68,3.06,3.06,0,0,1,.61-1,2.67,2.67,0,0,1,.93-.67,3.07,3.07,0,0,1,2.35,0,2.67,2.67,0,0,1,.93.67,3.07,3.07,0,0,1,.61,1A4,4,0,0,1,116.06,224.09Zm-1.16,0a2.69,2.69,0,0,0-.47-1.67,1.66,1.66,0,0,0-2.58,0,3.19,3.19,0,0,0,0,3.35,1.66,1.66,0,0,0,2.58,0A2.69,2.69,0,0,0,114.9,224.09Z" style="fill:#158696"/><path d="M119.94,220.84l.33,0,.37,0,.33.06.22.05-.19,1-.44-.11a3.84,3.84,0,0,0-.79-.07,2.93,2.93,0,0,0-.62.07l-.4.09v5.24h-1.12v-6a7.63,7.63,0,0,1,1-.27A6.32,6.32,0,0,1,119.94,220.84Z" style="fill:#158696"/><path d="M123.72,226.41a2.19,2.19,0,0,0,1-.18.61.61,0,0,0,.33-.58.77.77,0,0,0-.32-.65,5.15,5.15,0,0,0-1.07-.54l-.69-.29a2.42,2.42,0,0,1-.57-.35,1.53,1.53,0,0,1-.38-.49,1.57,1.57,0,0,1-.14-.71,1.59,1.59,0,0,1,.61-1.31,2.61,2.61,0,0,1,1.67-.49l.53,0,.49.07.4.09.27.08-.2,1a2.81,2.81,0,0,0-.56-.2,3.64,3.64,0,0,0-.92-.1,1.71,1.71,0,0,0-.82.19.62.62,0,0,0-.35.58.79.79,0,0,0,.08.36.83.83,0,0,0,.24.28,2,2,0,0,0,.4.23l.58.23q.44.17.79.33a2.48,2.48,0,0,1,.59.38,1.45,1.45,0,0,1,.38.52,1.9,1.9,0,0,1,.13.75,1.49,1.49,0,0,1-.64,1.31,3.2,3.2,0,0,1-1.83.44,4.79,4.79,0,0,1-1.3-.14,6.61,6.61,0,0,1-.64-.21l.2-1,.61.22A3.53,3.53,0,0,0,123.72,226.41Z" style="fill:#158696"/><path d="M597.09,204.36a23.92,23.92,0,0,1,16.69,22.8c0,.68,0,1.3-.09,1.87,0,17-17.52,22-29.9,22H503.7a27,27,0,0,1-3.05-53.9A24.76,24.76,0,0,1,534.15,180a34,34,0,0,1,62.93,24.35Z" style="fill:#fff;fill-rule:evenodd"/><path d="M523.17,236.81c-.14-.36-.26-.71-.38-1.06l-.37-1.06h-3.77l-.76,2.12h-1.21q.48-1.32.9-2.44t.82-2.13q.4-1,.8-1.93t.83-1.82h1.07q.43.9.83,1.82t.8,1.93q.4,1,.82,2.13t.9,2.44Zm-1.09-3.08q-.39-1-.76-2t-.79-1.88q-.42.9-.8,1.88t-.75,2Z" style="fill:#158696"/><path d="M527.78,228.41a4.63,4.63,0,0,1,2.69.67,2.27,2.27,0,0,1,.94,2,2.7,2.7,0,0,1-.26,1.23,2.12,2.12,0,0,1-.74.83,3.41,3.41,0,0,1-1.18.46,7.77,7.77,0,0,1-1.57.14h-.92v3.08h-1.16v-8.2a6.52,6.52,0,0,1,1.1-.16Q527.27,228.41,527.78,228.41Zm.1,1q-.74,0-1.14,0v3.26h.88a6.74,6.74,0,0,0,1.08-.08,2.44,2.44,0,0,0,.81-.26,1.3,1.3,0,0,0,.51-.51,1.69,1.69,0,0,0,.18-.83,1.53,1.53,0,0,0-.19-.79,1.4,1.4,0,0,0-.5-.5,2.18,2.18,0,0,0-.74-.26A5.27,5.27,0,0,0,527.87,229.43Z" style="fill:#158696"/><path d="M532.87,228.5H534v8.32h-1.16Z" style="fill:#158696"/><path d="M543.94,232.72h1.16v3.89l-.41.11-.62.12-.77.1q-.42,0-.85,0a4.26,4.26,0,0,1-1.6-.29,3.4,3.4,0,0,1-1.24-.84,3.8,3.8,0,0,1-.8-1.36,5.58,5.58,0,0,1-.28-1.85,5,5,0,0,1,.32-1.85,4,4,0,0,1,.86-1.36,3.61,3.61,0,0,1,1.27-.84,4.18,4.18,0,0,1,1.55-.29,6.25,6.25,0,0,1,1,.07,5.75,5.75,0,0,1,.75.17,3.72,3.72,0,0,1,.51.19l.27.14-.37,1a3.14,3.14,0,0,0-.92-.38,4.64,4.64,0,0,0-1.18-.15,2.85,2.85,0,0,0-1.16.23,2.41,2.41,0,0,0-.89.66,3.11,3.11,0,0,0-.57,1.05,4.41,4.41,0,0,0-.2,1.39,4.94,4.94,0,0,0,.17,1.36,2.92,2.92,0,0,0,.53,1.05,2.4,2.4,0,0,0,.88.68,2.92,2.92,0,0,0,1.23.24,5.78,5.78,0,0,0,.86-.05,3.91,3.91,0,0,0,.51-.1Z" style="fill:#158696"/><path d="M548.87,230.42a3.24,3.24,0,0,1,1.13.17,1.85,1.85,0,0,1,.74.49,1.87,1.87,0,0,1,.4.76,3.65,3.65,0,0,1,.12,1v3.9l-.4.07-.58.08-.7.07q-.38,0-.75,0a4.1,4.1,0,0,1-1-.11,2.17,2.17,0,0,1-.77-.34,1.57,1.57,0,0,1-.5-.62,2.16,2.16,0,0,1-.18-.92,1.77,1.77,0,0,1,.21-.89,1.68,1.68,0,0,1,.57-.6,2.65,2.65,0,0,1,.84-.34,4.58,4.58,0,0,1,1-.11l.35,0,.34,0,.28.05.17,0v-.31a2.51,2.51,0,0,0-.06-.55,1.25,1.25,0,0,0-.22-.48,1.09,1.09,0,0,0-.43-.34,1.67,1.67,0,0,0-.7-.13,5.25,5.25,0,0,0-1,.08,3.42,3.42,0,0,0-.62.16l-.13-.92a3.45,3.45,0,0,1,.72-.19A6.23,6.23,0,0,1,548.87,230.42ZM549,236l.7,0a3,3,0,0,0,.51-.07v-1.86a1.44,1.44,0,0,0-.39-.1,4.37,4.37,0,0,0-.65,0,4.25,4.25,0,0,0-.53,0,1.66,1.66,0,0,0-.52.15,1.11,1.11,0,0,0-.39.31.82.82,0,0,0-.16.52.9.9,0,0,0,.38.83A2,2,0,0,0,549,236Z" style="fill:#158696"/><path d="M554.17,230.57h2.36v.94h-2.36v2.88a3.47,3.47,0,0,0,.07.77,1.16,1.16,0,0,0,.22.48.78.78,0,0,0,.36.25,1.6,1.6,0,0,0,.5.07,2.36,2.36,0,0,0,.81-.11l.43-.16.22.92a4.17,4.17,0,0,1-.59.21,3.35,3.35,0,0,1-1,.13,2.92,2.92,0,0,1-1.05-.16,1.53,1.53,0,0,1-.67-.49,1.94,1.94,0,0,1-.35-.8,5.24,5.24,0,0,1-.1-1.1v-5.57l1.12-.19Z" style="fill:#158696"/><path d="M557.48,233.7a4,4,0,0,1,.24-1.45,3,3,0,0,1,.64-1,2.59,2.59,0,0,1,.91-.61,2.85,2.85,0,0,1,1.06-.2,2.4,2.4,0,0,1,1.93.79,3.61,3.61,0,0,1,.67,2.39v.19a1.74,1.74,0,0,1,0,.21h-4.27a2.29,2.29,0,0,0,.56,1.48,2.06,2.06,0,0,0,1.54.5,4.11,4.11,0,0,0,1-.1,3.51,3.51,0,0,0,.61-.2l.16.94a3.29,3.29,0,0,1-.71.23,5.08,5.08,0,0,1-1.16.12,3.67,3.67,0,0,1-1.41-.25,2.64,2.64,0,0,1-1-.68,2.76,2.76,0,0,1-.57-1A4.34,4.34,0,0,1,557.48,233.7Zm4.28-.61a1.87,1.87,0,0,0-.38-1.24,1.3,1.3,0,0,0-1.07-.49,1.47,1.47,0,0,0-.68.15,1.6,1.6,0,0,0-.5.39,1.79,1.79,0,0,0-.32.55,2.74,2.74,0,0,0-.15.64Z" style="fill:#158696"/><path d="M569.63,236.81q-.34-.86-.71-2t-.69-2.31q-.31,1.2-.68,2.31t-.71,2h-1q-.55-1.24-1.08-2.82t-1-3.42H565q.12.56.29,1.22t.35,1.32q.19.66.39,1.27t.38,1.07q.2-.56.4-1.19t.38-1.27q.18-.64.34-1.26t.28-1.16h.92q.11.54.26,1.16t.34,1.26q.18.64.38,1.27t.4,1.19q.18-.46.38-1.07t.39-1.27q.19-.66.36-1.32t.29-1.22h1.15q-.47,1.84-1,3.42t-1.08,2.82Z" style="fill:#158696"/><path d="M575.87,230.42a3.24,3.24,0,0,1,1.13.17,1.85,1.85,0,0,1,.74.49,1.87,1.87,0,0,1,.4.76,3.65,3.65,0,0,1,.12,1v3.9l-.4.07-.58.08-.7.07q-.38,0-.75,0a4.1,4.1,0,0,1-1-.11,2.17,2.17,0,0,1-.77-.34,1.57,1.57,0,0,1-.5-.62,2.16,2.16,0,0,1-.18-.92,1.77,1.77,0,0,1,.21-.89,1.68,1.68,0,0,1,.57-.6,2.65,2.65,0,0,1,.84-.34,4.58,4.58,0,0,1,1-.11l.35,0,.34,0,.28.05.17,0v-.31a2.51,2.51,0,0,0-.06-.55,1.25,1.25,0,0,0-.22-.48,1.09,1.09,0,0,0-.43-.34,1.67,1.67,0,0,0-.7-.13,5.25,5.25,0,0,0-1,.08,3.42,3.42,0,0,0-.62.16l-.13-.92a3.45,3.45,0,0,1,.72-.19A6.23,6.23,0,0,1,575.87,230.42ZM576,236l.7,0a3,3,0,0,0,.51-.07v-1.86a1.44,1.44,0,0,0-.39-.1,4.37,4.37,0,0,0-.65,0,4.25,4.25,0,0,0-.53,0,1.66,1.66,0,0,0-.52.15,1.11,1.11,0,0,0-.39.31.82.82,0,0,0-.16.52.9.9,0,0,0,.38.83A2,2,0,0,0,576,236Z" style="fill:#158696"/><path d="M579.21,238a2.09,2.09,0,0,0,.34.11,1.65,1.65,0,0,0,.41.05,1.63,1.63,0,0,0,1-.29,2.54,2.54,0,0,0,.67-1q-.76-1.44-1.41-3.05a26.45,26.45,0,0,1-1.09-3.27h1.2q.13.54.32,1.16t.41,1.28q.23.66.49,1.32t.55,1.27q.46-1.26.79-2.5t.64-2.54h1.15q-.43,1.76-1,3.39t-1.14,3a6.46,6.46,0,0,1-.5.93,2.81,2.81,0,0,1-.57.64,2.08,2.08,0,0,1-.7.37,3,3,0,0,1-.88.12l-.28,0-.28,0-.25-.07-.16-.06Z" style="fill:#158696"/><path d="M252.72,240.63h4.77a.84.84,0,0,1,.61.27.89.89,0,0,1,.24.61.86.86,0,0,1-.85.85h-4.77a5.4,5.4,0,0,1-3.82-1.59h0a5.4,5.4,0,0,1-1.59-3.82V226.1a.86.86,0,0,1,.85-.85.9.9,0,0,1,.61.24.84.84,0,0,1,.27.61v10.84a3.71,3.71,0,0,0,3.69,3.69Zm7-3.69v-6.88a.87.87,0,0,1,.25-.62h0a.87.87,0,0,1,.62-.26.84.84,0,0,1,.62.27.89.89,0,0,1,.24.61v6.88h0a3.8,3.8,0,0,0,1.14,2.6,3.73,3.73,0,0,0,2.61,1.09h1a3.74,3.74,0,0,0,2.63-1.11h0a3.74,3.74,0,0,0,1.11-2.63v-6.82a.89.89,0,0,1,.24-.61h0a.84.84,0,0,1,.61-.27.87.87,0,0,1,.62.26h0a.87.87,0,0,1,.25.62v6.88h0a5.55,5.55,0,0,1-1.66,3.82,5.43,5.43,0,0,1-3.82,1.59h-1a5.43,5.43,0,0,1-3.82-1.59,5.55,5.55,0,0,1-1.66-3.82Zm26.74-2.34v6.88a.87.87,0,0,1-.25.62h0a.87.87,0,0,1-.62.26.84.84,0,0,1-.61-.27.89.89,0,0,1-.24-.61v-6.82a3.81,3.81,0,0,0-3.75-3.75h-2.23a3.72,3.72,0,0,0-2.59,1.08,3.78,3.78,0,0,0-1.16,2.57h0v6.91a.89.89,0,0,1-.24.61.84.84,0,0,1-.61.27.88.88,0,0,1-.62-.26h0a.87.87,0,0,1-.26-.62V234.6h0a5.55,5.55,0,0,1,1.66-3.82,5.43,5.43,0,0,1,3.82-1.59h2.23a5.5,5.5,0,0,1,3.84,1.61,5.38,5.38,0,0,1,1.63,3.81Zm7.65,6h4.68a.86.86,0,0,1,.85.85.89.89,0,0,1-.24.61.84.84,0,0,1-.61.27h-4.68a5.53,5.53,0,0,1-5.48-5.48v-2.23a5.53,5.53,0,0,1,5.48-5.48h4.68a.84.84,0,0,1,.61.27h0a.89.89,0,0,1,.23.61.86.86,0,0,1-.85.85h-4.68a3.76,3.76,0,0,0-2.64,1.12h0a3.71,3.71,0,0,0-1.11,2.62v2.23a3.81,3.81,0,0,0,3.75,3.75Zm17.71-9.93a5.49,5.49,0,0,1,1.64,3.78h0v7a.84.84,0,0,1-.27.62.89.89,0,0,1-.61.24.85.85,0,0,1-.6-.25h0a.85.85,0,0,1-.25-.6v-7a3.68,3.68,0,0,0-1.1-2.59h0a3.68,3.68,0,0,0-2.59-1.1h-1a3.66,3.66,0,0,0-2.56,1.06,3.72,3.72,0,0,0-1.13,2.55h0v7.05a.84.84,0,0,1-.27.62.89.89,0,0,1-.61.24.85.85,0,0,1-.6-.25h0a.85.85,0,0,1-.25-.6V226.1a.86.86,0,0,1,.85-.85.89.89,0,0,1,.61.24.84.84,0,0,1,.27.61v4.46a4.89,4.89,0,0,1,1.55-1,5.92,5.92,0,0,1,2.13-.43h1a5.38,5.38,0,0,1,3.77,1.58Zm14.73-5.19a3.86,3.86,0,0,1,1.19.73l.08.09,0,0a3.62,3.62,0,0,1,.79,1.17,3.7,3.7,0,0,1,.3,1.45,4.43,4.43,0,0,1-.39,1.7,2.49,2.49,0,0,1-.73,1,5.83,5.83,0,0,1,2.18,2,5.69,5.69,0,0,1-4.81,8.68h-5.67a3.74,3.74,0,0,1-1.36-.26,3.84,3.84,0,0,1-1.19-.74h0l-.09-.09h0a3.77,3.77,0,0,1-1.09-2.65V229a3.77,3.77,0,0,1,.29-1.43,3.72,3.72,0,0,1,.81-1.22l.09-.09h0a3.85,3.85,0,0,1,1.18-.74h0a3.75,3.75,0,0,1,1.36-.26h5.67a3.76,3.76,0,0,1,1.36.26Zm-.35,6.38.17-.17-.38.13.21,0Zm-8.1,8.16.13.13.07.05a2,2,0,0,0,.58.3,2.08,2.08,0,0,0,.64.1h5.67a4,4,0,0,0,2.78-1.18h0a3.91,3.91,0,0,0,1.16-2.77,4,4,0,0,0-1.16-2.78,3.89,3.89,0,0,0-2.76-1.17h-7.71v5.89a2.07,2.07,0,0,0,.15.78h0a2,2,0,0,0,.43.65Zm.78-13a2.05,2.05,0,0,0-.58.3l-.08.06-.12.12h0a2,2,0,0,0-.43.65,2.06,2.06,0,0,0-.15.78v2h7.71a2,2,0,0,0,1.4-.59,2,2,0,0,0,.58-1.42,2.06,2.06,0,0,0-.15-.78,2,2,0,0,0-.43-.65h0l0,0-.19-.14a2.09,2.09,0,0,0-.57-.3,2,2,0,0,0-.62-.1h-5.67a2.07,2.07,0,0,0-.64.1Zm15.56,2.1h5.12a5.53,5.53,0,0,1,3.88,1.62,5.42,5.42,0,0,1,1.62,3.85v2.23a5.42,5.42,0,0,1-1.62,3.85,5.53,5.53,0,0,1-3.88,1.62h-3.21a4.36,4.36,0,0,1-3.1-1.28h0a4.36,4.36,0,0,1,3.1-7.45h6.82a3.82,3.82,0,0,0-3.61-2.72H334.4a.85.85,0,0,1-.6-.25h0a.85.85,0,0,1-.25-.6.89.89,0,0,1,.24-.61.84.84,0,0,1,.61-.27Zm1.91,11.45h3.21a3.72,3.72,0,0,0,2.63-1.1h0a3.76,3.76,0,0,0,1.11-2.64v-1.52h-7a2.65,2.65,0,0,0-1.87.77,2.6,2.6,0,0,0-.77,1.85,2.64,2.64,0,0,0,2.65,2.65Zm23.51-15.34a.89.89,0,0,1,.24.61v11a5.4,5.4,0,0,1-1.59,3.82h0a5.4,5.4,0,0,1-3.82,1.59h-2.17a5.4,5.4,0,0,1-3.82-1.59h0a5.4,5.4,0,0,1-1.59-3.82v-2.4a5.41,5.41,0,0,1,1.6-3.82h0a5.4,5.4,0,0,1,3.82-1.6h2.17a5.52,5.52,0,0,1,2.09.42,5.21,5.21,0,0,1,1.59,1V225.9a.87.87,0,0,1,.25-.62h0a.87.87,0,0,1,.62-.25.84.84,0,0,1,.62.27Zm-1.49,11.65v-2.49a3.54,3.54,0,0,0-1.1-2.52,3.74,3.74,0,0,0-2.59-1.09h-2.17a3.7,3.7,0,0,0-3.69,3.69v2.4a3.71,3.71,0,0,0,3.69,3.69h2.17a3.71,3.71,0,0,0,3.69-3.69Zm13.39,2.71a9.17,9.17,0,0,1-2.53.28.6.6,0,0,0-.35.08.17.17,0,0,0,0,.14.26.26,0,0,0,.07.18h0a.21.21,0,0,0,.15.06,4.29,4.29,0,0,1,3,1.25,4.26,4.26,0,0,1,0,6h0a4.29,4.29,0,0,1-6.07,0h0a4.28,4.28,0,0,1-1.26-3A.84.84,0,0,1,365,244a.89.89,0,0,1,.61-.24.85.85,0,0,1,.6.25h0a.85.85,0,0,1,.25.6,2.56,2.56,0,0,0,.75,1.81h0a2.56,2.56,0,0,0,3.62-3.62h0a2.56,2.56,0,0,0-1.81-.75,2,2,0,0,1-1.38-.57h0a1.94,1.94,0,0,1-.57-1.38,1.8,1.8,0,0,1,0-.27,5.27,5.27,0,0,1-3.17-1.76,5.31,5.31,0,0,1,.24-7.34h0a5.38,5.38,0,0,1,3.8-1.6h2.17a5.38,5.38,0,0,1,3.81,9.17h0a5,5,0,0,1-2.2,1.31Zm1-7.65a3.67,3.67,0,0,0-2.58-1.09h-2.17a3.69,3.69,0,0,0-3.66,3.66,3.6,3.6,0,0,0,1.08,2.55,3.67,3.67,0,0,0,2.58,1.08h2.17a3.69,3.69,0,0,0,2.58-1.08,3.59,3.59,0,0,0,1.08-2.55,3.63,3.63,0,0,0-1.08-2.57Zm16.94,5.87H379.45l.23.52h0A3.69,3.69,0,0,0,381,240a3.75,3.75,0,0,0,2,.62h5.38a.86.86,0,0,1,.85.85.9.9,0,0,1-.24.61.84.84,0,0,1-.61.27h-5.38a5.3,5.3,0,0,1-3.87-1.66,5.88,5.88,0,0,1-1.6-4.05v-2a5.53,5.53,0,0,1,5.48-5.48h2.23a5.53,5.53,0,0,1,5.48,5.48v2a1.21,1.21,0,0,1-.33.84h0a1.15,1.15,0,0,1-.83.36Zm-10.28-1.73h9.72v-1.49a3.81,3.81,0,0,0-3.75-3.75h-2.23a3.81,3.81,0,0,0-3.75,3.75v1.49Zm13.48,5.33V234.6h0a5.55,5.55,0,0,1,1.66-3.82,5.43,5.43,0,0,1,3.82-1.59h1.56a5.46,5.46,0,0,1,2.11.42,5.3,5.3,0,0,1,1.74,1.18.71.71,0,0,1,.2.27h0a.88.88,0,0,1-.16,1,.84.84,0,0,1-.61.27.89.89,0,0,1-.32-.06h0a.85.85,0,0,1-.3-.2h0a4.06,4.06,0,0,0-1.24-.82,3.64,3.64,0,0,0-1.4-.29H398.3a3.83,3.83,0,0,0-3.75,3.66h0v6.91a.89.89,0,0,1-.24.61.84.84,0,0,1-.61.27.88.88,0,0,1-.62-.26h0A.87.87,0,0,1,392.82,241.48Z" style="fill:#fff;fill-rule:evenodd"/><path d="M325,139.51a48.71,48.71,0,0,1,40.17,76.26H284.8A48.71,48.71,0,0,1,325,139.51Z" style="fill:#76cfe8;fill-rule:evenodd"/><path d="M325,137.67a50.53,50.53,0,0,1,41.68,79.15,1.38,1.38,0,0,1-1.51.8H285.38c-1.36,0-1.6-.07-2.09-.8A50.54,50.54,0,0,1,325,137.67Zm33.14,17.41a46.87,46.87,0,0,0-72.34,58.86h78.39a46.89,46.89,0,0,0-6.05-58.86Z" style="fill:#fff;fill-rule:evenodd"/><path d="M366.54,190.63a3.86,3.86,0,0,1-4.72,4.72,3.85,3.85,0,0,1,4.72-4.72Z" style="fill:#ffc60a;fill-rule:evenodd"/><path d="M367.23,190.48a4.56,4.56,0,0,1-5.59,5.55.71.71,0,0,1-.5-.5h0a4.6,4.6,0,0,1,0-2.37,4.54,4.54,0,0,1,1.18-2h0a4.54,4.54,0,0,1,2-1.18,4.59,4.59,0,0,1,2.37,0,.71.71,0,0,1,.51.54Zm-1.38,2a3.2,3.2,0,0,0,.08-1.21,3.17,3.17,0,0,0-1.21.08,3.14,3.14,0,0,0-1.4.81h0a3.14,3.14,0,0,0-.89,2.62,3.19,3.19,0,0,0,1.21-.08,3.16,3.16,0,0,0,2.22-2.22Z" style="fill:#2d1b1f;fill-rule:evenodd"/><path d="M337.71,160.78c1.48-1.44,4.22-3.47,6.84-2.09a4.43,4.43,0,0,1,2.52,3.8A31.8,31.8,0,0,0,337.71,160.78Z" style="fill:#726459;fill-rule:evenodd"/><circle cx="363.11" cy="195.33" r="1.96" style="fill:#ffc60a"/><path d="M363.11,192.65a2.67,2.67,0,0,1,1.89,4.56h0a2.67,2.67,0,0,1-3.78,0h0a2.67,2.67,0,0,1,0-3.78h0a2.67,2.67,0,0,1,1.89-.78Zm.89,1.79a1.25,1.25,0,0,0-1.77,0h0a1.26,1.26,0,0,0,0,1.77h0a1.26,1.26,0,0,0,1.77,0h0a1.25,1.25,0,0,0,0-1.77Z" style="fill:#2d1b1f;fill-rule:evenodd"/><path d="M360.38,195.49a3.86,3.86,0,0,0,4.72,4.72,3.85,3.85,0,0,0-4.72-4.72Z" style="fill:#ffc60a;fill-rule:evenodd"/><path d="M361,196.1a3.14,3.14,0,0,0,.9,2.62,3.13,3.13,0,0,0,1.41.81,3.18,3.18,0,0,0,1.21.08,3.15,3.15,0,0,0-.89-2.62h0a3.15,3.15,0,0,0-1.41-.81,3.18,3.18,0,0,0-1.21-.08Zm-1.29,1.58a4.58,4.58,0,0,1,0-2.33.71.71,0,0,1,.51-.54,4.56,4.56,0,0,1,4.4,1.18h0a4.54,4.54,0,0,1,1.18,2,4.59,4.59,0,0,1,0,2.37h0a.71.71,0,0,1-.5.5,4.56,4.56,0,0,1-5.59-3.22Z" style="fill:#2d1b1f;fill-rule:evenodd"/><path d="M337.22,160.27a10.27,10.27,0,0,1,3.91-2.5,4.78,4.78,0,0,1,3.75.3h0a5.4,5.4,0,0,1,2.21,2.06,5.26,5.26,0,0,1,.68,2.32.71.71,0,0,1-.94.71h0a27.55,27.55,0,0,0-4.31-1.14,35.38,35.38,0,0,0-4.84-.53.71.71,0,0,1-.46-1.21Zm4.32-1.15a7.08,7.08,0,0,0-2,1.07q1.71.15,3.28.44a29.78,29.78,0,0,1,3.37.81,3.48,3.48,0,0,0-.28-.6,4,4,0,0,0-1.65-1.52h0A3.42,3.42,0,0,0,341.54,159.12Z" style="fill:#2d1b1f;fill-rule:evenodd"/><path d="M295.89,189.11h0a4.06,4.06,0,0,1-2.33-7.76,3.71,3.71,0,0,1,4.71-3.58,5.1,5.1,0,0,1,10,1.32,3.59,3.59,0,0,1,.15,7Z" style="fill:#e6e6e5;fill-rule:evenodd"/><path d="M296.06,189.83a4.8,4.8,0,0,1-3.21-9,4.46,4.46,0,0,1,4.51-4l.42,0a5.88,5.88,0,0,1,1.35-2,5.82,5.82,0,0,1,2.72-1.5h.05a5.84,5.84,0,0,1,7.11,5h0v.11a4.36,4.36,0,0,1,1.6,1,4.33,4.33,0,0,1-2,7.34l-12.57,3h0ZM293.22,188a3.31,3.31,0,0,0,2.49.4h0l12.57-3a2.84,2.84,0,0,0-.08-5.55.75.75,0,0,1-.64-.73,4.33,4.33,0,0,0,0-.52,4.41,4.41,0,0,0-.08-.46l0-.08a4.35,4.35,0,0,0-5.19-3.19l-.09,0a4.33,4.33,0,0,0-2,1.1,4.39,4.39,0,0,0-1.17,2v0a.75.75,0,0,1-.92.52,3,3,0,0,0-1.5,0,3,3,0,0,0-2.27,2.89h0a.74.74,0,0,1-.49.7,3.31,3.31,0,0,0-.6,5.93ZM309,178.4v.11A.74.74,0,0,0,309,178.4Z" style="fill:#2d1b1f;fill-rule:evenodd"/><path d="M289.69,191.54h0a5.88,5.88,0,0,1-3.38-11.25,5.38,5.38,0,0,1,6.84-5.2A7.41,7.41,0,0,1,307.71,177a5.21,5.21,0,0,1,.22,10.17Z" style="fill:#e6e6e5;fill-rule:evenodd"/><path d="M289.9,192.22l-.1,0a6.59,6.59,0,0,1-4.19-12.44,6.09,6.09,0,0,1,6.19-5.62,6,6,0,0,1,.86.08,8.11,8.11,0,0,1,5.75-5.15h0a8.11,8.11,0,0,1,9.73,6h0v0h0a8.32,8.32,0,0,1,.16.89v0c0,.13,0,.25,0,.37a5.92,5.92,0,0,1,4.07,4.29h0v0h0a5.91,5.91,0,0,1-4.39,7.08h0l-18.14,4.34Zm-4.3-2a5.16,5.16,0,0,0,3.89.63h0l18.19-4.35.09,0a4.49,4.49,0,0,0,3.3-5.37l0-.08a4.5,4.5,0,0,0-3.47-3.32.71.71,0,0,1-.61-.7,6.52,6.52,0,0,0,0-.78h0a7,7,0,0,0-.13-.74l0-.08a6.69,6.69,0,0,0-8-4.92l-.08,0a6.64,6.64,0,0,0-3.07,1.7,6.73,6.73,0,0,0-1.79,3v.05a.71.71,0,0,1-.87.49,4.66,4.66,0,0,0-1.17-.18,4.72,4.72,0,0,0-1.18.13,4.68,4.68,0,0,0-3.59,4.56h0a.71.71,0,0,1-.47.67,5.18,5.18,0,0,0-.94,9.28Zm21.35-14h0Zm1.13,11.64h0Z" style="fill:#2d1b1f;fill-rule:evenodd"/><path d="M295.47,188l1.94-.54.6-.17,1.48,5.28c.26.92.34,1,.06,0l-1.48-5.28,1.31-.37,1.37-.38,1.48,5.28c.24.86.46.81.21-.06L301,186.48l.6-.17,1.9-.53,1.7,6.07a3.21,3.21,0,0,1-2.13,3.92l1.76,4.7a8.84,8.84,0,0,0-2.94.28l-.84-4.42a3.21,3.21,0,0,1-3.85-2.24Z" style="fill:#e6e6e5;fill-rule:evenodd"/><path d="M295.28,187.33l1.94-.54h0l.57-.16h0l.06,0h0l1.27-.36h0l1.37-.38.12,0,.1,0,.6-.17,1.9-.53a.71.71,0,0,1,.87.49l1.7,6.08v0a3.92,3.92,0,0,1-1.92,4.45l1.53,4.06a.71.71,0,0,1-.71,1h0a8.93,8.93,0,0,0-1.42,0,7.1,7.1,0,0,0-1.28.24.71.71,0,0,1-.88-.49.81.81,0,0,1,0-.1l-.7-3.71a3.92,3.92,0,0,1-4-2.85l-1.7-6.08a.71.71,0,0,1,.49-.87Zm2.09.32-1.22.17.28,1,1.42,5.09a2.5,2.5,0,0,0,3,1.74h0a.71.71,0,0,1,.83.57l.7,3.69c.25,0,.51-.08.78-.11l.57,0L302.38,196l0-.07a.71.71,0,0,1,.47-.89,2.5,2.5,0,0,0,1.67-3v0l-1.59-5.66-1.24-.1,1.47,5.28a2.58,2.58,0,0,1,.13.88h0a.71.71,0,0,1-.56.66.72.72,0,0,1-.79-.3h0a2.52,2.52,0,0,1-.34-.78v0L300,186.53l-.3.19-.22.16-.34.1-.39.2,1.4,5h0c.11.38.17.63.18.73a.67.67,0,0,1-.62.88h0a.67.67,0,0,1-.76-.49h0c0-.12-.13-.37-.23-.72l-1.13-4-.25-.88Zm.54-1.06.84.5A.71.71,0,0,0,297.91,186.59Z" style="fill:#2d1b1f;fill-rule:evenodd"/><path d="M308.49,212.67c-.29.1-11.19-5.68-6.3-12.28,4.15-4.77,7.55,1.43,5.94,4.14C308.12,204.53,318.79,210.28,308.49,212.67Z" style="fill:#726459;fill-rule:evenodd"/><path d="M307.93,213.11a13.54,13.54,0,0,1-2.77-1.59,17.26,17.26,0,0,1-2.65-2.4,9.61,9.61,0,0,1-2-3.24,6.19,6.19,0,0,1,1.06-5.92l0,0h0c1.37-1.58,2.72-2.1,3.91-2h0a3.42,3.42,0,0,1,1.82.79,4.91,4.91,0,0,1,1.21,1.55,5.35,5.35,0,0,1,.43,3.94c2.28,1.37,10.15,6.69-.39,9.13a.71.71,0,0,1-.71-.24ZM306,210.39c1.29,1,2.2,1.58,2.25,1.6l.07,0c8.18-1.89.08-6.49-.51-6.81l-.06,0a.71.71,0,0,1-.25-1,3.55,3.55,0,0,0-.17-3.23,3.49,3.49,0,0,0-.86-1.1,2,2,0,0,0-1.07-.48h0c-.75-.08-1.67.32-2.69,1.49a4.83,4.83,0,0,0-.83,4.59,8.23,8.23,0,0,0,1.68,2.76A15.8,15.8,0,0,0,306,210.39Z" style="fill:#2d1b1f;fill-rule:evenodd"/><path d="M330.32,187.64c0,8.69-22.69,16.86-22.76,26.3h50.87c7.41-22.38,7.82-55.27-25.9-53.1-7.86,8.4-17.82,8.4-18.39,8.25C313.23,172.52,310.66,182.38,330.32,187.64Z" style="fill:#726459;fill-rule:evenodd"/><path d="M360.82,206c5-21.47,1.95-47.16-28.29-45.22-.28.3-.57.59-.86.88,6.86,6.32,21.56,14,24.8,19.14C359.86,186.18,362.5,193.31,360.82,206Z" style="fill:#e6e6e5;fill-rule:evenodd"/><path d="M314.25,169.19a11.71,11.71,0,0,0,.41,8.15,56.88,56.88,0,0,0,6-2.42c.76-.39,1-.9.15-1.48C319.37,172.44,316.56,170.65,314.25,169.19Z" style="fill:#2d1b1f;fill-rule:evenodd"/><path d="M330.32,187.64s9.93,2.68,15.74.78C345.24,192,334.23,199.88,330.32,187.64Z" style="fill:#2d1b1f;fill-rule:evenodd"/><circle cx="341.31" cy="176.25" r="3.38" transform="translate(82.71 460.29) rotate(-75)" style="fill:#2d1b1f"/><circle cx="340.33" cy="174.79" r="0.91" transform="translate(83.45 458.31) rotate(-75.01)" style="fill:#e6e6e5"/><path d="M307.53,204.13a.71.71,0,1,1,1.18.79s-.57,1-.89,1.5a.71.71,0,1,1-1.2-.75C307,205.13,307.53,204.13,307.53,204.13Z" style="fill:#2d1b1f;fill-rule:evenodd"/><polygon points="332.94 188.68 333.1 189.07 333.43 189.97 334.01 189.39 334.41 190.35 335.26 189.53 335.92 190.66 336.96 189.78 337.88 190.96 338.85 190.02 339.79 191.18 340.99 189.94 342.4 191.27 343.77 189.63 339.91 189.47 332.94 188.68" style="fill:#e6e6e5;fill-rule:evenodd"/><path d="M330.49,187s9.73,2.63,15.34.79a.71.71,0,0,1,.9.86c-.33,1.38-1.94,3.29-4.07,4.63a10.83,10.83,0,0,1-4.29,1.63h0a6.84,6.84,0,0,1-4.64-1c-1.64-1-3.09-2.94-4.09-6a.71.71,0,0,1,.85-.9Zm14.26,2.53c-4.62.89-10.71-.26-13.32-.85a8.3,8.3,0,0,0,3.06,4.06,5.46,5.46,0,0,0,3.71.76h0a9.41,9.41,0,0,0,3.72-1.42A10.45,10.45,0,0,0,344.75,189.49Z" style="fill:#2d1b1f;fill-rule:evenodd"/><path d="M331,187.64c0,4.79-6.09,9.4-12,13.91-4.9,3.71-9.71,7.35-10.6,10.64a8.75,8.75,0,0,0-.08,1.72l49.63.09c.13-.37.43-1.73.47-1.86,2.52-7.92,4.09-17,3.56-25.22a32.45,32.45,0,0,0-4.17-14.79A20.91,20.91,0,0,0,346.12,163a35.48,35.48,0,0,0-13.26-1.44,27,27,0,0,1-8.51,6,25.22,25.22,0,0,1-9.66,2.27,10.87,10.87,0,0,0,.47,7.56c1.62,3.39,5.76,7,15.35,9.59a.71.71,0,0,1,.53.68Zm-12.9,12.77c5.43-4.11,11-8.31,11.44-12.24-9.67-2.69-14-6.55-15.7-10.19a12.57,12.57,0,0,1-.42-9.08.71.71,0,0,1,.87-.5,21.63,21.63,0,0,0,9.45-2.15,25.56,25.56,0,0,0,8.24-5.9.7.7,0,0,1,.47-.22,37.08,37.08,0,0,1,14.07,1.48A22.3,22.3,0,0,1,359,171.4a33.82,33.82,0,0,1,4.38,15.43c.56,8.75-1.17,18.34-3.9,26.61a.71.71,0,0,1-.68.51H307.53a.71.71,0,0,1-.71-.71C306.82,209,312.42,204.74,318.13,200.42Z" style="fill:#231f20;fill-rule:evenodd"/><path d="M351.56,170s7.34-3.2,9.64.61-3.43,7.75-3.43,7.75l-3.88-3.49,1.19-1.65Z" style="fill:#726459;fill-rule:evenodd"/><path d="M351.28,169.37s7.9-3.45,10.52.9-3.62,8.69-3.64,8.7a.71.71,0,0,1-.87-.06h0l-3.88-3.49a.71.71,0,0,1-.08-1l.8-1.11-3.05-2.79a.71.71,0,0,1,.2-1.17Zm9.31,1.63c-1.5-2.48-5.73-1.4-7.71-.72l2.65,2.43a.71.71,0,0,1,.11.95l-.82,1.14,3,2.68C359,176.51,362.2,173.65,360.59,171Z" style="fill:#2d1b1f;fill-rule:evenodd"/><path d="M353.49,170.87c1.94-.42,4.43-.5,5.54,1.34,1.23,2-.25,4.12-1.51,5.37l-1.39-1.25-1.77-1.6,1-1.39a.65.65,0,0,0,0-.79l-.07-.07Z" style="fill:#2d1b1f;fill-rule:evenodd"/><path d="M350.48,168.63l.43-.18,1.17,1.07,3.48,3.19.08.08a.71.71,0,0,1,0,.87l-1.09,1.52,1.94,1.75,1.94,1.75,1.06,1c-.42.34-.7.53-.7.53a.71.71,0,0,1-.88-.05h0l-4.79-4.31a.71.71,0,0,1-.07-1l1.07-1.49-3.87-3.54a.71.71,0,0,1,0-1,.7.7,0,0,1,.24-.17Z" style="fill:#e6e6e5;fill-rule:evenodd"/><path d="M350.4,168.47h0l.43-.18.1,0,.08.08,1.17,1.07,3.48,3.19h0l.08.08h0a.89.89,0,0,1,0,1.09l-1,1.39,1.82,1.64,1.94,1.75,1.07,1,.16.14-.16.13-.38.29h0l-.34.25h0a.89.89,0,0,1-1,0h0l-.13-.11-4.79-4.3a.88.88,0,0,1-.29-.59h0a.88.88,0,0,1,.2-.63l1-1.35-3.75-3.44a.89.89,0,0,1-.06-1.25h0l.14-.12h0l.11-.05h.05Zm.47.19-.24.1h0l0,0-.09.05h0l-.08.07h0a.53.53,0,0,0-.14.38h0a.52.52,0,0,0,.17.36l3.87,3.55.12.11-.09.13-1.07,1.49h0a.53.53,0,0,0,.06.73l4.66,4.19h0l.13.11a.53.53,0,0,0,.65,0h0l.32-.24h0l.2-.16-.91-.82-1.94-1.75-1.94-1.75-.12-.11.09-.13,1.09-1.52a.52.52,0,0,0,.1-.33h0a.53.53,0,0,0-.12-.31l-.08-.08L352,169.66Z" style="fill:#e6e6e5;fill-rule:evenodd"/><path d="M325.92,194.61s-1.8,11.16,36.92.92c-1.37,4.31-17.65,17.71-42.47,17.71C317.47,204.15,324.2,192.62,325.92,194.61Z" style="fill:#ffc60a;fill-rule:evenodd"/><path d="M326.66,194.73c-.06.55-.6,9.74,36,.07a.75.75,0,0,1,.89,1c-.95,2.76-7.34,8.84-17.73,13.18a66.08,66.08,0,0,1-25.43,5,.75.75,0,0,1-.74-.6c-1.71-5.47-.12-11.73,1.87-15.64a14.12,14.12,0,0,1,1.84-2.83,3.18,3.18,0,0,1,2-1.29,1.33,1.33,0,0,1,1.1.49.75.75,0,0,1,.17.61Zm34.7,2c-32.3,8.26-35.85,1-36.18-1.46a3.83,3.83,0,0,0-.71.67,12.69,12.69,0,0,0-1.63,2.53c-1.8,3.54-3.26,9.13-1.92,14a64.49,64.49,0,0,0,24.3-4.88C353.69,204.08,359.33,199.52,361.37,196.69Z" style="fill:#231f20;fill-rule:evenodd"/><polygon points="291.6 186.78 288.24 192.68 290.77 193.11 290.06 199.74 294.52 191.93 292.38 191.43 294.91 188.23 291.6 186.78" style="fill:#2d1b1f;fill-rule:evenodd"/><path d="M292,187.87,289.58,192l1.33.23a.85.85,0,0,1,.7,1l-.28,2.57,1.88-3.3-1-.24a.85.85,0,0,1-.43-1.41l1.8-2.29-1.6-.7Zm-4.1,4.45,2.31-6.74c.21-.38,1.37.25,1.77.43l3.3,1.44h0a.87.87,0,0,1,.19.11.85.85,0,0,1,.14,1.19v1.17l-1.19.91.42.1h0a.85.85,0,0,1,.55,1.24l-.41.71-4.14,7.26a.85.85,0,0,1-1.59-.49l.63-5.84-1.39-.24h0a.85.85,0,0,1-.6-1.25Z" style="fill:#2d1b1f;fill-rule:evenodd"/><polygon points="291.22 185.79 289.03 192.29 291.02 192.63 290.4 198.44 294.3 191.6 292.6 191.2 295.02 187.81 291.22 185.79" style="fill:#ffc60a;fill-rule:evenodd"/><path d="M305.55,198.62a6.69,6.69,0,0,1,3-.79c1.16,0,.44.4-.57.88a8.67,8.67,0,0,0-2.18,1.31c-.44.47-1.22.37-1.16-.35A1.58,1.58,0,0,1,305.55,198.62Z" style="fill:#2d1b1f;fill-rule:evenodd"/><path d="M307,199.83a7.52,7.52,0,0,1,3.32-.89c2.34.08-2.13,1.31-3.1,2.47-.33.4-1.38.41-1.31-.39A1.78,1.78,0,0,1,307,199.83Z" style="fill:#2d1b1f;fill-rule:evenodd"/><path d="M307.68,201.84a6.26,6.26,0,0,1,2.76-.74c1.95.07-1.79,1.07-2.58,2.06-.41.51-1.14.34-1.09-.32A1.47,1.47,0,0,1,307.68,201.84Z" style="fill:#2d1b1f;fill-rule:evenodd"/><path d="M286.54,181a.71.71,0,1,1-.47-1.34,6.87,6.87,0,0,1,2.37-.33.71.71,0,0,1-.07,1.41A5.35,5.35,0,0,0,286.54,181Z" style="fill:#2d1b1f;fill-rule:evenodd"/><path d="M292.95,175.77a.71.71,0,0,1,.41-1.35,6.93,6.93,0,0,1,2.11,1.16.71.71,0,1,1-.9,1.09A5.29,5.29,0,0,0,292.95,175.77Z" style="fill:#2d1b1f;fill-rule:evenodd"/><path d="M289.53,184.14a.71.71,0,1,1,1.38-.3,2.72,2.72,0,0,0,.73,1.31,5,5,0,0,0,2.37,1.27,6.91,6.91,0,0,0,3.1,0,5.59,5.59,0,0,0,2.73-1.42.71.71,0,0,1,.83-.12,3.62,3.62,0,0,0,1.58.33,3.5,3.5,0,0,0,1.93-.65,4.09,4.09,0,0,0,1.72-3.42.71.71,0,0,1,1.41,0,5.52,5.52,0,0,1-2.32,4.6,4.85,4.85,0,0,1-4.52.6,7.09,7.09,0,0,1-3.07,1.48,8.33,8.33,0,0,1-3.73-.06,6.39,6.39,0,0,1-3-1.65h0A4.1,4.1,0,0,1,289.53,184.14Z" style="fill:#2d1b1f;fill-rule:evenodd"/><path d="M170.37,300.56c10.67,0,19.46,5.58,20.6,12.76a9,9,0,0,0,1.7-5.31c0-4.61-3.32-8.35-7.42-8.35a6.65,6.65,0,0,0-1.43.16h0c-.66-5.74-5-10.16-10.29-10.16a10.06,10.06,0,0,0-8.44,4.89,7.21,7.21,0,0,0-3.44-.88c-4.31,0-7.82,3.84-8,8.63a5.51,5.51,0,0,0-1.92-.34c-3.54,0-6.41,3.22-6.41,7.2a6.14,6.14,0,0,0,.07,1h0a7,7,0,0,0,4.31,5.8,10.06,10.06,0,0,1-.06-1.08C149.64,307,158.92,300.56,170.37,300.56Z" style="fill:#bfe4ea"/><path d="M186,316.92h0a.57.57,0,0,1-.55-.57.58.58,0,0,1,.63-.57c3.74,0,6.81-3.49,6.81-7.78s-3.07-7.78-6.85-7.78a6.11,6.11,0,0,0-1.3.14.57.57,0,0,1-.69-.51c-.64-5.5-4.82-9.64-9.72-9.64a9.54,9.54,0,0,0-8,4.62.57.57,0,0,1-.76.2,6.62,6.62,0,0,0-3.17-.81c-4,0-7.26,3.55-7.42,8.08a.57.57,0,0,1-.77.52,5,5,0,0,0-1.72-.3c-3.22,0-5.83,3-5.83,6.63a5.51,5.51,0,0,0,.06.92v.06c.41,3.22,2.89,5.64,5.76,5.64H155a.57.57,0,0,1,0,1.15H152.5c-3.46,0-6.43-2.87-6.9-6.68v0a6.7,6.7,0,0,1-.07-1.07c0-4.29,3.13-7.78,7-7.78a6.22,6.22,0,0,1,1.4.16c.5-4.8,4.12-8.45,8.52-8.45a7.7,7.7,0,0,1,3.24.71,10.61,10.61,0,0,1,8.63-4.72c5.31,0,9.84,4.29,10.78,10.07a7.13,7.13,0,0,1,.94-.06c4.41,0,8,4,8,8.92S190.41,316.92,186,316.92Z" style="fill:#158696"/><path d="M171.28,306.63a.61.61,0,0,0-.4.13.91.91,0,0,0-.24.33,1.58,1.58,0,0,0-.13.46,4,4,0,0,0,0,.53v3.07a2.46,2.46,0,0,1-.59,1.68,1.82,1.82,0,0,1-.48.4,1.59,1.59,0,0,1-.39.17v.05a1.31,1.31,0,0,1,.39.13,1.6,1.6,0,0,1,.48.38,2.39,2.39,0,0,1,.41.68,2.74,2.74,0,0,1,.18,1.06v3.05a3.91,3.91,0,0,0,0,.51,1.68,1.68,0,0,0,.13.47.89.89,0,0,0,.24.34.61.61,0,0,0,.4.13h.84v1h-1.17a1.55,1.55,0,0,1-.64-.14,1.8,1.8,0,0,1-.58-.42,2.2,2.2,0,0,1-.43-.69,2.49,2.49,0,0,1-.17-.95v-3a2.7,2.7,0,0,0-.12-.82,2,2,0,0,0-.31-.62,1.38,1.38,0,0,0-.44-.39,1.09,1.09,0,0,0-.52-.13v-1.14a1,1,0,0,0,.52-.14,1.44,1.44,0,0,0,.44-.4,2.13,2.13,0,0,0,.31-.63,2.64,2.64,0,0,0,.12-.8v-3.05a2.49,2.49,0,0,1,.17-.95,2.2,2.2,0,0,1,.43-.69,1.8,1.8,0,0,1,.58-.42,1.55,1.55,0,0,1,.64-.14h1.17v1Z" style="fill:#76c1c9"/><path d="M175.35,314,172.79,310l.39-.08a2.15,2.15,0,0,1,.43-.05,1.18,1.18,0,0,1,.69.17,1.71,1.71,0,0,1,.44.49l1.49,2.38,1.51-2.26a2.15,2.15,0,0,1,.52-.58,1.15,1.15,0,0,1,.69-.19,1.88,1.88,0,0,1,.43,0,1.46,1.46,0,0,1,.31.11L177,314l2.67,3.89a1.24,1.24,0,0,1-.37.1l-.4,0a1.68,1.68,0,0,1-.6-.12,1.18,1.18,0,0,1-.54-.45L176.13,315l-1.53,2.33a1.2,1.2,0,0,1-.54.49,1.84,1.84,0,0,1-.7.13l-.34,0a1,1,0,0,1-.33-.09Z" style="fill:#158696"/><path d="M181.09,320.18a.61.61,0,0,0,.4-.13.92.92,0,0,0,.24-.33,1.6,1.6,0,0,0,.13-.46,4.11,4.11,0,0,0,0-.53v-3.05a2.46,2.46,0,0,1,.59-1.68,1.81,1.81,0,0,1,.48-.4,1.61,1.61,0,0,1,.39-.17v-.05a1.29,1.29,0,0,1-.39-.13,1.58,1.58,0,0,1-.48-.38,2.37,2.37,0,0,1-.41-.68,2.75,2.75,0,0,1-.18-1.06v-3a4.24,4.24,0,0,0,0-.54,1.71,1.71,0,0,0-.13-.47.9.9,0,0,0-.24-.34.61.61,0,0,0-.4-.13h-.84v-1h1.17a1.55,1.55,0,0,1,.64.14,1.81,1.81,0,0,1,.58.42,2.21,2.21,0,0,1,.43.69,2.5,2.5,0,0,1,.17.95v3.05a2.7,2.7,0,0,0,.12.82,2.12,2.12,0,0,0,.31.63,1.33,1.33,0,0,0,.44.39,1.09,1.09,0,0,0,.52.13V314a1,1,0,0,0-.52.14,1.44,1.44,0,0,0-.44.4,2.15,2.15,0,0,0-.31.62,2.56,2.56,0,0,0-.12.8v3a2.5,2.5,0,0,1-.17.95,2.21,2.21,0,0,1-.43.69,1.81,1.81,0,0,1-.58.42,1.55,1.55,0,0,1-.64.14h-1.17v-1Z" style="fill:#76c1c9"/><path d="M166,305.52a.91.91,0,0,1,.25.59.76.76,0,0,1-.16.5,1.52,1.52,0,0,1-.41.34l-.34.19a1.87,1.87,0,0,0-1.8-1.09,2,2,0,0,0-.88.19,1.85,1.85,0,0,0-.64.52,2.74,2.74,0,0,0-.42.78,5.47,5.47,0,0,0-.24.94l-.21,1.28h3.21l-.23,1.4h-3.21l-1.45,8.76a11.09,11.09,0,0,1-.39,1.59,4.56,4.56,0,0,1-.65,1.29,2.87,2.87,0,0,1-1,.87,3.33,3.33,0,0,1-1.52.31,4.45,4.45,0,0,1-1.14-.14,1.88,1.88,0,0,1-.81-.41.84.84,0,0,1-.27-.61.89.89,0,0,1,.06-.37,1.32,1.32,0,0,1,.21-.3l.34-.34a2.19,2.19,0,0,0,.68.53,2,2,0,0,0,.87.18,1.38,1.38,0,0,0,.75-.2,1.74,1.74,0,0,0,.53-.54,3.39,3.39,0,0,0,.37-.82,7.23,7.23,0,0,0,.23-1l1.84-11.25A7.53,7.53,0,0,1,160,307a4.32,4.32,0,0,1,.81-1.3,3.41,3.41,0,0,1,1.17-.83,4,4,0,0,1,1.6-.29,3.62,3.62,0,0,1,1.5.27A2.46,2.46,0,0,1,166,305.52Z" style="fill:#158696"/><path d="M170.89,50.67H159.11a5.78,5.78,0,0,0-5,2.89l-5.89,10.21a5.78,5.78,0,0,0,0,5.78l5.89,10.21a5.78,5.78,0,0,0,5,2.89h11.79a5.78,5.78,0,0,0,5-2.89l5.89-10.21a5.78,5.78,0,0,0,0-5.78L175.9,53.56A5.78,5.78,0,0,0,170.89,50.67Z" style="fill:#158696"/><polygon points="161.14 53.54 156.88 53.54 154.75 57.23 156.88 60.92 161.14 60.92 163.28 57.23 161.14 53.54" style="fill:#ffc60a"/><rect x="166.01" y="53.81" width="6.84" height="6.84" style="fill:#d8eff4"/><rect x="158.74" y="63.45" width="12.51" height="6.84" style="fill:#04363d"/><circle cx="153.29" cy="66.86" r="3.56" style="fill:#919191"/><rect x="171.74" y="64.78" width="9.26" height="4.17" rx="1.95" ry="1.95" transform="translate(109.51 243.24) rotate(-90)" style="fill:#34bcd2"/><ellipse cx="170.11" cy="76.94" rx="4.65" ry="3.06" style="fill:#74cfe8"/><polygon points="159.14 71.83 160.54 74.64 163.65 75.07 161.42 77.28 161.96 80.37 159.18 78.92 156.41 80.4 156.92 77.3 154.66 75.12 157.76 74.65 159.14 71.83" style="fill:#34a8c4"/><path d="M483,90.13a2.73,2.73,0,0,1-2.15-1L472.71,79a2.72,2.72,0,0,1-.53-2.36l2.89-12.57a2.74,2.74,0,0,1,1.5-1.87l11.71-5.6a2.75,2.75,0,0,1,2.41,0l11.71,5.58a2.74,2.74,0,0,1,1.5,1.87l2.89,12.57a2.79,2.79,0,0,1-.53,2.36l-8.1,10.07a2.8,2.8,0,0,1-2.15,1l-13.06,0Z" style="fill:#158696"/><path d="M489.47,56.92a2.26,2.26,0,0,1,.95.21l11.71,5.58a2.25,2.25,0,0,1,1.2,1.5l2.89,12.57a2.16,2.16,0,0,1-.44,1.9l-8.1,10.07a2.21,2.21,0,0,1-1.74.83H483a2.21,2.21,0,0,1-1.74-.83l-8.1-10.07a2.32,2.32,0,0,1-.44-1.9l2.89-12.57a2.21,2.21,0,0,1,1.2-1.5l11.71-5.6a2.79,2.79,0,0,1,1-.19Zm0-1.09h0a3.5,3.5,0,0,0-1.44.32l-11.71,5.6A3.28,3.28,0,0,0,474.52,64l-2.89,12.57a3.28,3.28,0,0,0,.65,2.82l8.1,10.07a3.27,3.27,0,0,0,2.57,1.23h13a3.27,3.27,0,0,0,2.57-1.23l8.1-10.07a3.27,3.27,0,0,0,.65-2.82L504.35,64a3.28,3.28,0,0,0-1.81-2.25l-11.67-5.6a3.32,3.32,0,0,0-1.41-.32Z" style="fill:#fff"/><path d="M501.2,75.78h0s0,0,0,0l-.14,0a3.16,3.16,0,0,0-.44,0,.87.87,0,0,1-.23,0h0a6.11,6.11,0,0,1-1.25-.21.45.45,0,0,1-.25-.25s0,0,0,0h0l-.3-.09a9.16,9.16,0,0,0-.16-3.26,9.54,9.54,0,0,0-1.3-3l.23-.21v0a.52.52,0,0,1,.12-.35,6.75,6.75,0,0,1,1-.72h0l.21-.12a3.48,3.48,0,0,0,.39-.23l.12-.09s0,0,0,0h0a.77.77,0,0,0,.16-1,.66.66,0,0,0-.53-.25.86.86,0,0,0-.51.19h0l0,0s-.07.07-.12.09a3.84,3.84,0,0,0-.3.32,1.07,1.07,0,0,1-.16.16h0a5.89,5.89,0,0,1-.93.83.37.37,0,0,1-.21.07.29.29,0,0,1-.14,0h0l-.28.19a11.24,11.24,0,0,0-.95-.88,9.24,9.24,0,0,0-4.84-1.92l0-.3,0,0a.48.48,0,0,1-.19-.3,8.12,8.12,0,0,1,.07-1.25v0a.82.82,0,0,1,0-.23c0-.14,0-.28.07-.44v-.21h0a.71.71,0,0,0-1.23-.53.73.73,0,0,0-.21.53h0v.19a1.35,1.35,0,0,0,.07.44c0,.07,0,.14,0,.23v0a6,6,0,0,1,.07,1.25.48.48,0,0,1-.19.3l0,0h0l0,.3a11.63,11.63,0,0,0-1.25.19,8.92,8.92,0,0,0-4.58,2.59l-.23-.16h0l-.14,0a.37.37,0,0,1-.21-.07,6.14,6.14,0,0,1-.93-.86h0a1.07,1.07,0,0,0-.16-.16,3.84,3.84,0,0,0-.3-.32l-.12-.09s0,0,0,0h0a.81.81,0,0,0-.51-.19.66.66,0,0,0-.53.25.77.77,0,0,0,.16,1h0s0,0,0,0,.07.07.12.09a3.48,3.48,0,0,0,.39.23.94.94,0,0,1,.21.12h0a6.75,6.75,0,0,1,1,.72.43.43,0,0,1,.12.35v0h0l.23.21a.81.81,0,0,0-.12.19,9,9,0,0,0-1.3,6.11l-.3.09s0,0,0,0a.54.54,0,0,1-.25.25,5.85,5.85,0,0,1-1.25.21h0a.79.79,0,0,0-.23,0,3.16,3.16,0,0,0-.44,0l-.14,0a.09.09,0,0,0-.07,0h0a.76.76,0,0,0-.6.86.71.71,0,0,0,.74.53.51.51,0,0,0,.19,0h0s0,0,0,0l.14,0a2.23,2.23,0,0,0,.42-.16l.21-.09h0a5.69,5.69,0,0,1,1.2-.35h0a.52.52,0,0,1,.3.12s0,0,0,0h0l.32,0a9.15,9.15,0,0,0,3,4.35,9.37,9.37,0,0,0,1,.67l-.14.3s0,0,0,0a.48.48,0,0,1,0,.37,6.53,6.53,0,0,1-.6,1.09v0l-.14.19c-.09.12-.16.23-.25.37a.51.51,0,0,0-.07.12.08.08,0,0,1,0,0h0a.73.73,0,0,0,.3,1,.62.62,0,0,0,.28.07.83.83,0,0,0,.69-.44h0a.08.08,0,0,1,0,0,.51.51,0,0,1,.07-.12,4.38,4.38,0,0,0,.14-.42l.07-.21h0a5.44,5.44,0,0,1,.49-1.16.59.59,0,0,1,.3-.21s0,0,0,0h0l.16-.3a9,9,0,0,0,3.24.6,8.4,8.4,0,0,0,2-.23,10.29,10.29,0,0,0,1.2-.35l.14.25s0,0,0,0a.43.43,0,0,1,.3.21,7.92,7.92,0,0,1,.49,1.16v0l.07.21a2.93,2.93,0,0,0,.14.42l.07.12a.08.08,0,0,0,0,0h0a.79.79,0,0,0,.69.44.62.62,0,0,0,.28-.07.69.69,0,0,0,.35-.42.84.84,0,0,0,0-.58h0s0,0,0,0a.51.51,0,0,0-.07-.12,2.1,2.1,0,0,0-.25-.37l-.14-.19v0a5.2,5.2,0,0,1-.6-1.09.64.64,0,0,1,0-.37s0,0,0,0h0l-.12-.28a9.18,9.18,0,0,0,4-5.07l.28,0s0,0,0,0a.59.59,0,0,1,.3-.12h0a5.69,5.69,0,0,1,1.2.35h0l.21.09a2.23,2.23,0,0,0,.42.16l.14,0a.09.09,0,0,1,.07,0h0a.51.51,0,0,0,.19,0,.78.78,0,0,0,.74-.53.89.89,0,0,0-.67-.76Zm-10.72-1.13-1,.49-1-.49-.25-1.09.69-.88H490l.69.88-.23,1.09Zm6-2.41a7.3,7.3,0,0,1,.16,2.34l-3.54-1a.63.63,0,0,1-.44-.74.55.55,0,0,1,.14-.25l2.8-2.52a7.42,7.42,0,0,1,.88,2.2Zm-2-3.59-3,2.15a.62.62,0,0,1-.81-.14.51.51,0,0,1-.12-.25l-.21-3.77a7,7,0,0,1,4.17,2Zm-6.71-1.9.74-.14-.21,3.7a.63.63,0,0,1-.62.6.55.55,0,0,1-.28-.07l-3.08-2.2a7.06,7.06,0,0,1,3.45-1.9ZM483.26,70,486,72.5a.62.62,0,0,1,.07.86.46.46,0,0,1-.28.19l-3.59,1a7.45,7.45,0,0,1,1-4.54Zm-.62,6.27,3.68-.62a.62.62,0,0,1,.65.49.66.66,0,0,1,0,.37h0l-1.41,3.4a7.3,7.3,0,0,1-2.89-3.63Zm8.45,4.61a7.56,7.56,0,0,1-1.62.19,7.84,7.84,0,0,1-2.34-.37L489,77.43a.61.61,0,0,1,.74-.16,1,1,0,0,1,.28.25h0l1.78,3.22c-.21.07-.44.12-.67.19Zm4.51-3.22a7.35,7.35,0,0,1-2.22,2.25l-1.46-3.5a.62.62,0,0,1,.32-.72.74.74,0,0,1,.32-.07l3.7.62a4.66,4.66,0,0,1-.67,1.41Z" style="fill:#fff"/><path d="M579.85,199.83l-1,1.79c-3.18,1.45-6.29,2.48-9.61,1.63a22.77,22.77,0,0,1-6.69-3.08c-.61-.37-1.27-.76-2-1.18,6.9-2.34,13.56-1.43,19.51.27a2.76,2.76,0,0,0-.06-1.43c-6.37-1.77-13.54-2.61-21,.29l-1-.51-1.83-1c-1.45-.79-3-1.62-4.55-2.32l1.26-.83c3.78-2.49,6.77-4.46,11.91-4.29,6.2.21,10.65,3.44,14.05,6.56l1,1.75A2.34,2.34,0,0,1,579.85,199.83Zm-29.53-6.06,1.93-1.25c4-2.6,7.07-4.67,12.58-4.48a20.83,20.83,0,0,1,12.31,4.76l-6.53-11.31a2.34,2.34,0,0,0-2-1.17H550.11a2.34,2.34,0,0,0-2,1.17l-6.68,11.58a13.46,13.46,0,0,1,8.93.71Zm-7.14.1a12.27,12.27,0,0,0-2.64.66l-1.71,3a2.34,2.34,0,0,0-.24.6,25.91,25.91,0,0,0,10.29-3.43l.18-.11A12.84,12.84,0,0,0,543.18,193.87Zm25.74,10.49a23.67,23.67,0,0,1-7-3.2c-.83-.5-1.75-1-2.81-1.64l-1.45.58c-4.29,1.73-8.7,3.5-13.12,3.5a14.84,14.84,0,0,1-3.8-.49l-1-1.81a8.34,8.34,0,0,0,1.16.44c5.33,1.51,10.91-.73,16.3-2.9l.41-.16-.09,0-1.85-1a51,51,0,0,0-5.17-2.58l-1,.59a27.14,27.14,0,0,1-10.88,3.6,2.34,2.34,0,0,0,.24.59l9.24,16a2.34,2.34,0,0,0,2,1.17h18.47a2.34,2.34,0,0,0,2-1.17l7.25-12.55a16.57,16.57,0,0,1-6.22,1.42A11,11,0,0,1,568.92,204.36Z" style="fill:url(#linear-gradient)"/><path d="M557.25,198.9c-5.4,2.17-11,4.41-16.3,2.9a8.34,8.34,0,0,1-1.16-.44l1,1.81a14.84,14.84,0,0,0,3.8.49c4.42,0,8.83-1.77,13.12-3.5l1.45-.58-1.55-.84Z" style="fill:#ffc60a"/><path d="M580.13,199.32a2.76,2.76,0,0,0-.06-1.43c-6.37-1.77-13.54-2.61-21,.29l1.56.87C567.52,196.72,574.18,197.63,580.13,199.32Z" style="fill:#ffc60a"/><path d="M558.89,198.25l-1.22.49,1.55.84.17-.07c.41-.16.83-.31,1.24-.45l-1.56-.87Z" style="fill:#ffc60a"/><path d="M102.14,194.51a.44.44,0,0,1-.41-.29l-4.84-13.35a.44.44,0,1,1,.83-.3l4.84,13.35a.44.44,0,0,1-.26.56Z" style="fill:#158696"/><path d="M114.45,182.63l-.2,0-30.57-8.7a.73.73,0,0,1,.4-1.41l30.57,8.7a.73.73,0,0,1-.2,1.44Z" style="fill:#158696"/><path d="M84.95,189.86a.73.73,0,0,1-.57-1.19l18.25-22.91a.73.73,0,0,1,1.15.91L85.52,189.58A.73.73,0,0,1,84.95,189.86Z" style="fill:#158696"/><path d="M106.75,185.44h.36a5.14,5.14,0,0,0,0-10.21,4.07,4.07,0,0,0-.87.1h0c-.41-3.51-3.06-6.22-6.29-6.22a6.15,6.15,0,0,0-5.16,3,4.41,4.41,0,0,0-2.1-.54,5.2,5.2,0,0,0-4.89,5.28,3.37,3.37,0,0,0-1.18-.21A4.18,4.18,0,0,0,82.7,181a3.75,3.75,0,0,0,0,.62h0a4.09,4.09,0,0,0,3.87,3.78h20" style="fill:#fff"/><path d="M97.5,175.86c6.39,0,11.65,3.26,12.33,7.45a5.15,5.15,0,0,0,1-3.1,4.67,4.67,0,0,0-4.44-4.87,4.08,4.08,0,0,0-.85.09h0a6.44,6.44,0,0,0-6.16-5.93,6.05,6.05,0,0,0-5,2.85,4.4,4.4,0,0,0-2.06-.51,5,5,0,0,0-4.78,5,3.38,3.38,0,0,0-1.15-.2,4,4,0,0,0-3.83,4.2,3.49,3.49,0,0,0,0,.59h0a4.11,4.11,0,0,0,2.58,3.38,5.73,5.73,0,0,1,0-.63C85.09,179.61,90.65,175.86,97.5,175.86Z" style="fill:#bfe4ea"/><path d="M106.68,186.18H86.18a4.84,4.84,0,0,1-4.6-4.42h0a4.49,4.49,0,0,1,0-.7,4.92,4.92,0,0,1,4.65-5.14,4.24,4.24,0,0,1,.53,0,5.8,5.8,0,0,1,5.53-5.11,5.08,5.08,0,0,1,1.85.35,6.83,6.83,0,0,1,5.41-2.8,7.31,7.31,0,0,1,6.9,6.13c3-.18,5.54,2.52,5.54,5.83A5.59,5.59,0,0,1,106.68,186.18ZM83,181.6a3.37,3.37,0,0,0,3.14,3.11h20.49a4.12,4.12,0,0,0,3.81-4.37c0-2.68-2.11-4.82-4.52-4.29a.73.73,0,0,1-.89-.64c-.37-3.17-2.76-5.56-5.56-5.56A5.38,5.38,0,0,0,95,172.49a.73.73,0,0,1-1,.25,3.67,3.67,0,0,0-1.76-.45,4.46,4.46,0,0,0-4.16,4.57.73.73,0,0,1-1,.66,2.65,2.65,0,0,0-.92-.16A3.46,3.46,0,0,0,83,181a3,3,0,0,0,0,.5Z" style="fill:#158696"/><path d="M82.45,173.94h.17a2.4,2.4,0,0,0,0-4.76,1.9,1.9,0,0,0-.41,0h0a3.1,3.1,0,0,0-2.93-2.9,2.87,2.87,0,0,0-2.41,1.39,2.06,2.06,0,0,0-1-.25,2.42,2.42,0,0,0-2.28,2.46,1.57,1.57,0,0,0-.55-.1,2,2,0,0,0-1.83,2.05,1.75,1.75,0,0,0,0,.29h0a1.91,1.91,0,0,0,1.81,1.76h9.33" style="fill:#fff"/><path d="M82.62,174.68H73.06a2.65,2.65,0,0,1-2.53-2.4h0a2.52,2.52,0,0,1,0-.38A2.69,2.69,0,0,1,73,169.11a3.06,3.06,0,0,1,2.89-2.37,2.76,2.76,0,0,1,.73.1,3.54,3.54,0,0,1,2.66-1.24,3.76,3.76,0,0,1,3.53,2.86,3.14,3.14,0,0,1-.19,6.22ZM72,172.11a1.18,1.18,0,0,0,1.08,1.1h9.56a1.67,1.67,0,0,0,0-3.3l-.25,0a.73.73,0,0,1-.89-.63,2.38,2.38,0,0,0-2.21-2.25,2.13,2.13,0,0,0-1.79,1.05.73.73,0,0,1-1,.25,1.32,1.32,0,0,0-.63-.16A1.69,1.69,0,0,0,74.34,170a.73.73,0,0,1-1,.66.85.85,0,0,0-.29-.05A1.22,1.22,0,0,0,72,171.89a1,1,0,0,0,0,.17Z" style="fill:#158696"/><path d="M107.16,167.08h.17a2.4,2.4,0,0,0,0-4.76,1.9,1.9,0,0,0-.41,0h0a3.1,3.1,0,0,0-2.93-2.9,2.87,2.87,0,0,0-2.41,1.39,2.06,2.06,0,0,0-1-.25,2.42,2.42,0,0,0-2.28,2.46,1.57,1.57,0,0,0-.55-.1A2,2,0,0,0,95.95,165a1.75,1.75,0,0,0,0,.29h0a1.91,1.91,0,0,0,1.81,1.76h9.33" style="fill:#fff"/><path d="M107.33,167.81H97.77a2.65,2.65,0,0,1-2.53-2.4h0a2.55,2.55,0,0,1,0-.38,2.69,2.69,0,0,1,2.49-2.79,3.06,3.06,0,0,1,2.89-2.37,2.76,2.76,0,0,1,.73.1,3.54,3.54,0,0,1,2.66-1.24,3.76,3.76,0,0,1,3.53,2.86,3.14,3.14,0,0,1-.19,6.22ZM96.7,165.24a1.18,1.18,0,0,0,1.08,1.1h9.56a1.53,1.53,0,0,0,1.38-1.65,1.47,1.47,0,0,0-1.63-1.62.73.73,0,0,1-.89-.63,2.38,2.38,0,0,0-2.21-2.25,2.13,2.13,0,0,0-1.79,1.05.73.73,0,0,1-1,.25,1.32,1.32,0,0,0-.63-.16,1.69,1.69,0,0,0-1.55,1.75.73.73,0,0,1-1,.66.85.85,0,0,0-.29-.05A1.22,1.22,0,0,0,96.68,165a1.06,1.06,0,0,0,0,.17Z" style="fill:#158696"/><path d="M85.36,194h.17a2.4,2.4,0,0,0,0-4.76,1.9,1.9,0,0,0-.41,0h0a3.1,3.1,0,0,0-2.93-2.9,2.87,2.87,0,0,0-2.41,1.39,2.06,2.06,0,0,0-1-.25A2.42,2.42,0,0,0,76.53,190a1.57,1.57,0,0,0-.55-.1,2,2,0,0,0-1.83,2.05,1.75,1.75,0,0,0,0,.29h0A1.91,1.91,0,0,0,76,194h9.33" style="fill:#fff"/><path d="M85.53,194.71H76a2.65,2.65,0,0,1-2.53-2.4h0a2.51,2.51,0,0,1,0-.38,2.69,2.69,0,0,1,2.49-2.79,3.06,3.06,0,0,1,2.89-2.37,2.76,2.76,0,0,1,.73.1,3.54,3.54,0,0,1,2.66-1.24,3.76,3.76,0,0,1,3.53,2.86,3.14,3.14,0,0,1-.19,6.22ZM74.9,192.14a1.18,1.18,0,0,0,1.08,1.1h9.56a1.53,1.53,0,0,0,1.38-1.65c0-1-.75-1.81-1.63-1.62a.73.73,0,0,1-.89-.63,2.38,2.38,0,0,0-2.21-2.25,2.13,2.13,0,0,0-1.79,1.05.73.73,0,0,1-1,.25,1.33,1.33,0,0,0-.63-.16A1.69,1.69,0,0,0,77.26,190a.73.73,0,0,1-1,.66.85.85,0,0,0-.29-.05,1.22,1.22,0,0,0-1.09,1.32,1,1,0,0,0,0,.17Z" style="fill:#158696"/><path d="M106.32,196.39h.17a2.4,2.4,0,0,0,0-4.76,1.9,1.9,0,0,0-.41,0h0a3.1,3.1,0,0,0-2.93-2.9,2.87,2.87,0,0,0-2.41,1.39,2.06,2.06,0,0,0-1-.25,2.42,2.42,0,0,0-2.28,2.46,1.57,1.57,0,0,0-.55-.1,2,2,0,0,0-1.83,2.05,1.75,1.75,0,0,0,0,.29h0a1.91,1.91,0,0,0,1.81,1.76h9.33" style="fill:#fff"/><path d="M106.48,197.13H96.93a2.65,2.65,0,0,1-2.53-2.4h0a2.53,2.53,0,0,1,0-.38,2.69,2.69,0,0,1,2.49-2.79,3.06,3.06,0,0,1,2.89-2.37,2.76,2.76,0,0,1,.73.1,3.54,3.54,0,0,1,2.66-1.24,3.76,3.76,0,0,1,3.53,2.86,3.14,3.14,0,0,1-.19,6.22Zm-10.63-2.57a1.18,1.18,0,0,0,1.08,1.1h9.56a1.67,1.67,0,0,0,0-3.3l-.25,0a.73.73,0,0,1-.89-.63,2.38,2.38,0,0,0-2.21-2.25,2.13,2.13,0,0,0-1.79,1.05.73.73,0,0,1-1,.25,1.32,1.32,0,0,0-.63-.16,1.69,1.69,0,0,0-1.55,1.75.73.73,0,0,1-1,.66.84.84,0,0,0-.29-.05,1.22,1.22,0,0,0-1.09,1.32,1.07,1.07,0,0,0,0,.17Z" style="fill:#158696"/><path d="M124.31,184.8h.17a2.4,2.4,0,0,0,0-4.76,1.9,1.9,0,0,0-.41,0h0a3.1,3.1,0,0,0-2.93-2.9,2.87,2.87,0,0,0-2.41,1.39,2.06,2.06,0,0,0-1-.25,2.42,2.42,0,0,0-2.28,2.46,1.57,1.57,0,0,0-.55-.1,2,2,0,0,0-1.83,2.05,1.75,1.75,0,0,0,0,.29h0a1.91,1.91,0,0,0,1.81,1.76h9.33" style="fill:#fff"/><path d="M124.48,185.54h-9.56a2.65,2.65,0,0,1-2.53-2.4h0a2.55,2.55,0,0,1,0-.38,2.69,2.69,0,0,1,2.49-2.79,3.06,3.06,0,0,1,2.89-2.37,2.76,2.76,0,0,1,.73.1,3.54,3.54,0,0,1,2.66-1.24,3.76,3.76,0,0,1,3.53,2.86,3.14,3.14,0,0,1-.19,6.22ZM113.85,183a1.18,1.18,0,0,0,1.08,1.1h9.56a1.67,1.67,0,0,0,0-3.3l-.25,0a.73.73,0,0,1-.89-.63,2.38,2.38,0,0,0-2.21-2.25,2.13,2.13,0,0,0-1.79,1.05.73.73,0,0,1-1,.25,1.32,1.32,0,0,0-.63-.16,1.69,1.69,0,0,0-1.55,1.75.73.73,0,0,1-1,.66.85.85,0,0,0-.29-.05,1.22,1.22,0,0,0-1.09,1.32,1.06,1.06,0,0,0,0,.17Z" style="fill:#158696"/><g style="clip-path:url(#clip-path)"><g style="clip-path:url(#clip-path-2)"><rect x="479.75" y="296.49" width="11.95" height="18.28" style="fill:#158696"/></g></g><g style="clip-path:url(#clip-path-3)"><g style="clip-path:url(#clip-path-2)"><rect x="473.42" y="297.9" width="11.95" height="16.17" style="fill:#158696"/></g></g><g style="clip-path:url(#clip-path-5)"><g style="clip-path:url(#clip-path-2)"><rect x="486.07" y="297.9" width="11.95" height="16.17" style="fill:#158696"/></g></g><g style="clip-path:url(#clip-path-7)"><g style="clip-path:url(#clip-path-2)"><rect x="464.99" y="290.16" width="14.06" height="19.68" style="fill:#a7cfd2"/></g></g><g style="clip-path:url(#clip-path-9)"><g style="clip-path:url(#clip-path-2)"><rect x="473.42" y="285.95" width="16.87" height="16.87" style="fill:#a7cfd2"/></g></g><g style="clip-path:url(#clip-path-11)"><g style="clip-path:url(#clip-path-2)"><rect x="488.18" y="293.68" width="16.87" height="16.87" style="fill:#a7cfd2"/></g></g><g style="clip-path:url(#clip-path-13)"><g style="clip-path:url(#clip-path-14)"><rect x="487.77" y="303.43" width="16.87" height="16.87" transform="translate(-71.19 458.62) rotate(-46.65)" style="fill:#a7cfd2"/></g></g><g style="clip-path:url(#clip-path-15)"><g style="clip-path:url(#clip-path-16)"><rect x="480.95" y="308.44" width="16.87" height="16.87" style="fill:#a7cfd2"/></g></g><g style="clip-path:url(#clip-path-17)"><g style="clip-path:url(#clip-path-18)"><rect x="470.94" y="311.96" width="19.68" height="14.06" style="fill:#a7cfd2"/></g></g><g style="clip-path:url(#clip-path-19)"><g style="clip-path:url(#clip-path-2)"><rect x="465.69" y="300.71" width="16.87" height="16.87" style="fill:#a7cfd2"/></g></g><g style="clip-path:url(#clip-path-21)"><g style="clip-path:url(#clip-path-22)"><rect x="482.5" y="287.03" width="16.87" height="16.87" transform="translate(-63.15 441.43) rotate(-45.8)" style="fill:#a7cfd2"/></g></g></svg>